<?xml version="1.0" encoding="UTF-8" standalone="no"?>
<!-- Created with Inkscape (http://www.inkscape.org/) -->

<svg
   xmlns:dc="http://purl.org/dc/elements/1.1/"
   xmlns:cc="http://creativecommons.org/ns#"
   xmlns:rdf="http://www.w3.org/1999/02/22-rdf-syntax-ns#"
   xmlns:svg="http://www.w3.org/2000/svg"
   xmlns="http://www.w3.org/2000/svg"
   xmlns:sodipodi="http://sodipodi.sourceforge.net/DTD/sodipodi-0.dtd"
   xmlns:inkscape="http://www.inkscape.org/namespaces/inkscape"
   width="18.55422mm"
   height="28.270111mm"
   viewBox="0 0 18.55422 28.270111"
   version="1.1"
   id="svg8"
   inkscape:version="0.92.4 (5da689c313, 2019-01-14)"
   sodipodi:docname="achbrt.svg">
  <defs
     id="defs2" />
  <sodipodi:namedview
     id="base"
     pagecolor="#ffffff"
     bordercolor="#666666"
     borderopacity="1.0"
     inkscape:pageopacity="0.0"
     inkscape:pageshadow="2"
     inkscape:zoom="8.9170455"
     inkscape:cx="38.888927"
     inkscape:cy="50.147298"
     inkscape:document-units="mm"
     inkscape:current-layer="layer1"
     showgrid="false"
     inkscape:window-width="4200"
     inkscape:window-height="2569"
     inkscape:window-x="-16"
     inkscape:window-y="-16"
     inkscape:window-maximized="1" />
  <metadata
     id="metadata5">
    <rdf:RDF>
      <cc:Work
         rdf:about="">
        <dc:format>image/svg+xml</dc:format>
        <dc:type
           rdf:resource="http://purl.org/dc/dcmitype/StillImage" />
        <dc:title></dc:title>
      </cc:Work>
    </rdf:RDF>
  </metadata>
  <g
     inkscape:label="Calque 1"
     inkscape:groupmode="layer"
     id="layer1"
     transform="translate(-109.15111,-101.32541)">
    <path
       style="color:#000000;font-style:normal;font-variant:normal;font-weight:normal;font-stretch:normal;font-size:medium;line-height:normal;font-family:sans-serif;font-variant-ligatures:normal;font-variant-position:normal;font-variant-caps:normal;font-variant-numeric:normal;font-variant-alternates:normal;font-feature-settings:normal;text-indent:0;text-align:start;text-decoration:none;text-decoration-line:none;text-decoration-style:solid;text-decoration-color:#000000;letter-spacing:normal;word-spacing:normal;text-transform:none;writing-mode:lr-tb;direction:ltr;text-orientation:mixed;dominant-baseline:auto;baseline-shift:baseline;text-anchor:start;white-space:normal;shape-padding:0;clip-rule:nonzero;display:inline;overflow:visible;visibility:visible;opacity:1;isolation:auto;mix-blend-mode:normal;color-interpolation:sRGB;color-interpolation-filters:linearRGB;solid-color:#000000;solid-opacity:1;vector-effect:none;fill:#9e2a97;fill-opacity:1;fill-rule:nonzero;stroke:none;stroke-width:0.27277362;stroke-linecap:butt;stroke-linejoin:miter;stroke-miterlimit:4;stroke-dasharray:none;stroke-dashoffset:0;stroke-opacity:1;color-rendering:auto;image-rendering:auto;shape-rendering:auto;text-rendering:auto;enable-background:accumulate"
       d="m 118.44798,101.0311 c -0.62231,-0.006 -1.23553,0.27551 -1.8125,0.81835 -0.51237,0.48208 -0.80181,1.02065 -0.8457,1.57618 -0.0439,0.55553 0.16039,1.11799 0.5957,1.63867 l 0.39649,0.47265 h -1.27539 c -0.43724,0 -0.83566,0.0302 -1.13086,0.0801 -0.1476,0.0249 -0.26792,0.0539 -0.36328,0.0918 -0.0477,0.019 -0.0884,0.0388 -0.12696,0.0703 -0.0385,0.0316 -0.082,0.0849 -0.082,0.1582 0,0.0793 0.0499,0.1334 0.0918,0.16407 0.0419,0.0307 0.0858,0.0518 0.13867,0.0703 0.10576,0.037 0.24305,0.0654 0.41211,0.0898 0.33811,0.0489 0.79967,0.0781 1.32031,0.0781 0.86724,0 1.3293,0.016 1.52149,0.082 0.0961,0.033 0.11695,0.0586 0.13867,0.11133 0.0217,0.0527 0.0312,0.15135 0.0312,0.29687 0,0.12549 -0.0115,0.21839 -0.0352,0.28321 -0.0237,0.0648 -0.0543,0.10615 -0.11914,0.15039 -0.12958,0.0885 -0.4122,0.1617 -0.9082,0.23632 -2.86249,0.43066 -5.71492,2.7313 -6.81641,5.49219 -0.83383,2.09004 -0.71626,5.24006 0.27539,7.07813 1.2832,2.37845 3.60394,4.16339 6.23243,4.79492 l 1.37109,0.33008 v 1.00586 0.94336 l -0.98047,-0.20704 c -0.62888,-0.13293 -1.57282,-0.47921 -2.38477,-0.8457 -0.40597,-0.18324 -0.78081,-0.37118 -1.06835,-0.53906 -0.28755,-0.16788 -0.49104,-0.33433 -0.5293,-0.39258 -0.055,-0.0837 -0.0253,-0.29519 0.10937,-0.42187 0.041,-0.0385 0.0763,-0.0829 0.0957,-0.14063 0.0194,-0.0577 0.0155,-0.1271 -0.008,-0.18359 -0.0465,-0.11299 -0.14218,-0.18301 -0.27539,-0.25977 -0.26641,-0.15351 -0.71924,-0.3214 -1.42968,-0.54687 -0.52036,-0.16515 -1.00287,-0.30559 -1.36329,-0.40039 -0.1802,-0.0474 -0.32843,-0.0837 -0.43945,-0.10547 -0.0555,-0.0109 -0.1014,-0.0179 -0.14062,-0.0215 -0.0196,-0.002 -0.0372,-0.003 -0.0586,-0.002 -0.0107,7.2e-4 -0.0232,0.003 -0.0391,0.008 -0.008,0.002 -0.0166,0.005 -0.0273,0.01 -0.0108,0.005 -0.0364,0.0247 -0.0371,0.0254 -6.7e-4,6.2e-4 -0.0212,0.0243 -0.0274,0.0352 -0.006,0.0109 -0.009,0.0189 -0.0117,0.0273 -0.005,0.017 -0.007,0.03 -0.008,0.041 -0.002,0.022 -1.4e-4,0.0395 0.002,0.0567 0.004,0.0344 0.0124,0.0695 0.0234,0.11328 0.022,0.0874 0.0567,0.20217 0.10157,0.33789 0.0898,0.27142 0.22035,0.62766 0.36132,0.99414 0.14097,0.36647 0.29265,0.74328 0.42774,1.05664 0.13508,0.31336 0.24547,0.55479 0.33008,0.68359 0.0517,0.0788 0.14804,0.1076 0.2246,0.10547 0.0766,-0.002 0.15054,-0.0245 0.23047,-0.0586 0.15986,-0.0682 0.34258,-0.18976 0.52344,-0.34961 l 0.55664,-0.49219 1.81445,0.89062 c 1.05348,0.51663 2.38957,1.00971 3.03907,1.10743 0.53082,0.0799 0.77934,0.14314 0.87304,0.24414 0.0469,0.0505 0.0754,0.11907 0.0937,0.25 0.0183,0.13093 0.0215,0.31653 0.0215,0.5625 0,0.48344 -0.006,0.76214 0.15625,0.95898 0.0811,0.0984 0.20033,0.14981 0.33398,0.17383 0.13366,0.024 0.29041,0.0273 0.49024,0.0273 0.19981,0 0.35659,-0.003 0.49023,-0.0273 0.13364,-0.024 0.25292,-0.0755 0.33399,-0.17383 0.16212,-0.1967 0.15625,-0.47613 0.15625,-0.95898 0,-0.24774 0.003,-0.43209 0.0215,-0.5625 0.0181,-0.13041 0.0476,-0.19826 0.0937,-0.2461 0.0923,-0.0957 0.34406,-0.15197 0.88867,-0.2207 0.65472,-0.0826 1.95989,-0.50347 2.95899,-0.94336 0.88181,-0.38824 1.33719,-0.57785 1.59179,-0.60937 0.12731,-0.0158 0.19829,-0.002 0.28125,0.043 0.083,0.0448 0.17825,0.12932 0.3086,0.25196 0.13187,0.12407 0.23342,0.22503 0.35937,0.28125 0.063,0.0281 0.13574,0.0422 0.20899,0.0293 0.0732,-0.0129 0.14033,-0.0508 0.19922,-0.10156 0.23552,-0.20316 0.4499,-0.63676 0.90234,-1.5 l 1.05078,-2.00586 -1.19141,0.22461 c -1.37454,0.25865 -2.26097,0.4816 -2.73828,0.71485 -0.11932,0.0583 -0.21427,0.11739 -0.28711,0.18554 -0.0728,0.0682 -0.12792,0.15081 -0.13672,0.24805 -0.009,0.0972 0.0337,0.19081 0.0957,0.26367 0.062,0.0729 0.14558,0.1346 0.25,0.19531 0.10561,0.0614 0.19772,0.22634 0.20508,0.29688 -0.0145,0.0165 -0.0419,0.0406 -0.0801,0.0703 -0.0804,0.0624 -0.20528,0.14275 -0.36133,0.23047 -0.31211,0.17543 -0.74717,0.38452 -1.2207,0.58984 -0.94708,0.41066 -2.05977,0.80776 -2.64649,0.90625 l -0.7539,0.12696 v -0.99414 c 0,-0.54422 0.0252,-0.81492 0.10742,-0.9336 0.0411,-0.0593 0.0984,-0.0987 0.20898,-0.13867 0.11059,-0.0399 0.26972,-0.0728 0.48438,-0.11133 2.97525,-0.53434 5.94097,-2.90788 7.02148,-5.625 1.34335,-3.37804 0.54624,-6.95057 -2.10742,-9.44726 -0.74057,-0.69677 -1.7063,-1.33254 -2.66602,-1.79688 -0.95971,-0.46434 -1.90761,-0.75976 -2.63281,-0.75976 -0.18013,0 -0.26717,-0.0355 -0.32226,-0.10157 -0.0551,-0.066 -0.0937,-0.19765 -0.0937,-0.42382 0,-0.1571 0.008,-0.26529 0.0293,-0.32422 0.0216,-0.0589 0.0399,-0.0836 0.13282,-0.11719 0.18577,-0.0672 0.64875,-0.082 1.52929,-0.082 0.52065,0 0.9822,-0.0292 1.32031,-0.0781 0.16906,-0.0245 0.30636,-0.0528 0.41211,-0.0898 0.0529,-0.0185 0.0988,-0.0396 0.14063,-0.0703 0.0419,-0.0307 0.0918,-0.0847 0.0918,-0.16407 0,-0.0741 -0.0451,-0.1268 -0.084,-0.1582 -0.0389,-0.0314 -0.0807,-0.0514 -0.1289,-0.0703 -0.0964,-0.0378 -0.21952,-0.0669 -0.36915,-0.0918 -0.29925,-0.0498 -0.70101,-0.0801 -1.14453,-0.0801 -0.38411,0 -0.67519,-9.2e-4 -0.88281,-0.01 -0.1791,-0.008 -0.26864,-0.0272 -0.31836,-0.041 0.0315,-0.0454 0.087,-0.11234 0.18555,-0.21484 0.30292,-0.31492 0.58285,-0.96359 0.67773,-1.51367 0.0711,-0.41241 0.0852,-0.70979 -0.0273,-0.99414 -0.1125,-0.28435 -0.33699,-0.53271 -0.70703,-0.88086 -0.58761,-0.55284 -1.20581,-0.84569 -1.82813,-0.85156 z m -0.002,0.27343 c 0.53913,0.005 1.08918,0.2567 1.64258,0.77735 0.36239,0.34095 0.55463,0.56389 0.64062,0.78125 0.086,0.21735 0.0802,0.45077 0.0117,0.84765 -0.0847,0.49116 -0.38125,1.14003 -0.60351,1.3711 -0.1163,0.1209 -0.20542,0.21028 -0.25977,0.31054 -0.0272,0.0501 -0.0515,0.11513 -0.0312,0.18946 0.0203,0.0743 0.084,0.1232 0.14063,0.14843 0.11317,0.0505 0.2495,0.0611 0.46679,0.0703 0.2173,0.009 0.50993,0.01 0.89453,0.01 0.43114,0 0.82239,0.03 1.09961,0.0762 0.0895,0.0149 0.14169,0.0318 0.20313,0.0488 -0.0739,0.0194 -0.14539,0.0401 -0.25977,0.0566 -0.31806,0.046 -0.77077,0.0742 -1.28125,0.0742 -0.88176,0 -1.33348,-0.004 -1.62109,0.0996 -0.14381,0.052 -0.2511,0.15441 -0.29688,0.2793 -0.0458,0.12488 -0.0469,0.25619 -0.0469,0.41797 0,0.25467 0.0376,0.45512 0.1582,0.59961 0.12055,0.14448 0.31019,0.19921 0.53125,0.19921 0.64908,0 1.57721,0.27934 2.51367,0.73243 0.93646,0.45309 1.88528,1.07791 2.59961,1.75 2.5793,2.42672 3.34645,5.86572 2.04102,9.14843 -1.03685,2.60733 -3.94954,4.9402 -6.81641,5.45508 -0.21776,0.0391 -0.38939,0.0738 -0.53125,0.125 -0.14186,0.0512 -0.25863,0.12588 -0.33789,0.24024 -0.15851,0.22871 -0.1582,0.53958 -0.1582,1.08789 v 1.3164 l 1.07422,-0.17968 c 0.64676,-0.10858 1.74984,-0.5099 2.70898,-0.92579 0.47958,-0.20794 0.91851,-0.41853 1.24414,-0.60156 0.16282,-0.0915 0.29732,-0.17502 0.39649,-0.25195 0.0496,-0.0385 0.0913,-0.0752 0.125,-0.11524 0.0337,-0.0401 0.0684,-0.0843 0.0684,-0.16015 0,-0.22416 -0.15001,-0.42887 -0.34961,-0.54492 -0.0881,-0.0512 -0.14885,-0.10046 -0.17969,-0.13672 -0.0308,-0.0363 -0.0302,-0.05 -0.0293,-0.0605 9.5e-4,-0.0105 0.006,-0.0346 0.0488,-0.0742 0.0423,-0.0396 0.11657,-0.0897 0.2207,-0.14062 0.41653,-0.20355 1.30297,-0.43419 2.66993,-0.69141 l 0.63671,-0.11914 -0.78906,1.50586 c -0.45217,0.86271 -0.7032,1.30374 -0.83789,1.41992 -0.0337,0.029 -0.0556,0.0368 -0.0684,0.0391 -0.0128,0.002 -0.0235,0.002 -0.0508,-0.01 -0.0547,-0.0244 -0.1529,-0.10592 -0.2832,-0.22852 -0.13183,-0.12403 -0.23976,-0.22421 -0.36719,-0.29297 -0.12743,-0.0688 -0.27421,-0.0971 -0.44336,-0.0762 -0.33829,0.0419 -0.78564,0.24239 -1.66797,0.63086 -0.97668,0.43002 -2.30101,0.84846 -2.88281,0.92188 -0.54702,0.069 -0.85587,0.0986 -1.05273,0.30273 -0.0984,0.10205 -0.14584,0.23869 -0.16797,0.39844 -0.0221,0.15975 -0.0234,0.35039 -0.0234,0.59961 0,0.47797 -0.0321,0.71031 -0.0937,0.78515 -0.0308,0.0374 -0.0731,0.0623 -0.17188,0.0801 -0.0988,0.0178 -0.24519,0.0234 -0.4414,0.0234 -0.19624,0 -0.34262,-0.006 -0.44141,-0.0234 -0.0988,-0.0178 -0.14103,-0.0426 -0.17187,-0.0801 -0.0617,-0.0749 -0.0937,-0.30658 -0.0937,-0.78515 0,-0.24781 -10e-4,-0.43973 -0.0234,-0.59961 -0.0224,-0.15988 -0.0698,-0.29473 -0.16602,-0.39844 -0.19242,-0.20741 -0.49737,-0.2478 -1.03125,-0.32812 -0.56554,-0.0851 -1.92879,-0.57782 -2.96093,-1.08399 l -1.97852,-0.96875 -0.69336,0.61328 c -0.1632,0.14425 -0.32716,0.24954 -0.44727,0.30078 -0.0592,0.0253 -0.10837,0.0362 -0.13085,0.0371 -0.0568,-0.0901 -0.16949,-0.32496 -0.29883,-0.625 -0.13309,-0.30873 -0.28398,-0.68332 -0.42383,-1.04687 -0.13985,-0.36355 -0.26796,-0.71594 -0.35547,-0.98047 -0.0378,-0.11436 -0.0642,-0.20218 -0.084,-0.27539 0.10064,0.02 0.2435,0.0537 0.41796,0.0996 0.35394,0.0931 0.83291,0.23445 1.34961,0.39844 0.70483,0.22369 1.1549,0.39353 1.37696,0.52148 0.10802,0.0622 0.14921,0.11358 0.15429,0.12305 -10e-4,0.003 -0.003,0.0116 -0.0195,0.0273 -0.21925,0.20628 -0.30689,0.53131 -0.15039,0.76953 0.10704,0.16294 0.32134,0.30156 0.6211,0.47656 0.29975,0.17501 0.68123,0.36654 1.09375,0.55274 0.82503,0.3724 1.77149,0.72403 2.43945,0.86523 l 1.31055,0.27735 v -1.28125 -1.22071 l -1.58008,-0.3789 c -2.55026,-0.61273 -4.81168,-2.35256 -6.05664,-4.66016 -0.93271,-1.72879 -1.05643,-4.85569 -0.26172,-6.84765 1.06037,-2.65784 3.85711,-4.91104 6.60351,-5.32422 0.50437,-0.0759 0.81157,-0.13794 1.02149,-0.28125 0.10496,-0.0717 0.17959,-0.16871 0.2207,-0.28125 0.0411,-0.11254 0.0527,-0.2362 0.0527,-0.37696 0,-0.15252 -0.001,-0.27956 -0.0508,-0.40039 -0.0497,-0.12082 -0.16081,-0.21622 -0.30468,-0.26562 -0.28774,-0.0988 -0.74049,-0.0977 -1.60938,-0.0977 -0.51047,0 -0.96318,-0.0282 -1.28125,-0.0742 -0.11519,-0.0167 -0.18761,-0.0371 -0.26172,-0.0566 0.0604,-0.017 0.11118,-0.034 0.19922,-0.0488 0.27288,-0.0461 0.65931,-0.0762 1.08399,-0.0762 h 1.85937 l -0.77148,-0.92187 c -0.40086,-0.47947 -0.57078,-0.96583 -0.53321,-1.44141 0.0376,-0.47558 0.28543,-0.95031 0.76172,-1.39844 0.54135,-0.50933 1.08392,-0.74923 1.62305,-0.74414 z m -0.0273,0.26367 c -0.91611,0 -1.60855,0.5033 -1.89844,1.17383 -0.28989,0.67054 -0.17577,1.50882 0.46484,2.15039 0.44048,0.44113 0.97888,0.65893 1.50781,0.64258 0.44045,-0.0136 0.83718,-0.28398 1.19532,-0.61328 v 0.16602 l 0.24023,-0.28907 c 0.16799,-0.20093 0.31909,-0.43319 0.42969,-0.65234 0.11059,-0.21915 0.18555,-0.41659 0.18555,-0.58984 0,-0.47437 -0.29988,-0.95862 -0.70508,-1.33594 -0.4052,-0.37732 -0.92299,-0.65235 -1.41992,-0.65235 z m 0,0.27344 c 0.3922,0 0.86739,0.23639 1.23437,0.57813 0.36699,0.34173 0.61719,0.78313 0.61719,1.13672 0,0.0785 -0.0556,0.26728 -0.15625,0.46679 -0.10069,0.19952 -0.24196,0.41907 -0.39453,0.60156 -0.34765,0.41583 -0.78545,0.6248 -1.23438,0.63868 -0.44893,0.0139 -0.91253,-0.16781 -1.30664,-0.5625 -0.56918,-0.57003 -0.65569,-1.2791 -0.4082,-1.85157 0.24749,-0.57246 0.83095,-1.00781 1.64844,-1.00781 z m 0.0215,5.97461 c -1.70598,-0.0102 -2.45685,0.12728 -3.71289,0.68164 -2.78777,1.2304 -4.54091,3.49515 -5.07812,6.00586 -0.53722,2.51071 0.14259,5.26703 2.19726,7.46875 0.52383,0.56131 1.70962,1.36095 2.68359,1.82422 1.62816,0.77443 1.96088,0.83501 4.19532,0.73633 1.57438,-0.0696 2.74564,-0.26636 3.42773,-0.59766 2.91843,-1.41751 4.68149,-3.87507 5.12305,-6.49023 0.44155,-2.61516 -0.43988,-5.38743 -2.78125,-7.41797 -1.82334,-1.58128 -3.5075,-2.19556 -6.05469,-2.21094 z m -0.002,0.27344 c 2.50495,0.0151 4.08927,0.59222 5.87695,2.14258 2.27438,1.97244 3.11781,4.64254 2.69141,7.16797 -0.42641,2.52542 -2.12673,4.90676 -4.97266,6.28906 -0.60733,0.29498 -1.76328,0.50149 -3.32031,0.57031 -2.22957,0.0985 -2.44504,0.0622 -4.06641,-0.70898 -0.94008,-0.44715 -2.13199,-1.26246 -2.60156,-1.76563 -1.99786,-2.14084 -2.64971,-4.79971 -2.13086,-7.22461 0.51885,-2.4249 2.21039,-4.61491 4.92383,-5.8125 1.23552,-0.5453 1.90803,-0.66836 3.59961,-0.6582 z"
       id="path4529"
       inkscape:connector-curvature="0"
       sodipodi:nodetypes="cccccscccscccsccscccccccccccccccccccccccccccscccccccscccccssccsccsccccccscccccccccccccccccsccccccscsccscccssscsccccsccccccccccccscccsccscsscscscsccccccsccccccccccccccccccsccsccssccccccccsccccccccccccccccscccscsscccsccccccscccccccsssscscccccscsccccccsccccccccscc" />
    <path
       style="fill:#9e2a97;fill-opacity:1;fill-rule:evenodd;stroke:none;stroke-width:0;stroke-miterlimit:4;stroke-dasharray:none;stroke-dashoffset:0;stroke-opacity:1"
       d="m 445.91169,489.73874 c -0.17852,-0.039 -0.42734,-0.20863 -0.55293,-0.37702 -0.20478,-0.27458 -0.2366,-0.54077 -0.30837,-2.57933 -0.0885,-2.51354 -0.14714,-2.97315 -0.45843,-3.59236 -0.4364,-0.86808 -1.31054,-1.27282 -3.45828,-1.60123 -1.42104,-0.2173 -2.8082,-0.58166 -4.76115,-1.2506 -3.13288,-1.07309 -5.55087,-2.14548 -12.05275,-5.34546 l -2.62759,-1.2932 -0.40032,0.34864 c -0.22017,0.19175 -0.9198,0.80718 -1.55473,1.36763 -1.20921,1.06738 -2.42267,1.88848 -2.71228,1.83532 -0.0938,-0.0172 -0.30788,-0.30886 -0.47576,-0.6481 -0.82256,-1.66215 -2.56499,-6.01656 -3.51532,-8.78494 l -0.49413,-1.43946 0.47517,0.0793 c 0.80279,0.13395 4.60427,1.25267 7.22785,2.12706 2.48143,0.82702 4.04529,1.46783 4.42853,1.81465 0.19292,0.1746 0.18872,0.19923 -0.0982,0.57543 -0.82656,1.08368 -0.76873,2.31598 0.14926,3.18056 1.6376,1.54234 8.96318,4.90347 13.49568,6.19211 1.03407,0.294 6.5294,1.52611 6.80659,1.52611 0.0188,0 0.0342,-2.14282 0.0342,-4.76183 v -4.76183 l -0.42054,-0.10845 c -0.2313,-0.0597 -1.83357,-0.44526 -3.5606,-0.8569 -3.51191,-0.83708 -5.69254,-1.5207 -7.85013,-2.46099 -5.33284,-2.32409 -10.33332,-6.20242 -13.8844,-10.76862 -0.99942,-1.28512 -2.48462,-3.5368 -3.14373,-4.76615 -1.93174,-3.60299 -2.98848,-8.61808 -2.98924,-14.18631 -7.6e-4,-5.57492 0.90039,-9.80012 2.96586,-13.90599 1.58498,-3.15073 3.47752,-5.72624 6.22436,-8.47059 2.88808,-2.88546 5.7322,-4.94092 9.294,-6.71683 2.88639,-1.43916 5.22766,-2.19141 8.74653,-2.81028 2.91427,-0.51254 3.7226,-0.87215 4.24212,-1.88726 0.46505,-0.90868 0.43409,-2.82879 -0.0564,-3.49719 -0.30715,-0.41857 -0.98063,-0.75413 -1.79987,-0.8968 -0.40165,-0.0699 -2.6501,-0.17213 -4.99655,-0.22709 -4.14059,-0.097 -6.22148,-0.26336 -5.7011,-0.45586 0.61056,-0.22587 2.74819,-0.32671 6.9255,-0.32671 2.50046,0 4.54584,-0.0378 4.54529,-0.0841 -5.6e-4,-0.0463 -0.66098,-0.86631 -1.46762,-1.82235 -0.80665,-0.95603 -1.6903,-2.04879 -1.96367,-2.42834 -0.9037,-1.25471 -1.49819,-2.9166 -1.49819,-4.1882 0,-2.48273 1.83858,-5.29723 4.65011,-7.11842 1.53903,-0.99692 2.77752,-1.40458 4.26713,-1.40458 2.40218,0 4.59991,1.16132 7.08978,3.7464 1.6881,1.75265 1.98579,2.54925 1.71209,4.58154 -0.28673,2.12907 -1.40131,4.78408 -2.52277,6.00943 -0.79276,0.86619 -0.95785,1.13102 -0.95785,1.53652 0,0.43034 0.34501,0.77092 0.94593,0.93376 0.2427,0.0658 1.85758,0.14875 3.58863,0.18441 3.01178,0.062 5.25227,0.21374 5.72183,0.38739 0.50293,0.18601 -1.66101,0.35438 -5.7706,0.44902 -4.75761,0.10956 -5.67055,0.21618 -6.36121,0.74297 -0.58977,0.44985 -0.7379,0.91479 -0.73656,2.3119 0.001,1.0998 0.0287,1.25704 0.3253,1.85039 0.46985,0.93992 0.90443,1.15059 2.64026,1.27991 2.92399,0.21785 5.9496,1.17235 9.75376,3.07706 3.93232,1.96889 7.11147,4.2319 9.97605,7.10126 5.64628,5.65567 8.6664,12.1984 9.21108,19.95468 0.40681,5.79306 -1.19956,12.5392 -4.1679,17.50359 -4.20273,7.02885 -11.63781,12.98549 -19.63147,15.72782 -1.0783,0.36992 -3.06874,0.88368 -4.48579,1.15784 -2.76241,0.53446 -3.39262,1.12846 -3.59449,3.38802 -0.16009,1.79186 -0.13475,7.1 0.0339,7.09952 0.28658,-7.8e-4 4.71212,-0.78608 5.38528,-0.95558 4.97971,-1.25382 14.53254,-5.49478 15.5979,-6.92465 0.5393,-0.72383 0.0723,-1.89922 -1.06016,-2.66826 -0.37181,-0.25248 -0.70655,-0.53863 -0.74386,-0.63587 -0.20375,-0.53098 1.85105,-1.39528 5.40858,-2.27497 1.79958,-0.445 7.29871,-1.56767 7.67884,-1.56767 0.16151,0 -0.11606,0.6099 -1.36524,2.99987 -3.29786,6.3096 -4.30656,7.99032 -4.79545,7.99032 -0.11144,0 -0.62477,-0.38489 -1.14075,-0.85531 -0.51597,-0.47042 -1.20974,-0.98182 -1.54171,-1.13646 -0.53113,-0.2474 -0.70614,-0.27387 -1.45788,-0.22053 -1.02309,0.0726 -1.96904,0.40448 -5.49733,1.92866 -5.21353,2.25218 -9.13461,3.5032 -12.47689,3.98075 -2.03999,0.29147 -2.7071,0.49852 -3.24015,1.00565 -0.63172,0.601 -0.76386,1.21156 -0.86968,4.01817 -0.12175,3.22934 -0.0476,3.13987 -2.60101,3.13987 -0.771,0 -1.54787,-0.0319 -1.72639,-0.0708 z m 4.08143,-19.08457 c 3.77815,-0.2322 7.08553,-0.70517 9.36409,-1.3391 2.15837,-0.6005 5.73453,-2.52309 8.46693,-4.55195 1.68008,-1.2475 2.97627,-2.37982 4.43711,-3.87616 7.34241,-7.52081 10.53137,-17.48472 8.73465,-27.29145 -0.88658,-4.83905 -2.98623,-9.35049 -6.28925,-13.51344 -1.08453,-1.36688 -3.79141,-4.02825 -5.41991,-5.3288 -4.5168,-3.60716 -8.89931,-5.6974 -13.87055,-6.61556 -2.67089,-0.49329 -4.63137,-0.64528 -8.39491,-0.65083 -3.59387,-0.005 -5.12221,0.10004 -7.20256,0.49639 -4.37921,0.83435 -10.05837,3.57115 -14.16102,6.82425 -1.45615,1.15462 -4.05393,3.74062 -5.18593,5.1624 -3.60465,4.52744 -5.97225,10.24429 -6.59507,15.92456 -0.16591,1.51315 -0.16591,4.8791 0,6.39225 0.77077,7.0297 4.15544,14.04551 9.19742,19.06461 2.53507,2.52356 6.73286,5.21436 11.55021,7.40371 2.72284,1.23746 4.62971,1.7975 6.85027,2.0119 1.17863,0.1138 5.83485,0.0521 8.51852,-0.11278 z m -0.10679,-72.29946 c 0.52133,-0.25356 1.28531,-0.74071 1.69773,-1.08255 0.74407,-0.61674 0.75013,-0.61926 0.78501,-0.32591 0.0316,0.26567 0.12899,0.17768 0.96105,-0.86823 0.58968,-0.74123 1.15911,-1.62555 1.56813,-2.4353 0.57794,-1.14417 0.64644,-1.35473 0.68424,-2.10325 0.0788,-1.55945 -0.60476,-3.07909 -2.10407,-4.67797 -1.84597,-1.96856 -3.94215,-3.0032 -6.08082,-3.00141 -3.30137,0.003 -6.31097,2.09343 -7.27735,5.05531 -0.38353,1.17547 -0.39041,3.04227 -0.0157,4.25192 0.80157,2.58752 3.21723,4.88135 5.85134,5.55622 0.39409,0.10098 1.04389,0.14615 1.79966,0.12511 1.12569,-0.0313 1.2287,-0.0552 2.13076,-0.49394 z"
       id="path4543"
       inkscape:connector-curvature="0"
       transform="scale(0.26458333)" />
  </g>
</svg>
