<?xml version="1.0" encoding="UTF-8" standalone="no"?>
<svg
   xmlns:dc="http://purl.org/dc/elements/1.1/"
   xmlns:cc="http://creativecommons.org/ns#"
   xmlns:rdf="http://www.w3.org/1999/02/22-rdf-syntax-ns#"
   xmlns:svg="http://www.w3.org/2000/svg"
   xmlns="http://www.w3.org/2000/svg"
   xmlns:sodipodi="http://sodipodi.sourceforge.net/DTD/sodipodi-0.dtd"
   xmlns:inkscape="http://www.inkscape.org/namespaces/inkscape"
   version="1.1"
   x="0px"
   y="0px"
   viewBox="0 0 63 12"
   enable-background="new 0 0 100 90"
   xml:space="preserve"
   id="svg11311"
   sodipodi:docname="aerialcableway.svg"
   width="63"
   height="12"
   inkscape:version="0.92.4 (5da689c313, 2019-01-14)"><metadata
     id="metadata11317"><rdf:RDF><cc:Work
         rdf:about=""><dc:format>image/svg+xml</dc:format><dc:type
           rdf:resource="http://purl.org/dc/dcmitype/StillImage" /><dc:title></dc:title></cc:Work></rdf:RDF></metadata><defs
     id="defs11315" /><sodipodi:namedview
     pagecolor="#ffffff"
     bordercolor="#666666"
     borderopacity="1"
     objecttolerance="10"
     gridtolerance="10"
     guidetolerance="10"
     inkscape:pageopacity="0"
     inkscape:pageshadow="2"
     inkscape:window-width="4200"
     inkscape:window-height="2569"
     id="namedview11313"
     showgrid="false"
     inkscape:zoom="14.93085"
     inkscape:cx="38.760967"
     inkscape:cy="13.26543"
     inkscape:window-x="-16"
     inkscape:window-y="-16"
     inkscape:window-maximized="1"
     inkscape:current-layer="svg11311" /><path
     style="fill:#000000"
     d="M 8.58758,9.5 C 7.065416,7.857558 5.195168,7 3.135329,7 1.410898,7 0,6.55 0,6 0,5.45 1.410898,5 3.135329,5 5.195168,5 7.065416,4.142442 8.58758,2.5 9.861887,1.125 12.018328,0 13.379671,0 14.828784,0 16.670032,1.036349 17.82134,2.5 19.710583,4.901783 20.22948,5 31.029249,5 41.735573,5 42.380943,4.881001 44.58758,2.5 c 2.980396,-3.2159 6.704132,-3.2159 9.23376,0 C 55.269417,4.340932 56.738502,5 59.39392,5 61.377264,5 63,5.45 63,6 c 0,0.55 -1.622736,1 -3.60608,1 -2.655418,0 -4.124503,0.659068 -5.57258,2.5 -2.529628,3.2159 -6.253364,3.2159 -9.23376,0 C 42.380943,7.118999 41.735573,7 31.029249,7 20.22948,7 19.710583,7.09822 17.82134,9.5 16.670032,10.963651 14.828784,12 13.379671,12 12.018328,12 9.861887,10.875 8.58758,9.5 Z M 15.960131,8.548039 C 18.616587,5.347205 14.714897,0.430267 11.25,2.612298 10.2875,3.218436 9.350341,4.475252 9.167424,5.405223 c -0.745072,3.788038 4.314438,6.128948 6.792707,3.142816 z m 36,0 C 53.514729,6.674864 52.971731,4.011441 50.75,2.612298 47.285103,0.430267 43.383413,5.347205 46.039869,8.548039 c 1.54461,1.861141 4.375652,1.861141 5.920262,0 z"
     id="path11873"
     inkscape:connector-curvature="0" /></svg>