<?xml version="1.0" encoding="UTF-8" standalone="no"?>
<svg
   xmlns:dc="http://purl.org/dc/elements/1.1/"
   xmlns:cc="http://creativecommons.org/ns#"
   xmlns:rdf="http://www.w3.org/1999/02/22-rdf-syntax-ns#"
   xmlns:svg="http://www.w3.org/2000/svg"
   xmlns="http://www.w3.org/2000/svg"
   xmlns:sodipodi="http://sodipodi.sourceforge.net/DTD/sodipodi-0.dtd"
   xmlns:inkscape="http://www.inkscape.org/namespaces/inkscape"
   enable-background="new 0 0 579.997 579.997"
   height="544.79999"
   viewBox="0 0 612.79998 544.79998"
   width="612.79999"
   version="1.1"
   id="svg22"
   sodipodi:docname="airports.svg"
   inkscape:version="0.92.4 (5da689c313, 2019-01-14)">
  <metadata
     id="metadata28">
    <rdf:RDF>
      <cc:Work
         rdf:about="">
        <dc:format>image/svg+xml</dc:format>
        <dc:type
           rdf:resource="http://purl.org/dc/dcmitype/StillImage" />
      </cc:Work>
    </rdf:RDF>
  </metadata>
  <defs
     id="defs26" />
  <sodipodi:namedview
     pagecolor="#ffffff"
     bordercolor="#666666"
     borderopacity="1"
     objecttolerance="10"
     gridtolerance="10"
     guidetolerance="10"
     inkscape:pageopacity="0"
     inkscape:pageshadow="2"
     inkscape:window-width="4800"
     inkscape:window-height="2644"
     id="namedview24"
     showgrid="false"
     inkscape:zoom="1"
     inkscape:cx="-33.273284"
     inkscape:cy="311.30859"
     inkscape:window-x="-16"
     inkscape:window-y="-16"
     inkscape:window-maximized="1"
     inkscape:current-layer="svg22" />
  <path
     d="m 545.082,268.85799 c 0.532,-15.016 -16.239,-16.947 -33.967,-24.891 l 22.976,-79.189 h -29.854 l -48.291,72.4 c -19.288,-6.293 -74.953,-7.941 -128.279,-7.941 L 380.496,31.941991 H 323.058 L 208.427,230.47699 c -47.865,0 -107.875,3.119 -127.073999,5.283 -17.799,2.021 -42.37,10.016 -42.37,33.098 0,23.082 24.571,31.061 42.37,33.115 19.198999,2.129 79.208999,5.248 127.073999,5.248 l 114.629,198.553 h 57.438 l -52.829,-197.275 c 53.326,0 108.991,-1.668 128.279,-7.943 l 48.291,72.402 h 29.854 l -22.976,-79.209 c 17.729,-7.944 34.501,-9.875 33.969,-24.891 z"
     fill="param(fill)"
     fill-opacity="param(fill-opacity)"
     stroke="param(outline)"
     stroke-opacity="param(outline-opacity)"
     stroke-width="param(outline-width)"
     id="path20"
     inkscape:connector-curvature="0" />
  <ellipse
     id="path3735"
     cx="306.39999"
     cy="272.39999"
     rx="292"
     ry="258"
     style="fill:none;stroke:#3a314a;stroke-width:28.80000114;stroke-miterlimit:4;stroke-dasharray:none;stroke-opacity:1" />
</svg>
