<?xml version="1.0" encoding="UTF-8" standalone="no"?>
<!-- Created with Inkscape (http://www.inkscape.org/) -->

<svg
   xmlns:dc="http://purl.org/dc/elements/1.1/"
   xmlns:cc="http://creativecommons.org/ns#"
   xmlns:rdf="http://www.w3.org/1999/02/22-rdf-syntax-ns#"
   xmlns:svg="http://www.w3.org/2000/svg"
   xmlns="http://www.w3.org/2000/svg"
   xmlns:sodipodi="http://sodipodi.sourceforge.net/DTD/sodipodi-0.dtd"
   xmlns:inkscape="http://www.inkscape.org/namespaces/inkscape"
   width="43.640682mm"
   height="17.772532mm"
   viewBox="0 0 43.640683 17.772531"
   version="1.1"
   id="svg8"
   inkscape:version="0.92.4 (5da689c313, 2019-01-14)"
   sodipodi:docname="anchorage_24h.svg">
  <defs
     id="defs2" />
  <sodipodi:namedview
     id="base"
     pagecolor="#ffffff"
     bordercolor="#666666"
     borderopacity="1.0"
     inkscape:pageopacity="0.0"
     inkscape:pageshadow="2"
     inkscape:zoom="6.4118557"
     inkscape:cx="-27.171312"
     inkscape:cy="72.335579"
     inkscape:document-units="mm"
     inkscape:current-layer="layer1"
     showgrid="false"
     inkscape:window-width="3840"
     inkscape:window-height="2104"
     inkscape:window-x="-16"
     inkscape:window-y="-16"
     inkscape:window-maximized="1" />
  <metadata
     id="metadata5">
    <rdf:RDF>
      <cc:Work
         rdf:about="">
        <dc:format>image/svg+xml</dc:format>
        <dc:type
           rdf:resource="http://purl.org/dc/dcmitype/StillImage" />
        <dc:title></dc:title>
      </cc:Work>
    </rdf:RDF>
  </metadata>
  <g
     inkscape:label="Calque 1"
     inkscape:groupmode="layer"
     id="layer1"
     transform="translate(-137.83712,-143.774)">
    <path
       style="fill:#000000;stroke-width:0.26458335"
       d=""
       id="path826"
       inkscape:connector-curvature="0" />
    <path
       style="fill:#9e2a97;fill-opacity:1;stroke-width:0.26458332"
       d="m 172.44896,160.84646 c -0.068,-0.56842 -0.29341,-0.76168 -1.19866,-1.02761 -0.61322,-0.18014 -1.6744,-0.65539 -2.35818,-1.05611 -1.13268,-0.66379 -1.27161,-0.68979 -1.56221,-0.29238 -0.40622,0.55554 -0.63802,0.29179 -1.54019,-1.75247 -0.75321,-1.70674 -0.70474,-1.74773 1.30287,-1.10189 0.71715,0.23071 1.46894,0.47131 1.67065,0.53468 0.29312,0.0921 0.27132,0.22066 -0.10862,0.64049 -0.26145,0.2889 -0.42649,0.5631 -0.36675,0.60934 0.99638,0.77108 2.09239,1.36684 3.0382,1.65149 l 1.17147,0.35256 v -5.39454 -5.39454 l -0.83952,-0.0829 c -0.8539,-0.0843 -1.41113,-0.74437 -0.62843,-0.74437 0.34139,0 0.37269,-0.10378 0.15434,-0.51177 -0.45595,-0.85194 -0.31082,-1.785 0.41108,-2.64293 1.73406,-2.0608 5.05755,-0.0844 4.09875,2.43743 -0.22425,0.58982 -0.19943,0.71727 0.13966,0.71727 0.84983,0 0.15545,0.66481 -0.77665,0.74358 l -0.97173,0.0821 v 5.41302 5.41303 l 0.7276,-0.16556 c 0.87067,-0.19811 2.64774,-1.02697 3.34655,-1.56088 0.41895,-0.3201 0.44562,-0.45204 0.16074,-0.79531 -0.18785,-0.22634 -0.29482,-0.45712 -0.2377,-0.51285 0.18771,-0.18312 3.27646,-1.14407 3.38047,-1.0517 0.16511,0.14661 -1.07173,3.27848 -1.36675,3.46081 -0.14869,0.0919 -0.42181,-0.04 -0.60692,-0.29319 -0.31442,-0.43 -0.41932,-0.41177 -1.59481,0.27711 -0.69204,0.40557 -1.80245,0.87483 -2.46757,1.0428 -1.0152,0.25639 -1.22276,0.41778 -1.29304,1.00539 -0.0687,0.57468 -0.21951,0.69997 -0.84232,0.69997 -0.62286,0 -0.77359,-0.12528 -0.84233,-0.70008 z m 2.2814,-13.90301 c 0.65613,-1.56049 -0.58868,-2.80265 -2.11274,-2.10824 -1.5249,0.69479 -0.89413,2.95299 0.82483,2.95299 0.79831,0 0.9839,-0.12173 1.28791,-0.84475 z m -36.89324,13.30809 c 0,-0.77326 0.72902,-1.92198 2.11667,-3.33521 1.88409,-1.91884 2.30892,-2.84218 1.72072,-3.73988 -0.60549,-0.92409 -1.38243,-0.79827 -1.91065,0.30942 -0.51695,1.08405 -1.31023,1.15883 -1.19142,0.11232 0.1208,-1.06393 1.21055,-1.95095 2.35695,-1.91846 1.30162,0.0369 1.93481,0.80606 1.93481,2.3503 0,1.06306 -0.15097,1.32158 -1.87568,3.21183 l -1.87568,2.05572 1.62798,0.0792 c 1.36619,0.0665 1.61416,0.15156 1.54203,0.52916 -0.0711,0.37244 -0.4615,0.4632 -2.26584,0.52681 -1.29266,0.0456 -2.17989,-0.0282 -2.17989,-0.18122 z m 8.17528,0.0382 c -0.0148,-0.10915 -0.006,-0.57852 0.0189,-1.04307 0.0449,-0.82886 0.022,-0.84614 -1.22758,-0.92604 -0.9675,-0.0619 -1.29466,-0.19362 -1.36207,-0.54856 -0.13159,-0.6929 3.82495,-6.01515 4.47165,-6.01515 0.40273,0 0.48524,0.13175 0.37282,0.59532 -0.0794,0.32742 -0.30106,1.50906 -0.49257,2.62586 -0.33237,1.93814 -0.32498,2.03662 0.16233,2.16406 0.69565,0.18191 0.4952,1.07303 -0.26578,1.1816 -0.42155,0.0601 -0.59261,0.26393 -0.59261,0.70597 0,0.89595 -0.26603,1.45844 -0.68977,1.45844 -0.20271,0 -0.38063,-0.0893 -0.39537,-0.19843 z m 0.55597,-3.73724 c 0,-0.27286 0.0675,-0.89793 0.14998,-1.38907 l 0.14998,-0.89297 -0.82988,0.92605 c -0.45643,0.50932 -0.94483,1.1344 -1.08533,1.38906 -0.22169,0.40183 -0.13184,0.46302 0.6799,0.46302 0.73818,0 0.93535,-0.10458 0.93535,-0.49609 z m 2.38125,3.53442 c 0,-0.45297 0.98388,-6.81856 1.19549,-7.73468 0.0869,-0.37626 0.33478,-0.59532 0.67362,-0.59532 0.47288,0 0.51637,0.11703 0.36873,0.99219 -0.0921,0.5457 -0.22261,1.19446 -0.2901,1.44168 -0.11433,0.41874 -0.0644,0.42039 0.72997,0.0241 0.75136,-0.37483 0.93354,-0.38001 1.53301,-0.0435 0.90259,0.50661 0.94697,0.91136 0.42055,3.83503 -0.37975,2.10912 -0.52263,2.48176 -0.95156,2.48176 -0.60816,0 -0.60598,0.0631 -0.0917,-2.64819 0.45502,-2.39865 0.38748,-2.90806 -0.38555,-2.90806 -0.79937,0 -1.51025,1.13465 -1.85813,2.96579 -0.17392,0.91543 -0.37698,1.87278 -0.45125,2.12744 -0.16549,0.56742 -0.89313,0.61775 -0.89313,0.0618 z"
       id="path886"
       inkscape:connector-curvature="0" />
  </g>
</svg>
