<?xml version="1.0" encoding="UTF-8" standalone="no"?>
<!-- Created with Inkscape (http://www.inkscape.org/) -->

<svg
   xmlns:dc="http://purl.org/dc/elements/1.1/"
   xmlns:cc="http://creativecommons.org/ns#"
   xmlns:rdf="http://www.w3.org/1999/02/22-rdf-syntax-ns#"
   xmlns:svg="http://www.w3.org/2000/svg"
   xmlns="http://www.w3.org/2000/svg"
   xmlns:sodipodi="http://sodipodi.sourceforge.net/DTD/sodipodi-0.dtd"
   xmlns:inkscape="http://www.inkscape.org/namespaces/inkscape"
   width="44.2323mm"
   height="19.537863mm"
   viewBox="0 0 44.2323 19.537863"
   version="1.1"
   id="svg8"
   inkscape:version="0.92.4 (5da689c313, 2019-01-14)"
   sodipodi:docname="anchorage_quarantine.svg">
  <defs
     id="defs2" />
  <sodipodi:namedview
     id="base"
     pagecolor="#ffffff"
     bordercolor="#666666"
     borderopacity="1.0"
     inkscape:pageopacity="0.0"
     inkscape:pageshadow="2"
     inkscape:zoom="6.4118557"
     inkscape:cx="103.852"
     inkscape:cy="86.070661"
     inkscape:document-units="mm"
     inkscape:current-layer="layer1"
     showgrid="false"
     inkscape:window-width="3840"
     inkscape:window-height="2104"
     inkscape:window-x="-16"
     inkscape:window-y="-16"
     inkscape:window-maximized="1" />
  <metadata
     id="metadata5">
    <rdf:RDF>
      <cc:Work
         rdf:about="">
        <dc:format>image/svg+xml</dc:format>
        <dc:type
           rdf:resource="http://purl.org/dc/dcmitype/StillImage" />
        <dc:title></dc:title>
      </cc:Work>
    </rdf:RDF>
  </metadata>
  <g
     inkscape:label="Calque 1"
     inkscape:groupmode="layer"
     id="layer1"
     transform="translate(-66.260587,-145.64274)">
    <path
       style="fill:#a73fa1;fill-opacity:1;stroke:#a73fa1;stroke-width:0;stroke-miterlimit:4;stroke-dasharray:none;stroke-opacity:1"
       d="m 100.83384,164.43688 c 0,-0.66919 -0.13037,-0.77715 -1.300688,-1.07709 -0.715381,-0.18335 -1.859151,-0.68752 -2.541717,-1.12039 -1.173295,-0.74408 -1.260179,-0.76111 -1.591916,-0.31198 -0.230442,0.31199 -0.436576,0.38424 -0.600507,0.21048 -0.362569,-0.38431 -1.73632,-3.56184 -1.599189,-3.69897 0.117986,-0.11799 3.243247,0.79231 3.709482,1.08046 0.146005,0.0902 0.05884,0.37407 -0.204089,0.66461 -0.436467,0.48229 -0.434073,0.52609 0.04891,0.89493 0.71161,0.54344 2.486565,1.39134 3.352104,1.60129 l 0.72761,0.1765 v -5.71722 -5.71723 h -0.926045 c -0.646758,0 -0.926041,-0.11969 -0.926041,-0.39687 0,-0.21828 0.113453,-0.39688 0.252119,-0.39688 0.146661,0 0.187311,-0.54717 0.09718,-1.30816 -0.142579,-1.20384 -0.09046,-1.37264 0.653571,-2.11667 1.504286,-1.50427 4.061136,-0.83589 4.435466,1.15948 0.0962,0.51259 0.0318,1.13811 -0.15252,1.48254 -0.26536,0.49582 -0.24629,0.63645 0.11363,0.83787 0.64654,0.36182 0.24612,0.73869 -0.78485,0.73869 h -0.91044 v 5.72316 5.72316 l 0.97308,-0.1579 c 0.53519,-0.0868 1.51746,-0.49719 2.18282,-0.91187 0.92779,-0.57824 1.20253,-0.90408 1.17883,-1.39806 -0.017,-0.35426 0.10207,-0.73161 0.26459,-0.83856 0.378,-0.24875 3.10657,-1.05412 3.20397,-0.94569 0.0842,0.0937 -1.29975,3.58835 -1.50056,3.78915 -0.0728,0.0728 -0.34574,-0.10344 -0.60655,-0.39163 -0.47227,-0.52185 -0.47738,-0.52173 -1.25391,0.0312 -0.42883,0.30535 -1.57401,0.83185 -2.54483,1.16999 -1.49661,0.52126 -1.77787,0.71752 -1.84886,1.29008 -0.0715,0.57663 -0.21645,0.6753 -0.99218,0.6753 -0.81945,0 -0.90847,-0.0729 -0.90847,-0.74373 z m 2.16198,-14.24624 c 0.60288,-0.54561 0.62717,-1.87563 0.046,-2.51785 -0.92361,-1.02058 -3.0017,-0.22253 -3.0017,1.15274 0,0.79588 1.01171,1.80299 1.81122,1.80299 0.36336,0 0.87839,-0.19704 1.14451,-0.43788 z m -30.511575,13.97034 c -5.457926,-2.2024 -7.779512,-8.32871 -5.121859,-13.51579 0.619035,-1.2082 2.329743,-3.00977 3.573535,-3.76334 2.726926,-1.65215 6.798074,-1.65215 9.525,0 4.369792,2.6475 5.975312,8.36207 3.625406,12.90399 -0.676023,1.30662 -2.651764,3.17711 -4.192734,3.96938 -1.893261,0.97339 -5.511607,1.17154 -7.409348,0.40576 z m 4.743435,-4.33819 0.07405,-3.37343 h 3.313884 3.313883 l -0.08064,-1.25677 -0.08064,-1.25677 -3.307292,-0.1323 -3.307291,-0.13229 -0.132292,-3.30729 -0.132292,-3.30729 -1.256771,-0.0806 -1.256771,-0.0806 v 3.45408 3.45408 h -3.307291 -3.307292 v 1.32292 1.32292 h 3.146693 c 2.625296,0 3.173303,0.0693 3.307291,0.41851 0.08833,0.23018 0.160599,1.78422 0.160599,3.45341 v 3.0349 l 1.389063,-0.08 1.389063,-0.08 z m -3.910509,0.33073 v -2.64583 h -2.645833 c -3.016153,0 -3.061669,0.045 -1.88765,1.86643 0.870674,1.3508 1.938015,2.38626 3.078275,2.98633 1.408694,0.74134 1.455208,0.6708 1.455208,-2.20693 z m 5.933871,2.38857 c 1.472762,-0.55994 4.120296,-3.61806 4.120296,-4.75928 0,-0.1721 -0.990756,-0.27512 -2.645833,-0.27512 h -2.645834 v 2.64583 c 0,1.46468 0.110427,2.64584 0.247359,2.64584 0.136048,0 0.551853,-0.11577 0.924012,-0.25727 z m -5.849561,-12.27023 c -0.02639,-1.43309 -0.117182,-2.67482 -0.20176,-2.7594 -0.222214,-0.22221 -1.740006,0.55086 -2.749929,1.40066 -0.872814,0.73442 -2.417179,3.14183 -2.421805,3.77518 -0.0019,0.25984 0.636831,0.32221 2.709497,0.26458 l 2.711979,-0.0754 z m 9.969857,2.46453 c 0,-0.56549 -1.302249,-2.79603 -2.025849,-3.46995 -0.995576,-0.92723 -2.491189,-1.8107 -3.06738,-1.81193 -0.409648,-8.7e-4 -0.463021,0.29892 -0.463021,2.60075 0,1.43095 0.07937,2.68111 0.176389,2.77812 0.297308,0.29731 5.379861,0.20568 5.379861,-0.097 z"
       id="path834"
       inkscape:connector-curvature="0" />
    <path
       style="fill:#000000;stroke-width:0.26458335"
       d=""
       id="path826"
       inkscape:connector-curvature="0" />
  </g>
</svg>
