<?xml version="1.0" encoding="UTF-8" standalone="no"?>
<!-- Created with Inkscape (http://www.inkscape.org/) -->

<svg
   xmlns:dc="http://purl.org/dc/elements/1.1/"
   xmlns:cc="http://creativecommons.org/ns#"
   xmlns:rdf="http://www.w3.org/1999/02/22-rdf-syntax-ns#"
   xmlns:svg="http://www.w3.org/2000/svg"
   xmlns="http://www.w3.org/2000/svg"
   xmlns:sodipodi="http://sodipodi.sourceforge.net/DTD/sodipodi-0.dtd"
   xmlns:inkscape="http://www.inkscape.org/namespaces/inkscape"
   width="27.534515mm"
   height="17.98538mm"
   viewBox="0 0 27.534516 17.98538"
   version="1.1"
   id="svg8"
   inkscape:version="0.92.4 (5da689c313, 2019-01-14)"
   sodipodi:docname="anchorage_explosives.svg">
  <defs
     id="defs2" />
  <sodipodi:namedview
     id="base"
     pagecolor="#ffffff"
     bordercolor="#666666"
     borderopacity="1.0"
     inkscape:pageopacity="0.0"
     inkscape:pageshadow="2"
     inkscape:zoom="6.4118557"
     inkscape:cx="73.966124"
     inkscape:cy="12.600393"
     inkscape:document-units="mm"
     inkscape:current-layer="layer1"
     showgrid="false"
     inkscape:window-width="3840"
     inkscape:window-height="2104"
     inkscape:window-x="-16"
     inkscape:window-y="-16"
     inkscape:window-maximized="1" />
  <metadata
     id="metadata5">
    <rdf:RDF>
      <cc:Work
         rdf:about="">
        <dc:format>image/svg+xml</dc:format>
        <dc:type
           rdf:resource="http://purl.org/dc/dcmitype/StillImage" />
        <dc:title></dc:title>
      </cc:Work>
    </rdf:RDF>
  </metadata>
  <g
     inkscape:label="Calque 1"
     inkscape:groupmode="layer"
     id="layer1"
     transform="translate(-74.167891,-127.75622)">
    <path
       style="fill:#000000;stroke-width:0.26458335"
       d=""
       id="path826"
       inkscape:connector-curvature="0" />
    <path
       style="fill:#ac49a6;fill-opacity:1;stroke:#cb8dc7;stroke-width:0;stroke-miterlimit:4;stroke-dasharray:none;stroke-opacity:1"
       d="m 93.016621,145.56283 c -0.103153,-0.10315 -0.18755,-0.46077 -0.18755,-0.79471 0,-0.48546 -0.21423,-0.66485 -1.068737,-0.89495 -0.587806,-0.15828 -1.682861,-0.64988 -2.433457,-1.09245 -1.280972,-0.75529 -1.385702,-0.77597 -1.706654,-0.33704 -0.188064,0.25719 -0.388584,0.41678 -0.445602,0.35464 -0.313348,-0.34148 -1.768676,-3.49367 -1.662164,-3.60018 0.149688,-0.14969 3.108226,0.71653 3.455713,1.01178 0.139517,0.11854 0.08955,0.3855 -0.11925,0.63708 -0.310945,0.37467 -0.271985,0.5006 0.289026,0.93422 0.540676,0.4179 3.156823,1.56559 3.568758,1.56559 0.0673,0 0.122367,-2.44078 0.122367,-5.42396 v -5.42396 H 91.90303 c -0.64676,0 -0.926042,-0.11969 -0.926042,-0.39688 0,-0.21828 0.104437,-0.39687 0.232083,-0.39687 0.127645,0 0.172333,-0.5301 0.09931,-1.17799 -0.11814,-1.04814 -0.04389,-1.26688 0.673608,-1.98438 1.275088,-1.27509 3.107822,-0.96169 3.878932,0.6633 0.319741,0.67381 0.348406,1.03318 0.128534,1.61149 -0.199464,0.52463 -0.200022,0.77194 -0.0019,0.83798 0.154565,0.0515 0.281057,0.26237 0.281057,0.46852 0,0.25199 -0.303493,0.37483 -0.926042,0.37483 h -0.926042 v 5.429 5.429 l 0.727604,-0.17055 c 0.400183,-0.0938 1.322917,-0.48631 2.050521,-0.87224 1.100688,-0.58383 1.315366,-0.81675 1.277962,-1.38653 -0.04051,-0.61719 0.109878,-0.73169 1.52305,-1.15957 0.862405,-0.26111 1.623055,-0.4197 1.690345,-0.35241 0.17518,0.17519 -1.10483,3.24335 -1.39321,3.33947 -0.13233,0.0441 -0.38626,-0.0953 -0.56429,-0.30982 -0.279988,-0.33736 -0.544317,-0.2705 -1.957938,0.49528 -0.89884,0.48691 -2.014059,0.964 -2.478265,1.0602 -0.664443,0.13769 -0.861467,0.32598 -0.926042,0.88497 -0.08048,0.69667 -0.912653,1.11417 -1.349687,0.67714 z m 1.777926,-14.27346 c 0.91671,-0.91671 0.195228,-2.75923 -1.080442,-2.75923 -0.77861,0 -1.678784,0.87552 -1.678784,1.63281 0,1.31635 1.82448,2.06116 2.759226,1.12642 z m -17.000605,12.23882 c -0.764183,-0.81343 -0.74778,-2.04376 0.03708,-2.7811 0.824126,-0.77422 1.89933,-0.73347 2.736518,0.10371 0.547694,0.5477 0.647543,0.84189 0.516343,1.52136 -0.324617,1.68113 -2.183122,2.33418 -3.289939,1.15603 z m -2.654561,-3.80795 c -0.398452,-0.3267 -0.656791,-0.96006 -0.829479,-2.03359 -0.137939,-0.85752 -0.183313,-1.66832 -0.100831,-1.80177 0.254569,-0.41191 0.875616,0.66888 0.884502,1.53927 0.0046,0.45331 0.237608,1.11558 0.517733,1.4717 0.684971,0.8708 0.3335,1.48477 -0.471925,0.82439 z m 7.262634,-3.03739 c -0.05751,-0.19113 -0.254724,-0.92728 -0.438246,-1.63589 -0.23577,-0.91036 -0.733712,-1.72551 -1.697043,-2.77813 -1.434455,-1.56741 -2.254322,-2.65985 -2.254322,-3.00381 0,-0.44126 0.79141,-0.1753 1.079353,0.36273 0.167321,0.31264 0.99581,1.31185 1.841086,2.22045 1.472899,1.58326 2.101571,2.85934 2.105169,4.2731 0.0017,0.66183 -0.478292,1.08562 -0.635997,0.56155 z m -3.719683,-0.67823 c -0.09965,-0.40018 -0.767404,-1.27058 -1.483891,-1.93421 -1.235793,-1.14464 -1.625738,-1.8361 -1.03545,-1.8361 0.407763,0 2.633445,2.15556 3.059827,2.96342 0.207397,0.39296 0.377086,0.89897 0.377086,1.12448 0,0.7009 -0.726571,0.44942 -0.917572,-0.31759 z"
       id="path847"
       inkscape:connector-curvature="0" />
  </g>
</svg>
