<?xml version="1.0" encoding="UTF-8" standalone="no"?>
<!-- Created with Inkscape (http://www.inkscape.org/) -->

<svg
   xmlns:dc="http://purl.org/dc/elements/1.1/"
   xmlns:cc="http://creativecommons.org/ns#"
   xmlns:rdf="http://www.w3.org/1999/02/22-rdf-syntax-ns#"
   xmlns:svg="http://www.w3.org/2000/svg"
   xmlns="http://www.w3.org/2000/svg"
   xmlns:sodipodi="http://sodipodi.sourceforge.net/DTD/sodipodi-0.dtd"
   xmlns:inkscape="http://www.inkscape.org/namespaces/inkscape"
   width="38.962601mm"
   height="23.383326mm"
   viewBox="0 0 38.962601 23.383326"
   version="1.1"
   id="svg8"
   inkscape:version="0.92.4 (5da689c313, 2019-01-14)"
   sodipodi:docname="anchorage_seaplanes.svg">
  <defs
     id="defs2" />
  <sodipodi:namedview
     id="base"
     pagecolor="#ffffff"
     bordercolor="#666666"
     borderopacity="1.0"
     inkscape:pageopacity="0.0"
     inkscape:pageshadow="2"
     inkscape:zoom="1"
     inkscape:cx="83.810312"
     inkscape:cy="45.342223"
     inkscape:document-units="mm"
     inkscape:current-layer="layer1"
     showgrid="false"
     inkscape:window-width="3840"
     inkscape:window-height="2104"
     inkscape:window-x="-16"
     inkscape:window-y="-16"
     inkscape:window-maximized="1" />
  <metadata
     id="metadata5">
    <rdf:RDF>
      <cc:Work
         rdf:about="">
        <dc:format>image/svg+xml</dc:format>
        <dc:type
           rdf:resource="http://purl.org/dc/dcmitype/StillImage" />
        <dc:title></dc:title>
      </cc:Work>
    </rdf:RDF>
  </metadata>
  <g
     inkscape:label="Calque 1"
     inkscape:groupmode="layer"
     id="layer1"
     transform="translate(-65.923207,-136.43223)">
    <path
       style="fill:#9e2a97;fill-opacity:1;stroke:#9e2a97;stroke-width:0.1;stroke-miterlimit:4;stroke-dasharray:none;stroke-opacity:1"
       d="m 74.431827,159.26374 c -1.771528,-0.56173 -3.317087,-1.46906 -4.690065,-2.75332 -4.785493,-4.47627 -4.852643,-12.09427 -0.147432,-16.72584 2.319518,-2.28322 4.583702,-3.16122 8.163802,-3.16574 2.453476,-0.003 4.152923,0.43423 5.934112,1.52707 3.997129,2.45243 6.270238,7.37471 5.451337,11.80455 -1.074941,5.81489 -5.718965,9.71445 -11.512029,9.66656 -1.177766,-0.01 -2.617642,-0.16871 -3.199725,-0.35328 z m 4.167187,-0.34958 c -0.472942,-0.0587 -1.246849,-0.0587 -1.719791,0 -0.472943,0.0587 -0.08599,0.10671 0.859896,0.10671 0.945885,0 1.332838,-0.048 0.859895,-0.10671 z m -3.770312,-0.48375 c -1.468982,-0.46286 -1.704969,-0.45457 -0.661458,0.0232 0.436562,0.1999 1.031875,0.36086 1.322916,0.35769 0.291042,-0.003 -0.0066,-0.17459 -0.661458,-0.38092 z m 5.484592,0.25071 c -0.08792,-0.0879 -0.316122,-0.0973 -0.507118,-0.0209 -0.211067,0.0845 -0.148372,0.14716 0.159852,0.15985 0.278915,0.0115 0.435185,-0.051 0.347266,-0.13896 z m -0.31466,-0.77995 c 6.542275,-1.7036 9.736944,-8.89291 6.51909,-14.67061 -1.916861,-3.44176 -5.593416,-5.48077 -9.437556,-5.23407 -4.469655,0.28684 -8.647619,3.90191 -9.259765,8.01219 l -0.157619,1.05833 0.554864,-1.00835 c 0.458795,-0.83376 0.678167,-0.9941 1.267021,-0.92604 0.590117,0.0682 0.811405,0.33168 1.291325,1.53752 0.706363,1.77479 0.69218,1.77458 5.22233,0.08 1.752613,-0.65561 3.820501,-1.32498 4.595306,-1.4875 1.262896,-0.26489 1.523601,-0.2368 2.518259,0.27133 1.070013,0.54663 1.344356,0.64015 2.866275,0.97703 0.902438,0.19976 1.116166,0.79588 0.625526,1.74468 -0.430858,0.83319 -0.67081,0.93917 -2.713009,1.1983 -0.763984,0.097 -1.389062,0.28233 -1.389062,0.41196 0,0.13204 0.727264,0.1561 1.653645,0.0547 2.72306,-0.29803 2.976563,-0.27075 2.976563,0.32034 0,0.36102 -0.418563,0.7567 -1.322917,1.25059 -1.322334,0.72215 -1.325395,0.72247 -6.953616,0.72865 -4.834729,0.005 -5.652848,-0.0515 -5.787374,-0.40211 -0.08617,-0.22455 -0.09579,-0.46917 -0.02137,-0.54359 0.122096,-0.1221 6.398723,-0.89118 7.325168,-0.89756 0.235674,-0.002 0.286699,-0.0931 0.132291,-0.23713 -0.146687,-0.13685 -1.353107,-0.0785 -2.897187,0.14006 -3.185793,0.45098 -8.784825,0.54356 -9.176651,0.15173 -0.15173,-0.15173 -0.337737,-0.82474 -0.413351,-1.49558 -0.07561,-0.67084 -0.254015,-1.29173 -0.396449,-1.37976 -0.337202,-0.2084 0.0028,2.31172 0.503184,3.73007 1.175342,3.33127 3.719519,5.66885 7.234309,6.64686 1.640736,0.45653 2.795148,0.44857 4.640765,-0.032 z m -6.779481,0.0496 c -0.06063,-0.0531 -0.407899,-0.23821 -0.771701,-0.41147 -0.623694,-0.29703 -0.632136,-0.29153 -0.147868,0.0965 0.421481,0.33768 1.282663,0.63269 0.919569,0.31502 z m 9.686342,-0.38161 c -0.08146,-0.0815 -0.294956,-1.7e-4 -0.474432,0.18065 -0.259362,0.26131 -0.228971,0.2917 0.148112,0.14811 0.260938,-0.0994 0.407782,-0.2473 0.32632,-0.32876 z m -11.251793,-0.42575 c 0,-0.0605 -0.506016,-0.48852 -1.124479,-0.95109 l -1.12448,-0.84104 1.058334,0.94716 c 1.070596,0.95813 1.190625,1.04332 1.190625,0.84497 z m 14.816667,-2.45857 c 0,-0.19867 -0.23755,0.0114 -1.333974,1.17957 l -1.179568,1.25677 1.256771,-1.17957 c 0.691224,-0.64876 1.256771,-1.21431 1.256771,-1.25677 z m -17.504337,-0.34178 c -0.59242,-0.80129 -0.942354,-1.07361 -0.594993,-0.46302 0.246293,0.43293 0.955982,1.25677 1.082633,1.25677 0.05456,0 -0.164875,-0.35719 -0.48764,-0.79375 z m 18.827253,-1.94675 c 0,-0.33617 -0.122211,-0.18607 -0.507923,0.62383 -0.297034,0.62369 -0.291526,0.63214 0.09645,0.14787 0.226312,-0.28248 0.411472,-0.62974 0.411473,-0.7717 z m -2.513541,-1.41319 1.058333,-0.58181 -2.168212,0.15688 -2.168212,0.15688 -0.178667,-0.71187 c -0.09827,-0.39153 -0.127392,-0.76315 -0.06472,-0.82582 0.06267,-0.0627 0.918543,-0.22789 1.901936,-0.36716 0.983392,-0.13926 1.958446,-0.39468 2.166785,-0.56758 0.774927,-0.64314 0.279585,-1.30792 -0.974554,-1.30792 -0.283977,0 -1.077911,-0.28433 -1.764298,-0.63184 l -1.247975,-0.63185 -1.905343,0.48433 c -1.047939,0.26638 -2.714814,0.83619 -3.704167,1.26623 -2.026706,0.88095 -4.594799,1.51651 -5.19582,1.28588 -0.219838,-0.0844 -0.561204,-0.72519 -0.758593,-1.42406 -0.434106,-1.53699 -1.049871,-1.77953 -1.53632,-0.60514 -0.245687,0.59314 -0.274846,1.17531 -0.103316,2.06276 l 0.238976,1.2364 2.778125,-9.2e-4 c 1.527969,-5e-4 4.193527,-0.16977 5.923464,-0.37615 3.01001,-0.35908 3.160998,-0.35381 3.509296,0.12252 0.764853,1.046 0.115628,1.27309 -4.802552,1.67993 -2.710697,0.22423 -2.538212,0.23806 2.513542,0.20144 5.049605,-0.0366 5.497003,-0.0795 6.482292,-0.62113 z M 67.06643,149.77899 c -0.0734,-0.1819 -0.133452,-0.0331 -0.133452,0.33073 0,0.36381 0.06005,0.51263 0.133452,0.33073 0.0734,-0.1819 0.0734,-0.47956 0,-0.66146 z m 21.43125,-0.52916 c -0.0734,-0.1819 -0.133453,-0.0331 -0.133453,0.33073 0,0.3638 0.06006,0.51263 0.133453,0.33073 0.0734,-0.18191 0.0734,-0.47956 0,-0.66146 z m -21.681202,-1.71616 c -0.06082,-0.40218 -0.112199,-0.13593 -0.114185,0.59168 -0.002,0.7276 0.04777,1.05666 0.110574,0.73124 0.0628,-0.32542 0.06443,-0.92073 0.0036,-1.32292 z m 21.681202,-1.19426 c -0.0734,-0.1819 -0.133453,-0.0331 -0.133453,0.33073 0,0.3638 0.06006,0.51263 0.133453,0.33073 0.0734,-0.1819 0.0734,-0.47956 0,-0.66146 z m -21.425738,-0.51263 c -0.08446,-0.21107 -0.147156,-0.14837 -0.159852,0.15985 -0.01149,0.27892 0.05104,0.43519 0.138964,0.34727 0.08792,-0.0879 0.09732,-0.31612 0.02089,-0.50712 z m 1.120934,-2.86081 c 0.297033,-0.62369 0.291526,-0.63213 -0.09645,-0.14786 -0.226309,0.28247 -0.411471,0.62974 -0.411471,0.7717 0,0.33616 0.122211,0.18606 0.507924,-0.62384 z m 19.203534,0 c -0.225755,-0.43656 -0.469995,-0.79375 -0.542755,-0.79375 -0.07276,0 0.05242,0.35719 0.278172,0.79375 0.225756,0.43657 0.469995,0.79375 0.542756,0.79375 0.07276,0 -0.05242,-0.35718 -0.278173,-0.79375 z m -0.661458,-1.14961 c 0,-0.0502 -0.267891,-0.3181 -0.595312,-0.59532 l -0.595313,-0.50403 0.504028,0.59532 c 0.473663,0.55944 0.686597,0.71576 0.686597,0.50403 z m -16.66875,-1.36393 c 0.493655,-0.50932 0.838024,-0.92604 0.765263,-0.92604 -0.07276,0 -0.536191,0.41672 -1.029847,0.92604 -0.493655,0.50932 -0.838023,0.92604 -0.765263,0.92604 0.07276,0 0.536192,-0.41672 1.029847,-0.92604 z m 14.816667,-0.48816 c 0,-0.0502 -0.267891,-0.3181 -0.595313,-0.59531 l -0.595312,-0.50403 0.504028,0.59531 c 0.473662,0.55945 0.686597,0.71577 0.686597,0.50403 z m -12.435417,-1.40366 c 0,-0.19139 -1.019698,0.42463 -1.208466,0.73006 -0.09878,0.15984 0.132712,0.086 0.514431,-0.16414 0.381719,-0.25011 0.694035,-0.50478 0.694035,-0.56592 z m 10.202034,-0.23326 c -0.282474,-0.21365 -0.639662,-0.38424 -0.79375,-0.37908 -0.154087,0.005 0.0175,0.17953 0.381299,0.38749 0.857053,0.48994 1.065701,0.48568 0.412451,-0.008 z m -5.902555,-1.09286 c -0.181901,-0.0734 -0.479557,-0.0734 -0.661458,0 -0.181901,0.0734 -0.03307,0.13346 0.330729,0.13346 0.363802,0 0.51263,-0.0601 0.330729,-0.13346 z m 2.650869,0.002 c -0.179132,-0.0725 -0.536319,-0.0769 -0.79375,-0.01 -0.257431,0.0671 -0.110869,0.12639 0.325694,0.13178 0.436562,0.005 0.647187,-0.0495 0.468056,-0.12197 z m 18.978819,17.76835 c -0.138316,-0.3638 -0.462793,-0.6619 -0.721056,-0.66244 -0.258262,-5.6e-4 -0.845717,-0.23035 -1.305454,-0.51068 -0.459737,-0.28033 -1.076428,-0.44678 -1.370428,-0.3699 -0.420489,0.10996 -0.651425,-0.0893 -1.082344,-0.93399 -0.600676,-1.17742 -0.70163,-1.88861 -0.268089,-1.88861 0.153842,0 0.808685,0.1332 1.455208,0.29599 0.97449,0.24538 1.175496,0.40257 1.175496,0.91925 0,0.58803 1.083069,1.43059 1.838944,1.43059 0.179012,0 0.277723,-1.16895 0.277723,-3.28889 0,-3.20926 -0.01442,-3.29093 -0.595313,-3.37343 -0.541716,-0.0769 -0.586891,-0.20365 -0.501769,-1.40747 0.05145,-0.7276 0.197136,-1.51758 0.32375,-1.7555 0.323074,-0.6071 1.510898,-0.84551 2.392711,-0.48025 0.824262,0.34142 0.954732,0.62859 1.075842,2.36804 0.074,1.06304 0.0191,1.19969 -0.51241,1.27518 -0.580897,0.0825 -0.595311,0.16417 -0.595311,3.37343 0,2.11994 0.09871,3.28889 0.277721,3.28889 0.65175,0 1.80804,-0.83266 1.88631,-1.35836 0.0625,-0.42004 0.39789,-0.66248 1.27181,-0.91947 0.65279,-0.19197 1.27853,-0.25738 1.39053,-0.14538 0.11201,0.11201 0.009,0.77361 -0.22791,1.47022 -0.38661,1.13463 -0.50128,1.25324 -1.10084,1.13862 -0.39227,-0.075 -1.0082,0.0787 -1.48814,0.3714 -0.45037,0.27463 -1.03016,0.49977 -1.28843,0.50032 -0.25826,5.4e-4 -0.58273,0.29864 -0.721051,0.66244 -0.155345,0.4086 -0.458788,0.66146 -0.79375,0.66146 -0.334963,0 -0.638405,-0.25286 -0.79375,-0.66146 z m 1.058333,-4.49791 c 0,-5.52563 -0.472136,-5.87688 -0.582054,-0.43302 -0.08514,4.21674 -0.04429,4.79864 0.33687,4.79864 0.140616,0 0.245184,-1.86188 0.245184,-4.36562 z m -3.96875,1.6172 c 0,-0.17081 -0.34254,-0.43986 -0.761203,-0.59789 l -0.761204,-0.28732 0.418592,0.72936 c 0.402278,0.70092 1.103815,0.79998 1.103815,0.15585 z m 8.533478,-0.12433 c 0.10112,-0.38668 0.0176,-0.47018 -0.36906,-0.36906 -0.67164,0.17564 -0.90411,0.60556 -0.47188,0.87269 0.44182,0.27306 0.67423,0.13388 0.84094,-0.50363 z m -5.430135,-6.01835 c -0.08792,-0.0879 -0.316124,-0.0973 -0.507119,-0.0209 -0.211066,0.0845 -0.148373,0.14716 0.159853,0.15985 0.278914,0.0115 0.435184,-0.051 0.347266,-0.13896 z m 1.852085,0 c -0.0879,-0.0879 -0.31613,-0.0973 -0.507121,-0.0209 -0.211066,0.0845 -0.148373,0.14716 0.159851,0.15985 0.27892,0.0115 0.43519,-0.051 0.34727,-0.13896 z m -0.724891,-0.76282 c 0.439631,-0.52972 0.146788,-1.19399 -0.52637,-1.19399 -0.300175,0 -0.614889,0.18011 -0.699363,0.40024 -0.152035,0.3962 0.313944,1.18726 0.699363,1.18726 0.109884,0 0.34675,-0.17708 0.52637,-0.39351 z m -1.933131,-0.71444 c -0.08446,-0.21106 -0.147156,-0.14837 -0.15985,0.15986 -0.01148,0.27891 0.05104,0.43518 0.138964,0.34726 0.08792,-0.0879 0.09732,-0.31612 0.02088,-0.50712 z m 1.73749,-1.18395 c -0.181901,-0.0734 -0.479557,-0.0734 -0.661458,0 -0.181901,0.0734 -0.03307,0.13345 0.330729,0.13345 0.363802,0 0.51263,-0.06 0.330729,-0.13345 z"
       id="path828"
       inkscape:connector-curvature="0" />
    <path
       style="fill:#000000;stroke-width:0.26458332"
       d=""
       id="path826"
       inkscape:connector-curvature="0" />
    <path
       style="fill:#9e2a97;fill-opacity:1;fill-rule:evenodd;stroke:#9e2a97;stroke-width:0.11849954;stroke-miterlimit:4;stroke-dasharray:none;stroke-dashoffset:0;stroke-opacity:1"
       d="m 289.20492,572.50747 c 0.51732,-0.0629 3.19801,-0.33457 5.95707,-0.60365 11.01798,-1.07456 13.73919,-2.22209 12.22286,-5.15436 -0.28938,-0.55959 -0.88581,-1.35077 -1.32542,-1.75818 -1.0589,-0.98136 -2.92486,-0.97586 -12.57757,0.0371 -10.35422,1.08654 -16.22357,1.41688 -25.17481,1.41688 h -7.7403 l -0.17303,-0.86221 c -1.36938,-6.82386 -1.36994,-8.78716 -0.003,-11.6004 0.57422,-1.18206 1.02904,-1.70343 1.61411,-1.85027 1.18543,-0.29752 2.0178,0.842 3.19407,4.37273 1.24988,3.75171 2.46324,5.71834 3.67105,5.95005 2.60734,0.50022 10.45113,-1.49284 18.97737,-4.82203 3.16104,-1.23427 6.73497,-2.58371 7.94206,-2.99874 2.80064,-0.96295 12.47056,-3.5521 13.26631,-3.5521 0.33222,0 2.13913,0.76285 4.01535,1.69522 4.10202,2.03847 5.83706,2.64198 8.58863,2.98748 1.14599,0.1439 2.39512,0.45423 2.77584,0.68962 0.9383,0.58014 1.16477,1.67069 0.54377,2.61846 -0.94571,1.44334 -2.36854,1.89016 -10.49796,3.29676 -3.17676,0.54966 -5.31984,1.07221 -5.61731,1.36969 -0.43228,0.43228 -0.42345,0.75508 0.0872,3.18839 0.31249,1.48908 0.74759,2.77627 0.96689,2.86042 0.21929,0.0842 3.37493,-0.0693 7.01254,-0.34091 3.6376,-0.27166 6.859,-0.49259 7.15867,-0.49098 0.85844,0.005 -2.7026,1.92386 -4.78517,2.57896 -1.36372,0.42898 -3.5198,0.66952 -7.83825,0.87447 -5.58524,0.26508 -24.31236,0.3472 -22.26063,0.0976 z"
       id="path830"
       inkscape:connector-curvature="0"
       transform="scale(0.26458333)" />
    <path
       style="fill:#9e2a97;fill-opacity:1;fill-rule:evenodd;stroke:#9e2a97;stroke-width:0.03013333;stroke-miterlimit:4;stroke-dasharray:none;stroke-dashoffset:0;stroke-opacity:1"
       d="m 291.51044,603.39489 c -3.51477,-0.17385 -7.14918,-0.58465 -9.15764,-1.03511 -1.55408,-0.34855 -4.3028,-1.35862 -6.74805,-2.47969 -7.41621,-3.4001 -14.38697,-9.40305 -18.81597,-16.2036 -3.45355,-5.30278 -5.72395,-11.33175 -6.6103,-17.55342 -0.36848,-2.58653 -0.40555,-3.16987 -0.40485,-6.36964 7.3e-4,-3.26665 0.0726,-4.30114 0.47912,-6.89764 1.53489,-9.80304 6.34278,-18.79995 13.68302,-25.60474 5.53146,-5.12796 10.55141,-7.99534 16.77156,-9.57987 4.29281,-1.09355 8.46519,-1.51064 14.25336,-1.42483 4.03081,0.0598 6.45411,0.29086 9.38593,0.89508 5.36715,1.10613 10.43152,3.44419 15.26787,7.0487 3.25239,2.42399 6.5979,5.79197 9.07263,9.13354 4.27688,5.775 7.20649,12.54788 8.39227,19.40179 0.40263,2.32731 0.5211,3.65535 0.56645,6.35028 0.058,3.44418 -0.10382,5.30922 -0.73653,8.49101 -2.81252,14.14353 -11.50701,25.66799 -23.81729,31.56958 -4.7297,2.26744 -9.62076,3.59717 -15.12363,4.11165 -1.26512,0.11828 -5.21847,0.20821 -6.45795,0.14691 z m 4.18571,-2.55803 c 0.81524,-0.0436 0.9684,-0.0685 0.71755,-0.11663 -0.43689,-0.0838 -4.47221,-0.0939 -5.04116,-0.0126 l -0.46005,0.0657 0.71755,0.0447 c 1.13536,0.0708 2.93849,0.0791 4.06611,0.0188 z m -10.32201,-0.85747 c -0.20063,-0.24176 -3.21474,-1.28409 -5.50395,-1.90336 -1.31814,-0.35658 -1.4351,-0.38337 -1.4351,-0.32874 0,0.10889 2.51882,1.25191 3.4856,1.58175 1.18183,0.40321 2.5916,0.72794 3.28109,0.75578 0.22713,0.009 0.25389,-0.007 0.17236,-0.10543 z m 18.02606,-0.0214 c 0.0771,-0.0772 0.0318,-0.12534 -0.21519,-0.22854 -0.37478,-0.15658 -1.03244,-0.11912 -1.50937,0.086 -0.2842,0.12223 -0.3015,0.14466 -0.15936,0.20661 0.24027,0.10471 1.7673,0.0528 1.88392,-0.0641 z m -8.26214,-2.01813 c 2.86622,-0.24345 6.70962,-1.05694 9.74869,-2.06341 9.24943,-3.06319 16.94189,-9.3081 21.70855,-17.62348 4.33797,-7.56755 5.93399,-16.38078 4.49971,-24.84742 -1.43361,-8.46261 -5.95882,-16.49758 -12.55685,-22.29599 -9.50404,-8.35223 -22.44029,-11.44443 -34.28495,-8.19524 -2.48798,0.68249 -4.45065,1.43555 -6.97417,2.67592 -3.20745,1.57654 -5.66839,3.17549 -8.41571,5.46795 -1.33242,1.11182 -3.82772,3.61207 -4.9266,4.93637 -3.1355,3.77873 -5.38004,7.89493 -6.62288,12.14555 -0.41891,1.43269 -0.65644,2.57962 -0.96036,4.63715 -0.13602,0.92085 -0.26553,1.75801 -0.2878,1.86035 -0.0833,0.38272 0.13141,0.0479 1.1193,-1.7453 1.22843,-2.22989 1.78621,-3.07819 2.42386,-3.68635 0.68233,-0.65077 1.05226,-0.79934 2.08341,-0.83669 1.42938,-0.0518 2.50547,0.27337 3.26928,0.98782 0.8024,0.75055 1.50685,2.04438 2.64271,4.85368 0.3904,0.96558 0.91003,2.16136 1.15474,2.6573 1.00483,2.03648 2.0791,2.61467 4.27184,2.29916 2.14902,-0.30922 4.53811,-1.08621 12.87939,-4.18871 5.63688,-2.0966 10.86959,-3.88874 14.64933,-5.01719 3.87204,-1.15602 6.49244,-1.68869 8.30721,-1.68869 1.68545,0 2.33539,0.20655 5.52819,1.75684 2.64843,1.28596 3.70912,1.74177 5.06856,2.17808 0.79437,0.25495 1.57381,0.45276 5.37921,1.36513 0.59532,0.14273 1.3217,0.37372 1.61419,0.51332 0.73711,0.35179 1.4061,0.99015 1.69635,1.61869 0.21534,0.46633 0.23108,0.5668 0.22832,1.45759 -0.003,0.83536 -0.0311,1.03764 -0.22454,1.59455 -0.51664,1.48716 -1.43219,3.09311 -2.18328,3.82964 -1.085,1.06397 -2.77027,1.59882 -6.75791,2.14476 -2.98493,0.40865 -4.24158,0.61935 -5.27811,0.88494 -0.98893,0.2534 -1.78237,0.56855 -1.89655,0.7533 -0.10628,0.17196 0.44968,0.26463 1.80898,0.30155 1.53004,0.0415 2.59383,-0.0263 5.96364,-0.38047 5.28486,-0.55542 7.38394,-0.63439 8.52798,-0.32084 0.44605,0.12225 0.91187,0.57484 1.03015,1.00088 0.49936,1.7987 -0.79883,3.36018 -4.57299,5.50048 -2.85172,1.61719 -4.23981,2.14707 -6.67042,2.54632 -0.8248,0.13548 -3.49265,0.28903 -6.40709,0.36876 -4.10316,0.11225 -27.68212,0.0519 -29.85806,-0.0764 -3.62923,-0.21401 -4.99934,-0.47685 -5.5547,-1.06562 -0.47384,-0.50233 -0.72714,-1.83759 -0.44998,-2.37209 0.12752,-0.24593 0.20619,-0.29436 0.66292,-0.40808 2.45647,-0.61164 22.06439,-2.99862 26.5324,-3.22993 1.38892,-0.0719 1.60955,-0.17745 1.19165,-0.57005 -0.5952,-0.55915 -4.36945,-0.39803 -10.78189,0.46028 -4.9202,0.65857 -9.56485,1.04208 -16.46379,1.35939 -0.94278,0.0434 -3.57978,0.10122 -5.85999,0.12858 -6.93638,0.0832 -11.25743,-0.19563 -12.35781,-0.79742 -0.74984,-0.41009 -1.35584,-2.33617 -1.87267,-5.95201 -0.28735,-2.01035 -0.68772,-3.69902 -1.05469,-4.44844 -0.44218,-0.90303 -0.60025,-0.70123 -0.61172,0.78096 -0.0159,2.04888 0.53346,5.64932 1.39884,9.1687 1.22096,4.96544 3.5439,9.88817 6.60266,13.99222 4.73941,6.35903 11.30775,11.01285 19.33632,13.7002 3.10922,1.04073 6.23923,1.71686 8.84979,1.91168 0.8342,0.0623 2.81979,0.0471 3.70734,-0.0283 z M 276.76081,597.229 c 0,-0.0419 -0.24445,-0.21897 -0.54322,-0.39347 -0.81152,-0.47395 -3.35488,-1.71811 -3.40657,-1.66642 -0.0832,0.0832 1.19506,0.98105 1.95807,1.37546 0.71747,0.37087 1.67587,0.75531 1.89206,0.75896 0.0548,9.5e-4 0.0997,-0.0326 0.0997,-0.0745 z m 34.93205,-0.47205 c 0.85948,-0.29571 1.58327,-0.76016 1.58327,-1.01597 0,-0.25914 -0.58936,-0.18337 -1.05607,0.13576 -0.48054,0.32859 -1.1543,1.02983 -0.98947,1.02983 0.0151,0 0.22308,-0.0673 0.46227,-0.14962 z m -41.07109,-2.7566 c 0,-0.14975 -0.39054,-0.5299 -1.47497,-1.43576 -0.90664,-0.75735 -2.73908,-2.18205 -3.22897,-2.5105 l -0.27905,-0.18708 0.27905,0.28429 c 0.82818,0.84374 4.50356,3.9648 4.66898,3.9648 0.0192,0 0.035,-0.0521 0.035,-0.11575 z m 53.65679,-6.96549 c 1.33743,-1.3158 2.40577,-2.41845 2.37407,-2.45034 -0.0317,-0.0319 -0.19314,0.0425 -0.35877,0.16522 -0.61082,0.45273 -4.96378,4.95321 -4.60645,4.76256 0.0877,-0.0468 1.25372,-1.16164 2.59115,-2.47744 z m -62.19594,-1.31011 c -0.56608,-1.08479 -3.70625,-5.1419 -3.86045,-4.9877 -0.0804,0.0804 0.46359,1.05777 1.0217,1.83544 0.62043,0.86449 1.55019,1.99559 2.26348,2.75362 0.55442,0.5892 0.74285,0.71978 0.57527,0.39864 z m 68.6142,-7.71643 c 0.74469,-1.10642 1.10027,-1.97848 0.93044,-2.28194 -0.0663,-0.11844 -0.11366,-0.0819 -0.3321,0.25607 -0.2722,0.42115 -1.67686,3.24014 -1.67185,3.35519 0.005,0.1229 0.55003,-0.55156 1.07351,-1.32932 z m -32.40951,-5.18003 c 16.50368,-0.14419 19.20794,-0.31644 22.04473,-1.40416 0.83296,-0.31939 5.22598,-2.69003 5.04885,-2.72456 -0.11939,-0.0233 -13.28886,0.91001 -13.73918,0.97366 -1.11772,0.15798 4.51589,-0.18274 11.8595,-0.71726 0.61186,-0.0445 0.69762,-0.0348 0.69762,0.0789 0,0.27775 -2.6545,1.7147 -4.21495,2.28165 -1.73786,0.63141 -3.68461,0.88717 -8.46176,1.11166 -4.32102,0.20306 -20.84456,0.3292 -22.0846,0.16859 -0.42678,-0.0553 -0.43104,-0.0583 -0.15945,-0.11205 0.15347,-0.0304 2.09086,-0.2359 4.3053,-0.45666 6.45929,-0.64396 9.10282,-1.0259 11.14273,-1.60988 0.9108,-0.26075 0.62143,-0.24736 -0.38666,0.0179 -2.44972,0.64457 -6.76581,1.16732 -16.1377,1.95455 -2.41176,0.20259 -4.45678,0.39956 -4.54448,0.43773 -0.21665,0.0943 3.83549,0.0943 14.63005,-4e-5 z m 7.57413,-2.80343 c 0.0831,-0.0513 0.0588,-0.0576 -0.0797,-0.0206 -0.10963,0.0293 -0.25314,0.0866 -0.31891,0.12721 -0.0831,0.0514 -0.0588,0.0576 0.0797,0.0206 0.10963,-0.0293 0.25314,-0.0866 0.31891,-0.12721 z m 0.70814,-0.31784 c 0.37529,-0.22356 0.87237,-0.69208 1.00193,-0.94435 0.39702,-0.77306 0.0681,-1.80818 -1.00287,-3.15585 -0.45211,-0.56894 -1.05437,-1.06803 -1.16061,-0.9618 -0.0283,0.0283 -0.01,0.0515 0.0413,0.0515 0.29079,0 1.25678,1.14931 1.78758,2.12682 0.31376,0.57782 0.33872,0.66829 0.33872,1.22768 0,0.54265 -0.0233,0.63448 -0.22987,0.90554 -0.12643,0.1659 -0.44592,0.44129 -0.70998,0.61196 -0.50725,0.32785 -0.55626,0.43043 -0.0662,0.13847 z m 4.45424,0.035 c -0.12059,-0.0183 -0.31792,-0.0183 -0.4385,0 -0.12059,0.0183 -0.0219,0.0332 0.21925,0.0332 0.24117,0 0.33984,-0.0149 0.21925,-0.0332 z m -1.76318,-2.14391 c -0.39162,-1.58841 -0.56124,-2.6609 -0.51796,-3.27493 0.0324,-0.45926 -0.0559,-0.49139 -0.13864,-0.0504 -0.085,0.45325 0.33416,2.73549 0.77733,4.23211 0.30272,1.02231 0.24149,0.56243 -0.12073,-0.90673 z m -55.7674,0.23851 c 0.0578,-0.3711 0.0547,-0.67274 -0.0109,-1.04905 -0.10568,-0.60684 -0.15407,-0.71616 -0.24999,-0.56477 -0.0796,0.12559 -0.096,2.06286 -0.0192,2.26303 0.0478,0.1247 0.0573,0.12495 0.12538,0.003 0.0405,-0.0724 0.11013,-0.36598 0.15473,-0.65246 z m 23.38716,-1.29703 c 0.83315,-0.0478 2.1965,-0.12484 3.02965,-0.17108 4.80608,-0.26673 9.71544,-0.69168 14.70978,-1.27327 1.86363,-0.21702 3.85484,-0.44486 4.42489,-0.50632 0.57005,-0.0615 0.92883,-0.1159 0.79728,-0.12097 -0.29185,-0.0113 -2.43083,0.18821 -7.57414,0.70631 -10.26943,1.03447 -13.38136,1.19797 -23.84162,1.25266 l -7.89606,0.0413 -0.29508,-1.54358 c -0.68216,-3.56845 -0.8577,-4.92259 -0.85636,-6.60629 0.001,-1.4844 0.14978,-2.30706 0.6355,-3.51832 0.59012,-1.47157 1.18701,-2.36353 1.73525,-2.59304 0.34845,-0.14588 0.8569,-0.1351 1.19495,0.0253 0.59957,0.28452 1.2864,1.47323 1.97325,3.41517 0.99417,2.81085 1.76709,4.64485 2.15042,5.10258 0.0734,0.0877 -0.009,-0.10963 -0.18421,-0.43851 -0.46158,-0.86865 -0.98031,-2.1821 -1.40117,-3.54788 -0.49432,-1.60416 -0.70962,-2.1687 -1.17966,-3.09326 -0.40733,-0.80121 -1.02089,-1.56639 -1.42256,-1.7741 -0.38892,-0.20112 -0.958,-0.14958 -1.33088,0.12053 -0.86756,0.62846 -1.78001,2.44023 -2.18047,4.32956 -0.13411,0.63271 -0.17413,1.10232 -0.17826,2.09155 -0.006,1.53305 0.0576,2.02054 0.71558,5.44772 0.28057,1.46149 0.51013,2.69424 0.51013,2.73945 0,0.10879 14.38162,0.0341 16.46379,-0.0855 z m 57.60112,-0.67325 c 0.0591,-0.36979 0.06,-0.68864 0.003,-1.04586 -0.18352,-1.14884 -0.31671,-0.94493 -0.31838,0.48744 -0.002,1.47961 0.13085,1.71426 0.3155,0.55842 z M 300.7788,564.4011 c -0.0987,-0.019 -0.26011,-0.019 -0.35878,0 -0.0987,0.019 -0.0179,0.0345 0.17939,0.0345 0.19733,0 0.27805,-0.0155 0.17939,-0.0345 z m 1.03646,-0.0763 c -0.0548,-0.0221 -0.14451,-0.0221 -0.19932,0 -0.0548,0.0221 -0.01,0.0402 0.0997,0.0402 0.10963,0 0.15447,-0.0181 0.0997,-0.0402 z m 9.52581,-1.27101 c -0.0265,-0.0265 -0.0953,-0.0293 -0.15281,-0.006 -0.0636,0.0255 -0.0447,0.0443 0.0482,0.0482 0.084,0.003 0.13113,-0.0154 0.10464,-0.0419 z m 1.13778,-0.18592 c 0.46043,-0.0836 1.90994,-0.31834 3.22115,-0.52172 4.21757,-0.65418 6.83971,-1.28187 8.18867,-1.96022 0.8541,-0.4295 1.74632,-1.6412 1.74482,-2.36961 -0.002,-1.00624 -1.00312,-1.87675 -2.59216,-2.25415 -0.58819,-0.13969 -2.81653,-0.35301 -2.89263,-0.27691 -0.0132,0.0132 0.39934,0.0862 0.91679,0.16217 2.25954,0.33177 3.13708,0.56894 3.61326,0.97654 0.90806,0.77726 0.85211,2.02949 -0.13412,3.00179 -0.9908,0.97681 -2.50867,1.40832 -9.27531,2.63688 -2.96375,0.53811 -3.96102,0.73776 -3.7472,0.75021 0.0658,0.004 0.4963,-0.0614 0.95673,-0.14498 z m -39.94362,-0.63403 c 1.16964,-0.20744 3.20169,-0.66072 3.15797,-0.70444 -0.0184,-0.0184 -0.53014,0.0746 -1.13725,0.2067 -2.35736,0.51275 -4.62271,0.72994 -5.76792,0.55301 -0.35823,-0.0553 -0.35841,-0.0553 -0.11959,0.0618 0.34574,0.1694 2.64389,0.0998 3.86679,-0.11703 z m -20.03236,-2.58174 c -0.0208,-1.19017 -0.06,-1.76526 -0.12444,-1.82975 -0.0722,-0.0723 -0.0941,0.42407 -0.0941,2.14099 0,1.22927 0.0269,2.26208 0.0598,2.29514 0.1239,0.12456 0.18806,-0.92917 0.15869,-2.60638 z m 15.32843,2.06438 c 0,-0.0166 -0.0628,-0.0793 -0.13953,-0.13952 -0.12645,-0.0992 -0.12927,-0.0964 -0.0301,0.0301 0.10415,0.13281 0.16963,0.17504 0.16963,0.10942 z m 8.19036,-0.25725 c -0.0265,-0.0265 -0.0953,-0.0293 -0.15281,-0.006 -0.0636,0.0254 -0.0447,0.0443 0.0482,0.0482 0.0841,0.003 0.13114,-0.0154 0.10464,-0.0419 z m 0.31891,-0.0797 c -0.0265,-0.0265 -0.0953,-0.0293 -0.15281,-0.006 -0.0636,0.0254 -0.0447,0.0443 0.0482,0.0482 0.084,0.003 0.13114,-0.0154 0.10464,-0.0419 z m -8.95511,-0.23088 c -0.0718,-0.10962 -0.14653,-0.19932 -0.166,-0.19932 -0.0391,0 0.0361,0.14444 0.15564,0.29898 0.13728,0.17751 0.14477,0.10548 0.0104,-0.0997 z m 9.27403,0.15115 c -0.0265,-0.0265 -0.0953,-0.0293 -0.15282,-0.006 -0.0636,0.0255 -0.0447,0.0444 0.0482,0.0482 0.084,0.003 0.13114,-0.0154 0.10465,-0.0419 z m 0.31891,-0.0797 c -0.0265,-0.0265 -0.0953,-0.0293 -0.15281,-0.006 -0.0636,0.0254 -0.0447,0.0443 0.0482,0.0482 0.0841,0.003 0.13114,-0.0154 0.10465,-0.0419 z m 0.31891,-0.0797 c -0.0265,-0.0265 -0.0953,-0.0293 -0.15281,-0.006 -0.0636,0.0255 -0.0447,0.0443 0.0482,0.0482 0.084,0.003 0.13113,-0.0154 0.10464,-0.0419 z m 0.55809,-0.15946 c -0.0265,-0.0265 -0.0953,-0.0293 -0.15281,-0.006 -0.0636,0.0254 -0.0447,0.0444 0.0482,0.0482 0.084,0.003 0.13114,-0.0154 0.10464,-0.0419 z m 6.79846,-2.18421 c 0.0658,-0.0425 0.0837,-0.0773 0.0399,-0.0773 -0.0438,0 -0.13354,0.0348 -0.19932,0.0773 -0.0658,0.0425 -0.0837,0.0773 -0.0399,0.0773 0.0438,0 0.13354,-0.0348 0.19932,-0.0773 z m 0.877,-0.31891 c 0.0658,-0.0425 0.0837,-0.0773 0.0399,-0.0773 -0.0439,0 -0.13355,0.0348 -0.19932,0.0773 -0.0658,0.0425 -0.0837,0.0773 -0.0399,0.0773 0.0438,0 0.13355,-0.0348 0.19932,-0.0773 z m 3.6885,-1.40321 c 6.07086,-2.33085 6.69424,-2.5493 9.98482,-3.49914 2.65453,-0.76625 7.34874,-2.00427 8.80375,-2.32185 0.8782,-0.19169 1.0318,-0.20514 1.35538,-0.11873 0.51811,0.13836 2.23396,0.89538 4.24023,1.87076 0.94745,0.46062 2.18759,1.03324 2.75585,1.27249 1.02086,0.42979 2.7187,1.01543 2.91478,1.00539 0.0556,-0.003 -0.25764,-0.12229 -0.69615,-0.26543 -1.58847,-0.51852 -2.98592,-1.13325 -6.11195,-2.68863 l -3.18443,-1.58444 -1.92935,0.4833 c -3.4094,0.85407 -6.52464,1.66965 -7.62988,1.99755 -2.673,0.793 -6.40833,2.05981 -8.76359,2.9721 -0.91181,0.35318 -5.21532,2.12803 -5.26186,2.17009 -0.0984,0.0889 0.36584,-0.0815 3.5224,-1.29346 z m 45.26216,-2.21067 c 0.0787,-0.49266 0.006,-1.44861 -0.12661,-1.66306 -0.12874,-0.2083 -0.19011,0.14336 -0.19011,1.08942 0,1.49501 0.13149,1.73316 0.31672,0.57364 z M 319.95167,555.4 c -0.0265,-0.0265 -0.0953,-0.0293 -0.15281,-0.006 -0.0636,0.0254 -0.0447,0.0443 0.0482,0.0482 0.084,0.003 0.13113,-0.0154 0.10464,-0.0419 z m -0.31891,-0.0797 c -0.0265,-0.0265 -0.0953,-0.0293 -0.15281,-0.006 -0.0636,0.0254 -0.0447,0.0443 0.0482,0.0482 0.084,0.003 0.13114,-0.0154 0.10465,-0.0419 z m -66.16628,-2.70854 c 0.16455,-0.48663 -0.0731,-1.73181 -0.30342,-1.58949 -0.0879,0.0543 -0.11209,1.47292 -0.0303,1.77824 0.069,0.25758 0.20971,0.17799 0.33372,-0.18875 z m 3.73886,-11.57085 c 0.46917,-0.92988 0.83564,-1.70809 0.81439,-1.72935 -0.0213,-0.0213 -0.20137,0.16552 -0.40024,0.41506 -1.08296,1.35886 -1.80678,2.80643 -1.63158,3.26299 0.0478,0.12462 0.0702,0.11827 0.20898,-0.0592 0.0855,-0.10934 0.53928,-0.95962 1.00845,-1.88951 z m 73.92518,1.51202 c -0.17213,-0.53076 -0.79581,-1.87202 -1.25156,-2.69151 -0.51148,-0.9197 -1.35995,-2.19252 -1.46155,-2.19252 -0.0922,0 0.26383,0.98048 0.68195,1.87828 0.65033,1.39638 2.02292,3.62168 2.09693,3.39964 0.0173,-0.0518 -0.0123,-0.22907 -0.0658,-0.39389 z m -3.50339,-6.50722 c 0,-0.17236 -0.56268,-0.76615 -1.53309,-1.61787 -0.49424,-0.43379 -0.96896,-0.84173 -1.05495,-0.90654 -0.14318,-0.10791 -0.14197,-0.0977 0.0144,0.12135 0.33489,0.46921 1.74301,1.99004 2.08181,2.24844 0.37432,0.28551 0.49185,0.32245 0.49185,0.15462 z m -63.6939,-4.58762 c 1.9652,-1.96462 3.30271,-3.42035 3.21925,-3.50381 -0.15801,-0.15802 -5.20027,4.93826 -5.65566,5.71626 -0.2149,0.36715 0.55917,-0.33577 2.43641,-2.21245 z m 56.75758,-2.38122 c 0,-0.13481 -0.77515,-0.93376 -1.67754,-1.72906 -0.90089,-0.79397 -1.0332,-0.89658 -1.0332,-0.8012 0,0.0866 1.70454,1.96712 2.0563,2.26863 0.3409,0.2922 0.65444,0.41754 0.65444,0.26163 z m -50.63634,-2.76454 c 1.25143,-0.63021 3.88679,-2.59579 3.48031,-2.59579 -0.14945,0 -0.99597,0.4003 -1.55764,0.73657 -1.17197,0.70165 -2.55129,1.81046 -2.55129,2.05093 0,0.11936 0.0277,0.11093 0.62862,-0.19171 z m 42.98247,-2.76645 c -0.96051,-0.8819 -2.91305,-1.98199 -3.5178,-1.98199 -0.17209,0 -0.1724,0.002 -0.0229,0.1674 0.37913,0.41894 3.54465,2.23249 3.87638,2.22082 0.0565,-0.002 -0.0945,-0.1848 -0.33569,-0.40623 z m -23.12105,-4.60976 0.19932,-0.0606 -0.23918,-0.10416 c -0.31397,-0.13674 -1.75326,-0.13841 -2.07293,-0.002 -0.2204,0.0938 -0.22666,0.10689 -0.0797,0.1671 0.19965,0.0818 1.92343,0.0819 2.19251,7e-5 z m 10.02937,-0.0401 c 0.18884,-0.18884 -1.0993,-0.32996 -2.02406,-0.22175 -0.91072,0.10657 -1.09802,0.19896 -0.55076,0.27167 0.43958,0.0584 2.50657,0.0183 2.57482,-0.0499 z"
       id="path832"
       inkscape:connector-curvature="0"
       transform="scale(0.26458333)" />
    <path
       style="fill:#9e2a97;fill-opacity:1;fill-rule:evenodd;stroke:#9e2a97;stroke-width:0.03013333;stroke-miterlimit:4;stroke-dasharray:none;stroke-dashoffset:0;stroke-opacity:1"
       d=""
       id="path834"
       inkscape:connector-curvature="0"
       transform="scale(0.26458333)" />
    <path
       style="fill:#9e2a97;fill-opacity:1;fill-rule:evenodd;stroke:#9e2a97;stroke-width:0.03013333;stroke-miterlimit:4;stroke-dasharray:none;stroke-dashoffset:0;stroke-opacity:1"
       d="m 291.35099,603.3914 c -2.55063,-0.13583 -4.75197,-0.34087 -6.77107,-0.63066 -1.90185,-0.27296 -2.59191,-0.43577 -4.35096,-1.02654 -6.628,-2.22599 -12.71095,-6.02396 -17.77327,-11.09695 -2.65321,-2.65881 -4.73234,-5.32329 -6.64774,-8.51931 -0.83598,-1.39492 -2.4099,-4.58201 -2.9936,-6.06188 -1.64722,-4.17626 -2.66751,-8.63495 -3.00078,-13.11352 -0.10239,-1.37594 -0.10242,-4.89247 -6e-5,-6.33836 0.79642,-11.24958 5.86075,-21.7455 14.20843,-29.44731 7.39013,-6.81833 14.17282,-9.82649 24.21967,-10.74156 1.86966,-0.17029 7.28662,-0.24047 9.32815,-0.12086 6.10186,0.35751 10.70273,1.49135 15.35329,3.78369 4.32571,2.13221 7.86461,4.68424 11.39777,8.21936 2.3899,2.39122 4.00127,4.35764 5.81731,7.09909 3.27601,4.94541 5.60309,10.5396 6.73256,16.18474 0.54885,2.74319 0.72562,4.4264 0.77868,7.41468 0.0603,3.39711 -0.11507,5.50398 -0.70355,8.45115 -2.80297,14.0377 -11.19721,25.37703 -23.24535,31.40089 -6.19398,3.09689 -13.09512,4.65007 -20.35629,4.5814 -0.85508,-0.008 -1.75201,-0.0252 -1.99319,-0.038 z m 3.98639,-2.55478 c 1.68848,-0.0815 1.03328,-0.16237 -1.40404,-0.17341 -2.33457,-0.0106 -3.48578,0.0772 -2.02426,0.15435 1.38435,0.0731 2.21292,0.0777 3.4283,0.0191 z m -9.96597,-0.80999 c 0,-0.11361 -1.07378,-0.55884 -2.4317,-1.00826 -1.68748,-0.5585 -4.14808,-1.25373 -4.32006,-1.22061 -0.15492,0.0298 1.43815,0.8024 2.62333,1.2722 1.50983,0.59849 4.12843,1.20529 4.12843,0.95667 z m 18.03104,-0.0711 c 0.28188,-0.28187 -1.07733,-0.40276 -1.64699,-0.14647 -0.28602,0.12868 -0.30246,0.1508 -0.15945,0.21455 0.21281,0.0949 1.69953,0.0388 1.80644,-0.0681 z m -7.18807,-2.13016 c 4.81808,-0.60398 9.66358,-2.03267 13.75867,-4.05671 4.12033,-2.03652 7.16103,-4.21616 10.40629,-7.45942 1.60166,-1.60068 2.64325,-2.79791 3.79884,-4.36648 7.9275,-10.76057 9.62585,-24.75464 4.46849,-36.8194 -6.96788,-16.30016 -23.9671,-25.83054 -40.95099,-22.9586 -14.40897,2.43653 -27.43812,13.94944 -30.67407,27.10445 -0.32723,1.33027 -1.02053,5.46177 -0.91641,5.46102 0.0253,-1.6e-4 0.50873,-0.83434 1.07432,-1.85368 1.2741,-2.29624 1.74771,-3.01489 2.39926,-3.64053 0.70818,-0.68003 1.07121,-0.82868 2.12101,-0.86846 1.88424,-0.0714 3.06566,0.47592 4.00291,1.85448 0.41935,0.61681 1.11489,2.03136 1.68762,3.43219 1.33666,3.26932 1.70238,4.00134 2.33925,4.68221 0.67728,0.72407 1.65305,1.00751 2.95909,0.85956 2.18997,-0.24809 4.52524,-0.9957 13.32057,-4.26444 8.99026,-3.34119 15.7712,-5.51628 19.49344,-6.25282 1.74352,-0.345 2.61234,-0.43257 3.81048,-0.38408 1.57607,0.0638 2.04144,0.22596 5.60404,1.95297 3.45448,1.6746 4.26265,1.96715 7.64722,2.76815 3.74585,0.88651 4.12815,1.0242 4.91007,1.7685 0.24492,0.23313 0.54987,0.63035 0.67766,0.8827 0.22019,0.43478 0.23227,0.51101 0.23066,1.45541 -0.002,0.91732 -0.0225,1.05685 -0.26362,1.75401 -0.14406,0.41658 -0.47796,1.17001 -0.74202,1.67429 -1.25601,2.39865 -2.25278,3.09033 -5.38828,3.73899 -0.44809,0.0927 -2.07538,0.34843 -3.61618,0.56829 -3.71092,0.52952 -5.38996,0.90315 -6.13303,1.36478 l -0.27905,0.17335 0.2786,0.11513 c 0.39698,0.16405 2.47644,0.21885 4.01469,0.1058 0.695,-0.0511 2.07628,-0.17942 3.06952,-0.28521 6.90294,-0.73524 8.86352,-0.7387 9.64857,-0.017 0.49287,0.45311 0.63969,1.48064 0.32987,2.30869 -0.51733,1.38269 -2.93275,3.18952 -6.73746,5.03987 -3.53174,1.71761 -5.33108,1.83771 -26.55987,1.77277 -14.02553,-0.0429 -15.79573,-0.0922 -18.0476,-0.50311 -1.632,-0.29777 -2.16891,-0.8876 -2.18553,-2.40095 -0.009,-0.84404 0.0629,-0.92341 1.03105,-1.1333 2.90802,-0.63046 20.26332,-2.75259 25.47123,-3.11451 1.72758,-0.12005 2.06349,-0.15942 2.11841,-0.24827 0.0896,-0.14492 -0.20209,-0.461 -0.50172,-0.54373 -1.16253,-0.32099 -4.7397,-0.10329 -10.34688,0.6297 -6.07452,0.79408 -11.67212,1.21887 -19.05494,1.44602 -3.3066,0.10173 -10.08067,0.054 -11.79971,-0.0831 -2.30905,-0.18421 -3.63964,-0.43139 -4.0638,-0.75492 -0.63189,-0.48197 -1.25018,-2.52605 -1.67821,-5.54825 -0.38194,-2.69672 -0.86461,-4.57789 -1.31217,-5.11398 l -0.22266,-0.26672 -0.0884,0.31845 c -0.4314,1.55394 0.67845,8.5198 2.02601,12.71612 2.98718,9.30206 9.16001,16.97573 17.51018,21.76751 5.04209,2.89344 11.42865,4.94848 16.69052,5.37061 0.80748,0.0648 3.69716,-0.0271 4.66407,-0.14832 z m -19.62564,-0.71189 c -0.38271,-0.33712 -3.7359,-2.04026 -3.73378,-1.89646 4.8e-4,0.0303 0.2785,0.26186 0.61789,0.51456 1.10757,0.82465 3.8783,2.05346 3.11589,1.3819 z m 35.2297,-0.40986 c 0.70339,-0.26476 1.1875,-0.55264 1.35231,-0.80417 0.24225,-0.36973 -0.14086,-0.42233 -0.77163,-0.10595 -0.32829,0.16465 -1.00463,0.74514 -1.12054,0.96174 -0.10219,0.19094 -0.10539,0.19125 0.53986,-0.0516 z m -41.19667,-2.73785 c 0,-0.20252 -3.62886,-3.2105 -4.58435,-3.79999 -0.60721,-0.37463 3.44897,3.17988 4.26324,3.73595 0.21927,0.14974 0.32111,0.17005 0.32111,0.064 z m 53.28012,-6.57691 c 1.93722,-1.8667 2.78103,-2.76039 2.60633,-2.76039 -0.054,0 -0.72464,0.61889 -1.49025,1.37531 -1.42539,1.40825 -3.45724,3.54178 -3.17111,3.32979 0.0877,-0.065 1.01247,-0.94009 2.05503,-1.94471 z m -62.09378,-2.09602 c -1.03288,-1.62201 -3.4636,-4.67815 -3.60685,-4.5349 -0.0601,0.0601 0.66156,1.27304 1.16451,1.95707 0.92314,1.25552 2.60819,3.17316 2.70405,3.0773 0.0189,-0.0189 -0.0988,-0.2437 -0.26171,-0.49947 z m 68.34313,-6.54429 c 0.98671,-1.31857 1.46382,-2.23649 1.45962,-2.80815 l -0.003,-0.36103 -0.15842,0.19021 c -0.21206,0.2546 -1.85146,3.51713 -1.76736,3.51713 0.0363,0 0.24729,-0.24217 0.46879,-0.53816 z m -32.7808,-5.92002 c 18.33648,-0.15979 20.69268,-0.33036 23.60907,-1.70906 1.16838,-0.55234 4.44877,-2.34987 4.39199,-2.40664 -0.0382,-0.0382 -13.3057,0.91685 -13.41088,0.96535 -0.13979,0.0645 3.49338,-0.16101 9.79239,-0.60773 1.57218,-0.1115 2.4045,-0.14184 2.45679,-0.0896 0.24989,0.24989 -2.73609,1.85198 -4.64154,2.49037 -2.01217,0.67413 -5.53852,0.96273 -13.66695,1.11851 -4.67561,0.0896 -16.01047,0.096 -16.54352,0.009 -0.34547,-0.0562 -0.3499,-0.0603 -0.11959,-0.11211 0.13155,-0.0296 2.051,-0.23608 4.26544,-0.45888 4.9027,-0.49328 8.84532,-0.98446 8.74082,-1.08895 -0.0182,-0.0182 -0.65589,0.0574 -1.4171,0.16803 -1.56377,0.22724 -4.09056,0.51965 -6.56631,0.75988 -2.05332,0.19923 -9.96636,0.88144 -10.24352,0.88313 -0.15893,9.6e-4 -0.17587,0.0173 -0.0812,0.0785 0.15211,0.0983 2.13064,0.0983 13.43413,-2.4e-4 z m 5.2421,-1.96604 c -0.0548,-0.0221 -0.14451,-0.0221 -0.19932,0 -0.0548,0.0221 -0.01,0.0402 0.0997,0.0402 0.10962,0 0.15447,-0.0181 0.0997,-0.0402 z m 0.69762,-0.10665 c 0.15618,-0.05 0.16481,-0.0635 0.0399,-0.0624 -0.0877,8.2e-4 -0.26709,0.0289 -0.39864,0.0624 -0.21484,0.0547 -0.2189,0.061 -0.0399,0.0624 0.10962,8.1e-4 0.28901,-0.0272 0.39864,-0.0624 z m 0.49829,-0.13253 c -0.0548,-0.0221 -0.1445,-0.0221 -0.19932,0 -0.0548,0.0221 -0.01,0.0402 0.0997,0.0402 0.10963,0 0.15448,-0.0181 0.0997,-0.0402 z m 0.35712,-0.0751 c -0.0265,-0.0265 -0.0953,-0.0293 -0.15281,-0.006 -0.0636,0.0254 -0.0447,0.0443 0.0482,0.0482 0.084,0.003 0.13113,-0.0154 0.10464,-0.0419 z m 0.31891,-0.0797 c -0.0265,-0.0265 -0.0953,-0.0293 -0.15281,-0.006 -0.0636,0.0254 -0.0447,0.0443 0.0482,0.0482 0.084,0.003 0.13113,-0.0154 0.10464,-0.0419 z m 2.77722,-1.32714 0.23416,-0.25911 -0.25911,0.23417 c -0.24153,0.21827 -0.29576,0.28406 -0.23417,0.28406 0.0137,0 0.13032,-0.1166 0.25912,-0.25912 z m 0.3913,-1.12037 c -0.002,-0.55925 -0.035,-0.71685 -0.22878,-1.09207 -0.32955,-0.63813 -0.85024,-1.33834 -1.33397,-1.79388 l -0.42331,-0.39864 0.44912,0.48515 c 0.53607,0.57905 1.11263,1.4496 1.33689,2.01855 0.17732,0.44986 0.21104,1.06471 0.0778,1.41771 -0.0699,0.18516 -0.0664,0.20626 0.0199,0.12059 0.0699,-0.0693 0.10391,-0.32103 0.10236,-0.75741 z m 1.59908,-0.41078 c -0.3668,-1.52165 -0.51923,-2.41033 -0.52549,-3.06364 -0.004,-0.43374 -0.0192,-0.49224 -0.0845,-0.32852 -0.0437,0.10955 -0.0575,0.37864 -0.0307,0.59796 0.12946,1.05953 0.80491,4.08584 0.89239,3.99835 0.0171,-0.0171 -0.0962,-0.55895 -0.25171,-1.20415 z m -55.80969,0.50306 c 0.0836,-0.49467 0.0621,-1.27772 -0.0459,-1.67167 -0.0805,-0.29358 -0.10618,-0.32419 -0.15988,-0.19037 -0.0751,0.18716 -0.0974,1.96208 -0.027,2.14567 0.0751,0.1956 0.17172,0.0778 0.23279,-0.28363 z m 23.27855,-1.57939 c 5.44651,-0.27769 9.20426,-0.54835 13.39427,-0.96476 2.88056,-0.28628 8.38795,-0.93188 8.05116,-0.9438 -0.1323,-0.005 -2.01587,0.1702 -4.18571,0.38862 -12.17628,1.22568 -14.50395,1.35476 -25.47703,1.41281 l -7.97814,0.0422 -0.22107,-1.14532 c -0.71547,-3.70658 -0.92722,-5.27945 -0.92906,-6.90078 -0.002,-1.43865 0.0831,-2.02968 0.44799,-3.12273 0.4976,-1.49081 1.27845,-2.77564 1.87408,-3.08365 0.12435,-0.0643 0.41982,-0.11692 0.65659,-0.11692 1.0271,0 1.62924,0.91035 2.84767,4.3053 0.67917,1.89238 1.11365,2.97763 1.16968,2.9216 0.0201,-0.0201 -0.0255,-0.15652 -0.1013,-0.3031 -0.0758,-0.14659 -0.43712,-1.17695 -0.80284,-2.28969 -0.92114,-2.80265 -1.55506,-4.05036 -2.37591,-4.67646 -0.6865,-0.52362 -1.49392,-0.2905 -2.16979,0.62646 -1.49138,2.02338 -2.0568,5.07171 -1.54113,8.30864 0.1549,0.9723 1.0446,5.56677 1.09321,5.64544 0.0602,0.0974 14.05545,0.008 16.24733,-0.10386 z m 57.75873,-1.11979 c 0.004,-0.7695 -0.13265,-1.42549 -0.24008,-1.15605 -0.0788,0.1977 -0.095,1.96731 -0.0198,2.16335 0.10701,0.27887 0.25658,-0.30089 0.25986,-1.0073 z m -35.53461,-0.85354 c -0.0987,-0.019 -0.26011,-0.019 -0.35878,0 -0.0987,0.019 -0.0179,0.0345 0.17939,0.0345 0.19733,0 0.27805,-0.0155 0.17939,-0.0345 z m 13.19329,-1.66619 c -0.0265,-0.0265 -0.0953,-0.0293 -0.15282,-0.006 -0.0636,0.0255 -0.0447,0.0443 0.0482,0.0482 0.084,0.003 0.13114,-0.0154 0.10465,-0.0419 z m 3.29043,-0.51471 c 2.97345,-0.46618 4.16859,-0.69576 5.78195,-1.11068 2.17407,-0.55912 2.95444,-0.90961 3.58377,-1.60957 0.83007,-0.92324 1.01641,-1.75936 0.5576,-2.50205 -0.57909,-0.93743 -1.99141,-1.50715 -3.93624,-1.58787 l -0.84464,-0.0351 0.71755,0.11779 c 1.07487,0.17643 2.5466,0.50298 2.86331,0.63531 1.36485,0.57027 1.56129,2.17796 0.40714,3.33211 -1.00227,1.00226 -2.5419,1.43774 -9.48922,2.68395 -2.54755,0.45698 -3.34217,0.61995 -2.51142,0.51509 0.19732,-0.0249 1.48891,-0.22247 2.8702,-0.43902 z m -42.97327,-0.14937 c 0.54812,-0.0938 1.19392,-0.22211 1.4351,-0.28522 0.48479,-0.12686 0.30463,-0.10535 -0.9966,0.11897 -1.71956,0.29643 -3.26413,0.39141 -4.01273,0.24674 -0.33465,-0.0647 -0.37558,0.0135 -0.0534,0.10197 0.35924,0.0986 2.66127,-0.0172 3.62762,-0.18246 z m -19.93941,-1.8789 c 0.008,-1.31121 -0.0678,-2.4317 -0.16381,-2.4317 -0.083,0 -0.0916,3.99426 -0.009,4.19912 0.0933,0.2315 0.16555,-0.50741 0.17289,-1.76742 z m 22.11199,1.42216 c -0.0548,-0.0221 -0.14451,-0.0221 -0.19932,0 -0.0548,0.0221 -0.01,0.0402 0.0997,0.0402 0.10962,0 0.15447,-0.0181 0.0997,-0.0402 z m 0.35711,-0.0751 c -0.0265,-0.0265 -0.0953,-0.0293 -0.15281,-0.006 -0.0636,0.0255 -0.0447,0.0444 0.0482,0.0482 0.084,0.003 0.13114,-0.0154 0.10464,-0.0419 z m 0.39864,-0.0797 c -0.0265,-0.0265 -0.0953,-0.0293 -0.15281,-0.006 -0.0636,0.0255 -0.0447,0.0444 0.0482,0.0482 0.084,0.003 0.13113,-0.0154 0.10464,-0.0419 z m -8.68533,-1.66342 c -0.13986,-0.28362 -0.26744,-0.50251 -0.28352,-0.48644 -0.0356,0.0356 0.44641,1.00211 0.49984,1.00211 0.0209,0 -0.0765,-0.23205 -0.21632,-0.51567 z m 19.86881,-1.87617 c 0.0658,-0.0425 0.0837,-0.0773 0.0399,-0.0773 -0.0439,0 -0.13355,0.0348 -0.19932,0.0773 -0.0658,0.0425 -0.0837,0.0773 -0.0399,0.0773 0.0439,0 0.13355,-0.0348 0.19932,-0.0773 z m 3.03679,-1.16505 c 4.40923,-1.69504 6.27082,-2.36226 8.16497,-2.92643 4.67315,-1.3919 10.33989,-2.85581 11.12202,-2.87318 0.63343,-0.0141 1.14995,0.18486 3.94652,1.51997 1.05241,0.50244 1.96729,0.93016 2.03306,0.9505 0.0658,0.0203 -1.16334,-0.61076 -2.73137,-1.40246 l -2.85097,-1.43944 -2.69012,0.68401 c -6.90683,1.75619 -9.53744,2.5414 -14.09118,4.20607 -1.74175,0.63672 -5.66005,2.2195 -5.77222,2.33167 -0.0779,0.0779 0.16173,-0.01 2.86929,-1.05071 z M 334.4706,554.537 c 0.0323,-0.87153 -0.10265,-1.61337 -0.2328,-1.28012 -0.0748,0.19163 -0.0935,1.96546 -0.0225,2.15022 0.11488,0.29941 0.22607,-0.0795 0.25534,-0.8701 z m -16.20541,0.38753 c -0.30361,-0.10605 -0.56596,-0.17887 -0.58301,-0.16183 -0.0402,0.0402 0.85874,0.35382 1.01544,0.35429 0.0658,1.6e-4 -0.12882,-0.0864 -0.43243,-0.19246 z m -0.76349,-0.26646 c -0.0658,-0.0372 -0.20929,-0.0896 -0.31891,-0.11638 -0.16614,-0.0406 -0.15951,-0.0295 0.0399,0.0665 0.25551,0.12307 0.47903,0.16303 0.27905,0.0499 z m -0.63782,-0.2464 c -0.0658,-0.0425 -0.15547,-0.0773 -0.19932,-0.0773 -0.0439,0 -0.0259,0.0348 0.0399,0.0773 0.0658,0.0425 0.15547,0.0773 0.19932,0.0773 0.0438,0 0.0259,-0.0348 -0.0399,-0.0773 z m -0.47837,-0.19932 c -0.10962,-0.0627 -0.2352,-0.11394 -0.27905,-0.11394 -0.0439,0 0.01,0.0513 0.1196,0.11394 0.10962,0.0627 0.23519,0.11394 0.27904,0.11394 0.0438,0 -0.01,-0.0513 -0.11959,-0.11394 z m -0.63782,-0.27905 c -0.15348,-0.084 -0.31493,-0.15277 -0.35878,-0.15277 -0.0439,0 0.0458,0.0688 0.19932,0.15277 0.15348,0.084 0.31493,0.15277 0.35878,0.15277 0.0439,0 -0.0458,-0.0687 -0.19932,-0.15277 z m -62.28256,-1.40574 c 0.0787,-0.35169 -0.007,-1.12878 -0.15559,-1.40584 -0.14754,-0.27569 -0.22534,1.6e-4 -0.22666,0.8037 -0.002,1.04284 0.20928,1.3752 0.38225,0.60214 z m 2.98767,-10.05513 c 0.67458,-1.17266 1.64374,-3.20839 1.45147,-3.04883 -0.44029,0.36541 -1.54306,2.09941 -1.7999,2.83019 -0.1367,0.38891 -0.15723,0.83653 -0.0384,0.83653 0.0172,0 0.19132,-0.27805 0.38681,-0.61789 z m 74.71108,0.23919 c -0.0776,-0.31493 -0.50372,-1.29437 -0.94515,-2.17259 -0.67509,-1.34302 -1.79433,-3.06721 -1.79433,-2.76414 0,0.43071 1.29554,3.07891 2.1226,4.33877 0.54428,0.82909 0.71452,0.99411 0.61688,0.59796 z m -3.53675,-6.64202 c 0,-0.20819 -1.42599,-1.61643 -2.43079,-2.40054 l -0.23827,-0.18593 0.17311,0.23918 c 0.29589,0.40882 1.72249,1.93304 2.04848,2.18866 0.3259,0.25555 0.44747,0.29865 0.44747,0.15863 z m -63.81437,-4.49871 c 1.791,-1.7847 3.33756,-3.45939 3.26329,-3.53366 -0.13116,-0.13116 -4.82903,4.59536 -5.49104,5.52455 l -0.16965,0.2381 0.27797,-0.19701 c 0.15289,-0.10835 1.10663,-1.02274 2.11943,-2.03198 z m 56.79594,-2.53259 c -0.003,-0.14591 -0.49757,-0.6797 -1.31313,-1.41865 -1.55786,-1.41152 -1.62963,-1.38783 -0.29542,0.0975 1.00622,1.12023 1.61571,1.6208 1.60855,1.32112 z m -50.02343,-3.03836 c 1.49275,-0.90529 3.35099,-2.37742 2.82697,-2.23957 -0.35784,0.0941 -1.65356,0.80752 -2.32103,1.2779 -0.66598,0.46933 -1.66536,1.35368 -1.66536,1.47367 0,0.11531 0.45996,-0.0878 1.15942,-0.512 z m 42.45159,-2.45141 c -0.94716,-0.82987 -2.74788,-1.86549 -3.396,-1.95308 l -0.31126,-0.0421 0.27905,0.24967 c 0.58631,0.52458 3.6118,2.23486 3.73519,2.11147 0.0284,-0.0284 -0.1097,-0.19313 -0.30698,-0.36599 z m -23.2015,-4.60714 c 0.53612,-0.14922 -0.70442,-0.34121 -1.53907,-0.23818 -1.0928,0.13488 -0.82079,0.29343 0.50341,0.29343 0.46043,0 0.92647,-0.0249 1.03566,-0.0553 z m 10.03986,-0.0573 c 0.18071,-0.1685 -1.11293,-0.30136 -1.94425,-0.19967 -0.89064,0.10894 -1.01216,0.19583 -0.36121,0.25827 0.5022,0.0482 2.23828,0.004 2.30546,-0.0586 z"
       id="path836"
       inkscape:connector-curvature="0"
       transform="scale(0.26458333)" />
    <path
       style="fill:#9e2a97;fill-opacity:1;fill-rule:evenodd;stroke:#9e2a97;stroke-width:1.16409445;stroke-miterlimit:4;stroke-dasharray:none;stroke-dashoffset:0;stroke-opacity:1"
       d="m 290.43412,603.35705 c -2.82468,-0.17458 -6.0964,-0.55832 -7.76122,-0.9103 -2.12055,-0.44835 -5.48602,-1.73017 -8.38365,-3.19314 -6.92818,-3.49793 -13.20212,-9.03269 -17.33684,-15.29424 -1.96398,-2.97422 -3.72222,-6.53578 -4.85648,-9.83748 -1.24049,-3.61089 -2.0102,-7.36614 -2.28807,-11.1629 -0.12326,-1.68423 -0.0555,-6.34622 0.11375,-7.82977 0.61075,-5.3525 1.94753,-10.01999 4.19202,-14.63681 2.88915,-5.94288 6.68987,-10.74662 12.08325,-15.27208 6.32801,-5.30968 12.92061,-7.96189 21.88527,-8.80445 1.80603,-0.16974 7.53269,-0.24257 9.6072,-0.12218 3.83765,0.22271 6.98691,0.7547 10.02866,1.69412 4.81977,1.48853 9.87659,4.33352 14.08899,7.92654 1.23079,1.04981 3.99408,3.82587 5.0341,5.05734 6.24894,7.39933 10.11099,16.68586 10.75671,25.86519 0.14248,2.02549 0.06,6.02693 -0.15882,7.7002 -0.6455,4.93719 -2.17879,10.02539 -4.38666,14.55706 -2.23981,4.59725 -4.87049,8.31955 -8.33527,11.79405 -2.65497,2.66243 -5.72465,5.02877 -8.83551,6.81111 -4.385,2.51234 -9.54886,4.33543 -14.56459,5.14201 -3.37857,0.5433 -7.37352,0.73262 -10.88284,0.51573 z m 5.50122,-2.63025 c -0.40587,-0.0812 -3.60489,-0.0908 -4.18571,-0.0125 -0.34975,0.0471 -0.18032,0.0672 0.83714,0.099 1.70884,0.0534 3.78007,-6e-5 3.34857,-0.0864 z m -11.02536,-0.96674 c -1.04223,-0.46924 -6.03418,-2.03037 -6.25598,-1.95644 -0.11252,0.0375 1.99665,1.02905 2.91114,1.36854 1.341,0.49784 3.50609,0.98831 3.7646,0.85281 0.0429,-0.0225 -0.14603,-0.14167 -0.41976,-0.26491 z m 18.43257,0.17566 c 0.13818,-0.13817 -0.036,-0.19779 -0.66064,-0.22616 -0.46066,-0.0209 -0.69482,0.007 -0.93046,0.11155 l -0.3149,0.13951 0.23919,0.0632 c 0.30349,0.0803 1.56513,0.0135 1.66681,-0.0881 z m -7.60653,-2.08186 c 2.44468,-0.21688 6.05959,-1.00463 8.96937,-1.95456 9.26335,-3.02415 16.95516,-9.20343 21.76769,-17.48723 4.12256,-7.09616 5.82935,-15.41601 4.81532,-23.47255 -1.76775,-14.04486 -11.69335,-26.3171 -25.15789,-31.10575 -7.10549,-2.52706 -14.65748,-2.84223 -21.81049,-0.91024 -5.67589,1.53303 -11.24155,4.53254 -15.90262,8.57042 -1.30339,1.12913 -3.71059,3.59845 -4.69983,4.82112 -3.60208,4.45205 -5.95775,9.22645 -6.92259,14.03048 -0.24805,1.23502 -0.70051,4.1352 -0.66279,4.24834 0.0153,0.0459 0.4864,-0.73866 1.04687,-1.74356 1.63573,-2.93285 2.27262,-3.76983 3.22211,-4.23437 0.38296,-0.18736 0.57547,-0.22569 1.26121,-0.25107 2.47083,-0.0915 3.70714,0.79066 4.98375,3.55595 0.17696,0.38332 0.68045,1.55801 1.11887,2.61042 1.31088,3.14675 1.74874,3.84341 2.73042,4.34424 0.50307,0.25666 0.61069,0.28037 1.39405,0.30718 1.97475,0.0676 4.10208,-0.56328 13.04316,-3.86802 10.986,-4.06057 17.3535,-6.08913 21.36732,-6.80718 0.56419,-0.10094 1.4661,-0.18837 2.19822,-0.21311 2.03885,-0.0689 2.54309,0.0789 6.0536,1.77388 3.77081,1.82069 4.47917,2.07837 8.09237,2.94372 2.59232,0.62085 3.43652,0.86225 3.98209,1.13869 0.5577,0.28258 1.27894,0.99903 1.5392,1.52899 0.20554,0.41853 0.21893,0.51036 0.21613,1.48263 -0.003,1.19116 -0.0779,1.46977 -0.79227,2.96473 -1.28097,2.68057 -2.32913,3.48178 -5.4059,4.13226 -0.51652,0.1092 -2.18461,0.37863 -3.70686,0.59874 -3.84923,0.55658 -5.57599,0.94142 -6.27283,1.39801 -0.30283,0.19842 -0.16025,0.25696 0.88744,0.36438 1.18497,0.12149 2.74061,0.0423 6.48348,-0.33017 4.60688,-0.45841 5.1572,-0.49966 6.737,-0.505 1.66954,-0.006 2.16248,0.0959 2.66378,0.54881 0.38743,0.35002 0.51928,0.79344 0.46897,1.57727 -0.0507,0.78955 -0.31633,1.27007 -1.17658,2.12809 -1.05049,1.04778 -3.29131,2.4769 -5.69725,3.63351 -2.27416,1.09325 -3.71703,1.39393 -7.89918,1.64608 -2.41843,0.14581 -30.52016,0.14307 -33.00183,-0.003 -3.69648,-0.2179 -5.10394,-0.53505 -5.54556,-1.24961 -0.32732,-0.52961 -0.50063,-1.67887 -0.32346,-2.14488 0.12419,-0.32663 0.38429,-0.43149 1.59975,-0.64495 4.78885,-0.84103 20.42313,-2.71149 25.6332,-3.06672 1.4545,-0.0992 1.54312,-0.13262 1.2331,-0.46538 -0.57396,-0.61608 -3.54538,-0.50963 -10.64333,0.38127 -5.98012,0.7506 -9.23931,1.02451 -16.30433,1.37026 -2.80869,0.13745 -13.02164,0.13757 -14.66991,1.6e-4 -2.79003,-0.23258 -3.81938,-0.46521 -4.22304,-0.9544 -0.55437,-0.67184 -1.01943,-2.36637 -1.52064,-5.54071 -0.44451,-2.81524 -0.86105,-4.42053 -1.28782,-4.96307 -0.22438,-0.28526 -0.29317,-0.15827 -0.35547,0.65625 -0.13114,1.71466 0.53481,6.21538 1.46032,9.86935 1.45531,5.74569 4.14207,10.98761 8.00949,15.62665 0.85633,1.02718 3.13872,3.3191 4.22449,4.24213 4.72578,4.01746 10.42874,6.90427 16.88732,8.54829 2.02056,0.51433 4.28342,0.89128 5.94585,0.99047 0.69953,0.0417 2.88875,-0.0232 3.94653,-0.11703 z m -19.05494,-0.62261 c 0,-0.0407 -0.2063,-0.19831 -0.45844,-0.3503 -0.65397,-0.39422 -3.21857,-1.66571 -3.26536,-1.61892 -0.0731,0.0731 1.04918,0.83965 1.81949,1.24267 0.67661,0.35399 1.67603,0.78563 1.84451,0.79661 0.0329,0.002 0.0598,-0.0294 0.0598,-0.0701 z m 35.6178,-0.76275 c 0.88006,-0.41312 1.21984,-0.83757 0.67049,-0.83757 -0.2906,0 -0.6994,0.21663 -1.191,0.63115 -0.76439,0.64456 -0.57383,0.72012 0.52051,0.20642 z m -41.67711,-2.50624 c 0,-0.11243 -1.0586,-1.04016 -2.50669,-2.1968 -1.44938,-1.15766 -2.13769,-1.66395 -1.95807,-1.44027 0.17953,0.22357 2.63962,2.37344 3.53205,3.08666 0.75439,0.60289 0.93271,0.70813 0.93271,0.55041 z m 53.22195,-6.54329 c 1.65189,-1.59329 2.70866,-2.69588 2.64494,-2.7596 -0.0593,-0.0593 -2.12255,1.95912 -3.46508,3.38968 -1.28843,1.37293 -1.13169,1.25251 0.82014,-0.63008 z m -61.84207,-1.77395 c -0.58527,-1.10686 -3.73769,-5.15026 -3.73769,-4.79409 0,0.136 0.69535,1.29639 1.12768,1.88185 0.79459,1.07604 2.53873,3.09163 2.67528,3.09163 0.0163,0 -0.0131,-0.0807 -0.0653,-0.17939 z m 68.69945,-7.69082 c 0.24753,-0.37197 0.54112,-0.87527 0.65245,-1.11844 0.21309,-0.46544 0.33407,-1.13678 0.20487,-1.13678 -0.12106,0 -1.36752,2.32871 -1.72832,3.22898 l -0.12782,0.31891 0.2744,-0.30817 c 0.15091,-0.1695 0.47691,-0.61252 0.72442,-0.9845 z m -27.59026,-5.21057 c 13.62574,-0.1615 15.51227,-0.36811 18.69616,-2.0476 1.58847,-0.83791 3.42428,-1.86236 3.47005,-1.93642 0.0259,-0.0419 -0.0513,-0.059 -0.17732,-0.0392 -0.12276,0.0193 -2.69876,0.20713 -5.72443,0.41737 -3.02567,0.21025 -5.37564,0.39287 -5.22217,0.40581 0.15348,0.0129 1.57064,-0.067 3.14925,-0.17773 5.81733,-0.40796 6.73163,-0.46289 6.86334,-0.41235 0.12393,0.0476 0.12268,0.0648 -0.0158,0.21827 -0.37053,0.41058 -2.67857,1.60652 -4.17663,2.16418 -1.78035,0.66273 -4.31842,0.96118 -10.00584,1.17654 -2.71147,0.10267 -19.82525,0.20344 -20.48801,0.12064 -0.6959,-0.087 -0.42821,-0.16165 1.15403,-0.32207 0.76738,-0.0778 1.6105,-0.17093 1.8736,-0.20696 0.43992,-0.0602 0.42711,-0.0625 -0.15945,-0.0287 -0.35081,0.0203 -2.28819,0.17991 -4.3053,0.35481 -2.01712,0.1749 -3.77511,0.32464 -3.90666,0.33276 -0.13156,0.008 0.0299,0.0383 0.35877,0.067 0.71627,0.0626 9.4817,0.0219 18.61644,-0.0864 z m -9.50644,-0.76825 c -0.0981,-0.0189 -0.27745,-0.0194 -0.39864,-10e-4 -0.12119,0.0183 -0.041,0.0338 0.17829,0.0344 0.21925,6.3e-4 0.31841,-0.0144 0.22035,-0.0333 z m 0.79618,-0.0799 c -0.0987,-0.019 -0.26012,-0.019 -0.35878,0 -0.0987,0.019 -0.0179,0.0346 0.17939,0.0346 0.19733,0 0.27805,-0.0156 0.17939,-0.0346 z m 0.79727,-0.0797 c -0.0987,-0.019 -0.26011,-0.019 -0.35877,0 -0.0987,0.019 -0.0179,0.0346 0.17939,0.0346 0.19732,0 0.27805,-0.0155 0.17938,-0.0346 z m 0.75835,-0.0782 c -0.0762,-0.0199 -0.21974,-0.0207 -0.31891,-0.002 -0.0992,0.0191 -0.0368,0.0354 0.13859,0.0363 0.1754,8.9e-4 0.25654,-0.0147 0.18032,-0.0347 z m 0.79728,-0.0797 c -0.0762,-0.0199 -0.21974,-0.0207 -0.31892,-0.002 -0.0992,0.0191 -0.0368,0.0354 0.1386,0.0363 0.1754,8.8e-4 0.25654,-0.0147 0.18032,-0.0347 z m 0.71662,-0.0799 c -0.0767,-0.0201 -0.20231,-0.0201 -0.27905,0 -0.0767,0.02 -0.014,0.0365 0.13952,0.0365 0.15348,0 0.21626,-0.0164 0.13953,-0.0365 z m 0.63782,-0.0797 c -0.0767,-0.0201 -0.20231,-0.0201 -0.27905,0 -0.0767,0.02 -0.014,0.0365 0.13952,0.0365 0.15348,0 0.21627,-0.0164 0.13953,-0.0365 z m 0.71755,-0.0797 c -0.0767,-0.02 -0.20231,-0.02 -0.27905,0 -0.0767,0.0201 -0.014,0.0365 0.13952,0.0365 0.15348,0 0.21627,-0.0164 0.13953,-0.0365 z m 0.63782,-0.0797 c -0.0767,-0.02 -0.20231,-0.02 -0.27905,0 -0.0767,0.0201 -0.0139,0.0365 0.13953,0.0365 0.15347,0 0.21626,-0.0164 0.13952,-0.0365 z m 0.59948,-0.0771 c -0.054,-0.0218 -0.16161,-0.0232 -0.23919,-0.003 -0.0776,0.0202 -0.0334,0.0381 0.0982,0.0397 0.13155,0.002 0.19501,-0.0149 0.14104,-0.0368 z m 0.63782,-0.0797 c -0.054,-0.0218 -0.16161,-0.0232 -0.23919,-0.003 -0.0776,0.0202 -0.0334,0.0381 0.0981,0.0397 0.13155,0.002 0.19502,-0.0149 0.14104,-0.0367 z m 0.47685,-0.0802 c -0.0548,-0.0221 -0.14451,-0.0221 -0.19932,0 -0.0548,0.0221 -0.01,0.0402 0.0997,0.0402 0.10962,0 0.15447,-0.0181 0.0997,-0.0402 z m 0.55809,-0.0797 c -0.0548,-0.0221 -0.1445,-0.0221 -0.19932,0 -0.0548,0.0221 -0.01,0.0402 0.0997,0.0402 0.10963,0 0.15447,-0.0181 0.0997,-0.0402 z m 11.841,-1.43927 c -0.1198,-0.0182 -0.33506,-0.0186 -0.47836,-8.1e-4 -0.1433,0.0177 -0.0453,0.0326 0.21782,0.0331 0.2631,4.8e-4 0.38035,-0.0141 0.26054,-0.0323 z m -60.1361,-2.21527 c 0,-0.48235 -0.0318,-0.94876 -0.0708,-1.03646 -0.0673,-0.15156 -0.0738,-0.14959 -0.13157,0.0399 -0.0751,0.24611 -0.093,1.72472 -0.0241,1.98236 0.10932,0.40839 0.22642,-0.10142 0.22642,-0.98576 z m 55.81459,0.31891 c -0.10451,-0.39465 -0.19327,-0.6714 -0.19724,-0.615 -0.0108,0.1536 0.33623,1.49908 0.36362,1.40971 0.013,-0.0424 -0.0619,-0.40006 -0.16638,-0.79471 z m -1.58676,0.4983 c -0.0221,-0.0548 -0.0402,-0.01 -0.0402,0.0997 0,0.10963 0.0181,0.15447 0.0402,0.0997 0.0221,-0.0548 0.0221,-0.14451 0,-0.19932 z m 0.002,-0.43699 c -0.0202,-0.0776 -0.0381,-0.0334 -0.0397,0.0982 -0.002,0.13155 0.0149,0.19502 0.0368,0.14104 0.0218,-0.054 0.0232,-0.16161 0.003,-0.23919 z m -0.13271,-0.5328 c -0.0957,-0.29004 -0.80246,-1.42495 -0.94047,-1.51025 -0.0423,-0.0261 0.11654,0.24648 0.35294,0.60581 0.23641,0.35934 0.47055,0.78924 0.52032,0.95535 0.0498,0.16611 0.10625,0.28625 0.12552,0.26698 0.0193,-0.0193 -0.007,-0.16232 -0.0583,-0.31789 z m 1.48563,-0.54504 c -0.0221,-0.0548 -0.0402,-0.01 -0.0402,0.0997 0,0.10963 0.0181,0.15447 0.0402,0.0997 0.0221,-0.0548 0.0221,-0.1445 0,-0.19932 z m -32.78105,-0.1431 c 4.4299,-0.17911 9.70559,-0.5505 14.11181,-0.99343 2.82653,-0.28413 6.47687,-0.71056 6.32929,-0.73938 -0.0708,-0.0138 -2.13373,0.17348 -4.58435,0.41623 -6.45757,0.63965 -9.23197,0.8586 -13.78383,1.08779 -0.96471,0.0486 -5.36383,0.10691 -9.77582,0.12965 l -8.02181,0.0414 -0.32801,-1.70339 c -0.65605,-3.40684 -0.81857,-4.68748 -0.81819,-6.4472 3.9e-4,-1.81952 0.20487,-2.70724 1.0009,-4.34517 0.4386,-0.90247 0.9281,-1.55151 1.32486,-1.75668 0.29119,-0.15058 0.97472,-0.15027 1.26643,5.6e-4 0.62822,0.32487 1.33141,1.61666 2.20393,4.04876 0.29506,0.82245 0.55055,1.48129 0.56776,1.46408 0.0172,-0.0172 -0.18623,-0.69013 -0.45208,-1.49538 -1.1134,-3.37241 -2.2302,-4.81582 -3.38609,-4.37635 -0.86247,0.32791 -1.91081,2.11766 -2.41691,4.12621 -0.20169,0.80043 -0.21656,0.97582 -0.21818,2.57313 -0.001,1.04881 0.0376,1.93076 0.0996,2.27224 0.0557,0.30695 0.32264,1.73131 0.59307,3.16525 l 0.4917,2.60715 0.24407,0.0372 c 0.41882,0.0638 13.53688,-0.0312 15.5518,-0.11265 z m 32.70298,-0.17083 c -0.0254,-0.0636 -0.0443,-0.0447 -0.0482,0.0482 -0.003,0.0841 0.0154,0.13114 0.0419,0.10465 0.0265,-0.0265 0.0293,-0.0953 0.006,-0.15282 z m 25.49815,-0.98164 c 8e-5,-0.48236 -0.0306,-0.94876 -0.0682,-1.03646 l -0.0684,-0.15946 -0.0656,0.15946 c -0.0793,0.19277 -0.0973,1.59163 -0.0251,1.95231 0.10182,0.5091 0.22715,0.004 0.22729,-0.91585 z m -25.57954,0.49829 c -0.0221,-0.0548 -0.0402,-0.01 -0.0402,0.0997 0,0.10963 0.0181,0.15448 0.0402,0.0997 0.0221,-0.0548 0.0221,-0.1445 0,-0.19932 z m -0.0773,-0.43698 c -0.0202,-0.0776 -0.0381,-0.0334 -0.0397,0.0981 -0.002,0.13155 0.0149,0.19502 0.0367,0.14104 0.0218,-0.054 0.0232,-0.16161 0.003,-0.23918 z m -2.28762,0.1079 c 0,-0.0166 -0.0628,-0.0793 -0.13953,-0.13952 -0.12645,-0.0992 -0.12927,-0.0963 -0.0301,0.0301 0.10416,0.13281 0.16963,0.17504 0.16963,0.10942 z m 2.22732,-0.86683 c -0.003,-0.37907 -0.0274,-0.52303 -0.0699,-0.41824 -0.0601,0.14802 -0.0216,0.99626 0.0452,0.99626 0.0164,0 0.0275,-0.26011 0.0247,-0.57802 z m -11.33529,0.0449 c -0.0762,-0.02 -0.21974,-0.0207 -0.31891,-0.002 -0.0992,0.0191 -0.0368,0.0354 0.13859,0.0363 0.1754,8.9e-4 0.25654,-0.0147 0.18032,-0.0347 z m 16.06422,-2.07095 c -0.0548,-0.0221 -0.14451,-0.0221 -0.19932,0 -0.0548,0.0221 -0.01,0.0402 0.0997,0.0402 0.10962,0 0.15447,-0.0181 0.0997,-0.0402 z m 0.47988,-0.0792 c -0.054,-0.0218 -0.16161,-0.0232 -0.23918,-0.003 -0.0776,0.0202 -0.0334,0.0381 0.0981,0.0397 0.13155,0.002 0.19502,-0.0149 0.14104,-0.0367 z m 1.9064,-0.2674 c 3.92444,-0.61141 6.69919,-1.28168 7.99071,-1.93023 0.80683,-0.40516 1.54247,-1.29126 1.71554,-2.06641 0.23491,-1.05209 -0.74354,-2.064 -2.41216,-2.49466 -0.50921,-0.13142 -2.06626,-0.31803 -2.22159,-0.26626 -0.0535,0.0178 0.29593,0.096 0.77645,0.1738 1.93333,0.31289 2.68741,0.55504 3.12228,1.00261 1.04603,1.07661 0.43787,2.7992 -1.27998,3.62545 -1.03299,0.49685 -3.3157,1.04254 -7.50631,1.79443 -1.00856,0.18096 -1.86962,0.34243 -1.91347,0.35883 -0.22233,0.0832 0.33708,0.0192 1.72853,-0.19756 z m -45.67606,0.10198 c -0.18504,-0.0167 -0.50794,-0.0169 -0.71755,-4.8e-4 -0.20961,0.0165 -0.0582,0.0302 0.33644,0.0304 0.39465,2.3e-4 0.56615,-0.0132 0.38111,-0.03 z m -1.19832,-0.0743 c -0.0548,-0.0221 -0.14451,-0.0221 -0.19932,0 -0.0548,0.0221 -0.01,0.0402 0.0997,0.0402 0.10962,0 0.15447,-0.0181 0.0997,-0.0402 z m 2.39183,-0.003 c -0.0987,-0.019 -0.26011,-0.019 -0.35878,0 -0.0987,0.019 -0.0179,0.0346 0.17939,0.0346 0.19733,0 0.27805,-0.0156 0.17939,-0.0346 z m 0.67862,-0.0782 c -0.0762,-0.0199 -0.21974,-0.0207 -0.31892,-0.002 -0.0992,0.0191 -0.0368,0.0354 0.1386,0.0363 0.1754,8.8e-4 0.25654,-0.0147 0.18032,-0.0347 z m 0.85614,-0.10467 c 0.33155,-0.0844 0.005,-0.0881 -0.39864,-0.005 -0.26813,0.0555 -0.28083,0.0659 -0.0797,0.0657 0.13155,-1.6e-4 0.34682,-0.0277 0.47837,-0.0611 z m -20.38018,-1.75401 c 0.0122,-1.03711 -0.079,-2.31593 -0.16158,-2.26492 -0.0825,0.051 -0.0895,3.29245 -0.008,3.73988 0.0569,0.31259 0.0591,0.30863 0.10939,-0.19932 0.0282,-0.28502 0.0553,-0.85906 0.0602,-1.27564 z m 20.91834,1.62148 c -0.0548,-0.0221 -0.1445,-0.0221 -0.19932,0 -0.0548,0.0221 -0.01,0.0402 0.0997,0.0402 0.10963,0 0.15447,-0.0181 0.0997,-0.0402 z m -7.5232,-3.92473 c -0.0491,-0.1409 -0.10326,-0.24223 -0.12031,-0.22517 -0.017,0.017 0.009,0.14628 0.0583,0.28718 0.0491,0.1409 0.10326,0.24223 0.12031,0.22518 0.0171,-0.017 -0.009,-0.14629 -0.0583,-0.28719 z m 24.36569,-1.44058 c 5.34312,-2.04792 6.8421,-2.54353 11.68012,-3.86182 2.29101,-0.62426 5.68292,-1.48398 6.49023,-1.64502 0.25893,-0.0516 0.60301,-0.0728 0.76461,-0.0469 0.36737,0.0587 1.42586,0.48329 2.61895,1.0504 0.50325,0.23921 0.92369,0.42572 0.93433,0.41447 0.0106,-0.0113 -0.76482,-0.42165 -1.72325,-0.912 l -1.74259,-0.89155 -2.65461,0.67542 c -7.00613,1.78257 -9.76746,2.60628 -14.14471,4.21937 -1.48881,0.54866 -5.09912,1.99756 -5.2926,2.12405 -0.1795,0.11736 -0.0847,0.0826 3.06952,-1.12639 z m 44.16905,-2.27562 c 8e-5,-0.48235 -0.0317,-0.94876 -0.0706,-1.03646 -0.0673,-0.15156 -0.0738,-0.14958 -0.13159,0.0399 -0.0765,0.25094 -0.0938,1.56866 -0.0251,1.91244 0.10182,0.50911 0.22715,0.004 0.22729,-0.91585 z m -81.04595,-1.62917 c 0.1086,-0.20293 0.1052,-0.88111 -0.007,-1.32531 -0.15512,-0.61605 -0.30642,-0.3742 -0.30835,0.49289 -0.002,0.85488 0.12438,1.18861 0.31501,0.83242 z m 3.67156,-11.49289 c 0.39524,-0.78321 0.75441,-1.52364 0.79817,-1.64539 0.0764,-0.21258 0.07,-0.21029 -0.16237,0.0577 -0.79716,0.91951 -1.67531,2.53153 -1.67088,3.06727 l 0.003,0.32116 0.15691,-0.18835 c 0.0863,-0.10359 0.48028,-0.82916 0.87552,-1.61237 z m 73.9599,1.11325 c -0.30313,-0.80299 -0.87353,-1.98158 -1.37153,-2.83396 -0.52872,-0.90496 -1.15173,-1.80887 -1.20797,-1.75263 -0.07,0.07 0.53897,1.50824 1.06833,2.52345 0.67838,1.30099 1.5741,2.70059 1.66815,2.60654 0.0192,-0.0192 -0.0514,-0.26375 -0.15698,-0.5434 z m -3.40184,-6.30864 c 3.1e-4,-0.11441 -1.69607,-1.79728 -2.23125,-2.21353 l -0.35739,-0.27797 0.19641,0.27734 c 0.28755,0.40604 2.17887,2.31382 2.29385,2.31382 0.054,0 0.0982,-0.0448 0.0984,-0.0997 z m -64.78053,-3.55523 c 1.07992,-1.02382 3.55069,-3.57903 3.96321,-4.09864 0.5331,-0.6715 -0.0185,-0.2105 -1.58621,1.32565 -1.5316,1.5008 -3.28369,3.35718 -3.59328,3.80719 -0.12579,0.18283 -0.125,0.18509 0.0242,0.0694 0.0848,-0.0658 0.62125,-0.5624 1.19211,-1.1036 z m 57.76423,-3.47146 c 0,-0.11813 -1.64536,-1.73865 -2.23556,-2.2018 l -0.35559,-0.27905 0.27905,0.35877 c 0.40813,0.52475 2.103,2.23238 2.21569,2.23238 0.053,0 0.0964,-0.0496 0.0964,-0.1103 z m -50.49883,-2.77058 c 1.12225,-0.59707 3.52546,-2.37243 3.30906,-2.44457 -0.29859,-0.0995 -2.56252,1.31015 -3.47723,2.16518 -0.62,0.57954 -0.56567,0.6698 0.16817,0.27939 z m 42.9204,-2.66492 c -0.30005,-0.3099 -1.37435,-1.06189 -2.06863,-1.44799 -0.83579,-0.4648 -1.84973,-0.74059 -1.38941,-0.37793 0.78243,0.61647 3.37008,2.109 3.65736,2.10955 0.0415,7e-5 -0.0482,-0.12756 -0.19932,-0.28363 z m -23.35594,-4.65217 c 0.59379,-0.10051 0.16412,-0.2065 -0.83715,-0.2065 -0.95528,0 -1.41907,0.10241 -0.91687,0.20246 0.3805,0.0758 1.3173,0.078 1.75402,0.004 z m 10.15929,-0.0772 c 0.0668,-0.10804 -0.3769,-0.16925 -1.21982,-0.16829 -0.85413,9.8e-4 -1.36534,0.0643 -1.36534,0.16901 0,0.091 2.52889,0.0903 2.58516,-7.2e-4 z"
       id="path838"
       inkscape:connector-curvature="0"
       transform="scale(0.26458333)" />
    <path
       style="fill:#9e2a97;fill-opacity:1;fill-rule:evenodd;stroke:#9e2a97;stroke-width:0.03013333;stroke-miterlimit:4;stroke-dasharray:none;stroke-dashoffset:0;stroke-opacity:1"
       d="m 374.44392,584.9252 c -0.63315,-0.67396 -0.77257,-2.74371 -0.70472,-10.462 0.064,-7.28421 0.22213,-13.0028 0.45406,-16.42392 0.18683,-2.75599 0.48394,-5.11479 0.63267,-5.02287 0.15875,0.0981 0.41137,2.45472 0.55629,5.18944 0.24971,4.71202 0.25105,16.29067 0.002,21.32007 -0.18266,3.69573 -0.40814,5.58094 -0.6675,5.58094 -0.0564,0 -0.17941,-0.0817 -0.27328,-0.18166 z"
       id="path840"
       inkscape:connector-curvature="0"
       transform="scale(0.26458333)" />
    <path
       style="fill:#9e2a97;fill-opacity:1;fill-rule:evenodd;stroke:#9e2a97;stroke-width:0.03013333;stroke-miterlimit:4;stroke-dasharray:none;stroke-dashoffset:0;stroke-opacity:1"
       d="m 358.6678,576.09831 c -0.46562,-0.23267 -1.04429,-0.73444 -1.42961,-1.23961 -0.3116,-0.40854 -1.61693,-2.70563 -1.55143,-2.73017 0.10776,-0.0404 2.53175,0.91888 3.21057,1.27053 0.41371,0.21431 0.84708,0.52325 1.15907,0.82624 0.47307,0.45944 0.4983,0.50307 0.4983,0.86178 0,1.13194 -0.7939,1.55741 -1.8869,1.01123 z"
       id="path842"
       inkscape:connector-curvature="0"
       transform="scale(0.26458333)" />
    <path
       style="fill:#9e2a97;fill-opacity:1;fill-rule:evenodd;stroke:#9e2a97;stroke-width:0.03013333;stroke-miterlimit:4;stroke-dasharray:none;stroke-dashoffset:0;stroke-opacity:1"
       d="m 390.67942,576.5373 c -0.62356,-0.22935 -1.21201,-0.72046 -1.34459,-1.1222 -0.25998,-0.78773 0.82934,-1.71037 2.50887,-2.125 0.77775,-0.192 1.05432,-0.1548 1.13136,0.15218 0.0797,0.3176 -0.26851,1.64573 -0.60055,2.29055 -0.4426,0.8595 -0.92412,1.08802 -1.69509,0.80447 z"
       id="path844"
       inkscape:connector-curvature="0"
       transform="scale(0.26458333)" />
  </g>
</svg>
