<?xml version="1.0" encoding="UTF-8" standalone="no"?>
<!-- Created with Inkscape (http://www.inkscape.org/) -->

<svg
   xmlns:dc="http://purl.org/dc/elements/1.1/"
   xmlns:cc="http://creativecommons.org/ns#"
   xmlns:rdf="http://www.w3.org/1999/02/22-rdf-syntax-ns#"
   xmlns:svg="http://www.w3.org/2000/svg"
   xmlns="http://www.w3.org/2000/svg"
   xmlns:sodipodi="http://sodipodi.sourceforge.net/DTD/sodipodi-0.dtd"
   xmlns:inkscape="http://www.inkscape.org/namespaces/inkscape"
   width="43.310032mm"
   height="17.997705mm"
   viewBox="0 0 43.310033 17.997705"
   version="1.1"
   id="svg8"
   inkscape:version="0.92.4 (5da689c313, 2019-01-14)"
   sodipodi:docname="anchorage_deepwater.svg">
  <defs
     id="defs2" />
  <sodipodi:namedview
     id="base"
     pagecolor="#ffffff"
     bordercolor="#666666"
     borderopacity="1.0"
     inkscape:pageopacity="0.0"
     inkscape:pageshadow="2"
     inkscape:zoom="6.4118557"
     inkscape:cx="93.905476"
     inkscape:cy="-45.314517"
     inkscape:document-units="mm"
     inkscape:current-layer="layer1"
     showgrid="false"
     inkscape:window-width="3840"
     inkscape:window-height="2104"
     inkscape:window-x="-16"
     inkscape:window-y="-16"
     inkscape:window-maximized="1" />
  <metadata
     id="metadata5">
    <rdf:RDF>
      <cc:Work
         rdf:about="">
        <dc:format>image/svg+xml</dc:format>
        <dc:type
           rdf:resource="http://purl.org/dc/dcmitype/StillImage" />
        <dc:title></dc:title>
      </cc:Work>
    </rdf:RDF>
  </metadata>
  <g
     inkscape:label="Calque 1"
     inkscape:groupmode="layer"
     id="layer1"
     transform="translate(-99.541341,-112.42057)">
    <path
       style="fill:#000000;stroke-width:0.26458335"
       d=""
       id="path826"
       inkscape:connector-curvature="0" />
    <path
       style="fill:#a53a9e;fill-opacity:1;stroke-width:0.26458332"
       d="m 134.18478,130.23946 c -0.10315,-0.10315 -0.18755,-0.44651 -0.18755,-0.76303 0,-0.4491 -0.24693,-0.64764 -1.12448,-0.90407 -0.61846,-0.18072 -1.73259,-0.66727 -2.47585,-1.0812 -1.2376,-0.68926 -1.38694,-0.71705 -1.77384,-0.33015 -0.3869,0.38689 -0.4921,0.272 -1.24965,-1.36468 -0.45496,-0.98293 -0.78084,-1.8335 -0.72418,-1.89016 0.0566,-0.0567 0.86993,0.118 1.80728,0.38812 1.16095,0.33456 1.67311,0.60661 1.60653,0.85337 -0.0538,0.19923 -0.11329,0.53766 -0.1323,0.75206 -0.0386,0.43528 2.24453,1.76184 3.27274,1.90155 l 0.66146,0.0899 0.0716,-5.35781 0.0716,-5.35781 h -0.93152 c -0.65163,0 -0.93152,-0.11925 -0.93152,-0.39688 0,-0.21828 0.10773,-0.39687 0.23941,-0.39687 0.13167,0 0.17463,-0.48289 0.0955,-1.07309 -0.33241,-2.47829 2.00548,-3.78643 3.90721,-2.18624 0.7779,0.65456 0.83363,0.80803 0.72059,1.98438 -0.0674,0.70122 -0.0209,1.27495 0.10324,1.27495 0.12416,0 0.22575,0.17859 0.22575,0.39687 0,0.27718 -0.27929,0.39688 -0.92604,0.39688 h -0.92605 v 5.429 5.42899 l 0.72761,-0.17054 c 0.40018,-0.0938 1.32291,-0.48578 2.05052,-0.87108 1.11474,-0.5903 1.31199,-0.80732 1.25348,-1.37911 -0.0631,-0.61643 0.0764,-0.72273 1.52305,-1.16074 0.87586,-0.26519 1.63912,-0.43332 1.69613,-0.37361 0.18149,0.19007 -1.24791,3.41584 -1.51363,3.41584 -0.14017,0 -0.40606,-0.20678 -0.59086,-0.45951 -0.31043,-0.42453 -0.37307,-0.42688 -0.82292,-0.0308 -0.67843,0.59729 -2.44055,1.44891 -3.4476,1.66621 -0.66214,0.14287 -0.86169,0.33512 -0.92604,0.89218 -0.0805,0.69667 -0.91265,1.11417 -1.34969,0.67713 z m 1.73068,-14.33581 c 0.95519,-0.82031 0.22283,-2.69687 -1.0525,-2.69687 -0.99129,0 -1.65948,0.71412 -1.65948,1.77357 0,0.76179 0.12988,0.95241 0.85728,1.25826 0.88535,0.37226 1.07003,0.33891 1.8547,-0.33496 z m -36.256087,12.45052 c 0.06492,-0.40018 0.403257,-2.36471 0.751867,-4.36562 l 0.63383,-3.63802 h 1.90048 c 1.7875,0 1.94025,0.0473 2.56943,0.795 1.21818,1.44773 1.15655,4.16769 -0.14249,6.28901 -0.76091,1.24256 -1.72785,1.64724 -3.9359,1.64724 h -1.895249 z m 3.888237,-0.71595 c 1.00154,-0.51791 1.68564,-2.04909 1.68564,-3.77286 0,-1.83358 -0.52801,-2.4565 -2.08222,-2.4565 h -1.13086 l -0.27297,1.38906 c -0.44487,2.26382 -0.82288,4.50428 -0.82288,4.87724 0,0.47668 1.67569,0.45309 2.62329,-0.0369 z m 4.4201,-0.47467 c -0.08,-1.05503 -0.20152,-3.01956 -0.26998,-4.36563 -0.1139,-2.23967 -0.0834,-2.44739 0.35921,-2.44739 0.68857,0 0.80488,0.50017 0.80488,3.46122 0,1.57307 0.10598,2.62419 0.26458,2.62419 0.14552,0 0.26458,-0.11668 0.26458,-0.25928 0,-0.14261 0.54855,-1.51183 1.21899,-3.04271 1.05971,-2.41972 1.30171,-2.78342 1.85208,-2.78342 0.61712,0 0.63389,0.0584 0.66441,2.3151 0.0567,4.19109 0.195,4.26353 1.58432,0.82956 0.97121,-2.40051 1.33396,-3.02955 1.78594,-3.09692 0.31195,-0.0465 0.56718,-0.0258 0.56718,0.046 0,0.0718 -0.63549,1.65765 -1.4122,3.52413 -0.77671,1.86648 -1.56506,3.78056 -1.75189,4.2535 -0.25043,0.63393 -0.50507,0.8599 -0.96905,0.8599 -0.59831,0 -0.6305,-0.0881 -0.65254,-1.78594 -0.0128,-0.98227 -0.10204,-2.38125 -0.19844,-3.10886 l -0.17525,-1.32291 -1.25677,2.85558 c -0.69123,1.57057 -1.25678,2.96955 -1.25678,3.10885 0,0.1393 -0.28749,0.25328 -0.63888,0.25328 -0.60333,0 -0.64698,-0.10676 -0.78439,-1.91823 z"
       id="path873"
       inkscape:connector-curvature="0" />
  </g>
</svg>
