<?xml version="1.0" encoding="UTF-8" standalone="no"?>
<!-- Created with Inkscape (http://www.inkscape.org/) -->

<svg
   xmlns:dc="http://purl.org/dc/elements/1.1/"
   xmlns:cc="http://creativecommons.org/ns#"
   xmlns:rdf="http://www.w3.org/1999/02/22-rdf-syntax-ns#"
   xmlns:svg="http://www.w3.org/2000/svg"
   xmlns="http://www.w3.org/2000/svg"
   xmlns:sodipodi="http://sodipodi.sourceforge.net/DTD/sodipodi-0.dtd"
   xmlns:inkscape="http://www.inkscape.org/namespaces/inkscape"
   width="62.015457mm"
   height="17.86964mm"
   viewBox="0 0 62.015459 17.86964"
   version="1.1"
   id="svg8"
   inkscape:version="0.92.4 (5da689c313, 2019-01-14)"
   sodipodi:docname="anchorage_tanker.svg">
  <defs
     id="defs2" />
  <sodipodi:namedview
     id="base"
     pagecolor="#ffffff"
     bordercolor="#666666"
     borderopacity="1.0"
     inkscape:pageopacity="0.0"
     inkscape:pageshadow="2"
     inkscape:zoom="6.4118557"
     inkscape:cx="103.6588"
     inkscape:cy="76.232934"
     inkscape:document-units="mm"
     inkscape:current-layer="layer1"
     showgrid="false"
     inkscape:window-width="3840"
     inkscape:window-height="2104"
     inkscape:window-x="-16"
     inkscape:window-y="-16"
     inkscape:window-maximized="1" />
  <metadata
     id="metadata5">
    <rdf:RDF>
      <cc:Work
         rdf:about="">
        <dc:format>image/svg+xml</dc:format>
        <dc:type
           rdf:resource="http://purl.org/dc/dcmitype/StillImage" />
        <dc:title></dc:title>
      </cc:Work>
    </rdf:RDF>
  </metadata>
  <g
     inkscape:label="Calque 1"
     inkscape:groupmode="layer"
     id="layer1"
     transform="translate(-96.960775,-144.70807)">
    <path
       style="fill:#000000;stroke-width:0.26458335"
       d=""
       id="path826"
       inkscape:connector-curvature="0" />
    <path
       style="fill:#ae4ea8;fill-opacity:1;stroke-width:0.26458335"
       d="m 150.06858,161.85012 c -0.003,-0.65079 -0.16123,-0.77768 -1.49625,-1.20184 -0.82094,-0.26082 -1.84669,-0.72635 -2.27946,-1.03451 -0.65821,-0.46868 -0.87199,-0.50711 -1.30764,-0.23504 -0.28643,0.17888 -0.55462,0.28722 -0.59596,0.24076 -0.13807,-0.15517 -1.72539,-3.37487 -1.72539,-3.49976 0,-0.14783 3.40222,0.77618 3.60517,0.97913 0.078,0.078 0.0133,0.38216 -0.1439,0.67586 -0.24222,0.45257 -0.16716,0.61845 0.49238,1.08808 0.42799,0.30475 1.19796,0.7295 1.71105,0.94388 1.81845,0.7598 1.74364,0.97581 1.74364,-5.03417 v -5.42396 h -0.92604 c -0.50933,0 -0.92605,-0.11906 -0.92605,-0.26458 0,-0.14552 0.12636,-0.26458 0.2808,-0.26458 0.18177,0 0.21943,-0.40921 0.10679,-1.16037 -0.21842,-1.45652 0.1599,-2.20332 1.37293,-2.71016 1.03293,-0.43159 1.79861,-0.29098 2.64887,0.48644 0.72213,0.66028 0.9565,1.56692 0.62824,2.43032 -0.16315,0.42912 -0.16331,0.72706 -5.3e-4,0.82772 0.50491,0.31206 0.23745,0.62333 -0.60542,0.7046 l -0.8598,0.0829 -0.0716,5.35781 -0.0716,5.35781 h 0.60471 c 0.56914,0 1.94225,-0.61831 3.32656,-1.49795 0.50114,-0.31844 0.55389,-0.46078 0.28902,-0.77992 -0.19168,-0.23096 -0.22592,-0.48058 -0.0838,-0.61124 0.33677,-0.30971 3.02525,-1.16085 3.17951,-1.00659 0.14924,0.14924 -1.2095,3.63112 -1.41698,3.63112 -0.0776,0 -0.28925,-0.20256 -0.47028,-0.45013 -0.30385,-0.41555 -0.44839,-0.38677 -1.88125,0.37455 -0.85366,0.45358 -1.99859,0.90751 -2.54429,1.00875 -0.87507,0.16233 -0.99219,0.27427 -0.99219,0.94836 0,0.67283 -0.095,0.7643 -0.79375,0.7643 -0.68864,0 -0.79423,-0.0964 -0.79739,-0.7276 z m 1.90103,-13.46862 c 0.96277,-0.87129 0.23853,-3.0017 -1.02044,-3.0017 -0.66463,0 -1.6707,1.06341 -1.6707,1.76592 0,1.3546 1.69817,2.13441 2.69114,1.23578 z m -50.05156,12.4251 c -0.97773,-0.34943 -1.38381,-1.88883 -0.79064,-2.9972 0.28284,-0.52847 1.75421,-1.04856 2.97345,-1.05104 0.59784,-0.001 0.72761,-0.11855 0.72761,-0.65789 0,-0.47275 -0.17819,-0.70114 -0.63682,-0.81625 -0.671,-0.16841 -1.74443,0.25509 -1.74443,0.68823 0,0.1404 -0.23813,0.25527 -0.52917,0.25527 -0.73966,0 -0.6598,-0.43923 0.24423,-1.34327 0.96689,-0.96688 2.08796,-1.0178 3.10717,-0.14111 l 0.73507,0.63228 -0.32344,1.88617 c -0.1779,1.03739 -0.32345,2.24115 -0.32345,2.67501 0,0.61245 -0.11832,0.78884 -0.52916,0.78884 -0.29104,0 -0.52917,-0.11299 -0.52917,-0.25109 0,-0.13809 -0.41289,-0.0786 -0.91754,0.1323 -0.50465,0.21085 -0.95114,0.37397 -0.99219,0.36248 -0.0411,-0.0115 -0.25324,-0.0847 -0.47152,-0.16273 z m 2.18407,-1.93305 0.46427,-0.92604 -0.78278,-0.082 c -1.06165,-0.11121 -1.86556,0.36519 -1.86556,1.10555 0,0.79873 0.23469,1.00173 1.04843,0.90683 0.46222,-0.0539 0.81599,-0.36677 1.13564,-1.00434 z m 14.19218,1.81925 c -1.82177,-0.6616 -1.71631,-4.52924 0.16383,-6.00816 1.5709,-1.23566 3.30367,-0.22447 3.30367,1.92793 v 1.20265 h -1.85208 c -1.69534,0 -1.85209,0.0463 -1.85209,0.54656 0,1.53351 1.17281,2.04848 2.0694,0.90865 0.55415,-0.70448 1.37019,-0.89154 1.37019,-0.31409 0,0.45363 -1.30706,1.67108 -1.98438,1.84833 -0.29104,0.0762 -0.83938,0.0258 -1.21854,-0.11187 z m 2.67375,-4.21789 c 0,-1.25764 -1.51484,-1.74416 -2.23395,-0.71748 -0.62361,0.89032 -0.52413,0.99946 0.91103,0.99946 0.75996,0 1.32292,-0.12 1.32292,-0.28198 z m -23.017948,4.05229 c 4.4e-4,-0.10914 0.225847,-1.38906 0.500903,-2.84427 0.275056,-1.45521 0.577748,-3.09232 0.672647,-3.63802 l 0.172544,-0.99219 h -1.054707 c -1.165375,0 -1.565325,-0.34842 -1.076319,-0.93763 0.235605,-0.28389 0.93223,-0.38529 2.646972,-0.38529 2.819418,0 3.257778,0.12461 2.885508,0.8202 -0.19488,0.36414 -0.55824,0.50272 -1.31807,0.50272 -0.57697,0 -1.04903,0.0651 -1.04903,0.14471 0,0.19652 -1.039197,6.1879 -1.202503,6.93289 -0.08178,0.3731 -0.326136,0.59532 -0.65462,0.59532 -0.288269,0 -0.523765,-0.0893 -0.523325,-0.19844 z m 8.479208,-0.39688 c 0.007,-0.32742 0.22096,-1.72578 0.4747,-3.10748 0.35386,-1.92679 0.56653,-2.53242 0.9127,-2.59908 0.24824,-0.0478 0.45134,0.0439 0.45134,0.20385 0,0.18581 0.2818,0.14506 0.78061,-0.11289 1.03094,-0.53312 1.42302,-0.50931 1.99346,0.12102 0.50829,0.56166 0.46625,1.87973 -0.15189,4.76201 -0.22796,1.06298 -0.39162,1.32789 -0.82033,1.32789 -0.35254,0 -0.48655,-0.12768 -0.39217,-0.37364 0.0789,-0.2055 0.29122,-1.33938 0.47191,-2.51973 0.38056,-2.48596 0.19217,-2.96938 -0.95368,-2.44729 -0.79878,0.36395 -1.09007,1.04667 -1.49645,3.50737 -0.24766,1.49968 -0.392,1.83329 -0.79315,1.83329 -0.33612,0 -0.48619,-0.18728 -0.47705,-0.59532 z m 5.62471,0 c 0.0766,-0.32742 0.40749,-2.26218 0.73543,-4.29947 0.32794,-2.0373 0.72371,-3.78851 0.87949,-3.89159 0.6051,-0.40041 0.76109,0.32568 0.46072,2.14448 -0.47535,2.87836 -0.43446,2.96004 0.77527,1.54867 0.59247,-0.69123 1.30607,-1.25677 1.58579,-1.25677 0.71977,0 0.6404,0.23956 -0.449,1.35521 l -0.95758,0.98065 0.67482,2.00707 0.67482,2.00707 h -0.61021 c -0.45387,0 -0.64764,-0.18642 -0.75632,-0.72761 -0.0804,-0.40018 -0.27687,-1.07074 -0.43667,-1.49012 -0.2827,-0.74188 -0.30482,-0.74962 -0.81702,-0.2861 -0.28954,0.26204 -0.59939,0.9326 -0.68854,1.49013 -0.12464,0.77944 -0.2832,1.0137 -0.68613,1.0137 -0.40829,0 -0.4933,-0.13149 -0.38487,-0.59532 z m 10.33111,0.1323 c 0.0714,-0.25467 0.33338,-1.63369 0.58217,-3.06451 0.31405,-1.80617 0.57829,-2.64982 0.86432,-2.75958 0.2266,-0.0869 0.46124,-0.0103 0.52144,0.17026 0.08,0.23998 0.24185,0.20854 0.60133,-0.11678 0.27062,-0.24491 0.68361,-0.37156 0.91815,-0.28155 0.61033,0.2342 0.36035,1.07541 -0.34965,1.17662 -0.79621,0.1135 -1.29705,0.93389 -1.64598,2.69617 -0.15809,0.79847 -0.34375,1.71965 -0.41257,2.04707 -0.0805,0.38289 -0.31851,0.59532 -0.66708,0.59532 -0.38921,0 -0.50536,-0.1305 -0.41213,-0.46302 z"
       id="path860"
       inkscape:connector-curvature="0" />
  </g>
</svg>
