<?xml version="1.0" encoding="UTF-8" standalone="no"?>
<svg
   xmlns:dc="http://purl.org/dc/elements/1.1/"
   xmlns:cc="http://creativecommons.org/ns#"
   xmlns:rdf="http://www.w3.org/1999/02/22-rdf-syntax-ns#"
   xmlns:svg="http://www.w3.org/2000/svg"
   xmlns="http://www.w3.org/2000/svg"
   xmlns:sodipodi="http://sodipodi.sourceforge.net/DTD/sodipodi-0.dtd"
   xmlns:inkscape="http://www.inkscape.org/namespaces/inkscape"
   version="1.0"
   width="320"
   height="320"
   id="svg2"
   sodipodi:docname="BarrelBuoy_Green_color.svg"
   inkscape:version="0.92.4 (5da689c313, 2019-01-14)">
  <metadata
     id="metadata11216">
    <rdf:RDF>
      <cc:Work
         rdf:about="">
        <dc:format>image/svg+xml</dc:format>
        <dc:type
           rdf:resource="http://purl.org/dc/dcmitype/StillImage" />
        <dc:title></dc:title>
      </cc:Work>
    </rdf:RDF>
  </metadata>
  <sodipodi:namedview
     pagecolor="#ffffff"
     bordercolor="#666666"
     borderopacity="1"
     objecttolerance="10"
     gridtolerance="10"
     guidetolerance="10"
     inkscape:pageopacity="0"
     inkscape:pageshadow="2"
     inkscape:window-width="4200"
     inkscape:window-height="2569"
     id="namedview11214"
     showgrid="false"
     inkscape:zoom="10.465032"
     inkscape:cx="175.59322"
     inkscape:cy="173.55932"
     inkscape:window-x="-16"
     inkscape:window-y="-16"
     inkscape:window-maximized="1"
     inkscape:current-layer="svg2" />
  <defs
     id="defs4" />
  <path
     d="M 156,118 C 150.4354,118 144.87744,118.16306 138.8125,118.5 C 129.51501,119.01653 121.88072,120.77268 116.5625,127.125 C 111.51725,133.15127 108.83687,142.4064 106.84375,157.1875 L 98.8125,157.1875 L 98.8125,162.84375 L 147.84375,162.84375 C 149.13107,168.3767 154.07702,172.49999 160,172.5 C 165.92495,172.5 170.87095,168.37948 172.15625,162.84375 L 213.625,162.84375 L 213.625,157.25 L 206.15625,157.25 C 204.13147,142.38849 201.18262,133.06849 195.875,127.0625 C 190.2898,120.7424 182.48141,119.01633 173.1875,118.5 C 167.12256,118.16306 161.5646,118 156,118 z M 125.625,128.46875 C 131.90929,137.62236 134.26765,144.97696 135.28125,157.1875 L 113.9375,157.1875 C 115.87967,143.5078 118.52328,135.7031 121.9375,131.625 C 123.03607,130.31282 124.24515,129.28294 125.625,128.46875 z M 160,152.5 C 164.14,152.5 167.5,155.86 167.5,160 C 167.5,164.14 164.14,167.5 160,167.5 C 155.86,167.5 152.5,164.14 152.5,160 C 152.5,155.86 155.86,152.5 160,152.5 z"
     id="path12402"
     style="fill:#00fa07;fill-opacity:1;fill-rule:evenodd;stroke:none" />
</svg>
