<?xml version="1.0" encoding="UTF-8" standalone="no"?>
<svg
   xmlns:dc="http://purl.org/dc/elements/1.1/"
   xmlns:cc="http://creativecommons.org/ns#"
   xmlns:rdf="http://www.w3.org/1999/02/22-rdf-syntax-ns#"
   xmlns:svg="http://www.w3.org/2000/svg"
   xmlns="http://www.w3.org/2000/svg"
   xmlns:sodipodi="http://sodipodi.sourceforge.net/DTD/sodipodi-0.dtd"
   xmlns:inkscape="http://www.inkscape.org/namespaces/inkscape"
   version="1.0"
   width="114.8125"
   height="106.99067"
   id="svg2"
   sodipodi:docname="BarrelSPP.svg"
   inkscape:version="0.92.4 (5da689c313, 2019-01-14)">
  <metadata
     id="metadata16051">
    <rdf:RDF>
      <cc:Work
         rdf:about="">
        <dc:format>image/svg+xml</dc:format>
        <dc:type
           rdf:resource="http://purl.org/dc/dcmitype/StillImage" />
        <dc:title></dc:title>
      </cc:Work>
    </rdf:RDF>
  </metadata>
  <sodipodi:namedview
     pagecolor="#ffffff"
     bordercolor="#666666"
     borderopacity="1"
     objecttolerance="10"
     gridtolerance="10"
     guidetolerance="10"
     inkscape:pageopacity="0"
     inkscape:pageshadow="2"
     inkscape:window-width="3840"
     inkscape:window-height="2104"
     id="namedview16049"
     showgrid="false"
     inkscape:zoom="12.02328"
     inkscape:cx="57.797669"
     inkscape:cy="29.449153"
     inkscape:window-x="-16"
     inkscape:window-y="-16"
     inkscape:window-maximized="1"
     inkscape:current-layer="svg2" />
  <defs
     id="defs4" />
  <path
     d="m 57.1875,52.490669 c -5.5646,0 -11.12256,0.16306 -17.1875,0.5 -9.29749,0.51653 -16.93178,2.27268 -22.25,8.625 -5.04525,6.02627 -7.72563,15.2814 -9.71875,30.0625 H 0 v 5.65625 h 49.03125 c 1.28732,5.532951 6.23327,9.656241 12.15625,9.656251 5.92495,0 10.87095,-4.12052 12.15625,-9.656251 h 41.46875 v -5.59375 h -7.46875 c -2.02478,-14.86151 -4.97363,-24.18151 -10.28125,-30.1875 -5.5852,-6.3201 -13.39359,-8.04617 -22.6875,-8.5625 -6.06494,-0.33694 -11.6229,-0.5 -17.1875,-0.5 z m 0,7 c 5.42719,0 10.85439,0.16899 16.8125,0.5 8.70609,0.48367 13.8977,1.7576 17.8125,6.1875 3.63181,4.10968 6.50281,11.87657 8.46875,25.53125 l -26.9375,-0.0312 c -1.2853,-5.53573 -6.2313,-9.65625 -12.15625,-9.65625 -5.92298,1e-5 -10.86893,4.1233 -12.15625,9.65625 H 43.5 c -1.03095,-12.57461 -3.69601,-21.46985 -9.8125,-31 1.95625,-0.33179 4.14041,-0.546 6.6875,-0.6875 5.95811,-0.33101 11.38531,-0.5 16.8125,-0.5 z m -30.375,3.46875 c 6.28429,9.15361 8.64265,16.50821 9.65625,28.71875 H 15.125 c 1.94217,-13.6797 4.58578,-21.4844 8,-25.5625 1.09857,-1.31218 2.30765,-2.34206 3.6875,-3.15625 z m 34.375,24.03125 c 4.14,0 7.5,3.36 7.5,7.5 0,4.14 -3.36,7.500001 -7.5,7.500001 -4.14,0 -7.5,-3.360001 -7.5,-7.500001 0,-4.14 3.36,-7.5 7.5,-7.5 z"
     id="path90440"
     style="fill:#000407;fill-opacity:1;fill-rule:evenodd;stroke:none"
     inkscape:connector-curvature="0" />
  <path
     style="fill:#f9fb00;fill-opacity:1;fill-rule:evenodd;stroke:#000000;stroke-width:0.31435081;stroke-miterlimit:4;stroke-dasharray:none;stroke-dashoffset:0;stroke-opacity:1"
     d="m 43.45635,90.819919 c -0.0322,-0.44601 -0.148,-1.5969 -0.25736,-2.55753 -1.20989,-10.6278 -3.87287,-18.62064 -8.88107,-26.65616 -0.29921,-0.48007 -0.5341,-0.88276 -0.52199,-0.89487 0.0533,-0.0533 2.46059,-0.35525 3.74936,-0.47031 2.85517,-0.25489 7.95126,-0.49457 13.59862,-0.63958 9.06989,-0.23288 22.70592,0.19861 28.07054,0.88825 5.6917,0.73169 9.21351,2.25041 12.06385,5.20234 3.35909,3.4788 5.82442,9.44195 7.6807,18.57807 0.42754,2.10427 1.25638,6.9285 1.25638,7.31274 0,0.0264 -6.03839,0.048 -13.41864,0.048 H 73.3781 l -0.14356,-0.51982 c -1.2366,-4.47771 -4.9274,-7.88994 -9.61483,-8.88914 -1.14369,-0.24379 -3.45525,-0.26849 -4.63464,-0.0495 -2.59877,0.48252 -5.08968,1.83184 -6.86695,3.71982 -1.48813,1.58084 -2.39088,3.22125 -3.10087,5.63469 -0.0237,0.0804 -0.64953,0.10396 -2.76648,0.10396 h -2.73589 z"
     id="path16596"
     inkscape:connector-curvature="0" />
  <path
     style="fill:#f9fb00;fill-opacity:1;fill-rule:evenodd;stroke:#000000;stroke-width:0.31435081;stroke-miterlimit:4;stroke-dasharray:none;stroke-dashoffset:0;stroke-opacity:1"
     d="m 15.24663,91.152609 c 0.0949,-0.81127 0.71015,-4.55448 1.01511,-6.17552 1.46092,-7.76572 3.41131,-13.66604 5.66093,-17.12548 1.10954,-1.70623 2.66093,-3.34533 4.08923,-4.32044 0.42551,-0.2905 0.78445,-0.51506 0.79764,-0.49903 0.0892,0.10827 1.27816,1.92265 1.7047,2.6013 1.86984,2.97502 3.63078,6.54032 4.70664,9.52936 1.58329,4.39885 2.48824,8.95331 3.16055,15.90664 l 0.0543,0.56141 h -10.6225 -10.6225 z"
     id="path16598"
     inkscape:connector-curvature="0" />
  <g
     id="g16649"
     transform="translate(19.11739,2.0960971e-6)">
    <g
       id="g14182"
       transform="matrix(3.0566173,-0.58761129,0.59836102,3.1125349,-355.31854,-248.71261)">
      <path
         style="color:#000000;font-style:normal;font-variant:normal;font-weight:normal;font-stretch:normal;font-size:medium;line-height:normal;font-family:sans-serif;font-variant-ligatures:normal;font-variant-position:normal;font-variant-caps:normal;font-variant-numeric:normal;font-variant-alternates:normal;font-feature-settings:normal;text-indent:0;text-align:start;text-decoration:none;text-decoration-line:none;text-decoration-style:solid;text-decoration-color:#000000;letter-spacing:normal;word-spacing:normal;text-transform:none;writing-mode:lr-tb;direction:ltr;text-orientation:mixed;dominant-baseline:auto;baseline-shift:baseline;text-anchor:start;white-space:normal;shape-padding:0;clip-rule:nonzero;display:inline;overflow:visible;visibility:visible;opacity:1;isolation:auto;mix-blend-mode:normal;color-interpolation:sRGB;color-interpolation-filters:linearRGB;solid-color:#000000;solid-opacity:1;vector-effect:none;fill:#fefd00;fill-opacity:1;fill-rule:nonzero;stroke:none;stroke-width:0.1;stroke-linecap:butt;stroke-linejoin:miter;stroke-miterlimit:4;stroke-dasharray:none;stroke-dashoffset:0;stroke-opacity:1;color-rendering:auto;image-rendering:auto;shape-rendering:auto;text-rendering:auto;enable-background:accumulate"
         d="m 104.99328,100.25673 -3.96602,2.6397 9.7495,14.65173 3.96635,-2.64163 z"
         id="path2050"
         inkscape:connector-curvature="0" />
      <path
         style="fill:none;stroke:#000000;stroke-width:1;stroke-linecap:butt;stroke-linejoin:miter;stroke-miterlimit:4;stroke-dasharray:none;stroke-opacity:1"
         d="m 99.590365,111.54764 2.588225,3.99906 5.19039,-2.92523 3.40778,4.92669"
         id="path5054"
         inkscape:connector-curvature="0" />
      <path
         style="fill:none;stroke:#000000;stroke-width:1;stroke-linecap:butt;stroke-linejoin:miter;stroke-miterlimit:4;stroke-dasharray:none;stroke-opacity:1"
         d="m 110.77676,117.54816 3.96635,-2.64163"
         id="path5056"
         inkscape:connector-curvature="0" />
      <g
         id="g12808">
        <path
           inkscape:connector-curvature="0"
           id="path2048"
           d="m 114.50974,101.89544 -14.919375,9.6522 2.588225,3.99906 14.919,-9.65029 z"
           style="color:#000000;font-style:normal;font-variant:normal;font-weight:normal;font-stretch:normal;font-size:medium;line-height:normal;font-family:sans-serif;font-variant-ligatures:normal;font-variant-position:normal;font-variant-caps:normal;font-variant-numeric:normal;font-variant-alternates:normal;font-feature-settings:normal;text-indent:0;text-align:start;text-decoration:none;text-decoration-line:none;text-decoration-style:solid;text-decoration-color:#000000;letter-spacing:normal;word-spacing:normal;text-transform:none;writing-mode:lr-tb;direction:ltr;text-orientation:mixed;dominant-baseline:auto;baseline-shift:baseline;text-anchor:start;white-space:normal;shape-padding:0;clip-rule:nonzero;display:inline;overflow:visible;visibility:visible;opacity:1;isolation:auto;mix-blend-mode:normal;color-interpolation:sRGB;color-interpolation-filters:linearRGB;solid-color:#000000;solid-opacity:1;vector-effect:none;fill:#fefd00;fill-opacity:1;fill-rule:nonzero;stroke:none;stroke-width:0.1;stroke-linecap:butt;stroke-linejoin:miter;stroke-miterlimit:4;stroke-dasharray:none;stroke-dashoffset:0;stroke-opacity:1;color-rendering:auto;image-rendering:auto;shape-rendering:auto;text-rendering:auto;enable-background:accumulate" />
        <path
           inkscape:connector-curvature="0"
           id="path5052"
           d="m 101.02726,102.89643 3.48476,5.33507 -4.921655,3.31614"
           style="fill:none;stroke:#000000;stroke-width:1;stroke-linecap:butt;stroke-linejoin:miter;stroke-miterlimit:4;stroke-dasharray:none;stroke-opacity:1" />
        <path
           inkscape:connector-curvature="0"
           id="path5058"
           d="m 114.74311,114.90653 -3.64614,-5.21171 6.00062,-3.79841"
           style="fill:none;stroke:#000000;stroke-width:1;stroke-linecap:butt;stroke-linejoin:miter;stroke-miterlimit:4;stroke-dasharray:none;stroke-opacity:1" />
        <path
           inkscape:connector-curvature="0"
           id="path5060"
           d="m 117.09759,105.89641 -2.58785,-4.00097"
           style="fill:none;stroke:#000000;stroke-width:1;stroke-linecap:butt;stroke-linejoin:miter;stroke-miterlimit:4;stroke-dasharray:none;stroke-opacity:1" />
        <path
           inkscape:connector-curvature="0"
           id="path5062"
           d="m 114.50974,101.89544 -5.99101,3.82751 -3.52545,-5.46622"
           style="fill:none;stroke:#000000;stroke-width:1;stroke-linecap:butt;stroke-linejoin:miter;stroke-miterlimit:4;stroke-dasharray:none;stroke-opacity:1" />
        <path
           inkscape:connector-curvature="0"
           id="path5064"
           d="m 104.99328,100.25673 -3.96602,2.6397"
           style="fill:none;stroke:#000000;stroke-width:1;stroke-linecap:butt;stroke-linejoin:miter;stroke-miterlimit:4;stroke-dasharray:none;stroke-opacity:1" />
      </g>
    </g>
    <g
       id="g16616">
      <path
         style="fill:#fffd01;fill-opacity:1;fill-rule:evenodd;stroke:#000000;stroke-width:0.02611629;stroke-miterlimit:4;stroke-dasharray:none;stroke-dashoffset:0;stroke-opacity:1"
         d="m 47.37703,42.976722 c -3.51516,-3.705781 -6.43526,-6.78903 -6.48912,-6.851638 -0.0657,-0.07637 -2.40866,2.260029 -7.12067,7.100728 -3.86252,3.96803 -7.06618,7.20689 -7.11924,7.19749 -0.053,-0.009 -2.1267,-2.28289 -4.60808,-5.05218 -3.43407,-3.83254 -4.48864,-5.069703 -4.41546,-5.180044 0.0529,-0.07982 3.15193,-3.402908 6.88676,-7.384851 3.73483,-3.981935 6.8031,-7.255045 6.81839,-7.273574 0.0153,-0.01861 -3.04388,-3.435637 -6.79815,-7.593563 -3.75428,-4.157922 -6.86407,-7.624657 -6.91065,-7.703857 -0.0466,-0.07923 -0.0155,-0.213467 0.0692,-0.2983979 0.0847,-0.08491 1.89805,-1.985394 4.02969,-4.223258 l 3.87574,-4.068837 6.94407,7.776117 c 3.81926,4.2768549 6.99936,7.7874729 7.06692,7.8013279 0.0675,0.0139 3.62856,-3.537031 7.91333,-7.8909029 5.63456,-5.725426 7.81938,-7.881489 7.89493,-7.790963 0.0574,0.06889 1.86482,2.088687 4.01641,4.488542 2.9965,3.342293 3.88953,4.3979149 3.81621,4.5109899 -0.0527,0.08121 -3.53543,3.604512 -7.73947,7.829639 -4.20404,4.225117 -7.69263,7.752664 -7.75243,7.838985 -0.0885,0.12771 1.21818,1.538449 7.01845,7.577503 3.91996,4.081304 7.11388,7.438624 7.0976,7.460694 -0.12911,0.17504 -7.91081,8.35579 -7.99464,8.4046 -0.0597,0.0348 -2.98467,-2.96877 -6.49983,-6.67455 z"
         id="path14255"
         inkscape:connector-curvature="0" />
    </g>
  </g>
</svg>
