<?xml version="1.0" encoding="UTF-8" standalone="no"?>
<svg
   xmlns:dc="http://purl.org/dc/elements/1.1/"
   xmlns:cc="http://creativecommons.org/ns#"
   xmlns:rdf="http://www.w3.org/1999/02/22-rdf-syntax-ns#"
   xmlns:svg="http://www.w3.org/2000/svg"
   xmlns="http://www.w3.org/2000/svg"
   xmlns:sodipodi="http://sodipodi.sourceforge.net/DTD/sodipodi-0.dtd"
   xmlns:inkscape="http://www.inkscape.org/namespaces/inkscape"
   version="1.0"
   width="72.3125"
   height="164.5305"
   id="svg2"
   sodipodi:docname="BeaconTower_BY.svg"
   inkscape:version="0.92.4 (5da689c313, 2019-01-14)">
  <metadata
     id="metadata18873">
    <rdf:RDF>
      <cc:Work
         rdf:about="">
        <dc:format>image/svg+xml</dc:format>
        <dc:type
           rdf:resource="http://purl.org/dc/dcmitype/StillImage" />
        <dc:title></dc:title>
      </cc:Work>
    </rdf:RDF>
  </metadata>
  <sodipodi:namedview
     pagecolor="#ffffff"
     bordercolor="#666666"
     borderopacity="1"
     objecttolerance="10"
     gridtolerance="10"
     guidetolerance="10"
     inkscape:pageopacity="0"
     inkscape:pageshadow="2"
     inkscape:window-width="3840"
     inkscape:window-height="2104"
     id="namedview18871"
     showgrid="false"
     inkscape:zoom="9.2291373"
     inkscape:cx="-6.0733697"
     inkscape:cy="72.634503"
     inkscape:window-x="-16"
     inkscape:window-y="-16"
     inkscape:window-maximized="1"
     inkscape:current-layer="svg2" />
  <defs
     id="defs4" />
  <path
     d="m 12.78125,78.343 -4.625,70.875 H 0 v 5.65625 h 24 c 1.28732,5.53295 6.23327,9.65624 12.15625,9.65625 5.92495,0 10.87095,-4.12052 12.15625,-9.65625 h 24 V 149.218 H 64.15625 L 59.1875,78.343 Z M 19.5,85.43675 H 52.8125 L 57.40625,149.218 H 48.3125 c -1.2853,-5.53573 -6.2313,-9.65625 -12.15625,-9.65625 -5.92298,1e-5 -10.86893,4.1233 -12.15625,9.65625 h -9.09375 z m 16.65625,59.09375 c 4.14,0 7.5,3.36 7.5,7.5 0,4.14 -3.36,7.5 -7.5,7.5 -4.14,0 -7.5,-3.36 -7.5,-7.5 0,-4.14 3.36,-7.5 7.5,-7.5 z"
     id="path2558"
     style="fill:#000407;fill-opacity:1;fill-rule:evenodd;stroke:none"
     inkscape:connector-curvature="0" />
  <path
     style="fill:none;stroke:#000000;stroke-width:1px;stroke-linecap:butt;stroke-linejoin:miter;stroke-opacity:1"
     d="m 14.952644,116.53035 40.52383,-0.65012"
     id="path20645"
     inkscape:connector-curvature="0" />
  <path
     style="fill:#010100;fill-opacity:1;fill-rule:evenodd;stroke:#000000;stroke-width:0.40952122;stroke-miterlimit:4;stroke-dasharray:none;stroke-dashoffset:0;stroke-opacity:1"
     d="m 17.379996,115.40923 c 0.08237,-0.72621 2.117822,-29.134734 2.117822,-29.558122 v -0.31787 h 16.623483 16.623482 l 0.06617,0.677203 c 0.0364,0.372462 0.501892,6.79641 1.034435,14.275439 0.532543,7.47903 0.995997,13.8728 1.029896,14.20837 l 0.06164,0.61012 -2.793997,0.0702 c -1.536699,0.0386 -9.083859,0.16434 -16.771469,0.27939 -7.687609,0.11504 -14.895079,0.23454 -16.016601,0.26554 l -2.03913,0.0564 z"
     id="path20647"
     inkscape:connector-curvature="0" />
  <path
     style="fill:#fdff00;fill-opacity:1;fill-rule:evenodd;stroke:#000000;stroke-width:0.40952122;stroke-miterlimit:4;stroke-dasharray:none;stroke-dashoffset:0;stroke-opacity:1"
     d="m 14.983217,148.67685 c 0.03364,-0.25393 0.561628,-7.46576 1.173301,-16.02627 l 1.112131,-15.56458 2.171021,-0.0654 c 2.142497,-0.0646 35.533437,-0.59817 35.554405,-0.56817 0.01893,0.0271 2.324348,32.29622 2.321495,32.49414 -0.0026,0.17749 -0.28934,0.18962 -4.48266,0.18962 h -4.479928 l -0.23309,-0.8022 c -0.1282,-0.44122 -0.48003,-1.29548 -0.781846,-1.89836 -2.565595,-5.12487 -8.263997,-7.84894 -13.856764,-6.62411 -4.31094,0.94411 -7.787308,4.07956 -9.206735,8.30385 l -0.324807,0.96664 -4.513846,0.0283 -4.513846,0.0283 z"
     id="path20649"
     inkscape:connector-curvature="0" />
  <path
     sodipodi:type="star"
     style="fill:#010200;fill-opacity:1;fill-rule:evenodd;stroke:#000000;stroke-width:3.77952766;stroke-miterlimit:4;stroke-dasharray:none;stroke-dashoffset:0;stroke-opacity:1"
     id="path20651"
     sodipodi:sides="3"
     sodipodi:cx="35.864674"
     sodipodi:cy="62.029045"
     sodipodi:r1="21.409422"
     sodipodi:r2="10.70471"
     sodipodi:arg1="0.52479577"
     sodipodi:arg2="1.5719933"
     inkscape:flatsided="false"
     inkscape:rounded="0"
     inkscape:randomized="0"
     d="m 54.39295,72.755942 -18.54109,-0.0222 -18.54109,-0.02219 9.289766,-16.045958 9.289765,-16.045958 9.251323,16.068152 z"
     inkscape:transform-center-x="0.012813493"
     inkscape:transform-center-y="-5.3412546" />
  <path
     sodipodi:type="star"
     style="fill:#010200;fill-opacity:1;fill-rule:evenodd;stroke:#000000;stroke-width:3.77952766;stroke-miterlimit:4;stroke-dasharray:none;stroke-dashoffset:0;stroke-opacity:1"
     id="path20651-1"
     sodipodi:sides="3"
     sodipodi:cx="36.096455"
     sodipodi:cy="25.188932"
     sodipodi:r1="21.409422"
     sodipodi:r2="10.70471"
     sodipodi:arg1="0.52479577"
     sodipodi:arg2="1.5719933"
     inkscape:flatsided="false"
     inkscape:rounded="0"
     inkscape:randomized="0"
     d="m 54.624731,35.915829 -18.54109,-0.02219 -18.54109,-0.02219 9.289766,-16.045957 9.289765,-16.0459592 9.251323,16.0681522 z"
     inkscape:transform-center-x="0.012813493"
     inkscape:transform-center-y="-5.3412546" />
</svg>
