<?xml version="1.0" encoding="UTF-8" standalone="no"?>
<svg
   xmlns:dc="http://purl.org/dc/elements/1.1/"
   xmlns:cc="http://creativecommons.org/ns#"
   xmlns:rdf="http://www.w3.org/1999/02/22-rdf-syntax-ns#"
   xmlns:svg="http://www.w3.org/2000/svg"
   xmlns="http://www.w3.org/2000/svg"
   xmlns:sodipodi="http://sodipodi.sourceforge.net/DTD/sodipodi-0.dtd"
   xmlns:inkscape="http://www.inkscape.org/namespaces/inkscape"
   version="1.0"
   width="72.3125"
   height="86.1875"
   id="svg2"
   sodipodi:docname="BeaconSAW.svg"
   inkscape:version="0.92.4 (5da689c313, 2019-01-14)">
  <metadata
     id="metadata18873">
    <rdf:RDF>
      <cc:Work
         rdf:about="">
        <dc:format>image/svg+xml</dc:format>
        <dc:type
           rdf:resource="http://purl.org/dc/dcmitype/StillImage" />
        <dc:title></dc:title>
      </cc:Work>
    </rdf:RDF>
  </metadata>
  <sodipodi:namedview
     pagecolor="#ffffff"
     bordercolor="#666666"
     borderopacity="1"
     objecttolerance="10"
     gridtolerance="10"
     guidetolerance="10"
     inkscape:pageopacity="0"
     inkscape:pageshadow="2"
     inkscape:window-width="4200"
     inkscape:window-height="2569"
     id="namedview18871"
     showgrid="false"
     inkscape:zoom="9.2291373"
     inkscape:cx="-8.1862433"
     inkscape:cy="43.717691"
     inkscape:window-x="-16"
     inkscape:window-y="-16"
     inkscape:window-maximized="1"
     inkscape:current-layer="svg2" />
  <defs
     id="defs4" />
  <path
     d="m 12.78125,0 -4.625,70.875 H 0 v 5.65625 h 24 c 1.28732,5.53295 6.23327,9.65624 12.15625,9.65625 5.92495,0 10.87095,-4.12052 12.15625,-9.65625 h 24 V 70.875 H 64.15625 L 59.1875,0 Z M 19.5,7.09375 H 52.8125 L 57.40625,70.875 H 48.3125 C 47.0272,65.33927 42.0812,61.21875 36.15625,61.21875 30.23327,61.21876 25.28732,65.34205 24,70.875 H 14.90625 Z M 36.15625,66.1875 c 4.14,0 7.5,3.36 7.5,7.5 0,4.14 -3.36,7.5 -7.5,7.5 -4.14,0 -7.5,-3.36 -7.5,-7.5 0,-4.14 3.36,-7.5 7.5,-7.5 z"
     id="path2558"
     style="fill:#000407;fill-opacity:1;fill-rule:evenodd;stroke:none"
     inkscape:connector-curvature="0" />
  <path
     style="fill:#f40000;stroke:#f80000;stroke-width:11.2;stroke-linecap:butt;stroke-linejoin:miter;stroke-opacity:1;fill-opacity:1;stroke-miterlimit:4;stroke-dasharray:none"
     d="M 16.686283,7.7402978 11.702069,71.018152"
     id="path1382"
     inkscape:connector-curvature="0" />
  <path
     style="fill:#f40000;fill-opacity:1;stroke:#f80000;stroke-width:11.19999981;stroke-linecap:butt;stroke-linejoin:miter;stroke-miterlimit:4;stroke-dasharray:none;stroke-opacity:1"
     d="m 55.002207,7.6351904 5.06593,63.2713636"
     id="path1382-3"
     inkscape:connector-curvature="0" />
  <path
     style="fill:#f40000;fill-opacity:1;stroke:#f80000;stroke-width:6.848;stroke-linecap:butt;stroke-linejoin:miter;stroke-miterlimit:4;stroke-dasharray:none;stroke-opacity:1"
     d="M 31.126036,7.2629161 28.251124,63.498905"
     id="path1382-32"
     inkscape:connector-curvature="0" />
  <path
     style="fill:#f40000;fill-opacity:1;stroke:#f80000;stroke-width:5.64799976;stroke-linecap:butt;stroke-linejoin:miter;stroke-miterlimit:4;stroke-dasharray:none;stroke-opacity:1"
     d="M 42.518466,6.9271307 42.863296,63.16312"
     id="path1382-32-7"
     inkscape:connector-curvature="0" />
</svg>
