<?xml version="1.0" encoding="UTF-8" standalone="no"?>
<!-- Created with Inkscape (http://www.inkscape.org/) -->

<svg
   xmlns:dc="http://purl.org/dc/elements/1.1/"
   xmlns:cc="http://creativecommons.org/ns#"
   xmlns:rdf="http://www.w3.org/1999/02/22-rdf-syntax-ns#"
   xmlns:svg="http://www.w3.org/2000/svg"
   xmlns="http://www.w3.org/2000/svg"
   xmlns:sodipodi="http://sodipodi.sourceforge.net/DTD/sodipodi-0.dtd"
   xmlns:inkscape="http://www.inkscape.org/namespaces/inkscape"
   width="12.682198mm"
   height="9.487565mm"
   viewBox="0 0 12.682198 9.487565"
   version="1.1"
   id="svg8"
   inkscape:version="0.92.4 (5da689c313, 2019-01-14)"
   sodipodi:docname="benchmark.svg">
  <defs
     id="defs2" />
  <sodipodi:namedview
     id="base"
     pagecolor="#ffffff"
     bordercolor="#666666"
     borderopacity="1.0"
     inkscape:pageopacity="0.0"
     inkscape:pageshadow="2"
     inkscape:zoom="10.749315"
     inkscape:cx="30.329487"
     inkscape:cy="22.428559"
     inkscape:document-units="mm"
     inkscape:current-layer="layer1"
     showgrid="false"
     inkscape:window-width="4200"
     inkscape:window-height="2569"
     inkscape:window-x="-16"
     inkscape:window-y="-16"
     inkscape:window-maximized="1" />
  <metadata
     id="metadata5">
    <rdf:RDF>
      <cc:Work
         rdf:about="">
        <dc:format>image/svg+xml</dc:format>
        <dc:type
           rdf:resource="http://purl.org/dc/dcmitype/StillImage" />
        <dc:title></dc:title>
      </cc:Work>
    </rdf:RDF>
  </metadata>
  <g
     inkscape:label="Calque 1"
     inkscape:groupmode="layer"
     id="layer1"
     transform="translate(215.15563,-144.90201)">
    <path
       style="fill:#000000;stroke-width:0.26458332"
       d="m -208.92635,150.46492 c 0,-2.15855 -0.0833,-4.00801 -0.18524,-4.10989 -0.10188,-0.10188 -1.45614,1.08173 -3.00947,2.63024 -1.89249,1.88663 -2.88978,2.70943 -3.02291,2.49403 -0.12708,-0.20562 0.78888,-1.31238 2.54173,-3.07122 l 2.7404,-2.74975 h -2.31038 c -1.89021,0 -2.31038,-0.0731 -2.31038,-0.40194 0,-0.34951 0.75936,-0.39265 5.82116,-0.33073 3.65483,0.0447 5.82206,0.16967 5.82359,0.33579 0.001,0.14614 -1.02348,0.32381 -2.28926,0.39688 l -2.29168,0.13229 2.5931,2.72531 c 1.73827,1.82689 2.50539,2.81301 2.32705,2.99136 -0.17835,0.17834 -1.13746,-0.6535 -2.90942,-2.52336 -1.45386,-1.53417 -2.72117,-2.71161 -2.81625,-2.61653 -0.0951,0.0951 -0.17287,1.93897 -0.17287,4.09752 0,2.44005 -0.10009,3.92466 -0.26458,3.92466 -0.1645,0 -0.26459,-1.48461 -0.26459,-3.92466 z"
       id="path826"
       inkscape:connector-curvature="0" />
  </g>
</svg>
