<?xml version="1.0" encoding="UTF-8" standalone="no"?>
<!-- Created with Inkscape (http://www.inkscape.org/) -->

<svg
   xmlns:dc="http://purl.org/dc/elements/1.1/"
   xmlns:cc="http://creativecommons.org/ns#"
   xmlns:rdf="http://www.w3.org/1999/02/22-rdf-syntax-ns#"
   xmlns:svg="http://www.w3.org/2000/svg"
   xmlns="http://www.w3.org/2000/svg"
   xmlns:sodipodi="http://sodipodi.sourceforge.net/DTD/sodipodi-0.dtd"
   xmlns:inkscape="http://www.inkscape.org/namespaces/inkscape"
   width="12.03854mm"
   height="11.335212mm"
   viewBox="0 0 12.03854 11.335212"
   version="1.1"
   id="svg8"
   inkscape:version="0.92.4 (5da689c313, 2019-01-14)"
   sodipodi:docname="bird.svg">
  <defs
     id="defs2" />
  <sodipodi:namedview
     id="base"
     pagecolor="#ffffff"
     bordercolor="#666666"
     borderopacity="1.0"
     inkscape:pageopacity="0.0"
     inkscape:pageshadow="2"
     inkscape:zoom="19.546003"
     inkscape:cx="9.9547074"
     inkscape:cy="24.085429"
     inkscape:document-units="mm"
     inkscape:current-layer="layer1"
     showgrid="false"
     inkscape:window-width="3840"
     inkscape:window-height="2104"
     inkscape:window-x="-16"
     inkscape:window-y="-16"
     inkscape:window-maximized="1" />
  <metadata
     id="metadata5">
    <rdf:RDF>
      <cc:Work
         rdf:about="">
        <dc:format>image/svg+xml</dc:format>
        <dc:type
           rdf:resource="http://purl.org/dc/dcmitype/StillImage" />
        <dc:title></dc:title>
      </cc:Work>
    </rdf:RDF>
  </metadata>
  <g
     inkscape:label="Calque 1"
     inkscape:groupmode="layer"
     id="layer1"
     transform="translate(-112.10233,-122.93307)">
    <path
       style="fill:#633490;fill-opacity:1;stroke-width:0.26458332"
       d="m 119.24608,132.81351 v -1.45521 l -0.99218,-0.003 c -0.54571,-0.001 -1.5875,-0.28299 -2.31511,-0.6257 -1.33351,-0.6281 -3.83646,-2.64951 -3.83646,-3.09836 0,-0.13315 0.59757,-0.2421 1.32792,-0.2421 0.97002,0 1.73085,-0.21501 2.82294,-0.79779 0.82226,-0.43878 1.95378,-0.87114 2.51449,-0.9608 0.95855,-0.15328 1.01597,-0.21483 0.96107,-1.03014 -0.0776,-1.15255 0.45496,-1.75699 1.4596,-1.65655 0.5538,0.0554 0.92369,0.30846 1.21316,0.83006 0.22905,0.41272 0.7141,0.92095 1.0779,1.1294 l 0.66146,0.37901 -0.92604,-0.0711 c -1.25991,-0.0967 -1.3849,0.70768 -0.27517,1.77087 1.39074,1.33241 0.89038,2.98994 -1.23175,4.08044 -0.44736,0.22988 -0.60365,0.58701 -0.67991,1.55368 l -0.099,1.25519 -0.0477,-1.25678 c -0.0404,-1.06448 -0.12865,-1.25677 -0.57685,-1.25677 -0.46503,0 -0.52917,0.17639 -0.52917,1.45521 0,0.80037 -0.11906,1.45521 -0.26458,1.45521 -0.14553,0 -0.26459,-0.65484 -0.26459,-1.45521 z"
       id="path826"
       inkscape:connector-curvature="0" />
  </g>
</svg>
