<?xml version="1.0" encoding="UTF-8" standalone="no"?>
<!-- Created with Inkscape (http://www.inkscape.org/) -->

<svg
   xmlns:dc="http://purl.org/dc/elements/1.1/"
   xmlns:cc="http://creativecommons.org/ns#"
   xmlns:rdf="http://www.w3.org/1999/02/22-rdf-syntax-ns#"
   xmlns:svg="http://www.w3.org/2000/svg"
   xmlns="http://www.w3.org/2000/svg"
   xmlns:sodipodi="http://sodipodi.sourceforge.net/DTD/sodipodi-0.dtd"
   xmlns:inkscape="http://www.inkscape.org/namespaces/inkscape"
   width="11.906247mm"
   height="9.2893152mm"
   viewBox="0 0 11.906247 9.2893149"
   version="1.1"
   id="svg8"
   inkscape:version="0.92.4 (5da689c313, 2019-01-14)"
   sodipodi:docname="boulder.svg">
  <defs
     id="defs2" />
  <sodipodi:namedview
     id="base"
     pagecolor="#ffffff"
     bordercolor="#666666"
     borderopacity="1.0"
     inkscape:pageopacity="0.0"
     inkscape:pageshadow="2"
     inkscape:zoom="4.2879781"
     inkscape:cx="32.824915"
     inkscape:cy="22.866685"
     inkscape:document-units="mm"
     inkscape:current-layer="layer1"
     showgrid="false"
     inkscape:window-width="3840"
     inkscape:window-height="2104"
     inkscape:window-x="4184"
     inkscape:window-y="-16"
     inkscape:window-maximized="1" />
  <metadata
     id="metadata5">
    <rdf:RDF>
      <cc:Work
         rdf:about="">
        <dc:format>image/svg+xml</dc:format>
        <dc:type
           rdf:resource="http://purl.org/dc/dcmitype/StillImage" />
        <dc:title></dc:title>
      </cc:Work>
    </rdf:RDF>
  </metadata>
  <g
     inkscape:label="Calque 1"
     inkscape:groupmode="layer"
     id="layer1"
     transform="translate(-99.794243,-148.23999)">
    <path
       style="fill:#000000;stroke-width:0.26458335"
       d="m 99.794243,157.00014 c 0,-0.45932 0.183352,-0.53192 1.389067,-0.55005 1.19764,-0.018 1.29431,-0.0557 0.70151,-0.27328 -0.96311,-0.35355 -1.39955,-1.25328 -1.05173,-2.16813 0.71404,-1.87807 4.25282,-1.36315 4.25282,0.61882 0,0.84938 -0.47638,1.30569 -1.65528,1.58556 -0.5964,0.14158 -0.051,0.20956 1.78757,0.22278 2.10024,0.0151 2.53672,-0.0428 2.11667,-0.28103 -0.71869,-0.40754 -0.91722,-0.74838 -0.92199,-1.58286 -0.0101,-1.77161 3.34196,-2.52232 4.22072,-0.94525 0.364,0.65325 0.36406,0.80158 5.6e-4,1.45138 -0.22268,0.39808 -0.69893,0.87258 -1.05833,1.05444 -0.6042,0.30573 -0.54876,0.33095 0.7356,0.33455 1.21137,0.003 1.38906,0.0716 1.38906,0.53307 0,0.51349 -0.17639,0.52917 -5.95312,0.52917 -5.776738,0 -5.953127,-0.0157 -5.953127,-0.52917 z m 4.630207,-2.39049 c 0,-1.31875 -2.38931,-1.74081 -3.03412,-0.53597 -0.37124,0.69366 -0.0995,1.26288 0.74177,1.5537 1.03526,0.35789 2.29235,-0.20022 2.29235,-1.01773 z m 5.25599,0.78379 c 0.84819,-0.66719 0.89325,-1.40093 0.11933,-1.94301 -1.04429,-0.73144 -2.86178,0.12611 -2.86178,1.35029 0,1.11414 1.63133,1.46672 2.74245,0.59272 z m -8.92447,-3.70417 c -0.911331,-0.71685 -0.931481,-1.88718 -0.0477,-2.77095 1.71349,-1.71349 4.82573,0.11537 3.74682,2.20175 -0.22436,0.43388 -0.60067,0.86282 -0.83623,0.95322 -0.85794,0.32922 -2.18192,0.15163 -2.86288,-0.38402 z m 3.00702,-0.50996 c 0.6696,-0.6696 0.6696,-1.18249 0,-1.85209 -0.64699,-0.64699 -2.02542,-0.69375 -2.69114,-0.0913 -0.59226,0.53598 -0.61419,1.11037 -0.072,1.8845 0.53844,0.76873 2.02166,0.80033 2.76312,0.0589 z m 3.23709,0.133 c -0.97357,-0.42309 -1.2486,-0.90918 -1.02301,-1.80803 0.32268,-1.28563 2.80981,-1.66792 4.02894,-0.61928 0.95125,0.81824 0.73671,1.79616 -0.52545,2.39509 -1.08547,0.51509 -1.3611,0.51867 -2.48048,0.0322 z m 2.73888,-0.95199 c 0.49446,-0.54637 0.49271,-0.56171 -0.1206,-1.05833 -1.49148,-1.20773 -4.18754,-2.7e-4 -2.89203,1.29523 0.54097,0.54097 2.4441,0.39132 3.01263,-0.2369 z"
       id="path910"
       inkscape:connector-curvature="0" />
  </g>
</svg>
