<?xml version="1.0" encoding="UTF-8" standalone="no"?>
<svg
   xmlns:dc="http://purl.org/dc/elements/1.1/"
   xmlns:cc="http://creativecommons.org/ns#"
   xmlns:rdf="http://www.w3.org/1999/02/22-rdf-syntax-ns#"
   xmlns:svg="http://www.w3.org/2000/svg"
   xmlns="http://www.w3.org/2000/svg"
   xmlns:sodipodi="http://sodipodi.sourceforge.net/DTD/sodipodi-0.dtd"
   xmlns:inkscape="http://www.inkscape.org/namespaces/inkscape"
   version="1.1"
   x="0px"
   y="0px"
   viewBox="0 0 176.43386 49.949805"
   enable-background="new 0 0 100 90"
   xml:space="preserve"
   id="svg11311"
   sodipodi:docname="breakers.svg"
   width="176.43385"
   height="49.949806"
   inkscape:version="0.92.4 (5da689c313, 2019-01-14)"><metadata
     id="metadata11317"><rdf:RDF><cc:Work
         rdf:about=""><dc:format>image/svg+xml</dc:format><dc:type
           rdf:resource="http://purl.org/dc/dcmitype/StillImage" /><dc:title></dc:title></cc:Work></rdf:RDF></metadata><defs
     id="defs11315" /><sodipodi:namedview
     pagecolor="#ffffff"
     bordercolor="#666666"
     borderopacity="1"
     objecttolerance="10"
     gridtolerance="10"
     guidetolerance="10"
     inkscape:pageopacity="0"
     inkscape:pageshadow="2"
     inkscape:window-width="4200"
     inkscape:window-height="2569"
     id="namedview11313"
     showgrid="false"
     inkscape:zoom="7.465425"
     inkscape:cx="61.850543"
     inkscape:cy="-53.411028"
     inkscape:window-x="-16"
     inkscape:window-y="-16"
     inkscape:window-maximized="1"
     inkscape:current-layer="svg11311" /><path
     style="fill:#000000"
     d="m 67.558096,49.379246 c -2.462675,-2.46268 0.837051,-6.97435 4.297575,-5.87602 3.188799,1.01208 2.376181,5.89341 -1.047575,6.29268 -1.395583,0.16275 -2.858083,-0.0248 -3.25,-0.41666 z m 69.671464,-0.82083 c -1.06518,-2.77583 0.0723,-5.05841 2.52067,-5.05841 3.15441,0 4.9413,2.77569 3.16486,4.91617 -1.64171,1.97814 -4.94928,2.06088 -5.68553,0.14224 z m -78.75904,-2.35616 c -0.271169,-0.43876 -0.118142,-1.40433 0.340058,-2.14572 1.125414,-1.82095 4.168114,-0.56715 3.411094,1.40561 -0.624842,1.62831 -2.922088,2.08156 -3.751152,0.74011 z m 20.936337,-0.903 c -0.312304,-0.81386 -0.314809,-1.88913 -0.0056,-2.3895 0.978471,-1.5832 3.1914,-0.98457 3.711421,1.00399 0.613078,2.34442 -2.842173,3.63623 -3.705856,1.38551 z m 48.884813,0.61361 c -0.94095,-1.52249 1.10241,-3.30007 2.96977,-2.5835 0.89841,0.34475 1.3022,1.24162 0.96023,2.13278 -0.68249,1.77856 -2.94872,2.03847 -3.93,0.45072 z m 20.88321,-0.49694 c -0.71657,-1.86736 1.06102,-3.91072 2.58351,-2.96978 1.58774,0.98128 1.32783,3.24751 -0.45072,3.93001 -0.89117,0.34197 -1.78803,-0.0618 -2.13279,-0.96023 z m -99.251354,-3.82193 c -1.409864,-1.69878 -0.660008,-3.59399 1.421993,-3.59399 2.165232,0 2.884257,2.04431 1.282422,3.64615 -1.272303,1.2723 -1.610626,1.26577 -2.704415,-0.0522 z m 38.525737,-1.18424 c -0.75081,-1.95658 0.05734,-3.40975 1.896256,-3.40975 2.05808,0 2.83785,1.88799 1.463645,3.5438 -1.564371,1.88495 -2.601009,1.84359 -3.359901,-0.13405 z m 30.055477,0.84787 c -0.28999,-0.46921 -0.15236,-1.4597 0.30584,-2.20109 1.01419,-1.641 4.37608,-0.58055 3.78523,1.19399 -0.50041,1.50293 -3.35095,2.20464 -4.09107,1.0071 z m 39.67661,-0.82484 c -0.83346,-2.17196 1.28244,-4.21452 2.79695,-2.7 1.28004,1.28003 0.48705,4.26722 -1.13278,4.26722 -0.58452,0 -1.3334,-0.70525 -1.66417,-1.56722 z M 41.923526,34.593996 c -1.409864,-1.69878 -0.660008,-3.59399 1.421993,-3.59399 2.165232,0 2.884257,2.04431 1.282422,3.64615 -1.272303,1.2723 -1.610626,1.26577 -2.704415,-0.0522 z m 69.277154,-0.11085 c -0.31303,-0.81573 -0.31303,-2.15056 0,-2.96629 0.75855,-1.97676 3.64484,-0.80228 3.64484,1.48315 0,2.28542 -2.88629,3.4599 -3.64484,1.48314 z m -14.250881,-0.41838 c -1.70267,-1.05269 -0.7354,-4.06476 1.30532,-4.06476 2.195601,0 3.016281,2.00274 1.45872,3.55979 -0.85934,0.85906 -1.88749,1.0469 -2.76404,0.50497 z m 69.231551,-0.63198 c -0.83346,-2.17196 1.28244,-4.21452 2.79695,-2.7 1.28004,1.28003 0.48705,4.26722 -1.13278,4.26722 -0.58452,0 -1.3334,-0.70525 -1.66417,-1.56722 z M 34.045519,26.799996 c -2.620388,-2.62038 0.100087,-6.474302 3.752012,-5.31523 3.241274,1.02874 2.018531,6.51524 -1.452012,6.51524 -0.605,0 -1.64,-0.54 -2.3,-1.20001 z M 102.816,26.464436 c -1.81696,-2.18931 -0.0625,-4.96443 3.13851,-4.96443 1.99001,0 2.39101,0.50313 2.39101,3 0,2.28 -0.501,3.07158 -2.08751,3.29825 -1.14812,0.16404 -2.69703,-0.43618 -3.44201,-1.33382 z m 69.47567,-1.55157 c -0.36954,-0.59792 -0.19017,-1.56885 0.3986,-2.15762 1.2479,-1.2479 4.49423,0.88726 3.58522,2.35806 -0.76113,1.23154 -3.17383,1.11015 -3.98382,-0.20044 z M 25.595519,24.221746 c -1.928313,-0.40593 -2.129724,-1.07503 -0.904738,-3.00562 0.778524,-1.22695 4.171397,-0.701672 4.139425,0.64086 -0.03679,1.54506 -1.622323,2.70417 -3.234687,2.36476 z m 69.35428,-0.13613 c -1.38077,-0.8743 -0.89393,-4.09986 0.61434,-4.070302 1.87564,0.03676 3.29806,1.777652 2.70826,3.314632 -0.7236,1.88568 -1.32277,2.02195 -3.3226,0.75567 z m -50.10428,-1.617 c 0,-2.056465 2.989988,-3.102848 4.034942,-1.412078 1.107146,1.791398 0.287576,2.943468 -2.093959,2.943468 -1.076331,0 -1.940983,-0.68219 -1.940983,-1.53139 z m 70.000001,-0.46861 c 0,-1.29566 0.66667,-2.000005 1.89301,-2.000005 2.37685,0 3.50371,2.633785 1.46206,3.417245 -2.57743,0.98905 -3.35507,0.66056 -3.35507,-1.41724 z M 15.181352,18.432784 c -0.330769,-0.86197 -0.110718,-2.057898 0.489003,-2.657619 1.443846,-1.443846 4.271271,0.81081 3.508734,2.797949 -0.731522,1.906317 -3.246238,1.818044 -3.997737,-0.14033 z m 70,0 c -0.83346,-2.171962 1.282435,-4.214515 2.79695,-2.7 1.280033,1.280033 0.487051,4.267217 -1.132783,4.267217 -0.584523,0 -1.333399,-0.705248 -1.664167,-1.567217 z M 54.286212,17.90404 c -0.372538,-0.602779 -0.02294,-1.750364 0.776886,-2.550189 1.272303,-1.272302 1.610626,-1.265778 2.704415,0.05216 0.687603,0.828511 0.959889,1.976095 0.60508,2.550188 -0.845203,1.367568 -3.227737,1.337158 -4.086381,-0.05216 z m 69.882208,-0.504964 c -0.90893,-2.368627 1.88864,-3.747717 3.42703,-1.689389 0.9999,1.337844 0.9999,1.831128 0,2.46603 -1.8767,1.191635 -2.74746,0.994302 -3.42703,-0.776641 z M 7.1813524,11.432784 C 6.2713444,9.0613395 8.4041634,7.3888185 10.315469,8.9750605 11.49989,9.9580435 11.599908,10.591018 10.735405,11.63268 9.2379254,13.437033 7.9220544,13.363022 7.1813524,11.432784 Z m 69.9999996,0 c -0.83346,-2.1719625 1.282435,-4.2145155 2.79695,-2.7000005 1.280033,1.2800335 0.487051,4.2672175 -1.132783,4.2672175 -0.584523,0 -1.333399,-0.705248 -1.664167,-1.567217 z M 62.401293,11.090243 c -0.683841,-1.1064775 0.358425,-4.0902425 1.428771,-4.0902425 1.360614,0 3.209542,2.876946 2.542529,3.9561955 -0.794448,1.285443 -3.209322,1.366955 -3.9713,0.134047 z m 69.780057,-0.657459 c -0.83346,-2.1719625 1.28244,-4.2145155 2.79695,-2.7000005 1.28004,1.280033 0.48705,4.2672175 -1.13278,4.2672175 -0.58452,0 -1.3334,-0.705248 -1.66417,-1.567217 z M 0.73293444,3.364344 c -1.02091,-1.230122 -0.987481,-1.688287 0.176887,-2.424303 C 2.7718244,-0.236963 4.2689034,0.27091 4.6446114,2.207039 5.0632484,4.364393 2.2529464,5.195846 0.73293444,3.364344 Z M 70.046462,3.428194 C 67.40631,1.578957 68.00463,0 71.34552,0 c 3.010389,0 4.160221,1.768349 2.335996,3.592575 -1.20087,1.20087 -1.719357,1.177423 -3.635054,-0.164383 z M 138.91941,2.58903 C 138.2037,1.726652 138.121,0.947779 138.70672,0.585785 c 1.56612,-0.967913 4.05627,0.465713 3.46867,1.996976 -0.69014,1.798481 -1.76686,1.800554 -3.25598,0.0063 z"
     id="path11938"
     inkscape:connector-curvature="0" /></svg>