<?xml version="1.0" encoding="UTF-8" standalone="no"?>
<!-- Created with Inkscape (http://www.inkscape.org/) -->

<svg
   xmlns:dc="http://purl.org/dc/elements/1.1/"
   xmlns:cc="http://creativecommons.org/ns#"
   xmlns:rdf="http://www.w3.org/1999/02/22-rdf-syntax-ns#"
   xmlns:svg="http://www.w3.org/2000/svg"
   xmlns="http://www.w3.org/2000/svg"
   xmlns:sodipodi="http://sodipodi.sourceforge.net/DTD/sodipodi-0.dtd"
   xmlns:inkscape="http://www.inkscape.org/namespaces/inkscape"
   width="210mm"
   height="297mm"
   viewBox="0 0 210 297"
   version="1.1"
   id="svg8"
   inkscape:version="0.92.4 (5da689c313, 2019-01-14)"
   sodipodi:docname="cables.svg">
  <defs
     id="defs2" />
  <sodipodi:namedview
     id="base"
     pagecolor="#ffffff"
     bordercolor="#666666"
     borderopacity="1.0"
     inkscape:pageopacity="0.0"
     inkscape:pageshadow="2"
     inkscape:zoom="3.3396648"
     inkscape:cx="445.71429"
     inkscape:cy="672.85714"
     inkscape:document-units="mm"
     inkscape:current-layer="layer1"
     showgrid="false"
     inkscape:window-width="3742"
     inkscape:window-height="2035"
     inkscape:window-x="305"
     inkscape:window-y="305"
     inkscape:window-maximized="0" />
  <metadata
     id="metadata5">
    <rdf:RDF>
      <cc:Work
         rdf:about="">
        <dc:format>image/svg+xml</dc:format>
        <dc:type
           rdf:resource="http://purl.org/dc/dcmitype/StillImage" />
        <dc:title></dc:title>
      </cc:Work>
    </rdf:RDF>
  </metadata>
  <g
     inkscape:label="Calque 1"
     inkscape:groupmode="layer"
     id="layer1">
    <path
       style="fill:none;stroke:#000000;stroke-width:4.6;stroke-linecap:butt;stroke-linejoin:miter;stroke-opacity:1;stroke-miterlimit:4;stroke-dasharray:none"
       d="m 36.047156,115.7343 c 0.05282,-0.10563 0.08759,-0.22241 0.158448,-0.3169 0.03169,-0.0422 0.134829,0.0472 0.158448,0 0.150638,-0.30127 -0.300863,-0.0287 0.158451,-0.39612 0.287613,-0.23009 0.197335,0.0936 0.396121,-0.23767 0.04297,-0.0716 0.02016,-0.17863 0.07923,-0.23768 0.361143,-0.36114 0.22996,-0.0161 0.396123,-0.23767 0.05713,-0.0762 0.109461,-0.15603 0.158449,-0.23767 0.03038,-0.0506 0.02019,-0.15845 0.07922,-0.15845 0.05282,0 0,0.21126 0,0.15845 0,-0.18772 -0.04701,-0.31098 0.158451,-0.47535 0.06186,-0.0495 0.171754,0.0439 0.237672,0 0.04395,-0.0293 0,-0.10563 0,-0.15845 0,-0.0792 -0.02506,-0.16251 0,-0.23767 0.0084,-0.0251 0.05417,0.008 0.07922,0 0.05602,-0.0187 0.102429,-0.0605 0.158449,-0.0792 0.02506,-0.008 0.06742,0.0236 0.07922,0 0.02363,-0.0472 0,-0.10563 0,-0.15844 0,-0.0264 -0.0264,-0.0792 0,-0.0792 0.02641,0 0,0.10563 0,0.0792 0,-0.0528 -0.03735,-0.12111 0,-0.15846 0.03735,-0.0373 0.115472,0.0307 0.158451,0 0.15195,-0.10853 0.260141,-0.26814 0.396121,-0.39612 0.31305,-0.29463 0.62583,-0.58992 0.950695,-0.87147 0.07195,-0.0624 0.170345,-0.0911 0.237673,-0.15845 0.119568,-0.11956 0.197332,-0.27655 0.316899,-0.39612 0.01868,-0.0187 0.05725,0.0147 0.07922,0 0.06215,-0.0414 0.105632,-0.10563 0.158448,-0.15845 0.02641,-0.0264 0.04379,-0.0674 0.07922,-0.0792 0.05011,-0.0167 0.121103,0.0373 0.158449,0 0.03735,-0.0374 -0.05282,-0.15845 0,-0.15845 0.05905,0 0.02019,0.15845 0.07923,0.15845 0.05282,0 0,-0.10564 0,-0.15845 0,-0.25502 -0.01868,0.13524 0.07922,-0.15845 0.0167,-0.0501 -0.0293,-0.1145 0,-0.15845 0.03276,-0.0491 0.116691,-0.0375 0.158448,-0.0792 0.04175,-0.0418 0.05282,-0.10564 0.07922,-0.15845 0.05282,-0.0264 0.116695,-0.0375 0.158449,-0.0792 0.305384,-0.30538 -0.296569,-0.028 0.316899,-0.39612 0.04529,-0.0272 0.111207,0.0236 0.158448,0 0.02363,-0.0118 -0.01868,-0.0605 0,-0.0792 0.01868,-0.0187 0.06741,0.0236 0.07922,0 0.02363,-0.0472 -0.03735,-0.1211 0,-0.15844 0.03735,-0.0374 0.108345,0.0167 0.158449,0 0.03543,-0.0118 0.05282,-0.0528 0.07923,-0.0792 0.190426,-0.19043 -0.02506,0.0418 0.237672,-0.39612 0.091,-0.15167 0.09322,-0.014 0.237673,-0.15845 0.04176,-0.0418 0.03747,-0.11669 0.07922,-0.15845 0.09337,-0.0934 0.223533,-0.1443 0.316899,-0.23767 0.09337,-0.0934 0.136237,-0.23237 0.237673,-0.3169 0.06415,-0.0535 0.178623,-0.0202 0.237675,-0.0792 0.03735,-0.0374 -0.04724,-0.13483 0,-0.15846 0.09448,-0.0472 0.226317,0.0543 0.316897,0 0.07161,-0.043 0.02019,-0.17862 0.07922,-0.23767 0.08351,-0.0835 0.215628,-0.0977 0.316899,-0.15845 0.03203,-0.0192 0.05282,-0.0528 0.07923,-0.0792 0.02641,-0.0528 0.03009,-0.1257 0.07922,-0.15845 0.04394,-0.0293 0.125455,0.0412 0.158448,0 0.08884,-0.11105 0.05789,-0.29556 0.158451,-0.39612 0.04175,-0.0418 0.02016,0.15845 0.07922,0.15845 0.05282,0 -0.01669,-0.10835 0,-0.15845 0.0118,-0.0354 0.06252,-0.0458 0.07923,-0.0792 0.0118,-0.0236 -0.02641,-0.0792 0,-0.0792 0.05905,0 0.109315,0.11198 0.158448,0.0792 0.06949,-0.0463 0.03626,-0.16606 0.07922,-0.23767 0.03843,-0.0641 0.117017,-0.0963 0.158449,-0.15845 0.01466,-0.022 -0.02506,-0.0709 0,-0.0792 0.07516,-0.0251 0.181655,0.056 0.237675,0 0.05602,-0.056 -0.04076,-0.16974 0,-0.23768 0.151206,-0.25201 0.236603,-0.0781 0.396121,-0.23767 0.133291,-0.13329 0.0232,-0.30597 0.158451,-0.39612 0.422529,-0.28169 0,0.28168 0,0 0,-0.0475 0.198059,0.0238 0.237672,0 0.113223,-0.0679 0.211265,-0.15845 0.3169,-0.23768 0.13204,-0.0792 0.261911,-0.16218 0.396121,-0.23767 0.288398,-0.16222 0.601141,-0.28453 0.871468,-0.47535 0.183068,-0.12922 0.27863,-0.36804 0.475348,-0.47535 0.115919,-0.0632 0.272031,0.0451 0.396124,0 1.935816,-0.70393 -0.651563,-0.0993 0.871468,-0.31689 0.05846,-0.008 0.102431,-0.0606 0.158449,-0.0792 0.02506,-0.008 0.06055,0.0187 0.07923,0 0.01868,-0.0187 -0.01868,-0.0979 0,-0.0792 0.374112,0.37411 -0.154192,0.3169 0.792244,0.3169 1.267701,0 -1.08e-4,-0.23768 1.267592,-0.23768 0.295251,0 0.579184,0.11669 0.871469,0.15845 0.07843,0.0112 0.158448,0 0.237675,0 0.132041,0 0.269161,0.0363 0.396121,0 0.07182,-0.0205 0.08759,-0.13483 0.158449,-0.15845 0.200424,-0.0668 0.428839,0.0512 0.633796,0 0.189388,-0.0473 -0.286507,-0.15845 0.07923,-0.15845 0.02641,0 -0.01868,0.0606 0,0.0792 0.01868,0.0187 0.06055,0.0187 0.07923,0 0.01868,-0.0187 -0.02641,-0.0792 0,-0.0792 0.0264,0 -0.02363,0.0674 0,0.0792 0.04724,0.0236 0.158448,-0.0528 0.158448,0 0,0.0528 -0.158448,0.0528 -0.158448,0 0,-0.059 0.0994,-0.0792 0.158448,-0.0792 0.0264,0 -0.01868,0.0606 0,0.0792 0.01868,0.0187 0.05282,0 0.07922,0 0.05282,0 0.11121,0.0236 0.158449,0 0.02363,-0.0118 -0.02641,-0.0792 0,-0.0792 0.0264,0 -0.01868,0.0606 0,0.0792 0.01868,0.0187 0.05282,0 0.07922,0 0.05282,0 0.158451,-0.0528 0.158451,0 0,0.0528 -0.158451,0.0528 -0.158451,0 0,-0.0528 0.105635,0 0.158451,0 0.02641,0 0.06055,0.0187 0.07922,0 0.01868,-0.0187 -0.02641,-0.0792 0,-0.0792 0.0264,0 -0.02641,0.0792 0,0.0792 0.03735,0 0.04188,-0.0792 0.07922,-0.0792 0.02641,0 0,0.0528 0,0.0792 0,0.0264 0.02641,0.0792 0,0.0792 -0.0264,0 -0.02363,-0.0674 0,-0.0792 0.04724,-0.0236 0.108344,-0.0167 0.158449,0 0.03543,0.0118 0.04188,0.0792 0.07922,0.0792 0.05905,0 0.102431,-0.0605 0.158451,-0.0792 0.02506,-0.008 0.05282,0 0.07922,0 0.05282,0 0.111207,-0.0236 0.158448,0 0.02363,0.0118 0.02641,0.0792 0,0.0792 -0.02641,0 -0.02641,-0.0792 0,-0.0792 0.03735,0 0.04188,0.0792 0.07923,0.0792 0.21291,0 0.420885,-0.0792 0.633796,-0.0792 0.05282,0 0.111209,-0.0236 0.158448,0 0.02363,0.0118 -0.02506,0.0709 0,0.0792 0.07516,0.0251 0.171757,-0.0439 0.237675,0 0.04395,0.0293 -0.04395,0.12915 0,0.15845 0.633796,0.42253 0.03521,-0.14084 0.316897,0 0.36258,0.18129 -0.336182,-0.0328 0.237675,0.15845 0.105632,0.0352 0.211265,-0.10563 0.316897,0 0.04176,0.0418 -0.07922,0.0994 -0.07922,0.15845 0,0.0264 0.05417,-0.008 0.07922,0 0.05602,0.0187 0.105632,0.0528 0.158448,0.0792 0.07922,0 0.162515,-0.025 0.237675,0 0.0904,0.0603 0.274315,0.19707 0.396121,0.23768 0.07134,0.0238 0.36616,-0.024 0.396124,0 0.116652,0.0933 0.200247,0.22357 0.316897,0.31689 0.02061,0.0165 0.06742,0.0236 0.07923,0 0.02363,-0.0472 -0.02363,-0.1112 0,-0.15844 0.04621,-0.0924 0.250875,0.15844 0.07922,0.15844 -0.211267,0 0.158448,-0.36971 0.158448,-0.15844 0,0.0747 -0.191852,0.0916 -0.158448,0.15844 0.03543,0.0709 0.159985,-0.0155 0.237672,0 0.143391,-0.0478 0.147344,0.12834 0.237673,0.15846 0.02706,0.009 0.385519,-0.0106 0.396123,0 0.03735,0.0373 -0.04394,0.12915 0,0.15844 0.06592,0.044 0.160814,-0.0192 0.237673,0 0.145727,0.0364 0.03799,0.15522 0.07923,0.23768 0.0118,0.0236 0.07922,-0.0264 0.07922,0 0,0.0373 -0.07922,0.0419 -0.07922,0.0792 0,0.0264 0.05725,-0.0147 0.07922,0 0.06215,0.0414 0.105632,0.10564 0.158448,0.15845 0.02641,0.0264 0.04379,0.0674 0.07923,0.0792 0.05011,0.0167 0.121102,-0.0374 0.158448,0 0.05905,0.059 0.02912,0.17086 0.07922,0.23767 0.03543,0.0472 0.116695,0.0375 0.158451,0.0792 0.04175,0.0418 0.03009,0.1257 0.07922,0.15845 0.44894,0 0.02641,-0.0528 0.158449,0.0792 0.01868,0.0187 0.06742,-0.0236 0.07922,0 0.07922,0.15845 -0.03961,0.11883 0,0.23767 0.01868,0.056 0.03009,0.12569 0.07922,0.15845 0.04395,0.0293 0.158451,-0.0528 0.158451,0 0,0.0528 -0.158451,-0.0528 -0.158451,0 0,0.059 0.0994,0.0792 0.158451,0.0792 0.02641,0 -0.0264,-0.0792 0,-0.0792 0.142536,0 0.04766,0.1111 0.07922,0.15845 0.04143,0.0622 0.0963,0.11701 0.158449,0.15845 0.02199,0.0147 0.07087,-0.0251 0.07922,0 0.02506,0.0752 -0.04395,0.17175 0,0.23767 0.07324,0.10987 0.203673,0.16974 0.316899,0.23768 0.02265,0.0136 0.07404,-0.0259 0.07922,0 0.0259,0.12947 -0.05201,0.27475 0,0.39612 0.0756,0.1764 0.283491,0.12504 0.396121,0.23767 0.04176,0.0418 0.03747,0.11669 0.07923,0.15845 0.09337,0.0934 0.232367,0.13624 0.316899,0.23767 0.05346,0.0642 0.01241,0.18757 0.07922,0.23768 0.06338,0.0475 0.171754,-0.0439 0.237673,0 0.06303,0.042 -0.04128,0.21703 0,0.23767 0.05282,0 0.158451,-0.0528 0.158451,0 0,0.0528 -0.195797,-0.0373 -0.158451,0 0.08351,0.0835 0.222419,0.0876 0.316899,0.15845 0.02111,0.0159 -0.0084,0.0542 0,0.0792 0.01868,0.056 0.03747,0.1167 0.07922,0.15845 0.01868,0.0187 0.07087,-0.0251 0.07922,0 0.02506,0.0752 -0.05602,0.18166 0,0.23768 0.105633,0.0264 0.211268,0.0528 0.3169,0.0792 0,-0.0264 -0.02199,-0.0939 0,-0.0792 0.297489,-0.27631 0.227081,0.38553 0.237672,0.39612 0.05905,0.059 0.178623,0.0202 0.237673,0.0792 0.03735,0.0373 0,0.10564 0,0.15845 0,0.0264 0,0.0528 0,0.0792 0,0.0264 -0.02506,0.0709 0,0.0792 0.07516,0.0251 0.158451,0 0.237675,0 0.05282,0 0.121103,-0.0373 0.158449,0 0.0264,0.0264 -0.0132,0.18486 0,0.23767 0.02024,0.081 0.06741,0.15501 0.07922,0.23768 0.01495,0.10457 -0.03923,0.21882 0,0.3169 0.02193,0.0548 0.109318,0.0465 0.158448,0.0792 0.107347,0.0716 0.237675,0.33413 0.237675,0.39612 0,0.0591 -0.158448,0.0202 -0.158448,0.0792 0,0.0952 0.128339,0.14734 0.158448,0.23767 0.02506,0.0752 -0.02506,0.16252 0,0.23768 0.0084,0.0251 0.06055,-0.0187 0.07922,0 0.369458,0.36946 0.05765,0.0937 0.158448,0.39612 0.0118,0.0354 0.05282,0.0528 0.07922,0.0792 0.05282,0.0528 0.117017,0.0963 0.158451,0.15845 0.01466,0.022 0,0.0528 0,0.0792 0,0.0792 -0.01553,0.15998 0,0.23767 0.01159,0.0579 0.06055,0.10243 0.07922,0.15845 0.0084,0.0251 -0.0118,0.0556 0,0.0792 0.01669,0.0334 0.06741,0.0438 0.07922,0.0792 0.0167,0.0501 -0.0293,0.1145 0,0.15845 0.03276,0.0491 0.132041,0.0264 0.158449,0.0792 0.03543,0.0709 -0.01553,0.15999 0,0.23768 0.01159,0.0579 0.06055,0.10242 0.07922,0.15844 0.01807,0.0542 -0.0081,0.31283 0,0.3169 0.44894,0 0.02641,-0.0528 0.158448,0.0792 0.01868,0.0187 0.06742,-0.0236 0.07923,0 0.02363,0.0472 -0.03735,0.1211 0,0.15845 0.03735,0.0373 0.111207,-0.0236 0.158449,0 0.02363,0.0118 -0.0084,0.0542 0,0.0792 0.01868,0.056 0.06055,0.10243 0.07922,0.15845 0.0084,0.0251 -0.01868,0.0606 0,0.0792 0.01868,0.0187 0.05282,0 0.07922,0 0.05282,0.0528 0.117017,0.0963 0.158448,0.15845 0.01466,0.022 -0.0118,0.0556 0,0.0792 0.0167,0.0334 0.06742,0.0438 0.07923,0.0792 0.01669,0.0501 0,0.10563 0,0.15845 0,0.0264 -0.02363,0.0674 0,0.0792 0.04724,0.0236 0.121102,-0.0373 0.158451,0 0.03735,0.0374 0.05282,0.15845 0,0.15845 -0.05282,0 -0.05282,-0.15845 0,-0.15845 0.05282,0 0.05282,0.15845 0,0.15845 -0.05282,0 -0.05282,-0.15845 0,-0.15845 0.218156,0 0.02238,0.18083 0.07922,0.23768 0.01868,0.0187 0.06055,-0.0187 0.07922,0 0.01868,0.0187 0.02641,0.0792 0,0.0792 -0.0264,0 0,-0.10563 0,-0.0792 0,0.0792 -0.04395,0.17175 0,0.23767 0.211264,0.3169 0.158448,-0.36971 0.158448,0.15845 0,0.0264 0.02641,0.0792 0,0.0792 -0.0264,0 -0.01868,-0.0979 0,-0.0792 0.04176,0.0418 0.04379,0.11121 0.07922,0.15845 0.04482,0.0598 0.13483,0.0876 0.158452,0.15845 0.0334,0.10021 -0.01736,0.2127 0,0.3169 0.01482,0.0889 0.218974,0.35872 0.237672,0.39612 0.0118,0.0236 -0.0084,0.0542 0,0.0792 0.01868,0.056 0.06055,0.10243 0.07922,0.15845 0.0084,0.0251 -0.0118,0.0556 0,0.0792 0.06886,0.13773 0.195371,0.24806 0.237673,0.39612 0.01622,0.0568 -0.07922,0.0994 -0.07922,0.15845 0,0.0264 0.06055,-0.0187 0.07922,0 0.06923,0.0692 -0.07922,0.16486 -0.07922,0 0,-0.0264 0.05282,0 0.07922,0 0.05282,0 0.129154,-0.0439 0.158451,0 0.04394,0.0659 0,0.15845 0,0.23767 0,0.0528 -0.05282,-0.15845 0,-0.15845 0.05282,0 0,0.10564 0,0.15845 0,0.0264 -0.01868,0.0606 0,0.0792 0.01868,0.0187 0.07922,-0.0264 0.07922,0 0,0.0373 -0.07922,0.0419 -0.07922,0.0792 0,0.059 0.06055,0.10243 0.07922,0.15845 0.0084,0.0251 0,0.0528 0,0.0792 0.05282,0.0528 0.117017,0.0963 0.158448,0.15844 0.0145,0.0217 -0.0057,0.29981 0,0.3169 0.0118,0.0354 0.06742,0.0438 0.07922,0.0792 0.02506,0.0752 0,0.15845 0,0.23767 0,0.0528 0.05282,0.15845 0,0.15845 -0.05282,0 -0.05282,-0.15845 0,-0.15845 0.05282,0 0.05282,0.15845 0,0.15845 -0.05282,0 -0.05282,-0.15845 0,-0.15845 0.05282,0 -0.05282,0.15845 0,0.15845 0.05905,0 0.02019,-0.15845 0.07922,-0.15845 0.01061,0 -0.01217,0.45709 0,0.47535 0.03275,0.0491 0.125695,0.0301 0.158451,0.0792 0.0293,0.044 -0.02363,0.11121 0,0.15845 0.0118,0.0236 0.06055,-0.0187 0.07922,0 0.01868,0.0187 -0.01466,0.0572 0,0.0792 0.04143,0.0621 0.105632,0.10563 0.158448,0.15845 0.02641,0.0264 0.07923,0.0419 0.07923,0.0792 0,0.0264 -0.07923,-0.0264 -0.07923,0 0,0.0374 0.04379,0.0674 0.07923,0.0792 0.05011,0.0167 0.158448,-0.0528 0.158448,0 0,0.11811 -0.256715,0.25139 -0.158448,0.3169 0.202649,0.1351 0.372025,-0.35304 0.554571,-0.0792 0.0293,0.0439 0,0.10563 0,0.15845 0,0.21126 -0.0264,-0.0264 0.07923,0.0792 0.01868,0.0187 0,0.0528 0,0.0792 0,0.0528 -0.0293,0.1145 0,0.15844 0.03275,0.0491 0.102428,0.0606 0.158448,0.0792 0.02506,0.008 0.07922,-0.0264 0.07922,0 0,0.0835 -0.07922,0.15416 -0.07922,0.23767 0,0.0528 0.134829,-0.0472 0.158451,0 0.02363,0.0472 -0.03735,0.12111 0,0.15845 0.03735,0.0374 0.158448,-0.0528 0.158448,0 0,0.0952 -0.18856,0.14735 -0.158448,0.23767 0.02506,0.0752 0.162512,-0.025 0.237673,0 0.06008,0.02 -0.06855,0.13486 0,0.23768 0.03276,0.0491 0.125693,0.0301 0.158448,0.0792 0.0293,0.0439 -0.05282,0.15845 0,0.15845 0.05905,0 0.02019,-0.15845 0.07922,-0.15845 0.05282,0 0,0.10564 0,0.15845 0,0.0264 0.02641,0.0792 0,0.0792 -0.0264,0 -0.0264,-0.0792 0,-0.0792 0.08351,0 0.168191,0.0329 0.237675,0.0792 0.0082,0.005 -0.01627,0.30063 0,0.3169 0.07923,0.0528 0.158449,0.10563 0.237673,0.15844 -0.0264,0 -0.07922,-0.0264 -0.07922,0 0,0.0374 0.06741,0.0438 0.07922,0.0792 0.01669,0.0501 0.05282,0.15845 0,0.15845 -0.05282,0 -0.05282,-0.15845 0,-0.15845 0.09522,0 0.170347,0.0911 0.237673,0.15845 0.118837,0.11883 -0.237673,0.0792 0,0.23767 0.06592,0.0439 0.159988,-0.0155 0.237675,0 0.0579,0.0116 0.102428,0.0605 0.158448,0.0792 0.02506,0.008 0.05282,0 0.07922,0 0.05282,0.0264 0.102428,0.0605 0.158449,0.0792 0.02506,0.008 0.07087,-0.0251 0.07923,0 0.02506,0.0752 -0.01553,0.15999 0,0.23767 0.01159,0.0579 0.06055,0.10243 0.07923,0.15845 0.0084,0.0251 -0.02363,0.0674 0,0.0792 0.04724,0.0236 0.114501,-0.0293 0.158448,0 0.04913,0.0328 0.07922,0.0994 0.07922,0.15845 0,0.0264 -0.07922,0.0264 -0.07922,0 0,-0.0264 0.05282,0 0.07922,0 0.05282,0 0.11121,-0.0236 0.158449,0 0.02363,0.0118 -0.01868,0.0605 0,0.0792 0.01868,0.0187 0.06741,-0.0236 0.07922,0 0.02363,0.0472 -0.03735,0.1211 0,0.15845 0.03282,0.11204 0.181655,-0.056 0.237675,0 0.01868,0.0187 -0.01868,0.0606 0,0.0792 0.01868,0.0187 0.06055,-0.0187 0.07922,0 0.01868,0.0187 0,0.0528 0,0.0792 0,0.0528 -0.0293,0.1145 0,0.15845 0.210939,0.31641 0.08649,-0.0216 0.237673,0.0792 0.06215,0.0414 0.105632,0.10563 0.158451,0.15845 0.0264,0.0264 0.04379,0.0674 0.07922,0.0792 0.0501,0.0167 0.129151,-0.0439 0.158448,0 0,0.73944 -0.07922,0.0792 0.07922,0.23768 0.01868,0.0187 -0.01868,0.0606 0,0.0792 0.01868,0.0187 0.07922,-0.0264 0.07922,0 0,0.0264 -0.105633,0 -0.07922,0 0.07922,0 0.158448,0 0.237672,0 0.05282,0 -0.158448,0.0528 -0.158448,0 0,-0.0528 0.158448,-0.0528 0.158448,0 0,0.0528 -0.158448,0.0528 -0.158448,0 0,-0.0528 0.105632,0 0.158448,0 0.0264,0 0.06338,-0.0211 0.07923,0 0.07086,0.0945 0.08759,0.22242 0.158448,0.3169 0.01585,0.0211 0.06055,-0.0187 0.07922,0 0.06733,0.0673 0.10132,0.1615 0.158449,0.23768 0.02241,0.0299 0.05282,0.0528 0.07922,0.0792 0.05282,0.0528 0.08376,0.15845 0.158451,0.15845 0.05905,0 0.02016,-0.15845 0.07922,-0.15845 0.05905,0 0.03747,0.11669 0.07922,0.15845 0.16065,0.16065 0.374635,0.26117 0.554572,0.39612 0.02988,0.0224 0.06252,0.0458 0.07923,0.0792 0.0118,0.0236 -0.02363,0.0674 0,0.0792 0.04724,0.0236 0.105632,0 0.158448,0 0.02641,0 0.06055,0.0187 0.07922,0 0.01868,-0.0187 -0.01868,-0.0979 0,-0.0792 0.06733,0.0673 0.07329,0.19509 0.158448,0.23767 0.04724,0.0236 -0.02363,-0.11121 0,-0.15845 0.0118,-0.0236 0.06742,-0.0236 0.07923,0 0.211265,0.42253 -0.264083,-0.0528 0.158449,0.15845 0.113702,0.0568 -0.266057,0.23767 0.07922,0.23767 0.05282,0 -0.05282,-0.15845 0,-0.15845 0.05905,0 0.03009,0.1257 0.07922,0.15845 0.04395,0.0293 0.11121,-0.0236 0.158448,0 0.02363,0.0118 -0.01868,0.0606 0,0.0792 0.01868,0.0187 0.05282,0 0.07922,0 0.05282,0.0264 0.116694,0.0375 0.158451,0.0792 0.04175,0.0418 0.03198,0.12302 0.07922,0.15845 0.06681,0.0501 0.158448,0.0528 0.237672,0.0792 0.158449,0.0528 0.336378,0.0658 0.475348,0.15845 0.109866,0.0732 0.12781,0.24365 0.237673,0.31689 0.01352,0.52364 0.38531,0.10203 0.554572,0.15845 0.05602,0.0187 0.100203,0.0695 0.158448,0.0792 0.104196,0.0173 0.211267,0 0.316899,0 0.105633,0 0.211265,0 0.316897,0 0.05282,0 0.158451,-0.0528 0.158451,0 0,0.0528 -0.158451,0.0528 -0.158451,0 0,-0.0528 0.105635,0 0.158451,0 0.02641,0 0.05282,0 0.07922,0 0.184857,0 0.369713,0 0.554572,0 0.05282,0 0.108342,0.0167 0.158449,0 0.03543,-0.0118 0.04188,-0.0792 0.07922,-0.0792 0.0264,0 -0.02363,0.0674 0,0.0792 0.04724,0.0236 0.158448,-0.0528 0.158448,0 0,0.0528 -0.158448,0.0528 -0.158448,0 0,-0.0528 0.105632,0 0.158448,0 0.02641,0 0.06742,-0.0236 0.07922,0 0.02363,0.0472 -0.04394,0.12915 0,0.15845 0.165259,0.11017 0.450819,-0.12881 0.554572,-0.15845 0.07618,-0.0218 0.158451,0 0.237676,0 0.02641,0 0.0536,-0.006 0.07922,0 0.08101,0.0203 0.155784,0.0628 0.237672,0.0792 0.05179,0.0103 0.121103,-0.0374 0.158449,0 0.03735,0.0374 0.05282,0.15845 0,0.15845 -0.05282,0 -0.02363,-0.11121 0,-0.15845 0.0118,-0.0236 0.06055,0.0187 0.07923,0 0.01868,-0.0187 0.0264,-0.0792 0,-0.0792 -0.03735,0 -0.07923,0.0419 -0.07923,0.0792 0,0.0264 0.07923,-0.0264 0.07923,0 0,0.059 -0.02641,0.18486 -0.07923,0.15845 -0.140327,-0.0702 0.237675,-0.27967 0.237675,-0.15845 0,0.0528 -0.158448,0.0528 -0.158448,0 0,-0.0528 0.109407,-0.0196 0.158448,0 0.08841,0.0354 0.146121,0.13229 0.237672,0.15845 0.283893,0.0811 0.578499,0.12183 0.871472,0.15845 0.131019,0.0164 0.26408,0 0.396121,0 0.316899,0 0.633796,0 0.950695,0 0.02641,0 0.05282,0 0.07922,0 0.05282,0 0.158449,-0.0528 0.158449,0 0,0.10414 -0.659696,-0.15845 0.07922,-0.15845 0.05282,0 -0.05011,0.14175 0,0.15845 0.150318,0.0501 0.316899,0 0.475348,0 0.05282,0 0.105632,0 0.158448,0 0.07922,0 0.171754,0.0439 0.237675,0 0.04395,-0.0293 -0.02363,-0.11121 0,-0.15845 0.0118,-0.0236 0.07923,-0.0264 0.07923,0 0,0.0264 -0.105635,0 -0.07923,0 0.247611,0 0.46876,0.0124 0.713021,-0.0792 0.08915,-0.0334 0.147344,-0.12834 0.237672,-0.15845 0.07516,-0.0251 0.161497,0.0218 0.237673,0 0.105635,-0.0528 0.211267,-0.10564 0.316899,-0.15845 0,-0.0264 -0.02506,-0.0709 0,-0.0792 0.07516,-0.025 0.166812,0.0354 0.237673,0 0.05282,-0.0264 0.03009,-0.12569 0.07922,-0.15845 0.04395,-0.0293 0.106659,0.0104 0.158451,0 0.08189,-0.0164 0.156657,-0.059 0.237673,-0.0792 0.02561,-0.006 0.06741,0.0236 0.07922,0 0.02363,-0.0472 -0.03735,-0.1211 0,-0.15845 0.03735,-0.0374 0.105632,0 0.158448,0 0.02641,0 0.07923,-0.0264 0.07923,0 0,0.0228 -0.262755,-0.0135 0,-0.0792 0.07686,-0.0192 0.162512,0.0251 0.237672,0 0.738921,-0.49262 -0.111207,0.0107 0.396124,-0.15845 0.03543,-0.0118 0.05282,-0.0528 0.07922,-0.0792 0.05282,-0.0528 0.0963,-0.11701 0.158449,-0.15845 0.02199,-0.0146 0.05282,0 0.07922,0 0.05282,0 0.158448,-0.0528 0.158448,0 0,0.0528 -0.158448,0.0528 -0.158448,0 0,-0.0528 0.111209,0.0236 0.158448,0 0.02363,-0.0118 -0.0264,-0.0792 0,-0.0792 0.02641,0 -0.02506,0.0876 0,0.0792 0.09033,-0.0301 0.143754,-0.14279 0.237675,-0.15845 0.356055,-0.0593 0.113157,0.23445 0.475346,0.0792 0.665487,-0.28521 0.01373,-0.23768 0.554571,-0.23768 0.132041,0 0.264084,0 0.396124,0 0.02641,0 0.06741,0.0236 0.07922,0 0.02363,-0.0472 -0.05282,-0.15844 0,-0.15844 0.05282,0 0.05282,0.15844 0,0.15844 -0.05282,0 -0.03735,-0.1211 0,-0.15844 0.02641,-0.0264 0.184857,0.0132 0.237673,0 0.08102,-0.0202 0.155786,-0.0629 0.237675,-0.0792 0.05179,-0.0103 0.114504,0.0293 0.158448,0 0.04913,-0.0327 0.03199,-0.12302 0.07923,-0.15845 0.06681,-0.0501 0.178622,-0.0202 0.237675,-0.0792 0.03735,-0.0374 -0.03735,-0.1211 0,-0.15845 0.05905,-0.059 0.155784,-0.0628 0.237672,-0.0792 0.05179,-0.0104 0.158449,0.0528 0.158449,0 0,-0.0747 -0.211265,-0.10563 -0.158449,-0.15844 0.05282,-0.0528 0.08375,0.15844 0.158449,0.15844 0.05905,0 0.03199,-0.12301 0.07922,-0.15844 0.06681,-0.0501 0.191352,-0.01 0.237675,-0.0792 0.03275,-0.0491 -0.101155,-0.10362 -0.07922,-0.15845 0.08652,-0.21631 0.330118,-0.25089 0.475345,-0.39612 0.01868,-0.0187 -0.01868,-0.0605 0,-0.0792 0.09337,-0.0934 0.240152,-0.13023 0.316899,-0.23768 0.06329,-0.0886 0.0232,-0.22353 0.07922,-0.3169 0.03038,-0.0506 0.107812,-0.0488 0.158448,-0.0792 0.08165,-0.049 0.161502,-0.10132 0.237675,-0.15845 0.02988,-0.0224 0.06252,-0.0458 0.07922,-0.0792 0.0118,-0.0236 -0.02363,-0.0674 0,-0.0792 0.04724,-0.0236 0.121103,0.0374 0.158449,0 0.03735,-0.0373 -0.02363,-0.11121 0,-0.15845 0.0118,-0.0236 0.07922,-0.0264 0.07922,0 0,0.0264 -0.06055,0.0187 -0.07922,0 -0.01868,-0.0187 -0.01868,-0.0606 0,-0.0792 0.02021,-0.0202 0.217461,0.0202 0.237672,0 0.03735,-0.0374 -0.01669,-0.10835 0,-0.15845 0.0118,-0.0354 0.05682,-0.0494 0.07922,-0.0792 0.134954,-0.17993 0.235474,-0.39392 0.396124,-0.55457 0.04175,-0.0418 0.123018,-0.032 0.158448,-0.0792 0.05011,-0.0668 0.06285,-0.15579 0.07922,-0.23768 0.01037,-0.0518 -0.03735,-0.1211 0,-0.15844 0.03735,-0.0374 0.111209,0.0236 0.158451,0 0.02363,-0.0118 -0.01868,-0.0606 0,-0.0792 0.03735,-0.0374 0.134829,0.0472 0.158448,0 0.02363,-0.0472 0,-0.10563 0,-0.15845 0,-0.0264 -0.01466,-0.0573 0,-0.0792 0.158448,-0.23768 0.118838,-0.0792 0.237673,-0.23768 0.05713,-0.0762 0.10946,-0.15602 0.158448,-0.23767 0.03038,-0.0506 0.03747,-0.11669 0.07923,-0.15845 0.04175,-0.0418 0.123018,-0.032 0.158448,-0.0792 0.05011,-0.0668 0.02019,-0.17863 0.07922,-0.23768 0.03735,-0.0373 0.105633,0 0.158449,0 0.07922,-0.0792 0.18003,-0.1416 0.237675,-0.23767 0.02717,-0.0453 -0.0167,-0.10834 0,-0.15845 0.06922,-0.20767 0.108836,0.0496 0.237672,-0.0792 0.03735,-0.0374 -0.02363,-0.11121 0,-0.15845 0.0118,-0.0236 0.05282,0 0.07923,0 0.0264,0 0.07922,-0.0264 0.07922,0 0,0.0264 -0.07922,0.0264 -0.07922,0 0,-0.0373 0.07922,-0.0419 0.07922,-0.0792 0,-0.0374 -0.07922,-0.0419 -0.07922,-0.0792 0,-0.0264 0.07087,0.0251 0.07922,0 0.02506,-0.0752 -0.04394,-0.17176 0,-0.23768 0.0293,-0.0439 0.121102,0.0374 0.158448,0 0.03735,-0.0373 -0.0167,-0.10834 0,-0.15844 0.0118,-0.0354 0.06742,-0.0438 0.07923,-0.0792 0.01669,-0.0501 -0.0293,-0.1145 0,-0.15845 0.03276,-0.0491 0.158448,-0.0202 0.158448,-0.0792 0,-0.0528 -0.175151,0.0501 -0.158448,0 0.100727,-0.30219 0.277469,-0.19817 0.475345,-0.3169 0.09608,-0.0577 0.158451,-0.15845 0.237675,-0.23767 0.05282,-0.0528 0.105633,-0.10564 0.158449,-0.15845 0.0264,-0.0264 0.06741,-0.0438 0.07922,-0.0792 0.01669,-0.0501 -0.02363,-0.11121 0,-0.15845 0.0118,-0.0236 0.06055,0.0187 0.07922,0 0.01868,-0.0187 0,-0.0528 0,-0.0792 0.05282,0 0.108344,0.0167 0.158448,0 0.03543,-0.0118 0.05282,-0.0528 0.07923,-0.0792 0.05282,-0.0528 0.105633,-0.10563 0.158449,-0.15845 0.07922,-0.0792 0.165946,-0.1516 0.237672,-0.23767 0.327345,-0.39281 0.03144,-0.0868 0.237675,-0.39612 0.02072,-0.0311 0.05282,-0.0528 0.07923,-0.0792 0.05282,-0.0792 0.10946,-0.15602 0.158448,-0.23767 0.03038,-0.0506 0.03009,-0.12569 0.07922,-0.15845 0.04395,-0.0293 0.105632,0 0.158449,0 0.02641,-0.0792 0.02016,-0.17862 0.07922,-0.23767 0.03735,-0.0374 0.158455,0.0528 0.158455,0 0,-0.059 -0.0994,-0.0792 -0.158455,-0.0792 -0.0044,0 -0.0176,0.34331 0.158455,0.0792 0.0439,-0.0659 -0.0312,-0.16486 0,-0.23768 0.052,-0.12136 0.16092,-0.20945 0.23767,-0.31689 0.0554,-0.0775 0.0965,-0.16538 0.15845,-0.23768 1.22057,-1.42399 -0.630447,0.7889 0.71302,-0.55457 0.13466,-0.13465 0.19038,-0.33301 0.3169,-0.47535 0.0877,-0.0987 0.21267,-0.1566 0.3169,-0.23767 0.13347,-0.10381 0.25937,-0.21744 0.39612,-0.3169 0.15401,-0.11201 0.34069,-0.18224 0.47535,-0.3169 0.059,-0.059 0.0363,-0.16606 0.0792,-0.23767 0.0384,-0.0641 0.11702,-0.0963 0.15845,-0.15845 0.0147,-0.022 -0.0264,-0.0792 0,-0.0792 0.0264,0 0.0264,0.0792 0,0.0792 -0.0264,0 -0.0264,-0.0792 0,-0.0792 0.0264,0 0,0.0528 0,0.0792 0,-0.0792 -0.0192,-0.16081 0,-0.23767 0.009,-0.0362 0.0568,-0.0493 0.0792,-0.0792 0.0571,-0.0762 0.0911,-0.17034 0.15845,-0.23767 0.0187,-0.0187 0.0674,0.0236 0.0792,0 0.0236,-0.0472 -0.0196,-0.10941 0,-0.15845 0.0354,-0.0884 0.15845,-0.14246 0.15845,-0.23767 0,-0.0528 -0.15845,0.0528 -0.15845,0 0,-0.0528 0.11121,0.0236 0.15845,0 0.0236,-0.0118 -0.008,-0.0542 0,-0.0792 0.0187,-0.056 0.0606,-0.10242 0.0792,-0.15844 0.0198,-0.0594 -0.0396,-0.19807 0,-0.23768 0.059,-0.059 0.18914,-0.0113 0.23768,-0.0792 0.71423,-0.16028 -0.0534,-0.51405 0.0792,-0.71302 0.044,-0.0659 0.18696,0.0609 0.23767,0 0.10693,-0.12831 0.0927,-0.32184 0.15845,-0.47535 0.0147,-0.0343 0.0528,-0.0528 0.0792,-0.0792 0.0792,-0.0792 0.17255,-0.1465 0.23767,-0.23767 0.0687,-0.0961 0.11459,-0.20724 0.15845,-0.3169 0.01,-0.0245 -0.0187,-0.0605 0,-0.0792 0.0187,-0.0187 0.0528,0 0.0792,0 0.0528,-0.0264 0.12569,-0.0301 0.15844,-0.0792 0.0293,-0.0439 -0.0167,-0.10834 0,-0.15845 0.0118,-0.0354 0.0568,-0.0493 0.0792,-0.0792 0.0571,-0.0762 0.10946,-0.15603 0.15845,-0.23767 0.20767,-0.34612 -0.0683,0.0573 0.15845,-0.39613 0.0426,-0.0852 0.10132,-0.1615 0.15845,-0.23767 0.0224,-0.0299 0.0674,-0.0438 0.0792,-0.0792 0.0167,-0.0501 -0.0374,-0.1211 0,-0.15844 0.0374,-0.0374 0.15845,-0.0528 0.15845,0 0,0.0528 -0.15845,0.0528 -0.15845,0 0,-0.0528 0.15845,-0.0528 0.15845,0 0,0.0528 -0.15845,0.0528 -0.15845,0 0,-0.059 0.10932,-0.0465 0.15845,-0.0792 0.0311,-0.0207 0.043,-0.0702 0.0792,-0.0792 0.0769,-0.0192 0.1758,0.0495 0.23767,0 0.0922,-0.0738 0.0828,-0.22617 0.15845,-0.3169 0.0609,-0.0731 0.16019,-0.10311 0.23767,-0.15845 0.10745,-0.0767 0.21753,-0.15072 0.3169,-0.23767 0.11242,-0.0984 0.19898,-0.22519 0.3169,-0.3169 0.12154,-0.0945 0.29207,-0.12417 0.39612,-0.23767 0.81486,-0.88895 0.2395,-0.41914 0.63379,-1.10915 0.0371,-0.0649 0.10564,-0.10563 0.15846,-0.15845 0.0792,-0.0792 0.17044,-0.14804 0.23767,-0.23767 0.0159,-0.0211 -0.0187,-0.0606 0,-0.0792 0.0187,-0.0187 0.0674,0.0236 0.0792,0 0.15386,-0.30771 -0.17774,-0.0406 -0.0792,-0.23767 0.0167,-0.0334 0.0528,-0.0528 0.0792,-0.0792 0.0792,-0.0792 0.15845,-0.15845 0.23767,-0.23768 0.10564,-0.10563 0.21127,-0.21126 0.3169,-0.31689 0.13204,-0.13204 0.24873,-0.28148 0.39613,-0.39613 0.0932,-0.0725 0.21863,-0.0929 0.31689,-0.15845 0.21973,-0.14648 0.41891,-0.32185 0.6338,-0.47534 0.15496,-0.11069 0.32039,-0.20622 0.47535,-0.3169 0.21489,-0.1535 0.42022,-0.32002 0.63379,-0.47535 0.077,-0.056 0.15409,-0.11285 0.23768,-0.15845 0.20736,-0.1131 0.44029,-0.18144 0.63379,-0.3169 0.33602,-0.23521 0.0261,-0.1845 0.23768,-0.39612 0.0417,-0.0417 0.11234,-0.0423 0.15845,-0.0792 0.0875,-0.07 0.14225,-0.17896 0.23767,-0.23768 0.26408,-0.13204 0.52816,-0.26408 0.79224,-0.39612 0.21127,0 0.43879,0.0813 0.6338,0 0.15609,-0.065 0.17424,-0.30534 0.3169,-0.39612 0.1622,-0.10322 0.38579,-0.0664 0.55457,-0.15845 0.11135,-0.0607 0.30623,-0.48246 0.55457,-0.3169 0.0439,0.0293 0.0528,0.15845 0,0.15845 -0.0528,0 -0.0528,-0.15845 0,-0.15845 0.0528,0 -0.0293,0.1145 0,0.15845 0.0328,0.0491 0.10055,0.0676 0.15845,0.0792 0.10358,0.0207 0.21127,0 0.3169,0 0.3169,0 0.63379,0 0.95069,0 0.21127,0 0.42254,0 0.6338,0 0.0792,0 0.15845,0 0.23767,0 0.0792,0 0.15999,0.0155 0.23768,0 0.0579,-0.0116 0.10563,-0.0528 0.15845,-0.0792 0.29048,-0.0528 0.57812,-0.12492 0.87146,-0.15845 0.63189,-0.0722 1.2697,-0.0846 1.90139,-0.15845 1.40225,-0.1639 2.80223,-0.3485 4.1989,-0.55457 0.21544,-0.0318 0.42122,-0.11121 0.6338,-0.15845 0.0258,-0.006 0.0528,0 0.0792,0 0.0264,0 0.0792,-0.0264 0.0792,0 0,0.0264 -0.0792,0.0264 -0.0792,0 0,-0.0264 0.0792,-0.0264 0.0792,0 0,0.0264 -0.0792,-0.0264 -0.0792,0 0,0.0373 0.0438,0.0674 0.0792,0.0792 0.0501,0.0167 0.15845,-0.0528 0.15845,0 0,0.0528 -0.15845,0.0528 -0.15845,0 0,-0.0528 0.15845,-0.0528 0.15845,0 0,0.0528 -0.15845,-0.0528 -0.15845,0 0,0.0747 0.11702,0.0963 0.15845,0.15844 0.0147,0.022 -0.0118,0.0556 0,0.0792 0.0167,0.0334 0.0702,0.043 0.0792,0.0792 0.0192,0.0769 -0.056,0.18166 0,0.23768 0.056,0.056 0.17581,-0.0495 0.23768,0 0.0922,0.0738 0.0749,0.23338 0.15844,0.3169 0.6986,0.69859 -0.01,-0.18013 0.55458,0.15844 0.0816,0.049 0.0911,0.17035 0.15844,0.23768 0.0187,0.0187 0.0709,-0.0251 0.0792,0 0.0251,0.0752 -0.0251,0.16251 0,0.23767 0.008,0.0251 0.0792,-0.0264 0.0792,0 0,0.0264 -0.0792,0.0264 -0.0792,0 0,-0.0264 0.0542,-0.008 0.0792,0 0.056,0.0187 0.10054,0.0676 0.15844,0.0792 0.0777,0.0155 0.17176,-0.044 0.23768,0 0.0439,0.0293 -0.0104,0.10665 0,0.15845 0.0164,0.0819 0.0202,0.17862 0.0792,0.23767 0.19388,0.19388 0.32886,0.15845 0.55457,0.15845 0.0264,0 0.0528,0 0.0792,0 0.0528,0 0.15845,-0.0528 0.15845,0 0,0.0528 -0.15845,-0.0528 -0.15845,0 0,0.34528 0.18082,-0.0345 0.23767,0.0792 0.2038,0.4076 -0.46967,-0.16975 0.23767,0.39613 0.0461,0.0369 0.10418,0.056 0.15845,0.0792 0.319,0.13671 0.64824,0.22329 0.9507,0.39612 0.0827,0.0472 0.17034,0.0911 0.23767,0.15845 0.0187,0.0187 -0.008,0.0542 0,0.0792 0.0187,0.056 0.0606,0.10242 0.0792,0.15844 0.008,0.0251 0.0264,0.0792 0,0.0792 -0.0264,0 -0.0264,-0.0792 0,-0.0792 0.0264,0 -0.0211,0.0634 0,0.0792 0.0945,0.0709 0.20334,0.126 0.31689,0.15845 0.0762,0.0218 0.1743,-0.0475 0.23768,0 0.0668,0.0501 0.0463,0.16091 0.0792,0.23767 0.0465,0.10855 0.0677,0.24129 0.15845,0.3169 0.0837,0.0697 0.21013,0.0579 0.3169,0.0792 0.0259,0.005 0.0606,-0.0187 0.0792,0 0.091,0.091 0.0792,0.14011 0.0792,0.23767 0,0.0528 -0.0439,0.12915 0,0.15845 0.0659,0.0439 0.16974,-0.0408 0.23767,0 0.0816,0.049 0.0645,0.22202 0.15845,0.23767 0.11649,0.0194 0.20334,-0.19089 0.3169,-0.15845 0.12696,0.0363 0.13742,0.23097 0.23767,0.3169 -0.0712,0.40561 0.29087,0.10582 0.39612,0.15845 0.12062,0.0603 0.0464,0.15845 0.23768,0.15845 0.0264,0 -0.0264,-0.0792 0,-0.0792 0.0264,0 0,0.0528 0,0.0792 0,0.0528 -0.0167,0.10834 0,0.15845 0.0118,0.0354 0.0568,0.0493 0.0792,0.0792 0.0571,0.0762 0.0768,0.18869 0.15845,0.23767 0.57847,0.34709 -0.17927,-0.71048 0.55457,0.3169 0.0485,0.068 0.0463,0.16092 0.0792,0.23768 0.0465,0.10855 0.0999,0.21435 0.15845,0.3169 0.0472,0.0827 0.12094,0.15015 0.15845,0.23767 0.0429,0.10008 0.0579,0.21013 0.0792,0.31689 0.01,0.0482 -0.0132,0.15185 0,0.15846 0.0472,0.0236 0.1211,-0.0374 0.15845,0 0.0373,0.0373 -0.0528,0.15844 0,0.15844 0.059,0 0.0202,-0.15844 0.0792,-0.15844 0.0528,0 -0.0373,0.1211 0,0.15844 0.0374,0.0374 0.11121,-0.0236 0.15845,0 0.0236,0.0118 -0.025,0.0709 0,0.0792 0.0752,0.0251 0.17176,-0.0439 0.23768,0 0.0439,0.0293 -0.0104,0.10666 0,0.15845 0.0164,0.0819 0.0258,0.17352 0.0792,0.23767 0.0845,0.10144 0.22353,0.14431 0.3169,0.23767 0.0418,0.0418 0.0375,0.1167 0.0792,0.15845 0.0418,0.0418 0.15844,0.0202 0.15844,0.0792 0,0.0528 -0.15844,-0.0528 -0.15844,0 0,0.43535 0.14637,0.0671 0.23767,0.15845 0.019,0.019 -0.0191,0.29783 0,0.31689 0.12883,0.12884 0.16845,-0.12844 0.23767,0.0792 0.0167,0.0501 -0.0236,0.11121 0,0.15845 0.0118,0.0236 0.0792,-0.0264 0.0792,0 0,0.0264 -0.0939,-0.022 -0.0792,0 0.0621,0.0932 0.15845,0.15845 0.23768,0.23767 0.0264,0.0264 0.0674,0.0438 0.0792,0.0792 0.0167,0.0501 -0.0373,0.1211 0,0.15845 0.0591,0.059 0.17862,0.0202 0.23767,0.0792 0.0374,0.0374 -0.0373,0.1211 0,0.15845 0.44894,0 0.0264,-0.0528 0.15845,0.0792 0.0187,0.0187 0.0674,-0.0236 0.0792,0 0.0236,0.0472 -0.0293,0.11451 0,0.15845 0.0771,0.0385 0.18928,0.0738 0.23767,0.15845 0.0879,0.15381 0.12426,0.33926 0.23767,0.47535 0.0338,0.0406 0.15845,-0.0528 0.15845,0 0,0.0528 -0.10563,0 -0.15845,0 -0.0264,0 -0.0792,-0.0264 -0.0792,0 0,0.059 0.0606,0.10243 0.0792,0.15845 0.0396,0.11884 -0.0792,0.0792 0,0.23767 0.0591,0.1181 0.16974,0.20368 0.23768,0.3169 0.0136,0.0226 -0.0147,0.0572 0,0.0792 0.0414,0.0622 0.11701,0.0963 0.15845,0.15845 0.0147,0.022 0,0.0528 0,0.0792 0,0.0528 -0.0167,0.10834 0,0.15845 0.0118,0.0354 0.0702,0.043 0.0792,0.0792 0.0192,0.0769 -0.0354,0.16681 0,0.23767 0.0264,0.0528 0.1167,0.0375 0.15845,0.0792 0.0418,0.0417 0.0465,0.10932 0.0792,0.15845 0.0207,0.0311 0.0528,0.0528 0.0792,0.0792 0.0528,0.0792 0.10946,0.15603 0.15845,0.23768 0.0304,0.0506 0.0301,0.12569 0.0792,0.15844 0.0439,0.0293 0.11121,-0.0236 0.15845,0 0.0236,0.0118 0,0.0528 0,0.0792 0,0.0528 0.0528,0.15845 0,0.15845 -0.0528,0 -0.0528,-0.15845 0,-0.15845 0.0591,0 0.0202,0.15845 0.0792,0.15845 0.0747,0 0.0916,-0.19186 0.15845,-0.15845 0.0709,0.0354 -0.0155,0.15999 0,0.23767 0.0116,0.0579 0.0423,0.11234 0.0792,0.15845 0.40867,0.51084 0.0626,0.12651 0.39612,0.23768 0.0792,0.0264 0.16274,0.23767 0.0792,0.23767 -0.0528,0 -0.0528,-0.15845 0,-0.15845 0.0528,0 -0.0374,0.1211 0,0.15845 0.0373,0.0373 0.11316,-0.0272 0.15845,0 0.0792,0.0792 0.15844,0.15845 0.23767,0.23767 0,0.0264 -0.0187,0.0606 0,0.0792 0.0187,0.0187 0.0528,0 0.0792,0 0.0528,0.0792 0.12309,0.14927 0.15845,0.23767 0.0196,0.049 -0.0167,0.10834 0,0.15845 0.0118,0.0354 0.0674,0.0438 0.0792,0.0792 0.0167,0.0501 -0.0374,0.12111 0,0.15845 0.0373,0.0374 0.10563,0 0.15845,0 0.0264,0 0.0792,-0.0264 0.0792,0 0,0.0374 -0.0792,0.0419 -0.0792,0.0792 0,0.059 0.0792,0.0994 0.0792,0.15845 0,0.0264 -0.0606,-0.0187 -0.0792,0 -0.0187,0.0187 0,0.0528 0,0.0792 0,0.0264 0,0.0528 0,0.0792 0,0.0792 -0.0251,0.16251 0,0.23767 0.008,0.0251 0.0528,0 0.0792,0 0.0264,0.0528 0.0792,0.0994 0.0792,0.15845 0,0.0264 -0.0605,-0.0187 -0.0792,0 -0.0187,0.0187 -0.0187,0.0606 0,0.0792 0.0187,0.0187 0.0674,-0.0236 0.0792,0 0.0236,0.0472 0,0.10564 0,0.15845 0,0.0264 0,0.0528 0,0.0792 0,0.0528 -0.0373,0.1211 0,0.15845 0.0373,0.0373 0.15844,-0.0528 0.15844,0 0,0.0747 -0.12504,0.0916 -0.15844,0.15845 -0.0236,0.0472 0,0.10563 0,0.15844 0,0.0264 0.0264,0.0792 0,0.0792 -0.0264,0 0,-0.10563 0,-0.0792 0,0.10564 0,0.21127 0,0.3169 0,0.0318 -0.008,0.46329 0,0.47535 0.0328,0.0491 0.13204,0.0264 0.15844,0.0792 0.0354,0.0709 -0.025,0.16252 0,0.23768 0.008,0.025 0.0709,-0.0251 0.0792,0 0.025,0.0752 -0.0439,0.17175 0,0.23767 0.0293,0.044 0.1211,-0.0374 0.15845,0 0.0373,0.0374 0,0.10563 0,0.15845 0,0.0264 0.0264,0.0792 0,0.0792 -0.0264,0 -0.0264,-0.0792 0,-0.0792 0.0264,0 0.0264,0.0792 0,0.0792 -0.0264,0 0,-0.10563 0,-0.0792 0,0.0792 0,0.15845 0,0.23767 0,0.0264 -0.0187,0.0606 0,0.0792 0.0187,0.0187 0.0528,0 0.0792,0 0.0528,0.0792 0.12834,0.14734 0.15845,0.23767 0.0251,0.0752 0,0.15845 0,0.23768 0,0.0792 0,0.15844 0,0.23767 0,0.0528 -0.0236,0.11121 0,0.15845 0.0118,0.0236 0.0606,-0.0187 0.0792,0 0.0187,0.0187 0.0264,0.0792 0,0.0792 -0.0264,0 0,-0.10563 0,-0.0792 0,0.0792 0,0.15845 0,0.23767 0,0.0264 -0.0236,0.0674 0,0.0792 0.0472,0.0236 0.1211,-0.0373 0.15844,0 0.0374,0.0373 -0.0236,0.1112 0,0.15845 0.0118,0.0236 0.0606,-0.0187 0.0792,0 0.008,0.008 -0.009,0.27279 0,0.31689 0.0164,0.0819 0.059,0.15666 0.0792,0.23768 0.006,0.0256 -0.0146,0.0573 0,0.0792 0.0414,0.0622 0.13071,0.0891 0.15845,0.15845 0.0294,0.0736 -0.025,0.16251 0,0.23767 0.0396,0.11884 0.23768,-0.23767 0.23768,0 0,0.0528 -0.15845,-0.0528 -0.15845,0 0,0.34528 0.18082,-0.0345 0.23767,0.0792 0.0394,0.0788 -0.0313,0.222 0,0.23767 0.0472,0.0236 0.1211,-0.0373 0.15845,0 0.0269,0.0269 -0.0242,0.62572 0,0.6338 0.0903,0.0301 0.14734,-0.12834 0.23767,-0.15845 0.0251,-0.008 -0.0187,0.0606 0,0.0792 0.0673,0.0673 0.17035,0.0911 0.23768,0.15845 0.0187,0.0187 -0.0159,0.0581 0,0.0792 0.0672,0.0896 0.16768,0.15018 0.23767,0.23767 0.25007,0.31258 -0.16034,-0.002 0.23767,0.39612 0.0187,0.0187 0.0792,-0.0264 0.0792,0 0,0.32784 -0.24408,-0.25689 -0.0792,0.23768 0.0118,0.0354 0.0528,0.0528 0.0792,0.0792 -0.0264,0.13204 -0.0792,0.26147 -0.0792,0.39612 0,0.0835 0.059,0.15666 0.0792,0.23768 0.0128,0.0512 0,0.10563 0,0.15845 0,0.0528 0,0.10563 0,0.15844 0,0.0264 -0.0236,0.0674 0,0.0792 0.0472,0.0236 0.1211,-0.0373 0.15845,0 0.0374,0.0374 0,0.10563 0,0.15845 0,0.0264 0,0.0528 0,0.0792 0,0.0264 0.0264,0.0792 0,0.0792 -0.0264,0 -0.0187,-0.0606 0,-0.0792 0.0187,-0.0187 0.0528,0 0.0792,0 0.0528,0 0.11121,-0.0236 0.15845,0 0.0236,0.0118 -0.008,0.0542 0,0.0792 0.0187,0.056 0.0606,0.10243 0.0792,0.15845 0.008,0.025 -0.008,0.0542 0,0.0792 0.0187,0.056 0.0606,0.10243 0.0792,0.15845 0.008,0.0251 -0.0236,0.0674 0,0.0792 0.0472,0.0236 0.1211,-0.0374 0.15845,0 0.0374,0.0373 -0.0528,0.15844 0,0.15844 0.059,0 0.0202,-0.15844 0.0792,-0.15844 0.0528,0 0.0528,0.15844 0,0.15844 -0.0528,0 -0.0528,-0.15844 0,-0.15844 0.0528,0 0.0528,0.15844 0,0.15844 -0.0528,0 -0.0472,-0.18207 0,-0.15844 0.0852,0.0426 0.0911,0.17034 0.15845,0.23767 0.0187,0.0187 0.0572,-0.0147 0.0792,0 0.31004,0.2067 0.0571,0.092 0.15845,0.39612 0.008,0.0251 0.0556,-0.0118 0.0792,0 0.0334,0.0167 0.0438,0.0674 0.0792,0.0792 0.0501,0.0167 0.15846,-0.0528 0.15846,0 0,0.0528 -0.15846,0.0528 -0.15846,0 0,-0.059 0.0994,-0.0792 0.15846,-0.0792 0.0264,0 -0.0187,0.0606 0,0.0792 0.0187,0.0187 0.0528,0 0.0792,0 0.0528,0 0.10563,0 0.15845,0 0.0264,0 0.0674,-0.0236 0.0792,0 0.0236,0.0472 0.0528,0.15844 0,0.15844 -0.0528,0 -0.0373,-0.1211 0,-0.15844 0.0374,-0.0374 0.10563,0 0.15845,0 0.0264,0 0.0792,-0.0264 0.0792,0 0,0.059 -0.0264,0.18485 -0.0792,0.15844 -0.0528,-0.0264 0.0375,-0.11669 0.0792,-0.15844 0.0187,-0.0187 0.0528,0 0.0792,0 0.0528,0 0.15845,-0.0528 0.15845,0 0,0.0528 -0.15845,0.0528 -0.15845,0 0,-0.21127 0.36971,0.15844 0.15845,0.15844 -0.0528,0 -0.0236,-0.11121 0,-0.15844 0.0118,-0.0236 0.0528,0 0.0792,0 0.0528,0 0.12111,-0.0374 0.15845,0 0.0591,0.059 0.0792,0.15416 0.0792,0.23767 0,0.0374 -0.0792,-0.0419 -0.0792,-0.0792 0,-0.0264 0.0792,-0.0264 0.0792,0 0,0.0373 -0.0792,0.0419 -0.0792,0.0792 0,0.27585 0.11216,0.20785 0.23768,0.39612 0.0147,0.022 0,0.0528 0,0.0792 0.0264,0.0528 0.0375,0.11669 0.0792,0.15844 0.0418,0.0418 0.1167,0.0375 0.15845,0.0792 0.0418,0.0418 0.0301,0.12569 0.0792,0.15845 0.0439,0.0293 0.10564,0 0.15845,0 0.0264,0 0.0792,-0.0264 0.0792,0 0,0.0264 -0.0792,0.0264 -0.0792,0 0,-0.0264 0.0792,-0.0264 0.0792,0 0,0.0264 -0.10564,0 -0.0792,0 0.0528,0 0.11121,-0.0236 0.15845,0 0.0236,0.0118 0.0264,0.0792 0,0.0792 -0.0264,0 -0.0236,-0.0674 0,-0.0792 0.0472,-0.0236 0.10564,0 0.15845,0 0.0264,0 0.0792,-0.0264 0.0792,0 0,0.0264 -0.10564,0 -0.0792,0 0.73943,0 0.0792,-0.0792 0.23767,0.0792 0.0187,0.0187 0.0528,0 0.0792,0 0.0264,0 0.0606,0.0187 0.0792,0 0.0187,-0.0187 -0.0264,-0.0792 0,-0.0792 0.0591,0 0.15845,0.0202 0.15845,0.0792 0,0.0528 -0.15845,0.0528 -0.15845,0 0,-0.0528 0.15845,-0.0528 0.15845,0 0,0.0528 -0.21126,0 -0.15845,0 0.0792,0 0.15845,0 0.23768,0 0,0.0264 -0.0236,0.0674 0,0.0792 0.0472,0.0236 0.1211,-0.0374 0.15845,0 0.0373,0.0373 0.0528,0.15845 0,0.15845 -0.0528,0 -0.0528,-0.15845 0,-0.15845 0.0591,0 0.0375,0.11669 0.0792,0.15845 0.0418,0.0417 0.11234,0.0423 0.15845,0.0792 0.0875,0.07 0.1516,0.16595 0.23767,0.23768 0.0732,0.061 0.17672,0.0853 0.23768,0.15844 0.0756,0.0907 0.0749,0.23339 0.15845,0.3169 0.0591,0.059 0.16606,0.0363 0.23767,0.0792 0.3948,0.39479 0.007,0.0815 0.23767,0.15845 0.056,0.0187 0.0994,0.0792 0.15845,0.0792 0.0264,0 -0.0187,-0.0605 0,-0.0792 0.0374,-0.0374 0.15845,0.0528 0.15845,0 0,-0.0591 -0.0792,-0.0994 -0.0792,-0.15845 0,-0.0264 0.0674,-0.0236 0.0792,0 0.0236,0.0472 -0.0374,0.1211 0,0.15845 0.0374,0.0373 0.10834,-0.0167 0.15845,0 0.0354,0.0118 0.0528,0.0528 0.0792,0.0792 0.0792,0.0528 0.14472,0.13779 0.23767,0.15845 0.15468,0.0344 0.31787,-0.0175 0.47535,0 0.083,0.009 0.1545,0.0717 0.23767,0.0792 0.2104,0.0191 0.42594,-0.0378 0.6338,0 1.11317,0.2024 -0.53116,0.15845 0.47534,0.15845 0.0792,0 0.15845,0 0.23768,0 0.0528,0 0.15845,-0.0528 0.15845,0 0,0.0528 -0.15845,0.0528 -0.15845,0 0,-0.0528 0.15845,-0.0528 0.15845,0 0,0.0528 -0.15845,0.0528 -0.15845,0 0,-0.0528 0.1112,0.0236 0.15845,0 0.0236,-0.0118 -0.0264,-0.0792 0,-0.0792 0.0264,0 0,0.0528 0,0.0792 0.0264,-0.0792 0,-0.21126 0.0792,-0.23767 0.0709,-0.0236 0.0891,0.13071 0.15845,0.15845 0.0736,0.0294 0.15845,0 0.23767,0 0.5013,0 -0.0306,0.0439 0.47535,-0.15845 0.049,-0.0196 0.10563,0 0.15845,0 0.0792,-0.0528 0.15251,-0.11587 0.23767,-0.15845 0.0236,-0.0118 0.0792,-0.0264 0.0792,0 0,0.0264 -0.0792,0.0264 -0.0792,0 0,-0.0264 0.0528,0 0.0792,0 0.0528,0 0.10563,0 0.15844,0 0.23768,0 0.47535,0 0.71303,0 0.10563,0 0.21533,-0.029 0.31689,0 0.11356,0.0324 0.20161,0.13283 0.3169,0.15845 0.1289,0.0286 0.26408,0 0.39612,0 0.0792,0 0.15845,0 0.23768,0 0.15845,0 0.3169,0 0.47535,0 0.0792,0 0.16081,0.0192 0.23767,0 0.0362,-0.009 0.043,-0.0702 0.0792,-0.0792 0.0769,-0.0192 0.15845,0 0.23768,0 0.0528,0 0.15845,-0.0528 0.15845,0 0,0.0528 -0.21127,0 -0.15845,0 0.21126,0 0.42253,0 0.63379,0 0.58098,0 1.16196,0 1.74294,0 0.34331,0 0.68662,0 1.02992,0 0.0528,0 0.10564,0 0.15845,0 0.0792,0 0.17176,0.0439 0.23767,0 0.0439,-0.0293 -0.0373,-0.1211 0,-0.15844 0.059,-0.0591 0.15786,-0.0547 0.23768,-0.0792 0.17756,-0.0546 0.8574,-0.20731 1.10914,-0.39612 0.0211,-0.0159 -0.0187,-0.0606 0,-0.0792 0.0187,-0.0187 0.0573,0.0147 0.0792,0 0.0622,-0.0414 0.0995,-0.11259 0.15846,-0.15844 0.17931,-0.13947 0.36846,-0.26585 0.55457,-0.39613 0.078,-0.0546 0.16538,-0.0965 0.23767,-0.15845 0.11342,-0.0972 0.18719,-0.24278 0.3169,-0.3169 0.0688,-0.0393 0.16251,0.0251 0.23767,0 0.16806,-0.056 0.33119,-0.1347 0.47535,-0.23767 0.048,-0.0343 0.0375,-0.11669 0.0792,-0.15845 0.0187,-0.0187 0.0792,-0.0264 0.0792,0 0,0.0264 -0.0792,0.0264 -0.0792,0 0,-0.0264 0.0528,0 0.0792,0 0.0528,0 0.1211,0.0374 0.15845,0 0.059,-0.059 0.0113,-0.18913 0.0792,-0.23767 0.55457,-0.39612 0.3169,0 0.71302,-0.23767 0.0641,-0.0384 0.10563,-0.10564 0.15845,-0.15845 0.0792,-0.0264 0.16298,-0.0419 0.23767,-0.0792 0.0852,-0.0426 0.16333,-0.099 0.23768,-0.15845 0.0583,-0.0467 0.10563,-0.21126 0.15845,-0.15845 0.0528,0.0528 -0.15845,0.0838 -0.15845,0.15845 0,0.0528 0.1211,0.0373 0.15845,0 0.0373,-0.0373 -0.0272,-0.11316 0,-0.15845 0.0576,-0.0961 0.16594,-0.1516 0.23767,-0.23767 0.061,-0.0731 0.0911,-0.17035 0.15845,-0.23767 0.0187,-0.0187 0.0556,0.0118 0.0792,0 0.0852,-0.0426 0.15603,-0.10946 0.23768,-0.15845 0.0506,-0.0304 0.10781,-0.0489 0.15845,-0.0792 0.0816,-0.049 0.1615,-0.10132 0.23767,-0.15844 0.15845,-0.11884 0,-0.0792 0.23767,-0.23768 0.022,-0.0147 0.0556,0.0118 0.0792,0 0.36258,-0.18129 -0.33618,0.0328 0.23767,-0.15845 0.0251,-0.008 0.0573,0.0147 0.0792,0 0.0622,-0.0414 0.0963,-0.11702 0.15845,-0.15845 0.022,-0.0147 0.0528,0 0.0792,0 0.0528,-0.0264 0.1167,-0.0375 0.15845,-0.0792 0.0418,-0.0418 0.0488,-0.10782 0.0792,-0.15845 0.049,-0.0816 0.10132,-0.1615 0.15845,-0.23767 0.0224,-0.0299 0.0674,-0.0438 0.0792,-0.0792 0.0167,-0.0501 -0.0439,-0.12915 0,-0.15845 0.53476,-0.35651 0.0748,0.15845 0.23767,0.15845 0.059,0 0.0375,-0.11669 0.0792,-0.15845 0.0418,-0.0418 0.11669,-0.0375 0.15844,-0.0792 0.0187,-0.0187 -0.008,-0.0542 0,-0.0792 0.0187,-0.056 0.0528,-0.10563 0.0792,-0.15845 0.0528,-0.10563 0.0876,-0.22241 0.15845,-0.31689 0.0159,-0.0211 0.0792,-0.0264 0.0792,0 0,0.0264 -0.0674,0.0236 -0.0792,0 -0.0236,-0.0472 -0.0167,-0.10835 0,-0.15845 0.0118,-0.0354 0.0528,-0.0528 0.0792,-0.0792 0.0528,-0.0528 0.0838,-0.15845 0.15845,-0.15845 0.0528,0 -0.0528,0.15845 0,0.15845 0.059,0 0.0606,-0.10243 0.0792,-0.15845 0.008,-0.025 -0.0264,-0.0792 0,-0.0792 0.0264,0 0.0264,0.0792 0,0.0792 -0.0264,0 -0.0264,-0.0792 0,-0.0792 0.0264,0 0.0264,0.0792 0,0.0792 -0.0264,0 -0.0187,-0.0606 0,-0.0792 0.0187,-0.0187 0.0542,-0.008 0.0792,0 0.13491,0.045 0.25391,0.15845 0.39612,0.15845 1.02078,0 0.22762,-0.0717 0.55458,-0.3169 0.35033,-0.26275 0.12292,0 0.39612,0 0.0264,0 -0.0187,-0.0606 0,-0.0792 0.0187,-0.0187 0.0573,0.0147 0.0792,0 0.0622,-0.0414 0.0891,-0.1307 0.15845,-0.15844 0.0736,-0.0294 0.16252,0.0251 0.23767,0 0.11884,-0.0396 -0.23767,-0.23768 0,-0.23768 0.14085,0 -0.14084,0.42253 0,0 0.061,-0.18308 0.14062,0.0357 0.23768,-0.15845 0.47566,-0.95132 -0.54065,0.19966 0.55457,-0.71302 0.0203,-0.0169 -0.008,-0.0542 0,-0.0792 0.0187,-0.056 0.0605,-0.10243 0.0792,-0.15845 0.008,-0.0251 -0.0147,-0.0572 0,-0.0792 0.0414,-0.0622 0.10564,-0.10564 0.15845,-0.15845 0.0264,-0.0792 0.0419,-0.16298 0.0792,-0.23768 0.22447,-0.44894 0.15845,-0.0792 0.63379,-0.55457 0.14915,-0.14915 0.033,-0.3929 0.0792,-0.55457 -0.088,-0.21448 0.19592,-0.19163 0.23767,-0.3169 0.0167,-0.0501 -0.0374,-0.1211 0,-0.15845 0.0374,-0.0373 0.11121,0.0236 0.15845,0 0.0236,-0.0118 -0.0264,-0.0792 0,-0.0792 0.0264,0 0,0.10563 0,0.0792 0,-0.23767 0,-0.47535 0,-0.71302 0,-0.052 -0.009,-0.29827 0,-0.3169 0.0118,-0.0236 0.0709,0.0251 0.0792,0 0.025,-0.0752 -0.0354,-0.16681 0,-0.23767 0.66578,-0.83223 0.14017,-0.006 0.31689,-0.71302 0.006,-0.0256 0.0542,0.008 0.0792,0 0.056,-0.0187 0.11669,-0.0375 0.15845,-0.0792 0.0418,-0.0418 0.0606,-0.10244 0.0792,-0.15846 0.008,-0.025 -0.0187,-0.0605 0,-0.0792 0.0673,-0.0673 0.17035,-0.0911 0.23767,-0.15845 0.0187,-0.0187 -0.0236,-0.0674 0,-0.0792 0.0473,-0.0236 0.11121,0.0236 0.15845,0 0.0236,-0.0118 -0.0264,-0.0792 0,-0.0792 0.0374,0 0.0792,0.0419 0.0792,0.0792 0,0.10563 -0.18486,-0.0792 -0.0792,-0.0792 0.0374,0 0.0625,0.11263 0.0792,0.0792 0.0472,-0.0945 0,-0.21127 0,-0.3169 0,-0.0528 -0.0528,-0.15845 0,-0.15845 0.0528,0 0.0528,0.15845 0,0.15845 -0.0528,0 -0.0293,-0.1145 0,-0.15845 0.0327,-0.0491 0.11669,-0.0375 0.15845,-0.0792 0.33965,-0.33966 -0.10953,-0.0186 0,-0.23768 0.0167,-0.0334 0.0792,-0.0419 0.0792,-0.0792 0,-0.0264 -0.0728,0.0256 -0.0792,0 -0.43535,-0.29977 0.0792,-0.26147 0.0792,-0.39612 0,-0.0374 -0.0674,-0.0438 -0.0792,-0.0792 -0.0167,-0.0501 0,-0.10563 0,-0.15845 0,-0.19844 -0.022,0.022 0.23767,-0.23767 0.0187,-0.0187 -0.006,-0.0536 0,-0.0792 0.0202,-0.081 0.0202,-0.17862 0.0792,-0.23767 0.0619,-0.0619 0.2158,0.0438 0.23768,0 0.0236,-0.0472 -0.0293,-0.1145 0,-0.15845 0.0327,-0.0491 0.10781,-0.0488 0.15845,-0.0792 0.0816,-0.049 0.18233,-0.081 0.23767,-0.15845 0.0827,-0.11573 0.0853,-0.27418 0.15845,-0.39613 0.0136,-0.0226 0.0528,0 0.0792,0 0,-0.0528 0,-0.10563 0,-0.15844 0,-0.0264 -0.0187,-0.0605 0,-0.0792 0.0187,-0.0187 0.0792,-0.0264 0.0792,0 0,0.0264 -0.0792,0.0264 -0.0792,0 0,-0.0264 0.10563,0 0.0792,0 -0.0528,0 -0.10563,0 -0.15845,0 -0.0264,0 0.0792,-0.0264 0.0792,0 0,0.0374 -0.0528,0.0528 -0.0792,0.0792"
       id="path4518"
       inkscape:connector-curvature="0" />
  </g>
</svg>
