<?xml version="1.0" encoding="UTF-8" standalone="no"?>
<svg
   xmlns:dc="http://purl.org/dc/elements/1.1/"
   xmlns:cc="http://creativecommons.org/ns#"
   xmlns:rdf="http://www.w3.org/1999/02/22-rdf-syntax-ns#"
   xmlns:svg="http://www.w3.org/2000/svg"
   xmlns="http://www.w3.org/2000/svg"
   xmlns:sodipodi="http://sodipodi.sourceforge.net/DTD/sodipodi-0.dtd"
   xmlns:inkscape="http://www.inkscape.org/namespaces/inkscape"
   version="1.0"
   width="320"
   height="320"
   id="svg2"
   sodipodi:docname="CanBuoy_G.svg"
   inkscape:version="0.92.4 (5da689c313, 2019-01-14)">
  <metadata
     id="metadata10413">
    <rdf:RDF>
      <cc:Work
         rdf:about="">
        <dc:format>image/svg+xml</dc:format>
        <dc:type
           rdf:resource="http://purl.org/dc/dcmitype/StillImage" />
        <dc:title></dc:title>
      </cc:Work>
    </rdf:RDF>
  </metadata>
  <sodipodi:namedview
     pagecolor="#ffffff"
     bordercolor="#666666"
     borderopacity="1"
     objecttolerance="10"
     gridtolerance="10"
     guidetolerance="10"
     inkscape:pageopacity="0"
     inkscape:pageshadow="2"
     inkscape:window-width="3840"
     inkscape:window-height="2104"
     id="namedview10411"
     showgrid="false"
     inkscape:zoom="1"
     inkscape:cx="179.5"
     inkscape:cy="229.86611"
     inkscape:window-x="-16"
     inkscape:window-y="-16"
     inkscape:window-maximized="1"
     inkscape:current-layer="svg2" />
  <defs
     id="defs4" />
  <path
     d="M 101.28736,56.698045 55.769819,221.34199 H 31.936215 v 20.35557 h 88.791895 c 3.85023,19.91183 18.64299,34.75061 36.35795,34.75066 17.72085,0 32.51375,-14.82881 36.35795,-34.75066 h 89.25921 v -0.22494 -20.13063 h -22.99243 l 26.91798,-94.24291 z m 15.0479,31.039426 141.03891,57.467939 -21.59046,76.13658 h -42.3397 c -3.8442,-19.92186 -18.6371,-34.75068 -36.35795,-34.75068 -17.71496,5e-5 -32.50772,14.83883 -36.35795,34.75068 H 79.6969 Z m 40.7508,116.735249 c 12.38225,0 22.43163,12.09189 22.43163,26.99083 0,14.89892 -10.04938,26.9908 -22.43163,26.9908 -12.38228,0 -22.43163,-12.09188 -22.43163,-26.9908 0,-14.89894 10.04935,-26.99083 22.43163,-26.99083 z"
     id="path90440"
     style="fill:#000407;fill-opacity:1;fill-rule:evenodd;stroke:none;stroke-width:1.2399801;stroke-miterlimit:4;stroke-dasharray:none;stroke-opacity:1"
     inkscape:connector-curvature="0" />
  <path
     style="fill:#01ff07;fill-opacity:1;fill-rule:evenodd;stroke:none;stroke-width:0.37795275;stroke-miterlimit:4;stroke-dasharray:none;stroke-dashoffset:0;stroke-opacity:1"
     d="m 80.894937,218.78389 c 0.291342,-0.9625 8.400384,-30.49122 18.020094,-65.61938 9.619709,-35.12815 17.660649,-64.039631 17.868749,-64.247732 0.44486,-0.444868 137.84374,55.450652 139.00523,56.549002 0.64479,0.60975 -9.32767,37.67808 -18.37957,68.31811 l -1.99413,6.75 h -20.79937 -20.79936 l -1.25477,-4.25 c -3.68769,-12.49051 -13.37713,-23.85354 -23.60266,-27.6794 -7.34048,-2.74643 -16.6091,-2.73473 -23.99927,0.0303 -10.06263,3.76491 -20.18381,15.73269 -23.39707,27.66585 l -1.1399,4.23325 h -20.02884 c -18.61022,0 -19.991326,-0.12395 -19.499133,-1.75 z"
     id="path10958"
     inkscape:connector-curvature="0" />
</svg>
