<?xml version="1.0" encoding="UTF-8" standalone="no"?>
<!-- Created with Inkscape (http://www.inkscape.org/) -->

<svg
   xmlns:dc="http://purl.org/dc/elements/1.1/"
   xmlns:cc="http://creativecommons.org/ns#"
   xmlns:rdf="http://www.w3.org/1999/02/22-rdf-syntax-ns#"
   xmlns:svg="http://www.w3.org/2000/svg"
   xmlns="http://www.w3.org/2000/svg"
   xmlns:sodipodi="http://sodipodi.sourceforge.net/DTD/sodipodi-0.dtd"
   xmlns:inkscape="http://www.inkscape.org/namespaces/inkscape"
   version="1.0"
   width="41.518246"
   height="53.35548"
   id="svg2"
   sodipodi:docname="cliffs.svg"
   inkscape:version="0.92.4 (5da689c313, 2019-01-14)">
  <metadata
     id="metadata9990">
    <rdf:RDF>
      <cc:Work
         rdf:about="">
        <dc:format>image/svg+xml</dc:format>
        <dc:type
           rdf:resource="http://purl.org/dc/dcmitype/StillImage" />
        <dc:title></dc:title>
      </cc:Work>
    </rdf:RDF>
  </metadata>
  <sodipodi:namedview
     pagecolor="#ffffff"
     bordercolor="#666666"
     borderopacity="1"
     objecttolerance="10"
     gridtolerance="10"
     guidetolerance="10"
     inkscape:pageopacity="0"
     inkscape:pageshadow="2"
     inkscape:window-width="4200"
     inkscape:window-height="2569"
     id="namedview9988"
     showgrid="false"
     inkscape:zoom="1.9666667"
     inkscape:cx="106.16353"
     inkscape:cy="-200.79647"
     inkscape:window-x="-16"
     inkscape:window-y="-16"
     inkscape:window-maximized="1"
     inkscape:current-layer="svg2" />
  <defs
     id="defs4" />
  <path
     style="fill:#fbfffe;fill-opacity:1;fill-rule:evenodd;stroke:none"
     d="m 203.96862,141.35534 c 2.76,0 5,2.24 5,5 0,2.76 -2.24,5 -5,5 -2.76,0 -5,-2.24 -5,-5 0,-2.76 2.24,-5 5,-5 z"
     id="path10537"
     inkscape:connector-curvature="0" />
  <path
     style="fill:#000000;stroke-width:0.98819393"
     d="m 24.877187,3.4398472 c 0.588649,8.6568908 0.872926,26.4859178 0.471481,29.5699768 -0.240766,1.84966 -0.181516,6.738508 0.131666,10.86411 0.460498,6.066237 0.836247,7.459718 1.964343,7.284826 0.767285,-0.118475 2.449198,-0.124622 3.737754,-0.01263 2.154446,0.187245 2.290506,-0.114274 1.692108,-3.749812 C 32.516643,45.221932 32.24756,38.069 32.276578,31.500912 c 0.02902,-6.568088 -0.08021,-14.448654 -0.242719,-17.51237 -0.162513,-3.063714 0.121844,-5.6390799 0.631905,-5.7230343 1.398462,-0.230182 1.636448,2.5083093 1.940924,22.3340573 0.153814,10.015498 0.660841,18.836978 1.126726,19.603285 0.465884,0.766308 1.733998,1.247304 2.818029,1.068876 1.084032,-0.178428 2.36858,0.112021 2.854552,0.645444 C 43.35686,54.058518 19.308289,53.7126 13.627974,51.517617 11.386541,50.651478 7.1313016,49.779565 4.1718858,49.58003 -0.17863952,49.286701 -0.81684022,49.02309 0.83864938,48.20322 3.5003048,46.885054 3.6774017,45.00054 2.3318204,32.3142 1.7155013,26.503452 1.5231878,21.038234 1.9044554,20.169271 c 0.433537,-0.98809 1.3593304,3.89296 2.4714151,13.030012 1.5181961,12.473714 1.9927536,14.574632 3.2455551,14.368425 0.807047,-0.132837 2.221431,-0.09872 3.1430784,0.07582 1.3421,0.254162 1.560277,-0.384021 1.095872,-3.205495 -0.325004,-1.974551 0.09193,-4.81636 0.948668,-6.466007 1.952551,-3.759655 2.419849,-10.110807 1.27765,-17.364861 -0.882913,-5.607375 -0.290844,-9.357993 1.30567,-8.271041 0.443852,0.302188 1.004366,5.004925 1.245587,10.450531 0.319833,7.220306 -0.04491,11.15627 -1.347128,14.536886 -2.396383,6.221127 -1.529913,11.567983 2.121032,13.088569 5.221198,2.174579 6.145667,0.760137 5.916359,-9.052088 -0.115012,-4.921423 -0.05732,-12.183492 0.1282,-16.137933 0.18552,-3.954439 -5.77e-4,-11.201961 -0.413552,-16.1056017 -0.486982,-5.7823966 -0.3399,-8.98335617 0.418519,-9.10818927 0.745688,-0.1227378 1.258668,1.12059087 1.415809,3.43154467 z"
     id="path10581"
     inkscape:connector-curvature="0" />
</svg>
