<?xml version="1.0" encoding="UTF-8" standalone="no"?>
<svg
   xmlns:dc="http://purl.org/dc/elements/1.1/"
   xmlns:cc="http://creativecommons.org/ns#"
   xmlns:rdf="http://www.w3.org/1999/02/22-rdf-syntax-ns#"
   xmlns:svg="http://www.w3.org/2000/svg"
   xmlns="http://www.w3.org/2000/svg"
   xmlns:sodipodi="http://sodipodi.sourceforge.net/DTD/sodipodi-0.dtd"
   xmlns:inkscape="http://www.inkscape.org/namespaces/inkscape"
   version="1.0"
   width="94.832642"
   height="127.60626"
   id="svg2"
   sodipodi:docname="Conical_SPP.svg"
   inkscape:version="0.92.4 (5da689c313, 2019-01-14)">
  <metadata
     id="metadata14900">
    <rdf:RDF>
      <cc:Work
         rdf:about="">
        <dc:format>image/svg+xml</dc:format>
        <dc:type
           rdf:resource="http://purl.org/dc/dcmitype/StillImage" />
        <dc:title></dc:title>
      </cc:Work>
    </rdf:RDF>
  </metadata>
  <sodipodi:namedview
     pagecolor="#ffffff"
     bordercolor="#666666"
     borderopacity="1"
     objecttolerance="10"
     gridtolerance="10"
     guidetolerance="10"
     inkscape:pageopacity="0"
     inkscape:pageshadow="2"
     inkscape:window-width="3840"
     inkscape:window-height="2104"
     id="namedview14898"
     showgrid="false"
     inkscape:zoom="9.3609821"
     inkscape:cx="67.606462"
     inkscape:cy="50.528604"
     inkscape:window-x="-16"
     inkscape:window-y="-16"
     inkscape:window-maximized="1"
     inkscape:current-layer="svg2" />
  <defs
     id="defs4" />
  <path
     d="M 64.40625,40.856254 58.25,59.200007 c -3.94627,0.0654 -7.53201,2.22066 -11.28125,5.1875 -3.99919,3.16463 -8.22839,7.49537 -12.65625,12.59375 C 25.53834,87.084107 16.03302,100.14813 7.15625,112.29376 H 0 v 5.65625 h 29.6875 c 1.28732,5.53295 6.23327,9.65624 12.15625,9.65625 5.92495,0 10.87095,-4.12052 12.15625,-9.65625 h 29.84375 v -0.0625 -5.59375 H 76.125 c -1.27604,-11.32703 -2.18516,-23.372843 -4,-33.093753 -0.95465,-5.1134 -2.12258,-9.57496 -4,-13.15625 -1.31784,-2.51385 -3.23573,-4.74391 -5.6875,-5.9375 l 6,-17.875003 z M 58.625,66.168757 c 1.08458,0.0606 1.99502,0.67144 3.28125,3.125 1.28623,2.45356 2.45169,6.40931 3.34375,11.1875 1.65735,8.87736 2.55992,20.531843 3.8125,31.812503 H 54 c -1.2853,-5.53573 -6.2313,-9.65625 -12.15625,-9.65625 -5.92298,10e-6 -10.86893,4.1233 -12.15625,9.65625 H 15.84375 c 7.97792,-10.90142 16.24031,-22.071863 23.75,-30.718753 4.26874,-4.91516 8.30177,-9.01484 11.71875,-11.71875 3.41698,-2.70391 6.21148,-3.74839 7.3125,-3.6875 z M 41.84375,107.60626 c 4.14,0 7.5,3.36 7.5,7.5 0,4.14 -3.36,7.5 -7.5,7.5 -4.14,0 -7.5,-3.36 -7.5,-7.5 0,-4.14 3.36,-7.5 7.5,-7.5 z M 51.8125,29.125004 69.75,20.1875 60.8125,2.25 65.2875,0 l 9.275,18.0625 17.95,-8.9625 2.2375,4.5 -18.275,8.837504 8.9375,17.9375 -4.15,2.35 -9.275,-18.0625 -17.9375,8.95 z"
     id="path12694"
     style="fill:#000407;fill-opacity:1;fill-rule:evenodd;stroke:none"
     inkscape:connector-curvature="0" />
  <path
     style="fill:#fffa00;fill-opacity:1;fill-rule:evenodd;stroke:#000000;stroke-width:0.40375331;stroke-miterlimit:4;stroke-dasharray:none;stroke-dashoffset:0;stroke-opacity:1"
     d="m 16.00931,112.21437 c 0,-0.20097 10.11924,-13.768083 14.14398,-18.963203 9.12274,-11.77555 16.63036,-19.95526 21.90993,-23.87132 2.55794,-1.89732 4.73811,-2.98452 6.27208,-3.12773 0.51622,-0.0482 0.70059,-0.0128 1.19609,0.22963 1.99823,0.97764 4.07174,5.9552 5.49977,13.20247 1.0206,5.17955 1.63953,9.99422 3.05553,23.768883 0.32615,3.17274 0.66399,6.41016 0.75076,7.19426 0.0868,0.7841 0.15776,1.46913 0.15776,1.52228 0,0.0567 -3.08437,0.0966 -7.46526,0.0966 h -7.46526 l -0.2753,-0.88131 c -1.17805,-3.77132 -4.07351,-6.77529 -7.78591,-8.0777 -3.17838,-1.11506 -6.80242,-0.88202 -9.80398,0.63045 -2.9972,1.51029 -5.38931,4.35209 -6.31666,7.50414 l -0.24255,0.82442 H 22.8248 c -3.74852,0 -6.81549,-0.0233 -6.81549,-0.0519 z"
     id="path15445"
     inkscape:connector-curvature="0" />
  <path
     style="fill:#fffa00;fill-opacity:1;fill-rule:evenodd;stroke:#000000;stroke-width:0.40375331;stroke-miterlimit:4;stroke-dasharray:none;stroke-dashoffset:0;stroke-opacity:1"
     d="M 80.88259,41.845773 C 80.65036,41.41716 78.56837,37.37696 76.25596,32.867551 73.94354,28.358141 72.0127,24.668625 71.9652,24.668625 c -0.0475,0 -3.03062,1.472821 -6.62914,3.272936 -3.59853,1.800115 -7.60452,3.787852 -8.90221,4.417193 l -2.35943,1.144257 -1.0854,-2.173872 -1.0854,-2.173872 8.89298,-4.444982 c 4.89114,-2.44474 8.91353,-4.464266 8.93865,-4.487835 0.0251,-0.02357 -1.95096,-4.072333 -4.39129,-8.997254 L 60.907,2.270793 63.07255,1.189549 c 2.16121,-1.079076 2.16585,-1.080772 2.31468,-0.845761 0.082,0.129516 2.16451,4.16536 4.62775,8.968542 2.46324,4.803182 4.53954,8.733058 4.61399,8.733058 0.0744,0 4.12532,-1.99509 9.00192,-4.433532 l 8.86656,-4.433532 1.09098,2.185047 c 0.60004,1.201776 1.06864,2.204143 1.04134,2.227482 -0.0273,0.02334 -4.11172,2.003138 -9.07647,4.399554 -4.96476,2.396415 -9.04867,4.376416 -9.07536,4.400004 -0.0267,0.02359 0.16085,0.461708 0.41675,0.973603 0.2559,0.511895 2.25718,4.546705 4.44729,8.966245 l 3.98202,8.035526 -1.93534,1.098131 c -1.06443,0.603972 -1.96874,1.11231 -2.00958,1.129642 -0.0408,0.01733 -0.26426,-0.319173 -0.49649,-0.747785 z"
     id="path15447"
     inkscape:connector-curvature="0" />
</svg>
