<?xml version="1.0" encoding="UTF-8" standalone="no"?>
<svg
   xmlns:dc="http://purl.org/dc/elements/1.1/"
   xmlns:cc="http://creativecommons.org/ns#"
   xmlns:rdf="http://www.w3.org/1999/02/22-rdf-syntax-ns#"
   xmlns:svg="http://www.w3.org/2000/svg"
   xmlns="http://www.w3.org/2000/svg"
   xmlns:sodipodi="http://sodipodi.sourceforge.net/DTD/sodipodi-0.dtd"
   xmlns:inkscape="http://www.inkscape.org/namespaces/inkscape"
   version="1.0"
   width="320"
   height="320"
   id="svg2"
   sodipodi:docname="Conical_G.svg"
   inkscape:version="0.92.4 (5da689c313, 2019-01-14)">
  <metadata
     id="metadata15473">
    <rdf:RDF>
      <cc:Work
         rdf:about="">
        <dc:format>image/svg+xml</dc:format>
        <dc:type
           rdf:resource="http://purl.org/dc/dcmitype/StillImage" />
        <dc:title></dc:title>
      </cc:Work>
    </rdf:RDF>
  </metadata>
  <sodipodi:namedview
     pagecolor="#ffffff"
     bordercolor="#666666"
     borderopacity="1"
     objecttolerance="10"
     gridtolerance="10"
     guidetolerance="10"
     inkscape:pageopacity="0"
     inkscape:pageshadow="2"
     inkscape:window-width="3840"
     inkscape:window-height="2104"
     id="namedview15471"
     showgrid="false"
     inkscape:zoom="10.921146"
     inkscape:cx="170.16949"
     inkscape:cy="177.62712"
     inkscape:window-x="-16"
     inkscape:window-y="-16"
     inkscape:window-maximized="1"
     inkscape:current-layer="svg2" />
  <defs
     id="defs4" />
  <path
     d="M 216.40625,144.09375 C 212.45998,144.15916 208.87424,146.31441 205.125,149.28125 C 201.12581,152.44588 196.89661,156.77662 192.46875,161.875 C 183.69459,171.97785 174.18927,185.04187 165.3125,197.1875 L 158.15625,197.1875 L 158.15625,202.84375 L 187.84375,202.84375 C 189.13107,208.3767 194.07702,212.49999 200,212.5 C 205.92495,212.5 210.87095,208.37948 212.15625,202.84375 L 242,202.84375 L 242,202.78125 L 242,197.1875 L 234.28125,197.1875 C 233.00521,185.86047 232.09609,173.81466 230.28125,164.09375 C 229.3266,158.98035 228.15867,154.51879 226.28125,150.9375 C 224.40383,147.35621 221.31312,144.32408 217.1875,144.09375 C 216.92093,144.07901 216.66933,144.08939 216.40625,144.09375 z M 216.78125,151.0625 C 217.86583,151.12305 218.77627,151.73394 220.0625,154.1875 C 221.34873,156.64106 222.51419,160.59681 223.40625,165.375 C 225.0636,174.25236 225.96617,185.90684 227.21875,197.1875 L 212.15625,197.1875 C 210.87095,191.65177 205.92495,187.53125 200,187.53125 C 194.07702,187.53126 189.13107,191.65455 187.84375,197.1875 L 174,197.1875 C 181.97792,186.28608 190.24031,175.11564 197.75,166.46875 C 202.01874,161.55359 206.05177,157.45391 209.46875,154.75 C 212.88573,152.04609 215.68023,151.00161 216.78125,151.0625 z M 200,192.5 C 204.14,192.5 207.5,195.86 207.5,200 C 207.5,204.14 204.14,207.5 200,207.5 C 195.86,207.5 192.5,204.14 192.5,200 C 192.5,195.86 195.86,192.5 200,192.5 z"
     id="path90440"
     style="fill:#000407;fill-opacity:1;fill-rule:evenodd;stroke:none"
     transform="translate(-40,-40)" />
  <path
     style="fill:#00fa00;fill-opacity:1;fill-rule:evenodd;stroke:#000000;stroke-width:0.34607428;stroke-miterlimit:4;stroke-dasharray:none;stroke-dashoffset:0;stroke-opacity:1"
     d="m 134.29627,156.85396 c 0.12392,-0.16367 0.96572,-1.30709 1.87067,-2.54094 13.28315,-18.11078 20.92354,-27.57718 27.86513,-34.52472 3.26814,-3.27093 5.15795,-4.89846 7.46512,-6.42905 1.8811,-1.24793 4.20347,-2.26514 5.17148,-2.26514 2.08813,0 4.0854,3.44382 5.70868,9.84329 1.44243,5.68645 2.25587,11.48987 3.95297,28.20217 0.46292,4.55863 0.77109,7.46816 0.82193,7.76018 l 0.0438,0.2518 h -7.49958 -7.49958 l -0.14954,-0.5265 c -1.14329,-4.02546 -4.26253,-7.26187 -8.218,-8.52673 -1.3134,-0.42 -2.30905,-0.56807 -3.82367,-0.56865 -1.51323,-5.5e-4 -2.50329,0.14658 -3.82366,0.56833 -3.85639,1.23179 -6.86227,4.24283 -8.1004,8.11429 l -0.29993,0.93783 -6.85539,7.1e-4 -6.85538,7.2e-4 z"
     id="path16018"
     inkscape:connector-curvature="0" />
</svg>
