<?xml version="1.0" encoding="UTF-8" standalone="no"?>
<!-- Created with Inkscape (http://www.inkscape.org/) -->

<svg
   xmlns:dc="http://purl.org/dc/elements/1.1/"
   xmlns:cc="http://creativecommons.org/ns#"
   xmlns:rdf="http://www.w3.org/1999/02/22-rdf-syntax-ns#"
   xmlns:svg="http://www.w3.org/2000/svg"
   xmlns="http://www.w3.org/2000/svg"
   xmlns:sodipodi="http://sodipodi.sourceforge.net/DTD/sodipodi-0.dtd"
   xmlns:inkscape="http://www.inkscape.org/namespaces/inkscape"
   width="14.467862mm"
   height="54.752666mm"
   viewBox="0 0 14.467862 54.752667"
   version="1.1"
   id="svg8"
   inkscape:version="0.92.4 (5da689c313, 2019-01-14)"
   sodipodi:docname="current.svg">
  <defs
     id="defs2" />
  <sodipodi:namedview
     id="base"
     pagecolor="#ffffff"
     bordercolor="#666666"
     borderopacity="1.0"
     inkscape:pageopacity="0.0"
     inkscape:pageshadow="2"
     inkscape:zoom="7.2319767"
     inkscape:cx="10.848369"
     inkscape:cy="85.047752"
     inkscape:document-units="mm"
     inkscape:current-layer="layer1"
     showgrid="false"
     inkscape:window-width="3840"
     inkscape:window-height="2104"
     inkscape:window-x="-16"
     inkscape:window-y="-16"
     inkscape:window-maximized="1" />
  <metadata
     id="metadata5">
    <rdf:RDF>
      <cc:Work
         rdf:about="">
        <dc:format>image/svg+xml</dc:format>
        <dc:type
           rdf:resource="http://purl.org/dc/dcmitype/StillImage" />
        <dc:title></dc:title>
      </cc:Work>
    </rdf:RDF>
  </metadata>
  <g
     inkscape:label="Calque 1"
     inkscape:groupmode="layer"
     id="layer1"
     transform="translate(-61.007679,-73.493596)">
    <path
       style="fill:none;stroke:#000000;stroke-width:1.66499996;stroke-linecap:butt;stroke-linejoin:miter;stroke-miterlimit:4;stroke-dasharray:none;stroke-opacity:1"
       d="m 71.066893,127.59619 c -0.061,-0.0488 -0.12771,-0.0911 -0.18292,-0.14634 -0.007,-0.007 0.005,-0.14478 0,-0.14634 -0.0347,-0.0116 -0.0793,0.0203 -0.10976,0 -0.008,-0.005 0.006,-0.14348 0,-0.14634 -0.0218,-0.0109 -0.0559,0.0173 -0.0732,0 -0.0244,-0.20732 0.0122,-0.0366 0,-0.0366 -0.0122,0 -0.0122,-0.0366 0,-0.0366 0.0122,0 0.0122,0.0366 0,0.0366 -0.0122,0 -0.0122,-0.0366 0,-0.0366 0.0122,0 0.0122,0.0366 0,0.0366 -0.0172,0 -0.0212,-0.0289 -0.0366,-0.0366 -0.0109,-0.005 -0.0327,0.0116 -0.0366,0 -0.0116,-0.0347 0,-0.0732 0,-0.10976 0,-0.0122 0.007,-0.0264 0,-0.0366 -0.0191,-0.0287 -0.0554,-0.0436 -0.0732,-0.0732 -0.0199,-0.0331 -0.008,-0.0838 -0.0366,-0.10976 -0.0553,-0.0502 -0.34437,-0.24178 -0.4756,-0.32926 -0.0732,-0.0488 -0.13869,-0.1117 -0.21951,-0.14634 -0.0159,-0.007 -0.0194,0.0366 -0.0366,0.0366 -0.0122,0 0.0109,-0.0311 0,-0.0366 -0.0293,-0.0146 -0.0805,0.0146 -0.10976,0 -0.0154,-0.008 -0.0231,-0.0258 -0.0366,-0.0366 -0.0476,-0.0381 -0.0967,-0.0743 -0.14634,-0.10976 -0.0358,-0.0256 -0.0746,-0.0468 -0.10976,-0.0732 -0.0138,-0.0103 -0.0244,-0.0244 -0.0366,-0.0366 -0.12482,-0.12482 -0.2341,-0.24015 -0.40244,-0.32927 -0.0889,-0.047 -0.20274,-0.0282 -0.29268,-0.0732 -0.0617,-0.0309 -0.0925,-0.10324 -0.14634,-0.14634 -0.01,-0.008 -0.0244,0 -0.0366,0 -0.0366,-0.0122 -0.0825,-0.009 -0.10975,-0.0366 -0.0244,-0.20731 0.0122,-0.0366 0,-0.0366 -0.0122,0 0.0122,-0.0366 0,-0.0366 -0.0386,0 -0.0825,0.0639 -0.10976,0.0366 -0.009,-0.009 0.005,-0.0257 0,-0.0366 -0.0244,-0.0366 -0.0488,-0.0732 -0.0732,-0.10975 -0.0122,0 -0.028,0.009 -0.0366,0 -0.01,-0.01 0.009,-0.12058 0,-0.14634 -0.009,-0.0259 -0.028,-0.0473 -0.0366,-0.0732 -0.007,-0.0198 0,-0.13388 0,-0.14635 0,-0.0122 0.0122,0.0366 0,0.0366 -0.0273,0 -0.0459,-0.0366 -0.0732,-0.0366 -0.0173,0 0.0193,0.0366 0.0366,0.0366 0.0122,0 -0.0122,-0.0366 0,-0.0366 0.0122,0 0.0122,0.0366 0,0.0366 -0.0273,0 -0.0539,-0.0173 -0.0732,-0.0366 -0.009,-0.009 0.007,-0.0263 0,-0.0366 -0.0799,-0.12558 -0.16534,-0.24786 -0.256103,-0.36585 -0.0055,-0.007 -0.216725,-0.21505 -0.219509,-0.21951 -0.03481,-0.0557 -0.0524,-0.12062 -0.07317,-0.18292 -0.04086,-0.12257 -0.03659,-0.17561 -0.03659,-0.29269 0,-0.0122 -0.0086,-0.028 0,-0.0366 0.0086,-0.009 0.03113,0.0109 0.03659,0 0.0109,-0.0218 0,-0.0488 0,-0.0732 0,-0.0122 0.0122,0.0366 0,0.0366 -0.0122,0 0,-0.0244 0,-0.0366 0,-0.0122 0,-0.0244 0,-0.0366 0,-0.0122 -0.0109,-0.0311 0,-0.0366 0.207314,-0.10365 0.03658,0.0518 0.03658,0 0,-0.0122 0.03113,0.0109 0.03659,0 0.0109,-0.0218 0,-0.0488 0,-0.0732 0,-0.061 -0.0067,-0.12232 0,-0.18292 0.0056,-0.05 0.02947,-0.0966 0.03658,-0.14634 0.0052,-0.0362 0,-0.0732 0,-0.10976 0,-0.10975 0,-0.21951 0,-0.32927 0,-0.0488 0,-0.0976 0,-0.14634 0,-0.0122 0,-0.0488 0,-0.0366 0,0.0244 0,0.0488 0,0.0732 0,0.0122 -0.0122,-0.0366 0,-0.0366 0.0122,0 0.0122,0.0366 0,0.0366 -0.0122,0 -0.0122,-0.0366 0,-0.0366 0.0122,0 0.0122,0.0366 0,0.0366 -0.0122,0 -0.0122,-0.0366 0,-0.0366 0.0122,0 0,0.0488 0,0.0366 0,-0.061 0,-0.12195 0,-0.18292 0,-0.12195 0,-0.2439 0,-0.36585 0,-0.0732 0,-0.14634 0,-0.21952 0,-0.0244 -0.01725,-0.0559 0,-0.0732 0.01725,-0.0173 0.05136,0.0109 0.07317,0 0.0109,-0.006 -0.0086,-0.028 0,-0.0366 0.0086,-0.009 0.03113,0.0109 0.03659,0 0.0109,-0.0218 -0.01725,-0.0559 0,-0.0732 0.01725,-0.0172 0.06226,0.0218 0.07317,0 0.02183,-0.0436 0,-0.0976 0,-0.14634 0,-0.0244 0.0077,-0.05 0,-0.0732 -0.0054,-0.0164 -0.03658,-0.0193 -0.03658,-0.0366 0,-0.0244 0.06226,0.0218 0.07317,0 0.0109,-0.0218 -0.0096,-0.0507 0,-0.0732 0.02802,-0.0654 0.07796,-0.11932 0.109752,-0.18292 0.005,-0.0109 -0.0109,-0.0311 0,-0.0366 0.0364,-0.0182 0.10252,0.0145 0.10976,0 0.0109,-0.0218 -0.0135,-0.0529 0,-0.0732 0.002,-0.10301 0.0825,-0.009 0.10975,-0.0366 0.009,-0.009 -0.007,-0.0267 0,-0.0366 0.0554,-0.0775 0.12757,-0.14201 0.18293,-0.21951 0.002,-0.002 0,-0.13629 0,-0.14634 0,-0.0122 -0.0109,-0.0311 0,-0.0366 0.19512,0 -0.0244,0.0244 0.0732,-0.0732 0.0122,-0.0122 0.0193,0.0366 0.0366,0.0366 0.0273,0 0.0463,-0.0321 0.0732,-0.0366 0.0481,-0.008 0.10732,0.0293 0.14634,0 0.27203,-0.20402 -0.23548,-0.0435 0.0732,-0.14634 0.0366,-0.0122 0.13415,0.0366 0.14634,0 0.0139,-0.0417 -0.0593,-0.068 -0.0732,-0.10976 -0.004,-0.0116 0.0311,0.0109 0.0366,0 0.0109,-0.0218 0,-0.0488 0,-0.0732 0,-0.0122 0,0.0488 0,0.0366 0,-0.0244 0,-0.0488 0,-0.0732 0,-0.0101 -0.009,0.13563 0.0366,0 0.008,-0.0232 0,-0.0488 0,-0.0732 0,-0.0122 -0.0118,-0.0336 0,-0.0366 0.0473,-0.0118 0.10452,0.0251 0.14635,0 0.11025,-0.0662 -0.005,-0.1134 0.0366,-0.18292 0.0762,-0.12701 0.082,-0.10976 0.18293,-0.10976 0.0122,0 -0.0366,0.0122 -0.0366,0 0,-0.0122 0.0366,0.0122 0.0366,0 0,-0.0273 -0.0366,-0.0459 -0.0366,-0.0732 0,-0.0173 0.0222,-0.027 0.0366,-0.0366 0.0592,-0.0394 0.13264,-0.0595 0.18292,-0.10976 0.0173,-0.0173 0,-0.0488 0,-0.0732 0,-0.0122 0.0122,0.0366 0,0.0366 -0.0122,0 -0.007,-0.0268 0,-0.0366 0.0311,-0.0414 0.0732,-0.0732 0.10976,-0.10975 0.0122,-0.0122 0.0244,-0.0244 0.0366,-0.0366 0.0244,-0.0244 0.0404,-0.0623 0.0732,-0.0732 0.0164,-0.005 0.0244,0.0244 0.0366,0.0366 0.0854,-0.0488 0.16816,-0.10237 0.2561,-0.14634 0.0109,-0.005 0.025,0.004 0.0366,0 0.12612,-0.042 0.0271,-0.0366 0.10976,-0.0366 0.0122,0 0.0311,0.0109 0.0366,0 0.0109,-0.0218 0,-0.0488 0,-0.0732 0,-0.0122 0.0122,0.0366 0,0.0366 -0.0122,0 -0.0109,-0.0311 0,-0.0366 0.0218,-0.0109 0.0493,0.005 0.0732,0 0.0378,-0.008 0.0723,-0.0272 0.10976,-0.0366 0.0118,-0.003 0.028,0.009 0.0366,0 0.0311,-0.0311 0.0421,-0.0787 0.0732,-0.10976 0.009,-0.009 0.0311,0.0109 0.0366,0 0.0109,-0.0218 -0.0244,-0.0732 0,-0.0732 0.0244,0 -0.0244,0.0732 0,0.0732 0.15945,0 -0.0159,-0.0835 0.0366,-0.10975 0.0218,-0.0109 0.0505,0.009 0.0732,0 0.28676,0.12708 0.0635,-0.0866 0.10976,-0.10976 0.0218,-0.0109 0.0488,0 0.0732,0 0.0122,0 0.0366,-0.0122 0.0366,0 0,0.0122 -0.0488,0 -0.0366,0 0.0798,0 0.14728,0.0116 0.21951,-0.0366 0.0101,-0.007 0,-0.0244 0,-0.0366 0,-0.0244 0,-0.0488 0,-0.0732 0,-0.0122 0.0122,0.0366 0,0.0366 -0.0122,0 -0.0109,-0.0311 0,-0.0366 0.0218,-0.0109 0.0488,0 0.0732,0 0.0122,0 -0.0366,0.0122 -0.0366,0 0,-0.0173 0.0289,-0.0212 0.0366,-0.0366 0.005,-0.0109 -0.009,-0.028 0,-0.0366 0.009,-0.009 0.0311,0.0109 0.0366,0 0.0109,-0.0218 -0.0135,-0.0529 0,-0.0732 0.095,-0.14248 0.0732,0.0756 0.0732,-0.10975 0,-0.0122 0.0122,0.0366 0,0.0366 -0.0122,0 -0.0122,-0.0366 0,-0.0366 0.0173,0 0.0212,0.0289 0.0366,0.0366 0.0453,0.0226 0.10089,-0.0554 0.10976,-0.0732 0.0488,-0.0976 -0.0244,-0.0732 -0.0732,-0.0732 -0.0122,0 0.0257,0.005 0.0366,0 0.0154,-0.008 0.0289,-0.0212 0.0366,-0.0366 0.0173,-0.0345 0.029,-0.0719 0.0366,-0.10976 0.005,-0.0239 -0.0135,-0.0529 0,-0.0732 0.052,-0.078 0.12438,-0.007 0.18293,-0.0366 0.0109,-0.005 -0.009,-0.028 0,-0.0366 0.009,-0.009 0.0311,0.0109 0.0366,0 0.0109,-0.0218 -0.0173,-0.0559 0,-0.0732 0.0173,-0.0173 0.0559,-0.0173 0.0732,0 0.12133,0.12134 -0.15436,0 -0.0366,0 0.0122,0 0,0.0244 0,0.0366 0.0122,-0.0122 0.0212,-0.0289 0.0366,-0.0366 0.0345,-0.0173 0.0825,-0.009 0.10975,-0.0366 0.0183,-0.0183 -0.0183,-0.0915 0,-0.10976 0.009,-0.009 0.0311,0.0109 0.0366,0 0.0109,-0.0218 -0.0173,-0.0559 0,-0.0732 0.0595,-0.0595 0.0778,0.0593 0.10975,-0.0366 0.008,-0.0231 0,-0.0488 0,-0.0732 0,-0.0122 0.0122,0.0366 0,0.0366 -0.0122,0 0,-0.0244 0,-0.0366 0,-0.0122 0,-0.0244 0,-0.0366 0,-0.0366 0,-0.0732 0,-0.10975 0,-0.0488 -0.0218,-0.10272 0,-0.14635 0.0109,-0.0218 0.0514,0.0109 0.0732,0 0.0109,-0.006 -0.009,-0.028 0,-0.0366 0.009,-0.009 0.0366,-0.0122 0.0366,0 0,0.0122 -0.0366,0.0122 -0.0366,0 0,-0.0173 0.0311,-0.0202 0.0366,-0.0366 0.0116,-0.0347 0,-0.0732 0,-0.10975 0,-0.14634 0,-0.29268 0,-0.43902 0,-0.10976 0,-0.21951 0,-0.32927 0,-0.0122 -0.0109,-0.0311 0,-0.0366 0.0218,-0.0109 0.0559,0.0173 0.0732,0 0.0122,-0.0122 -0.0311,-0.0202 -0.0366,-0.0366 -0.008,-0.0231 -0.0109,-0.0514 0,-0.0732 0.005,-0.0109 0.0366,-0.0122 0.0366,0 0,0.0122 -0.028,0.009 -0.0366,0 -0.009,-0.009 0,-0.0244 0,-0.0366 0,-0.0244 -0.0109,-0.0513 0,-0.0732 0.005,-0.0109 0.0366,0.0122 0.0366,0 0,-0.0173 -0.0366,-0.0193 -0.0366,-0.0366 0,-0.0122 0.0366,-0.0122 0.0366,0 0,0.0122 -0.028,0.009 -0.0366,0 -0.009,-0.009 0,-0.0244 0,-0.0366 0,-0.0244 0,-0.0488 0,-0.0732 0,-0.0122 0.0122,0.0366 0,0.0366 -0.0122,0 -0.009,-0.028 0,-0.0366 0.009,-0.009 0.0366,0.0122 0.0366,0 0,-0.0622 -0.0366,-0.12075 -0.0366,-0.18293 0,-0.50464 -0.018,-0.12217 0.0732,-0.18292 0.0287,-0.0191 0.0488,-0.0488 0.0732,-0.0732 0.0122,-0.0122 0.0337,-0.0196 0.0366,-0.0366 0.01,-0.0602 0.003,-0.12203 0,-0.18293 -0.009,-0.1831 -0.0264,-0.36573 -0.0366,-0.54878 -0.003,-0.0609 0,-0.12195 0,-0.18292 0,-0.0122 0.0122,0.0366 0,0.0366 -0.0122,0 0,-0.0244 0,-0.0366 0,-0.0122 -0.009,-0.028 0,-0.0366 0.009,-0.009 0.0366,-0.0122 0.0366,0 0,0.0122 -0.0311,0.0109 -0.0366,0 -0.0109,-0.0218 0,-0.0488 0,-0.0732 0,-0.0122 0,0.0488 0,0.0366 0,-0.15854 0,-0.31707 0,-0.47561 0,-0.061 0.0132,-0.1234 0,-0.18292 -0.0118,-0.0532 -0.0529,-0.0957 -0.0732,-0.14635 -0.005,-0.0113 0.009,-0.028 0,-0.0366 -0.009,-0.009 -0.0257,0.005 -0.0366,0 -0.1734,-0.0867 -0.0417,-0.0732 -0.18293,-0.0732 -0.0122,0 0.0366,-0.0122 0.0366,0 0,0.0488 -0.0854,-0.0366 -0.0366,-0.0366 0.0122,0 0.0122,0.0366 0,0.0366 -0.0172,0 -0.027,-0.0222 -0.0366,-0.0366 -0.39095,-0.58642 0.19712,0.26418 -0.21951,-0.40243 -0.0244,-0.0244 -0.0488,-0.0488 -0.0732,-0.0732 0,0.0122 0.0122,0.0366 0,0.0366 -0.0122,0 0.009,-0.028 0,-0.0366 -0.009,-0.009 -0.028,-0.009 -0.0366,0 -0.009,0.009 0,0.0488 0,0.0366 0,-0.15027 0.0218,-0.0118 -0.14634,-0.14634 -0.0213,-0.017 -0.0196,-0.0519 -0.0366,-0.0732 -0.0366,-0.0366 -0.0732,-0.0732 -0.10975,-0.10976 0,-0.0122 0.007,-0.0264 0,-0.0366 -0.0244,-0.0244 -0.0488,-0.0488 -0.0732,-0.0732 -0.0122,0 -0.0272,0.008 -0.0366,0 -0.25519,-0.21266 -0.10015,-0.15213 -0.36585,-0.32927 -0.0101,-0.007 -0.0311,0.0109 -0.0366,0 -0.0109,-0.0218 0.0173,-0.0559 0,-0.0732 -0.0173,-0.0173 -0.0488,0 -0.0732,0 -0.0122,0 0.0366,-0.0122 0.0366,0 0,0.0122 -0.0244,0 -0.0366,0 -0.11776,0 0.0625,0.009 -0.0732,-0.0366 -0.10292,-0.0343 -0.10975,0.0777 -0.10975,-0.0732 0,-0.0122 0.0109,0.0311 0,0.0366 -0.0218,0.0109 -0.0514,0.0109 -0.0732,0 -0.0109,-0.005 -0.0122,-0.0366 0,-0.0366 0.0122,0 0.009,0.028 0,0.0366 -0.009,0.009 -0.025,0.004 -0.0366,0 -0.0259,-0.009 -0.0505,-0.0215 -0.0732,-0.0366 -0.0143,-0.01 -0.0228,-0.0263 -0.0366,-0.0366 -0.0352,-0.0264 -0.0787,-0.0421 -0.10976,-0.0732 -0.009,-0.009 0.009,-0.028 0,-0.0366 -0.0311,-0.0311 -0.072,-0.0506 -0.10975,-0.0732 -0.0234,-0.014 -0.0539,-0.0173 -0.0732,-0.0366 -0.009,-0.009 0.0311,-0.0109 0.0366,0 0.0109,0.0218 0,0.0488 0,0.0732 0,0.0122 0,-0.0244 0,-0.0366 0,-0.0122 0.009,-0.028 0,-0.0366 -0.0907,-0.0907 -0.0497,0.002 -0.14634,-0.0366 -0.0366,-0.0244 -0.0732,-0.0488 -0.10976,-0.0732 0,-0.0122 0.009,-0.028 0,-0.0366 -0.0106,-0.0106 -0.12845,0.0119 -0.14634,0 -0.10975,-0.0732 -0.0366,-0.0549 -0.10975,-0.10975 -0.0352,-0.0264 -0.0732,-0.0488 -0.10976,-0.0732 -0.0488,-0.0244 -0.10271,-0.0404 -0.14634,-0.0732 -0.01,-0.007 0.009,-0.028 0,-0.0366 -0.009,-0.009 -0.0244,0 -0.0366,0 -0.061,0 -0.13415,0.0366 -0.18293,0 -0.0293,-0.022 0.0164,-0.077 0,-0.10976 -0.0488,-0.061 -0.0976,-0.12195 -0.14634,-0.18292 0,-0.0122 0.005,-0.0253 0,-0.0366 -0.0202,-0.0506 -0.0415,-0.10196 -0.0732,-0.14634 -0.127,-0.17781 -0.10976,-0.0341 -0.10976,-0.18293 0,-0.0122 0.0122,0.0366 0,0.0366 -0.0273,0 -0.0539,-0.0173 -0.0732,-0.0366 -0.009,-0.009 0.005,-0.0257 0,-0.0366 -0.008,-0.0154 -0.0302,-0.0206 -0.0366,-0.0366 -0.043,-0.10742 -0.0476,-0.23166 -0.10976,-0.32927 -0.0293,-0.046 -0.11227,-0.0306 -0.14634,-0.0732 -0.0229,-0.0286 0.0259,-0.0839 0,-0.10975 -0.0259,-0.0259 -0.0746,0.0101 -0.10975,0 -0.0524,-0.015 -0.10778,-0.0346 -0.14634,-0.0732 -0.0122,-0.0122 0.0289,-0.0212 0.0366,-0.0366 0.005,-0.0109 0.0109,-0.0311 0,-0.0366 -0.0218,-0.0109 -0.0623,0.0218 -0.0732,0 -0.0273,-0.0545 0,-0.12196 0,-0.18293 0,-0.0122 0.004,-0.025 0,-0.0366 -0.009,-0.0259 -0.028,-0.0473 -0.0366,-0.0732 -0.004,-0.0116 0.0109,-0.0311 0,-0.0366 -0.0218,-0.0109 -0.0488,0 -0.0732,0 -0.0122,0 0.0366,-0.0122 0.0366,0 0,0.0122 -0.0366,0.0122 -0.0366,0 0,-0.0122 0.0366,0.0122 0.0366,0 0,-0.0273 -0.0321,-0.0463 -0.0366,-0.0732 -0.0323,-0.19397 -0.055,-0.38957 -0.07317,-0.58536 -0.256887,-2.76152 0.17922,-0.57263 -0.146341,-1.06098 -0.0068,-0.0102 0,-0.0244 0,-0.0366 0,-0.12195 0,-0.2439 0,-0.36585 0,-0.2955 0.01479,-0.0724 -0.03658,-0.32926 -0.0072,-0.0359 0,-0.0732 0,-0.10976 0,-0.0122 0.0122,0.0366 0,0.0366 -0.0122,0 0,-0.0244 0,-0.0366 0,-0.0122 -0.0086,-0.028 0,-0.0366 0.03109,-0.0311 0.07866,-0.0421 0.109754,-0.0732 0.0086,-0.009 -0.0109,-0.0311 0,-0.0366 0.0218,-0.0109 0.05593,0.0173 0.07317,0 0.01725,-0.0172 0,-0.0488 0,-0.0732 0,-0.0122 0.0122,0.0366 0,0.0366 -0.0122,0 -0.0122,-0.0366 0,-0.0366 0.01725,0 0.01934,0.0366 0.03659,0.0366 0.0122,0 -0.009,-0.028 0,-0.0366 0.0224,-0.0224 0.0957,-0.0312 0.10975,-0.0732 0,-0.20731 -0.0244,-0.0122 0.0366,-0.0732 0.009,-0.009 0,-0.0244 0,-0.0366 0,-0.0244 -0.0135,-0.0529 0,-0.0732 0.0151,-0.0227 0.0473,-0.028 0.0732,-0.0366 0.0116,-0.004 0.0311,0.0109 0.0366,0 0.0109,-0.0218 0,-0.0488 0,-0.0732 0,-0.0122 -0.007,-0.0264 0,-0.0366 -0.0903,-0.11076 0.0995,-0.0629 0.10975,-0.0732 0.009,-0.009 -0.005,-0.0257 0,-0.0366 0.008,-0.0154 0.0311,-0.0202 0.0366,-0.0366 0.008,-0.0232 -0.0173,-0.0559 0,-0.0732 0.0172,-0.0172 0.05,0.008 0.0732,0 0.0164,-0.005 0.0202,-0.0311 0.0366,-0.0366 0.0231,-0.008 0.0488,0 0.0732,0 0.0122,0 0.0311,0.0109 0.0366,0 0.0146,-0.0293 -0.0146,-0.0805 0,-0.10975 0.22522,-0.45046 -0.17974,0.62233 0.21951,-0.47561 0.0488,-0.13415 -0.0366,0.0488 -0.0366,-0.0366 0,-0.0244 0.0623,0.0218 0.0732,0 0.0109,-0.0218 0,-0.0488 0,-0.0732 0,-0.0122 0,0.0244 0,0.0366 0,0.0122 -0.0116,0.0404 0,0.0366 0.2685,-0.179 -0.0139,-0.0366 0.18293,-0.0366 0.0122,0 -0.009,-0.028 0,-0.0366 0.009,-0.009 0.025,0.004 0.0366,0 0.095,-0.0317 0.0732,-0.0235 0.0732,-0.10975 0,-0.0122 -0.009,0.028 0,0.0366 0.009,0.009 0.028,0.009 0.0366,0 0.009,-0.009 -0.0122,-0.0366 0,-0.0366 0.0173,0 0.0202,0.0311 0.0366,0.0366 0.12133,0.0405 0.0341,-0.0113 0.10975,-0.0366 0.0232,-0.008 0.05,0.008 0.0732,0 0.0164,-0.005 0.0202,-0.0311 0.0366,-0.0366 0.0232,-0.008 0.0529,0.0135 0.0732,0 0.0227,-0.0151 0.0173,-0.0539 0.0366,-0.0732 0.009,-0.009 -0.009,0.028 0,0.0366 0.009,0.009 0.028,0.009 0.0366,0 0.009,-0.009 -0.0109,-0.0311 0,-0.0366 0.0218,-0.0109 0.0488,0 0.0732,0 0.0122,0 0.028,0.009 0.0366,0 0.009,-0.009 -0.0109,-0.0311 0,-0.0366 0.20732,-0.10366 0.0366,0.0518 0.0366,0 0,-0.0122 0.0311,0.0109 0.0366,0 0.0109,-0.0218 0,-0.0488 0,-0.0732 0,-0.0122 -0.0122,0.0366 0,0.0366 0.0173,0 0.0289,-0.0212 0.0366,-0.0366 0.005,-0.0109 -0.0109,-0.0311 0,-0.0366 0.0218,-0.0109 0.0488,0 0.0732,0 0.0122,0 0.028,0.009 0.0366,0 0.009,-0.009 -0.009,-0.028 0,-0.0366 0.009,-0.009 0.0366,-0.0122 0.0366,0 0,0.0122 -0.042,0.0109 -0.0366,0 0.0154,-0.0309 0.0488,-0.0488 0.0732,-0.0732 0.0122,-0.0122 0.0202,-0.0311 0.0366,-0.0366 0.20732,-0.0691 0.0366,0.0345 0.0366,0 0,-0.0122 0.028,0.009 0.0366,0 0.0193,-0.0193 0.0139,-0.058 0.0366,-0.0732 0.0203,-0.0135 0.0488,0 0.0732,0 0.0562,0 0.11436,0.007 0.14634,-0.0732 0.0143,-0.0358 -0.0366,-0.0712 -0.0366,-0.10976 0,-0.14508 0.0988,-0.0146 0.14634,-0.10976 0.0164,-0.0327 -0.0116,-0.0751 0,-0.10975 0.004,-0.0116 0.0303,0.0105 0.0366,0 0.2309,-0.38483 -0.15089,0.043 0.21951,-0.47561 0.0602,-0.0842 0.14634,-0.14634 0.21951,-0.21951 0.0366,-0.0366 0.0613,-0.0916 0.10976,-0.10976 0.0571,-0.0214 0.12998,0.0302 0.18292,0 0.0473,-0.0271 0.0529,-0.0957 0.0732,-0.14634 0.005,-0.0113 -0.0109,-0.0311 0,-0.0366 0.0218,-0.0109 0.0488,0 0.0732,0 0.017,0 0.10111,0.0156 0.21951,-0.0732 0.01,-0.007 -0.009,-0.028 0,-0.0366 0.009,-0.009 0.028,0.009 0.0366,0 0.009,-0.009 0,-0.0244 0,-0.0366 0,-0.0244 0,-0.0488 0,-0.0732 0,-0.0366 0,-0.0732 0,-0.10975 0,-0.0122 0.0122,0.0366 0,0.0366 -0.0122,0 0,-0.0244 0,-0.0366 0,-0.0732 -0.002,-0.14638 0,-0.21952 0.01,-0.32934 0.0285,-0.6584 0.0366,-0.9878 0.004,-0.17068 0,-0.34146 0,-0.51219 0,-0.0122 -0.009,-0.028 0,-0.0366 0.009,-0.009 0.0366,-0.0122 0.0366,0 0,0.0122 -0.0482,0.004 -0.0366,0 0.0842,-0.0281 0.18602,-0.0186 0.2561,-0.0732 0.25126,-7.9e-4 0.0104,-0.19332 0.0732,-0.25609 0.0122,-0.0122 0.0193,0.0366 0.0366,0.0366 0.0122,0 -0.009,-0.028 0,-0.0366 0.009,-0.009 0.028,0.009 0.0366,0 0.061,-0.061 -0.13415,-0.0366 0.0732,-0.0366 0.0122,0 -0.0311,0.0109 -0.0366,0 -0.0109,-0.0218 -0.015,-0.0539 0,-0.0732 0.29276,-0.37641 0.202,-0.11133 0.36585,-0.43902 0.005,-0.0109 0,-0.0244 0,-0.0366 0,-0.0244 0,-0.0488 0,-0.0732 0,-0.0976 0,-0.19512 0,-0.29269 0,-0.0244 0,-0.0488 0,-0.0732 0,-0.0122 -0.007,-0.0264 0,-0.0366 0.0191,-0.0287 0.0577,-0.04232 0.0732,-0.07317 0.005,-0.0109 -0.028,0.0086 -0.0366,0 -0.009,-0.0086 0,-0.02439 0,-0.03658 0,-0.03659 0.005,-0.07345 0,-0.109757 -0.0107,-0.08557 -0.028,-0.170291 -0.0366,-0.256096 -0.004,-0.0364 0,-0.07317 0,-0.109757 0,-0.0122 0.0109,-0.03113 0,-0.03658 -0.0218,-0.0109 -0.0559,-0.01725 -0.0732,0 -0.0122,0.0122 0.0366,0.01934 0.0366,0.03658 0,0.0122 -0.029,0.0095 -0.0366,0 -0.0444,-0.05553 -0.0629,-0.12941 -0.10976,-0.182925 -0.0401,-0.04589 -0.10825,-0.06214 -0.14634,-0.109754 -0.0244,-0.207317 0.0122,-0.03659 0,-0.03659 -0.0122,0 0.004,-0.02503 0,-0.03658 -0.009,-0.02588 -0.0173,-0.05389 -0.0366,-0.07317 -0.10254,-0.102534 -0.0666,0.05317 -0.18293,-0.109758 -0.0382,-0.05344 -0.0501,-0.121433 -0.0732,-0.182925 -0.0135,-0.03611 -0.009,-0.08249 -0.0366,-0.109757 -0.0173,-0.01725 -0.0559,0.01725 -0.0732,0 -0.0173,-0.01725 0,-0.04878 0,-0.07317 -0.0366,0 -0.075,0.01156 -0.10976,0 -0.0116,-0.0039 0,-0.02439 0,-0.03658 0,-0.02439 0,-0.04878 0,-0.07317 0,-0.01627 0.0122,0.101627 -0.0366,0.03658 -0.0327,-0.04363 -0.0373,-0.105296 -0.0732,-0.146338 -0.0514,-0.05877 -0.12771,-0.09113 -0.18292,-0.146341 -0.009,-0.0086 0.0109,-0.03113 0,-0.03659 -0.0218,-0.0109 -0.0529,0.01352 -0.0732,0 -0.0227,-0.01513 -0.0148,-0.05681 -0.0366,-0.07317 -0.0309,-0.02313 -0.0825,-0.0093 -0.10975,-0.03658 -0.0173,-0.01725 0,-0.04878 0,-0.07317 0,-0.0122 0.0122,0.03658 0,0.03658 -0.0122,0 -0.0122,-0.03658 0,-0.03658 0.0122,0 0.0122,0.03658 0,0.03658 -0.0244,0 0.0135,-0.05288 0,-0.07317 -0.0191,-0.0287 -0.0611,-0.04087 -0.0732,-0.07317 -0.0677,-0.180411 0.0277,-0.201059 -0.10976,-0.292679 -0.0101,-0.0068 -0.0244,0 -0.0366,0 -0.0244,0 -0.0514,0.0109 -0.0732,0 -0.0109,-0.0055 0.007,-0.02683 0,-0.03659 -0.031,-0.04139 -0.0684,-0.07871 -0.10976,-0.109754 -0.01,-0.0073 -0.0244,0 -0.0366,0 -0.0366,-0.02439 -0.0787,-0.04208 -0.10975,-0.07317 -0.009,-0.0086 0.0109,-0.03113 0,-0.03659 -0.0364,-0.0182 -0.10252,0.01447 -0.10976,0 -0.0109,-0.0218 0.0173,-0.05592 0,-0.07317 -0.22044,-0.22044 -0.0158,0.07482 -0.18292,-0.03658 -0.0227,-0.01513 -0.0226,-0.04979 -0.0366,-0.07317 -0.0226,-0.03771 -0.0421,-0.07867 -0.0732,-0.109757 -0.009,-0.0086 -0.025,0.0039 -0.0366,0 -0.0259,-0.0086 -0.0539,-0.0173 -0.0732,-0.03658 -0.009,-0.0086 0.0366,0.0122 0.0366,0 0,-0.02727 -0.0366,-0.0459 -0.0366,-0.07317 0,-0.01725 0.0366,0.01934 0.0366,0.03658 0,0.0122 -0.0244,0 -0.0366,0 -0.0122,0 -0.028,0.0086 -0.0366,0 -0.009,-0.0086 0.009,-0.02796 0,-0.03658 -0.009,-0.0086 -0.0244,0 -0.0366,0 -0.0102,0 -0.17721,0.0029 -0.18293,0 -0.019,-0.0095 0.0291,-0.09035 0,-0.109757 -0.0304,-0.02029 -0.075,0.01156 -0.10976,0 -0.0116,-0.0039 0.009,-0.02796 0,-0.03658 -0.009,-0.0086 -0.0244,0 -0.0366,0 -0.0976,0 -0.0732,-0.02439 -0.0732,0.07317 0,0.0122 0.009,-0.02796 0,-0.03659 -0.0767,-0.07671 -0.0437,0.286742 -0.10976,-0.109754 -0.006,-0.03804 0.0488,-0.07317 0.0366,-0.109755 -0.008,-0.02315 -0.0596,0.02029 -0.0732,0 0,-0.298781 0.0366,0 -0.0732,-0.109757 -0.006,-0.0058 0.006,-0.10391 0,-0.109754 -0.009,-0.0086 -0.0264,0.0068 -0.0366,0 -0.0287,-0.01913 -0.0445,-0.05404 -0.0732,-0.07317 -0.0203,-0.01352 -0.0559,0.01725 -0.0732,0 -0.0173,-0.01725 0.0218,-0.06226 0,-0.07317 -0.13821,-0.06911 -0.0468,0.01016 -0.0732,0.03658 -0.009,0.0086 -0.0244,0 -0.0366,0 -0.0244,0 -0.0488,0 -0.0732,0 -0.0122,0 0.0366,-0.0122 0.0366,0 0,0.0122 -0.028,0.0086 -0.0366,0 -0.009,-0.0086 0.009,-0.02796 0,-0.03658 -0.005,-0.0045 -0.12339,0 -0.14634,0 -0.0122,0 -0.0311,0.0109 -0.0366,0 -0.0183,-0.03659 0.009,-0.07317 0,-0.109758 -0.009,-0.03741 -0.0311,-0.07158 -0.0366,-0.109754 -5.3e-4,-0.0036 0.008,-0.231693 0,-0.256096 -0.005,-0.01635 -0.0289,-0.02117 -0.0366,-0.03659 -0.005,-0.0109 0,-0.02439 0,-0.03658 -0.0366,-0.02439 -0.0787,-0.04208 -0.10976,-0.07317 -0.0311,-0.03109 -0.0421,-0.07867 -0.0732,-0.109757 -0.009,-0.0086 -0.0327,0.01156 -0.0366,0 -0.0116,-0.03471 0.0203,-0.07931 0,-0.109754 -0.0135,-0.02029 -0.0559,0.01725 -0.0732,0 -0.0172,-0.01725 0.008,-0.05003 0,-0.07317 -0.0538,-0.161496 -0.0366,0.132919 -0.0366,-0.109757 0,-0.0122 0.0122,0.03659 0,0.03659 -0.0173,0 -0.0289,-0.02117 -0.0366,-0.03659 -0.005,-0.0109 0,-0.02439 0,-0.03658 0,-0.03659 0.006,-0.07367 0,-0.109754 -0.006,-0.03804 -0.029,-0.07194 -0.0366,-0.109757 -0.007,-0.03631 0,-0.144489 0,-0.182925 0,-0.09756 0,-0.195123 0,-0.292682 0,-0.0244 0,-0.04878 0,-0.07317 0,-0.0122 -0.009,-0.02796 0,-0.03659 0.009,-0.0086 0.0366,0.0122 0.0366,0 0,-0.02727 -0.0173,-0.05389 -0.0366,-0.07317 -0.009,-0.0086 0.0122,0.03659 0,0.03659 -0.0173,0 -0.0212,-0.02887 -0.0366,-0.03659 -0.0345,-0.01725 -0.0825,-0.0093 -0.10976,-0.03658 -0.0173,-0.01725 0.0513,0.0109 0.0732,0 0.0109,-0.0054 0,-0.02439 0,-0.03658 0,-0.02439 0.0173,-0.05593 0,-0.07317 -0.0172,-0.01725 -0.0514,0.0109 -0.0732,0 -0.0109,-0.0055 0,-0.02439 0,-0.03659 0,-0.02439 0,-0.04878 0,-0.07317 0,-0.0122 0.0122,0.03659 0,0.03659 -0.0122,0 -0.0122,-0.03659 0,-0.03659 0.0122,0 0.0122,0.03659 0,0.03659 -0.0173,0 -0.0289,-0.02117 -0.0366,-0.03659 -0.0183,-0.03658 0.0366,-0.07317 0,-0.109755 -0.0173,-0.01725 -0.0488,0 -0.0732,0 -0.0122,0 0.0366,-0.0122 0.0366,0 0,0.0122 -0.028,0.0086 -0.0366,0 -0.009,-0.0086 0,-0.02439 0,-0.03659 0,-0.06098 0,-0.12195 0,-0.182925 0,-0.08537 0,-0.170731 0,-0.256099 0,-0.121949 0.0101,-0.244321 0,-0.36585 -0.002,-0.02717 -0.028,-0.0473 -0.0366,-0.07317 -0.008,-0.02315 0,-0.04878 0,-0.07317 0,-0.03659 -0.005,-0.07354 0,-0.109757 0.007,-0.04978 0.0267,-0.09704 0.0366,-0.146341 0.007,-0.03587 0,-0.07317 0,-0.109754 0,-0.0122 0.0122,0.03658 0,0.03658 -0.0122,0 0,-0.02439 0,-0.03658 0,-0.0122 0,-0.02439 0,-0.03658 0,-0.07317 0,-0.146341 0,-0.219512 0,-0.03171 -0.007,-0.125148 0,-0.146341 0.0708,-0.212468 0.0237,-0.04302 0.0366,-0.03659 0.0218,0.0109 0.0488,0 0.0732,0 0.0122,0 -0.028,0.0086 -0.0366,0 -0.009,-0.0086 -0.009,-0.02796 0,-0.03658 0.009,-0.0086 0.028,0.0086 0.0366,0 0.009,-0.0086 -0.009,-0.02796 0,-0.03659 0.009,-0.0086 0.0311,0.0109 0.0366,0 0.0109,-0.0218 -0.0173,-0.05592 0,-0.07317 0.0122,-0.0122 0.0193,0.03659 0.0366,0.03659 0.004,0 -0.005,-0.108029 0,-0.109757 0.0347,-0.01156 0.0793,0.02029 0.10976,0 0.0203,-0.01352 -0.0218,-0.06226 0,-0.07317 0.0244,-0.0122 0.0459,0.03659 0.0732,0.03659 0.0122,0 -0.009,-0.02796 0,-0.03659 0.009,-0.0086 0.028,0.0086 0.0366,0 0.009,-0.0086 -0.0109,-0.03113 0,-0.03658 0.0218,-0.0109 0.0488,0 0.0732,0 0.0614,0 0.0552,0.0086 0.10976,-0.07317 0.0366,-0.05488 -0.0732,-0.03658 0,-0.109754 0.0122,-0.0122 0.0193,0.03658 0.0366,0.03658 0.0122,0 0,-0.02439 0,-0.03658 0,-0.04878 0,-0.09756 0,-0.146341 0,-0.0122 0,0.02439 0,0.03658 0,0.0122 0.0122,0.03659 0,0.03659 -0.0122,0 0,-0.04878 0,-0.03659 0,0.02439 0.0244,0.07317 0,0.07317 -0.0244,0 0.005,-0.04925 0,-0.07317 -0.008,-0.03782 -0.0366,-0.07119 -0.0366,-0.109755 0,-0.0122 0.028,0.0086 0.0366,0 0.009,-0.0086 -0.0122,-0.03659 0,-0.03659 0.0122,0 0,0.04878 0,0.03659 0,-0.03659 0,-0.07317 0,-0.109757 0,-0.0122 0.0122,0.03659 0,0.03659 -0.0122,0 -0.0122,-0.03659 0,-0.03659 0.0122,0 0.0122,0.03659 0,0.03659 -0.0122,0 -0.009,-0.02796 0,-0.03659 0.009,-0.0086 0.028,0.0086 0.0366,0 0.009,-0.0086 -0.009,-0.02796 0,-0.03658 0.005,-0.0045 0.1234,0 0.14634,0 0.0244,0 0.0623,0.02183 0.0732,0 0.0122,-0.02439 -0.0366,-0.0459 -0.0366,-0.07317 0,-0.0122 0.0366,0.0122 0.0366,0 0,-0.03857 -0.0366,-0.07119 -0.0366,-0.109758 0,-0.01725 0.027,-0.02223 0.0366,-0.03658 0.0122,-0.02439 0.0244,-0.04878 0.0366,-0.07317 0.0122,0 0.028,0.0086 0.0366,0 0.009,-0.0086 -0.0109,-0.03113 0,-0.03659 0.0218,-0.0109 0.0513,0.0109 0.0732,0 0.0109,-0.0054 -0.004,-0.025 0,-0.03658 0.009,-0.02588 0.0139,-0.05804 0.0366,-0.07317 0.20731,-0.02439 0.0366,0.0122 0.0366,0 0,-0.02439 0.0559,0.01725 0.0732,0 0.009,-0.0086 0.0109,-0.04204 0,-0.03658 -0.0309,0.01543 -0.0423,0.05774 -0.0732,0.07317 -0.0109,0.0055 -0.009,-0.02796 0,-0.03659 0.009,-0.0086 0.028,0.0086 0.0366,0 0.009,-0.0088 -0.009,-0.137538 0,-0.146341 0.009,-0.0086 0.0311,0.0109 0.0366,0 0.009,-0.01812 -0.0114,-0.129204 0,-0.146341 0.0191,-0.0287 0.0664,-0.03935 0.0732,-0.07317 0.008,-0.03781 -0.0342,-0.07126 -0.0366,-0.109754 -0.01,-0.158229 0,-0.317071 0,-0.475607 0,-0.03659 0,-0.07317 0,-0.109757 0,-0.0122 0,-0.04878 0,-0.03658 0,0.08536 0,0.17073 0,0.256095 0,0.02439 -0.0172,0.05593 0,0.07317 0.12195,0.121952 0.0549,-0.03658 0.0732,-0.03658 0.0173,0 0.0202,0.03113 0.0366,0.03658 0.0231,0.0077 0.0514,-0.0109 0.0732,0 0.0976,0.04878 -0.0854,0.03658 -0.0366,0.03658 0.0976,0 0.0732,0.02439 0.0732,-0.07317 0,-0.0122 -0.0109,-0.03113 0,-0.03659 0.0218,-0.0109 0.0488,0 0.0732,0 0.0122,-0.02439 0.0173,-0.05389 0.0366,-0.07317 0.009,-0.0086 -0.009,0.02796 0,0.03659 0.009,0.0086 0.0244,0 0.0366,0 0.0244,0 0.0513,0.0109 0.0732,0 0.0109,-0.0054 -0.0122,-0.03659 0,-0.03659 0.0122,0 -0.009,0.02796 0,0.03659 0.009,0.0086 0.0244,0 0.0366,0 0.0244,0 0.0488,0 0.0732,0 0.0488,0 0.0976,0 0.14635,0 0.0122,0 -0.0488,0 -0.0366,0 0.0244,0 0.0488,0 0.0732,0 0.0244,0 0.05,0.0077 0.0732,0 0.0164,-0.0054 0.0202,-0.03113 0.0366,-0.03659 1.6e-4,-5.6e-5 0.10972,3.4e-5 0.10975,0 0.0431,-0.04312 0.0552,-0.119071 0.10976,-0.146341 0.085,-0.04251 -0.0115,0.128854 0.10975,-0.07317 0.0199,-0.03307 -0.002,-0.109754 0.0366,-0.109754 0.0366,0 0,0.07317 0,0.109754 0,0.0122 -0.0122,-0.03658 0,-0.03658 0.0122,0 0,0.02439 0,0.03658 0.0244,0 0.0513,0.0109 0.0732,0 0.0218,-0.0109 -0.0173,-0.05592 0,-0.07317 0.009,-0.0086 0.0244,0 0.0366,0 0.0366,0 0.0732,0 0.10976,0 0.0122,0 -0.0366,0.0122 -0.0366,0 0,-0.02439 0.0529,0.01352 0.0732,0 0.0287,-0.01913 0.0423,-0.05775 0.0732,-0.07317 0.0109,-0.0054 0.0122,0.03659 0,0.03659 -0.0122,0 -0.01,-0.02897 0,-0.03659 0.0555,-0.04442 0.1169,-0.08335 0.18292,-0.109754 0.0113,-0.0045 -0.005,0.04749 0,0.03658 0.0172,-0.03449 0.0272,-0.07234 0.0366,-0.109755 0.003,-0.01183 -0.0116,-0.03273 0,-0.03659 0.20034,-0.06678 0.0431,0.151799 0.25609,-0.146339 0.0224,-0.03138 0.004,-0.08992 0.0366,-0.109757 0.0418,-0.02511 0.0976,0 0.14634,0 0.0122,0 0.028,0.0086 0.0366,0 0.0311,-0.03109 0.0421,-0.07866 0.0732,-0.109754 4e-5,-3.7e-5 0.10959,5.5e-5 0.10976,0 0.0538,-0.01794 0.0366,-0.07009 0.0366,-0.109757 0,-0.0122 0.0122,0.03659 0,0.03659 -0.0122,0 -0.0122,-0.03659 0,-0.03659 0.0122,0 0,0.02439 0,0.03659 0,0.0122 0,0.02439 0,0.03658 0,0.0122 0.0122,0.03659 0,0.03659 -0.0122,0 0,-0.02439 0,-0.03659 0,-0.23032 -0.004,0.06713 0.0732,-0.475607 0.005,-0.03622 0,-0.07317 0,-0.109754 0,-0.207317 -0.0244,-0.0122 0.0366,-0.07317 1.6e-4,-1.64e-4 -2.5e-4,-0.108357 0,-0.109757 0.0201,-0.11062 0.0638,-0.217223 0.0732,-0.329266 0.003,-0.03843 -0.0302,-0.07172 -0.0366,-0.109757 -0.01,-0.06015 0,-0.121949 0,-0.182925 0,-0.03658 -0.0164,-0.07703 0,-0.109755 0.005,-0.0109 0.0366,-0.0122 0.0366,0 0,0.0122 -0.028,0.0086 -0.0366,0 -0.009,-0.0086 0,-0.02439 0,-0.03659 0,-0.0122 -0.009,-0.02796 0,-0.03658 0.009,-0.0086 0.0311,0.0109 0.0366,0 0.0109,-0.0218 -0.01,-0.05075 0,-0.07317 0.028,-0.06536 0.0779,-0.119324 0.10976,-0.182927 0.005,-0.0109 -0.009,-0.02796 0,-0.03658 0.009,-0.0086 0.0311,0.0109 0.0366,0 0.0182,-0.0364 -0.0145,-0.102518 0,-0.109757 0.0218,-0.0109 0.0514,0.0109 0.0732,0 0.0109,-0.0055 -0.003,-0.02476 0,-0.03658 0.0215,-0.08613 0.0402,-0.173665 0.0732,-0.256096 0.16816,-0.420391 0.14634,-0.146005 0.14634,-0.439023 0,-0.03659 0,-0.07317 0,-0.109757 0,-0.0122 -0.009,-0.02796 0,-0.03658 0.009,-0.0086 0.0311,-0.0109 0.0366,0 0.0109,0.0218 0,0.04878 0,0.07317 0,0.0122 -0.0122,-0.03659 0,-0.03659 0.0122,0 0,0.02439 0,0.03659 0,0.03658 0,0.07317 0,0.109754 0,0.02439 0.008,-0.05003 0,-0.07317 -0.17177,-0.5153 0.0516,0.207454 -0.21951,-0.402437 -0.0149,-0.03343 0.0116,-0.07505 0,-0.109754 -0.004,-0.01156 -0.0327,0.01156 -0.0366,0 -0.0116,-0.03471 0,-0.07317 0,-0.109758 0,-0.0122 0.007,-0.02643 0,-0.03658 -0.157,-0.235511 0.004,0.205504 -0.18292,-0.292683 -0.009,-0.02283 0.005,-0.04925 0,-0.07317 -0.008,-0.03781 -0.0272,-0.07234 -0.0366,-0.109755 -0.003,-0.01183 0.005,-0.02566 0,-0.03659 -0.0197,-0.03933 -0.0593,-0.06804 -0.0732,-0.109755 -0.0116,-0.03471 0,-0.07317 0,-0.109757 0,-0.02439 0,-0.04878 0,-0.07317 0,-0.0122 0.0122,0.03659 0,0.03659 -0.0122,0 -0.0122,-0.03659 0,-0.03659 0.0122,0 0.0122,0.03659 0,0.03659 -0.0122,0 0,-0.02439 0,-0.03659 0,-0.08265 0.005,0.01635 -0.0366,-0.109755 -0.009,-0.02577 0.01,-0.136522 0,-0.146341 -0.0193,-0.01929 -0.0592,-0.0132 -0.0732,-0.03659 -0.0259,-0.04311 -0.0267,-0.09704 -0.0366,-0.146341 -0.002,-0.01196 -0.0122,-0.03658 0,-0.03658 0.0122,0 0,0.04878 0,0.03658 0,-0.04878 0.0218,-0.102709 0,-0.146339 -0.0109,-0.02183 -0.0488,0 -0.0732,0 -0.0695,0 -0.0698,0.01013 -0.10976,-0.109757 -0.0235,-0.07037 -0.007,-0.151328 -0.0366,-0.219511 0.0143,-0.115983 -0.0899,-0.0035 -0.10976,-0.03658 -0.0338,-0.05631 -0.0394,-0.126614 -0.0732,-0.182928 -0.006,-0.01045 -0.028,0.0086 -0.0366,0 -0.009,-0.0086 0.009,-0.02796 0,-0.03658 -0.0311,-0.03109 -0.0787,-0.04208 -0.10976,-0.07317 -0.009,-0.0086 0.0109,-0.03113 0,-0.03659 -0.0218,-0.0109 -0.0559,0.01725 -0.0732,0 -0.0172,-0.01725 0.0109,-0.05135 0,-0.07317 -0.0101,-0.02021 -0.0812,0.02858 -0.10975,0 -0.0503,-0.05028 -0.0595,-0.132646 -0.10976,-0.182927 -0.0519,-0.05193 -0.15398,-0.03658 -0.21951,-0.03658 -0.0244,0 -0.0559,0.01725 -0.0732,0 -0.0173,-0.01725 0,-0.04878 0,-0.07317 0,-0.0122 0.0122,0.03658 0,0.03658 -0.0173,0 -0.0212,-0.02887 -0.0366,-0.03658 -0.0293,-0.01463 -0.0805,0.01463 -0.10975,0 -0.0109,-0.0054 0.004,-0.025 0,-0.03659 -0.009,-0.02588 -0.0139,-0.05804 -0.0366,-0.07317 -0.0203,-0.01352 -0.0488,0 -0.0732,0 -0.0366,0 -0.0732,0 -0.10975,0 -0.0122,0 0.0366,-0.0122 0.0366,0 0,0.0122 -0.0244,0 -0.0366,0 -0.0122,0 -0.028,0.0086 -0.0366,0 -0.009,-0.0086 0.009,-0.02796 0,-0.03658 -0.009,-0.0086 -0.0244,0 -0.0366,0 -0.0732,0 -0.14634,0 -0.21952,0 -0.0244,0 -0.0488,0 -0.0732,0 -0.0122,0 0.0366,0.0122 0.0366,0 0,-0.02727 -0.0173,-0.05389 -0.0366,-0.07317 -0.009,-0.0086 0.0122,0.03658 0,0.03658 -0.0173,0 -0.0212,-0.02887 -0.0366,-0.03658 -0.0226,-0.01132 -0.13552,0.01082 -0.14634,0 -0.009,-0.0086 0.0109,-0.03113 0,-0.03659 -0.0218,-0.0109 -0.0514,0.0109 -0.0732,0 -0.0109,-0.0055 0.009,-0.02796 0,-0.03658 -0.061,-0.06098 -0.0366,0.134146 -0.0366,-0.07317 0,-0.0122 0.009,0.02796 0,0.03658 -0.009,0.0086 -0.0244,0 -0.0366,0 -0.0244,0 -0.0559,0.01725 -0.0732,0 -0.0173,-0.01725 0.0109,-0.05135 0,-0.07317 -0.005,-0.0109 -0.0244,0 -0.0366,0 -0.20732,0 -0.0122,-0.02439 -0.0732,0.03659 -0.003,0.0029 -0.15413,0 -0.18292,0 -0.0244,0 -0.0488,0 -0.0732,0 -0.0122,0 -0.025,0.0039 -0.0366,0 -0.0259,-0.0086 -0.0539,-0.0173 -0.0732,-0.03659 -0.009,-0.0086 0.0366,-0.0122 0.0366,0 0,0.0122 -0.0244,0 -0.0366,0 -0.0366,0 -0.0732,0 -0.10976,0 -0.0122,0 0.0366,-0.0122 0.0366,0 0,0.0122 -0.0366,0.0122 -0.0366,0 0,-0.0122 0.0366,-0.0122 0.0366,0 0,0.0122 -0.0327,0.01156 -0.0366,0 -0.0116,-0.03471 0.0125,-0.07537 0,-0.109755 -0.0373,-0.10251 -0.10906,-0.190171 -0.14634,-0.292682 -0.0125,-0.03438 0,-0.07317 0,-0.109754 0,-0.02439 0,-0.04878 0,-0.07317 0,-0.0122 0.009,0.02796 0,0.03658 -0.009,0.0086 -0.0366,0.0122 -0.0366,0 0,-0.0122 0.0366,0.0122 0.0366,0 0,-0.01725 -0.0289,-0.02117 -0.0366,-0.03658 -0.005,-0.0109 0,-0.02439 0,-0.03659 0,-0.02439 0,-0.04878 0,-0.07317 0,-0.0122 0.009,0.02796 0,0.03659 -0.009,0.0086 -0.025,0.0039 -0.0366,0 -0.24346,-0.08115 0.0825,0.0047 -0.0732,-0.07317 -0.0109,-0.0054 -0.0244,0 -0.0366,0 -0.0244,0 -0.0488,0 -0.0732,0 -0.0122,0 0.0366,-0.0122 0.0366,0 0,0.0122 -0.028,0.0086 -0.0366,0 -0.009,-0.0086 0.009,-0.02796 0,-0.03659 -0.009,-0.0086 -0.0311,0.0109 -0.0366,0 -0.0109,-0.0218 0,-0.04878 0,-0.07317 0,-0.0122 0.0122,0.03659 0,0.03659 -0.0122,0 0,-0.02439 0,-0.03659 0,-0.0122 0,-0.02439 0,-0.03658 0,-0.23577 0,0.06504 0,-0.07317 0,-0.03658 0.0203,-0.07931 0,-0.109755 -0.0135,-0.02029 -0.0488,0 -0.0732,0 -0.0122,0 0.0366,0.0122 0.0366,0 0,-0.01725 -0.0289,-0.02117 -0.0366,-0.03659 -0.0451,-0.09011 0.1062,0.03303 -0.0366,-0.109755 -0.009,-0.0086 0.0122,0.03658 0,0.03658 -0.0244,0 0.0173,-0.05592 0,-0.07317 -0.009,-0.0086 -0.0264,0.0068 -0.0366,0 -0.11076,0.09028 -0.0629,-0.09951 -0.0732,-0.109755 -0.061,-0.06098 -0.0366,0.134147 -0.0366,-0.07317 0,-0.0122 0.0122,0.03658 0,0.03658 -0.0122,0 -0.0122,-0.03658 0,-0.03658 0.0122,0 0.0122,0.03658 0,0.03658 -0.0122,0 0,-0.02439 0,-0.03658 0,0.0122 0.0109,0.03113 0,0.03658 -0.13991,0.121951 -0.0459,-0.03658 -0.0732,-0.03658 -0.0173,0 -0.0193,0.03658 -0.0366,0.03658 -0.0122,0 0,-0.02439 0,-0.03658 0,-0.06098 0,-0.121952 0,-0.182928 0,-0.02439 0.0173,-0.05592 0,-0.07317 -0.0172,-0.01725 -0.0488,0 -0.0732,0 -0.0122,0 0.0311,0.0109 0.0366,0 0.0109,-0.0218 0.0109,-0.05135 0,-0.07317 -0.005,-0.0109 -0.028,0.0086 -0.0366,0 -0.009,-0.0086 -0.009,-0.02796 0,-0.03658 0.0172,-0.01725 0.0623,0.0218 0.0732,0 0.003,-0.0057 0,-0.172699 0,-0.182925 0,-0.0122 -0.009,-0.02796 0,-0.03659 0.0193,-0.01929 0.0539,-0.0173 0.0732,-0.03658 0.009,-0.0086 -0.0311,0.0109 -0.0366,0 -0.0109,-0.0218 0,-0.04878 0,-0.07317 0,-0.0122 -0.009,0.02796 0,0.03658 0.009,0.0086 0.0366,0.0122 0.0366,0 0,-0.01725 -0.0289,-0.02117 -0.0366,-0.03658 -0.005,-0.0109 0,-0.02439 0,-0.03659 0,-0.02439 0,-0.04878 0,-0.07317 0,-0.0122 -0.009,-0.02796 0,-0.03658 0.009,-0.0086 0.028,0.0086 0.0366,0 0.009,-0.0086 0,-0.02439 0,-0.03659 0,-0.09756 0,-0.195119 0,-0.292682 0,-0.0122 0,0.04878 0,0.03659 0,-0.02439 0,-0.04878 0,-0.07317 0,-0.0122 -0.009,-0.02796 0,-0.03658 0.061,-0.06098 0.0366,0.134143 0.0366,-0.07317 0,-0.0122 0.0122,0.03658 0,0.03658 -0.0122,0 0,-0.02439 0,-0.03658 0,-0.0122 0,-0.02439 0,-0.03659 0,-0.02439 0.0172,-0.05593 0,-0.07317 -0.0173,-0.01725 -0.0514,0.0109 -0.0732,0 -0.0109,-0.0054 -0.009,-0.02796 0,-0.03658 0.009,-0.0086 0.0311,0.0109 0.0366,0 0.007,-0.01373 0,-0.197731 0,-0.219512 0,-0.0122 0.009,-0.02796 0,-0.03659 -0.0173,-0.01725 -0.0623,0.0218 -0.0732,0 -0.0109,-0.02183 0,-0.04878 0,-0.07317 0,-0.109754 0,-0.219509 0,-0.329266 0,-0.0122 -0.0109,-0.03113 0,-0.03658 0.13821,-0.06911 0.0711,0.03455 0.0366,0 -0.009,-0.0086 0,-0.02439 0,-0.03659 0,-0.02439 0.0109,-0.05136 0,-0.07317 -0.005,-0.0109 -0.028,0.0086 -0.0366,0 -0.061,-0.06098 0.13414,-0.03658 -0.0732,-0.03658 -0.0122,0 0.0311,-0.0109 0.0366,0 0.10366,0.207315 -0.0518,0.03658 0,0.03658 0.0244,0 -0.0173,0.05593 0,0.07317 0.009,0.0086 0.0488,0 0.0366,0 -0.0244,0 -0.0488,0 -0.0732,0 -0.0122,0 -0.03113,0.0109 -0.03659,0 -0.103659,-0.207317 0.05183,-0.03658 0,-0.03658 -0.0122,0 0,-0.02439 0,-0.03659 0,-0.0122 -0.0109,-0.03113 0,-0.03658 0.02181,-0.0109 0.04878,0 0.07317,0 0.0122,0 -0.0244,0 -0.0366,0 -0.0122,0 -0.03113,0.0109 -0.03659,0 -0.103659,-0.207317 0.05183,-0.03659 0,-0.03659 -0.0244,0 0.0109,-0.05136 0,-0.07317 -0.0867,-0.173397 -0.07317,-0.04174 -0.07317,-0.182925 0,-0.09756 0.0122,0.0122 -0.03658,-0.03659 -0.01929,-0.01929 -0.01389,-0.05804 -0.03659,-0.07317 -0.02029,-0.01352 -0.05136,0.0109 -0.07317,0 -0.0109,-0.0054 0,-0.02439 0,-0.03658 0,-0.03659 0,-0.07317 0,-0.109754 0,-0.0122 0.0122,0.03658 0,0.03658 -0.0122,0 0.0122,-0.03658 0,-0.03658 -0.01725,0 -0.01934,0.03658 -0.03658,0.03658 -0.0122,0 0,-0.02439 0,-0.03658 0,-0.04878 0,-0.09756 0,-0.146341 0,-0.02439 0,-0.04878 0,-0.07317 0,-0.0122 -0.0086,-0.02796 0,-0.03659 0.01929,-0.01929 0.05389,-0.0173 0.07317,-0.03658 0.0086,-0.0086 -0.03113,0.0109 -0.03659,0 -0.0109,-0.0218 0,-0.04878 0,-0.07317 0,-0.07317 0,-0.146341 0,-0.219511 0,-0.0122 -0.0086,-0.02796 0,-0.03659 0.0086,-0.0086 0.03659,-0.0122 0.03659,0 0,0.0122 -0.02439,0 -0.03659,0 -0.0122,0 -0.03113,0.0109 -0.03658,0 -0.01635,-0.03272 0,-0.07317 0,-0.109754 0,-0.0122 0,-0.02439 0,-0.03659 0,-0.0244 -0.01725,-0.05592 0,-0.07317 0.01725,-0.01725 0.05135,0.0109 0.07317,0 0.0109,-0.0054 0,-0.02439 0,-0.03659 0,-0.02439 0,-0.04878 0,-0.07317 0,-0.0122 -0.0122,0.03659 0,0.03659 0.05195,0 0.03658,-0.08375 0.03658,-0.109758 0,-0.146341 0,-0.292682 0,-0.439023 0,-0.215754 0.01418,-0.71864 0,-0.841459 -0.01593,-0.138129 -0.08807,-0.265092 -0.109755,-0.402437 -0.01521,-0.09637 0.01209,-0.195874 0,-0.292682 -0.0016,-0.01209 -0.02796,-0.0086 -0.03659,0 -0.0086,0.0086 0,0.0244 0,0.03659 0,0.03658 0,0.07317 0,0.109754 0,0.0122 -0.0122,-0.03658 0,-0.03658 0.0122,0 0,0.02439 0,0.03658 0,0.0122 0,0.02439 0,0.03659 0,0.02439 0,0.04878 0,0.07317 0,0.0122 -0.0122,-0.03659 0,-0.03659 0.0122,0 -0.0086,0.02796 0,0.03659 0.01929,0.01929 0.05389,0.0173 0.07317,0.03658 0.0086,0.0086 -0.02796,-0.0086 -0.03658,0 -0.0086,0.0086 0,0.0244 0,0.03659 0,0.02439 0,0.04878 0,0.07317 0,0.0122 -0.0122,-0.03659 0,-0.03659 0.0122,0 0.0122,0.03659 0,0.03659 -0.0122,0 -0.0122,-0.03659 0,-0.03659 0.0122,0 0.0122,0.03659 0,0.03659 -0.0122,0 0,-0.02439 0,-0.03659"
       id="path826"
       inkscape:connector-curvature="0" />
    <path
       style="fill:none;stroke:#000000;stroke-width:1.9038868;stroke-linecap:butt;stroke-linejoin:miter;stroke-miterlimit:4;stroke-dasharray:none;stroke-opacity:1"
       d="M 61.851424,85.600231 67.814493,74.185763"
       id="path830"
       inkscape:connector-curvature="0" />
    <path
       style="fill:none;stroke:#000000;stroke-width:2.32297277;stroke-linecap:butt;stroke-linejoin:miter;stroke-miterlimit:4;stroke-dasharray:none;stroke-opacity:1"
       d="M 74.43604,85.107965 68.904922,74.011755"
       id="path832"
       inkscape:connector-curvature="0" />
  </g>
</svg>
