<?xml version="1.0" encoding="UTF-8" standalone="no"?>
<!-- Created with Inkscape (http://www.inkscape.org/) -->

<svg
   xmlns:dc="http://purl.org/dc/elements/1.1/"
   xmlns:cc="http://creativecommons.org/ns#"
   xmlns:rdf="http://www.w3.org/1999/02/22-rdf-syntax-ns#"
   xmlns:svg="http://www.w3.org/2000/svg"
   xmlns="http://www.w3.org/2000/svg"
   xmlns:sodipodi="http://sodipodi.sourceforge.net/DTD/sodipodi-0.dtd"
   xmlns:inkscape="http://www.inkscape.org/namespaces/inkscape"
   width="12.101725mm"
   height="63.707596mm"
   viewBox="0 0 12.101725 63.707594"
   version="1.1"
   id="svg8"
   inkscape:version="0.92.4 (5da689c313, 2019-01-14)"
   sodipodi:docname="currents.svg">
  <defs
     id="defs2" />
  <sodipodi:namedview
     id="base"
     pagecolor="#ffffff"
     bordercolor="#666666"
     borderopacity="1.0"
     inkscape:pageopacity="0.0"
     inkscape:pageshadow="2"
     inkscape:zoom="4.5338666"
     inkscape:cx="14.019664"
     inkscape:cy="56.725384"
     inkscape:document-units="mm"
     inkscape:current-layer="layer1"
     showgrid="false"
     inkscape:window-width="3840"
     inkscape:window-height="2104"
     inkscape:window-x="-16"
     inkscape:window-y="-16"
     inkscape:window-maximized="1" />
  <metadata
     id="metadata5">
    <rdf:RDF>
      <cc:Work
         rdf:about="">
        <dc:format>image/svg+xml</dc:format>
        <dc:type
           rdf:resource="http://purl.org/dc/dcmitype/StillImage" />
        <dc:title></dc:title>
      </cc:Work>
    </rdf:RDF>
  </metadata>
  <g
     inkscape:label="Calque 1"
     inkscape:groupmode="layer"
     id="layer1"
     transform="translate(-126.93867,-89.764602)">
    <path
       style="fill:#000000;stroke-width:0.26458335"
       d=""
       id="path826"
       inkscape:connector-curvature="0" />
    <path
       style="fill:#000000;stroke-width:0.28721884"
       d="m 127.76518,147.5397 c 0.15969,-0.52143 1.1884,-1.82406 2.33547,-2.95732 2.48885,-2.4589 2.79937,-2.95647 2.7592,-4.4213 -0.0421,-1.53431 -0.52849,-2.17318 -2.01258,-2.6434 -1.80289,-0.57123 -2.74712,-1.60799 -3.05256,-3.35168 -0.37959,-2.16704 0.2725,-3.46491 2.71718,-5.40799 1.66928,-1.32677 2.00176,-1.74039 2.11202,-2.62743 0.22563,-1.81556 -0.51133,-2.9767 -2.6546,-4.18251 -2.02891,-1.14148 -2.65602,-2.01715 -2.73819,-3.82345 -0.0674,-1.48006 0.33659,-2.15215 2.59501,-4.31806 2.4429,-2.34279 3.01109,-3.58698 2.3542,-5.15493 -0.25885,-0.61782 -0.72229,-1.11285 -1.2076,-1.28988 -3.22064,-1.17482 -3.27535,-1.21031 -3.7313,-2.42115 -0.59279,-1.57421 -0.34994,-2.69267 1.03883,-4.7843 1.22458,-1.844379 1.90603,-3.909212 2.15395,-6.526596 l 0.1507,-1.590906 -1.21915,1.171008 c -1.12686,1.082341 -1.87638,1.293426 -1.87703,0.528612 1.9e-4,-0.379856 3.81371,-4.15197 4.01133,-3.967252 0.26131,0.244227 3.17214,4.65012 3.17648,4.807957 0.002,0.08668 -0.27621,0.163207 -0.61908,0.169979 -0.34289,0.0068 -0.62659,-0.07695 -0.63046,-0.186043 -0.004,-0.109093 -0.34978,-0.654531 -0.76868,-1.212082 l -0.76165,-1.013726 -0.57181,2.977205 c -0.37482,1.951588 -0.84887,3.409413 -1.3761,4.231805 -1.72145,2.685199 -1.97887,3.322159 -1.77827,4.400229 0.2339,1.25717 0.76645,1.73012 2.52474,2.24216 1.7909,0.52153 2.78782,1.73177 2.83471,3.44123 0.0454,1.65446 -0.68348,2.91533 -2.67906,4.63468 -1.92377,1.6575 -2.42776,2.4779 -2.38907,3.88895 0.0399,1.45733 0.39207,1.91045 2.42952,3.12657 1.84665,1.10222 2.48849,1.87275 2.86819,3.44316 0.42363,1.7522 -0.15739,2.90126 -2.32121,4.5906 -2.24823,1.75525 -2.76683,2.77403 -2.43149,4.77667 0.2628,1.5693 0.7708,2.084 2.60211,2.63643 1.63338,0.49269 2.39473,1.54911 2.4453,3.39289 0.0469,1.70983 -0.48681,2.62785 -2.94854,5.07179 -1.43342,1.42305 -2.20041,2.42737 -2.31749,3.03455 -0.2097,1.08765 0.5875,2.90597 1.775,4.04849 0.60374,0.58088 0.72558,0.86222 0.47129,1.08828 -0.7596,0.6753 -2.96276,-1.91847 -3.37097,-3.96864 -0.10099,-0.50747 -0.0553,-1.34203 0.10169,-1.8546 z m 12.40752,-43.03237 c 0.30799,9.57582 0.73563,25.16879 0.95028,34.65102 0.21466,9.48224 -0.0374,1.64748 -0.56,-17.41059 -0.52265,-19.05807 -0.69829,-26.816264 -0.3903,-17.24043 z"
       id="path899"
       inkscape:connector-curvature="0" />
  </g>
</svg>
