<?xml version="1.0" encoding="UTF-8" standalone="no"?>
<!-- Created with Inkscape (http://www.inkscape.org/) -->

<svg
   xmlns:dc="http://purl.org/dc/elements/1.1/"
   xmlns:cc="http://creativecommons.org/ns#"
   xmlns:rdf="http://www.w3.org/1999/02/22-rdf-syntax-ns#"
   xmlns:svg="http://www.w3.org/2000/svg"
   xmlns="http://www.w3.org/2000/svg"
   xmlns:sodipodi="http://sodipodi.sourceforge.net/DTD/sodipodi-0.dtd"
   xmlns:inkscape="http://www.inkscape.org/namespaces/inkscape"
   width="306.8544mm"
   height="16.658119mm"
   viewBox="0 0 306.85439 16.658119"
   version="1.1"
   id="svg8"
   inkscape:version="0.92.4 (5da689c313, 2019-01-14)"
   sodipodi:docname="dwrtpt_two.svg">
  <defs
     id="defs2" />
  <sodipodi:namedview
     id="base"
     pagecolor="#ffffff"
     bordercolor="#666666"
     borderopacity="1.0"
     inkscape:pageopacity="0.0"
     inkscape:pageshadow="2"
     inkscape:zoom="3.7545455"
     inkscape:cx="615.82231"
     inkscape:cy="115.35565"
     inkscape:document-units="mm"
     inkscape:current-layer="layer1"
     showgrid="false"
     inkscape:window-width="4200"
     inkscape:window-height="2569"
     inkscape:window-x="-16"
     inkscape:window-y="-16"
     inkscape:window-maximized="1" />
  <metadata
     id="metadata5">
    <rdf:RDF>
      <cc:Work
         rdf:about="">
        <dc:format>image/svg+xml</dc:format>
        <dc:type
           rdf:resource="http://purl.org/dc/dcmitype/StillImage" />
        <dc:title></dc:title>
      </cc:Work>
    </rdf:RDF>
  </metadata>
  <g
     inkscape:label="Calque 1"
     inkscape:groupmode="layer"
     id="layer1"
     transform="translate(653.54941,305.6161)">
    <path
       style="fill:#9e35a2;fill-opacity:1;stroke-width:0.26458332"
       d="m -520.89967,-289.20844 c -0.17321,-0.28027 0.11314,-2.12217 0.88634,-5.70116 0.9555,-4.42279 1.42218,-6.61001 1.63717,-7.67292 0.11774,-0.58208 0.31524,-1.47505 0.4389,-1.98437 l 0.22483,-0.92605 1.97436,-0.087 c 1.08589,-0.0478 2.99247,0.0553 4.23684,0.22926 2.6779,0.3743 4.06918,1.17227 4.83722,2.77438 0.2774,0.57865 0.60915,1.25883 0.73722,1.51151 0.33308,0.65717 0.28768,4.09383 -0.0688,5.21033 -1.04576,3.27504 -3.12661,5.64113 -5.77187,6.5631 -1.1236,0.39161 -8.89777,0.46218 -9.13218,0.0829 z m 8.72798,-2.68837 c 1.97446,-0.9281 3.01178,-2.50984 3.54789,-5.40994 0.36993,-2.00112 -0.0367,-3.83598 -1.08159,-4.8809 -0.76678,-0.76678 -0.87003,-0.79174 -3.27474,-0.79174 h -2.48299 l -0.24173,0.99218 c -0.13296,0.54571 -0.38534,1.70657 -0.56086,2.57969 -0.17551,0.87313 -0.43684,2.12328 -0.58073,2.77813 -0.14389,0.65484 -0.36623,1.66687 -0.49409,2.24895 -0.12787,0.58209 -0.30352,1.50482 -0.39035,2.05052 l -0.15786,0.99219 h 2.26383 c 1.75257,0 2.53244,-0.12626 3.45322,-0.55908 z m 10.01737,2.62354 c -0.24163,-0.39096 -0.68245,-8.13097 -0.72788,-12.78008 l -0.0336,-3.43959 0.92605,-0.0691 c 0.50932,-0.038 1.06505,0.0225 1.23496,0.13443 0.20246,0.13336 0.41056,2.11287 0.60385,5.74408 0.16221,3.04733 0.32969,5.57536 0.37217,5.61785 0.0425,0.0425 0.76741,-1.26112 1.61094,-2.8969 2.62279,-5.08619 4.17103,-7.9879 4.44561,-8.33197 0.34213,-0.42873 2.17275,-0.42873 2.5151,0 0.14526,0.1819 0.34001,1.75948 0.4328,3.50573 0.0928,1.74625 0.2403,4.25734 0.32781,5.5802 l 0.15912,2.4052 2.94621,-5.84478 2.94622,-5.84479 1.1269,-0.0815 c 0.79742,-0.0577 1.16995,0.0307 1.27413,0.30221 0.12744,0.33209 -7.14993,15.08718 -7.88397,15.98499 -0.33703,0.41223 -2.48976,0.4373 -2.7403,0.0319 -0.10157,-0.16434 -0.2963,-2.4563 -0.43272,-5.09323 -0.28286,-5.4672 -0.33404,-5.77283 -0.84377,-5.03855 -0.31604,0.45527 -2.13973,3.86813 -4.33977,8.12148 -0.43452,0.84004 -0.93601,1.70324 -1.11443,1.91823 -0.39348,0.47411 -2.52343,0.53036 -2.80542,0.0741 z m -144.29795,-3.14829 c -1.52797,-1.01047 -3.69564,-2.39022 -4.81705,-3.06609 -3.53309,-2.12941 -3.65036,-1.9449 4.6485,-7.3134 1.7263,-1.11673 3.28007,-2.03043 3.45281,-2.03043 0.49789,0 0.94908,0.58262 0.94908,1.22553 0,0.57267 -1.20589,1.68489 -1.82678,1.68489 -0.15944,0 -0.28989,0.11906 -0.28989,0.26458 0,0.14552 -0.11312,0.26459 -0.25138,0.26459 -0.32532,0 -5.8291,3.5213 -5.8319,3.73124 -0.002,0.17386 6.53969,4.46485 6.8307,4.48035 0.0982,0.005 0.51116,0.28168 0.9176,0.61432 0.6468,0.52937 0.70537,0.69319 0.46957,1.31341 -0.41143,1.08214 -1.15746,0.877 -4.25126,-1.16899 z m 53.2474,1.48181 c -0.82484,-0.93686 -0.031,-1.69427 4.53867,-4.33045 1.98661,-1.14605 3.70037,-2.51564 3.3074,-2.64319 -0.20438,-0.0663 -1.26456,-0.7273 -2.35597,-1.46882 -1.0914,-0.74153 -2.11323,-1.40776 -2.27072,-1.48052 -0.1575,-0.0728 -1.02353,-0.60854 -1.92452,-1.19062 -1.34084,-0.86625 -1.62502,-1.17355 -1.56573,-1.69311 0.13212,-1.15784 0.81662,-1.27763 2.23509,-0.39115 0.70231,0.43891 1.56852,0.96836 1.92491,1.17656 0.3564,0.20819 0.88486,0.58689 1.17437,0.84155 0.28951,0.25466 0.62422,0.46302 0.74379,0.46302 0.11958,0 0.81813,0.42224 1.55236,0.93831 0.73422,0.51608 1.83432,1.21786 2.44468,1.55953 0.87571,0.49022 1.12708,0.79268 1.192,1.43434 0.0756,0.74763 -0.0684,0.90971 -1.78864,2.01235 -1.029,0.65957 -1.98876,1.19922 -2.13279,1.19922 -0.14403,0 -0.26188,0.0971 -0.26188,0.21586 0,0.11873 -0.50601,0.49826 -1.12448,0.8434 -0.61846,0.34515 -1.66563,0.99215 -2.32703,1.43778 -2.39485,1.61359 -2.7797,1.73677 -3.36151,1.07594 z m 184.34844,-0.11272 c -0.77612,-0.57697 -2.16363,-1.42079 -3.37344,-2.05159 -0.47294,-0.24659 -0.85989,-0.54535 -0.85989,-0.66392 0,-0.11857 -0.1786,-0.21558 -0.39688,-0.21558 -0.21828,0 -0.39687,-0.11906 -0.39687,-0.26458 0,-0.14553 -0.15615,-0.26459 -0.34699,-0.26459 -0.19084,0 -0.60258,-0.23812 -0.91498,-0.52916 -0.31239,-0.29105 -0.63486,-0.52917 -0.7166,-0.52917 -0.0817,0 -0.6225,-0.29915 -1.20169,-0.66478 -0.83359,-0.52622 -1.05307,-0.82502 -1.05307,-1.4336 0,-0.66724 0.24592,-0.92025 1.86134,-1.91491 1.02373,-0.63035 3.30242,-2.06882 5.06375,-3.19661 1.76133,-1.12778 3.34993,-2.05052 3.53023,-2.05052 0.3662,0 0.75955,0.43615 0.99768,1.10625 0.12314,0.34653 -0.74633,1.03328 -3.93599,3.10885 -2.25172,1.46524 -4.20937,2.66407 -4.35032,2.66407 -0.53171,0 -0.22647,0.53099 0.53017,0.92226 0.84964,0.43937 2.58807,1.55042 3.10499,1.98443 0.17576,0.14757 0.38043,0.26831 0.45484,0.26831 0.0744,0 1.06169,0.60589 2.19398,1.34642 2.04952,1.34042 2.28941,1.72264 1.60429,2.55618 -0.37991,0.46221 -1.01881,0.39892 -1.79455,-0.17776 z m 50.96725,-0.0511 c -0.59545,-0.85015 -0.41101,-1.08919 1.91595,-2.48317 2.08484,-1.24891 6.11889,-3.92821 6.11889,-4.06398 0,-0.18048 -5.09421,-3.49135 -5.81261,-3.77777 -0.23291,-0.0929 -0.58274,-0.36076 -0.77742,-0.59532 -0.19466,-0.23456 -0.49948,-0.42647 -0.67742,-0.42647 -0.1779,0 -0.5362,-0.23507 -0.79621,-0.52238 -0.4427,-0.48918 -0.44492,-0.56487 -0.0349,-1.19063 0.2408,-0.36753 0.54891,-0.66824 0.68467,-0.66824 0.36002,0 3.03265,1.60234 3.13645,1.88041 0.0485,0.12994 0.18539,0.23626 0.30419,0.23626 0.1188,0 1.32927,0.71649 2.68994,1.5922 1.36067,0.87571 2.85967,1.79015 3.33116,2.0321 0.47146,0.24194 0.92596,0.65655 1.00999,0.92134 0.3266,1.029 0.0331,1.32566 -3.43593,3.47284 -0.2807,0.17374 -1.85942,1.1791 -3.50825,2.23412 -1.64883,1.05503 -3.16859,1.91823 -3.37722,1.91823 -0.20865,0 -0.55573,-0.25179 -0.77128,-0.55954 z m -275.32723,-5.65011 c -0.19169,-0.23097 -0.25983,-0.67909 -0.16233,-1.06756 l 0.16804,-0.66951 6.54223,0.0708 6.54225,0.0708 v 0.92605 0.92604 l -6.37992,0.0708 c -5.4165,0.0601 -6.4298,0.0107 -6.71027,-0.32729 z m 19.32382,0.0111 c -0.17662,-0.21281 -0.28222,-0.66138 -0.23467,-0.99681 l 0.0865,-0.60988 h 6.61459 6.61458 v 0.92605 0.92604 l -6.37991,0.0708 c -5.33685,0.0592 -6.43242,0.008 -6.70104,-0.31616 z m 38.6582,0.14913 c -0.19953,-0.12799 -0.3141,-0.55701 -0.26458,-0.99077 l 0.0873,-0.76505 h 6.61458 6.61459 v 0.92605 0.92604 l -6.35,0.0647 c -3.4925,0.0356 -6.50836,-0.0368 -6.70192,-0.161 z m 19.31458,0 c -0.19953,-0.12799 -0.31409,-0.55701 -0.26458,-0.99077 l 0.0873,-0.76505 h 6.61459 6.61458 v 0.92605 0.92604 l -6.35,0.0647 c -3.4925,0.0356 -6.50836,-0.0368 -6.70192,-0.161 z m 19.10811,-0.14907 c -0.0797,-0.2077 -0.10573,-0.65419 -0.0578,-0.99219 l 0.0871,-0.61456 6.54224,-0.0708 6.54224,-0.0708 0.16702,0.66548 c 0.36922,1.47109 0.41775,1.46041 -6.63692,1.46041 -5.38555,0 -6.52372,-0.0647 -6.64381,-0.37763 z m 58.63159,-0.15685 c -0.16008,-0.29911 -0.21625,-0.77953 -0.12482,-1.06759 0.16056,-0.50588 0.38904,-0.52134 6.69539,-0.45303 l 6.52915,0.0707 v 0.92605 0.92604 l -6.40433,0.0708 c -6.22779,0.0689 -6.41236,0.0558 -6.69539,-0.47301 z m 19.32412,0.14566 c -0.19169,-0.23097 -0.25983,-0.67909 -0.16233,-1.06756 l 0.16804,-0.6695 6.54224,0.0707 6.54224,0.0708 v 0.92605 0.92604 l -6.37992,0.0708 c -5.41651,0.0601 -6.4298,0.0107 -6.71027,-0.32729 z m 19.35285,0.16026 c -0.19953,-0.12799 -0.31409,-0.55701 -0.26458,-0.99077 l 0.0873,-0.76505 h 6.61459 6.61458 v 0.92605 0.92604 l -6.35,0.0647 c -3.4925,0.0356 -6.50836,-0.0368 -6.70192,-0.161 z m 41.06853,-0.14907 c -0.0797,-0.2077 -0.10573,-0.65419 -0.0578,-0.99219 l 0.0871,-0.61456 6.08542,-0.0747 c 3.34698,-0.041 6.35331,-0.009 6.68073,0.0712 0.44543,0.10912 0.59531,0.33727 0.59531,0.90624 0,0.44931 -0.17121,0.8261 -0.41852,0.921 -0.23018,0.0883 -3.21048,0.1606 -6.62289,0.1606 -5.13041,0 -6.22944,-0.0654 -6.34927,-0.37763 z m 19.38791,0.20124 c -0.097,-0.097 -0.17639,-0.57326 -0.17639,-1.05833 v -0.88195 h 6.42937 c 4.64786,0 6.51735,0.088 6.74688,0.3175 0.4536,0.45361 0.39221,1.44929 -0.10102,1.63857 -0.5719,0.21946 -12.67841,0.20464 -12.89884,-0.0158 z"
       id="path863"
       inkscape:connector-curvature="0" />
  </g>
</svg>
