<?xml version="1.0" encoding="UTF-8" standalone="no"?>
<!-- Created with Inkscape (http://www.inkscape.org/) -->

<svg
   xmlns:dc="http://purl.org/dc/elements/1.1/"
   xmlns:cc="http://creativecommons.org/ns#"
   xmlns:rdf="http://www.w3.org/1999/02/22-rdf-syntax-ns#"
   xmlns:svg="http://www.w3.org/2000/svg"
   xmlns="http://www.w3.org/2000/svg"
   xmlns:sodipodi="http://sodipodi.sourceforge.net/DTD/sodipodi-0.dtd"
   xmlns:inkscape="http://www.inkscape.org/namespaces/inkscape"
   width="226.61565mm"
   height="16.664885mm"
   viewBox="0 0 226.61564 16.664885"
   version="1.1"
   id="svg8"
   inkscape:version="0.92.4 (5da689c313, 2019-01-14)"
   sodipodi:docname="dwrtpt_one.svg">
  <defs
     id="defs2" />
  <sodipodi:namedview
     id="base"
     pagecolor="#ffffff"
     bordercolor="#666666"
     borderopacity="1.0"
     inkscape:pageopacity="0.0"
     inkscape:pageshadow="2"
     inkscape:zoom="3.7545455"
     inkscape:cx="321.82939"
     inkscape:cy="-110.28268"
     inkscape:document-units="mm"
     inkscape:current-layer="layer1"
     showgrid="false"
     inkscape:window-width="4200"
     inkscape:window-height="2569"
     inkscape:window-x="-16"
     inkscape:window-y="-16"
     inkscape:window-maximized="1" />
  <metadata
     id="metadata5">
    <rdf:RDF>
      <cc:Work
         rdf:about="">
        <dc:format>image/svg+xml</dc:format>
        <dc:type
           rdf:resource="http://purl.org/dc/dcmitype/StillImage" />
        <dc:title />
      </cc:Work>
    </rdf:RDF>
  </metadata>
  <g
     inkscape:label="Calque 1"
     inkscape:groupmode="layer"
     id="layer1"
     transform="translate(605.04413,365.323)">
    <path
       style="fill:#9e35a2;fill-opacity:1;stroke-width:0.26458335"
       d="m -512.96679,-349.09411 c 0.002,-0.41739 0.35649,-2.21493 1.87093,-9.48605 0.59171,-2.84087 0.83597,-4.06392 1.02264,-5.12038 0.11191,-0.6334 0.36933,-1.26495 0.57204,-1.40345 0.20717,-0.14156 1.93256,-0.20829 3.94042,-0.15241 3.97104,0.11052 4.94681,0.40138 6.25732,1.86515 1.35926,1.51824 1.54869,2.15662 1.53786,5.1827 -0.009,2.40887 -0.0999,2.98957 -0.6485,4.12631 -0.83841,1.73721 -3.52676,4.412 -4.89772,4.87301 -0.63156,0.21238 -2.79208,0.40618 -5.35781,0.48061 -4.05468,0.11762 -4.29935,0.0968 -4.29718,-0.36549 z m 9.39041,-2.82436 c 1.71984,-1.19422 2.59571,-2.69282 3.06022,-5.23597 0.40407,-2.2123 0.0192,-3.72496 -1.25324,-4.92498 -0.89342,-0.8426 -0.98203,-0.86636 -3.23101,-0.86636 h -2.31239 l -0.3027,1.25677 c -0.16649,0.69122 -0.60795,2.74505 -0.98104,4.56406 -0.37309,1.81901 -0.79516,3.73783 -0.93795,4.26403 -0.52593,1.93825 -0.57983,1.90119 2.45238,1.68604 2.10128,-0.1491 2.89072,-0.31654 3.50573,-0.74359 z m 9.5397,2.92946 c -0.19421,-0.63603 -0.67996,-7.22749 -0.67807,-9.20121 10e-4,-1.09523 -0.12415,-2.9967 -0.27823,-4.22551 -0.25295,-2.01729 -0.2352,-2.26705 0.18286,-2.57274 0.25465,-0.18621 0.76767,-0.33674 1.14004,-0.33451 1.43958,0.009 1.46043,0.085 1.60307,5.87292 0.075,3.04088 0.23773,5.34918 0.37551,5.32482 0.13377,-0.0237 1.03954,-1.57147 2.01284,-3.43959 3.2032,-6.14814 3.7352,-7.09717 4.16588,-7.43147 0.46922,-0.36422 1.86512,-0.43683 2.35912,-0.12273 0.20937,0.13313 0.41139,2.00566 0.60479,5.60578 0.15973,2.97323 0.33311,5.44857 0.3853,5.50076 0.0522,0.0522 1.31526,-2.35818 2.80684,-5.35638 1.49158,-2.9982 2.92507,-5.56532 3.18553,-5.70471 0.60116,-0.32174 1.58267,-0.31898 2.09586,0.006 0.41949,0.26554 0.572,-0.0602 -5.63821,12.04379 l -2.172,4.23334 -1.23757,0.08 c -0.97702,0.0631 -1.28927,-0.0204 -1.48318,-0.39688 -0.13509,-0.26226 -0.31429,-2.66663 -0.39822,-5.34304 -0.0839,-2.67642 -0.2504,-4.96399 -0.36991,-5.08351 -0.20654,-0.20654 -1.29966,1.72406 -3.9857,7.0393 -1.84886,3.65859 -2.00624,3.83646 -3.39465,3.83646 -0.71448,0 -1.2208,-0.13063 -1.2819,-0.33073 z m -89.84729,-2.20004 c -0.14192,-0.37327 -0.25804,-0.73194 -0.25804,-0.79703 0,-0.0651 0.68461,-0.54883 1.52136,-1.07496 4.09334,-2.57383 6.94531,-4.45633 6.94531,-4.5844 0,-0.16654 -5.84876,-3.94539 -6.90909,-4.46392 -0.39837,-0.19481 -0.93129,-0.58292 -1.18428,-0.86247 -0.39889,-0.44077 -0.41314,-0.59575 -0.10734,-1.16715 0.42635,-0.79663 1.02382,-0.83694 1.9229,-0.12972 0.37,0.29104 0.73823,0.52917 0.81829,0.52917 0.0801,0 1.49003,0.86451 3.13327,1.92114 1.64324,1.05663 3.31513,2.08878 3.71531,2.29367 0.40018,0.20489 0.7276,0.47147 0.7276,0.5924 0,0.12093 0.16569,0.21987 0.3682,0.21987 0.2025,0 0.44052,0.2882 0.52893,0.64044 0.16938,0.67486 -0.0243,1.47623 -0.3568,1.47623 -0.10825,0 -1.93715,1.13109 -4.06422,2.51354 -2.12708,1.38245 -3.93575,2.51354 -4.01928,2.51354 -0.0835,0 -0.40747,0.23813 -0.71986,0.52917 -0.81068,0.75526 -1.744,0.68759 -2.06226,-0.14952 z m 175.42552,-0.51154 c -0.19459,-0.36358 -0.304,-0.69715 -0.24315,-0.74126 0.0608,-0.0441 0.94408,-0.60723 1.96272,-1.25138 1.01865,-0.64415 1.91162,-1.24523 1.98438,-1.33573 0.0728,-0.0905 0.25473,-0.21218 0.40438,-0.27038 0.79821,-0.31043 4.08933,-2.52594 4.09127,-2.75415 0.002,-0.28915 -0.0399,-0.31855 -3.56961,-2.47645 -1.30969,-0.80069 -2.42094,-1.55275 -2.46944,-1.67124 -0.0485,-0.11849 -0.25687,-0.21543 -0.46302,-0.21543 -0.20616,0 -0.37559,-0.0893 -0.3765,-0.19844 -8e-4,-0.10914 -0.35809,-0.40125 -0.7937,-0.64912 -0.71574,-0.40728 -0.7631,-0.51419 -0.49166,-1.10993 0.3883,-0.85222 0.79709,-0.993 1.57985,-0.54406 0.34827,0.19975 1.02017,0.5687 1.49312,0.81991 0.47294,0.2512 0.85989,0.55374 0.85989,0.67231 0,0.11857 0.1152,0.21558 0.25599,0.21558 0.1408,0 1.80767,1.00951 3.70417,2.24336 3.09476,2.01344 3.44818,2.32095 3.44818,3.00024 0,0.51811 -0.18781,0.85313 -0.59532,1.06201 -0.32742,0.16782 -0.82436,0.45482 -1.10431,0.63778 -4.1338,2.70155 -7.34639,4.69827 -7.55921,4.69827 -0.14639,0 -0.26616,0.11907 -0.26616,0.26459 0,0.14552 -0.33707,0.26458 -0.74905,0.26458 -0.52806,0 -0.85341,-0.19502 -1.10282,-0.66106 z m -157.09658,-4.80584 c -0.48974,-0.19761 -0.41878,-1.85103 0.0878,-2.04542 0.8361,-0.32084 12.15759,-0.17866 12.49315,0.1569 0.45997,0.45997 0.39344,1.71341 -0.10102,1.90315 -0.49867,0.19136 -12.00285,0.17788 -12.47992,-0.0146 z m 19.31459,0 c -0.48975,-0.19761 -0.41879,-1.85103 0.0878,-2.04542 0.23018,-0.0883 3.06923,-0.1606 6.30899,-0.1606 5.37059,0 5.92913,0.0427 6.32836,0.48386 0.58284,0.64402 0.55354,1.28771 -0.0739,1.6235 -0.51442,0.27531 -11.99164,0.36482 -12.65124,0.0987 z m 19.18229,-0.11054 c -0.57524,-0.33505 -0.59759,-1.12937 -0.0473,-1.6797 0.35364,-0.35364 1.31633,-0.41578 6.44129,-0.41578 5.50139,0 6.06359,0.0421 6.46339,0.48386 0.58284,0.64402 0.55354,1.28771 -0.0739,1.6235 -0.67902,0.3634 -12.15754,0.35273 -12.78354,-0.0119 z m -77.98594,-1.04177 v -1.06295 l 6.54843,0.0708 6.54844,0.0708 0.0821,0.99219 0.0821,0.99219 h -6.63056 -6.63055 z m 135.11849,0.62658 c -0.0995,-0.0995 -0.18099,-0.51833 -0.18099,-0.93063 v -0.74966 h 6.63135 6.63135 l -0.0829,0.8599 -0.0829,0.85989 -6.36746,0.0707 c -3.5021,0.0389 -6.4489,-0.0107 -6.54843,-0.11024 z m 19.31458,0 c -0.0995,-0.0995 -0.18098,-0.51833 -0.18098,-0.93063 v -0.74966 h 6.63134 6.63135 l -0.0829,0.8599 -0.0829,0.85989 -6.36745,0.0707 c -3.5021,0.0389 -6.4489,-0.0107 -6.54844,-0.11024 z m 19.1336,-0.74962 v -0.93067 h 6.63135 6.63135 l -0.0829,0.8599 -0.0829,0.85989 -6.54844,0.0708 -6.54844,0.0708 z m 40.05815,0.55161 c -0.08,-0.20858 -0.10688,-0.71672 -0.0597,-1.1292 l 0.0859,-0.74995 h 6.48229 6.48229 v 1.05833 1.05833 l -6.42264,0.0709 c -5.37867,0.0593 -6.44629,0.009 -6.56817,-0.30838 z"
       id="path850"
       inkscape:connector-curvature="0" />
  </g>
</svg>
