<?xml version="1.0" encoding="UTF-8" standalone="no"?>
<!-- Created with Inkscape (http://www.inkscape.org/) -->

<svg
   xmlns:dc="http://purl.org/dc/elements/1.1/"
   xmlns:cc="http://creativecommons.org/ns#"
   xmlns:rdf="http://www.w3.org/1999/02/22-rdf-syntax-ns#"
   xmlns:svg="http://www.w3.org/2000/svg"
   xmlns="http://www.w3.org/2000/svg"
   xmlns:sodipodi="http://sodipodi.sourceforge.net/DTD/sodipodi-0.dtd"
   xmlns:inkscape="http://www.inkscape.org/namespaces/inkscape"
   version="1.0"
   width="113.00001"
   height="35.375"
   id="svg2"
   sodipodi:docname="fish.svg"
   inkscape:version="0.92.4 (5da689c313, 2019-01-14)">
  <metadata
     id="metadata9990">
    <rdf:RDF>
      <cc:Work
         rdf:about="">
        <dc:format>image/svg+xml</dc:format>
        <dc:type
           rdf:resource="http://purl.org/dc/dcmitype/StillImage" />
        <dc:title></dc:title>
      </cc:Work>
    </rdf:RDF>
  </metadata>
  <sodipodi:namedview
     pagecolor="#ffffff"
     bordercolor="#666666"
     borderopacity="1"
     objecttolerance="10"
     gridtolerance="10"
     guidetolerance="10"
     inkscape:pageopacity="0"
     inkscape:pageshadow="2"
     inkscape:window-width="4200"
     inkscape:window-height="2569"
     id="namedview9988"
     showgrid="false"
     inkscape:zoom="1.9666667"
     inkscape:cx="-6.8050764"
     inkscape:cy="-90.20286"
     inkscape:window-x="-16"
     inkscape:window-y="-16"
     inkscape:window-maximized="1"
     inkscape:current-layer="svg2" />
  <defs
     id="defs4" />
  <path
     id="path10539"
     style="fill:#a30075;fill-opacity:1;fill-rule:evenodd;stroke:none"
     d="m 2.78125,0 -1.5625,7.15625 -1.0625,7 L 0,21.125 l 0.90625,6.96875 1.5,7 26.25,-14.53125 6.0625,3.5625 6.1875,3.53125 6.343754,3.125 6.65625,2.4375 6.937504,1.5 7.09375,0.65625 7.1875,-0.0625 7.15625,-0.84375 6.90625,-1.71875 6.53125,-2.65625 6.062502,-3.59375 5.6875,-4.21875 5.53125,-4.5625 -5.3125,-4.375 -5.6875,-4.1875 -6.093752,-3.5 -6.5625,-2.59375 -6.9375,-1.6875 -7.15625,-0.90625 -7.1875,-0.15625 -7.125,0.5625 -6.937504,1.46875 -6.59375,2.4375 -6.343754,3.25 -6.21875,3.4375 -6.1875,3.4375 z"
     inkscape:connector-curvature="0" />
  <path
     style="fill:#fbfffe;fill-opacity:1;fill-rule:evenodd;stroke:none"
     d="m 91.000008,12.78125 c 2.76,0 5,2.24 5,5 0,2.76 -2.24,5 -5,5 -2.76,0 -5,-2.24 -5,-5 0,-2.76 2.24,-5 5,-5 z"
     id="path10537"
     inkscape:connector-curvature="0" />
</svg>
