<?xml version="1.0" encoding="UTF-8" standalone="no"?>
<!-- Created with Inkscape (http://www.inkscape.org/) -->

<svg
   xmlns:dc="http://purl.org/dc/elements/1.1/"
   xmlns:cc="http://creativecommons.org/ns#"
   xmlns:rdf="http://www.w3.org/1999/02/22-rdf-syntax-ns#"
   xmlns:svg="http://www.w3.org/2000/svg"
   xmlns="http://www.w3.org/2000/svg"
   xmlns:sodipodi="http://sodipodi.sourceforge.net/DTD/sodipodi-0.dtd"
   xmlns:inkscape="http://www.inkscape.org/namespaces/inkscape"
   id="svg3006"
   version="1.1"
   inkscape:version="0.92.4 (5da689c313, 2019-01-14)"
   width="14.690538"
   height="35.430973"
   sodipodi:docname="Flarestack.svg">
  <metadata
     id="metadata3012">
    <rdf:RDF>
      <cc:Work
         rdf:about="">
        <dc:format>image/svg+xml</dc:format>
        <dc:type
           rdf:resource="http://purl.org/dc/dcmitype/StillImage" />
        <dc:title></dc:title>
      </cc:Work>
    </rdf:RDF>
  </metadata>
  <defs
     id="defs3010" />
  <sodipodi:namedview
     pagecolor="#ffffff"
     bordercolor="#666666"
     borderopacity="1"
     objecttolerance="10"
     gridtolerance="10"
     guidetolerance="10"
     inkscape:pageopacity="0"
     inkscape:pageshadow="2"
     inkscape:window-width="4200"
     inkscape:window-height="2569"
     id="namedview3008"
     showgrid="false"
     inkscape:zoom="27.092268"
     inkscape:cx="6.0341179"
     inkscape:cy="6.4812751"
     inkscape:window-x="-16"
     inkscape:window-y="-16"
     inkscape:window-maximized="1"
     inkscape:current-layer="svg3006" />
  <ellipse
     style="fill:none;fill-opacity:0.99680002;fill-rule:evenodd;stroke:#000000;stroke-width:1.13385832;stroke-miterlimit:4;stroke-dasharray:none;stroke-dashoffset:0;stroke-opacity:1"
     id="path894"
     cx="7.4560018"
     cy="31.948084"
     rx="3.2112484"
     ry="2.915961" />
  <path
     style="fill:none;stroke:#000000;stroke-width:1px;stroke-linecap:butt;stroke-linejoin:miter;stroke-opacity:1"
     d="M 0,31.652799 H 4.5031298"
     id="path896"
     inkscape:connector-curvature="0" />
  <path
     style="fill:none;stroke:#000000;stroke-width:1px;stroke-linecap:butt;stroke-linejoin:miter;stroke-opacity:1"
     d="m 10.814893,31.431334 h 3.875645"
     id="path900"
     inkscape:connector-curvature="0" />
  <path
     style="fill:none;stroke:#000000;stroke-width:2.4000001;stroke-linecap:butt;stroke-linejoin:miter;stroke-miterlimit:4;stroke-dasharray:none;stroke-opacity:1"
     d="M 6.1272095,29.696521 5.9795659,13.123527"
     id="path902"
     inkscape:connector-curvature="0" />
  <path
     style="fill:none;stroke:#000000;stroke-width:2.4000001;stroke-linecap:butt;stroke-linejoin:miter;stroke-miterlimit:4;stroke-dasharray:none;stroke-opacity:1"
     d="m 8.2311304,13.344992 0.295287,15.613311"
     id="path906"
     inkscape:connector-curvature="0" />
  <path
     style="fill:none;stroke:#000000;stroke-width:1px;stroke-linecap:butt;stroke-linejoin:miter;stroke-opacity:1"
     d="m 8.5633284,0.352355 c 0,0.07382 0,0.147643 0,0.221465 0,0.02461 -0.02461,-0.07382 0,-0.07382 0.02461,0 0,0.04922 0,0.07382 0,0.07382 0,0.14764403 0,0.22146503 0,0.0123 -0.0087,0.02821 0,0.03691 0.0087,0.0087 0.02821,-0.0087 0.03691,0 0.0087,0.0087 0.0087,0.02821 0,0.03691 -0.0087,0.0087 -0.03691,0.0123 -0.03691,0 0,-0.0123 0.03141,-0.011 0.03691,0 0.01101,0.02201 0,0.04922 0,0.07382 0,0.06152 0,0.12303597 0,0.18455497 0,0.0123 0.0087,0.02821 0,0.03691 -0.0087,0.0087 -0.02821,-0.0087 -0.03691,0 -0.0087,0.0087 0.0123,0.03691 0,0.03691 -0.0123,0 -0.0123,-0.03691 0,-0.03691 0.0123,0 0.0123,0.03691 0,0.03691 -0.0123,0 0,-0.04921 0,-0.03691 0,0.198525 0.0261,0.03467 -0.07382,0.184555 -0.0068,0.01024 0.0087,0.02821 0,0.03691 -0.0087,0.0087 -0.02821,-0.0087 -0.03691,0 -0.01074,0.01074 0.01203,0.129594 0,0.147643 -0.0193,0.02896 -0.05452,0.04487 -0.07382,0.07382 -0.0068,0.01024 0,0.02461 0,0.03691 0,0.03691 0.009,0.07492 0,0.110733 -0.0042,0.01688 -0.02726,0.02243 -0.03691,0.03691 -0.01526,0.02289 -0.01746,0.05437 -0.03691,0.07382 -0.01945,0.01945 -0.05856,0.01402 -0.07382,0.03691 -0.01365,0.02047 0.0078,0.05048 0,0.07382 -0.0055,0.01651 -0.03691,0.01951 -0.03691,0.03691 0,0.02751 0.03691,0.04631 0.03691,0.07382 0,0.0123 -0.03302,-0.01167 -0.03691,0 -0.01167,0.03502 0,0.07382 0,0.110733 0,0.03691 0.02048,0.08002 0,0.110732 -0.03412,0.05119 -0.107608,0.06403 -0.147643,0.110733 -0.03581,0.04178 -0.04184,0.102869 -0.07382,0.147644 -0.03034,0.04248 -0.08388,0.06597 -0.110733,0.110732 -0.01266,0.0211 0.0174,0.05642 0,0.07382 -0.0174,0.0174 -0.05181,-0.011 -0.07382,0 -0.01101,0.0055 0.0123,0.03691 0,0.03691 -0.0123,0 -0.0123,-0.03691 0,-0.03691 0.0123,0 0.0039,0.02524 0,0.03691 -0.0087,0.0261 -0.01973,0.05234 -0.03691,0.07382 -0.03261,0.04076 -0.0651,0.08538 -0.110733,0.110733 -0.068023,0.03779 -0.1518656,0.03902 -0.2214654,0.07382 -0.011005,0.0055 0.00788,0.02746 0,0.03691 -0.055696,0.06684 -0.126755,0.11953 -0.1845545,0.184555 -0.040871,0.04598 -0.062695,0.109213 -0.1107327,0.147643 -0.2091618,0 -0.012304,-0.02461 -0.073822,0.03691 -0.0087,0.0087 -0.031409,-0.011 -0.036911,0 -0.011005,0.02201 0.0174,0.05642 0,0.07382 -0.0174,0.0174 -0.050477,-0.0078 -0.073822,0 -0.016507,0.0055 -0.022433,0.02726 -0.036911,0.03691 -0.022891,0.01526 -0.054368,0.01746 -0.073822,0.03691 -0.1864667,0.186467 0,0.02837 0,0.07382 0,0.0174 -0.020619,0.0308 -0.036911,0.03691 -0.083869,0.03145 -0.1714789,0.0521 -0.2583763,0.07382 -0.011936,0.003 -0.027459,-0.0079 -0.036911,0 -0.066835,0.0557 -0.1288586,0.11772 -0.1845545,0.184555 -0.00788,0.0095 0,0.02461 0,0.03691 -0.061518,0.04921 -0.1114076,0.118385 -0.1845545,0.147643 -0.022847,0.0091 -0.024607,-0.07382 0,-0.07382 0.024607,0 0.024607,0.07382 0,0.07382 -0.024607,0 0.0174,-0.09122 0,-0.07382 -0.027512,0.02751 -0.029281,0.07258 -0.036911,0.110732 -0.00483,0.02413 0.0174,0.05642 0,0.07382 -0.050729,0.05073 -0.1230364,0.07382 -0.1845545,0.110733 -0.049215,0.09843 -0.082917,0.206288 -0.1476437,0.295287 -0.036183,0.04975 -0.1013464,0.07022 -0.1476436,0.110733 -0.052379,0.04583 -0.091964,0.105883 -0.1476436,0.147643 -0.00984,0.0074 0.0087,-0.02821 0,-0.03691 -0.0087,-0.0087 -0.028211,-0.0087 -0.036911,0 -0.0174,0.0174 0.00778,0.05048 0,0.073822 -0.0087,0.0261 -0.017457,0.054368 -0.036911,0.073822 -0.0435,0.0435 -0.1201318,0.055709 -0.1476436,0.1107327 -0.012304,0.024607 0.058561,0.01402 0.073822,0.036911 0.01365,0.020474 0.024607,0.073822 0,0.073822 -0.024607,0 0.0174,-0.056422 0,-0.073822 -0.0174,-0.0174 -0.064683,-0.022847 -0.073822,0 -0.022847,0.057118 0.025456,0.1285504 0,0.1845545 C 5.2015955,5.4596852 5.0997798,5.5077201 5.056805,5.5936696 5.011432,5.6844166 5.031567,5.799887 4.982983,5.8889568 4.953525,5.9429628 4.8753749,5.9529818 4.8353394,5.9996895 c -0.035809,0.041777 -0.045512,0.1004613 -0.073822,0.1476436 -0.063347,0.1055792 -0.018089,-0.056467 -0.073822,0.1107327 -0.011606,0.034818 0.00937,0.1517457 0,0.1845545 -0.015116,0.052906 -0.046522,0.09987 -0.073822,0.1476436 -0.022009,0.038517 -0.073822,0.066371 -0.073822,0.1107327 0,0.0348 0.060897,0.041511 0.073822,0.073822 0.013708,0.034271 -0.00895,0.074924 0,0.1107327 0.00422,0.01688 0.03405,0.019748 0.036911,0.036911 0.010114,0.060681 0,0.1230364 0,0.1845545 0,0.036911 0,0.073822 0,0.1107327 0,0.012304 -0.012304,-0.036911 0,-0.036911 0.027512,0 0.073822,0.0094 0.073822,0.036911 0,0.027512 -0.061518,0.012304 -0.073822,0.036911 -0.016507,0.033014 0,0.073822 0,0.1107327 0,0.012304 -0.012304,-0.036911 0,-0.036911 0.012304,0 0,0.024607 0,0.036911 0,0.073822 0,0.1476436 0,0.2214654 0,0.036911 0.011672,0.075716 0,0.1107327 -0.00389,0.011672 -0.036911,-0.012304 -0.036911,0 0,0.027512 0.031515,0.046844 0.036911,0.073822 0.0074,0.036991 0,0.1734019 0,0.2214654 0,0.012304 0.0087,0.028211 0,0.036911 -0.0087,0.0087 -0.028211,-0.0087 -0.036911,0 -0.010521,0.010521 0.00847,0.1476436 0,0.1476436 -0.012304,0 -0.012304,-0.036911 0,-0.036911 0.012304,0 0.011005,0.031409 0,0.036911 -0.022009,0.011005 -0.073822,-0.024607 -0.073822,0 0,0.066257 0.05562,0.1208467 0.073822,0.1845545 0.00676,0.023661 -0.00483,0.049692 0,0.073822 0.00763,0.038152 0.027474,0.072987 0.036911,0.1107327 0.00597,0.023873 0,0.049215 0,0.073822 0,0.036911 0,0.073822 0,0.1107327 0,0.1107327 0,0.2214654 0,0.3321981 0,0.1845545 0,0.369109 0,0.5536635 0,0.049215 -0.027299,0.1066947 0,0.1476436 0.01365,0.020474 0.060172,-0.020474 0.073822,0 0.020474,0.030712 0,0.073822 0,0.1107327 0,0.098429 0,0.1968579 0,0.2952869 0,0.04922 -0.00965,0.09938 0,0.147644 0.0054,0.02698 0.028211,0.04772 0.036911,0.07382 0.00389,0.01167 0.012304,0.03691 0,0.03691 -0.012304,0 -0.012304,-0.03691 0,-0.03691 0.012304,0 0.012304,0.03691 0,0.03691 -0.012304,0 -0.012304,-0.03691 0,-0.03691 0.012304,0 -0.011672,0.03302 0,0.03691 0.035017,0.01167 0.075716,-0.01167 0.1107327,0 0.011672,0.0039 -0.012304,0.03691 0,0.03691 0.027512,0 0.061518,-0.06152 0.073822,-0.03691 0.033014,0.06603 0,0.147644 0,0.221465 0,0.02461 -0.00778,0.05048 0,0.07382 0.0055,0.01651 0.032691,0.02003 0.036911,0.03691 0.00895,0.03581 -0.020474,0.08002 0,0.110733 0.01365,0.02047 0.073822,-0.02461 0.073822,0 0,0.02751 -0.058561,0.01402 -0.073822,0.03691 -0.01365,0.02047 0,0.04921 0,0.07382 0,0.07382 0,0.147644 0,0.221465 0,0.0123 -0.011005,0.03141 0,0.03691 0.037936,0.01897 0.1830166,-0.05306 0.073822,0.110733 -0.01365,0.02047 -0.056422,-0.0174 -0.073822,0 -0.0088,0.0088 0,0.123794 0,0.147644 0,0.02461 -0.01365,0.05335 0,0.07382 0.015261,0.02289 0.04631,0.03691 0.073822,0.03691 0.0174,0 0.021348,-0.02913 0.036911,-0.03691 0.011005,-0.0055 0.036911,-0.0123 0.036911,0 0,0.0174 -0.036911,0.01951 -0.036911,0.03691 0,0.02751 0.028211,0.04772 0.036911,0.07382 0.00735,0.02205 -0.00974,0.06895 0,0.07382 0.02201,0.01101 0.056422,-0.0174 0.073822,0 0.00916,0.0092 -0.00853,0.16749 0,0.184555 0.0055,0.011 0.028211,-0.0087 0.036911,0 0.031368,0.03137 0.02946,0.110732 0.073822,0.110732 0.036911,0 -0.011672,-0.07572 0,-0.110732 0.00389,-0.01167 0.03302,-0.01167 0.036911,0 0.011672,0.03502 -0.033014,0.12724 0,0.110732 0.049215,-0.02461 0.028039,-0.117122 0.073822,-0.147643 0.022891,-0.01526 0.031515,0.04684 0.036911,0.07382 0.00724,0.03619 -0.020474,0.08002 0,0.110733 0.073822,0.110732 0.055366,-0.05537 0.1107327,0 0.0087,0.0087 0,0.02461 0,0.03691 0,0.02461 0.024607,0.07382 0,0.07382 -0.024607,0 -0.0174,-0.05642 0,-0.07382 0.0174,-0.0174 0.056422,-0.0174 0.073822,0 0.0174,0.0174 0,0.04922 0,0.07382 0,0.0123 0.012304,0.03691 0,0.03691 -0.012304,0 -0.012304,-0.03691 0,-0.03691 0.0174,0 0.021348,0.02913 0.036911,0.03691 0.011005,0.0055 0.028211,-0.0087 0.036911,0 0.0087,0.0087 -0.00682,0.02667 0,0.03691 0.019304,0.02895 0.073822,0.03902 0.073822,0.07382 0,0.02461 -0.073822,0.02461 -0.073822,0 0,-0.02461 0.051812,-0.011 0.073822,0 0.011005,0.0055 0,0.02461 0,0.03691"
     id="path908"
     inkscape:connector-curvature="0" />
  <path
     style="fill:none;stroke:#000000;stroke-width:1px;stroke-linecap:butt;stroke-linejoin:miter;stroke-opacity:1"
     d="m 8.6740614,2.087167 c -0.183379,0.01346 -0.0021,0.132355 -0.03691,0.184554 -0.0193,0.02896 -0.05452,0.04487 -0.07382,0.07382 -0.0068,0.01024 0,0.02461 0,0.03691 0,0.03691 0,0.07382 0,0.110733 0,0.385675 0.01556,-0.05647 -0.03691,0.258376 -0.0061,0.03641 0.01371,0.07646 0,0.110733 -0.01293,0.03231 -0.05452,0.04487 -0.07382,0.07382 -0.0068,0.01024 0.0055,0.02591 0,0.03691 -0.0078,0.01556 -0.02461,0.02461 -0.03691,0.03691 -0.02461,0.02461 -0.05452,0.04487 -0.07382,0.07382 -0.0068,0.01024 0,0.02461 0,0.03691 0,0.02461 0.01101,0.05181 0,0.07382 -0.0055,0.011 -0.03691,-0.0123 -0.03691,0 0,0.0174 0.03141,0.0204 0.03691,0.03691 0.02014,0.06043 -0.02407,0.133175 -0.03691,0.184554 -0.003,0.01194 0.0068,0.02667 0,0.03691 -0.0193,0.02896 -0.05452,0.04487 -0.07382,0.07382 -0.0068,0.01024 0.0087,0.02821 0,0.03691 -0.0087,0.0087 -0.02591,-0.0055 -0.03691,0 -0.09076,0.04538 -0.0035,0.171304 -0.03691,0.221465 -0.01526,0.02289 -0.05437,0.01746 -0.07382,0.03691 -0.0087,0.0087 0.0087,0.02821 0,0.03691 -0.0087,0.0087 -0.03691,0.0123 -0.03691,0 0,-0.0123 0.03141,-0.01101 0.03691,0 0.011,0.02201 0,0.04921 0,0.07382 0,0.05298 0.0097,0.182619 0,0.221465 -0.03554,0.142153 -0.110733,-0.165907 -0.110733,0.147644 0,0.0035 0.102998,0.06697 0.07382,0.110733 -0.0193,0.02895 -0.05452,0.04487 -0.07382,0.07382 -0.01114,0.01671 0.01389,0.147643 0,0.147643 -0.02461,0 -0.02461,-0.07382 0,-0.07382 0.02461,0 0.02461,0.07382 0,0.07382 -0.02461,0 0,-0.09843 0,-0.07382 0,0.148148 0,0.07332 0,0.221466 0,0.02461 0.0078,0.05048 0,0.07382 -0.0055,0.01651 -0.02461,0.02461 -0.03691,0.03691 0,0.03691 0,0.073822 0,0.1107331 0,0.036911 0,0.073822 0,0.1107327 0,0.012304 0.0123,0.036911 0,0.036911 -0.0123,0 -0.0123,-0.036911 0,-0.036911 0.0123,0 0.0123,0.036911 0,0.036911 -0.0123,0 -0.0123,-0.036911 0,-0.036911 0.0123,0 -0.0039,0.025239 0,0.036911 0.0087,0.0261 0.03691,0.04631 0.03691,0.073822 0,0.012304 -0.02821,-0.0087 -0.03691,0 -0.0087,0.0087 -0.0087,0.028211 0,0.036911 0.0087,0.0087 0.02461,0 0.03691,0 0,0.024607 -0.0174,0.056422 0,0.073822 0.0174,0.0174 0.05181,-0.011005 0.07382,0 0.011,0.0055 -0.0123,0.036911 0,0.036911 0.0174,0 0.02135,-0.029129 0.03691,-0.036911 0.011,-0.0055 0.03691,-0.012304 0.03691,0 0,0.012304 -0.03691,-0.012304 -0.03691,0 0,0.0174 0.03141,0.020404 0.03691,0.036911 0.0078,0.023345 0,0.049214 0,0.073822 0,0.012304 0,0.024607 0,0.036911 0,0.012304 -0.01101,0.031409 0,0.036911 0.02201,0.011005 0.05335,-0.01365 0.07382,0 0.02289,0.015261 0.02821,0.047722 0.03691,0.073822 0.0039,0.011672 -0.011,0.031409 0,0.036911 0.02201,0.011005 0.05642,-0.0174 0.07382,0 0.0174,0.0174 -0.0078,0.050477 0,0.073822 0.0055,0.016507 0.02913,0.021348 0.03691,0.036911 0.0055,0.011005 0.0123,0.036911 0,0.036911 -0.0123,0 -0.0123,-0.036911 0,-0.036911 0.02751,0 0.05437,0.017457 0.07382,0.036911 0.01945,0.019454 0.02821,0.047722 0.03691,0.073822 0.0039,0.011672 -0.0087,0.028211 0,0.036911 0.0087,0.0087 0.03141,-0.011005 0.03691,0 0.01836,0.03672 -0.0146,0.103431 0,0.1107327 0.02201,0.011005 0.07382,-0.024607 0.07382,0 0,0.0348 -0.07382,0.039022 -0.07382,0.073822 0,0.024607 0.05181,-0.011005 0.07382,0 0.01101,0.0055 -0.0087,0.028211 0,0.036911 0.0087,0.0087 0.02821,-0.0087 0.03691,0 0.0087,0.0087 -0.011,0.031409 0,0.036911 0.02201,0.011005 0.05642,-0.0174 0.07382,0 0.01846,0.018455 -0.01845,0.092277 0,0.1107327 0.0087,0.0087 0.03141,-0.011005 0.03691,0 0.01836,0.03672 -0.0146,0.103431 0,0.1107327 0.02201,0.011005 0.06017,-0.020475 0.07382,0 0.133153,0.1997303 -0.115754,0.03189 0.03691,0.1845545 0.0087,0.0087 0.02821,-0.0087 0.03691,0 0.0087,0.0087 -0.01101,0.031409 0,0.036911 0.02201,0.011005 0.07382,-0.024607 0.07382,0 0,0.00615 -0.116884,-0.027683 -0.07382,0.036911 0.05848,0.087715 0.110732,0.056034 0.110732,0.1845545 0,0.038907 -0.03691,0.071825 -0.03691,0.1107327 0,0.1509128 0.122013,0.00821 0.147644,0.1107327 0.009,0.035809 0,0.073822 0,0.1107327 0,0.024607 -0.01101,0.051812 0,0.073822 0.0055,0.011005 0.02821,-0.0087 0.03691,0 0.03137,0.031368 0.05398,0.071055 0.07382,0.1107327 0.01651,0.033014 -0.01651,0.077719 0,0.1107327 0.0055,0.011005 0.02821,-0.0087 0.03691,0 0.0174,0.0174 -0.01365,0.053347 0,0.073822 0.0193,0.028955 0.0609,0.041511 0.07382,0.073822 0.02263,0.056563 -0.0196,0.1626532 0,0.2214654 0.0055,0.016507 0.02461,0.024607 0.03691,0.036911 0.02461,0.024607 0.05452,0.044866 0.07382,0.073822 0.002,0.00304 0,0.1384855 0,0.1476436 0,0.012304 -0.0087,0.028211 0,0.036911 0.0087,0.0087 0.03691,-0.012304 0.03691,0 0,0.027512 -0.02821,0.047722 -0.03691,0.073822 -0.0039,0.011672 -0.0087,0.028211 0,0.036911 0.0087,0.0087 0.03691,0.012304 0.03691,0 0,-0.076807 -0.06916,-0.032252 -0.03691,0 0.0087,0.0087 0.03141,-0.011005 0.03691,0 0.01568,0.031357 -0.01328,0.1816298 0,0.2214654 0.0055,0.016507 0.03141,0.020404 0.03691,0.036911 0.0078,0.023344 -0.01365,0.053347 0,0.073822 0.01526,0.022891 0.06152,0.012304 0.07382,0.036911 0.01651,0.033014 -0.01167,0.075716 0,0.1107327 0.0039,0.011672 0.03141,-0.011005 0.03691,0 0.01836,0.03672 -0.0146,0.103431 0,0.1107327 0.02201,0.011005 0.07382,-0.024607 0.07382,0 0,0.024607 -0.05181,-0.011005 -0.07382,0 -0.01101,0.0055 0,0.024607 0,0.036911 0,0.036911 0,0.073822 0,0.1107327 0,0.1476436 0,0.2952872 0,0.4429308 0,0.049215 -0.01828,0.1019491 0,0.1476436 0.01292,0.032311 0.08483,0.040808 0.07382,0.073822 -0.0123,0.036911 -0.08322,0.0094 -0.110732,0.036911 -0.0174,0.0174 0,0.049215 0,0.073822 0,0.012304 0.0123,0.036911 0,0.036911 -0.0123,0 -0.0123,-0.036911 0,-0.036911 0.0123,0 0.0123,0.036911 0,0.036911 -0.0123,0 0,-0.049214 0,-0.036911 0,0.024607 0.0078,0.050477 0,0.073822 -0.0174,0.0522 -0.04551,0.1004614 -0.07382,0.1476436 -0.009,0.01492 -0.03691,0.019511 -0.03691,0.036911 0,0.012304 0.04374,-0.010237 0.03691,0 -0.02895,0.043433 -0.08388,0.065972 -0.110733,0.1107331 -0.01266,0.0211 0.0174,0.05642 0,0.07382 -0.0174,0.0174 -0.05642,-0.0174 -0.07382,0 -0.02751,0.02751 -0.01629,0.07774 -0.03691,0.110732 -0.04176,0.06681 -0.147644,0.105773 -0.147644,0.184555 0,0.05073 0.09691,-0.03691 0.147644,-0.03691 0.02751,0 -0.05856,0.01402 -0.07382,0.03691 -0.01365,0.02047 0,0.04922 0,0.07382 0,0.0123 0.0123,0.03691 0,0.03691 -0.0123,0 -0.0123,-0.03691 0,-0.03691 0.0123,0 0.003,0.02497 0,0.03691 -0.0094,0.03775 -0.0053,0.08812 -0.03691,0.110732 -0.420617,0.300441 -0.04791,-0.136645 -0.369109,0.184555 -0.06023,0.06023 -0.22622,0.324894 -0.258376,0.369109 -0.04634,0.06371 -0.108557,0.116153 -0.147644,0.184554 -0.01221,0.02136 0.02461,0.07382 0,0.07382 -0.02461,0 -0.02461,-0.07382 0,-0.07382 0.02461,0 0,0.04922 0,0.07382 0,0.0123 0.0087,0.02821 0,0.03691 -0.0087,0.0087 -0.04164,-0.01136 -0.03691,0 0.06349,0.152373 0.172921,0.28516 0.221465,0.442931 0.02142,0.06962 -0.139022,0.01967 -0.147643,0.03691 -0.09392,0.187846 0.182972,-0.07224 -0.07382,0.184554 -0.06746,0.06747 -0.405532,0.221181 -0.40602,0.221466 -0.02301,0.01342 -0.211922,0.165973 -0.258376,0.184554 -0.1520364,0.06081 -0.01342,-0.0604 -0.1107328,0.03691"
     id="path910"
     inkscape:connector-curvature="0" />
</svg>
