<?xml version="1.0" encoding="UTF-8" standalone="no"?>
<!-- Generator: Adobe Illustrator 19.2.0, SVG Export Plug-In . SVG Version: 6.00 Build 0)  -->

<svg
   xmlns:dc="http://purl.org/dc/elements/1.1/"
   xmlns:cc="http://creativecommons.org/ns#"
   xmlns:rdf="http://www.w3.org/1999/02/22-rdf-syntax-ns#"
   xmlns:svg="http://www.w3.org/2000/svg"
   xmlns="http://www.w3.org/2000/svg"
   xmlns:sodipodi="http://sodipodi.sourceforge.net/DTD/sodipodi-0.dtd"
   xmlns:inkscape="http://www.inkscape.org/namespaces/inkscape"
   version="1.1"
   id="Layer_1"
   x="0px"
   y="0px"
   viewBox="0 0 11.497509 8.7630279"
   xml:space="preserve"
   sodipodi:docname="fog_signals.svg"
   width="11.497509"
   height="8.7630281"
   inkscape:version="0.92.4 (5da689c313, 2019-01-14)"><metadata
   id="metadata1622"><rdf:RDF><cc:Work
       rdf:about=""><dc:format>image/svg+xml</dc:format><dc:type
         rdf:resource="http://purl.org/dc/dcmitype/StillImage" /></cc:Work></rdf:RDF></metadata><defs
   id="defs1620" /><sodipodi:namedview
   pagecolor="#ffffff"
   bordercolor="#666666"
   borderopacity="1"
   objecttolerance="10"
   gridtolerance="10"
   guidetolerance="10"
   inkscape:pageopacity="0"
   inkscape:pageshadow="2"
   inkscape:window-width="4200"
   inkscape:window-height="2569"
   id="namedview1618"
   showgrid="false"
   inkscape:zoom="21.648799"
   inkscape:cx="-14.569547"
   inkscape:cy="-10.647918"
   inkscape:window-x="-16"
   inkscape:window-y="-16"
   inkscape:window-maximized="1"
   inkscape:current-layer="Layer_1" />
<style
   type="text/css"
   id="style1507">
	.st0{fill:#FFFFFF;}
	.st1{fill-rule:evenodd;clip-rule:evenodd;fill:#A3238E;}
	.st2{fill:#A3238E;}
</style>
<g
   id="g1511"
   transform="translate(-74.217108,27.211053)">
	<rect
   x="0"
   y="0"
   class="st0"
   width="121.89"
   height="36.470001"
   id="rect1509"
   style="fill:#ffffff" />
</g>


















<g
   id="g1605"
   transform="translate(-73.52423,9.9814589)">
</g>
<g
   id="g1607"
   transform="translate(-73.52423,9.9814589)">
</g>
<g
   id="g1609"
   transform="translate(-73.52423,9.9814589)">
</g>
<g
   id="g1611"
   transform="translate(-73.52423,9.9814589)">
</g>
<g
   id="g1613"
   transform="translate(-73.52423,9.9814589)">
</g>
<g
   id="g1615"
   transform="translate(-73.52423,9.9814589)">
</g>
<path
   id="path2177"
   style="fill:none;stroke:#ffadf8;stroke-width:1px;stroke-linecap:butt;stroke-linejoin:miter;stroke-opacity:1"
   d="m 5.6505825,0.88864894 c 1.034444,1.56580596 0.478217,0.31675396 0.2814,0.61197796 -0.01708,0.02562 -0.02177,0.07061 0,0.09238 0.261755,0 0.0154,-0.03079 0.09238,0.04619 0.01089,0.01089 0.04619,-0.0154 0.04619,0 0,0.0154 -0.04619,-0.0154 -0.04619,0 0,0.03443 0.04619,0.05795 0.04619,0.09238 0,0.0154 -0.0353,-0.01089 -0.04619,0 -0.01089,0.01089 0,0.03079 0,0.04619 0,0.0154 -0.01089,0.0353 0,0.04619 0.01089,0.01089 0.04619,-0.0154 0.04619,0 0,0.0154 -0.04619,-0.0154 -0.04619,0 0,0.03443 0.02185,0.06804 0.04619,0.09238 0.01089,0.01089 0.04619,-0.0154 0.04619,0 0,0.02177 -0.03931,0.02553 -0.04619,0.04619 -0.0097,0.02921 0.0308,0.09238 0,0.09238 -0.100082,0 0.01925,-0.146274 0.04619,-0.09238 0.08725,0.174502 -0.01283,0.05902 -0.04619,0.09238 -0.01089,0.01089 -0.01089,0.03531 0,0.04619 0.01089,0.01089 0.03931,-0.01377 0.04619,0 0.01377,0.02754 0,0.06159 0,0.09238 0,0.0154 0.0154,0.04619 0,0.04619 -0.04747,0 0.09238,-0.233353 0.09238,0 0,0.0308 -0.06484,-0.01377 -0.09238,0 -0.01377,0.0069 0,0.0308 0,0.04619 0,0.03079 0,0.06159 0,0.09238 0,0.0154 -0.01377,0.03931 0,0.04619 0.02754,0.01377 0.09238,-0.03079 0.09238,0 0,0.0308 -0.07061,-0.02177 -0.09238,0 -0.02177,0.02177 0,0.06159 0,0.09238 0,0.0154 -0.01377,0.03931 0,0.04619 0.02754,0.01377 0.09238,-0.03079 0.09238,0 0,0.04355 -0.09238,0.04883 -0.09238,0.09238 0,0.03079 0.06484,-0.01377 0.09238,0 0.02754,0.01377 -0.02177,0.07061 0,0.09238 0.01089,0.01089 0.04619,-0.0154 0.04619,0 0,0.03443 -0.0353,0.05972 -0.04619,0.09238 -0.0049,0.01461 0,0.03079 0,0.04619 0,0.0308 -0.01377,0.06484 0,0.09238 0.0069,0.01377 0.0353,-0.01089 0.04619,0 0.123179,0.123179 -0.123178,0 0,0 0.0154,0 -0.01377,0.03931 0,0.04619 0.02754,0.01377 0.09238,-0.03079 0.09238,0 0,0.03079 -0.06484,-0.01377 -0.09238,0 -0.01377,0.0069 -0.01377,0.03931 0,0.04619 0.02754,0.01377 0.06159,0 0.09238,0 0.0154,0 0.04619,-0.0154 0.04619,0 0,0.03443 -0.03531,0.05972 -0.04619,0.09238 -0.0049,0.01461 0,0.03079 0,0.04619 0,0.03079 -0.01377,0.06484 0,0.09238 0.0069,0.01377 0.0353,-0.01089 0.04619,0 0.01112,0.01111 -0.01112,0.173652 0,0.184768 0.01419,0.01418 0.180975,-0.03861 0.138576,0.04619 -0.0154,0.0308 -0.05795,-0.04619 -0.09238,-0.04619 -0.0154,0 0,0.03079 0,0.04619 0,0.0308 -0.02177,0.07061 0,0.09238 0.02177,0.02177 0.06484,-0.01377 0.09238,0 0.01377,0.0069 -0.0154,0.04619 0,0.04619 0.121159,-0.121159 8.8e-4,-0.02266 0.04619,0 0.02754,0.01377 0.06159,0 0.09238,0 0.0154,0 0.04619,-0.0154 0.04619,0 0,0.0154 -0.04619,0.0154 -0.04619,0 0,-0.0154 0.04619,-0.0154 0.04619,0 0,0.0154 -0.03931,-0.01377 -0.04619,0 -0.06819,0.136376 0.0033,0.07809 0.04619,0.09238 0.03266,0.01089 0.05795,0.04619 0.09238,0.04619 0.0154,0 0,-0.03079 0,-0.04619 m -3.089016,-2.525296 c -0.06353,0.241299 -0.123031,0.483693 -0.19058,0.723898 -0.0042,0.01482 -0.0154,-0.04619 0,-0.04619 0.03079,0 -0.02754,0.07861 0,0.09238 0.02754,0.01377 0.07061,-0.02177 0.09238,0 0.02178,0.02178 0.03079,0.09238 0,0.09238 -0.03079,0 -0.03079,-0.09238 0,-0.09238 0.03079,0 0.03079,0.09238 0,0.09238 -0.03079,0 0,-0.123178 0,-0.09238 0,0.04619 0,0.09238 0,0.138576 0,0.03079 -0.01377,0.06484 0,0.09238 0.0069,0.01377 0.0353,-0.01089 0.04619,0 0.01089,0.01089 0.0154,0.04619 0,0.04619 -0.0154,0 -0.0154,-0.04619 0,-0.04619 0.03443,0 0.07329,0.01755 0.09238,0.04619 0.01708,0.02562 -0.01377,0.06484 0,0.09238 0.0069,0.01377 0.0353,-0.01089 0.04619,0 0.07699,0.07699 -0.16937,0.04619 0.09238,0.04619 0.0154,0 0.04619,-0.0154 0.04619,0 0,0.123178 -0.142312,-0.05366 -0.04619,0.138576 0.06159,0.123178 0.04619,-0.138576 0.04619,0.04619 0,0.03079 -0.0308,0.09238 0,0.09238 0.03443,0 0.01176,-0.09238 0.04619,-0.09238 0.03079,0 -0.02177,0.07061 0,0.09238 0.02178,0.02177 0.06484,-0.01377 0.09238,0 0.01377,0.0069 -0.0154,0.04619 0,0.04619 0.02178,0 0.02442,-0.04619 0.04619,-0.04619 0.0154,0 -0.01377,0.03931 0,0.04619 0.02754,0.01377 0.07061,-0.02178 0.09238,0 0.02178,0.02177 0.02178,0.07061 0,0.09238 -0.02177,0.02177 -0.06484,-0.01377 -0.09238,0 -0.01377,0.0069 -0.0154,0.04619 0,0.04619 0.03443,0 0.05795,-0.04619 0.09238,-0.04619 0.0154,0 0,0.03079 0,0.04619 0,0.04619 -0.02066,0.09726 0,0.138576 0.0069,0.01377 0.0353,-0.01089 0.04619,0 0.01089,0.01089 0.0154,0.04619 0,0.04619 -0.0154,0 -0.0154,-0.04619 0,-0.04619 0.0154,0 -0.0154,0.04619 0,0.04619 0.04869,0 0.104146,-0.08062 0.138576,-0.04619 0.01089,0.01089 0,0.03079 0,0.04619 0,0.0308 0,0.06159 0,0.09238 0,0.154834 0.04619,-0.108642 0.04619,0.04619 0,0.04619 0.02066,0.09726 0,0.138576 -0.0069,0.01377 -0.04619,0.0154 -0.04619,0 0,-0.0154 0.03158,-0.0049 0.04619,0 0.03266,0.01089 0.09238,0.01176 0.09238,0.04619 0,0.03079 -0.07061,-0.02177 -0.09238,0 -0.02178,0.02177 0,0.06159 0,0.09238 0,0.0154 0,0.03079 0,0.04619 0,0.138576 0,0.277152 0,0.415728 0,0.0154 0,0.03079 0,0.04619 0,0.03079 0.03079,0.09238 0,0.09238 -0.03079,0 -0.03079,-0.09238 0,-0.09238 0.03079,0 0.03079,0.09238 0,0.09238 -0.03079,0 -0.03079,-0.09238 0,-0.09238 0.03079,0 -0.02178,0.07061 0,0.09238 0.02178,0.02177 0.06484,-0.01377 0.09238,0 0.01377,0.0069 -0.01089,0.0353 0,0.04619 0.01089,0.01089 0.04619,-0.0154 0.04619,0 0,0.0154 -0.04619,0.0154 -0.04619,0 0,-0.0154 0.04619,-0.0154 0.04619,0 0,0.02177 -0.04619,0.02442 -0.04619,0.04619 0,0.0154 0.03931,-0.01377 0.04619,0 0.01377,0.02754 0,0.06159 0,0.09238 0,0.0154 0,0.03079 0,0.04619 0,0.03079 -0.02177,0.07061 0,0.09238 0.02177,0.02177 0.06484,-0.01377 0.09238,0 0.01377,0.0069 0,0.03079 0,0.04619 0,0.0154 0.0154,0.04619 0,0.04619 -0.0154,0 -0.0069,-0.05996 0,-0.04619 0.02177,0.04355 0.01176,0.104147 0.04619,0.138576 0.02177,0.02178 0.06484,-0.01377 0.09238,0 0.06629,0.03315 -0.155124,0.138576 0.04619,0.138576 0.03079,0 -0.0308,-0.09238 0,-0.09238 0.03079,0 0,0.06159 0,0.09238 0,0.0154 0.0154,0.04619 0,0.04619 -0.0154,0 -0.0154,-0.04619 0,-0.04619 0.0154,0 -0.01089,0.0353 0,0.04619 0.01089,0.01089 0.04619,0.0154 0.04619,0 0,-0.02178 -0.02442,-0.04619 -0.04619,-0.04619 -0.0154,0 -0.01089,0.0353 0,0.04619 0.0231,0.0231 0.11548,-0.0231 0.138576,0 0.0231,0.0231 -0.0231,0.11548 0,0.138576 0.01089,0.01089 0.03158,-0.0049 0.04619,0 0.03266,0.01089 0.05972,0.0353 0.09238,0.04619 0.01461,0.0049 0.04619,-0.0154 0.04619,0 0,0.0154 -0.03931,-0.01377 -0.04619,0 -0.08725,0.174502 0.01283,0.05902 0.04619,0.09238 0.06159,0.06159 -0.07699,0.04619 0.04619,0.04619 0.0308,0 0.07061,-0.02177 0.09238,0 0.02177,0.02178 0.03079,0.09238 0,0.09238 -0.04355,0 -0.09238,-0.04883 -0.09238,-0.09238 0,-0.03079 0.07061,-0.02177 0.09238,0 0.02177,0.02178 -0.03079,0.09238 0,0.09238 0.03443,0 0.04619,-0.05795 0.04619,-0.09238 0,-0.0154 -0.04619,0.0154 -0.04619,0 0,-0.05389 0.200165,0.09238 0.04619,0.09238 -0.123178,0 0.09238,-0.215562 0.09238,-0.09238 0,0.0308 -0.09238,-0.03079 -0.09238,0 0,0.04355 0.04883,0.09238 0.09238,0.09238 0.0308,0 -0.03079,-0.09238 0,-0.09238 0.201316,0 -0.0201,0.105429 0.04619,0.138576 0.02754,0.01377 0.09238,-0.03079 0.09238,0 0,0.0308 -0.09238,0.0308 -0.09238,0 0,-0.03079 0.06676,-0.01708 0.09238,0 0.130064,0.0029 0.01176,0.104147 0.04619,0.138576 0.0231,0.0231 0.138576,-0.04619 0.138576,0 0,0.0308 -0.09238,-0.03079 -0.09238,0 0,0.05308 0.105428,0.04619 0.138576,0.04619 0.03079,0 0.07061,-0.02178 0.09238,0 0.02178,0.02177 0.02178,0.07061 0,0.09238 -0.02177,0.02178 -0.06484,-0.01377 -0.09238,0 -0.01377,0.0069 -0.01377,0.03931 0,0.04619 0.02754,0.01377 0.07061,-0.02178 0.09238,0 0.02178,0.02177 0,0.06159 0,0.09238 0,0.0154 0.0154,0.04619 0,0.04619 -0.0154,0 -0.0154,-0.04619 0,-0.04619 0.0154,0 0.0154,0.04619 0,0.04619 -0.0154,0 -0.0154,-0.04619 0,-0.04619 0.0154,0 -0.014,0.03979 0,0.04619 0.06171,0.0282 0.1324,0.0297 0.1986,0.04455 m -5.048709,-3.647437 c 0.431125,-0.05377 -0.04619,0.248253 -0.04619,0.184768 0,-0.0154 0.0353,-0.01089 0.04619,0 0.01089,0.01089 0,0.03079 0,0.04619 0,0.03079 0,0.06159 0,0.09238 0,0.0154 -0.0085,0.03338 0,0.04619 0.103272,0.154907 0.09238,0.03058 0.09238,0.138576 0,0.261754 -0.03079,0.0154 0.04619,0.09238 0.01089,0.01089 0.0154,0.04619 0,0.04619 -0.05708,0 -0.04619,-0.108329 -0.04619,0 0,0.175617 -0.0049,-0.223721 0.04619,0.184767 0.0096,0.07639 0,0.153973 0,0.23096 0,0.03079 -0.01144,0.06379 0,0.09238 0.02062,0.05155 0.06756,0.08892 0.09238,0.138576 0.0069,0.01377 -0.01089,0.0353 0,0.04619 0.01089,0.01089 0.04619,-0.0154 0.04619,0 0,0.03443 -0.04619,0.05795 -0.04619,0.09238 0,0.03569 0.138245,0.09156 0.138576,0.09238 0,0.06159 0,0.123179 0,0.184768 0.0154,0 0.0353,-0.01089 0.04619,0 0.01089,0.01089 -0.01377,0.03931 0,0.04619 0.02754,0.01377 0.06484,-0.01377 0.09238,0 0.01377,0.0069 0,0.03079 0,0.04619 0,0.0308 0,0.06159 0,0.09238 0,0.0154 -0.0049,0.03158 0,0.04619 0.01089,0.03266 0.04619,0.05795 0.04619,0.09238 0,0.02177 -0.03645,0.02671 -0.04619,0.04619 -0.007,0.01404 0,0.152871 0,0.184767 0,0.01291 -0.0036,0.223733 0,0.23096 0.0069,0.01377 0.04619,-0.0154 0.04619,0 0,0.153199 -0.08655,0 -0.04619,0 0.03079,0 -0.02178,0.07061 0,0.09238 0.01089,0.01089 0.0353,-0.01089 0.04619,0 0.02434,0.02434 0.0353,0.05972 0.04619,0.09238 0.0049,0.01461 -0.01377,0.03931 0,0.04619 0.02754,0.01377 0.0753,-0.02562 0.09238,0 0.02562,0.03843 -0.01461,0.09475 0,0.138576 0.0049,0.01461 0.04619,-0.0154 0.04619,0 0,0.0154 -0.03931,-0.01377 -0.04619,0 -0.01377,0.02754 0.03079,0.09238 0,0.09238 -0.153973,0 0.04619,-0.146274 0.04619,-0.09238 0,0.03443 -0.01176,0.09238 -0.04619,0.09238 -0.03079,0 -0.01377,-0.06484 0,-0.09238 0.0069,-0.01377 0.03931,-0.01377 0.04619,0 0.01377,0.02754 -0.02178,0.07061 0,0.09238 0.05609,0.05609 0.111668,-0.06144 0.138576,0.04619 0.0112,0.04481 -0.02562,0.100142 0,0.138576 0.01708,0.02562 0.07061,-0.02177 0.09238,0 0.02178,0.02178 -0.01377,0.06484 0,0.09238 0.0069,0.01377 0.0353,-0.01089 0.04619,0 0.01089,0.01089 -0.0069,0.03242 0,0.04619 0.0097,0.01948 0.03931,0.02553 0.04619,0.04619 0.0097,0.02921 -0.01708,0.06676 0,0.09238 0.0191,0.02865 0.06804,0.02185 0.09238,0.04619 0.167459,0.167459 0,0.03287 0,0.138576 0,0.03443 0.02185,0.06804 0.04619,0.09238 0.02435,0.02435 0.09238,0.01176 0.09238,0.04619 0,0.03079 -0.06484,-0.01377 -0.09238,0 -0.01377,0.0069 -0.01377,0.03931 0,0.04619 0.02754,0.01377 0.07061,-0.02177 0.09238,0 0.0231,0.0231 -0.0231,0.11548 0,0.138576 0.01089,0.01089 0.04619,-0.0154 0.04619,0 0,0.0154 -0.06159,0 -0.04619,0 0.03079,0 0.07061,-0.02177 0.09238,0 0.02178,0.02178 -0.03079,0.09238 0,0.09238 0.03366,0 0.138576,-0.223619 0.138576,0 0,0.0154 -0.04619,-0.0154 -0.04619,0 0,0.04869 0.03438,0.09134 0.04619,0.138576 0.0037,0.01494 -0.01377,0.03931 0,0.04619 0.02754,0.01377 0.06676,-0.01708 0.09238,0 0.02865,0.0191 0.0353,0.05972 0.04619,0.09238 0.0049,0.01461 0.0154,0.04619 0,0.04619 -0.0154,0 -0.0154,-0.04619 0,-0.04619 0.0154,0 -0.01377,0.03931 0,0.04619 0.02754,0.01377 0.09238,0.03079 0.09238,0 0,-0.03443 -0.05795,-0.04619 -0.09238,-0.04619 -0.0154,0 -0.01377,0.03931 0,0.04619 0.02754,0.01377 0.06484,-0.01377 0.09238,0 0.01377,0.0069 -0.01089,0.0353 0,0.04619 0.01089,0.01089 0.03931,-0.01377 0.04619,0 0.01377,0.02754 0.03079,0.09238 0,0.09238 -0.03443,0 -0.08062,-0.09238 -0.04619,-0.09238 0.151387,0 0.138575,0.06486 0.138575,0.138576 0,0.03079 -0.03079,0.09238 0,0.09238 0.05552,0 0.113749,-0.04273 0.138576,-0.09238 0.04036,-0.08072 -0.363478,0.09238 0,0.09238 0.03079,0 -0.01377,-0.06484 0,-0.09238 0.0069,-0.01377 0.03338,-0.0085 0.04619,0 0.03624,0.02416 0.07621,0.05195 0.09238,0.09238 0.01716,0.04289 -0.0112,0.09376 0,0.138576 0.0053,0.02112 0.03645,0.02672 0.04619,0.04619 0.0069,0.01377 0,0.0308 0,0.04619 0,0.0308 -0.0097,0.06317 0,0.09238 0.0069,0.02066 0.03079,0.03079 0.04619,0.04619 0.0308,0.03079 0.06823,0.05615 0.09238,0.09238 0.0085,0.01281 0,0.03079 0,0.04619 0,0.03079 0.03079,0.09238 0,0.09238 -0.05363,0 0.04619,-0.261709 0.04619,0 0,0.0154 -0.04619,-0.0154 -0.04619,0 0,0.02178 0.04619,0.02442 0.04619,0.04619 0,0.0154 -0.0353,-0.01089 -0.04619,0 -0.01089,0.01089 0,0.03079 0,0.04619 0,0.0308 -0.01377,0.06484 0,0.09238 0.0069,0.01377 0.0353,-0.01089 0.04619,0 0.07699,0.07699 -0.16937,0.04619 0.09238,0.04619 0.0154,0 0.03931,-0.01377 0.04619,0 0.01377,0.02754 -0.02177,0.07061 0,0.09238 0.0231,0.0231 0.11548,-0.0231 0.138576,0 0.01089,0.01089 0.0154,0.04619 0,0.04619 -0.153199,0 0,-0.08655 0,-0.04619 0,0.0154 -0.0353,-0.01089 -0.04619,0 -0.01089,0.01089 -0.01089,0.0353 0,0.04619 0.01089,0.01089 0.03931,-0.01377 0.04619,0 0.01377,0.02754 -0.01377,0.06484 0,0.09238 0.0069,0.01377 0.04619,0.0154 0.04619,0 0,-0.03443 -0.04619,-0.05795 -0.04619,-0.09238 0,-0.0154 0.03931,-0.01377 0.04619,0 0.153973,0.17664 -0.04619,0.05795 -0.04619,0.09238 0,0.02178 0.04619,0.02442 0.04619,0.04619 0,0.0154 -0.0353,0.01089 -0.04619,0 -0.01089,-0.01089 -0.01089,-0.03531 0,-0.04619 0.01089,-0.01089 0.04619,-0.0154 0.04619,0 0,0.02178 -0.04619,0.02442 -0.04619,0.04619 0,0.0106 0.171601,-0.01317 0.184768,0 0.01179,0.01178 -0.01179,0.126791 0,0.138576 0.02177,0.02177 0.06484,-0.01377 0.09238,0 0.01377,0.0069 -0.01089,0.0353 0,0.04619 0.01089,0.01089 0.03931,-0.01377 0.04619,0 0.01377,0.02754 0.03079,0.09238 0,0.09238 -0.03079,0 -0.03079,-0.09238 0,-0.09238 0.03079,0 0.03079,0.09238 0,0.09238 -0.03298,0 0.02577,-0.176816 -0.01372,-0.04743 m 2.859997,-3.519853 c -1.12,-0.88 -1.81,-2.2 -1.89,-3.60999996 l 0.61,-0.04 c 0.07,1.23999996 0.68,2.39999996 1.66,3.16999996 z m -2.86,3.52 c -2,-1.6 -3.24999996,-3.87 -3.51999996,-6.41 l 0.60999996,-0.06 c 0.25,2.37 1.42,4.5 3.29,5.99 z m 1.7,-1.82 c -1.59,-1.16 -2.44,-2.73 -2.66,-4.94 l 0.61,-0.06 c 0.21,2.05 0.95,3.44 2.41,4.51 z"
   inkscape:connector-curvature="0" /><ellipse
   style="fill:none;fill-opacity:1;fill-rule:evenodd;stroke:#040404;stroke-width:2;stroke-miterlimit:4;stroke-dasharray:none;stroke-dashoffset:0;stroke-opacity:1"
   id="path2181"
   cx="9.9968834"
   cy="1.0156108"
   rx="0.50062621"
   ry="0.015610851" /></svg>