<?xml version="1.0" encoding="UTF-8" standalone="no"?>
<!-- Created with Inkscape (http://www.inkscape.org/) -->

<svg
   xmlns:dc="http://purl.org/dc/elements/1.1/"
   xmlns:cc="http://creativecommons.org/ns#"
   xmlns:rdf="http://www.w3.org/1999/02/22-rdf-syntax-ns#"
   xmlns:svg="http://www.w3.org/2000/svg"
   xmlns="http://www.w3.org/2000/svg"
   xmlns:sodipodi="http://sodipodi.sourceforge.net/DTD/sodipodi-0.dtd"
   xmlns:inkscape="http://www.inkscape.org/namespaces/inkscape"
   width="14.736686mm"
   height="14.926461mm"
   viewBox="0 0 14.736686 14.926461"
   version="1.1"
   id="svg8744"
   inkscape:version="0.92.4 (5da689c313, 2019-01-14)"
   sodipodi:docname="foulground.svg">
  <defs
     id="defs8738" />
  <sodipodi:namedview
     id="base"
     pagecolor="#ffffff"
     bordercolor="#666666"
     borderopacity="1.0"
     inkscape:pageopacity="0.0"
     inkscape:pageshadow="2"
     inkscape:zoom="5.944697"
     inkscape:cx="27.794747"
     inkscape:cy="26.270727"
     inkscape:document-units="mm"
     inkscape:current-layer="layer1"
     showgrid="false"
     inkscape:window-width="4200"
     inkscape:window-height="2569"
     inkscape:window-x="-16"
     inkscape:window-y="-16"
     inkscape:window-maximized="1" />
  <metadata
     id="metadata8741">
    <rdf:RDF>
      <cc:Work
         rdf:about="">
        <dc:format>image/svg+xml</dc:format>
        <dc:type
           rdf:resource="http://purl.org/dc/dcmitype/StillImage" />
        <dc:title></dc:title>
      </cc:Work>
    </rdf:RDF>
  </metadata>
  <g
     inkscape:label="Calque 1"
     inkscape:groupmode="layer"
     id="layer1"
     transform="translate(206.44103,-136.88294)">
    <path
       style="fill:#000000;stroke-width:0.26458332"
       d=""
       id="path9894"
       inkscape:connector-curvature="0" />
    <path
       style="fill:#000000;stroke-width:0.26458335"
       d="m -201.07309,151.6387 c -5.44825,-1.78743 -7.18882,-8.7587 -3.16306,-12.66849 2.872,-2.78925 7.62118,-2.78201 10.33833,0.0157 1.52837,1.57371 2.19876,3.20686 2.19344,5.34349 -0.008,3.02393 -1.47113,5.41758 -4.14851,6.78473 -1.20827,0.61698 -4.06383,0.9039 -5.2202,0.52453 z m 4.94071,-1.3112 c 1.25706,-0.64131 2.64226,-2.14316 3.1961,-3.46528 0.60059,-1.43373 0.51255,-3.97622 -0.18779,-5.42293 -1.27329,-2.63028 -4.30343,-4.18335 -7.07571,-3.6266 -3.10124,0.62282 -5.14656,2.96945 -5.32392,6.10821 -0.17424,3.08367 1.32889,5.53135 4.07693,6.63878 1.60599,0.6472 3.77654,0.55237 5.31439,-0.23218 z m -6.1221,-2.14943 c -0.0858,-0.13883 -0.0799,-0.55555 0.0131,-0.92605 0.154,-0.61356 0.0957,-0.67362 -0.65336,-0.67362 -1.22365,0 -1.09029,-0.73924 0.15225,-0.84393 1.01681,-0.0857 0.98131,-0.0352 1.50096,-2.13264 0.16077,-0.64889 0.10818,-0.7276 -0.48623,-0.7276 -0.48284,0 -0.6665,-0.14119 -0.6665,-0.5124 0,-0.38321 0.2142,-0.53331 0.8495,-0.59532 0.65552,-0.064 0.88481,-0.23395 1.00412,-0.74436 0.22008,-0.94151 0.94681,-0.87246 0.84611,0.0804 -0.0779,0.73726 -0.0698,0.74136 1.31217,0.66146 1.23489,-0.0714 1.40787,-0.15428 1.5452,-0.74046 0.0851,-0.36304 0.36967,-0.70148 0.63247,-0.75209 0.40652,-0.0783 0.451,0.0301 0.2981,0.72621 -0.16463,0.74957 -0.12243,0.81824 0.50277,0.81824 0.50609,0 0.68248,0.13676 0.68248,0.52916 0,0.42464 -0.17639,0.52917 -0.89297,0.52917 -0.77249,0 -0.91355,0.10293 -1.04554,0.76288 -0.0839,0.41959 -0.23077,1.07443 -0.32634,1.45521 -0.15415,0.61418 -0.0959,0.69233 0.51638,0.69233 1.02744,0 0.88739,0.74097 -0.15936,0.84313 -0.65498,0.0639 -0.88483,0.23405 -1.00379,0.74298 -0.0849,0.36304 -0.36931,0.70148 -0.63211,0.75209 -0.40806,0.0786 -0.45111,-0.0296 -0.29488,-0.74089 l 0.18293,-0.8329 -1.39768,0.0808 c -1.3305,0.0769 -1.40834,0.12214 -1.61931,0.9407 -0.21978,0.85276 -0.56028,1.09315 -0.86043,0.60749 z m 4.36348,-3.18717 c 0.60793,-2.31997 0.69373,-2.11667 -0.89331,-2.11667 -1.36125,0 -1.43422,0.0352 -1.57975,0.76288 -0.0839,0.41959 -0.23246,1.08116 -0.33009,1.47016 -0.17741,0.70685 -0.17665,0.70723 1.22615,0.62618 1.2435,-0.0718 1.42344,-0.15657 1.577,-0.74255 z"
       id="path9922"
       inkscape:connector-curvature="0" />
  </g>
</svg>
