<?xml version="1.0" encoding="UTF-8" standalone="no"?>
<!-- Created with Inkscape (http://www.inkscape.org/) -->

<svg
   xmlns:dc="http://purl.org/dc/elements/1.1/"
   xmlns:cc="http://creativecommons.org/ns#"
   xmlns:rdf="http://www.w3.org/1999/02/22-rdf-syntax-ns#"
   xmlns:svg="http://www.w3.org/2000/svg"
   xmlns="http://www.w3.org/2000/svg"
   xmlns:sodipodi="http://sodipodi.sourceforge.net/DTD/sodipodi-0.dtd"
   xmlns:inkscape="http://www.inkscape.org/namespaces/inkscape"
   width="14.18751mm"
   height="7.1013284mm"
   viewBox="0 0 14.187509 7.1013281"
   version="1.1"
   id="svg8"
   inkscape:version="0.92.4 (5da689c313, 2019-01-14)"
   sodipodi:docname="gravel.svg">
  <defs
     id="defs2" />
  <sodipodi:namedview
     id="base"
     pagecolor="#ffffff"
     bordercolor="#666666"
     borderopacity="1.0"
     inkscape:pageopacity="0.0"
     inkscape:pageshadow="2"
     inkscape:zoom="4.2879781"
     inkscape:cx="27.582457"
     inkscape:cy="13.428329"
     inkscape:document-units="mm"
     inkscape:current-layer="layer1"
     showgrid="false"
     inkscape:window-width="3840"
     inkscape:window-height="2104"
     inkscape:window-x="4184"
     inkscape:window-y="-16"
     inkscape:window-maximized="1" />
  <metadata
     id="metadata5">
    <rdf:RDF>
      <cc:Work
         rdf:about="">
        <dc:format>image/svg+xml</dc:format>
        <dc:type
           rdf:resource="http://purl.org/dc/dcmitype/StillImage" />
        <dc:title></dc:title>
      </cc:Work>
    </rdf:RDF>
  </metadata>
  <g
     inkscape:label="Calque 1"
     inkscape:groupmode="layer"
     id="layer1"
     transform="translate(-101.18131,-147.93075)">
    <path
       style="fill:#000000;stroke-width:0.26458335"
       d="m 102.39374,154.70866 c -0.3638,-0.18401 -0.81883,-0.66279 -1.01118,-1.06395 -0.30714,-0.64056 -0.28175,-0.86979 0.20852,-1.88256 0.92546,-1.91174 2.7576,-2.24637 4.13889,-0.75593 1.22655,1.32347 1.15807,2.9657 -0.15192,3.64313 -0.94161,0.48692 -2.28928,0.51203 -3.18431,0.0593 z m 2.48344,-0.55404 c 0.48341,-0.20198 0.94228,-0.60949 1.01971,-0.90557 0.18158,-0.69436 -0.67045,-2.09297 -1.50733,-2.47428 -0.84032,-0.38287 -1.77016,0.1823 -2.26487,1.37664 -0.40164,0.96963 -0.17883,1.51998 0.82419,2.03583 0.80204,0.41248 0.8656,0.41141 1.9283,-0.0326 z m 8.13386,0.0113 c -0.90008,-1.08454 -0.64343,-3.73159 0.40827,-4.21078 0.6048,-0.27556 0.74657,-0.22965 1.30865,0.4238 1.17495,1.36597 0.63373,4.14293 -0.80745,4.14293 -0.33773,0 -0.74699,-0.16018 -0.90947,-0.35595 z m 1.57442,-1.00599 c 0.37829,-0.70685 -0.11377,-2.60681 -0.67513,-2.60681 -0.6092,0 -1.00726,2.14852 -0.53856,2.90688 0.27878,0.45107 0.89296,0.29923 1.21369,-0.30007 z m -6.58255,0.77985 c -0.65129,-0.65129 -0.29458,-2.32833 0.49525,-2.32833 0.92984,0 1.35021,1.50341 0.62356,2.23006 -0.49901,0.49901 -0.70038,0.5167 -1.11881,0.0983 z m 2.12262,-3.53396 c -0.69096,-0.48397 -0.74731,-1.09507 -0.17616,-1.9105 0.8484,-1.21126 3.29035,-0.29696 2.88223,1.07914 -0.35903,1.21059 -1.61413,1.59618 -2.70607,0.83136 z m 1.92551,-1.01449 c 0,-0.78502 -0.82111,-1.17321 -1.35414,-0.64018 -0.63316,0.63316 -0.27832,1.32828 0.62503,1.22437 0.50914,-0.0586 0.72911,-0.2348 0.72911,-0.58419 z"
       id="path897"
       inkscape:connector-curvature="0" />
  </g>
</svg>
