<?xml version="1.0" encoding="UTF-8" standalone="no"?>
<!-- Created with Inkscape (http://www.inkscape.org/) -->

<svg
   xmlns:dc="http://purl.org/dc/elements/1.1/"
   xmlns:cc="http://creativecommons.org/ns#"
   xmlns:rdf="http://www.w3.org/1999/02/22-rdf-syntax-ns#"
   xmlns:svg="http://www.w3.org/2000/svg"
   xmlns="http://www.w3.org/2000/svg"
   xmlns:sodipodi="http://sodipodi.sourceforge.net/DTD/sodipodi-0.dtd"
   xmlns:inkscape="http://www.inkscape.org/namespaces/inkscape"
   width="27.789722mm"
   height="21.251505mm"
   viewBox="0 0 27.789722 21.251505"
   version="1.1"
   id="svg8"
   inkscape:version="0.92.4 (5da689c313, 2019-01-14)"
   sodipodi:docname="hill.svg">
  <defs
     id="defs2" />
  <sodipodi:namedview
     id="base"
     pagecolor="#ffffff"
     bordercolor="#666666"
     borderopacity="1.0"
     inkscape:pageopacity="0.0"
     inkscape:pageshadow="2"
     inkscape:zoom="7.4539841"
     inkscape:cx="-54.514754"
     inkscape:cy="75.539262"
     inkscape:document-units="mm"
     inkscape:current-layer="layer1"
     showgrid="false"
     inkscape:window-width="3840"
     inkscape:window-height="2104"
     inkscape:window-x="-16"
     inkscape:window-y="-16"
     inkscape:window-maximized="1" />
  <metadata
     id="metadata5">
    <rdf:RDF>
      <cc:Work
         rdf:about="">
        <dc:format>image/svg+xml</dc:format>
        <dc:type
           rdf:resource="http://purl.org/dc/dcmitype/StillImage" />
        <dc:title></dc:title>
      </cc:Work>
    </rdf:RDF>
  </metadata>
  <g
     inkscape:label="Calque 1"
     inkscape:groupmode="layer"
     id="layer1"
     transform="translate(-113.75189,-126.60846)">
    <path
       style="fill:#000000;stroke-width:0.26458332"
       d="m 125.36743,147.486 c -0.10593,-0.43656 -0.31251,-1.32953 -0.45905,-1.98437 -0.14654,-0.65485 -0.49686,-1.58439 -0.77848,-2.06565 -0.28162,-0.48126 -0.51204,-0.92774 -0.51204,-0.99219 0,-0.0644 0.70715,-0.11716 1.57144,-0.11716 h 1.57144 l -0.37874,1.12448 c -0.20831,0.61846 -0.47847,1.95791 -0.60035,2.97656 -0.1874,1.56627 -0.25133,1.72959 -0.41422,1.05833 z m -6.12365,-0.59531 c 0.5105,-1.30993 0.95891,-3.63704 0.8129,-4.21876 -0.16229,-0.64662 -0.14227,-0.65636 0.97013,-0.47225 1.60973,0.26642 1.6433,0.32802 0.73963,1.35723 -0.44596,0.50793 -1.1757,1.57 -1.62163,2.36015 -0.78706,1.39458 -1.26734,1.91357 -0.90103,0.97363 z m 10.60445,-1.0964 c -0.25552,-0.56664 -0.98798,-1.54393 -1.62768,-2.17176 -0.63971,-0.62782 -1.16311,-1.21959 -1.16311,-1.31505 0,-0.16621 2.06338,-1.03919 2.45625,-1.03919 0.10427,0 0.18959,0.46565 0.18959,1.03476 0,0.56912 0.23659,1.78951 0.52575,2.71198 0.61653,1.9668 0.58974,1.80951 0.30818,1.80951 -0.12342,0 -0.43346,-0.46361 -0.68898,-1.03025 z m 3.89631,-2.03059 c -0.906,-0.93896 -1.9478,-1.84412 -2.3151,-2.01148 -0.36731,-0.16736 -0.66783,-0.44301 -0.66783,-0.61257 0,-0.3196 1.26931,-1.63448 1.38802,-1.43785 0.0369,0.0612 0.36484,0.70324 0.72865,1.42674 0.3638,0.7235 1.16722,2.00342 1.78539,2.84427 0.61816,0.84085 1.03488,1.5219 0.92604,1.51345 -0.10884,-0.008 -0.93917,-0.7836 -1.84517,-1.72256 z m -19.65168,-0.47343 c 0,-0.0521 0.70513,-0.52991 1.56695,-1.06186 0.86182,-0.53194 1.87874,-1.33772 2.25983,-1.79062 0.38109,-0.45289 0.73238,-0.77873 0.78065,-0.72407 0.14039,0.15893 0.94882,1.78165 0.94882,1.90449 0,0.0614 -0.48743,0.18956 -1.08317,0.28482 -0.59574,0.0953 -1.78278,0.46767 -2.63786,0.82757 -1.54936,0.65212 -1.83522,0.73929 -1.83522,0.55967 z m 23.01875,-2.41581 c -0.94588,-0.49352 -2.36063,-1.03524 -3.14388,-1.20381 l -1.42409,-0.3065 0.82287,-0.82288 0.82288,-0.82287 0.73351,0.6881 c 0.40342,0.37846 1.55421,1.29625 2.55731,2.03954 2.11894,1.57011 2.02618,1.67793 -0.3686,0.42842 z m -19.70916,-2.79582 c -0.43529,-0.27783 -1.423,-0.64647 -2.19489,-0.81922 -1.99851,-0.44724 -1.9299,-0.70343 0.14858,-0.55478 0.97868,0.07 2.24898,-0.002 2.82288,-0.16091 0.57391,-0.1585 1.07864,-0.253 1.12164,-0.21 0.12774,0.12774 -0.77612,2.29044 -0.94846,2.26939 -0.0871,-0.0106 -0.51445,-0.24665 -0.94975,-0.52448 z m 17.32866,-1.20264 c -0.001,-0.52114 0.58395,-1.98421 0.75693,-1.89211 1.13265,0.6031 3.02536,1.33167 4.34828,1.67382 0.90251,0.23342 1.66962,0.45241 1.7047,0.48666 0.0351,0.0342 -1.48262,0.0534 -3.37268,0.0426 -2.31193,-0.0132 -3.43673,-0.115 -3.43723,-0.31094 z m -14.69064,-2.23966 c -0.0954,-0.3006 -0.69795,-1.31263 -1.33899,-2.24896 -1.24683,-1.82119 -1.22961,-2.21925 0.0382,-0.884 0.42741,0.45013 1.34266,1.10698 2.03388,1.45967 0.69122,0.35268 1.25677,0.70448 1.25677,0.78177 0,0.18885 -1.40765,1.41913 -1.63582,1.4297 -0.0993,0.005 -0.25866,-0.23759 -0.35407,-0.53818 z m 14.32881,-1.26819 c -0.62555,-0.65293 -0.66777,-0.78581 -0.2951,-0.92881 0.23918,-0.0918 0.61739,-0.16688 0.84045,-0.16688 0.22307,0 1.48186,-0.47773 2.7973,-1.06162 2.33131,-1.0348 3.50751,-1.28643 1.73937,-0.37211 -1.22709,0.63455 -2.30823,1.40212 -3.41201,2.42242 l -0.94004,0.86893 z m -11.37178,-1.02954 c -0.0874,-0.54571 -0.47347,-1.62341 -0.85803,-2.39489 -0.84682,-1.69885 -0.71096,-2.0434 0.23944,-0.60724 0.37982,0.57394 1.17115,1.42972 1.75851,1.90174 0.58737,0.47202 1.06794,0.9353 1.06794,1.02952 0,0.14498 -1.69229,1.06305 -1.95954,1.06305 -0.0492,0 -0.16097,-0.44648 -0.24832,-0.99218 z m 8.35942,-0.65008 c -0.79029,-0.20674 -1.21653,-0.73899 -0.59181,-0.73899 0.14745,0 0.85971,-0.92273 1.5828,-2.05052 1.42284,-2.21914 1.6229,-2.31511 0.79169,-0.37978 -0.29283,0.68182 -0.62025,1.72445 -0.7276,2.31696 -0.19256,1.06282 -0.20673,1.07426 -1.05508,0.85233 z m -4.0442,-0.45701 c 0.15064,-0.28147 0.27389,-1.47913 0.27389,-2.66145 0,-2.29837 0.34695,-2.65855 0.62273,-0.64648 0.0921,0.672 0.39567,1.7377 0.67457,2.36821 0.27891,0.63052 0.43846,1.21504 0.35456,1.29894 -0.0839,0.0839 -0.61315,0.15255 -1.1761,0.15255 -0.92996,0 -0.9985,-0.0468 -0.74965,-0.51177 z"
       id="path851"
       inkscape:connector-curvature="0" />
  </g>
</svg>
