<?xml version="1.0" encoding="UTF-8" standalone="no"?>
<!-- Created with Inkscape (http://www.inkscape.org/) -->

<svg
   xmlns:dc="http://purl.org/dc/elements/1.1/"
   xmlns:cc="http://creativecommons.org/ns#"
   xmlns:rdf="http://www.w3.org/1999/02/22-rdf-syntax-ns#"
   xmlns:svg="http://www.w3.org/2000/svg"
   xmlns="http://www.w3.org/2000/svg"
   xmlns:sodipodi="http://sodipodi.sourceforge.net/DTD/sodipodi-0.dtd"
   xmlns:inkscape="http://www.inkscape.org/namespaces/inkscape"
   version="1.0"
   width="16.067829"
   height="40.034485"
   id="svg2"
   sodipodi:docname="hills.svg"
   inkscape:version="0.92.4 (5da689c313, 2019-01-14)">
  <metadata
     id="metadata9990">
    <rdf:RDF>
      <cc:Work
         rdf:about="">
        <dc:format>image/svg+xml</dc:format>
        <dc:type
           rdf:resource="http://purl.org/dc/dcmitype/StillImage" />
        <dc:title></dc:title>
      </cc:Work>
    </rdf:RDF>
  </metadata>
  <sodipodi:namedview
     pagecolor="#ffffff"
     bordercolor="#666666"
     borderopacity="1"
     objecttolerance="10"
     gridtolerance="10"
     guidetolerance="10"
     inkscape:pageopacity="0"
     inkscape:pageshadow="2"
     inkscape:window-width="4200"
     inkscape:window-height="2569"
     id="namedview9988"
     showgrid="false"
     inkscape:zoom="1.9666667"
     inkscape:cx="466.02547"
     inkscape:cy="-327.27877"
     inkscape:window-x="-16"
     inkscape:window-y="-16"
     inkscape:window-maximized="1"
     inkscape:current-layer="svg2" />
  <defs
     id="defs4" />
  <path
     style="fill:#fbfffe;fill-opacity:1;fill-rule:evenodd;stroke:none"
     d="m 563.83056,254.51665 c 2.76,0 5,2.24 5,5 0,2.76 -2.24,5 -5,5 -2.76,0 -5,-2.24 -5,-5 0,-2.76 2.24,-5 5,-5 z"
     id="path10537"
     inkscape:connector-curvature="0" />
  <path
     style="fill:#000000"
     d="m 2.03392,34.874406 c 1.72822,-4.38454 2.03391,-7.434 2.03391,-20.28973 0,-8.3212998 0.24984,-14.87979983 0.55521,-14.57442983 0.4935,0.49349 3.70473,14.28712983 5.18647,22.27811983 0.30596,1.65 1.83924,5.37264 3.4073,8.27254 1.56806,2.8999 2.85102,5.64944 2.85102,6.1101 0,0.46065 -2.3625,1.12336 -5.25,1.47268 -2.8875,0.34931 -6.50276,0.91765 -8.03391,1.26296 L 0,40.034486 Z"
     id="path10555"
     inkscape:connector-curvature="0" />
</svg>
