<?xml version="1.0" encoding="UTF-8" standalone="no"?>
<!-- Created with Inkscape (http://www.inkscape.org/) -->

<svg
   xmlns:dc="http://purl.org/dc/elements/1.1/"
   xmlns:cc="http://creativecommons.org/ns#"
   xmlns:rdf="http://www.w3.org/1999/02/22-rdf-syntax-ns#"
   xmlns:svg="http://www.w3.org/2000/svg"
   xmlns="http://www.w3.org/2000/svg"
   xmlns:sodipodi="http://sodipodi.sourceforge.net/DTD/sodipodi-0.dtd"
   xmlns:inkscape="http://www.inkscape.org/namespaces/inkscape"
   width="10.0542mm"
   height="5.596416mm"
   viewBox="0 0 10.0542 5.596416"
   version="1.1"
   id="svg8"
   inkscape:version="0.92.4 (5da689c313, 2019-01-14)"
   sodipodi:docname="ice2.svg">
  <defs
     id="defs2" />
  <sodipodi:namedview
     id="base"
     pagecolor="#ffffff"
     bordercolor="#666666"
     borderopacity="1.0"
     inkscape:pageopacity="0.0"
     inkscape:pageshadow="2"
     inkscape:zoom="11.71194"
     inkscape:cx="51.85735"
     inkscape:cy="-16.243248"
     inkscape:document-units="mm"
     inkscape:current-layer="layer1"
     showgrid="false"
     inkscape:window-width="4200"
     inkscape:window-height="2569"
     inkscape:window-x="-16"
     inkscape:window-y="-16"
     inkscape:window-maximized="1" />
  <metadata
     id="metadata5">
    <rdf:RDF>
      <cc:Work
         rdf:about="">
        <dc:format>image/svg+xml</dc:format>
        <dc:type
           rdf:resource="http://purl.org/dc/dcmitype/StillImage" />
        <dc:title></dc:title>
      </cc:Work>
    </rdf:RDF>
  </metadata>
  <g
     inkscape:label="Calque 1"
     inkscape:groupmode="layer"
     id="layer1"
     transform="translate(1040.6819,414.79589)">
    <path
       style="fill:#9e2a97;fill-opacity:1;stroke-width:0.26458335"
       d="m -1037.7715,-410.83426 c 0,-1.5789 -0.083,-1.87353 -0.7109,-2.52916 -0.4491,-0.46868 -0.9852,-0.74208 -1.4553,-0.74208 -0.4272,0 -0.7442,-0.14386 -0.7442,-0.33772 0,-0.23444 0.3237,-0.30686 1.0583,-0.2368 0.5821,0.0555 1.0584,0.20443 1.0584,0.33093 0,0.1265 0.3808,0.42693 0.8463,0.66764 1.1251,0.5818 4.2377,0.35814 5.2305,-0.37585 1.0282,-0.76019 1.8607,-0.9673 1.8607,-0.46291 0,0.22809 -0.2197,0.41471 -0.4882,0.41471 -0.2685,0 -0.7111,0.24633 -0.9835,0.54739 -0.4792,0.52942 -0.4799,0.58809 -0.024,1.78594 0.7258,1.90616 0.7845,2.16458 0.4911,2.16458 -0.1497,0 -0.5564,-0.74414 -0.9037,-1.65364 -0.5165,-1.35259 -0.7375,-1.65021 -1.2138,-1.63475 -0.3203,0.0104 -1.2371,0.0402 -2.0375,0.0661 l -1.4552,0.0472 v 1.70418 c 0,0.9373 -0.1191,1.77776 -0.2646,1.8677 -0.1664,0.10285 -0.2646,-0.49955 -0.2646,-1.62355 z"
       id="path826"
       inkscape:connector-curvature="0" />
  </g>
</svg>
