<?xml version="1.0" encoding="UTF-8" standalone="no"?>
<!-- Created with Inkscape (http://www.inkscape.org/) -->

<svg
   xmlns:dc="http://purl.org/dc/elements/1.1/"
   xmlns:cc="http://creativecommons.org/ns#"
   xmlns:rdf="http://www.w3.org/1999/02/22-rdf-syntax-ns#"
   xmlns:svg="http://www.w3.org/2000/svg"
   xmlns="http://www.w3.org/2000/svg"
   xmlns:sodipodi="http://sodipodi.sourceforge.net/DTD/sodipodi-0.dtd"
   xmlns:inkscape="http://www.inkscape.org/namespaces/inkscape"
   width="12.3318mm"
   height="18.434681mm"
   viewBox="0 0 12.3318 18.434681"
   version="1.1"
   id="svg8"
   inkscape:version="0.92.4 (5da689c313, 2019-01-14)"
   sodipodi:docname="icearea.svg">
  <defs
     id="defs2" />
  <sodipodi:namedview
     id="base"
     pagecolor="#ffffff"
     bordercolor="#666666"
     borderopacity="1.0"
     inkscape:pageopacity="0.0"
     inkscape:pageshadow="2"
     inkscape:zoom="4.9980892"
     inkscape:cx="62.809119"
     inkscape:cy="44.413624"
     inkscape:document-units="mm"
     inkscape:current-layer="layer1"
     showgrid="false"
     inkscape:window-width="4200"
     inkscape:window-height="2569"
     inkscape:window-x="-16"
     inkscape:window-y="-16"
     inkscape:window-maximized="1">
    <sodipodi:guide
       position="-5.0684021,-12.328259"
       orientation="0,84.595995"
       id="guide2004"
       inkscape:locked="false" />
    <sodipodi:guide
       position="17.314288,-12.328259"
       orientation="-162.06009,0"
       id="guide2006"
       inkscape:locked="false" />
    <sodipodi:guide
       position="17.314288,30.550139"
       orientation="0,-84.595995"
       id="guide2008"
       inkscape:locked="false" />
    <sodipodi:guide
       position="-5.0684021,30.550139"
       orientation="162.06009,0"
       id="guide2010"
       inkscape:locked="false" />
  </sodipodi:namedview>
  <metadata
     id="metadata5">
    <rdf:RDF>
      <cc:Work
         rdf:about="">
        <dc:format>image/svg+xml</dc:format>
        <dc:type
           rdf:resource="http://purl.org/dc/dcmitype/StillImage" />
        <dc:title></dc:title>
      </cc:Work>
    </rdf:RDF>
  </metadata>
  <g
     inkscape:label="Calque 1"
     inkscape:groupmode="layer"
     id="layer1"
     transform="translate(-72.409815,-139.50392)">
    <path
       style="fill:none;stroke:#1210fe;stroke-width:0.26458332px;stroke-linecap:butt;stroke-linejoin:miter;stroke-opacity:1"
       d="m 72.793913,140.35751 c 0.325222,0.23825 0.317622,0.21787 0.317622,0.58231 0,0.0529 -0.02367,0.11146 0,0.15881 0.01765,0.0353 0.07058,0.0353 0.105873,0.0529 0,0.0882 -0.01094,0.17714 0,0.26469 0.0069,0.0554 0.04199,0.10409 0.05294,0.15881 0.0069,0.0346 -0.02496,0.0809 0,0.10587 0.02496,0.025 0.07431,-0.0158 0.105874,0 0.01578,0.008 -0.01248,0.0405 0,0.0529 0.01248,0.0125 0.04505,-0.0158 0.05294,0 0.01578,0.0316 0,0.0706 0,0.10587 0,0.0882 0,0.17646 0,0.26469 0,0.0353 -0.01958,0.0765 0,0.10587 0.02189,0.0328 0.07797,0.025 0.105874,0.0529 0.191911,0.19191 0,0.0377 0,0.15881 0,0.0176 0.04504,-0.0158 0.05294,0 0.02367,0.0473 0,0.10587 0,0.15881 0,0.0177 0.01764,0.0529 0,0.0529 -0.04626,0 0.05294,-0.17557 0.05294,0 0,0.0176 -0.04505,-0.0158 -0.05294,0 -0.0027,0.005 0,0.31241 0,0.31762 0,0.0353 -0.01311,0.0731 0,0.10587 0.02363,0.0591 0.145618,0.10913 0.105873,0.15881 -0.06972,0.0871 -0.244992,0.0211 -0.317621,0.10588 -0.01104,0.0129 0,0.34289 0,0.42349 0,0.0529 0,0.10588 0,0.15881 0,0.0177 0.01764,0.0529 0,0.0529 -0.01765,0 -0.01765,-0.0529 0,-0.0529 0.01764,0 0.01764,0.0529 0,0.0529 -0.01765,0 0,-0.0353 0,-0.0529"
       id="path1972"
       inkscape:connector-curvature="0" />
    <path
       style="fill:none;stroke:#1210fe;stroke-width:0.26458332px;stroke-linecap:butt;stroke-linejoin:miter;stroke-opacity:1"
       d="m 75.91719,141.628 c 0,0.21174 0,0.42349 0,0.63524 0,0.0882 -0.03015,0.18177 0,0.26468 0.04348,0.11959 0.160069,0.20135 0.211748,0.31763 0.0215,0.0484 0,0.10587 0,0.15881 0,0.10587 -0.01894,0.21345 0,0.31762 0.017,0.0935 0.06728,0.17785 0.105873,0.26468 0.03205,0.0721 0.105874,0.13284 0.105874,0.21175 0,0.0395 -0.08823,0.0177 -0.105874,0.0529 -0.02367,0.0473 0,0.10587 0,0.15881 0,0.0176 -0.0098,0.0382 0,0.0529 0.05383,0.0808 0.200781,0.12233 0.105874,0.26469 -0.01958,0.0294 -0.07431,-0.0158 -0.105874,0 -0.02094,0.0105 0.02633,0.10615 0,0.15881 -0.0079,0.0158 -0.05294,-0.0177 -0.05294,0 0,0.0249 0.04688,0.0287 0.05294,0.0529 0.01284,0.0513 0,0.10587 0,0.15881 0,0.0353 0,0.0706 0,0.10587 0,0.0176 0.01765,0.0529 0,0.0529 -0.01764,0 0.01248,-0.0405 0,-0.0529 -0.01248,-0.0125 -0.04736,-0.0167 -0.05294,0 -0.01674,0.0502 0,0.10587 0,0.15881 0,0.0177 0.01248,0.0405 0,0.0529 -0.0279,0.0279 -0.08399,0.0201 -0.105874,0.0529 -0.01958,0.0294 0,0.0706 0,0.10587 0,0.0176 0.01248,0.0405 0,0.0529 -0.01248,0.0125 -0.04046,-0.0125 -0.05294,0 -0.06083,0.0608 -0.05294,0.0936 -0.05294,0.15881"
       id="path1974"
       inkscape:connector-curvature="0" />
    <path
       style="fill:none;stroke:#1210fe;stroke-width:0.26458332px;stroke-linecap:butt;stroke-linejoin:miter;stroke-opacity:1"
       d="m 78.98753,145.38652 c 0,0.24704 0,0.49407 0,0.74111 0,0.0882 0.02424,0.17985 0,0.26469 -0.01371,0.048 -0.08734,0.0595 -0.105873,0.10587 -0.02622,0.0655 0,0.14117 0,0.21175 0,0.15881 0,0.31762 0,0.47643 0,0.11992 0.02596,0.50341 -0.05294,0.58231 -0.02496,0.025 -0.07651,-0.0196 -0.105873,0 -0.211422,0.14094 0.01441,0.0578 -0.05294,0.15881 -0.02769,0.0415 -0.07058,0.0706 -0.105874,0.10587 -0.01765,0.0177 -0.02926,0.0451 -0.05294,0.0529 -0.03348,0.0112 -0.0863,-0.0294 -0.105874,0 -0.02936,0.044 0.01038,0.1069 0,0.15881 -0.0077,0.0387 -0.04046,0.0684 -0.05294,0.10587 -0.0056,0.0167 0.0079,0.0372 0,0.0529 -0.01116,0.0223 -0.04505,0.0293 -0.05294,0.0529 -0.01116,0.0335 0.03529,0.10587 0,0.10587 -0.03529,0 -0.03529,-0.10587 0,-0.10587 0.03529,0 0.03529,0.10587 0,0.10587 -0.08484,0 0.14494,-0.35114 -0.105873,0 -0.232181,0.32505 -0.04643,0.2085 -0.264685,0.31762"
       id="path1976"
       inkscape:connector-curvature="0" />
    <path
       style="fill:none;stroke:#1210fe;stroke-width:0.26458332px;stroke-linecap:butt;stroke-linejoin:miter;stroke-opacity:1"
       d="m 74.752579,145.96882 c 0,0.40585 0,0.8117 0,1.21755 0,0.0529 0.0075,0.10641 0,0.15881 -0.01029,0.072 -0.0449,0.13944 -0.05294,0.21175 -0.0097,0.0877 0,0.17646 0,0.26468 0,0.0529 0.02936,0.11477 0,0.15881 -0.01958,0.0294 -0.08092,-0.025 -0.105874,0 -0.02647,0.0265 0.02647,0.13235 0,0.15882 -0.01248,0.0125 -0.03825,-0.01 -0.05294,0 -0.04153,0.0277 -0.05953,0.0873 -0.105874,0.10587 -0.05972,0.067 -0.144787,-0.0223 -0.211747,0 -0.105057,0.035 -0.252593,0.15756 -0.317622,0.21175 -0.05751,0.0479 -0.09892,0.11389 -0.15881,0.15881 -0.0509,0.0382 -0.113823,0.0609 -0.158811,0.10587 -0.01248,0.0125 0,0.0353 0,0.0529 0,0.14116 0.03529,0.10587 -0.105874,0.10587"
       id="path1978"
       inkscape:connector-curvature="0" />
    <path
       style="fill:none;stroke:#1210fe;stroke-width:0.26458332px;stroke-linecap:butt;stroke-linejoin:miter;stroke-opacity:1"
       d="m 76.552433,147.55693 c 0,0.52604 -0.02232,-0.1757 0.105874,0.52937 0.01578,0.0868 -0.01094,0.17714 0,0.26468 0.0069,0.0554 0.04789,0.10324 0.05294,0.15881 0.02541,0.27951 -0.03176,0.68289 0,0.95287 0.01501,0.12758 0.0889,0.24322 0.105874,0.37056 0.01866,0.13992 -0.02525,0.2846 0,0.42349 0.01138,0.0626 0.105873,0.0952 0.105873,0.15881 0,0.14551 -0.07431,0.28145 -0.105873,0.4235 -0.01165,0.0524 0.01566,0.28631 0,0.31762 -0.0079,0.0158 -0.04046,-0.0125 -0.05294,0 -0.01248,0.0125 0.01578,0.045 0,0.0529 -0.03157,0.0158 -0.08092,-0.025 -0.105874,0 -0.07275,0.0728 -0.09564,0.18346 -0.158811,0.26468 -0.06128,0.0788 -0.141165,0.14116 -0.211748,0.21175 -0.05294,0.0529 -0.115296,0.0979 -0.15881,0.15881 -0.04587,0.0642 -0.06001,0.14753 -0.105874,0.21175 -0.04351,0.0609 -0.105874,0.10587 -0.158811,0.15881 -0.03529,0.0353 -0.06308,0.0802 -0.105874,0.10587 -0.04785,0.0287 -0.119353,0.0135 -0.15881,0.0529 -0.02496,0.0249 0.01578,0.0743 0,0.10587 -0.0079,0.0158 -0.04505,0.0158 -0.05294,0 -0.01578,-0.0316 0,-0.0706 0,-0.10587"
       id="path1980"
       inkscape:connector-curvature="0" />
    <path
       style="fill:none;stroke:#1210fe;stroke-width:0.26458332px;stroke-linecap:butt;stroke-linejoin:miter;stroke-opacity:1"
       d="m 81.846123,148.35098 c -0.01765,0.0882 -0.03815,0.17594 -0.05294,0.26469 -0.01161,0.0696 0,0.14116 0,0.21174 0,0.15882 0,0.31763 0,0.47644 0,0.51172 0,1.02344 0,1.53517 0,0.0882 0,0.17645 0,0.26468 0,0.17646 0.02683,0.35497 0,0.52937 -0.0097,0.0629 -0.07431,0.10357 -0.105874,0.15881 -0.03915,0.0685 -0.0842,0.13587 -0.105874,0.21175 -0.01454,0.0509 0,0.10587 0,0.15881 0,0.21175 0,0.42349 0,0.63524 0,0.0348 0.0062,0.1993 0,0.21175 -0.0079,0.0158 -0.04505,0.0158 -0.05294,0 -0.01578,-0.0316 0.01958,-0.0765 0,-0.10587 -0.121656,-0.18249 -0.105873,0.0409 -0.105873,-0.10588"
       id="path1982"
       inkscape:connector-curvature="0" />
    <path
       style="fill:none;stroke:#1210fe;stroke-width:0.26458332px;stroke-linecap:butt;stroke-linejoin:miter;stroke-opacity:1"
       d="m 80.999132,141.89268 c 0.35481,0.0887 0.07775,0.009 0.476432,0.15881 0.137776,0.0517 0.205184,0.0464 0.317622,0.15881 0.04499,0.045 0.05498,0.12064 0.105874,0.15881 0.02823,0.0212 0.08092,-0.025 0.105873,0 0.02496,0.025 -0.02495,0.0809 0,0.10588 0.03946,0.0395 0.123953,0.009 0.158811,0.0529 0.04545,0.0568 0.01551,0.14937 0.05294,0.21175 0.0203,0.0338 0.105874,0.0135 0.105874,0.0529 0,0.0353 -0.105874,-0.0353 -0.105874,0 0,0.0499 0.08734,0.0595 0.105874,0.10587 0.06193,0.15483 -0.04507,0.19601 -0.105874,0.31762 -0.0079,0.0158 0,0.0353 0,0.0529 0,0.0353 0,0.0706 0,0.10587 0,0.0882 0.0145,0.17766 0,0.26469 -0.0041,0.0246 -0.04688,0.0287 -0.05294,0.0529 -0.01118,0.0447 0.01226,0.29923 0,0.31762 -0.01958,0.0294 -0.07651,-0.0196 -0.105874,0 -0.131369,0.0876 0.02053,0.15448 -0.05294,0.26468 -0.01958,0.0294 -0.07431,-0.0158 -0.105873,0 -0.01578,0.008 0,0.0353 0,0.0529 0,0.0529 0.03743,0.12138 0,0.15881 -0.03743,0.0374 -0.114765,-0.0294 -0.158811,0 -0.02936,0.0196 0.03529,0.10587 0,0.10587 -0.03529,0 0,-0.14116 0,-0.10587 0,0.11893 0.0251,0.18665 -0.05294,0.26468 -0.02496,0.025 -0.07431,-0.0158 -0.105874,0 -0.01578,0.008 0,0.0353 0,0.0529 0,0.20221 0.01116,0.008 -0.05294,0.26469 -0.0043,0.0171 0.01764,0.0529 0,0.0529 -0.01765,0 0,-0.0353 0,-0.0529"
       id="path1984"
       inkscape:connector-curvature="0" />
    <path
       style="fill:none;stroke:#1210fe;stroke-width:0.26458332px;stroke-linecap:butt;stroke-linejoin:miter;stroke-opacity:1"
       d="m 78.458161,153.90936 c -0.08823,0.0353 -0.229393,0.1941 -0.264684,0.10587 -0.03529,-0.0882 0.264684,-0.2009 0.264684,-0.10587 0,0.15179 -0.184234,0.24183 -0.264684,0.37056 -0.0094,0.015 0.01248,0.0405 0,0.0529 -0.01248,0.0125 -0.04046,-0.0125 -0.05294,0 -0.04499,0.045 -0.06089,0.11382 -0.105874,0.15881 -0.07989,0.0799 -0.190282,0.12672 -0.264684,0.21175 -0.05196,0.0594 -0.04166,0.16588 -0.105874,0.21175 -0.07322,0.0523 -0.191469,5.3e-4 -0.264685,0.0529 -0.06729,0.0481 -0.09325,0.26469 -0.15881,0.26469 -0.01765,0 0,-0.0353 0,-0.0529"
       id="path1986"
       inkscape:connector-curvature="0" />
    <path
       style="fill:none;stroke:#1210fe;stroke-width:0.26458332px;stroke-linecap:butt;stroke-linejoin:miter;stroke-opacity:1"
       d="m 80.734448,156.45033 c -0.07058,0.0706 -0.149392,0.1338 -0.211748,0.21175 -0.01102,0.0138 0.0098,0.0383 0,0.0529 -0.02768,0.0415 -0.07058,0.0706 -0.105874,0.10588 -0.01765,0.0176 -0.04688,0.0287 -0.05294,0.0529 -0.01284,0.0514 0.01966,0.10966 0,0.15881 -0.01854,0.0463 -0.07819,0.0643 -0.105873,0.10588 -0.0098,0.0147 0.01248,0.0405 0,0.0529 -0.01248,0.0125 -0.04046,-0.0125 -0.05294,0 -0.0279,0.0279 -0.02504,0.078 -0.05294,0.10588 -0.0279,0.0279 -0.07304,0.031 -0.105874,0.0529 -0.02076,0.0138 -0.02926,0.0451 -0.05294,0.0529 -0.03348,0.0112 -0.08092,-0.0249 -0.105874,0 -0.02495,0.025 0.01578,0.0743 0,0.10588 -0.0079,0.0158 -0.03529,0 -0.05294,0 -0.03529,0 -0.07239,-0.0112 -0.105874,0 -0.02367,0.008 -0.03062,0.0418 -0.05294,0.0529 -0.01578,0.008 -0.03529,0 -0.05294,0 -0.03529,0.0353 -0.06435,0.0782 -0.105874,0.10588 -0.01468,0.01 -0.0362,-0.006 -0.05294,0 -0.125186,0.0417 -0.156185,0.10062 -0.211747,0.21175"
       id="path1988"
       inkscape:connector-curvature="0" />
    <path
       style="fill:none;stroke:#1210fe;stroke-width:0.26458332px;stroke-linecap:butt;stroke-linejoin:miter;stroke-opacity:1"
       d="m 73.058598,151.5272 c -0.03529,0.15881 -0.08287,0.31538 -0.105874,0.47643 -0.05025,0.35178 0.02136,0.19131 0.105874,0.52937 0.01284,0.0514 -0.01966,0.10966 0,0.15881 0.01854,0.0463 0.07819,0.0643 0.105874,0.10587 0.0098,0.0147 0,0.0353 0,0.0529 0,0.0131 0.0029,0.20739 0,0.21175 -0.02769,0.0415 -0.07058,0.0706 -0.105874,0.10587 -0.01765,0.0529 -0.02798,0.1089 -0.05294,0.15881 -0.02845,0.0569 -0.0884,0.0976 -0.105874,0.15881 -0.01939,0.0679 0.02621,0.14622 0,0.21175 -0.01465,0.0366 -0.0822,0.0214 -0.105874,0.0529 -0.14301,0.055 -0.003,0.18982 -0.05294,0.26468 -0.02189,0.0328 -0.07797,0.025 -0.105873,0.0529 -0.01248,0.0125 0.01248,0.0405 0,0.0529 -0.03823,0.0382 -0.152929,-0.0941 -0.05294,0.10587 0.0079,0.0158 0.04505,0.0158 0.05294,0 0.0062,-0.0124 0,-0.17697 0,-0.21175"
       id="path1990"
       inkscape:connector-curvature="0" />
    <path
       style="fill:none;stroke:#1210fe;stroke-width:0.26458332px;stroke-linecap:butt;stroke-linejoin:miter;stroke-opacity:1"
       d="m 75.599569,154.5446 c 0,0.45879 0,0.91757 0,1.37636 0,0.0529 0.01038,0.1069 0,0.15881 -0.0077,0.0387 -0.05852,0.0668 -0.05294,0.10587 0.01344,0.0941 0.105874,0.16966 0.105874,0.26469 0,0.0394 -0.0822,0.0214 -0.105874,0.0529 -0.164041,0.21872 0.03659,0.0938 -0.05294,0.31762 -0.05732,0.1433 -0.147164,0.10587 -0.264684,0.10587 -0.01765,0 -0.04046,-0.0125 -0.05294,0 -0.01248,0.0125 0.01578,0.0451 0,0.0529 -0.03157,0.0158 -0.0863,-0.0294 -0.105874,0 -0.02936,0.044 0,0.10587 0,0.15881 0,0.0353 0.03529,0.10587 0,0.10587 -0.06362,0 -0.101905,-0.0774 -0.158811,-0.10587 -0.01578,-0.008 -0.03529,0 -0.05294,0 -0.03529,0 -0.07651,-0.0196 -0.105873,0 -0.03283,0.0219 -0.02011,0.084 -0.05294,0.10587 -0.02936,0.0196 -0.07431,-0.0158 -0.105874,0 -0.03157,0.0158 0.02496,0.0809 0,0.10587 -0.01248,0.0125 -0.04505,-0.0158 -0.05294,0 -0.01578,0.0316 0.03529,0.10588 0,0.10588 -0.03946,0 -0.01348,-0.10588 -0.05294,-0.10588 -0.03529,0 0.02496,0.0809 0,0.10588 -0.02496,0.0249 -0.07058,0 -0.105874,0 -0.01765,0 -0.03529,0 -0.05294,0"
       id="path1992"
       inkscape:connector-curvature="0" />
    <path
       style="fill:none;stroke:#1210fe;stroke-width:0.26458332px;stroke-linecap:butt;stroke-linejoin:miter;stroke-opacity:1"
       d="m 78.934593,139.51052 c 0.01232,0.24663 -0.01643,0.49463 0,0.74112 0.07277,1.09162 0.02354,-0.4234 0.158811,0.79405 0.01949,0.17538 -0.01949,0.35399 0,0.52937 0.01607,0.14462 0.09064,0.27879 0.105874,0.4235 0.02032,0.19303 0,0.3882 0,0.5823 0,0.12352 0,0.24704 0,0.37056 0,0.24704 0,0.49408 0,0.74112 0,0.0353 0,-0.0706 0,-0.10588"
       id="path1994"
       inkscape:connector-curvature="0" />
    <path
       style="fill:none;stroke:#1210fe;stroke-width:0.26458332px;stroke-linecap:butt;stroke-linejoin:miter;stroke-opacity:1"
       d="m 80.205079,149.62147 c -0.07058,0.10587 -0.141165,0.21175 -0.211748,0.31762 -0.01765,0.0706 -0.01761,0.14815 -0.05294,0.21175 -0.05487,0.0988 -0.164399,0.16209 -0.211747,0.26468 -0.210025,0.45506 -0.05072,0.35506 -0.105874,0.74112 -0.0056,0.0391 -0.04046,0.0684 -0.05294,0.10587 -0.0056,0.0167 0.01765,0.0529 0,0.0529 -0.01765,0 -0.01765,-0.0529 0,-0.0529 0.01765,0 0,0.0353 0,0.0529"
       id="path1996"
       inkscape:connector-curvature="0" />
    <path
       style="fill:none;stroke:#1210fe;stroke-width:0.26458332px;stroke-linecap:butt;stroke-linejoin:miter;stroke-opacity:1"
       d="m 83.857725,145.43945 c 0.01765,0.10588 0.03529,0.21175 0.05294,0.31763 0.03529,0.0529 0.08575,0.0984 0.105874,0.15881 0.01674,0.0502 -0.02936,0.11476 0,0.15881 0.01958,0.0294 0.0863,-0.0294 0.105874,0 0.02936,0.044 0,0.10587 0,0.15881 0,0.0353 0,0.0706 0,0.10587 0,0.004 0.0046,0.30608 0,0.31762 -0.02363,0.0591 -0.09044,0.0971 -0.105874,0.15881 -0.0214,0.0856 0.01914,0.17856 0,0.26469 -0.01712,0.077 -0.07479,0.13921 -0.105874,0.21175 -0.02198,0.0513 -0.02798,0.1089 -0.05294,0.15881 -0.02845,0.0569 -0.07431,0.10357 -0.105874,0.15881 -0.03915,0.0685 -0.06527,0.14408 -0.105874,0.21174 -0.01284,0.0214 -0.03796,0.033 -0.05294,0.0529 -0.03817,0.0509 -0.06089,0.11382 -0.105874,0.15881 -0.01248,0.0125 -0.04505,-0.0158 -0.05294,0 -0.01578,0.0316 0,0.0706 0,0.10588"
       id="path1998"
       inkscape:connector-curvature="0" />
    <path
       style="fill:none;stroke:#1210fe;stroke-width:0.26458332px;stroke-linecap:butt;stroke-linejoin:miter;stroke-opacity:1"
       d="m 84.440031,151.26251 c 0,0.86532 -0.03348,-0.0421 0.05294,0.47643 0.0087,0.0522 0,0.10588 0,0.15881 0,0.51671 -0.03915,-0.0645 0.105874,0.37056 0.01674,0.0502 0,0.10588 0,0.15881 0,0.0529 0.01148,0.10714 0,0.15881 -0.02471,0.1112 -0.159121,0.46653 -0.211747,0.58231 -0.13376,0.29427 -0.121908,0.26227 -0.264685,0.47643 -0.07058,0.10588 -0.188985,0.19243 -0.211748,0.31762 -0.017,0.0935 0.08724,0.17151 0.105874,0.26469 0.0035,0.0173 -0.04736,-0.0168 -0.05294,0 -0.01674,0.0502 0,0.10587 0,0.15881 0,0.0177 -0.01765,-0.0529 0,-0.0529 0.01765,0 0,0.0706 0,0.0529 0,-0.0353 0,-0.0706 0,-0.10587"
       id="path2000"
       inkscape:connector-curvature="0" />
    <path
       style="fill:none;stroke:#1210fe;stroke-width:0.26458332px;stroke-linecap:butt;stroke-linejoin:miter;stroke-opacity:1"
       d="m 82.957797,155.86802 c 0,0.4065 0.01384,0.009 -0.05294,0.47643 -0.005,0.0349 0.01958,0.0765 0,0.10588 -0.02189,0.0328 -0.08399,0.0201 -0.105874,0.0529 -0.0163,0.0244 0.01571,0.18556 0,0.21174 -0.211748,0.35292 -0.08823,0.0882 -0.370559,0.37056 -0.0279,0.0279 -0.01348,0.10587 -0.05294,0.10587 -0.03529,0 0,-0.0706 0,-0.10587"
       id="path2002"
       inkscape:connector-curvature="0" />
  </g>
</svg>
