<?xml version="1.0" encoding="UTF-8" standalone="no"?>
<!-- Created with Inkscape (http://www.inkscape.org/) -->

<svg
   xmlns:dc="http://purl.org/dc/elements/1.1/"
   xmlns:cc="http://creativecommons.org/ns#"
   xmlns:rdf="http://www.w3.org/1999/02/22-rdf-syntax-ns#"
   xmlns:svg="http://www.w3.org/2000/svg"
   xmlns="http://www.w3.org/2000/svg"
   xmlns:sodipodi="http://sodipodi.sourceforge.net/DTD/sodipodi-0.dtd"
   xmlns:inkscape="http://www.inkscape.org/namespaces/inkscape"
   width="68.998001mm"
   height="140.11806mm"
   viewBox="0 0 68.998001 140.11805"
   version="1.1"
   id="svg9185"
   inkscape:version="0.92.4 (5da689c313, 2019-01-14)"
   sodipodi:docname="iced_buoySPP.svg">
  <defs
     id="defs9179" />
  <sodipodi:namedview
     id="base"
     pagecolor="#ffffff"
     bordercolor="#666666"
     borderopacity="1.0"
     inkscape:pageopacity="0.0"
     inkscape:pageshadow="2"
     inkscape:zoom="2.4106589"
     inkscape:cx="-48.201545"
     inkscape:cy="267.35696"
     inkscape:document-units="mm"
     inkscape:current-layer="layer1"
     showgrid="false"
     inkscape:window-width="3840"
     inkscape:window-height="2104"
     inkscape:window-x="-16"
     inkscape:window-y="-16"
     inkscape:window-maximized="1" />
  <metadata
     id="metadata9182">
    <rdf:RDF>
      <cc:Work
         rdf:about="">
        <dc:format>image/svg+xml</dc:format>
        <dc:type
           rdf:resource="http://purl.org/dc/dcmitype/StillImage" />
        <dc:title></dc:title>
      </cc:Work>
    </rdf:RDF>
  </metadata>
  <g
     inkscape:label="Calque 1"
     inkscape:groupmode="layer"
     id="layer1"
     transform="translate(-73.738821,-68.870139)">
    <ellipse
       style="fill:none;fill-opacity:1;fill-rule:evenodd;stroke:#000000;stroke-width:2;stroke-miterlimit:4;stroke-dasharray:none;stroke-dashoffset:0;stroke-opacity:1"
       id="path9730"
       cx="104.59709"
       cy="197.17728"
       rx="11.085317"
       ry="10.810927" />
    <path
       style="fill:none;stroke:#000000;stroke-width:2;stroke-linecap:butt;stroke-linejoin:miter;stroke-miterlimit:4;stroke-dasharray:none;stroke-opacity:1"
       d="M 93.18251,197.56142 73.755768,197.23215"
       id="path9732"
       inkscape:connector-curvature="0" />
    <path
       style="fill:none;stroke:#000000;stroke-width:2;stroke-linecap:butt;stroke-linejoin:miter;stroke-miterlimit:4;stroke-dasharray:none;stroke-opacity:1"
       d="m 116.01168,197.23215 20.30478,-0.10976"
       id="path9734"
       inkscape:connector-curvature="0" />
    <path
       style="fill:none;stroke:#000000;stroke-width:2;stroke-linecap:butt;stroke-linejoin:miter;stroke-miterlimit:4;stroke-dasharray:none;stroke-opacity:1"
       d="M 81.548416,196.79313 101.8532,93.403347 l 39.73153,6.256071 -16.13407,96.914202"
       id="path9736"
       inkscape:connector-curvature="0" />
    <g
       id="g16649"
       transform="matrix(0.48147649,0.12912291,-0.12649354,0.49148474,108.90052,61.546701)">
      <g
         id="g14182"
         transform="matrix(3.0566173,-0.58761129,0.59836102,3.1125349,-355.31854,-248.71261)">
        <path
           style="color:#000000;font-style:normal;font-variant:normal;font-weight:normal;font-stretch:normal;font-size:medium;line-height:normal;font-family:sans-serif;font-variant-ligatures:normal;font-variant-position:normal;font-variant-caps:normal;font-variant-numeric:normal;font-variant-alternates:normal;font-feature-settings:normal;text-indent:0;text-align:start;text-decoration:none;text-decoration-line:none;text-decoration-style:solid;text-decoration-color:#000000;letter-spacing:normal;word-spacing:normal;text-transform:none;writing-mode:lr-tb;direction:ltr;text-orientation:mixed;dominant-baseline:auto;baseline-shift:baseline;text-anchor:start;white-space:normal;shape-padding:0;clip-rule:nonzero;display:inline;overflow:visible;visibility:visible;opacity:1;isolation:auto;mix-blend-mode:normal;color-interpolation:sRGB;color-interpolation-filters:linearRGB;solid-color:#000000;solid-opacity:1;vector-effect:none;fill:#fefd00;fill-opacity:1;fill-rule:nonzero;stroke:none;stroke-width:0.1;stroke-linecap:butt;stroke-linejoin:miter;stroke-miterlimit:4;stroke-dasharray:none;stroke-dashoffset:0;stroke-opacity:1;color-rendering:auto;image-rendering:auto;shape-rendering:auto;text-rendering:auto;enable-background:accumulate"
           d="m 104.99328,100.25673 -3.96602,2.6397 9.7495,14.65173 3.96635,-2.64163 z"
           id="path2050"
           inkscape:connector-curvature="0" />
        <path
           style="fill:none;stroke:#000000;stroke-width:1;stroke-linecap:butt;stroke-linejoin:miter;stroke-miterlimit:4;stroke-dasharray:none;stroke-opacity:1"
           d="m 99.590365,111.54764 2.588225,3.99906 5.19039,-2.92523 3.40778,4.92669"
           id="path5054"
           inkscape:connector-curvature="0" />
        <path
           style="fill:none;stroke:#000000;stroke-width:1;stroke-linecap:butt;stroke-linejoin:miter;stroke-miterlimit:4;stroke-dasharray:none;stroke-opacity:1"
           d="m 110.77676,117.54816 3.96635,-2.64163"
           id="path5056"
           inkscape:connector-curvature="0" />
        <g
           id="g12808">
          <path
             inkscape:connector-curvature="0"
             id="path2048"
             d="m 114.50974,101.89544 -14.919375,9.6522 2.588225,3.99906 14.919,-9.65029 z"
             style="color:#000000;font-style:normal;font-variant:normal;font-weight:normal;font-stretch:normal;font-size:medium;line-height:normal;font-family:sans-serif;font-variant-ligatures:normal;font-variant-position:normal;font-variant-caps:normal;font-variant-numeric:normal;font-variant-alternates:normal;font-feature-settings:normal;text-indent:0;text-align:start;text-decoration:none;text-decoration-line:none;text-decoration-style:solid;text-decoration-color:#000000;letter-spacing:normal;word-spacing:normal;text-transform:none;writing-mode:lr-tb;direction:ltr;text-orientation:mixed;dominant-baseline:auto;baseline-shift:baseline;text-anchor:start;white-space:normal;shape-padding:0;clip-rule:nonzero;display:inline;overflow:visible;visibility:visible;opacity:1;isolation:auto;mix-blend-mode:normal;color-interpolation:sRGB;color-interpolation-filters:linearRGB;solid-color:#000000;solid-opacity:1;vector-effect:none;fill:#fefd00;fill-opacity:1;fill-rule:nonzero;stroke:none;stroke-width:0.1;stroke-linecap:butt;stroke-linejoin:miter;stroke-miterlimit:4;stroke-dasharray:none;stroke-dashoffset:0;stroke-opacity:1;color-rendering:auto;image-rendering:auto;shape-rendering:auto;text-rendering:auto;enable-background:accumulate" />
          <path
             inkscape:connector-curvature="0"
             id="path5052"
             d="m 101.02726,102.89643 3.48476,5.33507 -4.921655,3.31614"
             style="fill:none;stroke:#000000;stroke-width:1;stroke-linecap:butt;stroke-linejoin:miter;stroke-miterlimit:4;stroke-dasharray:none;stroke-opacity:1" />
          <path
             inkscape:connector-curvature="0"
             id="path5058"
             d="m 114.74311,114.90653 -3.64614,-5.21171 6.00062,-3.79841"
             style="fill:none;stroke:#000000;stroke-width:1;stroke-linecap:butt;stroke-linejoin:miter;stroke-miterlimit:4;stroke-dasharray:none;stroke-opacity:1" />
          <path
             inkscape:connector-curvature="0"
             id="path5060"
             d="m 117.09759,105.89641 -2.58785,-4.00097"
             style="fill:none;stroke:#000000;stroke-width:1;stroke-linecap:butt;stroke-linejoin:miter;stroke-miterlimit:4;stroke-dasharray:none;stroke-opacity:1" />
          <path
             inkscape:connector-curvature="0"
             id="path5062"
             d="m 114.50974,101.89544 -5.99101,3.82751 -3.52545,-5.46622"
             style="fill:none;stroke:#000000;stroke-width:1;stroke-linecap:butt;stroke-linejoin:miter;stroke-miterlimit:4;stroke-dasharray:none;stroke-opacity:1" />
          <path
             inkscape:connector-curvature="0"
             id="path5064"
             d="m 104.99328,100.25673 -3.96602,2.6397"
             style="fill:none;stroke:#000000;stroke-width:1;stroke-linecap:butt;stroke-linejoin:miter;stroke-miterlimit:4;stroke-dasharray:none;stroke-opacity:1" />
        </g>
      </g>
      <g
         id="g16616">
        <path
           style="fill:#fffd01;fill-opacity:1;fill-rule:evenodd;stroke:#000000;stroke-width:0.02611629;stroke-miterlimit:4;stroke-dasharray:none;stroke-dashoffset:0;stroke-opacity:1"
           d="m 47.37703,42.976722 c -3.51516,-3.705781 -6.43526,-6.78903 -6.48912,-6.851638 -0.0657,-0.07637 -2.40866,2.260029 -7.12067,7.100728 -3.86252,3.96803 -7.06618,7.20689 -7.11924,7.19749 -0.053,-0.009 -2.1267,-2.28289 -4.60808,-5.05218 -3.43407,-3.83254 -4.48864,-5.069703 -4.41546,-5.180044 0.0529,-0.07982 3.15193,-3.402908 6.88676,-7.384851 3.73483,-3.981935 6.8031,-7.255045 6.81839,-7.273574 0.0153,-0.01861 -3.04388,-3.435637 -6.79815,-7.593563 -3.75428,-4.157922 -6.86407,-7.624657 -6.91065,-7.703857 -0.0466,-0.07923 -0.0155,-0.213467 0.0692,-0.2983979 0.0847,-0.08491 1.89805,-1.985394 4.02969,-4.223258 l 3.87574,-4.068837 6.94407,7.776117 c 3.81926,4.2768549 6.99936,7.7874729 7.06692,7.8013279 0.0675,0.0139 3.62856,-3.537031 7.91333,-7.8909029 5.63456,-5.725426 7.81938,-7.881489 7.89493,-7.790963 0.0574,0.06889 1.86482,2.088687 4.01641,4.488542 2.9965,3.342293 3.88953,4.3979149 3.81621,4.5109899 -0.0527,0.08121 -3.53543,3.604512 -7.73947,7.829639 -4.20404,4.225117 -7.69263,7.752664 -7.75243,7.838985 -0.0885,0.12771 1.21818,1.538449 7.01845,7.577503 3.91996,4.081304 7.11388,7.438624 7.0976,7.460694 -0.12911,0.17504 -7.91081,8.35579 -7.99464,8.4046 -0.0597,0.0348 -2.98467,-2.96877 -6.49983,-6.67455 z"
           id="path14255"
           inkscape:connector-curvature="0" />
      </g>
    </g>
    <path
       style="fill:#f9fb00;fill-opacity:1;fill-rule:evenodd;stroke:#000000;stroke-width:1.5678401;stroke-miterlimit:4;stroke-dasharray:none;stroke-dashoffset:0;stroke-opacity:1"
       d="m 42.956105,481.93524 c -4.962336,-0.0662 -9.02243,-0.16433 -9.02243,-0.21813 0,-0.56807 75.457165,-384.110754 75.596295,-384.249887 0.16041,-0.16041 137.7915,21.350727 141.04572,22.044837 0.62742,0.13382 1.1344,0.46182 1.12663,0.72888 -0.008,0.26707 -13.50193,81.50077 -29.987,180.51934 l -29.97285,180.03377 -14.81403,0.10894 -14.81404,0.10895 v -1.40393 c 0,-4.33285 -3.76018,-14.30429 -7.43429,-19.71466 -13.87871,-20.43731 -42.91918,-25.86857 -63.841669,-11.9399 -10.900713,7.2569 -18.179129,18.99512 -19.784445,31.90724 l -0.296549,2.38524 -9.389456,-0.0952 c -5.164201,-0.0523 -13.44955,-0.14933 -18.411886,-0.21551 z"
       id="path17958"
       inkscape:connector-curvature="0"
       transform="matrix(0.26458333,0,0,0.26458333,73.738821,68.870139)" />
  </g>
</svg>
