<?xml version="1.0" encoding="UTF-8" standalone="no"?>
<!-- Created with Inkscape (http://www.inkscape.org/) -->

<svg
   xmlns:dc="http://purl.org/dc/elements/1.1/"
   xmlns:cc="http://creativecommons.org/ns#"
   xmlns:rdf="http://www.w3.org/1999/02/22-rdf-syntax-ns#"
   xmlns:svg="http://www.w3.org/2000/svg"
   xmlns="http://www.w3.org/2000/svg"
   xmlns:sodipodi="http://sodipodi.sourceforge.net/DTD/sodipodi-0.dtd"
   xmlns:inkscape="http://www.inkscape.org/namespaces/inkscape"
   width="42.413048mm"
   height="42.35078mm"
   viewBox="0 0 42.413048 42.35078"
   version="1.1"
   id="svg8"
   inkscape:version="0.92.4 (5da689c313, 2019-01-14)"
   sodipodi:docname="INT31.svg">
  <defs
     id="defs2" />
  <sodipodi:namedview
     id="base"
     pagecolor="#ffffff"
     bordercolor="#666666"
     borderopacity="1.0"
     inkscape:pageopacity="0.0"
     inkscape:pageshadow="2"
     inkscape:zoom="4.8213178"
     inkscape:cx="267.67777"
     inkscape:cy="118.25034"
     inkscape:document-units="mm"
     inkscape:current-layer="layer1"
     showgrid="false"
     inkscape:window-width="3840"
     inkscape:window-height="2104"
     inkscape:window-x="-16"
     inkscape:window-y="-16"
     inkscape:window-maximized="1" />
  <metadata
     id="metadata5">
    <rdf:RDF>
      <cc:Work
         rdf:about="">
        <dc:format>image/svg+xml</dc:format>
        <dc:type
           rdf:resource="http://purl.org/dc/dcmitype/StillImage" />
        <dc:title></dc:title>
      </cc:Work>
    </rdf:RDF>
  </metadata>
  <g
     inkscape:label="Calque 1"
     inkscape:groupmode="layer"
     id="layer1"
     transform="translate(-22.915019,-137.39165)">
    <path
       style="fill:#9e2a97;fill-opacity:1;stroke-width:0.26458332"
       d="m 40.15734,179.6956 c -1.046719,-0.0696 -1.893313,-0.27566 -2.173278,-0.52902 -0.25224,-0.22828 -1.019957,-0.51992 -1.706038,-0.64809 -0.686082,-0.12818 -1.468917,-0.47079 -1.739634,-0.76137 -0.270718,-0.29058 -0.707247,-0.52833 -0.970066,-0.52833 -0.262819,0 -0.693353,-0.23813 -0.956742,-0.52917 -0.263389,-0.29104 -0.582052,-0.52916 -0.70814,-0.52916 -0.305698,0 -4.451235,-4.17773 -4.451235,-4.4858 0,-0.13257 -0.238125,-0.31662 -0.529167,-0.409 -0.338119,-0.10731 -0.529166,-0.40032 -0.529166,-0.81158 0,-0.35399 -0.238125,-0.88175 -0.529167,-1.17279 -0.291042,-0.29104 -0.529167,-0.75816 -0.529167,-1.03803 0,-0.27988 -0.281464,-0.84543 -0.625475,-1.25677 -0.44575,-0.533 -0.660979,-1.18388 -0.749033,-2.26516 -0.07287,-0.89479 -0.304724,-1.71744 -0.565149,-2.00521 -0.633322,-0.69982 -0.64418,-6.37343 -0.01404,-7.33515 0.235155,-0.35889 0.521564,-1.50893 0.636464,-2.55565 0.126119,-1.14891 0.360838,-2.01421 0.592278,-2.18345 0.210852,-0.15417 0.476602,-0.57752 0.590556,-0.94076 0.113954,-0.36325 0.428936,-0.94439 0.69996,-1.29144 0.271024,-0.34705 0.492771,-0.75093 0.492771,-0.89752 0,-0.14658 0.517323,-0.87467 1.149608,-1.61796 0.632284,-0.74329 1.291317,-1.61933 1.464517,-1.94675 0.1732,-0.32743 0.459548,-0.59659 0.63633,-0.59814 0.176781,-0.002 0.901027,-0.53733 1.609436,-1.19062 0.708408,-0.6533 1.429418,-1.18781 1.602242,-1.18781 0.172825,0 0.717677,-0.29765 1.210783,-0.66146 0.493106,-0.3638 1.093097,-0.66145 1.333313,-0.66145 0.240216,0 0.637661,-0.222 0.883212,-0.49333 0.270639,-0.29905 0.977231,-0.55619 1.794264,-0.65296 0.741295,-0.0878 1.653279,-0.35978 2.026633,-0.60441 1.010989,-0.66242 7.297258,-0.69647 8.255332,-0.0447 0.366692,0.24946 1.367533,0.53592 2.224093,0.63659 0.96372,0.11327 1.74336,0.36902 2.04527,0.67093 0.26834,0.26834 0.725,0.48789 1.01481,0.48789 0.28981,0 0.67676,0.24113 0.8599,0.53584 0.196,0.31544 0.74109,0.60143 1.32515,0.69528 0.59694,0.0959 0.99219,0.30666 0.99219,0.52903 0,0.20329 0.29766,0.48278 0.66146,0.6211 0.3638,0.13831 0.66146,0.43302 0.66146,0.65491 0,0.22188 0.10715,0.40342 0.23812,0.40342 0.29972,0 2.14313,1.82807 2.14313,2.12529 0,0.12117 0.23812,0.29588 0.52916,0.38825 0.29105,0.0924 0.52917,0.33177 0.52917,0.53199 0,0.20023 0.22001,0.51963 0.48891,0.70978 0.2689,0.19015 0.57069,0.7855 0.67065,1.32301 0.11344,0.60998 0.36478,1.03537 0.66876,1.13185 0.36411,0.11556 0.52,0.49779 0.6177,1.51453 0.0824,0.85796 0.2972,1.48173 0.5818,1.68984 0.59676,0.43636 0.90185,5.31436 0.59697,9.54491 -0.1772,2.45899 -0.31585,3.13161 -0.73111,3.54687 -0.28183,0.28183 -0.51243,0.85116 -0.51243,1.26517 0,0.41673 -0.23621,0.96652 -0.52917,1.23163 -0.29104,0.26339 -0.52916,0.68219 -0.52916,0.93067 0,0.40755 -0.35671,0.95253 -2.10248,3.21222 -0.29885,0.38682 -0.54336,0.82528 -0.54336,0.97436 0,0.14908 -0.23812,0.34663 -0.52916,0.439 -0.29104,0.0924 -0.52917,0.34226 -0.52917,0.5553 0,0.21305 -0.20836,0.46205 -0.46302,0.55334 -0.25466,0.0913 -1.07732,0.68287 -1.82814,1.31461 -0.75081,0.63175 -1.61401,1.14863 -1.91822,1.14863 -0.30422,0 -0.78351,0.23039 -1.06511,0.51199 -0.28159,0.28159 -0.95051,0.63307 -1.4865,0.78106 -0.53598,0.14799 -1.17078,0.44669 -1.41065,0.66378 -0.33727,0.30522 -1.42485,0.42069 -4.79736,0.50933 -2.398665,0.0631 -5.132805,0.0633 -6.075867,5.3e-4 z m 22.673575,-15.77157 c 0.41603,-0.41615 0.47233,-1.0042 0.47233,-4.93316 0,-4.01524 -0.0503,-4.51631 -0.50403,-5.01764 -0.50303,-0.55585 -0.53956,-0.55694 -18.577664,-0.55694 -17.598091,0 -18.080849,0.0135 -18.347535,0.51177 -0.157202,0.29374 -0.273892,2.38025 -0.273892,4.89738 0,4.07354 0.03807,4.41838 0.53506,4.84604 0.294284,0.25324 0.800299,0.53954 1.124479,0.63624 0.324181,0.0967 8.354054,0.15622 17.844165,0.13229 16.178367,-0.0408 17.284207,-0.073 17.727087,-0.51598 z"
       id="path826"
       inkscape:connector-curvature="0" />
  </g>
</svg>
