<?xml version="1.0" encoding="UTF-8" standalone="no"?>
<!-- Created with Inkscape (http://www.inkscape.org/) -->

<svg
   xmlns:dc="http://purl.org/dc/elements/1.1/"
   xmlns:cc="http://creativecommons.org/ns#"
   xmlns:rdf="http://www.w3.org/1999/02/22-rdf-syntax-ns#"
   xmlns:svg="http://www.w3.org/2000/svg"
   xmlns="http://www.w3.org/2000/svg"
   xmlns:sodipodi="http://sodipodi.sourceforge.net/DTD/sodipodi-0.dtd"
   xmlns:inkscape="http://www.inkscape.org/namespaces/inkscape"
   width="65.968834mm"
   height="51.32917mm"
   viewBox="0 0 65.968832 51.329171"
   version="1.1"
   id="svg8"
   inkscape:version="0.92.4 (5da689c313, 2019-01-14)"
   sodipodi:docname="lightvessel.svg">
  <defs
     id="defs2" />
  <sodipodi:namedview
     id="base"
     pagecolor="#ffffff"
     bordercolor="#666666"
     borderopacity="1.0"
     inkscape:pageopacity="0.0"
     inkscape:pageshadow="2"
     inkscape:zoom="3.7545455"
     inkscape:cx="197.26317"
     inkscape:cy="61.872483"
     inkscape:document-units="mm"
     inkscape:current-layer="layer1"
     showgrid="false"
     inkscape:window-width="4200"
     inkscape:window-height="2569"
     inkscape:window-x="-16"
     inkscape:window-y="-16"
     inkscape:window-maximized="1" />
  <metadata
     id="metadata5">
    <rdf:RDF>
      <cc:Work
         rdf:about="">
        <dc:format>image/svg+xml</dc:format>
        <dc:type
           rdf:resource="http://purl.org/dc/dcmitype/StillImage" />
        <dc:title></dc:title>
      </cc:Work>
    </rdf:RDF>
  </metadata>
  <g
     inkscape:label="Calque 1"
     inkscape:groupmode="layer"
     id="layer1"
     transform="translate(542.80564,384.08902)">
    <path
       style="fill:#000000;stroke-width:0.26458335"
       d="m -515.93792,-333.24293 c -0.24084,-0.26612 -0.44184,-0.59354 -0.44668,-0.7276 -0.005,-0.13406 -0.23229,-0.51164 -0.50544,-0.83906 l -0.49663,-0.59532 -11.99613,-0.004 c -6.59787,-0.002 -12.26532,-0.0758 -12.59433,-0.16391 -0.71182,-0.19074 -1.03347,-1.20791 -0.69086,-2.18474 0.23542,-0.67119 0.31212,-0.69242 2.74999,-0.76101 3.08935,-0.0869 3.39069,-0.17158 2.82903,-0.79485 -0.22675,-0.25163 -0.49399,-0.78493 -0.59386,-1.18511 -0.0999,-0.40018 -0.27828,-0.7276 -0.39647,-0.7276 -0.11818,0 -0.29152,-0.34897 -0.3852,-0.77547 -0.0937,-0.42651 -0.34126,-0.91734 -0.55019,-1.09073 -0.20892,-0.17338 -0.37986,-0.52422 -0.37986,-0.77962 0,-0.25541 -0.1786,-0.6126 -0.39688,-0.79375 -0.21828,-0.18116 -0.39687,-0.53835 -0.39687,-0.79375 0,-0.25541 -0.1786,-0.6126 -0.39688,-0.79375 -0.21828,-0.18116 -0.39687,-0.53835 -0.39687,-0.79375 0,-0.25541 -0.17094,-0.60624 -0.37987,-0.77964 -0.20893,-0.17339 -0.45651,-0.66422 -0.55019,-1.09073 -0.0937,-0.42651 -0.26604,-0.77547 -0.38302,-0.77547 -0.35924,0 -0.53421,-1.14218 -0.23095,-1.50758 0.37381,-0.45042 1.54905,-0.43788 2.79544,0.0298 0.54865,0.20588 1.8721,0.44589 2.941,0.53336 1.0689,0.0875 2.14046,0.26358 2.38125,0.39135 0.24079,0.12776 1.62842,0.31741 3.08363,0.42143 1.45521,0.10402 3.29593,0.35478 4.09048,0.55725 0.79456,0.20247 1.58647,0.36813 1.75981,0.36813 0.38697,0 1.42575,-1.70912 1.42575,-2.3458 0,-0.25491 0.17481,-0.69459 0.38846,-0.97706 0.21365,-0.28248 0.39629,-0.75172 0.40585,-1.04276 0.01,-0.29104 0.24744,-1.00542 0.52861,-1.5875 0.28116,-0.58209 0.51525,-1.19751 0.52019,-1.36762 0.005,-0.17011 0.17585,-0.64636 0.37982,-1.05834 0.70408,-1.42213 1.21665,-2.7527 1.21665,-3.1583 0,-0.22381 0.30897,-0.93415 0.6866,-1.57852 l 0.6866,-1.1716 h 3.54674 3.54673 v -3.70416 -3.70417 l -2.84427,-0.004 c -3.78251,-0.005 -4.13188,-0.10677 -3.92418,-1.14526 0.089,-0.44506 0.25965,-0.87465 0.37919,-0.95464 0.11955,-0.08 0.54579,-0.711 0.9472,-1.40222 0.40142,-0.69122 0.83759,-1.25677 0.96929,-1.25677 0.13169,0 0.23944,-0.16147 0.23944,-0.35883 0,-0.19735 0.38695,-0.88529 0.85989,-1.52874 0.47295,-0.64346 0.97896,-1.36341 1.12448,-1.59988 1.85368,-3.01231 3.53563,-5.2438 3.95241,-5.2438 0.33949,0 1.47155,1.09032 1.47155,1.41728 0,0.10591 0.12083,0.33636 0.2685,0.51212 0.67679,0.80548 2.11275,2.81746 2.11275,2.96023 0,0.18167 1.02657,1.66599 1.52136,2.19973 0.1819,0.19623 0.33072,0.51694 0.33072,0.7127 0,0.19576 0.0893,0.39561 0.19844,0.44412 0.44161,0.19627 3.00677,4.25804 2.88671,4.57092 -0.18731,0.48813 -1.4615,0.67665 -4.57343,0.67665 h -2.74505 v 3.54357 c 0,2.98719 0.0657,3.56878 0.41852,3.70416 0.23018,0.0883 1.92682,0.16243 3.77031,0.16465 1.84349,0.002 3.50484,0.10116 3.6919,0.21985 0.46314,0.29386 1.37969,2.04433 1.37969,2.63499 0,0.26376 0.17481,0.71067 0.38846,0.99315 0.21365,0.28247 0.39224,0.72238 0.39687,0.97757 0.005,0.25519 0.24654,0.90827 0.53758,1.45129 0.29105,0.54302 0.53296,1.16767 0.53759,1.3881 0.005,0.22044 0.18322,0.63191 0.39687,0.91439 0.21365,0.28247 0.38846,0.83344 0.38846,1.22437 0,0.39093 0.1786,0.859 0.39688,1.04016 0.21828,0.18116 0.39687,0.54926 0.39687,0.818 0,0.26874 0.24561,0.95984 0.54581,1.53577 0.59518,1.14188 0.74552,1.16566 3.55523,0.5623 0.58209,-0.125 2.24896,-0.31052 3.70417,-0.41227 1.45521,-0.10175 2.77714,-0.29005 2.93763,-0.41844 0.16049,-0.1284 1.23205,-0.30924 2.38125,-0.40188 1.1492,-0.0926 2.21149,-0.26354 2.36065,-0.37978 0.14916,-0.11624 0.87661,-0.29166 1.61655,-0.38981 1.58312,-0.21001 2.71183,0.2052 2.20803,0.81225 -0.16721,0.20147 -0.51077,0.75872 -0.76346,1.23832 -1.19452,2.26715 -2.49733,4.60653 -2.72442,4.89209 -0.23353,0.29365 -1.32575,2.2525 -2.11051,3.78512 -0.18629,0.3638 -0.41852,0.72099 -0.51608,0.79375 -0.0976,0.0728 -0.21904,0.37041 -0.26997,0.66145 -0.0865,0.49411 0.0878,0.53794 2.62986,0.66146 2.02448,0.0984 2.78656,0.23404 2.97251,0.52917 0.35331,0.56074 0.31788,1.95112 -0.0593,2.32833 -0.2379,0.2379 -3.42194,0.3175 -12.7,0.3175 -10.94307,0 -12.3825,0.0471 -12.3825,0.40518 0,0.22285 0.20836,0.46856 0.46302,0.54603 0.25466,0.0775 0.82021,0.30775 1.25677,0.51173 0.43656,0.20398 1.1223,0.44771 1.52385,0.54161 2.09428,0.48976 0.34091,0.64129 -7.42035,0.64129 -7.84175,0 -8.47238,-0.0344 -8.87916,-0.48386 z m 7.8782,-0.82457 c 0.79011,-0.52084 1.73808,-2.1254 1.73808,-2.94191 0,-0.59833 -0.51925,-1.56662 -1.27213,-2.37225 -0.54271,-0.58073 -0.82357,-0.65232 -2.52379,-0.6432 -2.08763,0.0112 -2.61956,0.30999 -3.46605,1.94691 -0.51668,0.99915 -0.51504,1.38219 0.0106,2.46563 0.91987,1.89614 3.76924,2.69453 5.51332,1.54482 z m 2.79642,-14.56927 c 1.67349,-0.14304 3.84638,-0.26048 4.82864,-0.26098 1.37819,-8e-4 1.78594,-0.088 1.78594,-0.38217 0,-0.20969 -0.11906,-0.45484 -0.26458,-0.54478 -0.14552,-0.0899 -0.26863,-0.36485 -0.27356,-0.61093 -0.005,-0.24607 -0.23902,-0.92365 -0.52019,-1.50574 -0.28117,-0.58208 -0.51525,-1.19355 -0.52019,-1.35881 -0.005,-0.16527 -0.18684,-0.64152 -0.40422,-1.05834 -0.21739,-0.41681 -0.39598,-1.01116 -0.39688,-1.32076 -7.9e-4,-0.3096 -0.18022,-0.71114 -0.3985,-0.89229 -0.21828,-0.18116 -0.39688,-0.5897 -0.39688,-0.90787 0,-0.31817 -0.17481,-0.80961 -0.38846,-1.09208 -0.21365,-0.28248 -0.39224,-0.76875 -0.39687,-1.0806 -0.005,-0.31185 -0.19675,-0.63928 -0.42693,-0.7276 -0.23019,-0.0883 -3.49738,-0.1606 -7.26043,-0.1606 -5.18412,0 -6.89326,0.0801 -7.05382,0.33073 -0.32956,0.51433 -0.91322,2.10661 -1.06372,2.9019 -0.0748,0.3955 -0.30172,0.85657 -0.50418,1.02459 -0.20245,0.16801 -0.36809,0.56581 -0.36809,0.88398 0,0.31817 -0.17481,0.80961 -0.38846,1.09208 -0.21365,0.28248 -0.39629,0.75172 -0.40585,1.04276 -0.01,0.29104 -0.24744,1.00541 -0.52861,1.5875 -0.28116,0.58208 -0.51525,1.25966 -0.52019,1.50574 -0.005,0.24607 -0.14075,0.52884 -0.3018,0.62838 -0.60562,0.37429 0.45972,0.63623 2.67408,0.65748 1.23692,0.0119 3.49911,0.17762 5.02708,0.36831 1.52797,0.1907 3.37344,0.30026 4.10104,0.24346 0.72761,-0.0568 2.69214,-0.22032 4.36563,-0.36336 z"
       id="path851"
       inkscape:connector-curvature="0" />
  </g>
</svg>
