<?xml version="1.0" encoding="UTF-8" standalone="no"?>
<!-- Created with Inkscape (http://www.inkscape.org/) -->

<svg
   xmlns:dc="http://purl.org/dc/elements/1.1/"
   xmlns:cc="http://creativecommons.org/ns#"
   xmlns:rdf="http://www.w3.org/1999/02/22-rdf-syntax-ns#"
   xmlns:svg="http://www.w3.org/2000/svg"
   xmlns="http://www.w3.org/2000/svg"
   xmlns:sodipodi="http://sodipodi.sourceforge.net/DTD/sodipodi-0.dtd"
   xmlns:inkscape="http://www.inkscape.org/namespaces/inkscape"
   width="11.990093mm"
   height="9.1644926mm"
   viewBox="0 0 11.990093 9.1644926"
   version="1.1"
   id="svg8"
   inkscape:version="0.92.4 (5da689c313, 2019-01-14)"
   sodipodi:docname="marine_culture_shell.svg">
  <defs
     id="defs2" />
  <sodipodi:namedview
     id="base"
     pagecolor="#ffffff"
     bordercolor="#666666"
     borderopacity="1.0"
     inkscape:pageopacity="0.0"
     inkscape:pageshadow="2"
     inkscape:zoom="8.9170455"
     inkscape:cx="27.415755"
     inkscape:cy="11.037774"
     inkscape:document-units="mm"
     inkscape:current-layer="layer1"
     showgrid="false"
     inkscape:window-width="4200"
     inkscape:window-height="2569"
     inkscape:window-x="-16"
     inkscape:window-y="-16"
     inkscape:window-maximized="1" />
  <metadata
     id="metadata5">
    <rdf:RDF>
      <cc:Work
         rdf:about="">
        <dc:format>image/svg+xml</dc:format>
        <dc:type
           rdf:resource="http://purl.org/dc/dcmitype/StillImage" />
        <dc:title></dc:title>
      </cc:Work>
    </rdf:RDF>
  </metadata>
  <g
     inkscape:label="Calque 1"
     inkscape:groupmode="layer"
     id="layer1"
     transform="translate(-112.18672,-110.0833)">
    <path
       style="fill:#9f2c98;fill-opacity:1;stroke-width:0.26458332"
       d="m 115.27522,118.82996 c -1.4581,-0.71864 -1.90725,-1.52306 -1.90725,-3.41588 0,-1.42706 -0.0857,-1.72909 -0.59063,-2.08279 l -0.59062,-0.41369 1.51689,-1.5169 c 1.31528,-1.31527 1.5826,-1.47587 2.01115,-1.20824 0.35015,0.21868 1.17432,0.24668 2.82697,0.0961 2.48429,-0.22643 3.57782,-0.0516 4.41478,0.70584 2.57288,2.32842 0.85721,6.71053 -3.08813,7.88759 -1.69601,0.506 -3.50251,0.48555 -4.59316,-0.052 z m 4.45746,-0.48997 c 1.66653,-0.58799 2.88817,-1.63031 3.48068,-2.96976 0.66046,-1.49309 0.45898,-2.76868 -0.60543,-3.83309 l -0.7753,-0.77529 -3.33161,0.11723 -3.33162,0.11724 -0.96686,0.99237 c -0.6226,0.63903 -0.8491,1.03668 -0.63614,1.11679 0.21388,0.0805 0.33405,0.70091 0.34011,1.75602 0.005,0.89738 0.16815,1.91813 0.36221,2.26833 0.8069,1.45618 3.23958,1.99497 5.46396,1.21016 z m -3.30553,-2.18594 c -0.28198,-0.39561 -0.79395,-1.09553 -1.13772,-1.55538 -0.35943,-0.4808 -0.51489,-0.90417 -0.36583,-0.99629 0.3,-0.18542 2.74002,2.87249 2.49087,3.12164 -0.27913,0.27913 -0.4541,0.17812 -0.98732,-0.56997 z m 1.77074,-1.73898 c -1.34536,-0.74886 -2.44669,-1.51328 -2.44739,-1.69872 -0.001,-0.37498 5.35661,2.38792 5.50725,2.83984 0.17141,0.51425 -0.60829,0.22347 -3.05986,-1.14112 z m -0.4643,-2.13158 c -1.03418,-0.19889 -1.46469,-0.38161 -1.23514,-0.52423 0.44516,-0.27658 4.58493,0.34998 4.39053,0.66452 -0.18068,0.29235 -1.12379,0.25042 -3.15539,-0.14029 z"
       id="path4564"
       inkscape:connector-curvature="0" />
  </g>
</svg>
