<?xml version="1.0" encoding="UTF-8" standalone="no"?>
<!-- Created with Inkscape (http://www.inkscape.org/) -->

<svg
   xmlns:dc="http://purl.org/dc/elements/1.1/"
   xmlns:cc="http://creativecommons.org/ns#"
   xmlns:rdf="http://www.w3.org/1999/02/22-rdf-syntax-ns#"
   xmlns:svg="http://www.w3.org/2000/svg"
   xmlns="http://www.w3.org/2000/svg"
   xmlns:sodipodi="http://sodipodi.sourceforge.net/DTD/sodipodi-0.dtd"
   xmlns:inkscape="http://www.inkscape.org/namespaces/inkscape"
   version="1.0"
   width="143.28691"
   height="105.62358"
   id="svg2"
   sodipodi:docname="marine_culture.svg"
   inkscape:version="0.92.4 (5da689c313, 2019-01-14)">
  <metadata
     id="metadata14463">
    <rdf:RDF>
      <cc:Work
         rdf:about="">
        <dc:format>image/svg+xml</dc:format>
        <dc:type
           rdf:resource="http://purl.org/dc/dcmitype/StillImage" />
        <dc:title></dc:title>
      </cc:Work>
    </rdf:RDF>
  </metadata>
  <sodipodi:namedview
     pagecolor="#ffffff"
     bordercolor="#666666"
     borderopacity="1"
     objecttolerance="10"
     gridtolerance="10"
     guidetolerance="10"
     inkscape:pageopacity="0"
     inkscape:pageshadow="2"
     inkscape:window-width="4200"
     inkscape:window-height="2569"
     id="namedview14461"
     showgrid="false"
     inkscape:zoom="10.68949"
     inkscape:cx="104.30301"
     inkscape:cy="48.005832"
     inkscape:window-x="-16"
     inkscape:window-y="-16"
     inkscape:window-maximized="1"
     inkscape:current-layer="svg2" />
  <defs
     id="defs4" />
  <path
     d="m 3.9537518,73.770182 -1.425,-4.95 28.3624992,-17.3875 -28.7374992,-17.7 1.425,-4.95 31.8999992,19.8125 12.05,-7.4375 6.075,-3.6625 6.35,-3.1 6.7125,-2.325 6.9375,-1.6875 7.0125,-1.025 7.1125,-0.4125 7.1,0.225 7.049999,0.85 6.95,1.5125 6.77499,2.15 6.55,2.8375 6.175,3.5125 5.7,4.2 5.27501,4.7375 2.4875,2.4125 -5.22501,4.7875 -5.525,4.4125 -5.94999,3.8875 -6.33751,3.225 -6.6125,2.5625 -6.8625,1.925 -6.999989,1.225 -7.075,0.5875 -7.1,-0.1 -7.075,-0.7625 -6.975,-1.4125 -6.8,-2.1 -6.5375,-2.7875 -6.2375,-3.3125 -5.4125,-3.225 -9.5875,-5.6625 z m 36.4874992,-22.3375 8.8625,5.6625 6.2375,3.4 6.4,3.025 6.6625,2.4125 6.8625,1.8375 7.0125,1.1625 7.05,0.25 6.9125,-0.4125 -1.825,-6.8375 -1.225,-7.0125 -0.15,-7.075 1.225,-6.9625 1.95,-6.8375 0.0125,-0.025 -7.0875,-0.0625 -7.075,0.2125 -7,0.85 -6.9125,1.7375 -6.625,2.5125 -6.3,3.2 -6.15,3.5625 -0.675,0.425 -8.1625,4.975 m 61.324999,16.2625 6.86249,-1.7375 6.7375,-2.15 6.475,-2.925 6.03751,-3.7375 5.43749,-4.5125 1.3875,-1.25 -5.475,-4.5125 -5.825,-4.0125 -6.35,-3.1875 -6.67499,-2.375 -6.83751,-1.775 -1.78749,-0.425 -2.262499,6.725 -1.1,7 0.3875,7.075 1.537499,6.9125 z m 15.92499,-20.5625 -0.4875,1.975 -1.33749,1.5125 -1.91251,0.7375 -2.01249,-0.2375 -1.6875,-1.15 -0.9375,-1.8125 v -2.025 l 0.9375,-1.8 1.67499,-1.175 2.025,-0.25 1.91251,0.7375 1.33749,1.5125 z"
     id="path22396"
     style="fill:#a30075;fill-opacity:1;fill-rule:evenodd;stroke:none"
     inkscape:connector-curvature="0" />
  <g
     id="g15023"
     style="stroke:#a30075;stroke-width:4.5999999;stroke-miterlimit:4;stroke-dasharray:none;stroke-opacity:1"
     transform="translate(1.9725043,-18.611068)">
    <path
       id="path15016"
       style="fill:none;stroke:#a30075;stroke-width:4.5999999;stroke-linecap:butt;stroke-linejoin:miter;stroke-miterlimit:4;stroke-dasharray:none;stroke-opacity:1"
       d="m 91.023987,22.50141 -0.09355,15.622822 M 41.910325,21.659462 V 38.591981 M 139.01505,22.127211 138.5473,41.959775 M 1.2161478,20.911063 V 39.24683 m 0,-18.335767 137.7053522,0.28065"
       inkscape:connector-curvature="0" />
  </g>
  <path
     id="path15016-7"
     style="fill:none;stroke:#a30075;stroke-width:4.5999999;stroke-linecap:butt;stroke-linejoin:miter;stroke-miterlimit:4;stroke-dasharray:none;stroke-opacity:1"
     d="M 92.107839,101.73323 92.014289,86.110412 M 42.994177,102.57518 V 85.642662 M 140.0989,102.10743 139.63115,82.274862 M 2.3,103.32358 V 84.987812 m 0,18.335768 137.70535,-0.28065"
     inkscape:connector-curvature="0" />
</svg>
