<?xml version="1.0" encoding="UTF-8" standalone="no"?>
<!-- Created with Inkscape (http://www.inkscape.org/) -->

<svg
   xmlns:dc="http://purl.org/dc/elements/1.1/"
   xmlns:cc="http://creativecommons.org/ns#"
   xmlns:rdf="http://www.w3.org/1999/02/22-rdf-syntax-ns#"
   xmlns:svg="http://www.w3.org/2000/svg"
   xmlns="http://www.w3.org/2000/svg"
   xmlns:sodipodi="http://sodipodi.sourceforge.net/DTD/sodipodi-0.dtd"
   xmlns:inkscape="http://www.inkscape.org/namespaces/inkscape"
   id="svg3006"
   version="1.1"
   inkscape:version="0.92.4 (5da689c313, 2019-01-14)"
   width="16.877731"
   height="17.845171"
   sodipodi:docname="Minaret.svg">
  <metadata
     id="metadata3012">
    <rdf:RDF>
      <cc:Work
         rdf:about="">
        <dc:format>image/svg+xml</dc:format>
        <dc:type
           rdf:resource="http://purl.org/dc/dcmitype/StillImage" />
        <dc:title></dc:title>
      </cc:Work>
    </rdf:RDF>
  </metadata>
  <defs
     id="defs3010" />
  <sodipodi:namedview
     pagecolor="#ffffff"
     bordercolor="#666666"
     borderopacity="1"
     objecttolerance="10"
     gridtolerance="10"
     guidetolerance="10"
     inkscape:pageopacity="0"
     inkscape:pageshadow="2"
     inkscape:window-width="4200"
     inkscape:window-height="2569"
     id="namedview3008"
     showgrid="false"
     inkscape:zoom="27.092268"
     inkscape:cx="8.3964156"
     inkscape:cy="3.8473373"
     inkscape:window-x="-16"
     inkscape:window-y="-16"
     inkscape:window-maximized="1"
     inkscape:current-layer="svg3006" />
  <ellipse
     style="fill:none;fill-opacity:0.99680002;fill-rule:evenodd;stroke:#000000;stroke-width:1.21023667;stroke-miterlimit:4;stroke-dasharray:none;stroke-dashoffset:0;stroke-opacity:1"
     id="path884"
     cx="8.6203976"
     cy="14.7683"
     rx="2.8408611"
     ry="2.4717519" />
  <ellipse
     style="fill:none;fill-opacity:0.99680002;fill-rule:evenodd;stroke:#000000;stroke-width:1.13385832;stroke-miterlimit:4;stroke-dasharray:none;stroke-dashoffset:0;stroke-opacity:1"
     id="path886"
     cx="8.565032"
     cy="14.602201"
     rx="0.20300995"
     ry="0.12918815" />
  <path
     style="fill:none;stroke:#000000;stroke-width:1px;stroke-linecap:butt;stroke-linejoin:miter;stroke-opacity:1"
     d="M 8.4727544,12.406003 8.5096653,8.1243383"
     id="path888"
     inkscape:connector-curvature="0" />
  <path
     style="fill:none;stroke:#000000;stroke-width:1px;stroke-linecap:butt;stroke-linejoin:miter;stroke-opacity:1"
     d="m 0.5369109,0.92671318 c 0,0.07382 0,0.14764302 0,0.22146502 0,0.0123 0.0123036,0.03691 0,0.03691 -0.0123036,0 -0.0123036,-0.03691 0,-0.03691 0.0123036,0 0.0123036,0.03691 0,0.03691 -0.0123036,0 -0.0123036,-0.03691 0,-0.03691 0.0123036,0 0,0.02461 0,0.03691 0,0.07382 0,0.147643 0,0.221465 0,0.04922 0,0.09843 0,0.147644 0,0.0123 0.0123036,0.03691 0,0.03691 -0.0123036,0 0,-0.04922 0,-0.03691 0,0.03691 0.0260999,0.08463 0,0.110733 C 0.51745715,1.6843802 0.5,1.5635962 0.5,1.5911102 c 0,0.03891 0.0195109,0.07593 0.0369109,0.110732 0.005502,0.011 -0.0123036,-0.03691 0,-0.03691 0.0123036,0 0.0123036,0.03691 0,0.03691 -0.0123036,0 0,-0.04921 0,-0.03691 0,0.03691 0,0.07382 0,0.110732 0,0.02461 -0.0246073,-0.07382 0,-0.07382 0.0246073,0 0,0.04922 0,0.07382 0,0.0123 0,0.02461 0,0.03691 0,0.14988 0,0.058 0,0.221466 0,0.02461 -0.0174,0.05642 0,0.07382 0.0174,0.0174 0.0738218,-0.02461 0.0738218,0 0,0.02751 -0.04631,0.03691 -0.0738218,0.03691 -0.0123036,0 -0.0123036,-0.03691 0,-0.03691 0.0123036,0 0.0123036,0.03691 0,0.03691 -0.0123036,0 0,-0.04921 0,-0.03691 0,0.04922 0,0.09843 0,0.147644 0,0.0123 0.0123036,0.03691 0,0.03691 -0.0123036,0 -0.0123036,-0.03691 0,-0.03691 0.0123036,0 0,0.02461 0,0.03691 0,0.03691 0,0.07382 0,0.110733 0,0.02461 0.0246073,0.07382 0,0.07382 -0.0246073,0 -0.0246073,-0.07382 0,-0.07382 0.002732,0 -0.00296,0.180114 0,0.184554 0.0152608,0.02289 0.0738218,0.0094 0.0738218,0.03691 0,0.02461 -0.0518124,-0.011 -0.0738218,0 -0.0110047,0.0055 0,0.02461 0,0.03691 0,0.02461 0,0.04921 0,0.07382 0,0.0123 -0.0123036,0.03691 0,0.03691 0.0275118,0 0.04631,-0.03691 0.0738218,-0.03691 0.0123036,0 0.0110047,0.03141 0,0.03691 -0.0220094,0.011 -0.0564218,-0.0174 -0.0738218,0 -0.0174,0.0174 0,0.04921 0,0.07382 0,0.0123 0.0123036,0.03691 0,0.03691 -0.0123036,0 -0.0123036,-0.03691 0,-0.03691 0.0123036,0 0,0.02461 0,0.03691 0,0.02461 0.0246073,0.07382 0,0.07382 -0.0246073,0 -0.0246073,-0.07382 0,-0.07382 0.0246073,0 0,0.04922 0,0.07382 0,0.0123 0,0.02461 0,0.03691 0,0.0123 0.0123036,0.03691 0,0.03691 -0.0123036,0 0,-0.04922 0,-0.03691 0,0.03691 -0.0204745,0.08002 0,0.110733 0.0459916,0.068987 0.1107327,-0.06649 0.1107327,0 0,0.0174 -0.0314086,0.0204 -0.0369109,0.03691 -0.007782,0.02334 0,0.049214 0,0.073821 0,0.012304 -0.0087,0.028211 0,0.036911 0.0087,0.0087 0.0282109,-0.0087 0.0369109,0 0.0087,0.0087 0.0087,0.028211 0,0.036911 -0.0087,0.0087 -0.0369109,0.012304 -0.0369109,0 0,-0.012304 0.0314085,-0.011005 0.0369109,0 0.0110047,0.022009 0,0.049214 0,0.073822 0,0.012304 -0.0087,0.028211 0,0.036911 0.0087,0.0087 0.0369109,-0.012304 0.0369109,0 0,0.012304 -0.0369109,0.012304 -0.0369109,0 0,-0.012304 0.0314085,-0.011005 0.0369109,0 0.0110047,0.022009 0,0.049214 0,0.073822 0,0.012304 -0.0123036,0.036911 0,0.036911 0.0389075,0 0.0832209,-0.064423 0.1107327,-0.036911 0.0087,0.0087 -0.0110047,0.031409 0,0.036911 0.0220094,0.011005 0.0564218,-0.0174 0.0738218,0 0.0174,0.0174 -0.0110047,0.051812 0,0.073822 0.005502,0.011005 0.0282109,-0.0087 0.0369109,0 0.0087,0.0087 0.0123036,0.036911 0,0.036911 -0.0123036,0 0,-0.049215 0,-0.036911 0,0.024607 0,0.049214 0,0.073822 0,0.012304 -0.0123036,-0.036911 0,-0.036911 0.005494,0 -0.006272,0.1445077 0,0.1476436 0.0220094,0.011005 0.0738218,-0.024607 0.0738218,0 0,0.024607 -0.0564218,-0.0174 -0.0738218,0 -0.0174,0.0174 0.0246073,0.073822 0,0.073822 -0.0246073,0 -0.0174,-0.056422 0,-0.073822 0.0174,-0.0174 0.0564218,-0.0174 0.0738218,0 0.0521999,0.015289 -0.0261,0.084633 0,0.1107327 0.0087,0.0087 0.0314085,-0.011005 0.0369109,0 0.011005,0.022009 0.024607,0.073822 0,0.073822 -0.042857,0 0.036911,-0.2091256 0.036911,0 0,0.012304 -0.028211,-0.0087 -0.036911,0 -0.0087,0.0087 -0.0087,0.028211 0,0.036911 0.0087,0.0087 0.036911,-0.012304 0.036911,0 0,0.098429 -0.11371806,-0.042882 -0.036911,0.1107327 0.0055,0.011005 0.028211,-0.0087 0.036911,0 0.0087,0.0087 0,0.024607 0,0.036911 0,0.024607 0.024607,0.073822 0,0.073822 -0.024607,0 -0.024607,-0.073822 0,-0.073822 0.024607,0 0.024607,0.073822 0,0.073822 -0.024607,0 -0.022009,-0.084827 0,-0.073822 0.039678,0.019839 0.08785,0.068648 0.073822,0.1107327 -0.011672,0.035017 -0.080021,-0.020474 -0.1107327,0 -0.0204745,0.01365 -0.011005,0.051812 0,0.073822 0.0055,0.011005 0.028211,-0.0087 0.036911,0 0.0087,0.0087 0.012304,0.036911 0,0.036911 -0.012304,0 -0.012304,-0.036911 0,-0.036911 0.012304,0 0.012304,0.036911 0,0.036911 -0.012304,0 0,-0.049215 0,-0.036911 0,0.024607 -0.0174,0.056422 0,0.073822 0.0174,0.0174 0.073822,-0.024607 0.073822,0 0,0.024607 -0.084826,-0.022009 -0.073822,0 0.019839,0.039678 0.079364,0.042454 0.1107327,0.073822 0.0087,0.0087 -0.011005,0.031409 0,0.036911 0.022009,0.011005 0.049214,0 0.073822,0 0.012304,0 0.036911,-0.012304 0.036911,0 0,0.012304 -0.031408,-0.011005 -0.036911,0 -0.00424,0.00849 -0.00424,0.1760692 0,0.1845545 0.0055,0.011005 0.031409,0.011005 0.036911,0 0.017896,-0.035792 -0.042709,-0.194218 0.073822,0 0.020018,0.033363 0.0094,0.083221 0.036911,0.1107327 0.0174,0.0174 0.073822,-0.024607 0.073822,0 0,0.024607 -0.073822,-0.024607 -0.073822,0 0,0.027512 0.054368,0.017457 0.073822,0.036911 0.019454,0.019454 0.017457,0.054368 0.036911,0.073822 0.018455,0.018455 0.1107327,-0.036911 0.1107327,0 0,0.024607 -0.073822,0.024607 -0.073822,0 0,-0.024607 0.050477,-0.00778 0.073822,0 0.016507,0.0055 0.019511,0.036911 0.036911,0.036911 0.012304,0 -0.011672,-0.03302 0,-0.036911 0.035017,-0.011672 0.073822,0 0.1107327,0 0.010193,0 -0.1368326,-0.0087 0,0.036911 0.023345,0.00778 0.049214,0 0.073822,0 0.012304,0 0.024607,0 0.036911,0 0.012304,0 0.036911,-0.012304 0.036911,0 0,0.012304 -0.036911,0.012304 -0.036911,0 0,-0.049215 0.086125,0.036911 0.036911,0.036911 -0.012304,0 0,-0.049215 0,-0.036911 0,0.036911 -0.035809,0.1196849 0,0.1107327 0.067522,-0.016881 0.1058837,-0.091964 0.1476436,-0.1476436 0.00738,-0.00984 -0.031408,-0.011005 -0.036911,0 -0.011005,0.022009 -0.00778,0.050477 0,0.073822 0.0055,0.016507 0.044692,0.052474 0.036911,0.036911 -0.019839,-0.039678 -0.073822,-0.066371 -0.073822,-0.1107327 0,-0.024607 0.073822,-0.024607 0.073822,0 0,0.1312387 -0.1968581,-0.1312388 0,0 0.022891,0.015261 0.036911,0.04631 0.036911,0.073822 0,0.012304 -0.036911,0.012304 -0.036911,0 0,-0.032252 0.1224181,0.036911 0,0.036911 -0.012304,0 -0.012304,-0.036911 0,-0.036911 0.012304,0 0.012304,0.036911 0,0.036911 -0.012304,0 -0.012304,-0.036911 0,-0.036911 0.012304,0 0.012304,0.036911 0,0.036911 -0.012304,0 0,-0.049215 0,-0.036911 0,0.024607 0,0.049215 0,0.073822 0,0.012304 -0.012304,-0.036911 0,-0.036911 0.012304,0 0.012304,0.036911 0,0.036911 -0.012304,0 -0.012304,-0.036911 0,-0.036911 0.012304,0 -0.00389,0.025239 0,0.036911 0.0087,0.0261 0.0094,0.073822 0.036911,0.073822 0.050913,0 -0.089402,-0.2448361 0.073822,0 0.00682,0.010237 0,0.024607 0,0.036911 0,0.024607 -0.011005,0.051812 0,0.073822 0.0055,0.011005 0.028211,-0.0087 0.036911,0 0.0087,0.0087 -0.0087,0.028211 0,0.036911 0.0087,0.0087 0.036911,-0.012304 0.036911,0 0,0.012304 -0.024607,0 -0.036911,0 0,0.024607 -0.011005,0.051812 0,0.073822 0.0055,0.011005 0.025239,-0.00389 0.036911,0 0.0261,0.0087 0.054368,0.017457 0.073822,0.036911 0.049214,0.049215 -0.061518,0.036911 0.036911,0.036911 0.024607,0 0.073822,-0.024607 0.073822,0 0,0.0348 -0.049215,0.098429 -0.073822,0.073822 -0.024607,-0.024607 0.049215,-0.098429 0.073822,-0.073822 0.024607,0.024607 -0.073822,0.039022 -0.073822,0.073822 0,0.024607 0.051812,-0.011005 0.073822,0 0.011005,0.0055 -0.00389,0.025239 0,0.036911 0.0087,0.0261 0.036911,0.04631 0.036911,0.073822 0,0.012304 -0.036911,0.012304 -0.036911,0 0,-0.049215 0.086125,0.036911 0.036911,0.036911 -0.079631,0 0.1670552,-0.1864667 0.073822,0 -0.012304,0.024607 -0.1013335,-0.036911 -0.073822,-0.036911 0.1810021,0 0.057015,0.062617 0.1845545,0.1476436 0.014478,0.00965 0.019511,-0.036911 0.036911,-0.036911 0.012304,0 0,0.024607 0,0.036911 0,0.024607 -0.011005,0.051812 0,0.073822 0.018455,0.036911 0.1107327,-0.073822 0.1107327,0 0,0.024607 -0.051812,-0.011005 -0.073822,0 -0.011005,0.0055 0.012304,0.036911 0,0.036911 -0.012304,0 0,-0.049215 0,-0.036911 0,0.024607 -0.020474,0.060172 0,0.073822 0.030712,0.020474 0.073822,0 0.1107327,0 0.024607,0 0.049215,0 0.073822,0 0.012304,0 0.036911,-0.012304 0.036911,0 0,0.012304 -0.049214,0 -0.036911,0 0.036911,0 0.073822,0 0.1107327,0 0.024607,0 -0.073822,0.024607 -0.073822,0 0,-0.024607 0.073822,-0.024607 0.073822,0 0,0.024607 -0.098429,0 -0.073822,0 0.036911,0 0.080021,-0.020474 0.1107327,0 0.020474,0.01365 -0.01365,0.053347 0,0.073822 0.015261,0.022891 0.058561,0.01402 0.073822,0.036911 0.01365,0.020474 -0.024607,0.073822 0,0.073822 0.027512,0 0.0094,-0.073822 0.036911,-0.073822 0.024607,0 -0.0174,0.056422 0,0.073822 0.2430177,0.2430177 0.086467,-0.02529 0.073822,0 -0.016507,0.033014 -0.0261,0.084633 0,0.1107327 0.0261,0.0261 0.076806,-0.01454 0.1107327,0 0.056544,0.024233 0.1092135,0.062695 0.1476436,0.1107327 0.015372,0.019215 0,0.049215 0,0.073822 0,0.012304 0,0.049215 0,0.036911 0,-0.036911 -0.036911,-0.1107327 0,-0.1107327 0.036911,0 -0.0261,0.084633 0,0.1107327 0.0261,0.0261 0.073822,0 0.1107327,0 0.024607,0 -0.073822,0.024607 -0.073822,0 0,-0.024607 0.056422,-0.0174 0.073822,0 0.0174,0.0174 -0.024607,0.073822 0,0.073822 0.2163502,0 0.00452,-0.2815829 0.2583763,0.073822 0.022614,0.03166 0.0094,0.083221 0.036911,0.1107327 0.0174,0.0174 0.049215,0 0.073822,0 0.012304,0.036911 0.019511,0.075933 0.036911,0.1107327 0.0055,0.011005 -0.012304,-0.036911 0,-0.036911 0.012304,0 -0.011672,0.03302 0,0.036911 0.035017,0.011672 0.080021,-0.020475 0.1107327,0 0.020474,0.01365 -0.0174,0.056422 0,0.073822 0.0174,0.0174 0.051812,-0.011005 0.073822,0 0.011005,0.0055 0,0.024607 0,0.036911 0.036911,-0.012304 0.071825,-0.036911 0.1107327,-0.036911 0.012304,0 0,0.024607 0,0.036911 0,0.024607 -0.00778,0.050477 0,0.073822 0.032252,0.096755 0.050707,-0.023115 0.1107327,0.036911 0.1457495,0.1457494 -0.094177,0.1107327 0.1476436,0.1107327 0.012304,0 -0.024607,0 -0.036911,0 -0.024607,0 -0.073822,0.024607 -0.073822,0 0,-0.024607 0.049215,0 0.073822,0 0.012304,0 0.024607,0 0.036911,0 0.073822,0 0.1476436,0 0.2214654,0 0.024607,0 0.049215,0 0.073822,0 0.012304,0 0.049215,0 0.036911,0 -0.036911,0 -0.1107327,-0.036911 -0.1107327,0 0,0.044361 0.066371,0.073822 0.1107327,0.073822 0.024607,0 -0.0174,-0.056422 0,-0.073822 0.0174,-0.0174 0.049215,0 0.073822,0 0.1550258,0 -0.2436119,0 0,0 0.012304,0 0.024607,0 0.036911,0 0.012304,0 0.024607,0 0.036911,0 0.024607,0 0.056422,-0.0174 0.073822,0 0.041443,0.041443 -0.032991,0.099736 0,0.1107327 0.035017,0.011672 0.073822,0 0.1107327,0 0.036911,0 0.077719,-0.016507 0.1107327,0 0.015563,0.00778 -0.031408,0.020404 -0.036911,0.036911 -0.00778,0.023345 0.024607,0.073822 0,0.073822 -0.024607,0 -0.024607,-0.073822 0,-0.073822 0.044361,0 0.071055,0.053983 0.1107327,0.073822 0.022009,0.011005 0.073822,-0.024607 0.073822,0 0,0.012304 -0.036911,0.012304 -0.036911,0 0,-0.012304 0.024607,0 0.036911,0 0.024607,0 0.049215,0 0.073822,0 0.012304,0 0.036911,-0.012304 0.036911,0 0,0.012304 -0.049214,0 -0.036911,0 0.036911,0 0.084633,-0.0261 0.1107327,0 0.0261,0.0261 0.036911,0.1107327 0,0.1107327 -0.036911,0 -0.0261,-0.084633 0,-0.1107327 0.00125,-0.00125 0.3075059,0 0.3321981,0 0.012304,0 -0.036911,0.012304 -0.036911,0 0,-0.012304 0.024607,0 0.036911,0 0.036911,0 0.073822,0 0.1107327,0 0.024607,0 0.073822,-0.024607 0.073822,0 0,0.024607 -0.073822,0.024607 -0.073822,0 0,-0.024607 0.049215,0 0.073822,0 0.012304,0 0.036911,-0.012304 0.036911,0 0,0.012304 -0.049214,0 -0.036911,0 0.036911,0 0.075716,-0.011672 0.1107327,0 0.011672,0.00389 0.012304,0.036911 0,0.036911 -0.012304,0 -0.0087,-0.028211 0,-0.036911 0.0087,-0.0087 0.028211,-0.0087 0.036911,0 0.0087,0.0087 0.012304,0.036911 0,0.036911 -0.012304,0 -0.0087,-0.028211 0,-0.036911 0.0087,-0.0087 0.024607,0 0.036911,0 0.024607,0 0.051812,-0.011005 0.073822,0 0.036911,0.018455 -0.073822,0.1107327 0,0.1107327 0.030452,0 0.025019,-0.1595358 0.1107327,-0.073822 0.0174,0.0174 -0.020474,0.060172 0,0.073822 0.030712,0.020474 0.094226,0.033014 0.1107327,0 0.015563,-0.031126 -0.073822,-0.039022 -0.073822,-0.073822 0,-0.024607 0.073822,-0.024607 0.073822,0 0,0.024607 -0.098429,0 -0.073822,0 0.036911,0 0.073822,0 0.1107327,0 0.036911,0 -0.1476436,0 -0.1107327,0 0.036911,0 0.074324,0.00607 0.1107327,0 0.038378,-0.0064 0.071825,-0.036911 0.1107327,-0.036911 0.018455,0 -0.036911,0.1476436 0,0.1107327 0.038907,-0.038907 0.028039,-0.117122 0.073822,-0.1476436 0.022891,-0.015261 0.01402,0.058561 0.036911,0.073822 0.020474,0.01365 0.049215,0 0.073822,0 0.012304,0 0.043736,-0.010237 0.036911,0 -0.028955,0.043433 -0.1107327,0.058533 -0.1107327,0.1107327 0,0.01956 0.1657142,-0.01884 0.1845545,0 0.019454,0.019454 -0.04631,0.036911 -0.073822,0.036911 -0.0174,0 0.020404,-0.031409 0.036911,-0.036911 0.023344,-0.00778 0.049215,0 0.073822,0 0.012304,0 0.049215,0 0.036911,0 -0.036911,0 -0.1107327,0.036911 -0.1107327,0 0,-0.2214654 0.1517449,0.036911 0.1107327,0.036911 -0.012304,0 -0.011005,-0.031409 0,-0.036911 0.022009,-0.011005 0.049215,0 0.073822,0 0.012304,0 0.028211,-0.0087 0.036911,0 0.0087,0.0087 0.012304,0.036911 0,0.036911 -0.012304,0 -0.012304,-0.036911 0,-0.036911 0.038708,0 -0.1107327,0.2805605 -0.1107327,0 0,-0.2214654 0.1517449,0.036911 0.1107327,0.036911 -0.041012,0 0.1107327,-0.2583763 0.1107327,-0.036911 0,0.036911 -0.073822,0 -0.1107327,0 -0.024607,0 0.051812,-0.011005 0.073822,0 0.011005,0.0055 0,0.024607 0,0.036911 0.036911,-0.012304 0.075933,-0.019511 0.1107327,-0.036911 0.011005,-0.0055 -0.049214,0 -0.036911,0 0.036911,0 0.1476436,0 0.1107327,0 -0.049214,0 -0.099898,-0.011936 -0.1476436,0 -0.041012,0.010253 0.1107327,0.2276172 0.1107327,0.036911 0,-0.048583 -0.2879102,-0.036911 0,-0.036911 0.012304,0 -0.036911,-0.012304 -0.036911,0 0,0.038907 0.00355,0.090715 0.036911,0.1107327 0.042201,0.025321 0.1476436,-0.049214 0.1476436,0 0,0.049214 -0.1968581,0 -0.1476436,0 0.061518,0 0.1230364,0 0.1845545,0 0.012304,0 0.049215,0 0.036911,0 -0.036911,0 -0.073822,0 -0.1107327,0 -0.024607,0 0.049215,0 0.073822,0 0.049215,0 0.1009546,-0.015563 0.1476436,0 0.011672,0.00389 0.012304,0.036911 0,0.036911 -0.012304,0 -0.011672,-0.03302 0,-0.036911 0.035017,-0.011672 0.075716,-0.011672 0.1107327,0 0.037832,0.012611 -0.052162,0.075958 0,0.1107327 0.030712,0.020474 0.073822,0 0.1107327,0 0.024607,0 0.073822,-0.024607 0.073822,0 0,0.024607 -0.098429,0 -0.073822,0 0.036911,0 0.073822,0 0.1107327,0 0.049215,0 0.1476436,-0.049214 0.1476436,0 0,0.049214 -0.1476436,0.049214 -0.1476436,0 0,-0.049214 0.1476436,-0.049214 0.1476436,0 0,0.049214 -0.1968581,0 -0.1476436,0 0.061518,0 0.1230364,0 0.1845545,0 0.012304,0 -0.036911,0.012304 -0.036911,0 0,-0.012304 0.036911,-0.012304 0.036911,0 0,0.012304 -0.049214,0 -0.036911,0 0.036911,0 0.1476436,0 0.1107327,0 -0.049215,0 -0.098429,0 -0.1476436,0 -0.024607,0 0.073822,-0.024607 0.073822,0 0,0.024607 -0.098429,0 -0.073822,0 0.061518,0 0.1230364,0 0.1845545,0 0.012304,0 0.049215,0 0.036911,0 -0.036911,0 -0.1107327,0.036911 -0.1107327,0 0,-0.036911 0.1107327,-0.036911 0.1107327,0 0,0.036911 -0.1476436,0 -0.1107327,0 0.073822,0 0.1476436,0 0.2214654,0 0.036911,0 -0.1107327,0.036911 -0.1107327,0 0,-0.036911 0.1107327,-0.036911 0.1107327,0 0,0.036911 -0.1476436,0 -0.1107327,0 0.086126,0 0.1722509,0 0.2583764,0 0.049214,0 -0.1476437,0.049214 -0.1476437,0 0,-0.049214 0.1476437,-0.049214 0.1476437,0 0,0.049214 -0.1968582,0 -0.1476437,0 0.086126,0 0.1722509,0 0.2583764,0 0.369109,0 -0.2583764,0 0.1107327,0 0.036911,0 0.073822,0 0.1107327,0 0.036911,0 0.1107327,-0.036911 0.1107327,0 0,0.036911 -0.1107327,0.036911 -0.1107327,0 0,-0.036911 0.073822,0 0.1107327,0 0.049214,0 0.1476436,-0.049214 0.1476436,0 0,0.049214 -0.098429,0 -0.1476436,0 -0.024607,0 0.049214,0 0.073822,0 0.012304,0 0.031409,0.011005 0.036911,0 0.011005,-0.022009 -0.0174,-0.056422 0,-0.073822 0.0174,-0.0174 0.049214,0 0.073822,0 0.1194564,0 -0.1207267,-0.03127 0.036911,0.073822 0.020474,0.01365 0.049214,0 0.073822,0 0.012304,0 0.036911,-0.012304 0.036911,0 0,0.012304 -0.036911,0.012304 -0.036911,0 0,-0.027512 0.01402,-0.058561 0.036911,-0.073822 0.029721,-0.019814 0.1987702,0.022695 0.2214654,0 0.0261,-0.0261 -0.036911,-0.1107327 0,-0.1107327 0.036911,0 -0.020475,0.080021 0,0.1107327 0.01365,0.020475 0.049214,0 0.073822,0 0.012304,0 0.028211,0.0087 0.036911,0 0.0087,-0.0087 -0.012304,-0.036911 0,-0.036911 0.027512,0 0.047368,0.044469 0.073822,0.036911 0.068981,-0.019709 0.1173804,-0.085542 0.1845544,-0.1107327 0.03456,-0.01296 0.110733,-0.036911 0.110733,0 0,0.036911 -0.147644,0 -0.110733,0 0.07382,0 0.147644,0 0.221465,0 0.03691,0 0.07869,-0.018313 0.110733,0 0.06043,0.034531 0.07804,0.1476436 0.147644,0.1476436 0.04921,0 -0.04922,-0.1476436 0,-0.1476436 0.419964,0 0,0.253947 0,0.1476436 0,-0.044361 0.06637,-0.073822 0.110732,-0.073822 0.02461,0 0,0.098429 0,0.073822 0,-0.036911 -0.03691,-0.1107327 0,-0.1107327 0.03691,0 0.03691,0.1107327 0,0.1107327 -0.03691,0 -0.03691,-0.1107327 0,-0.1107327 0.03691,0 0.03691,0.1107327 0,0.1107327 -0.03691,0 -0.03691,-0.1107327 0,-0.1107327 0.04436,0 0.110733,0.086125 0.07382,0.1107327 -0.03691,0.024607 -0.1135,-0.1305717 -0.07382,-0.1107327 0.06225,0.031126 0.08539,0.1165176 0.147644,0.1476436 0.02201,0.011005 -0.02461,-0.073822 0,-0.073822 0.02461,0 0,0.049215 0,0.073822 0,-0.049214 -0.02953,-0.108272 0,-0.1476436 0.006,-0.1043998 0.112844,0.0348 0.147644,0 0.03137,-0.031368 0.0472,-0.075244 0.07382,-0.1107327 0.01044,-0.01392 0.01951,-0.036911 0.03691,-0.036911 0.0123,0 0.0087,0.028211 0,0.036911 -0.0087,0.0087 -0.02821,0.0087 -0.03691,0 -0.0087,-0.0087 -0.0123,-0.036911 0,-0.036911 0.0123,0 -0.0123,0.036911 0,0.036911 0.02751,0 0.06442,-0.073822 0.03691,-0.073822 -0.0174,0 -0.03691,0.019511 -0.03691,0.036911 0,0.052122 0.05764,-0.036911 0.110733,-0.036911 0.0123,0 -0.0123,0.036911 0,0.036911 0.0174,0 0.03691,-0.019511 0.03691,-0.036911 0,-0.012304 -0.03141,0.011005 -0.03691,0 -0.011,-0.022009 -0.02461,-0.073822 0,-0.073822 0.02461,0 -0.02047,0.060172 0,0.073822 0.177172,0.1181149 0.118115,-0.1181149 0,0 -0.0261,0.0261 0.03691,0.1107327 0,0.1107327 -0.221465,0 0.03691,-0.1517448 0.03691,-0.1107327 0,0.012304 -0.04921,0 -0.03691,0 0.07382,0 0.151432,0.023345 0.221466,0 0.02334,-0.00778 0,-0.049214 0,-0.073822 0,-0.012304 0,-0.049215 0,-0.036911 0,0.036911 -0.0261,0.084633 0,0.1107327 0.0261,0.0261 0.08463,0.0261 0.110732,0 0.0261,-0.0261 -0.03691,-0.1107327 0,-0.1107327 0.03691,0 -0.0261,0.084633 0,0.1107327 0.0261,0.0261 0.110733,-0.036911 0.110733,0 0,0.036911 -0.08859,0.029529 -0.110733,0 -0.02953,-0.039372 0,-0.098429 0,-0.1476436 0,-0.036911 -0.03502,-0.122405 0,-0.1107327 0.05836,0.019454 0.04922,0.1476436 0.110733,0.1476436 0.04921,0 0.02953,-0.108272 0,-0.1476436 -0.02215,-0.029529 -0.110733,0.036911 -0.110733,0 0,-0.036911 0.08463,0.0261 0.110733,0 0.0261,-0.0261 0.03502,-0.122405 0,-0.1107327 -0.05836,0.019454 -0.04922,0.1476436 -0.110733,0.1476436 -0.04921,0 -0.04921,-0.1476436 0,-0.1476436 0.04922,0 -0.04921,0.1476436 0,0.1476436 0.06152,0 0.110733,-0.086125 0.110733,-0.1476436 0,-0.036911 -0.08463,0.0261 -0.110733,0 -0.0261,-0.0261 -0.03502,-0.122405 0,-0.1107327 0.05836,0.019454 0.05237,0.1281898 0.110733,0.1476436 0.03502,0.011672 -0.02953,-0.088586 0,-0.1107327 0.03937,-0.029529 0.147644,0.049215 0.147644,0 0,-0.0696 -0.07804,-0.1476436 -0.147644,-0.1476436 -0.04922,0 -0.0348,0.1128437 0,0.1476436 0.0348,0.0348 0.147644,-0.049214 0.147644,0 0,0.049215 -0.147644,0.049215 -0.147644,0 0,-0.049214 0.147644,-0.049214 0.147644,0 0,0.049215 -0.108272,-0.029529 -0.147644,0 -0.02953,0.022147 0.03502,0.1224049 0,0.1107327 -0.419964,-0.139988 0,-0.1699542 0,-0.1476436 0,0.036911 -0.08463,-0.0261 -0.110733,0 -0.0261,0.0261 0.03691,0.1107327 0,0.1107327 -0.03691,0 0,-0.073822 0,-0.1107327 0,-0.036911 -0.03691,-0.1107327 0,-0.1107327 0.03691,0 0.0261,0.084633 0,0.1107327 -0.0261,0.0261 -0.110732,0.036911 -0.110732,0 0,-0.036911 0.07382,0 0.110732,0 -0.08612,0 -0.197476,0.0609 -0.258376,0 -0.0435,-0.0435 0.12819,-0.052371 0.147644,-0.1107327 0.01167,-0.035017 -0.110733,0.036911 -0.110733,0 0,-0.036911 0.147643,0 0.110733,0 -0.07382,0 -0.147644,0 -0.221466,0 -0.03691,0 0.147644,0 0.110733,0 -0.08613,0 -0.179215,0.033926 -0.258376,0 -0.03393,-0.01454 0.0261,-0.084633 0,-0.1107327 -0.0261,-0.0261 -0.110733,0.036911 -0.110733,0 0,-0.036911 0.07382,0 0.110733,0 0.04921,0 0.147643,-0.049215 0.147643,0 0,0.049214 -0.147643,0.049214 -0.147643,0 0,-0.049215 0.09843,0 0.147643,0 0.03691,0 0.07382,0 0.110733,0 0.03691,0 0.07382,0 0.110733,0 0.03691,0 0.110732,-0.036911 0.110732,0 0,0.036911 -0.110732,0.036911 -0.110732,0 0,-0.036911 0.08463,-0.0261 0.110732,0 0.09252,0.092523 -0.183734,0.2214654 0.147644,0.2214654 0.03691,0 -0.01167,-0.075716 0,-0.1107327 0.0039,-0.011672 0.02821,-0.0087 0.03691,0 0.03137,0.031368 0.04804,0.074634 0.07382,0.1107327 0.03576,0.050059 0.159947,0.1107327 0.110732,0.1476436 -0.04921,0.036911 -0.05237,-0.1281899 -0.110732,-0.1476436 -0.03502,-0.011672 0.03691,0.1107327 0,0.1107327 -0.03691,0 -0.03691,-0.1107327 0,-0.1107327 0.03691,0 0.03691,0.1107327 0,0.1107327 -0.04436,0 -0.110733,-0.086125 -0.07382,-0.1107327 0.03691,-0.024607 0.02946,0.1107327 0.07382,0.1107327 0.03691,0 0.02047,-0.080021 0,-0.1107327 -0.01365,-0.020474 -0.07382,0.024607 -0.07382,0 0,-0.024607 0.06017,-0.020474 0.07382,0 0.02047,0.030712 0,0.073822 0,0.1107327 0,0.036911 0,-0.1476436 0,-0.1107327 0,0.1476436 0,0.1476436 0,0 0,-0.012304 0,0.024607 0,0.036911 0,0.0862 -0.0088,0.1043172 0.03691,0.073822 0.02896,-0.019303 0.03902,-0.073822 0.07382,-0.073822 0.02461,0 -0.02047,0.060172 0,0.073822 0.166758,0.1111721 0.101652,-0.1113186 0.110733,-0.1476436 0.003,-0.011936 0.03691,-0.012304 0.03691,0 0,0.012304 -0.04792,0.0055 -0.03691,0 0.0348,-0.0174 0.138244,-0.064423 0.110733,-0.036911 -0.45776,0.2288799 -0.07382,0.0094 -0.07382,0.073822 0,0.098429 -0.172251,-0.073822 -0.07382,-0.073822 0.02461,0 -0.02047,0.060172 0,0.073822 0.03071,0.020474 0.07382,0 0.110733,0 0.03178,0 0.207025,0.00963 0.221465,0 0.02047,-0.01365 -0.02461,-0.073822 0,-0.073822 0.02461,0 -0.02461,0.073822 0,0.073822 0.295287,0 -0.09843,-0.1968581 0,0 0.01651,0.033014 0.07382,0 0.110733,0 0.03691,0 0.08002,0.020474 0.110733,0 0.02047,-0.01365 -0.02047,-0.060172 0,-0.073822 0.03071,-0.020474 0.07572,0.011672 0.110732,0 0.01167,-0.00389 -0.0123,-0.036911 0,-0.036911 0.02751,0 0.04772,0.028211 0.07382,0.036911 0.01167,0.00389 0.03691,-0.012304 0.03691,0 0,0.012304 -0.04922,0 -0.03691,0 0.03691,0 0.08238,0.02363 0.110733,0 0.05511,-0.045928 0.06,-0.1338253 0.110732,-0.1845545 0.0174,-0.0174 0,0.098429 0,0.073822 0,-0.036911 0,-0.073822 0,-0.1107327 0,-0.012304 -0.0087,0.028211 0,0.036911 0.0087,0.0087 0.03691,0.012304 0.03691,0 0,-0.0174 -0.03141,-0.020404 -0.03691,-0.036911 -0.0078,-0.023345 -0.02461,-0.073822 0,-0.073822 0.02461,0 -0.02461,0.073822 0,0.073822 0.333355,0 0.05183,-0.051828 0.110733,-0.1107327 0.0087,-0.0087 0.03691,-0.012304 0.03691,0 0,0.012304 -0.04792,0.0055 -0.03691,0 0.03691,-0.012304 0.07382,-0.024607 0.110733,-0.036911 0,0.012304 -0.01167,0.040802 0,0.036911 0.04209,-0.014028 0.06865,-0.059794 0.110733,-0.073822 0.03502,-0.011672 0.110732,-0.036911 0.110732,0 0,0.036911 -0.07382,0 -0.110732,0 -0.0123,0 0.02821,0.0087 0.03691,0 0.0087,-0.0087 0,-0.024607 0,-0.036911 0,-0.012304 0,-0.024607 0,-0.036911 0,-0.036911 -0.03691,-0.1107327 0,-0.1107327 0.03691,0 0,0.073822 0,0.1107327 0,0.024607 -0.02461,-0.073822 0,-0.073822 0.02461,0 0.02461,0.073822 0,0.073822 -0.02461,0 -0.02461,-0.073822 0,-0.073822 0.02461,0 0,0.098429 0,0.073822 0,-0.036911 -0.03691,-0.1107327 0,-0.1107327 0.06152,0 0.09262,0.083221 0.147644,0.1107327 0.011,0.0055 -0.0123,-0.036911 0,-0.036911 0.0174,0 0.02461,0.024607 0.03691,0.036911 0.06152,-0.036911 0.128533,-0.065916 0.184554,-0.1107327 0.0096,-0.00769 -0.01167,-0.03302 0,-0.036911 0.03502,-0.011672 0.08002,0.020475 0.110733,0 0.05216,-0.034775 -0.03783,-0.098122 0,-0.1107327 0.13534,-0.045113 0.110733,0.066986 0.110733,-0.073822 0,-0.012304 -0.01167,-0.03302 0,-0.036911 0.03502,-0.011672 0.110733,-0.036911 0.110733,0 0,0.0522 -0.05853,0.1107327 -0.110733,0.1107327 -0.03691,0 0,-0.073822 0,-0.1107327 0,-0.036911 -0.03691,-0.1107327 0,-0.1107327 0.03691,0 -0.01651,0.077719 0,0.1107327 0.0078,0.015563 0.0204,-0.031409 0.03691,-0.036911 0.02334,-0.00778 0.05642,0.0174 0.07382,0 0.0174,-0.0174 0,-0.049214 0,-0.073822 0,-0.036911 -0.01167,-0.075716 0,-0.1107327 0.0039,-0.011672 0.03691,-0.012304 0.03691,0 0,0.049215 -0.08613,-0.036911 -0.03691,-0.036911 0.0123,0 0,0.049214 0,0.036911 0,-0.036911 0,-0.1476436 0,-0.1107327 0,0.049214 -0.04922,0.1476436 0,0.1476436 0.05073,0 0.03691,-0.096914 0.03691,-0.1476436 0,-0.012304 -0.02821,0.0087 -0.03691,0 -0.0087,-0.0087 -0.0123,-0.036911 0,-0.036911 0.0123,0 -0.01167,0.03302 0,0.036911 0.03502,0.011672 0.09906,0.035017 0.110732,0 0.01403,-0.042085 -0.05979,-0.068648 -0.07382,-0.1107327 -0.0039,-0.011672 0.02821,0.0087 0.03691,0 0.0087,-0.0087 0.0039,-0.025239 0,-0.036911 -0.0087,-0.0261 -0.02821,-0.047722 -0.03691,-0.073822 -0.0039,-0.011672 -0.0123,-0.036911 0,-0.036911 0.0123,0 0,0.049215 0,0.036911 0,-0.036911 0,-0.073822 0,-0.1107327 0,-0.024607 0.02461,0.073822 0,0.073822 -0.02461,0 0,-0.049214 0,-0.073822 0,-0.012304 -0.0087,-0.028211 0,-0.036911 0.0087,-0.0087 0.02461,0 0.03691,0 0.02461,0 0.05642,0.0174 0.07382,0 0.0645,-0.064503 -0.07382,-0.1536143 -0.07382,0 0,0.024607 0.04922,0 0.07382,0 0.03691,0 0.07382,0 0.110733,0 0.03691,0 0.110733,-0.036911 0.110733,0 0,0.036911 -0.110733,0.036911 -0.110733,0 0,-0.036911 0.119685,0.035809 0.110733,0 -0.01688,-0.067522 -0.217244,-0.1476436 -0.147644,-0.1476436 0.09919,0 0.162998,0.1203926 0.258376,0.1476436 0.02366,0.00676 -0.02461,-0.073822 0,-0.073822 0.02461,0 -0.02047,0.060172 0,0.073822 0.249149,0.166099 0.03486,-0.073822 0.110733,-0.073822 0.04436,0 0.07382,0.098429 0.110733,0.073822 0.04095,-0.027299 -0.02201,-0.1036248 0,-0.1476436 0.011,-0.022009 0.04921,0 0.07382,0 0.0123,0 0.03691,-0.012304 0.03691,0 0,0.012304 -0.02461,0 -0.03691,0 -0.02461,0 -0.09843,0 -0.07382,0 0.317709,0 -0.09744,0.035426 0,-0.1107327 0.0273,-0.040949 0.147643,-0.049215 0.147643,0 0,0.049214 -0.147643,0.049214 -0.147643,0 0,-0.050729 0.101016,-0.016928 0.147643,-0.036911 0.04078,-0.017475 0.07105,-0.053983 0.110733,-0.073822 0.0348,-0.0174 0.08915,-0.00454 0.110733,-0.036911 0.01526,-0.022891 -0.03691,-0.04631 -0.03691,-0.073822 0,-0.0174 0.02461,-0.024607 0.03691,-0.036911 0.02461,-0.024607 0.04151,-0.060897 0.07382,-0.073822 0.03427,-0.013708 0.07572,0.011672 0.110733,0 0.01167,-0.00389 -0.01167,-0.040802 0,-0.036911 0.04209,0.014028 0.110733,0.02946 0.110733,0.073822 0,0.036911 -0.07382,0 -0.110733,0 -0.0123,0 0.03989,0.011936 0.03691,0 -0.01334,-0.053381 -0.05339,-0.096556 -0.07382,-0.1476436 -0.0046,-0.011424 -0.0123,-0.036911 0,-0.036911 0.0123,0 0.0123,0.036911 0,0.036911 -0.0123,0 0,-0.024607 0,-0.036911 0,-0.012304 -0.0123,-0.036911 0,-0.036911 0.0123,0 0,0.049214 0,0.036911 0,-0.049215 0,-0.098429 0,-0.1476436 0,-0.036911 0.03691,0.1107327 0,0.1107327 -0.03691,0 -0.03691,-0.1107327 0,-0.1107327 0.03691,0 0,0.1476436 0,0.1107327 0,-0.086125 -0.02366,-0.1755647 0,-0.2583763 0.0068,-0.023661 0.07382,-0.024607 0.07382,0 0,0.024607 -0.07382,0.024607 -0.07382,0 0,-0.027512 0.05856,-0.01402 0.07382,-0.036911 0.01365,-0.020475 -0.02047,-0.087472 0,-0.073822 0.05119,0.034124 0.05955,0.1135194 0.110733,0.1476436 0.03691,0.024607 -0.01846,-0.1045809 0,-0.1107327 0.03502,-0.011672 0.07382,0 0.110732,0 0.03691,0 0.110733,-0.036911 0.110733,0 0,0.036911 -0.09422,0.033014 -0.110733,0 -0.09843,-0.1968582 0.295288,0 0,0 -0.02461,0 0,-0.049215 0,-0.073822 0,-0.012304 -0.01024,-0.043736 0,-0.036911 0.04343,0.028955 0.147644,0.073822 0.110733,0.1107327 -0.09751,0.097514 -0.132565,-0.1710461 -0.110733,-0.2583763 0.01846,-0.073822 0.110733,0.1476436 0.110733,0 0,-0.044361 -0.03414,-0.090894 -0.07382,-0.1107327 -0.02201,-0.011005 0.02461,0.073822 0,0.073822 -0.02461,0 0,-0.049215 0,-0.073822 0,-0.012304 -0.0123,-0.036911 0,-0.036911 0.0123,0 0,0.049214 0,0.036911 0,-0.036911 0,-0.073822 0,-0.1107327 0,-0.024607 0,0.098429 0,0.073822 0,-0.098429 0,-0.1968582 0,-0.2952872 0,-0.012304 0.0123,0.036911 0,0.036911 -0.04921,0 0.03691,-0.086125 0.03691,-0.036911 0,0.012304 -0.03691,0.012304 -0.03691,0 0,-0.027512 0.02821,-0.047722 0.03691,-0.073822 0.0062,-0.018455 -0.0123,-0.1107327 0,-0.1107327 0.02461,0 -0.02461,0.073822 0,0.073822 0.0348,0 0.07382,-0.039022 0.07382,-0.073822 0,-0.024607 -0.05181,0.011005 -0.07382,0 -0.011,-0.0055 -0.01167,-0.03302 0,-0.036911 0.03502,-0.011672 0.07772,0.016507 0.110733,0 0.01556,-0.00778 -0.03141,-0.020404 -0.03691,-0.036911 -0.05229,-0.1568717 0.0015,-0.038449 0.03691,-0.073821 0.0087,-0.0087 -0.0123,-0.03691 0,-0.03691 0.0123,0 -0.0123,0.03691 0,0.03691 0.02751,0 0.06152,-0.06152 0.07382,-0.03691 0.09323,0.1864658 -0.153453,0 -0.07382,0 0.0123,0 0,0.04921 0,0.03691 0,-0.03691 -0.03691,-0.110733 0,-0.110733 0.03691,0 0,0.07382 0,0.110733 0,0.0123 -0.0123,-0.03691 0,-0.03691 0.0123,0 0.0123,0.03691 0,0.03691 -0.0123,0 0,-0.02461 0,-0.03691 0,-0.0123 -0.011,-0.03141 0,-0.03691 0.196858,-0.09843 0,0.09843 0,0 0,-0.02461 0.07382,0.02461 0.07382,0 0,-0.0348 -0.05452,-0.04487 -0.07382,-0.07382 -0.04183,-0.06275 0.07136,-0.03445 0.07382,-0.03691 0.0174,-0.0174 -0.011,-0.05181 0,-0.07382 0.0055,-0.011 0.03691,-0.0123 0.03691,0 0,0.02751 -0.0094,0.07382 -0.03691,0.07382 -0.02461,0 0,-0.04921 0,-0.07382 0,-0.0123 -0.01167,-0.03302 0,-0.03691 0.03502,-0.01167 0.147643,0 0.110732,0 -0.04921,0 -0.147643,0.04922 -0.147643,0 0,-0.04921 0.108272,0.02953 0.147643,0 0.02953,-0.02215 -0.01167,-0.07572 0,-0.110732 0.0078,-0.02334 0.06282,0.02201 0.07382,0 0.01101,-0.02201 0,-0.04922 0,-0.07382 0,-0.06199 -0.0087,-0.05572 0.07382,-0.110733 0.01024,-0.0068 0.02461,0 0.03691,0 0.02461,0 0.09843,0 0.07382,0 -0.03691,0 -0.110733,0.03691 -0.110733,0 0,-0.03691 0.07572,0.01167 0.110733,0 0.01167,-0.0039 -0.0123,-0.03691 0,-0.03691 0.04306,0 -0.07382,0.159948 -0.07382,0.03691 0,-0.02461 0.05181,0.01101 0.07382,0 0.02201,-0.011 -0.02334,-0.06604 0,-0.07382 0.03502,-0.01167 0.08002,0.02047 0.110732,0 0.02047,-0.01365 -0.02461,-0.07382 0,-0.07382 0.02461,0 0,0.09843 0,0.07382 0,-0.04921 0,-0.09843 0,-0.147643 0,-0.0123 -0.0087,-0.02821 0,-0.03691 0.03137,-0.03137 0.110733,-0.02946 0.110733,-0.07382 0,-0.03691 -0.08463,0.0261 -0.110733,0 -0.0261,-0.0261 -0.01167,-0.07572 0,-0.110733 0.0039,-0.01167 0.03691,0.0123 0.03691,0 0,-0.0174 -0.03691,-0.01951 -0.03691,-0.03691 0,-0.0123 0.03302,0.01167 0.03691,0 0.0083,-0.02497 0,-0.176778 0,-0.221465 0,-0.147644 0,-0.147644 0,0 0,0.03125 0,-0.215804 0,-0.184554 0,0.369109 0,-0.03999 0,-0.110733 0,-0.02461 0.02461,0.07382 0,0.07382 -0.04852,0 0.07382,-0.307354 0.07382,0.03691 0,0.02461 -0.06017,0.02047 -0.07382,0 -0.02047,-0.03071 0,-0.07382 0,-0.110733 0,-0.0123 -0.0123,-0.03691 0,-0.03691 0.0123,0 0,0.04921 0,0.03691 0,-0.03691 0,-0.07382 0,-0.110733 0,-0.02461 0.02461,0.07382 0,0.07382 -0.02461,0 0,-0.09843 0,-0.07382 0,0.03691 0.03691,0.110733 0,0.110733 -0.01731,0 -0.05423,-0.184555 -0.03691,-0.184555 0.02461,0 0.02201,0.08483 0,0.07382 -0.03968,-0.01984 -0.110732,-0.08613 -0.07382,-0.110733 0.300529,-0.200352 0,0.29465 0,0.110733 0,-0.02461 0.07382,-0.02461 0.07382,0 0,0.02461 -0.04921,0 -0.07382,0 -0.0123,0 -0.04922,0 -0.03691,0 0.03691,0 0.07382,0 0.110732,0 0.0123,0 -0.02461,0 -0.03691,0 -0.02461,0 -0.07382,0.02461 -0.07382,0 0,-0.04436 0.05979,-0.06865 0.07382,-0.110733 0.01167,-0.03502 -0.0261,-0.08463 0,-0.110732 0.0261,-0.0261 0.119685,0.03581 0.110732,0 -0.156343,-0.62537502 -0.147643,0.0049 -0.147643,-0.184555 0,-0.0123 0,-0.02461 0,-0.03691 0,-0.03691 -0.03691,-0.11073202 0,-0.11073202 0.03691,0 0.03691,0.11073202 0,0.11073202 -0.03691,0 -0.03691,-0.11073202 0,-0.11073202 0.03691,0 0,0.14764302 0,0.11073202 0,-0.08613 0,-0.17225102 0,-0.25837602 0,-0.04921 0.04921,0.147644 0,0.147644 -0.04922,0 -0.02953,-0.108272 0,-0.147644 0.02215,-0.02953 0.110732,0.03691 0.110732,0 0,-0.03891 -0.08322,-0.0094 -0.110732,-0.03691 -0.0174,-0.0174 0,-0.04921 0,-0.07382 0,-0.03691 0,-0.07382 0,-0.110732 0,-0.02461 0.02461,0.07382 0,0.07382 -0.04436,0 -0.110733,-0.02946 -0.110733,-0.07382 0,-0.03691 0.07382,0 0.110733,0"
     id="path892"
     inkscape:connector-curvature="0" />
</svg>
