<?xml version="1.0" encoding="UTF-8" standalone="no"?>
<svg
   xmlns:dc="http://purl.org/dc/elements/1.1/"
   xmlns:cc="http://creativecommons.org/ns#"
   xmlns:rdf="http://www.w3.org/1999/02/22-rdf-syntax-ns#"
   xmlns:svg="http://www.w3.org/2000/svg"
   xmlns="http://www.w3.org/2000/svg"
   xmlns:sodipodi="http://sodipodi.sourceforge.net/DTD/sodipodi-0.dtd"
   xmlns:inkscape="http://www.inkscape.org/namespaces/inkscape"
   version="1.0"
   width="88.532707"
   height="133.9915"
   id="svg2"
   sodipodi:docname="Mor_pillar.svg"
   inkscape:version="0.92.4 (5da689c313, 2019-01-14)">
  <metadata
     id="metadata6888">
    <rdf:RDF>
      <cc:Work
         rdf:about="">
        <dc:format>image/svg+xml</dc:format>
        <dc:type
           rdf:resource="http://purl.org/dc/dcmitype/StillImage" />
        <dc:title></dc:title>
      </cc:Work>
    </rdf:RDF>
  </metadata>
  <sodipodi:namedview
     pagecolor="#ffffff"
     bordercolor="#666666"
     borderopacity="1"
     objecttolerance="10"
     gridtolerance="10"
     guidetolerance="10"
     inkscape:pageopacity="0"
     inkscape:pageshadow="2"
     inkscape:window-width="4200"
     inkscape:window-height="2569"
     id="namedview6886"
     showgrid="false"
     inkscape:zoom="10.950166"
     inkscape:cx="57.894316"
     inkscape:cy="81.962209"
     inkscape:window-x="-16"
     inkscape:window-y="-16"
     inkscape:window-maximized="1"
     inkscape:current-layer="svg2" />
  <defs
     id="defs4" />
  <path
     style="fill:#000407;fill-opacity:1;fill-rule:evenodd;stroke:#000000;stroke-width:1.02520633;stroke-opacity:1"
     d="m 76.055814,15.371304 c -1.86458,5.857404 1.01962,-7.28034 -0.84496,-1.422936 -2.17708,-0.733544 -4.35417,-1.467088 -6.53125,-2.200632 l -30.46875,71.53697 c -9.92708,11.4192 -19.85417,22.838404 -29.7812495,34.257604 H 0.64835447 c -0.0417,1.98167 -0.0833,3.96333 -0.125,5.945 39.25523953,0.53397 46.62770953,0 79.49999953,0 v -5.945 h -7.78125 c -0.76568,-7.93171 -1.80544,-15.87846 -2.39984,-23.800764 5.5187,-25.33866 11.03739,-50.677317 16.55609,-76.015974 l -7.15625,-2.397704 c 1.86458,-5.846455 -1.86458,5.846455 0,0 z"
     id="path7437"
     inkscape:connector-curvature="0"
     sodipodi:nodetypes="ccccccccccccccc" />
  <path
     style="fill:none;fill-opacity:1;fill-rule:evenodd;stroke:#000000;stroke-opacity:1"
     d="m 88.032704,8 c 0,4.14 -3.36,7.5 -7.5,7.5 -4.14,0 -7.5,-3.36 -7.5,-7.5 0,-4.14 3.36,-7.5 7.5,-7.5 4.14,0 7.5,3.36 7.5,7.5 z"
     id="path7435"
     inkscape:connector-curvature="0" />
  <path
     style="fill:none;fill-opacity:1;fill-rule:evenodd;stroke:#000000;stroke-opacity:1"
     d="m 49.126754,125.9915 c 0,4.14 -3.36,7.5 -7.5,7.5 -4.14,0 -7.5,-3.36 -7.5,-7.5 0,-4.14 3.36,-7.5 7.5,-7.5 4.14,0 7.5,3.36 7.5,7.5 z"
     id="path7435-0"
     inkscape:connector-curvature="0" />
</svg>
