<?xml version="1.0" encoding="UTF-8" standalone="no"?>
<svg
   xmlns:dc="http://purl.org/dc/elements/1.1/"
   xmlns:cc="http://creativecommons.org/ns#"
   xmlns:rdf="http://www.w3.org/1999/02/22-rdf-syntax-ns#"
   xmlns:svg="http://www.w3.org/2000/svg"
   xmlns="http://www.w3.org/2000/svg"
   xmlns:sodipodi="http://sodipodi.sourceforge.net/DTD/sodipodi-0.dtd"
   xmlns:inkscape="http://www.inkscape.org/namespaces/inkscape"
   version="1.0"
   width="78.3125"
   height="84.287399"
   id="svg2"
   sodipodi:docname="Mor_sphere.svg"
   inkscape:version="0.92.4 (5da689c313, 2019-01-14)">
  <metadata
     id="metadata5743">
    <rdf:RDF>
      <cc:Work
         rdf:about="">
        <dc:format>image/svg+xml</dc:format>
        <dc:type
           rdf:resource="http://purl.org/dc/dcmitype/StillImage" />
        <dc:title></dc:title>
      </cc:Work>
    </rdf:RDF>
  </metadata>
  <sodipodi:namedview
     pagecolor="#ffffff"
     bordercolor="#666666"
     borderopacity="1"
     objecttolerance="10"
     gridtolerance="10"
     guidetolerance="10"
     inkscape:pageopacity="0"
     inkscape:pageshadow="2"
     inkscape:window-width="4200"
     inkscape:window-height="2569"
     id="namedview5741"
     showgrid="false"
     inkscape:zoom="14.0125"
     inkscape:cx="33.197034"
     inkscape:cy="7.1075212"
     inkscape:window-x="-16"
     inkscape:window-y="-16"
     inkscape:window-maximized="1"
     inkscape:current-layer="svg2" />
  <defs
     id="defs4" />
  <path
     d="M 38.5,22.31865 C 32.82787,22.36765 27.09412,23.84233 21.875,26.9124 7.21353,35.5368 1.53256,53.72463 8.0625,68.9749 H 0 v 5.65625 h 21.71875 c 1.28732,5.53295 6.23327,9.65624 12.15625,9.65625 5.92495,0 10.87095,-4.12052 12.15625,-9.65625 l 32.28125,0.0312 v -5.6562 l -8.59375,-0.0312 C 73.95774,59.20308 73.29481,48.21363 67.75,38.78745 61.90225,28.84627 51.67759,23.05939 40.9375,22.3812 40.13199,22.3303 39.3103,22.3117 38.5,22.3187 Z M 33.875,64.2874 c 4.14,0 7.5,3.36 7.5,7.5 0,4.14 -3.36,7.5 -7.5,7.5 -4.14,0 -7.5,-3.36 -7.5,-7.5 0,-4.14 3.36,-7.5 7.5,-7.5 z"
     id="path4347"
     style="fill:#000407;fill-opacity:1;fill-rule:evenodd;stroke:none"
     inkscape:connector-curvature="0" />
  <ellipse
     style="fill:none;fill-opacity:1;stroke:#000202;stroke-width:3.2692914;stroke-miterlimit:4;stroke-dasharray:none;stroke-dashoffset:0;stroke-opacity:1"
     id="path5157"
     cx="43.580627"
     cy="11.595581"
     rx="12.110183"
     ry="9.9609356" />
</svg>
