<?xml version="1.0" encoding="UTF-8" standalone="no"?>
<svg
   xmlns:dc="http://purl.org/dc/elements/1.1/"
   xmlns:cc="http://creativecommons.org/ns#"
   xmlns:rdf="http://www.w3.org/1999/02/22-rdf-syntax-ns#"
   xmlns:svg="http://www.w3.org/2000/svg"
   xmlns="http://www.w3.org/2000/svg"
   xmlns:sodipodi="http://sodipodi.sourceforge.net/DTD/sodipodi-0.dtd"
   xmlns:inkscape="http://www.inkscape.org/namespaces/inkscape"
   version="1.0"
   width="320"
   height="320"
   id="svg2"
   sodipodi:docname="morfac.svg"
   inkscape:version="0.92.4 (5da689c313, 2019-01-14)">
  <metadata
     id="metadata844">
    <rdf:RDF>
      <cc:Work
         rdf:about="">
        <dc:format>image/svg+xml</dc:format>
        <dc:type
           rdf:resource="http://purl.org/dc/dcmitype/StillImage" />
        <dc:title></dc:title>
      </cc:Work>
    </rdf:RDF>
  </metadata>
  <sodipodi:namedview
     pagecolor="#ffffff"
     bordercolor="#666666"
     borderopacity="1"
     objecttolerance="10"
     gridtolerance="10"
     guidetolerance="10"
     inkscape:pageopacity="0"
     inkscape:pageshadow="2"
     inkscape:window-width="4200"
     inkscape:window-height="2569"
     id="namedview842"
     showgrid="false"
     inkscape:zoom="17.405"
     inkscape:cx="164.74576"
     inkscape:cy="156.61017"
     inkscape:window-x="-16"
     inkscape:window-y="-16"
     inkscape:window-maximized="1"
     inkscape:current-layer="svg2" />
  <defs
     id="defs4" />
  <path
     d="M 181.34375,151.4375 L 166.125,197.1875 L 158.15625,197.1875 L 158.15625,202.84375 L 187.84375,202.84375 C 189.13107,208.3767 194.07702,212.49999 200,212.5 C 205.92495,212.5 210.87095,208.37948 212.15625,202.84375 L 242,202.84375 L 242,202.78125 L 242,197.1875 L 234.3125,197.1875 L 243.3125,171 L 181.34375,151.4375 z M 186.375,160.0625 L 233.53125,176.03125 L 226.3125,197.1875 L 212.15625,197.1875 C 210.87095,191.65177 205.92495,187.53125 200,187.53125 C 194.07702,187.53126 189.13107,191.65455 187.84375,197.1875 L 174.125,197.1875 L 186.375,160.0625 z M 200,192.5 C 204.14,192.5 207.5,195.86 207.5,200 C 207.5,204.14 204.14,207.5 200,207.5 C 195.86,207.5 192.5,204.14 192.5,200 C 192.5,195.86 195.86,192.5 200,192.5 z"
     id="path90440"
     style="fill:#000407;fill-opacity:1;fill-rule:evenodd;stroke:none"
     transform="translate(-40,-40)" />
  <ellipse
     style="fill:none;fill-opacity:0.9586777;stroke:#3a314a;stroke-width:2.26960897;stroke-miterlimit:4;stroke-dasharray:none;stroke-opacity:1"
     id="path1389"
     cx="174.66246"
     cy="116.38035"
     rx="5.7255802"
     ry="5.0361233" />
</svg>
