<?xml version="1.0" encoding="UTF-8" standalone="no"?>
<svg
   xmlns:dc="http://purl.org/dc/elements/1.1/"
   xmlns:cc="http://creativecommons.org/ns#"
   xmlns:rdf="http://www.w3.org/1999/02/22-rdf-syntax-ns#"
   xmlns:svg="http://www.w3.org/2000/svg"
   xmlns="http://www.w3.org/2000/svg"
   xmlns:sodipodi="http://sodipodi.sourceforge.net/DTD/sodipodi-0.dtd"
   xmlns:inkscape="http://www.inkscape.org/namespaces/inkscape"
   version="1.1"
   x="0px"
   y="0px"
   viewBox="0 0 91.931 46.963001"
   enable-background="new 0 0 100 100"
   xml:space="preserve"
   id="svg10740"
   sodipodi:docname="noun-storage-tank-1511795.svg"
   width="91.931"
   height="46.963001"
   inkscape:version="0.92.4 (5da689c313, 2019-01-14)"><metadata
     id="metadata10746"><rdf:RDF><cc:Work
         rdf:about=""><dc:format>image/svg+xml</dc:format><dc:type
           rdf:resource="http://purl.org/dc/dcmitype/StillImage" /></cc:Work></rdf:RDF></metadata><defs
     id="defs10744" /><sodipodi:namedview
     pagecolor="#ffffff"
     bordercolor="#666666"
     borderopacity="1"
     objecttolerance="10"
     gridtolerance="10"
     guidetolerance="10"
     inkscape:pageopacity="0"
     inkscape:pageshadow="2"
     inkscape:window-width="4200"
     inkscape:window-height="2569"
     id="namedview10742"
     showgrid="false"
     inkscape:zoom="12.711399"
     inkscape:cx="46.812458"
     inkscape:cy="5.4205593"
     inkscape:window-x="-16"
     inkscape:window-y="-16"
     inkscape:window-maximized="1"
     inkscape:current-layer="svg10740" /><g
     id="g10734"
     transform="translate(-4.035,-26.519)"><polygon
       points="84.965,47.793 81.598,48.387 81.598,51.611 84.965,51.018 "
       id="polygon10700" /><polygon
       points="84.965,42.685 81.598,43.279 81.598,46.387 84.965,45.792 "
       id="polygon10702" /><polygon
       points="84.965,53.018 81.598,53.612 81.598,56.722 84.965,56.129 "
       id="polygon10704" /><polygon
       points="84.965,58.129 81.598,58.723 81.598,61.87 84.965,61.276 "
       id="polygon10706" /><polygon
       points="50.343,45.41 44.471,46.446 44.471,52.123 50.343,51.088 "
       id="polygon10708" /><polygon
       points="50.343,37.904 44.471,38.939 44.471,44.444 50.343,43.41 "
       id="polygon10710" /><polygon
       points="50.343,53.089 44.471,54.125 44.471,59.634 50.343,58.599 "
       id="polygon10712" /><polygon
       points="50.343,60.6 44.471,61.635 44.471,67.199 50.343,66.164 "
       id="polygon10714" /><path
       d="m 6.165,31.514 c 0.82,-0.597 3.514,-1.283 7.744,-1.85 v 2.275 c 0.657,-0.085 1.314,-0.176 1.971,-0.252 v -2.266 c 3.028,-0.341 6.679,-0.62 10.891,-0.78 v 2.165 c 0.657,-0.031 1.314,-0.052 1.971,-0.074 v -2.157 c 1.922,-0.053 3.944,-0.084 6.068,-0.084 1.674,0 3.272,0.022 4.823,0.056 v 2.173 c 0.656,0.022 1.313,0.044 1.97,0.074 V 28.6 c 4.154,0.132 7.816,0.375 10.891,0.687 v 2.341 c 0.656,0.071 1.314,0.145 1.971,0.224 v -2.347 c 4.961,0.595 8.09,1.357 8.99,2.011 -0.338,0.225 -1.199,0.644 -3.273,1.113 1.371,0.209 2.74,0.431 4.111,0.672 1.055,-0.601 1.291,-1.207 1.291,-1.771 0,-1.25 -1.139,-2.682 -9.578,-3.823 -5.668,-0.766 -13.197,-1.188 -21.196,-1.188 -8,0 -15.528,0.422 -21.196,1.188 -8.441,1.141 -9.579,2.573 -9.579,3.823 0,0.559 0.227,1.16 1.266,1.758 C 6.637,33.04 7.973,32.812 9.309,32.599 7.327,32.14 6.496,31.734 6.165,31.514 Z"
       id="path10716"
       inkscape:connector-curvature="0" /><path
       d="m 44.471,73.145 c 2.074,-0.146 4.038,-0.34 5.872,-0.572 V 68.166 L 44.471,69.2 Z"
       id="path10718"
       inkscape:connector-curvature="0" /><path
       d="m 44.471,36.938 5.872,-1.036 v -2.609 c -1.958,-0.19 -3.915,-0.347 -5.872,-0.468 z"
       id="path10720"
       inkscape:connector-curvature="0" /><path
       d="m 41.603,32.667 c -0.657,-0.03 -1.314,-0.05 -1.97,-0.071 v 0.002 c -1.622,-0.054 -3.243,-0.094 -4.863,-0.099 -2.01,-0.005 -4.019,0.035 -6.028,0.106 v 0 c -0.007,0 -0.014,0.001 -0.021,0.001 -6.567,0.231 -13.137,0.865 -19.708,1.938 -0.005,0.001 -0.01,0.001 -0.013,0.002 0,0 0,0 10e-4,0 -1.054,0.172 -2.108,0.35 -3.162,0.545 0.002,4.131 0.025,7.462 0.048,10.75 0.051,7.392 0.101,14.595 -0.053,22.35 0.057,1.23 3.122,2.475 8.046,3.498 5.339,1.111 12.724,1.793 20.889,1.793 2.681,0 5.264,-0.079 7.731,-0.214 V 32.71 C 42.201,32.694 41.902,32.689 41.603,32.675 Z M 14.862,68.533 C 12.54,68.294 10.44,68.005 8.623,67.674 V 37.835 c 2.08,-0.222 4.159,-0.412 6.239,-0.57 z m 5.511,0.446 C 19.857,68.948 19.348,68.914 18.847,68.878 V 37.001 c 0.509,-0.028 1.017,-0.056 1.526,-0.08 z"
       id="path10722"
       inkscape:connector-curvature="0" /><path
       d="m 79.627,38.758 c -1.648,-0.079 -3.297,-0.122 -4.943,-0.126 -1.264,-0.004 -2.525,0.029 -3.789,0.071 v -0.009 c -0.131,0.004 -0.264,0.012 -0.395,0.016 -0.258,0.01 -0.514,0.021 -0.77,0.032 -0.27,0.011 -0.537,0.019 -0.807,0.032 v 0.017 c -1.115,0.057 -2.229,0.113 -3.344,0.204 l -0.002,27.07 c 2.734,0.289 5.822,0.454 9.104,0.454 1.711,0 3.361,-0.048 4.945,-0.13 V 38.874 h 0.02 v -0.115 c -0.005,0 -0.011,0 -0.019,-10e-4 z"
       id="path10724"
       inkscape:connector-curvature="0" /><path
       d="m 81.598,66.267 c 1.18,-0.088 2.305,-0.196 3.367,-0.326 v -2.663 l -3.367,0.595 z"
       id="path10726"
       inkscape:connector-curvature="0" /><path
       d="m 81.598,41.277 3.367,-0.594 V 39.14 c -1.123,-0.107 -2.244,-0.196 -3.367,-0.27 z"
       id="path10728"
       inkscape:connector-curvature="0" /><path
       d="M 64.643,41.653 V 36.58 c 1.307,-0.102 2.738,-0.187 4.281,-0.248 v 1.164 c 0.658,-0.032 1.314,-0.058 1.971,-0.078 v -1.15 c 1.215,-0.031 2.482,-0.049 3.814,-0.049 1.027,0 2.01,0.012 2.969,0.03 v 1.16 c 0.656,0.019 1.313,0.042 1.969,0.073 V 36.3 c 2.57,0.086 4.84,0.236 6.781,0.425 v 1.279 c 0.658,0.07 1.314,0.145 1.973,0.225 V 36.94 c 2.453,0.308 4.191,0.672 5.086,1.018 -0.443,0.17 -1.189,0.394 -2.42,0.628 1.352,0.196 2.703,0.408 4.053,0.649 l 0.127,0.022 c 0.543,-0.395 0.719,-0.82 0.719,-1.286 0,-1.197 -1.154,-2.151 -6.791,-2.913 -3.869,-0.522 -9.008,-0.812 -14.465,-0.812 -3.586,0 -7.025,0.126 -10.066,0.361 V 34.31 c -4.109,-0.733 -8.221,-1.316 -12.33,-1.759 v 40.702 c 7.414,-1.108 12.262,-2.91 12.33,-4.99 v -4.824"
       id="path10730"
       inkscape:connector-curvature="0" /><path
       d="M 93,40.177 C 92.687,40.126 92.375,40.084 92.062,40.035 91.427,39.937 90.794,39.837 90.16,39.75 90.066,39.737 89.974,39.721 89.883,39.708 v 0.006 C 88.901,39.58 87.918,39.449 86.936,39.34 v 26.327 c 0.695,-0.11 1.369,-0.226 1.988,-0.354 3.344,-0.689 5.422,-1.528 5.449,-2.364 V 40.402 C 93.908,40.321 93.445,40.256 92.98,40.181 92.986,40.18 92.992,40.179 93,40.177 Z"
       id="path10732"
       inkscape:connector-curvature="0" /></g></svg>