<?xml version="1.0" encoding="UTF-8" standalone="no"?>
<svg
   xmlns:dc="http://purl.org/dc/elements/1.1/"
   xmlns:cc="http://creativecommons.org/ns#"
   xmlns:rdf="http://www.w3.org/1999/02/22-rdf-syntax-ns#"
   xmlns:svg="http://www.w3.org/2000/svg"
   xmlns="http://www.w3.org/2000/svg"
   xmlns:sodipodi="http://sodipodi.sourceforge.net/DTD/sodipodi-0.dtd"
   xmlns:inkscape="http://www.inkscape.org/namespaces/inkscape"
   version="1.1"
   x="0px"
   y="0px"
   viewBox="0 0 90 80"
   enable-background="new 0 0 100 90"
   xml:space="preserve"
   id="svg11311"
   sodipodi:docname="noun-wind-farm-31182.svg"
   width="90"
   height="80"
   inkscape:version="0.92.4 (5da689c313, 2019-01-14)"><metadata
     id="metadata11317"><rdf:RDF><cc:Work
         rdf:about=""><dc:format>image/svg+xml</dc:format><dc:type
           rdf:resource="http://purl.org/dc/dcmitype/StillImage" /></cc:Work></rdf:RDF></metadata><defs
     id="defs11315" /><sodipodi:namedview
     pagecolor="#ffffff"
     bordercolor="#666666"
     borderopacity="1"
     objecttolerance="10"
     gridtolerance="10"
     guidetolerance="10"
     inkscape:pageopacity="0"
     inkscape:pageshadow="2"
     inkscape:window-width="4200"
     inkscape:window-height="2569"
     id="namedview11313"
     showgrid="false"
     inkscape:zoom="14.93085"
     inkscape:cx="50.058263"
     inkscape:cy="13.257415"
     inkscape:window-x="-16"
     inkscape:window-y="-16"
     inkscape:window-maximized="1"
     inkscape:current-layer="svg11311" /><path
     d="m 70.757,70.379 h 0.016 V 46.298 l 7.203,10.829 9.829,11.897 H 90 L 80.067,53.131 71.028,41.053 75.93,31.29 81.025,10.817 78.062,13.918 66.871,41.366 h -7.353 l -6.899,1.912 V 38.94 l 0.205,-0.092 -0.205,-0.069 V 21.542 l 4.106,2.344 10.486,2.665 L 65.549,24.784 51.416,18.436 51.245,13.821 47.579,0 l -0.468,1.865 1.639,12.66 1.303,5.486 -0.854,0.848 -5.479,4.966 -5.754,6.493 0.065,1.368 7.758,-6.625 4.216,-4.288 v 15.44 l -17.729,3.119 -2.729,-4.593 -6.544,-6.697 3.709,-5.089 -1.449,0.581 -3.305,3.429 -3.731,-3.815 0.576,2.206 2.025,2.76 -2.963,3.067 -2.984,3.753 L 13.943,36.69 7.973,34.743 0.875,33.3 0,34.039 l 8.208,2.992 6.542,1.673 v 31.676 0 L 14.763,75 H 0 v 5 h 14.775 1.086 16.099 2.35 15.717 2.602 14.076 4.044 H 90 V 75 H 70.753 Z m -36.446,-26.057 6.318,-0.465 9.337,-3.36 0.038,3.644 -12.736,3.915 2.88,0.97 9.856,-1.039 V 75 H 34.311 V 70.379 Z M 15.866,75 15.87,70.379 h 0.011 V 44.771 l 3.348,9.367 0.319,-2.219 -2.921,-14.634 2.921,-2.445 2.367,-3.271 5.521,7.582 4.285,4.735 -0.405,1.455 -2.834,8.768 -2.324,10.553 0.83,1.356 4.265,-12.052 0.709,-2.649 V 69.185 75 Z M 52.627,75 52.619,47.707 60.44,46.751 66.795,45.304 66.718,75 Z"
     id="path11305"
     inkscape:connector-curvature="0" /></svg>