<svg xmlns:dc="http://purl.org/dc/elements/1.1/" xmlns:cc="http://creativecommons.org/ns#" xmlns:rdf="http://www.w3.org/1999/02/22-rdf-syntax-ns#" xmlns:svg="http://www.w3.org/2000/svg" xmlns="http://www.w3.org/2000/svg" xmlns:sodipodi="http://sodipodi.sourceforge.net/DTD/sodipodi-0.dtd" xmlns:inkscape="http://www.inkscape.org/namespaces/inkscape" viewBox="0 0 26.458333 33.0729175" version="1.1" x="0px" y="0px"><g transform="translate(0,-270.54165)"><path style="color:#000000;font-style:normal;font-variant:normal;font-weight:normal;font-stretch:normal;font-size:medium;line-height:normal;font-family:sans-serif;font-variant-ligatures:normal;font-variant-position:normal;font-variant-caps:normal;font-variant-numeric:normal;font-variant-alternates:normal;font-feature-settings:normal;text-indent:0;text-align:start;text-decoration:none;text-decoration-line:none;text-decoration-style:solid;text-decoration-color:#000000;letter-spacing:normal;word-spacing:normal;text-transform:none;writing-mode:lr-tb;direction:ltr;text-orientation:mixed;dominant-baseline:auto;baseline-shift:baseline;text-anchor:start;white-space:normal;shape-padding:0;clip-rule:nonzero;display:inline;overflow:visible;visibility:visible;opacity:1;isolation:auto;mix-blend-mode:normal;color-interpolation:sRGB;color-interpolation-filters:linearRGB;solid-color:#000000;solid-opacity:1;vector-effect:none;fill:#000000;fill-opacity:1;fill-rule:nonzero;stroke:none;stroke-width:0.84931225;stroke-linecap:round;stroke-linejoin:round;stroke-miterlimit:4;stroke-dasharray:none;stroke-dashoffset:0;stroke-opacity:1;paint-order:fill markers stroke;color-rendering:auto;image-rendering:auto;shape-rendering:auto;text-rendering:auto;enable-background:accumulate" d="m 6.2574473,274.34225 a 0.42469871,0.42469871 0 0 0 -0.072337,0.008 H 4.5934828 a 0.4246986,0.4246986 0 0 0 -0.043418,0 0.4246986,0.4246986 0 0 0 0.043418,0.84749 h 1.2458964 v 14.01 C 4.5048738,289.11062 4.087573,288.27009 4.087573,288.27009 a 0.42469858,0.42469858 0 0 0 -0.3849952,-0.22273 0.42469858,0.42469858 0 0 0 -0.3570817,0.63872 c 0,0 0.8292571,1.3808 2.7476185,1.3808 0.063182,0 0.1232958,-0.003 0.1834621,-0.005 1.2496535,-0.05 1.8600737,-0.6016 2.1957241,-0.98496 0.3518429,0.40181 1.0032471,0.99013 2.3786832,0.99013 1.375992,0 2.027582,-0.58841 2.37916,-0.99013 0.352161,0.40194 1.001951,0.99013 2.37662,0.99013 1.374643,0 2.024962,-0.58819 2.377096,-0.99013 0.351578,0.40171 1.003194,0.99013 2.379186,0.99013 1.918362,0 2.749709,-1.3808 2.749709,-1.3808 a 0.42541459,0.42541459 0 1 0 -0.742077,-0.41599 c 0,0 -0.419153,0.84053 -1.753896,0.93741 v -14.01 h 1.247986 a 0.4246986,0.4246986 0 1 0 0,-0.84749 h -1.591627 a 0.42469871,0.42469871 0 0 0 -0.08631,-0.008 0.42469871,0.42469871 0 0 0 -0.0744,0.008 H 17.78079 a 0.42469863,0.42469863 0 0 0 -0.0858,-0.008 0.42469863,0.42469863 0 0 0 -0.0744,0.008 h -6.583574 a 0.42469863,0.42469863 0 0 0 -0.08837,-0.008 0.42469863,0.42469863 0 0 0 -0.07234,0.008 H 8.9410102 a 0.42469863,0.42469863 0 0 0 -0.085778,-0.008 0.42469863,0.42469863 0 0 0 -0.074427,0.008 H 6.3453154 a 0.42469871,0.42469871 0 0 0 -0.087868,-0.008 z m 0.431509,0.85525 h 1.7461441 v 3.74809 a 0.42479999,0.42479999 0 0 0 0.8495506,0 v -3.74809 h 1.245923 v 6.45904 a 0.42504,0.42504 0 1 0 0.85008,0 v -6.45904 h 1.423696 a 0.42469863,0.42469863 0 0 0 0,0.0119 v 4.17184 a 0.42480499,0.42480499 0 1 0 0.849551,0 v -4.17184 a 0.42469863,0.42469863 0 0 0 -5.29e-4,-0.0119 h 1.244891 a 0.42469863,0.42469863 0 0 0 -5.03e-4,0.0119 v 6.88486 a 0.42504,0.42504 0 1 0 0.85008,0 v -6.88486 a 0.42469863,0.42469863 0 0 0 -5.29e-4,-0.0119 h 1.527571 v 3.74809 a 0.42480499,0.42480499 0 1 0 0.849551,0 v -3.74809 h 1.642798 v 13.96504 c -1.064525,-0.19956 -1.412319,-0.89245 -1.412319,-0.89245 a 0.42469858,0.42469858 0 0 0 -0.740014,0 c 0,0 -0.471064,0.94722 -2.008134,0.94722 -1.537097,0 -2.007632,-0.94722 -2.007632,-0.94722 a 0.42469858,0.42469858 0 0 0 -0.740013,0 c 0,0 -0.471064,0.94722 -2.008135,0.94722 -1.5370965,0 -2.0076315,-0.94722 -2.0076315,-0.94722 a 0.42469858,0.42469858 0 0 0 -0.7420769,0 c 0,0 -0.3479271,0.69286 -1.4123193,0.89245 z m 2.166276,5.28546 a 0.4246986,0.4246986 0 0 0 -0.4201319,0.42944 v 2.80499 a 0.42479999,0.42479999 0 0 0 0.8495506,0 v -2.80499 a 0.4246986,0.4246986 0 0 0 -0.4294187,-0.42944 z m 8.8397557,0 a 0.4246986,0.4246986 0 0 0 -0.420106,0.42944 v 1.68155 a 0.42480499,0.42480499 0 1 0 0.849551,0 v -1.68155 a 0.4246986,0.4246986 0 0 0 -0.429445,-0.42944 z m -4.472596,0.43564 a 0.4246986,0.4246986 0 0 0 -0.418042,0.42943 v 5.05085 a 0.42480499,0.42480499 0 1 0 0.849551,0 v -5.05085 a 0.4246986,0.4246986 0 0 0 -0.431509,-0.42943 z m -2.27375,2.12648 a 0.42469863,0.42469863 0 0 0 -0.418068,0.42995 v 4.06435 a 0.42504,0.42504 0 1 0 0.85008,0 v -4.06435 a 0.42469863,0.42469863 0 0 0 -0.432012,-0.42995 z m 4.36925,0.76378 a 0.42469863,0.42469863 0 0 0 -0.420132,0.42995 v 3.7362 a 0.42504,0.42504 0 1 0 0.85008,0 v -3.7362 a 0.42469863,0.42469863 0 0 0 -0.429948,-0.42995 z m -11.6153142,7.37319 a 0.42469858,0.42469858 0 0 0 -0.3570817,0.63666 c 0,0 0.8292571,1.38079 2.7476185,1.38079 1.3762302,0 2.0277137,-0.58844 2.3791862,-0.99012 0.351499,0.40168 1.0024534,0.99012 2.3786832,0.99012 1.376813,0 2.027926,-0.58853 2.37916,-0.99012 0.351817,0.4018 1.001157,0.99012 2.37662,0.99012 1.375463,0 2.025306,-0.58832 2.377096,-0.99012 0.351261,0.40159 1.002374,0.99012 2.379186,0.99012 1.918362,0 2.749709,-1.38079 2.749709,-1.38079 a 0.42494115,0.42494115 0 1 0 -0.742077,-0.41393 c 0,0 -0.470535,0.94516 -2.007632,0.94516 -1.53707,0 -2.008134,-0.94516 -2.008134,-0.94516 a 0.42469858,0.42469858 0 0 0 -0.740014,0 c 0,0 -0.471064,0.94516 -2.008134,0.94516 -1.537097,0 -2.007632,-0.94516 -2.007632,-0.94516 a 0.42469858,0.42469858 0 0 0 -0.740013,0 c 0,0 -0.471064,0.94516 -2.008135,0.94516 -1.5370965,0 -2.0076315,-0.94516 -2.0076315,-0.94516 a 0.42469858,0.42469858 0 0 0 -0.7420769,0 c 0,0 -0.4710641,0.94516 -2.008161,0.94516 -1.5370704,0 -2.0055416,-0.94516 -2.0055416,-0.94516 a 0.42469858,0.42469858 0 0 0 -0.3849952,-0.22273 z"/></g><text x="0" y="41.458334" fill="#000000" font-size="5px" font-weight="bold" font-family="'Helvetica Neue', Helvetica, Arial-Unicode, Arial, Sans-serif">Created by Bintang Anandhiya</text><text x="0" y="46.458334" fill="#000000" font-size="5px" font-weight="bold" font-family="'Helvetica Neue', Helvetica, Arial-Unicode, Arial, Sans-serif">from the Noun Project</text></svg>