<?xml version="1.0" encoding="UTF-8" standalone="no"?>
<!-- Created with Inkscape (http://www.inkscape.org/) -->

<svg
   xmlns:dc="http://purl.org/dc/elements/1.1/"
   xmlns:cc="http://creativecommons.org/ns#"
   xmlns:rdf="http://www.w3.org/1999/02/22-rdf-syntax-ns#"
   xmlns:svg="http://www.w3.org/2000/svg"
   xmlns="http://www.w3.org/2000/svg"
   xmlns:sodipodi="http://sodipodi.sourceforge.net/DTD/sodipodi-0.dtd"
   xmlns:inkscape="http://www.inkscape.org/namespaces/inkscape"
   width="144.72704mm"
   height="139.7mm"
   viewBox="0 0 144.72703 139.7"
   version="1.1"
   id="svg8"
   inkscape:version="0.92.4 (5da689c313, 2019-01-14)"
   sodipodi:docname="oilplatform.svg">
  <defs
     id="defs2" />
  <sodipodi:namedview
     id="base"
     pagecolor="#ffffff"
     bordercolor="#666666"
     borderopacity="1.0"
     inkscape:pageopacity="0.0"
     inkscape:pageshadow="2"
     inkscape:zoom="3.7545455"
     inkscape:cx="256.21916"
     inkscape:cy="258.32114"
     inkscape:document-units="mm"
     inkscape:current-layer="layer1"
     showgrid="false"
     inkscape:window-width="4200"
     inkscape:window-height="2569"
     inkscape:window-x="-16"
     inkscape:window-y="-16"
     inkscape:window-maximized="1" />
  <metadata
     id="metadata5">
    <rdf:RDF>
      <cc:Work
         rdf:about="">
        <dc:format>image/svg+xml</dc:format>
        <dc:type
           rdf:resource="http://purl.org/dc/dcmitype/StillImage" />
        <dc:title></dc:title>
      </cc:Work>
    </rdf:RDF>
  </metadata>
  <g
     inkscape:label="Calque 1"
     inkscape:groupmode="layer"
     id="layer1"
     transform="translate(558.40441,420.48281)">
    <path
       style="fill:#95979e;fill-opacity:1;stroke-width:0.26458332"
       d="m -549.0482,-281.85079 c -2.22437,-1.84697 -5.01749,-2.90129 -7.68619,-2.90129 h -0.90443 l 0.0806,-1.25677 0.0806,-1.25677 1.85208,0.007 c 2.28948,0.008 4.4353,0.67557 6.53559,2.03305 l 1.58229,1.02268 1.36502,-0.89823 c 2.50898,-1.65101 4.18123,-2.13254 7.45044,-2.14537 3.30326,-0.013 4.9969,0.46217 7.44766,2.08938 l 1.38295,0.91823 1.85917,-1.11626 1.85917,-1.11625 0.009,-15.0151 0.009,-15.0151 h -2.11666 -2.11667 v -5.00857 -5.00857 l -5.21806,-7.55914 -5.21806,-7.55913 h -8.80486 -8.80485 v -2.24896 -2.24896 h 19.94495 19.94496 l 0.16487,-1.91823 c 0.23568,-2.7422 1.90874,-21.77799 2.66842,-30.36093 0.35421,-4.00183 1.01066,-11.44323 1.45877,-16.53646 0.44812,-5.09323 1.08219,-12.29651 1.40904,-16.00729 l 0.59427,-6.74688 2.96882,-0.0748 2.96881,-0.0748 v -1.31425 -1.31425 h 3.175 3.175 v 1.32291 1.32292 h 2.89259 c 3.34911,0 3.06365,-0.28403 3.32399,3.30729 0.0949,1.30969 0.57821,6.96516 1.07394,12.56771 3.96653,44.82838 3.99738,45.15517 4.17122,44.18542 0.0913,-0.50933 0.83312,-7.45688 1.64848,-15.439 l 1.48246,-14.51296 -0.54946,-0.38486 c -0.75905,-0.53166 -0.70395,-1.56434 0.11199,-2.09897 0.65299,-0.42786 0.66146,-0.48046 0.66146,-4.10714 v -3.67374 h 5.15938 5.15937 v 3.68634 c 0,3.42171 0.037,3.69808 0.51564,3.84999 0.96619,0.30666 1.13965,1.8118 0.29016,2.51784 -0.45852,0.38108 -0.42393,0.93167 0.86951,13.8407 1.31149,13.08907 1.36127,13.44 1.88639,13.29892 0.29664,-0.0797 1.84903,-0.15158 3.44976,-0.15975 l 2.91042,-0.0148 5.56851,-4.55283 c 3.06269,-2.50405 10.08738,-8.23322 15.61042,-12.73149 5.52305,-4.49826 10.60235,-8.69522 11.28734,-9.32656 1.50988,-1.39164 2.5345,-1.52163 3.5297,-0.44781 0.84818,0.91521 0.84327,2.03993 -0.0127,2.89584 l -0.66146,0.66146 v 6.84873 6.84874 l 0.59531,0.0845 c 0.50405,0.0716 0.59531,0.24679 0.59531,1.14288 0,0.89609 -0.0913,1.0713 -0.59531,1.14288 -0.73692,0.10466 -0.76376,0.60704 -0.0661,1.23837 0.71565,0.64767 0.68588,1.84461 -0.0589,2.36625 -0.79144,0.55435 -1.4221,0.5184 -2.05779,-0.11729 -0.9861,-0.9861 -0.4655,-1.8262 0.55781,-0.90012 0.25695,0.23253 0.59374,0.34457 0.74843,0.24897 0.46762,-0.28901 0.31595,-0.97682 -0.24791,-1.12427 -0.37482,-0.098 -0.52916,-0.3609 -0.52916,-0.90127 0,-0.5865 -0.12235,-0.76289 -0.52917,-0.76289 -0.45077,0 -0.52917,-0.17639 -0.52917,-1.19063 0,-1.01423 0.0784,-1.19062 0.52917,-1.19062 0.51477,0 0.52917,-0.17639 0.52917,-6.48466 v -6.48466 l -3.12753,2.71435 c -1.72014,1.49289 -4.90506,4.26016 -7.0776,6.14949 -2.17255,1.88932 -6.74805,5.86647 -10.16779,8.8381 -3.41974,2.97162 -6.39397,5.56516 -6.60941,5.7634 -0.31488,0.28975 -0.32929,0.4604 -0.0735,0.87004 0.17503,0.28027 0.3356,1.5285 0.35681,2.77385 l 0.0386,2.26425 h 21.79687 21.79687 v 3.11145 3.11146 l -3.10885,1.10025 c -9.31614,3.29707 -19.57147,6.94366 -19.97605,7.10309 -0.43116,0.1699 -0.46302,0.98136 -0.46302,11.79581 l 2e-5,11.61335 h -1.32292 -1.32292 v 15.74497 15.74497 l 1.38907,-0.77713 c 4.32894,-2.4219 10.18713,-2.02685 14.1638,0.95514 l 0.86849,0.65126 1.38047,-0.9115 c 1.83182,-1.20953 4.32241,-2.08673 6.05713,-2.13337 l 1.40875,-0.0379 0.0794,1.22617 0.0794,1.22616 -1.62267,0.28583 c -1.9828,0.34926 -4.3494,1.39977 -5.41529,2.40379 -1.0309,0.97107 -1.91354,1.4147 -2.32057,1.16636 -0.17889,-0.10915 -0.93948,-0.69735 -1.6902,-1.30711 -3.75358,-3.04883 -9.48842,-3.14698 -13.12955,-0.22471 -0.61376,0.49259 -1.45932,1.08923 -1.87903,1.32586 -0.72315,0.40772 -0.79935,0.40097 -1.45521,-0.12885 -3.29546,-2.66215 -4.76965,-3.26937 -7.96814,-3.2821 -2.57693,-0.0102 -4.48857,0.59516 -6.35804,2.01355 -1.37571,1.04378 -2.46097,1.77409 -2.63909,1.77595 -0.0735,8e-4 -0.97246,-0.62969 -1.99776,-1.401 -2.32465,-1.7488 -4.29698,-2.42094 -6.99678,-2.38438 -2.36168,0.032 -4.51232,0.7585 -6.16011,2.08097 -0.61376,0.49259 -1.45933,1.08923 -1.87904,1.32586 -0.72172,0.40692 -0.80064,0.40054 -1.45521,-0.11752 -0.38065,-0.30128 -1.37561,-1.01718 -2.21101,-1.5909 -3.57396,-2.45441 -8.64175,-2.32431 -12.11516,0.31102 -1.46193,1.10919 -2.46366,1.77421 -2.67514,1.77595 -0.0933,8e-4 -0.74814,-0.47897 -1.45521,-1.06607 -4.47143,-3.71279 -10.20307,-3.72672 -14.46469,-0.0351 -0.70008,0.60643 -1.43295,1.1026 -1.62862,1.1026 -0.19566,0 -0.86087,-0.42202 -1.47825,-0.93782 -1.80494,-1.50799 -3.23685,-2.22596 -5.31482,-2.66489 -3.37824,-0.71359 -6.42157,0.0958 -9.49496,2.52516 -0.74977,0.59265 -1.45862,1.07755 -1.57523,1.07755 -0.11661,0 -0.79053,-0.48036 -1.4976,-1.06746 -4.5227,-3.75536 -9.93127,-3.7434 -14.70819,0.0325 -0.7201,0.56921 -1.40469,1.03492 -1.5213,1.03492 -0.1166,0 -0.79052,-0.48036 -1.49759,-1.06746 z m 55.49801,-2.86556 c 1.0417,-0.81462 3.30408,-1.86718 4.91547,-2.28689 3.6564,-0.95237 8.14464,-0.0746 11.15166,2.18099 l 0.88406,0.66313 0.71637,-0.52964 c 4.7365,-3.50184 11.55128,-3.56446 16.10763,-0.148 l 0.86504,0.64862 1.17583,-0.74499 1.17582,-0.74499 -0.008,-5.82083 -0.008,-5.82083 -6.1334,-5.61149 -6.13342,-5.61148 -13.70719,-0.0109 -13.70719,-0.0109 -6.3171,5.75469 -6.31711,5.75469 -0.0179,5.46468 -0.0179,5.46469 1.38906,-0.5347 c 3.71813,-1.43122 9.44222,-0.56516 12.3718,1.87187 0.81407,0.6772 0.84043,0.67838 1.61544,0.0723 z m -7.4388,-23.75524 c 0,-0.0511 -1.78594,-0.093 -3.96875,-0.093 h -3.96875 v 3.7173 3.71729 l 3.96875,-3.62431 c 2.18281,-1.99337 3.96875,-3.66615 3.96875,-3.71729 z m 44.36225,-0.004 c -0.057,-0.057 -1.79636,-0.0705 -3.86528,-0.03 l -3.76166,0.0736 3.7912,3.46717 3.7912,3.46716 0.0741,-3.43718 c 0.0407,-1.89046 0.0274,-3.48381 -0.0295,-3.5408 z m -39.94353,-3.99125 c 0.9346,-0.83674 2.31703,-2.08311 3.07205,-2.7697 l 1.37277,-1.24835 -8.40052,-0.008 -8.40052,-0.008 v 2.77813 2.77812 h 5.32847 5.32847 z m 24.63757,1.29524 c -0.0464,-0.1119 -1.33457,-1.35623 -2.86254,-2.76518 l -2.77812,-2.56173 -5.02709,0.004 -5.02708,0.004 -2.77813,2.55735 c -1.52796,1.40655 -2.81862,2.65643 -2.86812,2.77752 -0.0495,0.12109 4.75099,0.21263 10.66775,0.20342 5.91676,-0.009 10.71977,-0.10831 10.67333,-0.22021 z m 15.39371,-2.55201 v -2.77813 h -8.25878 c -7.23339,0 -8.21068,0.0479 -7.87135,0.38547 0.21308,0.21201 1.57805,1.45792 3.03326,2.7687 l 2.64583,2.38323 5.22552,0.009 5.22552,0.009 z m -68.52708,-7.67292 v -1.98437 h -1.45521 -1.45521 v 1.98437 1.98438 h 1.45521 1.45521 z m 4.23563,1.38907 c 10e-4,-0.32743 0.0774,-1.2204 0.16915,-1.98438 l 0.16684,-1.38906 h -1.62435 -1.62436 v 1.98437 1.98438 h 1.45521 c 1.33204,0 1.45541,-0.0504 1.45751,-0.59531 z m 11.32621,-0.26459 0.0837,-0.7276 h -2.53111 -2.53112 v 0.80368 0.80367 l 2.4474,-0.0761 2.44739,-0.0761 z m 4.81107,0.0661 v -0.79375 h -1.71979 -1.71979 v 0.79375 0.79375 h 1.71979 1.71979 z m 6.35,0 v -0.79375 h -1.85208 -1.85208 v 0.79375 0.79375 h 1.85208 1.85208 z m 6.61459,0 v -0.79375 h -2.64584 -2.64583 v 0.79375 0.79375 h 2.64583 2.64584 z m 8.99583,-1.19063 v -1.98437 h -1.45521 c -1.42473,0 -1.4552,0.0159 -1.4552,0.75682 0,0.41625 0.0757,1.30922 0.16825,1.98437 l 0.16826,1.22756 h 1.28695 1.28695 z m 4.23334,0 v -1.98437 h -1.45521 -1.45521 v 1.98437 1.98438 h 1.45521 1.45521 z m 10.05416,-0.41199 v -1.57238 h -3.30729 -3.30729 l -5.3e-4,1.65364 -5.3e-4,1.65365 3.30777,-0.0813 3.30778,-0.0813 v -1.57237 z m 8.99584,0.0813 v -1.65364 h -3.3073 -3.30729 v 1.5434 c 0,0.84887 0.0496,1.59301 0.11025,1.65365 0.0606,0.0606 1.54891,0.11024 3.30729,0.11024 h 3.19705 z m 9.26041,-0.0813 v -1.57238 h -3.30729 -3.30729 l -5.3e-4,1.65364 -5.3e-4,1.65365 3.30777,-0.0813 3.30778,-0.0813 v -1.57237 z m 8.99584,0.14741 v -1.71979 h -3.3073 -3.30729 v 1.57935 1.57936 l 3.24115,0.0832 c 1.78263,0.0458 3.27091,0.10897 3.30729,0.14043 0.0364,0.0315 0.0661,-0.7167 0.0661,-1.66258 z m -27.25209,-5.42396 v -1.5875 h -3.30729 -3.30729 v 1.5875 1.5875 h 3.30729 3.30729 z m 9.19003,0 -0.0149,-1.5875 h -3.39691 -3.39691 v 1.5875 1.5875 h 3.41186 3.41187 l -0.0149,-1.5875 z m 9.06622,0 v -1.5875 h -3.30729 -3.30729 v 1.5875 1.5875 h 3.30729 3.30729 z m 8.99584,0 v -1.5875 h -3.3073 -3.30729 v 1.5875 1.5875 h 3.30729 3.3073 z m -83.87292,-0.66146 c 0,-0.62538 -0.0794,-0.66146 -1.45521,-0.66146 -1.37583,0 -1.45521,0.0361 -1.45521,0.66146 0,0.62538 0.0794,0.66146 1.45521,0.66146 1.37583,0 1.45521,-0.0361 1.45521,-0.66146 z m 4.97934,-0.0661 c 0.0808,-0.5692 0.002,-0.59532 -1.78594,-0.59532 -1.82775,0 -1.87049,0.0154 -1.87049,0.67355 0,0.66288 0.0283,0.67231 1.78594,0.59531 1.62274,-0.0711 1.79367,-0.13263 1.87049,-0.67354 z m 10.52842,0.008 0.0296,-0.58734 -0.75724,0.53921 c -0.94603,0.67362 -0.95228,0.82534 -0.0296,0.71918 0.53869,-0.062 0.7353,-0.23622 0.75724,-0.67105 z m 4.86515,0.0582 c 0,-0.63771 -0.0617,-0.66146 -1.71979,-0.66146 -1.65805,0 -1.71979,0.0237 -1.71979,0.66146 0,0.63772 0.0617,0.66146 1.71979,0.66146 1.65806,0 1.71979,-0.0237 1.71979,-0.66146 z m 6.35,0 c 0,-0.64256 -0.0529,-0.66146 -1.85208,-0.66146 -1.79917,0 -1.85208,0.0189 -1.85208,0.66146 0,0.64256 0.0529,0.66146 1.85208,0.66146 1.79917,0 1.85208,-0.0189 1.85208,-0.66146 z m 5.82084,0 c 0,-0.65367 -0.0265,-0.66146 -2.24896,-0.66146 -2.00442,0 -2.24896,0.0528 -2.24896,0.48507 0,0.76188 0.21993,0.83785 2.42535,0.83785 2.03435,0 2.07257,-0.0122 2.07257,-0.66146 z m 9.78958,0 c 0,-0.63771 -0.0617,-0.66146 -1.71979,-0.66146 -1.49129,0 -1.71979,0.0644 -1.71979,0.48507 0,0.73852 0.22479,0.83785 1.89618,0.83785 1.46991,0 1.5434,-0.0315 1.5434,-0.66146 z m 4.23334,0 c 0,-0.62538 -0.0794,-0.66146 -1.45521,-0.66146 -1.37584,0 -1.45521,0.0361 -1.45521,0.66146 0,0.62538 0.0794,0.66146 1.45521,0.66146 1.37583,0 1.45521,-0.0361 1.45521,-0.66146 z m -46.56667,-3.83646 c 0,-0.78573 -0.0147,-0.79375 -1.45521,-0.79375 -1.44051,0 -1.45521,0.008 -1.45521,0.79375 0,0.78574 0.0147,0.79375 1.45521,0.79375 1.44051,0 1.45521,-0.008 1.45521,-0.79375 z m 5.29166,0 v -0.79375 h -1.98437 -1.98438 v 0.79375 0.79375 h 1.98438 1.98437 z m 8.72126,-0.0107 0.91605,-0.78299 h -1.64365 -1.64366 v 0.79375 c 0,0.69212 0.0932,0.79237 0.72761,0.78299 0.41139,-0.006 1.12571,-0.35103 1.64365,-0.79375 z m 6.35999,-0.007 v -0.81177 l -0.78574,0.5595 c -1.17037,0.83338 -1.20417,1.06403 -0.15591,1.06403 0.87454,0 0.94165,-0.0578 0.94165,-0.81176 z m 6.35,0.018 v -0.79375 h -1.85208 -1.85208 v 0.79375 0.79375 h 1.85208 1.85208 z m 5.55625,0 v -0.79375 h -2.11666 -2.11667 v 0.79375 0.79375 h 2.11667 2.11666 z m 10.05417,0 v -0.79375 h -1.85208 -1.85208 v 0.79375 0.79375 h 1.85208 1.85208 z m 4.23334,0 c 0,-0.78574 -0.0147,-0.79375 -1.45521,-0.79375 -1.44051,0 -1.45521,0.008 -1.45521,0.79375 0,0.78573 0.0147,0.79375 1.45521,0.79375 1.4405,0 1.45521,-0.008 1.45521,-0.79375 z m -46.56667,-3.70417 c 0,-0.45693 -0.17639,-0.52917 -1.29206,-0.52917 -1.06954,0 -1.31589,0.0911 -1.43044,0.52917 -0.12578,0.48098 -0.008,0.52916 1.29206,0.52916 1.25405,0 1.43044,-0.0652 1.43044,-0.52916 z m 5.55625,0 c 0,-0.48507 -0.17639,-0.52917 -2.11667,-0.52917 -1.94028,0 -2.11667,0.0441 -2.11667,0.52917 0,0.48507 0.17639,0.52916 2.11667,0.52916 1.94028,0 2.11667,-0.0441 2.11667,-0.52916 z m 9.98142,0 c -0.0357,-0.47328 -0.22954,-0.52917 -1.83564,-0.52917 -1.61939,0 -1.79578,0.052 -1.79578,0.52917 0,0.47832 0.17639,0.52916 1.83564,0.52916 1.67253,0 1.8321,-0.047 1.79578,-0.52916 z m 2.91096,0 0.67273,-0.52917 h -1.09401 c -0.91763,0 -1.09402,0.0853 -1.09402,0.52917 0,0.30761 0.17639,0.52916 0.42129,0.52916 0.23171,0 0.72402,-0.23812 1.09401,-0.52916 z m 8.27428,0 c 0,-0.45636 -0.17639,-0.52917 -1.2819,-0.52917 -0.94589,0 -1.40744,0.13871 -1.7608,0.52917 -0.47434,0.52413 -0.46213,0.52916 1.28191,0.52916 1.5844,0 1.76079,-0.053 1.76079,-0.52916 z m 5.29167,0 c 0,-0.48213 -0.17639,-0.52917 -1.98437,-0.52917 -1.80799,0 -1.98438,0.047 -1.98438,0.52917 0,0.48213 0.17639,0.52916 1.98438,0.52916 1.80798,0 1.98437,-0.047 1.98437,-0.52916 z m 10.31875,0 c 0,-0.48213 -0.17639,-0.52917 -1.98437,-0.52917 -1.80799,0 -1.98438,0.047 -1.98438,0.52917 0,0.48213 0.17639,0.52916 1.98438,0.52916 1.80798,0 1.98437,-0.047 1.98437,-0.52916 z m 4.23334,0 c 0,-0.46503 -0.17639,-0.52917 -1.45521,-0.52917 -1.27882,0 -1.45521,0.0641 -1.45521,0.52917 0,0.46502 0.17639,0.52916 1.45521,0.52916 1.27882,0 1.45521,-0.0641 1.45521,-0.52916 z m 10.05416,-3.175 v -1.5875 h -3.30729 -3.30729 v 1.5875 1.5875 h 3.30729 3.30729 z m 8.99584,0 v -1.5875 h -3.3073 -3.30729 v 1.5875 1.5875 h 3.30729 3.3073 z m 9.26041,0 v -1.5875 h -3.30729 -3.30729 v 1.5875 1.5875 h 3.30729 3.30729 z m 8.99584,0 v -1.5875 h -3.3073 -3.30729 v 1.5875 1.5875 h 3.30729 3.3073 z m -83.87292,-2.77813 c 0,-0.30467 -0.33808,-0.39687 -1.45521,-0.39687 -1.11713,0 -1.45521,0.0922 -1.45521,0.39687 0,0.30468 0.33808,0.39688 1.45521,0.39688 1.11713,0 1.45521,-0.0922 1.45521,-0.39688 z m 6.08541,0 c 0,-0.32338 -0.44097,-0.39687 -2.38125,-0.39687 -1.94027,0 -2.38125,0.0735 -2.38125,0.39687 0,0.32338 0.44098,0.39688 2.38125,0.39688 1.94028,0 2.38125,-0.0735 2.38125,-0.39688 z m 9.49091,-1.05833 0.0475,-1.45521 h -1.42731 -1.42733 l -0.16399,0.99219 c -0.31883,1.92886 -0.32646,1.91823 1.37685,1.91823 h 1.54668 z m 5.18247,-0.066 0.011,-1.38891 -1.91823,-1.6e-4 -1.91823,-1.6e-4 v 1.4668 1.4668 l 1.90723,-0.0777 1.90722,-0.0777 0.011,-1.3889 z m 5.25317,0.77911 c 0.41215,-0.4302 0.71095,-1.0418 0.71095,-1.45521 0,-0.70653 -0.0171,-0.71313 -1.85208,-0.71313 h -1.85208 v 1.45521 1.45521 h 1.14112 c 0.90488,0 1.28831,-0.15363 1.85209,-0.74208 z m 5.47345,0.31281 c 0,-0.36746 -0.0667,-0.37824 -0.46302,-0.0749 -0.25466,0.19492 -0.51263,0.38809 -0.57326,0.42927 -0.0606,0.0412 0.14773,0.0749 0.46302,0.0749 0.35241,0 0.57326,-0.16538 0.57326,-0.42927 z m 15.02151,-3.99931 -0.0726,-4.42858 -4.57278,-0.03 c -2.51503,-0.0165 -4.6267,0.0573 -4.69261,0.16393 -0.11081,0.1793 0.17958,4.06619 0.54794,7.33414 l 0.15657,1.38906 h 4.35299 4.35298 z m 10.11391,1.38587 v -1.71979 h -3.30729 -3.30729 v 1.71979 1.71979 h 3.30729 3.30729 z m 8.99584,-0.008 v -1.72793 l -3.24115,0.0743 -3.24115,0.0743 -0.0788,1.65365 -0.0788,1.65365 h 3.31992 3.31992 z m 9.26041,0.008 v -1.71979 h -3.30729 -3.30729 v 1.71979 1.71979 h 3.30729 3.30729 z m 8.99584,-0.008 v -1.72793 l -3.24115,0.0743 -3.24115,0.0743 -0.0788,1.65365 -0.0788,1.65365 h 3.31992 3.31992 z m -63.12835,-9.92504 -0.0252,-3.98001 -3.08794,-3.12646 c -2.60309,-2.63555 -3.10562,-3.03883 -3.20052,-2.5684 -0.0619,0.30693 -0.30362,2.9393 -0.53711,5.84972 -0.23349,2.91042 -0.49388,5.85721 -0.57865,6.54844 l -0.15413,1.25677 3.8044,-2e-5 3.8044,-2e-5 -0.0252,-3.98002 z m 5.04734,1.27652 c -1.45248,-1.48695 -2.67064,-2.75695 -2.70702,-2.82222 -0.0364,-0.0653 -0.0661,1.15132 -0.0661,2.70354 v 2.82222 h 2.70701 2.70702 l -2.64087,-2.70354 z m 4.26306,-4.48108 c -0.22537,-2.23309 -0.47914,-5.01267 -0.56392,-6.17683 -0.26411,-3.6265 0.0674,-3.30729 -3.43463,-3.30729 h -3.03767 l 0.002,3.10885 0.002,3.10885 3.60233,3.78153 c 1.98128,2.07984 3.65554,3.72832 3.72057,3.66329 0.065,-0.065 -0.0662,-1.94531 -0.29153,-4.1784 z m 19.42211,2.30215 c 0,-0.066 -0.96666,-1.50609 -2.14813,-3.20023 -1.77172,-2.54051 -2.20744,-3.01789 -2.48664,-2.7243 -0.45745,0.48103 -4.09648,5.72485 -4.09648,5.903 0,0.0778 1.96453,0.14151 4.36563,0.14151 2.40109,0 4.36562,-0.054 4.36562,-0.11998 z m -7.82785,-6.29206 1.77618,-2.57559 -1.38652,-1.98584 c -0.76258,-1.09222 -1.43158,-1.94079 -1.48665,-1.88572 -0.0551,0.0551 -0.26818,1.69099 -0.47358,3.63538 -0.2054,1.9444 -0.43812,4.06623 -0.51714,4.7152 -0.16902,1.38798 -0.20432,1.42016 2.08771,-1.90343 z m 8.64232,-1.73473 c -0.26061,-2.51096 -0.53358,-4.62512 -0.60659,-4.69814 -0.073,-0.073 -0.75207,0.76313 -1.50901,1.85808 l -1.37625,1.99082 1.90983,2.78034 c 1.05041,1.52918 1.94269,2.74747 1.98285,2.70731 0.0402,-0.0401 -0.14021,-2.12744 -0.40083,-4.63841 z m 16.5874,1.84637 c 0.0678,-0.20356 -0.22909,-0.31419 -0.84336,-0.31419 -1.08789,0 -1.20829,0.17746 -0.35278,0.51998 0.70591,0.28262 1.05325,0.22287 1.19614,-0.20579 z m -4.43728,-0.31419 c 0,-0.14552 -0.11204,-0.26458 -0.24897,-0.26458 -0.13693,0 -0.32256,0.11906 -0.41249,0.26458 -0.0899,0.14552 0.0221,0.26459 0.24896,0.26459 0.22687,0 0.4125,-0.11907 0.4125,-0.26459 z m 1.85208,0 c -0.94577,-0.30289 -1.32292,-0.30289 -1.32292,0 0,0.14552 0.44649,0.25272 0.99219,0.23821 0.88549,-0.0236 0.92105,-0.0491 0.33073,-0.23821 z m 4.8766,-1.88152 c -0.2225,-0.36001 -1.43653,-0.27947 -1.44063,0.0956 -0.002,0.18191 -0.0808,0.61942 -0.17524,0.97227 l -0.17162,0.64153 0.96641,-0.73711 c 0.53152,-0.40542 0.90101,-0.84294 0.82108,-0.97227 z m -4.34743,0.39392 c 0,-1.0324 0.008,-1.03326 -1.41433,0.15061 -0.46899,0.39034 -0.46376,0.41328 0.13229,0.58074 1.16409,0.32703 1.28204,0.25975 1.28204,-0.73135 z m 2.23315,0.26576 c 0.20551,-0.81883 0.24262,-0.77564 -0.84409,-0.9825 -0.83657,-0.15924 -0.8599,-0.13874 -0.8599,0.75575 0,0.83753 0.0681,0.91943 0.76507,0.91943 0.60461,0 0.80153,-0.14528 0.93892,-0.69268 z m -46.28628,-2.15162 v -1.78591 l -1.84838,-0.0797 -1.84839,-0.0797 0.78626,0.87341 c 1.81549,2.01673 2.62947,2.85778 2.76577,2.85776 0.0796,-10e-6 0.14474,-0.80368 0.14474,-1.78594 z m 48.81563,-0.0517 c 0,-0.62926 -0.12633,-0.76664 -0.79526,-0.86482 -0.96102,-0.14105 -1.05683,-0.0616 -1.05683,0.87693 0,0.59966 0.13162,0.74893 0.72761,0.82525 0.99183,0.127 1.12448,0.0282 1.12448,-0.83736 z m -2.38125,-0.0144 c 0,-0.95909 -0.24563,-0.99738 -1.03156,-0.16079 -0.6148,0.65442 -0.47338,0.88665 0.56853,0.93365 0.34272,0.0154 0.46303,-0.18534 0.46303,-0.77286 z m 4.04114,0.0454 c 0.36314,-0.31208 0.39306,-0.45167 0.1323,-0.61716 -0.7555,-0.47948 -1.26303,-0.24344 -1.26303,0.58739 0,0.84537 0.1763,0.85002 1.13073,0.0298 z m 0.72136,-2.02976 c 0,-0.85254 -0.063,-0.92604 -0.79375,-0.92604 -0.50883,0 -0.79375,0.1347 -0.79375,0.37524 0,0.20638 -0.0686,0.55409 -0.15252,0.77269 -0.10317,0.26885 0.0467,0.43543 0.46302,0.51478 1.22883,0.2342 1.277,0.20641 1.277,-0.73667 z m 1.5712,-0.71926 c -0.77513,-0.28674 -1.04204,-0.0519 -1.04204,0.91667 v 0.82764 l 0.80189,-0.76826 c 0.7816,-0.74882 0.78768,-0.77351 0.24015,-0.97605 z m -3.79437,0.71069 c 0.24336,-0.96962 -0.018,-1.06948 -0.92408,-0.35314 -0.99975,0.79035 -1.00344,0.89675 -0.0337,0.97064 0.64794,0.0494 0.81796,-0.0602 0.95782,-0.6175 z m -23.20828,-1.43237 1.12358,-1.60176 h -2.54315 -2.54316 l 0.84707,1.25677 c 1.11382,1.65255 1.59086,2.19473 1.81121,2.05854 0.0995,-0.0615 0.68649,-0.83259 1.30445,-1.71355 z m 27.91668,-0.1682 c 0.39938,-1.04077 0.18965,-1.43356 -0.76544,-1.43356 -0.84667,0 -0.92604,0.0661 -0.92604,0.7717 0,0.42443 0.14882,0.83175 0.33072,0.90515 0.65641,0.26486 1.20328,0.16709 1.36076,-0.24329 z m 1.49364,-1.18569 c -0.36937,-0.0819 -0.68425,-0.14148 -0.69972,-0.13229 -0.0155,0.009 -0.10401,0.41472 -0.19674,0.90118 l -0.1686,0.88447 0.86832,-0.75218 0.86831,-0.75218 z m -3.71429,0.53241 v -0.80721 l -0.92604,0.70632 c -0.50933,0.38848 -0.92604,0.75173 -0.92604,0.80722 0,0.0555 0.41671,0.10089 0.92604,0.10089 0.85598,0 0.92604,-0.0611 0.92604,-0.80722 z m 4.7625,-1.98767 c 0,-0.9043 -0.0351,-0.93942 -0.8599,-0.8599 -0.7561,0.0729 -0.8699,0.1867 -0.9428,0.94281 -0.0795,0.82477 -0.0444,0.85989 0.85989,0.85989 0.9043,0 0.94281,-0.0385 0.94281,-0.9428 z m -2.32721,-0.0992 0.1141,-0.77743 -0.73752,0.52516 c -1.07778,0.76745 -1.14655,1.0297 -0.27002,1.0297 0.66002,0 0.79681,-0.11903 0.89344,-0.77743 z m 4.44388,-0.46295 c 0,-0.0454 -0.35719,-0.0825 -0.79375,-0.0825 -0.67279,0 -0.79375,0.10201 -0.79375,0.66938 v 0.66938 l 0.79375,-0.58684 c 0.43656,-0.32277 0.79375,-0.62399 0.79375,-0.66938 z m 0.32124,-1.40696 c 0.14075,-0.95898 0.0607,-1.05683 -0.86448,-1.05683 -0.59761,0 -0.73941,0.13484 -0.83634,0.79526 -0.14075,0.95898 -0.0607,1.05683 0.86448,1.05683 0.5976,0 0.73941,-0.13484 0.83634,-0.79526 z m -32.7327,-2.37974 c -0.8028,-1.60073 -1.51708,-2.91042 -1.5873,-2.91042 -0.17133,0 -2.77833,5.2091 -2.77833,5.55144 0,0.16649 1.11262,0.26939 2.91263,0.26939 h 2.91263 z m 30.49937,2.24087 c 0.0473,-0.57201 -0.0149,-0.63192 -0.42707,-0.41132 -0.26537,0.14202 -0.6361,0.44332 -0.82386,0.66954 -0.29543,0.35598 -0.23798,0.41132 0.42708,0.41132 0.63115,0 0.77834,-0.11961 0.82385,-0.66954 z m 4.29334,-0.5391 c 0,-0.0628 -0.35719,-0.11427 -0.79375,-0.11427 -0.6759,0 -0.79375,0.10089 -0.79375,0.67947 v 0.67948 l 0.79375,-0.5652 c 0.43656,-0.31086 0.79375,-0.61663 0.79375,-0.67948 z m -60.7183,-1.56972 c 0.002,-1.38232 -0.0162,-2.5133 -0.0404,-2.5133 -0.0514,0 -3.06502,4.20718 -3.36407,4.69635 -0.15406,0.252 0.22664,0.33067 1.59937,0.3305 l 1.80155,-2.4e-4 0.004,-2.51331 z m 7.78172,1.65388 c -0.0109,-0.47294 -0.27883,-3.70063 -0.59531,-7.17264 l -0.57541,-6.31275 -2.18281,3.05384 -2.18281,3.05385 v 4.1188 4.1188 h 2.77812 2.77813 l -0.0199,-0.8599 z m 53.35332,-1.37402 c 0.22076,-0.87959 -0.0393,-1.20566 -0.96153,-1.20566 -0.7129,0 -0.77813,0.0776 -0.77813,0.92604 0,0.85123 0.0637,0.92604 0.78871,0.92604 0.61573,0 0.82429,-0.14177 0.95095,-0.64642 z m -2.26883,-0.32574 v -0.70758 l -0.7276,0.64143 c -0.40018,0.35279 -0.77722,0.6712 -0.83785,0.70758 -0.0606,0.0364 0.26679,0.0662 0.7276,0.0662 0.73188,0 0.83785,-0.0895 0.83785,-0.70758 z m 3.70417,0.0461 0.62141,-0.66146 h -0.70758 c -0.57836,0 -0.70758,0.12079 -0.70758,0.66146 0,0.3638 0.0388,0.66146 0.0862,0.66146 0.0474,0 0.3658,-0.29766 0.70758,-0.66146 z m -1.32292,-1.86444 c 0,-0.66692 -0.006,-0.66895 -0.63517,-0.19843 -0.54973,0.41142 -0.57643,0.49956 -0.19844,0.65521 0.72991,0.30056 0.83361,0.24374 0.83361,-0.45678 z m 2.38125,-0.0913 c 0,-0.60734 -0.14483,-0.80142 -0.7025,-0.94139 -0.78297,-0.19651 -1.13898,0.14882 -1.14553,1.11114 -0.003,0.50474 0.13684,0.59531 0.92199,0.59531 0.84483,0 0.92604,-0.0671 0.92604,-0.76506 z m -66.11528,-2.9391 2.21841,-3.04271 0.13229,-2.97712 0.13229,-2.97711 -2.05052,5.3e-4 c -1.12779,2.6e-4 -2.05283,0.0898 -2.05564,0.19899 -0.003,0.10914 -0.24005,2.69875 -0.52718,5.75468 -0.59703,6.35436 -0.61244,6.68297 -0.29705,6.33677 0.12594,-0.13824 1.22727,-1.62057 2.4474,-3.29406 z m 67.4382,2.77812 0.62141,-0.66146 h -0.70758 c -0.57836,0 -0.70758,0.1208 -0.70758,0.66146 0,0.3638 0.0388,0.66146 0.0862,0.66146 0.0474,0 0.3658,-0.29766 0.70758,-0.66146 z m -37.21656,-3.10885 c -0.18062,-1.63711 -0.3396,-3.21469 -0.35329,-3.50573 -0.0302,-0.6428 -1.29338,1.59255 -1.31194,2.32171 -0.0104,0.40756 1.72173,4.16058 1.92021,4.16058 0.0404,0 -0.0743,-1.33945 -0.25498,-2.97656 z m -5.12961,-1.06888 c 0.007,-0.26046 -0.2488,-0.97483 -0.56858,-1.5875 l -0.58142,-1.11394 -0.17797,1.19063 c -0.0979,0.65484 -0.25435,2.14312 -0.34768,3.30729 l -0.1697,2.11667 0.91626,-1.71979 c 0.50394,-0.94589 0.92203,-1.9329 0.92909,-2.19336 z m 41.18881,2.59896 c 0.27927,-0.72778 -0.0166,-0.95665 -0.6569,-0.50815 -0.48601,0.34042 -0.54319,0.48412 -0.26321,0.66154 0.51533,0.32655 0.75101,0.28726 0.92011,-0.15339 z m 2.27213,-0.4056 c 0.0915,-0.62321 0.0173,-0.79375 -0.34521,-0.79375 -0.25393,0 -0.63614,-0.0669 -0.84934,-0.14876 -0.28554,-0.10957 -0.41663,0.0995 -0.49768,0.79375 -0.10578,0.90608 -0.0774,0.94251 0.73285,0.94251 0.73426,0 0.85789,-0.10229 0.95938,-0.79375 z m 1.38749,-0.75364 c -0.47992,-0.0973 -0.90393,0.3674 -0.91071,0.99819 -0.003,0.25648 0.21463,0.17196 0.68057,-0.26458 0.58464,-0.54776 0.61825,-0.65489 0.23014,-0.73361 z m 1.19786,-1.53144 c 0.003,-0.42729 -0.19008,-0.59377 -0.79121,-0.682 -0.96102,-0.14105 -1.05683,-0.0616 -1.05683,0.87693 0,0.60195 0.12934,0.74696 0.72761,0.8158 0.81457,0.0937 1.11445,-0.17679 1.12043,-1.01073 z m -2.3772,0.29774 c 0,-0.80627 -0.0314,-0.80857 -0.74012,-0.0541 l -0.56778,0.60438 0.65395,0.0541 c 0.53487,0.0443 0.65395,-0.0658 0.65395,-0.60437 z m 3.96875,-0.72214 c 0,-0.11052 -0.23813,-0.20094 -0.52917,-0.20094 -0.35352,0 -0.52917,0.17639 -0.52917,0.53141 0,0.46517 0.066,0.49022 0.52917,0.20094 0.29104,-0.18176 0.52917,-0.4209 0.52917,-0.53141 z m 0.79375,-1.39157 c 0,-0.84422 -0.0674,-0.92604 -0.7629,-0.92604 -0.56748,0 -0.80375,0.15248 -0.92242,0.59531 -0.2428,0.90598 -0.22022,0.94895 0.56084,1.06727 0.40018,0.0606 0.8169,0.12806 0.92604,0.14986 0.10914,0.0218 0.19844,-0.37707 0.19844,-0.8864 z m -2.38125,0.1323 c 0,-0.29105 -0.0411,-0.52917 -0.0913,-0.52917 -0.0502,0 -0.30678,0.23812 -0.57017,0.52917 -0.46481,0.51361 -0.46213,0.52916 0.0913,0.52916 0.39379,0 0.57018,-0.1637 0.57018,-0.52916 z m 3.96875,-0.8574 c 0,-0.11052 -0.23813,-0.20094 -0.52917,-0.20094 -0.35352,0 -0.52917,0.17639 -0.52917,0.53141 0,0.46518 0.066,0.49022 0.52917,0.20094 0.29104,-0.18176 0.52917,-0.42089 0.52917,-0.53141 z m -0.15215,-0.95608 c -0.34595,-0.3332 -0.57042,-0.39685 -0.69982,-0.19843 -0.16004,0.2454 0.1712,0.44553 1.0967,0.66262 0.0618,0.0145 -0.11675,-0.19438 -0.39688,-0.46419 z m -47.34502,-1.08815 c 0.36625,-0.72276 0.66592,-1.3776 0.66592,-1.4552 0,-0.0776 -0.65485,-0.14109 -1.45521,-0.14109 -0.80037,0 -1.45521,0.0635 -1.45521,0.14109 0,0.24554 1.32618,2.76933 1.45521,2.76933 0.0678,0 0.42304,-0.59136 0.78929,-1.31413 z m 46.08295,0.90584 c 0.24099,-0.62801 0.0148,-0.66281 -0.7064,-0.10867 l -0.65751,0.50519 0.60362,0.006 c 0.33199,0.003 0.67412,-0.17784 0.76029,-0.4024 z m 3.90992,-0.98649 c 0.21257,-0.6082 0.15793,-0.83168 -0.32024,-1.30985 -0.7942,-0.79421 -2.00311,-0.41083 -2.12844,0.67498 -0.1166,1.01026 0.39321,1.54479 1.38087,1.44785 0.61355,-0.0602 0.87403,-0.25855 1.06781,-0.81298 z m -71.53512,-2.37554 c 0.22883,-0.39777 0.15321,-0.46302 -0.53669,-0.46302 -0.76931,0 -0.80282,0.0473 -0.79718,1.12448 l 0.006,1.12448 0.53081,-0.66146 c 0.29194,-0.3638 0.65067,-0.86982 0.79717,-1.12448 z m 19.29775,-4.69635 c 0,-1.70509 -0.0772,-2.11667 -0.39688,-2.11667 -0.3197,0 -0.39687,0.41158 -0.39687,2.11667 0,1.70509 0.0772,2.11667 0.39687,2.11667 0.31971,0 0.39688,-0.41158 0.39688,-2.11667 z m 3.70417,0 c 0,-1.70509 -0.0772,-2.11667 -0.39688,-2.11667 -0.3197,0 -0.39687,0.41158 -0.39687,2.11667 0,1.70509 0.0772,2.11667 0.39687,2.11667 0.3197,0 0.39688,-0.41158 0.39688,-2.11667 z m -26.64438,-5.1108 0.0538,-3.09175 -1.49878,2.3e-4 -1.49878,2.4e-4 -0.16771,2.05052 c -0.0922,1.12778 -0.23082,2.49046 -0.30795,3.02816 l -0.14025,0.97764 1.40986,0.081 c 0.77542,0.0445 1.56427,0.0731 1.75298,0.0634 0.25729,-0.0132 0.35658,-0.79109 0.39688,-3.10938 z m 5.90244,2.24419 c -0.0752,-0.3879 -0.21556,-1.74706 -0.31199,-3.02037 l -0.17533,-2.3151 h -1.55621 -1.5562 l -5.3e-4,3.10885 -5.3e-4,3.10885 1.86879,-0.0885 c 1.86574,-0.0883 1.86858,-0.0897 1.73214,-0.79375 z m -5.94455,-12.08235 -0.001,-3.43958 h -1.00983 -1.00983 l -0.18081,2.11666 c -0.0994,1.16417 -0.25005,2.74803 -0.33468,3.5197 l -0.15387,1.40302 1.34567,-0.0801 1.34566,-0.0801 -0.001,-3.43958 z m 5.15778,3.10886 c -0.0732,-0.25467 -0.20955,-1.65365 -0.30296,-3.10886 -0.2301,-3.58462 -0.22486,-3.57187 -1.4695,-3.57187 h -1.0405 v 3.57187 3.57188 h 1.47304 c 1.27721,0 1.45534,-0.0616 1.33992,-0.46302 z"
       id="path864"
       inkscape:connector-curvature="0" />
  </g>
</svg>
