<?xml version="1.0" encoding="UTF-8" standalone="no"?>
<svg width="11.2889mm" height="11.2889mm"
 viewBox="0 0 32 32"
 xmlns="http://www.w3.org/2000/svg" xmlns:xlink="http://www.w3.org/1999/xlink"  version="1.2" baseProfile="tiny">
<title>Qt SVG Document</title>
<desc>Generated with Qt</desc>
<defs>
</defs>
<g fill="none" stroke="black" stroke-width="1" fill-rule="evenodd" stroke-linecap="square" stroke-linejoin="bevel" >

<g fill="none" stroke="#000000" stroke-opacity="1" stroke-width="3.00472" stroke-linecap="round" stroke-linejoin="round" transform="matrix(1,0,0,1,0,0)"
font-family="MS Shell Dlg 2" font-size="8.1" font-weight="400" font-style="normal" 
>
<path vector-effect="none" fill-rule="evenodd" d="M0,16 L32,16"/>
</g>

<g fill="none" stroke="#7fd95e" stroke-opacity="1" stroke-width="2.4378" stroke-linecap="round" stroke-linejoin="round" transform="matrix(1,0,0,1,0,0)"
font-family="MS Shell Dlg 2" font-size="8.1" font-weight="400" font-style="normal" 
>
<path vector-effect="none" fill-rule="evenodd" d="M0,16 L32,16"/>
</g>

<g fill="#7fd95e" fill-opacity="1" stroke="#232323" stroke-opacity="1" stroke-width="1" stroke-linecap="square" stroke-linejoin="bevel" transform="matrix(1,0,0,1,0,0)"
font-family="MS Shell Dlg 2" font-size="8.1" font-weight="400" font-style="normal" 
>
<path vector-effect="non-scaling-stroke" fill-rule="evenodd" d="M25.9213,25.9213 L20.9606,30.8819 L20.9606,28.4016 L6.07874,28.4016 L6.07874,23.4409 L20.9606,23.4409 L20.9606,20.9606 L25.9213,25.9213"/>
</g>

<g fill="none" stroke="#7fd95e" stroke-opacity="1" stroke-width="2.4378" stroke-linecap="round" stroke-linejoin="round" transform="matrix(1,0,0,1,0,0)"
font-family="MS Shell Dlg 2" font-size="8.1" font-weight="400" font-style="normal" 
>
</g>

<g fill="#7fd95e" fill-opacity="1" stroke="#232323" stroke-opacity="1" stroke-width="1" stroke-linecap="square" stroke-linejoin="bevel" transform="matrix(1,0,0,1,0,0)"
font-family="MS Shell Dlg 2" font-size="8.1" font-weight="400" font-style="normal" 
>
<path vector-effect="non-scaling-stroke" fill-rule="evenodd" d="M6.07874,6.07874 L11.0394,1.11811 L11.0394,3.59843 L25.9213,3.59843 L25.9213,8.55906 L11.0394,8.55906 L11.0394,11.0394 L6.07874,6.07874"/>
</g>

<g fill="none" stroke="#7fd95e" stroke-opacity="1" stroke-width="2.4378" stroke-linecap="round" stroke-linejoin="round" transform="matrix(1,0,0,1,0,0)"
font-family="MS Shell Dlg 2" font-size="8.1" font-weight="400" font-style="normal" 
>
</g>
</g>
</svg>
