<?xml version="1.0" encoding="UTF-8" standalone="no"?>
<!-- Created with Inkscape (http://www.inkscape.org/) -->

<svg
   xmlns:dc="http://purl.org/dc/elements/1.1/"
   xmlns:cc="http://creativecommons.org/ns#"
   xmlns:rdf="http://www.w3.org/1999/02/22-rdf-syntax-ns#"
   xmlns:svg="http://www.w3.org/2000/svg"
   xmlns="http://www.w3.org/2000/svg"
   xmlns:sodipodi="http://sodipodi.sourceforge.net/DTD/sodipodi-0.dtd"
   xmlns:inkscape="http://www.inkscape.org/namespaces/inkscape"
   width="148.71423mm"
   height="128.72633mm"
   viewBox="0 0 148.71424 128.72634"
   version="1.1"
   id="svg13337"
   inkscape:version="0.92.4 (5da689c313, 2019-01-14)"
   sodipodi:docname="overfalls.svg">
  <defs
     id="defs13331" />
  <sodipodi:namedview
     id="base"
     pagecolor="#ffffff"
     bordercolor="#666666"
     borderopacity="1.0"
     inkscape:pageopacity="0.0"
     inkscape:pageshadow="2"
     inkscape:zoom="3.0180769"
     inkscape:cx="350.39457"
     inkscape:cy="258.06747"
     inkscape:document-units="mm"
     inkscape:current-layer="layer1"
     showgrid="false"
     inkscape:window-width="4200"
     inkscape:window-height="2569"
     inkscape:window-x="-16"
     inkscape:window-y="-16"
     inkscape:window-maximized="1" />
  <metadata
     id="metadata13334">
    <rdf:RDF>
      <cc:Work
         rdf:about="">
        <dc:format>image/svg+xml</dc:format>
        <dc:type
           rdf:resource="http://purl.org/dc/dcmitype/StillImage" />
        <dc:title></dc:title>
      </cc:Work>
    </rdf:RDF>
  </metadata>
  <g
     inkscape:label="Calque 1"
     inkscape:groupmode="layer"
     id="layer1"
     transform="translate(-13.880723,-130.72069)">
    <path
       style="fill:none;stroke:#000000;stroke-width:4.06500006;stroke-linecap:butt;stroke-linejoin:miter;stroke-miterlimit:4;stroke-dasharray:none;stroke-opacity:1"
       d="m 50.208599,188.14078 c 0.413263,0.0251 -0.103315,-0.33502 0,-0.43833 0.0745,-0.0745 0.19718,-0.0931 0.262999,-0.17533 0.05773,-0.0722 0.02232,-0.19766 0.08767,-0.263 0.09241,-0.0924 0.269027,-0.0733 0.350665,-0.17534 0.05477,-0.0685 0,-0.17533 0,-0.263 0.08767,-0.11688 0.159683,-0.24734 0.262999,-0.35066 0.252225,-0.25223 0.624436,-0.36144 0.876662,-0.61366 0.06534,-0.0653 0.02851,-0.19201 0.08767,-0.263 0.317477,-0.38097 0.701329,-0.70133 1.051994,-1.05199 0.262999,-0.263 0.493546,-0.56307 0.788996,-0.789 0.207621,-0.15877 0.516513,-0.16585 0.70133,-0.35067 0.269414,-0.26941 0.364128,-0.6764 0.613663,-0.96432 0.138009,-0.15924 0.370074,-0.20892 0.525997,-0.35067 1.272388,-1.15671 -0.879878,0.1197 1.753324,-1.13966 1.533417,-0.73337 -0.03761,0.16787 1.051994,-1.13966 0.125495,-0.15059 0.365406,-0.15058 0.525997,-0.263 0.135424,-0.0948 0.205544,-0.27151 0.350666,-0.35066 0.186764,-0.10187 0.463232,-0.0249 0.613664,-0.17533 0.103314,-0.10332 0,-0.29223 0,-0.43834 0,-0.0877 -0.06199,0.20101 0,0.263 0.06199,0.062 0.175331,0 0.262998,0 0.613664,0 1.227325,0 1.840989,0 0.788996,0 1.577991,0 2.366987,0 0.409109,0 0.819898,-0.037 1.227328,0 0.239982,0.0218 0.465526,0.12569 0.701328,0.17534 3.110174,0.65477 -1.02453,-0.20674 1.840992,0.17533 0.155985,0.0208 0.282795,0.1514 0.43833,0.17533 0.231058,0.0356 0.47789,-0.0687 0.701331,0 0.178837,0.055 0.267988,0.27324 0.43833,0.35066 1.546058,0.70276 -0.371771,-0.39818 0.964329,0.0877 0.198036,0.072 0.327959,0.27865 0.525997,0.35067 0.137314,0.0499 0.304814,-0.0593 0.43833,0 1.496857,0.66526 -0.410369,0.15904 0.613664,0.43833 0.396338,0.35917 0.887714,0.0614 1.314993,0.17533 0.252544,0.0673 0.462981,0.24341 0.701331,0.35066 0.346427,0.1559 0.698227,0.2999 1.051994,0.43834 0.318516,0.12463 0.667358,0.18096 0.964326,0.35066 0.12686,0.0725 0.146937,0.26191 0.262999,0.35066 0.386339,0.29544 0.808614,0.54158 1.227328,0.789 0.311721,0.1842 1.9862,0.94855 2.016321,0.96433 0.186666,0.0978 0.37158,0.20728 0.525999,0.35066 0.21199,0.19685 0.663319,0.86909 1.051994,1.052 0.368276,0.1733 0.753531,0.30962 1.139661,0.43833 0.470956,0.15698 0.48129,-5.3e-4 0.964327,0.263 0.164266,0.0896 0.282644,0.24687 0.43833,0.35066 0.108738,0.0725 0.244324,0.0994 0.350665,0.17533 0.100886,0.0721 0.162113,0.19094 0.262999,0.263 0.106344,0.076 0.237199,0.1105 0.350665,0.17533 0.09148,0.0523 0.177263,0.1141 0.262999,0.17534 0.118896,0.0849 0.216368,0.20544 0.350665,0.263 0.08058,0.0345 0.20101,-0.062 0.262999,0 0.06199,0.062 -0.05705,0.19643 0,0.26299 0.137136,0.16 0.387233,0.19208 0.525997,0.35067 0.07934,0.0907 0.01765,0.25262 0.08767,0.35066 0.08492,0.1189 0.247348,0.15969 0.350663,0.263 0.0462,0.0462 0.0333,0.13909 0.08767,0.17534 0.04863,0.0324 0.116887,0 0.175331,0 0.08767,0.0292 0.192011,0.0285 0.262999,0.0877 0.847124,1.1295 -0.300816,-0.24753 0.613664,0.43833 0.04675,0.0351 -0.03588,0.1292 0,0.17533 0.177604,0.22835 0.409109,0.40911 0.613664,0.61367 0.116887,0.11689 0.233775,0.23378 0.350665,0.35066 0.08767,0.0877 0.175332,0.17533 0.262999,0.263 0.116887,0.11689 0.202811,0.27674 0.350662,0.35067 0.05228,0.0261 -0.05426,-0.19704 0,-0.17534 0.326121,0.13045 0.522563,0.49411 0.788999,0.70133 0.166333,0.12937 0.361449,0.21903 0.525997,0.35067 0.22589,0.18071 0.385315,0.43606 0.613661,0.61366 0.166335,0.12937 0.391096,0.18878 0.525999,0.35067 0.14404,0.17285 0.345874,0.86072 0.613662,1.05199 0.09804,0.07 0.239921,0.0402 0.350665,0.0877 0.09684,0.0415 0.16672,0.13254 0.262999,0.17533 0.168889,0.0751 0.36444,0.0856 0.525997,0.17533 0.108378,0.0602 0.146915,0.21947 0.262998,0.263 0.136808,0.0513 0.293921,-0.0222 0.438333,0 1.920803,0.29551 -0.106797,0.0196 1.051994,0.35066 0.08429,0.0241 0.175331,0 0.262998,0 0.233775,0 0.467553,0 0.701329,0 0.321442,0 0.642887,0 0.964329,0 0.146111,0 0.294577,0.0262 0.43833,0 0.181835,-0.0331 0.344162,-0.14227 0.525997,-0.17533 0.143753,-0.0261 0.29392,0.0222 0.438332,0 0.238168,-0.0366 0.462471,-0.14348 0.701329,-0.17533 0.202761,-0.027 0.409101,0 0.613661,0 0.17533,0 0.3588,0.0528 0.526,0 0.39897,-0.12599 0.74867,-0.37705 1.13966,-0.526 0.22518,-0.0858 0.46849,-0.11324 0.70133,-0.17533 0.20555,-0.0548 0.40279,-0.14722 0.61366,-0.17533 0.74476,-0.0993 0.67815,0.15906 1.40266,-0.17534 0.16989,-0.0784 0.25567,-0.31007 0.43833,-0.35066 0.37084,-0.0824 0.76648,0.0711 1.13966,0 0.25675,-0.0489 0.45942,-0.2517 0.70133,-0.35066 0.40207,-0.16449 0.83542,-0.2509 1.22733,-0.43834 0.28515,-0.13637 0.51203,-0.37366 0.78899,-0.52599 1.60484,-0.88267 0.3111,-0.0216 2.01632,-0.789 0.2514,-0.11313 0.46106,-0.30317 0.70134,-0.43833 0.69741,-0.39229 1.19085,-0.5597 2.01632,-0.78899 0.0845,-0.0235 0.17533,0 0.26299,0 0.0877,-0.0877 0.14905,-0.21417 0.263,-0.263 0.10744,-0.0461 0.24612,0.0523 0.35067,0 0.0523,-0.0261 -0.0554,-0.15686 0,-0.17534 0.16633,-0.0554 0.36917,0.0784 0.526,0 0.0784,-0.0392 -0.0486,-0.19005 0,-0.26299 0.081,-0.12158 0.24734,-0.15969 0.35066,-0.263 0.10332,-0.10332 0.15968,-0.24735 0.263,-0.35067 0.10331,-0.10331 0.23533,-0.17329 0.35067,-0.263 0.14769,-0.11487 0.29847,-0.22635 0.43833,-0.35066 0.12355,-0.10982 0.23377,-0.23378 0.35066,-0.35067 0.0292,-0.0292 0.0522,-0.0664 0.0877,-0.0877 0.11206,-0.0672 0.24432,-0.0994 0.35066,-0.17533 0.10089,-0.0721 0.17533,-0.17534 0.263,-0.263 0.0584,-0.0584 0.11689,-0.23378 0.17533,-0.17534 0.0585,0.0584 -0.23377,0.23378 -0.17533,0.17534 0.0877,-0.0877 0.17533,-0.17534 0.263,-0.263 0.11689,-0.11689 0.20714,-0.26865 0.35066,-0.35067 0.0761,-0.0435 0.263,0.0877 0.263,0 0,-0.14611 -0.263,-0.20455 -0.263,-0.35066 0,-0.0877 0.20101,0.062 0.263,0 0.10883,-0.10883 -0.2159,-0.71835 0.263,0 0.0162,0.0243 -0.0584,0 -0.0877,0 -0.0584,-0.0877 -0.24983,-0.3375 -0.17533,-0.263 0.10332,0.10332 0.14891,0.25939 0.263,0.35066 0.0456,0.0365 0.17533,-0.0584 0.17533,0 0,0.0584 -0.23377,0 -0.17533,0 0.20455,0 0.37989,0 0.17533,0"
       id="path13884"
       inkscape:connector-curvature="0" />
    <path
       style="fill:none;stroke:#000000;stroke-width:4.06500006;stroke-linecap:butt;stroke-linejoin:miter;stroke-miterlimit:4;stroke-dasharray:none;stroke-opacity:1"
       d="m 52.04959,198.57306 c -0.161444,-0.1894 1.046116,-0.87079 1.13966,-0.96433 0.120486,-0.12049 0.171519,-0.29458 0.262999,-0.43833 0.113132,-0.17778 0.210668,-0.3685 0.350664,-0.526 0.09707,-0.1092 0.23842,-0.16946 0.350665,-0.263 0.02338,-0.0195 1.087003,-0.96178 1.227327,-1.05199 0.219859,-0.14134 0.473526,-0.22253 0.70133,-0.35067 0.240276,-0.13515 0.461053,-0.30317 0.701329,-0.43833 0.227804,-0.12814 0.476047,-0.21814 0.701329,-0.35066 0.454075,-0.2671 0.857597,-0.6153 1.314993,-0.87666 0.226933,-0.12968 0.471876,-0.22551 0.701331,-0.35067 0.09249,-0.0505 0.16398,-0.13932 0.262998,-0.17533 0.226462,-0.0824 0.46885,-0.11193 0.701328,-0.17534 0.08915,-0.0243 0.170972,-0.0793 0.262999,-0.0877 0.232817,-0.0212 0.467553,0 0.701331,0 0.292222,0 0.584441,0 0.876662,0 0.759773,0 1.519547,0 2.27932,0 0.525999,0 1.051996,0 1.577993,0 0.233775,0 0.47312,-0.0507 0.701329,0 0.307236,0.0683 0.589057,0.22284 0.876662,0.35066 0.448871,0.1995 0.879229,0.526 1.402659,0.526 0.413264,0 0.814065,-0.17533 1.227326,-0.17533 0.413263,0 0.819256,0.11004 1.227328,0.17533 0.244671,0.0392 1.353029,0.22833 1.665658,0.35066 0.450453,0.17627 0.854051,0.46701 1.314992,0.61367 0.194927,0.062 0.410903,-0.027 0.613664,0 0.238858,0.0318 0.463161,0.13869 0.701328,0.17533 0.144413,0.0222 0.298683,-0.043 0.438333,0 1.613643,0.49651 0.15408,0.16589 0.964327,0.526 0.168889,0.0751 0.363749,0.0868 0.525997,0.17533 0.164266,0.0896 0.267345,0.27467 0.438332,0.35067 0.106813,0.0475 0.239774,-0.037 0.350666,0 0.247957,0.0827 0.463386,0.24251 0.701328,0.35066 0.08413,0.0382 0.175332,0.0584 0.262999,0.0877 0.233778,0.11688 0.471874,0.2255 0.701331,0.35066 0.09249,0.0504 0.183001,0.10676 0.262998,0.17533 0.125508,0.10758 0.199607,0.28353 0.350663,0.35067 0.133519,0.0593 0.292222,0 0.438333,0 0.175331,0.0292 0.364177,0.0141 0.525997,0.0877 0.170341,0.0774 0.287006,0.24061 0.43833,0.35066 0.17042,0.12394 0.350665,0.23378 0.525996,0.35066 0.175335,0.11689 0.348219,0.23754 0.525997,0.35067 0.143754,0.0915 0.283213,0.19249 0.438333,0.263 0.168251,0.0765 0.372221,0.0728 0.525997,0.17533 0.206311,0.13754 0.314822,0.39604 0.525997,0.526 0.181181,0.1115 0.413731,0.10263 0.613664,0.17533 0.122817,0.0447 0.233775,0.11689 0.350663,0.17533 0.233778,0.11689 0.480822,0.21034 0.701331,0.35067 0.189449,0.12056 0.572495,0.6552 0.613664,0.78899 0.06016,0.19551 -0.135901,0.46078 0,0.61367 0.160091,0.1801 0.474866,0.093 0.701328,0.17533 0.09902,0.036 0.175332,0.11689 0.262999,0.17533 0.310687,0.20713 0.589944,0.409 0.964329,0.526 0.22487,0.0703 0.483857,-0.003 0.701329,0.0877 0.15259,0.0636 0.225155,0.24309 0.350665,0.35067 0.08,0.0686 0.166156,0.13383 0.262999,0.17533 0.110744,0.0475 0.239921,0.0402 0.350665,0.0877 0.09684,0.0415 0.163042,0.14201 0.262999,0.17533 0.08317,0.0277 0.175331,0 0.262998,0 0.262998,0 0.525997,0 0.788995,0 1.665658,0 3.331316,0 4.996974,0 0.730552,0 1.461103,0 2.191655,0 0.233775,0 0.474533,0.0567 0.701328,0 1.414187,-0.35354 0.02469,-0.35395 1.314997,-0.526 0.23172,-0.0309 0.47453,0.0567 0.70133,0 0.25356,-0.0634 0.46755,-0.23377 0.70133,-0.35066 0.23377,-0.11689 0.46755,-0.23378 0.70133,-0.35067 0.23377,-0.11689 0.48385,-0.20568 0.70132,-0.35066 0.13755,-0.0917 0.19172,-0.30525 0.35067,-0.35067 0.28098,-0.0803 0.59474,0.0769 0.87666,0 0.0892,-0.0243 0.0255,-0.19462 0.0877,-0.26299 0.263,-0.23378 0.526,-0.46756 0.789,-0.70133 0.0877,0 0.18688,0.0435 0.26299,0 0.11689,-0.11689 0.23378,-0.23378 0.35067,-0.35067 0,-0.0877 -0.062,-0.20101 0,-0.263 0.062,-0.062 0.20101,0.062 0.26299,0 0.062,-0.062 -0.0277,-0.17983 0,-0.263 0.009,-0.0277 0.0877,-0.0292 0.0877,0 0,0.0292 -0.0877,0.0292 -0.0877,0 0,-0.29303 0.19254,-0.12262 0.35067,-0.17533 0.0277,-0.009 -0.0292,-0.0877 0,-0.0877 0.11689,0 -0.0877,0.20455 -0.0877,0.0877 0,-0.0292 0.11689,0 0.0877,0 -0.17533,0 -0.35067,0 -0.526,0"
       id="path13886"
       inkscape:connector-curvature="0" />
    <path
       style="fill:none;stroke:#000000;stroke-width:4.06500006;stroke-linecap:butt;stroke-linejoin:miter;stroke-miterlimit:4;stroke-dasharray:none;stroke-opacity:1"
       d="m 50.383932,209.53133 c 0.08767,-0.11689 0.175332,-0.23377 0.262998,-0.35066 0.02922,0 0.06261,0.015 0.08767,0 0.125288,-0.0752 0.21765,-0.20254 0.350664,-0.263 0.193672,-0.088 0.4269,-0.0735 0.613664,-0.17533 0.798478,-0.43554 -0.02482,-0.25237 0.613663,-0.526 0.456963,-0.19584 0.246845,0.0514 0.613664,-0.263 0.125509,-0.10758 0.233776,-0.23378 0.350664,-0.35066 0.08767,-0.0877 0.162113,-0.19094 0.262999,-0.263 0.31004,-0.22146 0.684361,-0.35524 0.964328,-0.61367 0.115633,-0.10674 0.08387,-0.31027 0.175333,-0.43833 0.204526,-0.28633 0.452512,-0.54018 0.701329,-0.78899 0.103316,-0.10332 0.247349,-0.15969 0.350665,-0.263 0.248817,-0.24882 0.431008,-0.56373 0.70133,-0.789 0.09256,-0.0771 0.252621,-0.0176 0.350664,-0.0877 0.118895,-0.0849 0.152064,-0.25558 0.262999,-0.35067 0.09922,-0.0851 0.225007,-0.13943 0.350666,-0.17533 0.08429,-0.0241 0.262998,-0.0877 0.262998,0 0,0.0877 -0.262998,0.0877 -0.262998,0 0,-0.0924 0.180345,-0.0463 0.262998,-0.0877 0.09424,-0.0471 0.159682,-0.15467 0.262999,-0.17533 0.06407,-0.0128 0.110646,0.0784 0.175331,0.0877 0.144643,0.0207 0.292222,0 0.43833,0 0.526,0 1.051997,0 1.577994,0 1.110437,0 2.220875,0 3.331315,0 0.584441,0 1.168882,0 1.753323,0 0.08767,0 0.176747,-0.0157 0.262998,0 0.237085,0.0431 0.464246,0.13222 0.701331,0.17533 0.08625,0.0157 0.176747,-0.0157 0.262999,0 0.237085,0.0431 0.464245,0.13222 0.701328,0.17533 0.08625,0.0157 0.18061,-0.03 0.262998,0 0.233778,0.11689 0.467554,0.23378 0.701332,0.35067 0,0.0877 -0.05705,0.19643 0,0.26299 0.137136,0.16 0.343037,0.24612 0.525996,0.35067 0.226934,0.12968 0.467554,0.23378 0.701329,0.35066 0.233778,0.11689 0.455697,0.26135 0.701331,0.35067 0.08239,0.03 0.195149,-0.0555 0.262998,0 0.272341,0.22282 0.42181,0.57525 0.701329,0.78899 0.228621,0.17483 0.528587,0.22812 0.788995,0.35067 0.236493,0.11129 0.448786,0.28332 0.701331,0.35067 0.197647,0.0527 0.412409,-0.0366 0.613664,0 0.128577,0.0234 0.226685,0.134 0.350663,0.17533 0.228605,0.0762 0.498033,0.046 0.701331,0.17533 0.143754,0.0915 0.132099,0.32925 0.262999,0.43833 0.06735,0.0561 0.190055,-0.0486 0.262998,0 0.04863,0.0324 -0.03651,0.12969 0,0.17533 0.09127,0.1141 0.235331,0.1733 0.350666,0.263 0.147695,0.11488 0.28607,0.24191 0.438329,0.35067 0.05317,0.038 0.12431,0.0468 0.175332,0.0877 0.09681,0.0774 0.167756,0.18363 0.262998,0.263 0.08094,0.0675 0.161693,0.14639 0.262999,0.17533 0.112392,0.0321 0.233778,0 0.350665,0 0.08767,0 0.20101,-0.062 0.262999,0 0.138612,0.13862 0.08387,0.44639 0.262998,0.526 0.484971,0.21554 0.601456,-0.73832 1.051994,0.0877 0.111945,0.20523 -0.153942,0.52539 0,0.70133 0.134702,0.15394 0.419608,-0.0647 0.613664,0 0.09995,0.0333 0.10083,0.18849 0.175334,0.26299 0.132308,0.13231 0.275871,0.25783 0.43833,0.35067 0.05074,0.029 0.134006,-0.0413 0.175332,0 0.177752,0.17775 0.26058,0.43591 0.438332,0.61366 0.09241,0.0924 0.264607,0.077 0.350666,0.17533 0.129085,0.14753 0.142647,0.37127 0.262998,0.526 0.0897,0.11533 0.24206,0.16526 0.350663,0.263 0.184306,0.16588 0.350666,0.35067 0.525997,0.526 0.133882,0.13388 0.216784,0.30445 0.350666,0.43833 0.103317,0.10331 0.25238,0.15488 0.350665,0.263 0.19657,0.21622 0.358421,0.46193 0.525997,0.70133 0.03747,0.0535 0.0333,0.13908 0.08767,0.17533 0.02798,0.0186 1.237845,0 0.43833,0 -0.05844,0 0.116888,0 0.175331,0 0.292222,0 0.584444,0 0.876663,0 0.08767,0 0.175334,0 0.262998,0 0.08767,0 0.262999,-0.0877 0.262999,0 0,0.0877 -0.350663,0 -0.262999,0 0.379889,0 0.759775,0 1.139661,0 0.379886,0 0.759775,0 1.139661,0 0.08767,0 0.175332,0 0.262999,0 0.02922,0 0.08767,-0.0292 0.08767,0 0,0.0292 -0.05844,0 -0.08767,0 -0.05844,0 -0.175332,0.0584 -0.175332,0 0,-0.0585 0.116888,0 0.175332,0 0.02922,0 0.08767,-0.0292 0.08767,0 0,0.0292 -0.08767,0.0292 -0.08767,0 0,-0.0292 0.067,-0.0207 0.08767,0 0.02066,0.0207 0.02922,0.0877 0,0.0877 -0.02922,0 -0.02066,-0.067 0,-0.0877 0.02037,-0.0204 0.347276,0.007 0.350663,0 0.02614,-0.0523 -0.05844,-0.17533 0,-0.17533 0.11689,0 -0.175332,0.40911 0.175334,0.17533 0.05437,-0.0362 0.05844,-0.11689 0.08766,-0.17533 0.146111,0 0.295058,0.0286 0.438333,0 0.02865,-0.006 -0.02066,-0.067 0,-0.0877 0.0745,-0.0745 0.168759,-0.12821 0.262998,-0.17533 0.02614,-0.0131 0.05844,0 0.08767,0 0.08767,0 0.175332,0 0.262999,0 0.05844,0 0.175331,0.0584 0.175331,0 0,-0.1138 -0.444251,-0.0877 0,-0.0877 0.02922,0 0.05844,0 0.08767,0 0.05844,0 0.175332,-0.0584 0.175332,0 0,0.0584 -0.175332,0.0584 -0.175332,0 0,-0.0584 0.175332,-0.0584 0.175332,0 0,0.0584 -0.175332,0.0584 -0.175332,0 0,-0.0584 0.116888,0 0.175332,0 0.02922,0 0.05844,0 0.08767,0 0.239413,0 -0.03267,0.0131 0.43833,-0.17533 0.02713,-0.0109 0.05844,0 0.08767,0 0.02922,0 0.116887,0 0.08766,0 -0.08766,0 -0.175331,0 -0.262999,0 -0.08766,0 0.350666,0 0.262999,0 -0.08766,0 -0.175331,0 -0.262999,0 -0.05844,0 0.467554,0 0.175335,0"
       id="path13892"
       inkscape:connector-curvature="0" />
  </g>
</svg>
