<?xml version="1.0" encoding="UTF-8" standalone="no"?>
<!-- Created with Inkscape (http://www.inkscape.org/) -->

<svg
   xmlns:dc="http://purl.org/dc/elements/1.1/"
   xmlns:cc="http://creativecommons.org/ns#"
   xmlns:rdf="http://www.w3.org/1999/02/22-rdf-syntax-ns#"
   xmlns:svg="http://www.w3.org/2000/svg"
   xmlns="http://www.w3.org/2000/svg"
   xmlns:sodipodi="http://sodipodi.sourceforge.net/DTD/sodipodi-0.dtd"
   xmlns:inkscape="http://www.inkscape.org/namespaces/inkscape"
   width="256"
   height="256"
   id="svg5294"
   sodipodi:version="0.32"
   inkscape:version="0.92.4 (5da689c313, 2019-01-14)"
   version="1.0"
   sodipodi:docname="Pictograms-nps-misc-lookout_tower.svg"
   inkscape:output_extension="org.inkscape.output.svg.inkscape">
  <defs
     id="defs5296">
    <inkscape:perspective
       sodipodi:type="inkscape:persp3d"
       inkscape:vp_x="0 : 526.18109 : 1"
       inkscape:vp_y="0 : 1000 : 0"
       inkscape:vp_z="744.09448 : 526.18109 : 1"
       inkscape:persp3d-origin="372.04724 : 350.78739 : 1"
       id="perspective5302" />
  </defs>
  <sodipodi:namedview
     id="base"
     pagecolor="#ffffff"
     bordercolor="#666666"
     borderopacity="1.0"
     gridtolerance="10000"
     guidetolerance="10"
     objecttolerance="10"
     inkscape:pageopacity="0.0"
     inkscape:pageshadow="2"
     inkscape:zoom="4.7122436"
     inkscape:cx="503.43973"
     inkscape:cy="90.408653"
     inkscape:document-units="px"
     inkscape:current-layer="layer1"
     showgrid="false"
     inkscape:window-width="4200"
     inkscape:window-height="2569"
     inkscape:window-x="-16"
     inkscape:window-y="-16"
     inkscape:window-maximized="1" />
  <metadata
     id="metadata5299">
    <rdf:RDF>
      <cc:Work
         rdf:about="">
        <dc:format>image/svg+xml</dc:format>
        <dc:type
           rdf:resource="http://purl.org/dc/dcmitype/StillImage" />
        <dc:title></dc:title>
      </cc:Work>
    </rdf:RDF>
  </metadata>
  <g
     inkscape:label="Layer 1"
     inkscape:groupmode="layer"
     id="layer1">
    <g
       id="g7532"
       transform="matrix(25.897825,0,0,-25.897825,-255.67488,10.547048)">
      <path
         d="m 0,0 c -0.541,0 -0.981,-0.44 -0.981,-0.981 v -7.522 c 0,-0.54 0.44,-0.979 0.981,-0.979 h 7.521 c 0.542,0 0.982,0.439 0.982,0.979 v 7.522 C 8.503,-0.44 8.063,0 7.521,0 Z"
         style="fill:#ffffff;fill-opacity:1;fill-rule:nonzero;stroke:none"
         id="path7534"
         inkscape:connector-curvature="0" />
    </g>
    <path
       d="M 95.961614,77.905837 L 158.94512,77.905837 L 158.94512,53.121619 L 95.961614,53.121619 L 95.961614,77.905837 z M 152.15989,135.91697 L 136.93197,154.38211 L 163.32186,186.54721 L 152.15989,135.91697 z M 148.09394,117.6072 L 143.25104,95.464562 L 111.68159,95.464562 L 106.8387,117.55541 L 127.45337,142.85758 L 148.09394,117.6072 z M 91.558984,186.54721 L 117.94887,154.38211 L 102.72095,135.91697 L 91.558984,186.54721 z M 84.514776,218.32384 L 81.8473,230.49582 L 64.392166,230.44403 L 94.278256,95.516358 L 77.030304,95.360971 L 77.030304,46.232797 L 127.45337,23.623996 L 177.90233,46.232797 L 177.90233,95.360971 L 160.65438,95.516358 L 190.48868,230.44403 L 173.08534,230.49582 L 170.41786,218.37564 L 127.45337,166.01024 L 84.514776,218.32384 z"
       style="fill:#231f20;fill-opacity:1;fill-rule:nonzero;stroke:none"
       id="path7536" />
  </g>
</svg>
