<?xml version="1.0" encoding="UTF-8" standalone="no"?>
<!-- Created with Inkscape (http://www.inkscape.org/) -->

<svg
   xmlns:dc="http://purl.org/dc/elements/1.1/"
   xmlns:cc="http://creativecommons.org/ns#"
   xmlns:rdf="http://www.w3.org/1999/02/22-rdf-syntax-ns#"
   xmlns:svg="http://www.w3.org/2000/svg"
   xmlns="http://www.w3.org/2000/svg"
   xmlns:sodipodi="http://sodipodi.sourceforge.net/DTD/sodipodi-0.dtd"
   xmlns:inkscape="http://www.inkscape.org/namespaces/inkscape"
   width="36.095695mm"
   height="54.820839mm"
   viewBox="0 0 36.095695 54.820839"
   version="1.1"
   id="svg8"
   inkscape:version="0.92.4 (5da689c313, 2019-01-14)"
   sodipodi:docname="PillarYB.svg">
  <defs
     id="defs2" />
  <sodipodi:namedview
     id="base"
     pagecolor="#ffffff"
     bordercolor="#666666"
     borderopacity="1.0"
     inkscape:pageopacity="0.0"
     inkscape:pageshadow="2"
     inkscape:zoom="1"
     inkscape:cx="-17.289446"
     inkscape:cy="106.40585"
     inkscape:document-units="mm"
     inkscape:current-layer="layer1"
     showgrid="false"
     inkscape:window-width="3840"
     inkscape:window-height="2104"
     inkscape:window-x="-16"
     inkscape:window-y="-16"
     inkscape:window-maximized="1" />
  <metadata
     id="metadata5">
    <rdf:RDF>
      <cc:Work
         rdf:about="">
        <dc:format>image/svg+xml</dc:format>
        <dc:type
           rdf:resource="http://purl.org/dc/dcmitype/StillImage" />
        <dc:title />
      </cc:Work>
    </rdf:RDF>
  </metadata>
  <g
     inkscape:label="Calque 1"
     inkscape:groupmode="layer"
     id="layer1"
     transform="translate(-79.287114,-99.50533)">
    <path
       style="color:#000000;font-style:normal;font-variant:normal;font-weight:normal;font-stretch:normal;font-size:medium;line-height:normal;font-family:sans-serif;font-variant-ligatures:normal;font-variant-position:normal;font-variant-caps:normal;font-variant-numeric:normal;font-variant-alternates:normal;font-feature-settings:normal;text-indent:0;text-align:start;text-decoration:none;text-decoration-line:none;text-decoration-style:solid;text-decoration-color:#000000;letter-spacing:normal;word-spacing:normal;text-transform:none;writing-mode:lr-tb;direction:ltr;text-orientation:mixed;dominant-baseline:auto;baseline-shift:baseline;text-anchor:start;white-space:normal;shape-padding:0;clip-rule:nonzero;display:inline;overflow:visible;visibility:visible;opacity:1;isolation:auto;mix-blend-mode:normal;color-interpolation:sRGB;color-interpolation-filters:linearRGB;solid-color:#000000;solid-opacity:1;vector-effect:none;fill:#000000;fill-opacity:1;fill-rule:nonzero;stroke:none;stroke-width:1;stroke-linecap:butt;stroke-linejoin:miter;stroke-miterlimit:4;stroke-dasharray:none;stroke-dashoffset:0;stroke-opacity:1;color-rendering:auto;image-rendering:auto;shape-rendering:auto;text-rendering:auto;enable-background:accumulate"
       d="m 79.333984,149.82422 -0.04687,0.99805 14.81836,0.68945 0.04687,-0.99805 z"
       id="path826"
       inkscape:connector-curvature="0" />
    <path
       style="color:#000000;font-style:normal;font-variant:normal;font-weight:normal;font-stretch:normal;font-size:medium;line-height:normal;font-family:sans-serif;font-variant-ligatures:normal;font-variant-position:normal;font-variant-caps:normal;font-variant-numeric:normal;font-variant-alternates:normal;font-feature-settings:normal;text-indent:0;text-align:start;text-decoration:none;text-decoration-line:none;text-decoration-style:solid;text-decoration-color:#000000;letter-spacing:normal;word-spacing:normal;text-transform:none;writing-mode:lr-tb;direction:ltr;text-orientation:mixed;dominant-baseline:auto;baseline-shift:baseline;text-anchor:start;white-space:normal;shape-padding:0;clip-rule:nonzero;display:inline;overflow:visible;visibility:visible;opacity:1;isolation:auto;mix-blend-mode:normal;color-interpolation:sRGB;color-interpolation-filters:linearRGB;solid-color:#000000;solid-opacity:1;vector-effect:none;fill:#000000;fill-opacity:1;fill-rule:nonzero;stroke:none;stroke-width:1;stroke-linecap:butt;stroke-linejoin:miter;stroke-miterlimit:4;stroke-dasharray:none;stroke-dashoffset:0;stroke-opacity:1;color-rendering:auto;image-rendering:auto;shape-rendering:auto;text-rendering:auto;enable-background:accumulate"
       d="m 101.59961,150.2832 -0.0117,1 13.7832,0.17188 0.0117,-1 z"
       id="path828"
       inkscape:connector-curvature="0" />
    <path
       style="color:#000000;font-style:normal;font-variant:normal;font-weight:normal;font-stretch:normal;font-size:medium;line-height:normal;font-family:sans-serif;font-variant-ligatures:normal;font-variant-position:normal;font-variant-caps:normal;font-variant-numeric:normal;font-variant-alternates:normal;font-feature-settings:normal;text-indent:0;text-align:start;text-decoration:none;text-decoration-line:none;text-decoration-style:solid;text-decoration-color:#000000;letter-spacing:normal;word-spacing:normal;text-transform:none;writing-mode:lr-tb;direction:ltr;text-orientation:mixed;dominant-baseline:auto;baseline-shift:baseline;text-anchor:start;white-space:normal;shape-padding:0;clip-rule:nonzero;display:inline;overflow:visible;visibility:visible;opacity:1;isolation:auto;mix-blend-mode:normal;color-interpolation:sRGB;color-interpolation-filters:linearRGB;solid-color:#000000;solid-opacity:1;vector-effect:none;fill:#000000;fill-opacity:1;fill-rule:nonzero;stroke:none;stroke-width:1.02102363;stroke-linecap:butt;stroke-linejoin:miter;stroke-miterlimit:4;stroke-dasharray:none;stroke-dashoffset:0;stroke-opacity:1;color-rendering:auto;image-rendering:auto;shape-rendering:auto;text-rendering:auto;enable-background:accumulate"
       d="m 87.822266,137.59375 -2.404297,12.79102 1.003906,0.18945 2.404297,-12.79297 z"
       id="path830"
       inkscape:connector-curvature="0" />
    <path
       style="color:#000000;font-style:normal;font-variant:normal;font-weight:normal;font-stretch:normal;font-size:medium;line-height:normal;font-family:sans-serif;font-variant-ligatures:normal;font-variant-position:normal;font-variant-caps:normal;font-variant-numeric:normal;font-variant-alternates:normal;font-feature-settings:normal;text-indent:0;text-align:start;text-decoration:none;text-decoration-line:none;text-decoration-style:solid;text-decoration-color:#000000;letter-spacing:normal;word-spacing:normal;text-transform:none;writing-mode:lr-tb;direction:ltr;text-orientation:mixed;dominant-baseline:auto;baseline-shift:baseline;text-anchor:start;white-space:normal;shape-padding:0;clip-rule:nonzero;display:inline;overflow:visible;visibility:visible;opacity:1;isolation:auto;mix-blend-mode:normal;color-interpolation:sRGB;color-interpolation-filters:linearRGB;solid-color:#000000;solid-opacity:1;vector-effect:none;fill:#000000;fill-opacity:1;fill-rule:nonzero;stroke:none;stroke-width:1;stroke-linecap:butt;stroke-linejoin:miter;stroke-miterlimit:4;stroke-dasharray:none;stroke-dashoffset:0;stroke-opacity:1;color-rendering:auto;image-rendering:auto;shape-rendering:auto;text-rendering:auto;enable-background:accumulate"
       d="m 102.39258,117.29102 -7.179689,18.32031 0.93164,0.36523 7.177739,-18.32031 z"
       id="path832"
       inkscape:connector-curvature="0" />
    <path
       style="color:#000000;font-style:normal;font-variant:normal;font-weight:normal;font-stretch:normal;font-size:medium;line-height:normal;font-family:sans-serif;font-variant-ligatures:normal;font-variant-position:normal;font-variant-caps:normal;font-variant-numeric:normal;font-variant-alternates:normal;font-feature-settings:normal;text-indent:0;text-align:start;text-decoration:none;text-decoration-line:none;text-decoration-style:solid;text-decoration-color:#000000;letter-spacing:normal;word-spacing:normal;text-transform:none;writing-mode:lr-tb;direction:ltr;text-orientation:mixed;dominant-baseline:auto;baseline-shift:baseline;text-anchor:start;white-space:normal;shape-padding:0;clip-rule:nonzero;display:inline;overflow:visible;visibility:visible;opacity:1;isolation:auto;mix-blend-mode:normal;color-interpolation:sRGB;color-interpolation-filters:linearRGB;solid-color:#000000;solid-opacity:1;vector-effect:none;fill:#000000;fill-opacity:1;fill-rule:nonzero;stroke:none;stroke-width:1;stroke-linecap:butt;stroke-linejoin:miter;stroke-miterlimit:4;stroke-dasharray:none;stroke-dashoffset:0;stroke-opacity:1;color-rendering:auto;image-rendering:auto;shape-rendering:auto;text-rendering:auto;enable-background:accumulate"
       d="m 108.10352,118.84961 -2.29688,19.06641 0.99414,0.11914 2.29688,-19.06641 z"
       id="path834"
       inkscape:connector-curvature="0" />
    <path
       style="color:#000000;font-style:normal;font-variant:normal;font-weight:normal;font-stretch:normal;font-size:medium;line-height:normal;font-family:sans-serif;font-variant-ligatures:normal;font-variant-position:normal;font-variant-caps:normal;font-variant-numeric:normal;font-variant-alternates:normal;font-feature-settings:normal;text-indent:0;text-align:start;text-decoration:none;text-decoration-line:none;text-decoration-style:solid;text-decoration-color:#000000;letter-spacing:normal;word-spacing:normal;text-transform:none;writing-mode:lr-tb;direction:ltr;text-orientation:mixed;dominant-baseline:auto;baseline-shift:baseline;text-anchor:start;white-space:normal;shape-padding:0;clip-rule:nonzero;display:inline;overflow:visible;visibility:visible;opacity:1;isolation:auto;mix-blend-mode:normal;color-interpolation:sRGB;color-interpolation-filters:linearRGB;solid-color:#000000;solid-opacity:1;vector-effect:none;fill:#000000;fill-opacity:1;fill-rule:nonzero;stroke:none;stroke-width:1.03908801;stroke-linecap:butt;stroke-linejoin:miter;stroke-miterlimit:4;stroke-dasharray:none;stroke-dashoffset:0;stroke-opacity:1;color-rendering:auto;image-rendering:auto;shape-rendering:auto;text-rendering:auto;enable-background:accumulate"
       d="m 110.26562,142.24414 -1.5957,8.62695 1.02149,0.1875 1.5957,-8.625 z"
       id="path836"
       inkscape:connector-curvature="0" />
    <path
       style="color:#000000;font-style:normal;font-variant:normal;font-weight:normal;font-stretch:normal;font-size:medium;line-height:normal;font-family:sans-serif;font-variant-ligatures:normal;font-variant-position:normal;font-variant-caps:normal;font-variant-numeric:normal;font-variant-alternates:normal;font-feature-settings:normal;text-indent:0;text-align:start;text-decoration:none;text-decoration-line:none;text-decoration-style:solid;text-decoration-color:#000000;letter-spacing:normal;word-spacing:normal;text-transform:none;writing-mode:lr-tb;direction:ltr;text-orientation:mixed;dominant-baseline:auto;baseline-shift:baseline;text-anchor:start;white-space:normal;shape-padding:0;clip-rule:nonzero;display:inline;overflow:visible;visibility:visible;opacity:1;isolation:auto;mix-blend-mode:normal;color-interpolation:sRGB;color-interpolation-filters:linearRGB;solid-color:#000000;solid-opacity:1;vector-effect:none;fill:#000000;fill-opacity:1;fill-rule:nonzero;stroke:none;stroke-width:1.04402506;stroke-linecap:butt;stroke-linejoin:miter;stroke-miterlimit:4;stroke-dasharray:none;stroke-dashoffset:0;stroke-opacity:1;color-rendering:auto;image-rendering:auto;shape-rendering:auto;text-rendering:auto;enable-background:accumulate"
       d="m 96.048828,135.29297 -8.083984,1.87891 0.236328,1.01562 8.083984,-1.87695 z"
       id="path838"
       inkscape:connector-curvature="0" />
    <path
       style="color:#000000;font-style:normal;font-variant:normal;font-weight:normal;font-stretch:normal;font-size:medium;line-height:normal;font-family:sans-serif;font-variant-ligatures:normal;font-variant-position:normal;font-variant-caps:normal;font-variant-numeric:normal;font-variant-alternates:normal;font-feature-settings:normal;text-indent:0;text-align:start;text-decoration:none;text-decoration-line:none;text-decoration-style:solid;text-decoration-color:#000000;letter-spacing:normal;word-spacing:normal;text-transform:none;writing-mode:lr-tb;direction:ltr;text-orientation:mixed;dominant-baseline:auto;baseline-shift:baseline;text-anchor:start;white-space:normal;shape-padding:0;clip-rule:nonzero;display:inline;overflow:visible;visibility:visible;opacity:1;isolation:auto;mix-blend-mode:normal;color-interpolation:sRGB;color-interpolation-filters:linearRGB;solid-color:#000000;solid-opacity:1;vector-effect:none;fill:#000000;fill-opacity:1;fill-rule:nonzero;stroke:none;stroke-width:1;stroke-linecap:butt;stroke-linejoin:miter;stroke-miterlimit:4;stroke-dasharray:none;stroke-dashoffset:0;stroke-opacity:1;color-rendering:auto;image-rendering:auto;shape-rendering:auto;text-rendering:auto;enable-background:accumulate"
       d="m 106.65234,137.61719 -0.69726,0.71679 4.47851,4.36524 0.69922,-0.7168 z"
       id="path840"
       inkscape:connector-curvature="0" />
    <path
       style="color:#000000;font-style:normal;font-variant:normal;font-weight:normal;font-stretch:normal;font-size:medium;line-height:normal;font-family:sans-serif;font-variant-ligatures:normal;font-variant-position:normal;font-variant-caps:normal;font-variant-numeric:normal;font-variant-alternates:normal;font-feature-settings:normal;text-indent:0;text-align:start;text-decoration:none;text-decoration-line:none;text-decoration-style:solid;text-decoration-color:#000000;letter-spacing:normal;word-spacing:normal;text-transform:none;writing-mode:lr-tb;direction:ltr;text-orientation:mixed;dominant-baseline:auto;baseline-shift:baseline;text-anchor:start;white-space:normal;shape-padding:0;clip-rule:nonzero;display:inline;overflow:visible;visibility:visible;opacity:1;isolation:auto;mix-blend-mode:normal;color-interpolation:sRGB;color-interpolation-filters:linearRGB;solid-color:#000000;solid-opacity:1;vector-effect:none;fill:#000000;fill-opacity:1;fill-rule:nonzero;stroke:none;stroke-width:1;stroke-linecap:butt;stroke-linejoin:miter;stroke-miterlimit:4;stroke-dasharray:none;stroke-dashoffset:0;stroke-opacity:1;color-rendering:auto;image-rendering:auto;shape-rendering:auto;text-rendering:auto;enable-background:accumulate"
       d="m 102.97852,116.98828 -0.24219,0.9707 5.74219,1.43555 0.24414,-0.9707 z"
       id="path842"
       inkscape:connector-curvature="0" />
    <path
       style="color:#000000;font-style:normal;font-variant:normal;font-weight:normal;font-stretch:normal;font-size:medium;line-height:normal;font-family:sans-serif;font-variant-ligatures:normal;font-variant-position:normal;font-variant-caps:normal;font-variant-numeric:normal;font-variant-alternates:normal;font-feature-settings:normal;text-indent:0;text-align:start;text-decoration:none;text-decoration-line:none;text-decoration-style:solid;text-decoration-color:#000000;letter-spacing:normal;word-spacing:normal;text-transform:none;writing-mode:lr-tb;direction:ltr;text-orientation:mixed;dominant-baseline:auto;baseline-shift:baseline;text-anchor:start;white-space:normal;shape-padding:0;clip-rule:nonzero;display:inline;overflow:visible;visibility:visible;opacity:1;isolation:auto;mix-blend-mode:normal;color-interpolation:sRGB;color-interpolation-filters:linearRGB;solid-color:#000000;solid-opacity:1;vector-effect:none;fill:#000000;fill-opacity:1;fill-rule:evenodd;stroke:none;stroke-width:1;stroke-linecap:butt;stroke-linejoin:miter;stroke-miterlimit:4;stroke-dasharray:none;stroke-dashoffset:0;stroke-opacity:1;color-rendering:auto;image-rendering:auto;shape-rendering:auto;text-rendering:auto;enable-background:accumulate"
       d="m 97.804688,146.20508 c -2.128492,0 -3.832032,1.84125 -3.832032,4.06054 0,2.2193 1.70354,4.06055 3.832032,4.06055 2.128491,0 3.830082,-1.84125 3.830082,-4.06055 0,-2.21929 -1.701591,-4.06054 -3.830082,-4.06054 z m 0,1 c 1.550779,0 2.830082,1.34682 2.830082,3.06054 0,1.71373 -1.279303,3.06055 -2.830082,3.06055 -1.55078,0 -2.832032,-1.34682 -2.832032,-3.06055 0,-1.71372 1.281252,-3.06054 2.832032,-3.06054 z"
       id="path844"
       inkscape:connector-curvature="0" />
    <path
       style="fill:none;fill-opacity:0.99680002;fill-rule:evenodd;stroke:#000000;stroke-width:0.49769807;stroke-miterlimit:4;stroke-dasharray:none;stroke-dashoffset:0;stroke-opacity:1"
       d="m 40.545723,125.93637 c -7.190003,-0.34255 -13.099581,-0.64966 -13.132396,-0.68247 -0.08954,-0.0895 8.451798,-45.420419 8.580364,-45.538009 0.06104,-0.05583 6.456925,-1.57158 14.213083,-3.368339 L 64.308876,73.080718 64.122398,72.216411 63.935921,71.352106 76.995317,38.036405 C 84.177986,19.71277 90.104265,4.5936546 90.164826,4.4383712 c 0.108409,-0.2779678 0.250863,-0.2471343 9.212581,1.9940177 5.006353,1.2519931 9.135953,2.3098366 9.176883,2.3507636 0.0576,0.057557 -8.03148,67.8264965 -8.34286,69.8954425 l -0.0721,0.478992 0.95009,0.09541 0.95009,0.09541 -0.66617,0.676578 -0.66617,0.676578 8.02655,7.81612 c 5.35676,5.216329 8.02654,7.904111 8.02654,8.080658 0,0.217986 -4.81645,26.470269 -5.28328,28.796779 l -0.14278,0.71157 -7.59113,-0.0868 c -4.175128,-0.0478 -10.213269,-0.12529 -13.418094,-0.17232 l -5.826956,-0.0855 -5.26e-4,-0.67092 c -7.9e-4,-0.98753 -0.34368,-2.93205 -0.73766,-4.18312 -0.785535,-2.49444 -1.997732,-4.46549 -3.918627,-6.37176 -2.634685,-2.61461 -5.570332,-3.93563 -9.115773,-4.10203 -2.67949,-0.12575 -4.773986,0.32776 -7.164949,1.55138 -4.736729,2.42411 -7.735995,7.30116 -8.112606,13.19177 l -0.0905,1.41559 -0.869464,-0.0169 c -0.478205,-0.009 -6.752193,-0.29715 -13.942198,-0.6397 z"
       id="path868"
       inkscape:connector-curvature="0"
       transform="matrix(0.26458333,0,0,0.26458333,79.287956,116.98794)" />
    <path
       style="fill:none;stroke:#000000;stroke-width:1;stroke-linecap:butt;stroke-linejoin:miter;stroke-miterlimit:4;stroke-dasharray:none;stroke-opacity:1"
       d="m 88.201172,138.1875 22.931638,3.79492"
       id="path870"
       inkscape:connector-curvature="0" />
    <path
       sodipodi:type="star"
       style="fill:#000000;fill-opacity:1;fill-rule:evenodd;stroke:#000000;stroke-width:0.1;stroke-miterlimit:4;stroke-dasharray:none;stroke-dashoffset:0;stroke-opacity:1"
       id="path874"
       sodipodi:sides="3"
       sodipodi:cx="107.16077"
       sodipodi:cy="111.68096"
       sodipodi:r1="5.5036688"
       sodipodi:r2="2.7518344"
       sodipodi:arg1="1.8464873"
       sodipodi:arg2="2.8936848"
       inkscape:flatsided="false"
       inkscape:rounded="0"
       inkscape:randomized="0"
       d="m 105.6626,116.9768 -1.16954,-4.6206 -1.16954,-4.6206 4.58633,1.29744 4.58633,1.29745 -3.41679,3.32315 z"
       inkscape:transform-center-x="-0.19496867"
       inkscape:transform-center-y="2.7193014"
       transform="rotate(-123.41432,106.02373,106.8771)" />
    <path
       sodipodi:type="star"
       style="fill:#000000;fill-opacity:1;fill-rule:evenodd;stroke:#000000;stroke-width:0.1;stroke-miterlimit:4;stroke-dasharray:none;stroke-dashoffset:0;stroke-opacity:1"
       id="path891"
       sodipodi:sides="3"
       sodipodi:cx="123.04828"
       sodipodi:cy="120.6351"
       sodipodi:r1="5.420887"
       sodipodi:r2="2.7104435"
       sodipodi:arg1="0.76721835"
       sodipodi:arg2="1.8144159"
       inkscape:flatsided="false"
       inkscape:rounded="0"
       inkscape:randomized="0"
       d="m 126.95047,124.39793 -4.556,-1.13242 -4.556,-1.13242 3.25871,-3.3794 3.25871,-3.3794 1.29729,4.51182 z"
       inkscape:transform-center-x="-1.7478063"
       inkscape:transform-center-y="0.99682991"
       transform="rotate(-62.953979,107.92014,129.10157)" />
    <path
       style="fill:#000000;fill-opacity:1;fill-rule:evenodd;stroke:#000000;stroke-width:0.0497698;stroke-miterlimit:4;stroke-dasharray:none;stroke-dashoffset:0;stroke-opacity:1"
       d="m 74.796701,84.961109 c -19.277627,-3.19701 -35.039479,-5.823497 -35.026336,-5.836641 0.02936,-0.02936 12.208697,-2.873189 19.378763,-4.524868 2.897017,-0.667349 5.31724,-1.258947 5.378273,-1.314659 0.06103,-0.05571 0.02707,-0.509038 -0.07546,-1.007388 L 64.265504,71.371461 77.327529,38.058864 90.389554,4.7462687 l 0.576747,0.027845 c 0.540927,0.026116 16.932919,4.0625483 17.206739,4.2370587 0.0789,0.050287 0.0353,0.7247371 -0.11587,1.7924956 -0.1333,0.94153 -0.78067,6.274676 -1.43861,11.851435 -2.76598,23.444868 -6.666186,55.877643 -6.789469,56.45892 -0.07162,0.337683 -0.04721,0.362249 0.361629,0.363924 0.24114,0.0011 0.5707,0.03725 0.73236,0.08058 0.28769,0.07711 0.28407,0.09031 -0.17056,0.621439 l -0.4645,0.542655 1.68492,1.65448 c 0.9267,0.909964 3.25254,3.177565 5.16854,5.039114 3.08775,3.000004 3.43942,3.383102 3.09454,3.371136 -0.214,-0.0074 -16.161692,-2.629236 -35.439319,-5.826245 z"
       id="path1478"
       inkscape:connector-curvature="0"
       transform="matrix(0.26458333,0,0,0.26458333,79.287956,116.98794)" />
    <path
       style="fill:#fcfb00;fill-opacity:1;fill-rule:evenodd;stroke:#000000;stroke-width:0.0497698;stroke-miterlimit:4;stroke-dasharray:none;stroke-dashoffset:0;stroke-opacity:1"
       d="m 47.231851,125.94951 c -2.715953,-0.13174 -7.989842,-0.39123 -11.719752,-0.57665 -3.72991,-0.18542 -7.010594,-0.33654 -7.29041,-0.33582 -0.482842,10e-4 -0.505521,-0.0172 -0.445241,-0.36083 0.21242,-1.2111 4.101144,-21.86052 5.709886,-30.319925 1.053657,-5.540545 1.988175,-10.458891 2.076707,-10.929656 0.128584,-0.68374 0.212505,-0.862233 0.41714,-0.887233 0.140895,-0.01721 18.082421,2.921544 39.87006,6.530569 l 39.613889,6.561864 0.4993,0.514451 0.49929,0.514451 -1.17079,6.386609 c -2.20255,12.01476 -4.1856,22.68489 -4.22273,22.7212 -0.0526,0.0514 -19.561796,-0.18644 -23.227469,-0.28316 l -3.042907,-0.0803 -0.08355,-1.13807 c -0.260288,-3.54565 -1.766557,-6.90088 -4.278238,-9.52983 -3.070391,-3.21374 -6.198806,-4.57898 -10.49264,-4.57898 -2.4983,0 -4.170428,0.39449 -6.386721,1.50677 -2.891868,1.45133 -5.346285,3.97633 -6.758327,6.95267 -0.913629,1.92577 -1.663661,5.03912 -1.665767,6.9145 l -7.77e-4,0.69134 -1.481429,-0.0172 c -0.814786,-0.009 -3.703574,-0.12501 -6.419528,-0.25675 z"
       id="path1480"
       inkscape:connector-curvature="0"
       transform="matrix(0.26458333,0,0,0.26458333,79.287956,116.98794)" />
    <path
       style="fill:#fcfb00;fill-opacity:1;fill-rule:evenodd;stroke:#000000;stroke-width:0.0497698;stroke-miterlimit:4;stroke-dasharray:none;stroke-dashoffset:0;stroke-opacity:1"
       d="m 103.66103,151.91646 c -9.785183,-1.61122 -54.045008,-8.95905 -58.927966,-9.78297 -4.217781,-0.71169 -4.505338,-0.77705 -4.016319,-0.91292 0.289701,-0.0805 3.489589,-0.83527 7.110861,-1.67729 13.520226,-3.14372 16.57376,-3.87572 16.701849,-4.0038 0.08748,-0.0875 0.07771,-0.43219 -0.02922,-1.03052 L 64.339566,133.6099 77.374188,100.36579 C 87.984536,73.304663 90.455728,67.11435 90.66108,67.082247 c 0.13875,-0.02169 1.550185,0.266024 3.136523,0.639367 3.587007,0.844199 14.284977,3.514361 14.353077,3.58246 0.0276,0.02762 -0.18456,1.971858 -0.47151,4.320523 -0.28695,2.348666 -1.23584,10.284905 -2.10865,17.636086 -2.14706,18.083587 -4.19724,35.159327 -5.08782,42.375877 -0.40491,3.2811 -0.705637,5.9962 -0.668282,6.03356 0.03735,0.0374 0.342492,0.10827 0.678082,0.1576 l 0.61017,0.0897 -0.39442,0.46089 c -0.21693,0.25349 -0.39632,0.52014 -0.39863,0.59257 -0.002,0.0724 2.1634,2.23531 4.81271,4.80641 2.64931,2.57111 4.87302,4.77844 4.94159,4.90518 0.10249,0.18944 0.0711,0.2286 -0.17625,0.22009 -0.16551,-0.006 -2.96749,-0.44944 -6.22664,-0.98609 z"
       id="path1482"
       inkscape:connector-curvature="0"
       transform="matrix(0.26458333,0,0,0.26458333,79.287114,100.51836)" />
    <path
       style="fill:#000000;fill-opacity:1;fill-rule:evenodd;stroke:#000000;stroke-width:0.0497698;stroke-miterlimit:4;stroke-dasharray:none;stroke-dashoffset:0;stroke-opacity:1"
       d="m 50.06621,188.24441 c -0.434553,-0.0227 -4.493669,-0.22026 -9.020259,-0.43897 -4.52659,-0.21872 -9.316068,-0.45016 -10.643284,-0.51433 -1.327217,-0.0642 -2.445906,-0.14944 -2.485975,-0.18951 -0.07781,-0.0778 0.609919,-3.7988 4.651764,-25.16844 3.182795,-16.82776 3.179643,-16.81165 3.318409,-16.95042 0.152466,-0.15246 2.115995,0.16348 41.569328,6.68874 10.718965,1.77283 23.637027,3.90747 28.706807,4.74365 l 9.21779,1.52033 0.50204,0.49468 0.50205,0.49467 -2.11223,11.44622 c -1.16173,6.29541 -2.35905,12.7795 -2.66071,14.40907 -0.30166,1.62957 -0.59489,3.01478 -0.65162,3.07824 -0.10743,0.12017 -22.305034,-0.11848 -24.707021,-0.26563 l -1.342456,-0.0822 -0.07755,-0.73969 c -0.448421,-4.27704 -1.865772,-7.35688 -4.673371,-10.155 -2.699491,-2.69039 -5.209905,-3.8985 -8.761127,-4.21619 -3.048791,-0.27275 -5.253894,0.15037 -7.966798,1.52869 -2.893265,1.46995 -5.415599,4.07835 -6.71483,6.94397 -0.818421,1.80513 -1.463175,4.32766 -1.646751,6.44274 l -0.08858,1.02054 -2.062766,-0.0249 c -1.134521,-0.0137 -2.418309,-0.0435 -2.852862,-0.0662 z"
       id="path1484"
       inkscape:connector-curvature="0"
       transform="matrix(0.26458333,0,0,0.26458333,79.287114,100.51836)" />
  </g>
</svg>
