<?xml version="1.0" encoding="UTF-8" standalone="no"?>
<svg
   xmlns:dc="http://purl.org/dc/elements/1.1/"
   xmlns:cc="http://creativecommons.org/ns#"
   xmlns:rdf="http://www.w3.org/1999/02/22-rdf-syntax-ns#"
   xmlns:svg="http://www.w3.org/2000/svg"
   xmlns="http://www.w3.org/2000/svg"
   xmlns:sodipodi="http://sodipodi.sourceforge.net/DTD/sodipodi-0.dtd"
   xmlns:inkscape="http://www.inkscape.org/namespaces/inkscape"
   version="1.0"
   width="320"
   height="320"
   id="svg2"
   sodipodi:docname="Pillar_Green_Cylindrical_ color.svg"
   inkscape:version="0.92.4 (5da689c313, 2019-01-14)">
  <metadata
     id="metadata10659">
    <rdf:RDF>
      <cc:Work
         rdf:about="">
        <dc:format>image/svg+xml</dc:format>
        <dc:type
           rdf:resource="http://purl.org/dc/dcmitype/StillImage" />
        <dc:title></dc:title>
      </cc:Work>
    </rdf:RDF>
  </metadata>
  <sodipodi:namedview
     pagecolor="#ffffff"
     bordercolor="#666666"
     borderopacity="1"
     objecttolerance="10"
     gridtolerance="10"
     guidetolerance="10"
     inkscape:pageopacity="0"
     inkscape:pageshadow="2"
     inkscape:window-width="4200"
     inkscape:window-height="2569"
     id="namedview10657"
     showgrid="false"
     inkscape:zoom="11.726773"
     inkscape:cx="171.52542"
     inkscape:cy="224.40678"
     inkscape:window-x="-16"
     inkscape:window-y="-16"
     inkscape:window-maximized="1"
     inkscape:current-layer="svg2" />
  <defs
     id="defs4" />
  <path
     d="M 237.075,81.89375 L 231.48125,98.6125 L 224.95,96.51875 L 194.48125,164.58125 L 164.7,197.175 L 156.91875,197.175 L 156.79375,202.83125 L 187.85625,202.83125 C 189.14357,208.3642 194.08952,212.48749 200.0125,212.4875 C 205.93745,212.4875 210.88345,208.36698 212.16875,202.83125 L 236.29375,202.83125 L 236.29375,197.175 L 228.5125,197.175 L 226.04375,174.83125 L 242.66875,102.20625 L 235.5125,99.925 L 241.10625,83.2375 L 237.075,81.89375 z M 207.5,200 C 207.5,204.14 204.14,207.5 200,207.5 C 195.86,207.5 192.5,204.14 192.5,200 C 192.5,195.86 195.86,192.5 200,192.5 C 204.14,192.5 207.5,195.86 207.5,200 z M 264.2875,49.912542 L 237.8625,41.125042 L 226.2875,74.912502 L 252.7125,83.550002 L 264.2875,49.912542 z"
     id="path27763"
     style="fill:#00fe07;fill-opacity:1;fill-rule:evenodd;stroke:none"
     transform="translate(-40,-40)" />
</svg>
