<?xml version="1.0" encoding="UTF-8" standalone="no"?>
<!-- Created with Inkscape (http://www.inkscape.org/) -->

<svg
   xmlns:dc="http://purl.org/dc/elements/1.1/"
   xmlns:cc="http://creativecommons.org/ns#"
   xmlns:rdf="http://www.w3.org/1999/02/22-rdf-syntax-ns#"
   xmlns:svg="http://www.w3.org/2000/svg"
   xmlns="http://www.w3.org/2000/svg"
   xmlns:sodipodi="http://sodipodi.sourceforge.net/DTD/sodipodi-0.dtd"
   xmlns:inkscape="http://www.inkscape.org/namespaces/inkscape"
   width="36.095695mm"
   height="45.169121mm"
   viewBox="0 0 36.095696 45.169121"
   version="1.1"
   id="svg8"
   inkscape:version="0.92.4 (5da689c313, 2019-01-14)"
   sodipodi:docname="PillarSAW.svg">
  <defs
     id="defs2" />
  <sodipodi:namedview
     id="base"
     pagecolor="#ffffff"
     bordercolor="#666666"
     borderopacity="1.0"
     inkscape:pageopacity="0.0"
     inkscape:pageshadow="2"
     inkscape:zoom="1"
     inkscape:cx="-17.289446"
     inkscape:cy="111.15046"
     inkscape:document-units="mm"
     inkscape:current-layer="layer1"
     showgrid="false"
     inkscape:window-width="3840"
     inkscape:window-height="2104"
     inkscape:window-x="-16"
     inkscape:window-y="-16"
     inkscape:window-maximized="1" />
  <metadata
     id="metadata5">
    <rdf:RDF>
      <cc:Work
         rdf:about="">
        <dc:format>image/svg+xml</dc:format>
        <dc:type
           rdf:resource="http://purl.org/dc/dcmitype/StillImage" />
        <dc:title />
      </cc:Work>
    </rdf:RDF>
  </metadata>
  <g
     inkscape:label="Calque 1"
     inkscape:groupmode="layer"
     id="layer1"
     transform="translate(-79.287114,-109.15705)">
    <path
       style="color:#000000;font-style:normal;font-variant:normal;font-weight:normal;font-stretch:normal;font-size:medium;line-height:normal;font-family:sans-serif;font-variant-ligatures:normal;font-variant-position:normal;font-variant-caps:normal;font-variant-numeric:normal;font-variant-alternates:normal;font-feature-settings:normal;text-indent:0;text-align:start;text-decoration:none;text-decoration-line:none;text-decoration-style:solid;text-decoration-color:#000000;letter-spacing:normal;word-spacing:normal;text-transform:none;writing-mode:lr-tb;direction:ltr;text-orientation:mixed;dominant-baseline:auto;baseline-shift:baseline;text-anchor:start;white-space:normal;shape-padding:0;clip-rule:nonzero;display:inline;overflow:visible;visibility:visible;opacity:1;isolation:auto;mix-blend-mode:normal;color-interpolation:sRGB;color-interpolation-filters:linearRGB;solid-color:#000000;solid-opacity:1;vector-effect:none;fill:#000000;fill-opacity:1;fill-rule:nonzero;stroke:none;stroke-width:1;stroke-linecap:butt;stroke-linejoin:miter;stroke-miterlimit:4;stroke-dasharray:none;stroke-dashoffset:0;stroke-opacity:1;color-rendering:auto;image-rendering:auto;shape-rendering:auto;text-rendering:auto;enable-background:accumulate"
       d="m 79.333984,149.82422 -0.04687,0.99805 14.81836,0.68945 0.04687,-0.99805 z"
       id="path826"
       inkscape:connector-curvature="0" />
    <path
       style="color:#000000;font-style:normal;font-variant:normal;font-weight:normal;font-stretch:normal;font-size:medium;line-height:normal;font-family:sans-serif;font-variant-ligatures:normal;font-variant-position:normal;font-variant-caps:normal;font-variant-numeric:normal;font-variant-alternates:normal;font-feature-settings:normal;text-indent:0;text-align:start;text-decoration:none;text-decoration-line:none;text-decoration-style:solid;text-decoration-color:#000000;letter-spacing:normal;word-spacing:normal;text-transform:none;writing-mode:lr-tb;direction:ltr;text-orientation:mixed;dominant-baseline:auto;baseline-shift:baseline;text-anchor:start;white-space:normal;shape-padding:0;clip-rule:nonzero;display:inline;overflow:visible;visibility:visible;opacity:1;isolation:auto;mix-blend-mode:normal;color-interpolation:sRGB;color-interpolation-filters:linearRGB;solid-color:#000000;solid-opacity:1;vector-effect:none;fill:#000000;fill-opacity:1;fill-rule:nonzero;stroke:none;stroke-width:1;stroke-linecap:butt;stroke-linejoin:miter;stroke-miterlimit:4;stroke-dasharray:none;stroke-dashoffset:0;stroke-opacity:1;color-rendering:auto;image-rendering:auto;shape-rendering:auto;text-rendering:auto;enable-background:accumulate"
       d="m 101.59961,150.2832 -0.0117,1 13.7832,0.17188 0.0117,-1 z"
       id="path828"
       inkscape:connector-curvature="0" />
    <path
       style="color:#000000;font-style:normal;font-variant:normal;font-weight:normal;font-stretch:normal;font-size:medium;line-height:normal;font-family:sans-serif;font-variant-ligatures:normal;font-variant-position:normal;font-variant-caps:normal;font-variant-numeric:normal;font-variant-alternates:normal;font-feature-settings:normal;text-indent:0;text-align:start;text-decoration:none;text-decoration-line:none;text-decoration-style:solid;text-decoration-color:#000000;letter-spacing:normal;word-spacing:normal;text-transform:none;writing-mode:lr-tb;direction:ltr;text-orientation:mixed;dominant-baseline:auto;baseline-shift:baseline;text-anchor:start;white-space:normal;shape-padding:0;clip-rule:nonzero;display:inline;overflow:visible;visibility:visible;opacity:1;isolation:auto;mix-blend-mode:normal;color-interpolation:sRGB;color-interpolation-filters:linearRGB;solid-color:#000000;solid-opacity:1;vector-effect:none;fill:#000000;fill-opacity:1;fill-rule:nonzero;stroke:none;stroke-width:1.02102363;stroke-linecap:butt;stroke-linejoin:miter;stroke-miterlimit:4;stroke-dasharray:none;stroke-dashoffset:0;stroke-opacity:1;color-rendering:auto;image-rendering:auto;shape-rendering:auto;text-rendering:auto;enable-background:accumulate"
       d="m 87.822266,137.59375 -2.404297,12.79102 1.003906,0.18945 2.404297,-12.79297 z"
       id="path830"
       inkscape:connector-curvature="0" />
    <path
       style="color:#000000;font-style:normal;font-variant:normal;font-weight:normal;font-stretch:normal;font-size:medium;line-height:normal;font-family:sans-serif;font-variant-ligatures:normal;font-variant-position:normal;font-variant-caps:normal;font-variant-numeric:normal;font-variant-alternates:normal;font-feature-settings:normal;text-indent:0;text-align:start;text-decoration:none;text-decoration-line:none;text-decoration-style:solid;text-decoration-color:#000000;letter-spacing:normal;word-spacing:normal;text-transform:none;writing-mode:lr-tb;direction:ltr;text-orientation:mixed;dominant-baseline:auto;baseline-shift:baseline;text-anchor:start;white-space:normal;shape-padding:0;clip-rule:nonzero;display:inline;overflow:visible;visibility:visible;opacity:1;isolation:auto;mix-blend-mode:normal;color-interpolation:sRGB;color-interpolation-filters:linearRGB;solid-color:#000000;solid-opacity:1;vector-effect:none;fill:#000000;fill-opacity:1;fill-rule:nonzero;stroke:none;stroke-width:1;stroke-linecap:butt;stroke-linejoin:miter;stroke-miterlimit:4;stroke-dasharray:none;stroke-dashoffset:0;stroke-opacity:1;color-rendering:auto;image-rendering:auto;shape-rendering:auto;text-rendering:auto;enable-background:accumulate"
       d="m 102.39258,117.29102 -7.179689,18.32031 0.93164,0.36523 7.177739,-18.32031 z"
       id="path832"
       inkscape:connector-curvature="0" />
    <path
       style="color:#000000;font-style:normal;font-variant:normal;font-weight:normal;font-stretch:normal;font-size:medium;line-height:normal;font-family:sans-serif;font-variant-ligatures:normal;font-variant-position:normal;font-variant-caps:normal;font-variant-numeric:normal;font-variant-alternates:normal;font-feature-settings:normal;text-indent:0;text-align:start;text-decoration:none;text-decoration-line:none;text-decoration-style:solid;text-decoration-color:#000000;letter-spacing:normal;word-spacing:normal;text-transform:none;writing-mode:lr-tb;direction:ltr;text-orientation:mixed;dominant-baseline:auto;baseline-shift:baseline;text-anchor:start;white-space:normal;shape-padding:0;clip-rule:nonzero;display:inline;overflow:visible;visibility:visible;opacity:1;isolation:auto;mix-blend-mode:normal;color-interpolation:sRGB;color-interpolation-filters:linearRGB;solid-color:#000000;solid-opacity:1;vector-effect:none;fill:#000000;fill-opacity:1;fill-rule:nonzero;stroke:none;stroke-width:1;stroke-linecap:butt;stroke-linejoin:miter;stroke-miterlimit:4;stroke-dasharray:none;stroke-dashoffset:0;stroke-opacity:1;color-rendering:auto;image-rendering:auto;shape-rendering:auto;text-rendering:auto;enable-background:accumulate"
       d="m 108.10352,118.84961 -2.29688,19.06641 0.99414,0.11914 2.29688,-19.06641 z"
       id="path834"
       inkscape:connector-curvature="0" />
    <path
       style="color:#000000;font-style:normal;font-variant:normal;font-weight:normal;font-stretch:normal;font-size:medium;line-height:normal;font-family:sans-serif;font-variant-ligatures:normal;font-variant-position:normal;font-variant-caps:normal;font-variant-numeric:normal;font-variant-alternates:normal;font-feature-settings:normal;text-indent:0;text-align:start;text-decoration:none;text-decoration-line:none;text-decoration-style:solid;text-decoration-color:#000000;letter-spacing:normal;word-spacing:normal;text-transform:none;writing-mode:lr-tb;direction:ltr;text-orientation:mixed;dominant-baseline:auto;baseline-shift:baseline;text-anchor:start;white-space:normal;shape-padding:0;clip-rule:nonzero;display:inline;overflow:visible;visibility:visible;opacity:1;isolation:auto;mix-blend-mode:normal;color-interpolation:sRGB;color-interpolation-filters:linearRGB;solid-color:#000000;solid-opacity:1;vector-effect:none;fill:#000000;fill-opacity:1;fill-rule:nonzero;stroke:none;stroke-width:1.03908801;stroke-linecap:butt;stroke-linejoin:miter;stroke-miterlimit:4;stroke-dasharray:none;stroke-dashoffset:0;stroke-opacity:1;color-rendering:auto;image-rendering:auto;shape-rendering:auto;text-rendering:auto;enable-background:accumulate"
       d="m 110.26562,142.24414 -1.5957,8.62695 1.02149,0.1875 1.5957,-8.625 z"
       id="path836"
       inkscape:connector-curvature="0" />
    <path
       style="color:#000000;font-style:normal;font-variant:normal;font-weight:normal;font-stretch:normal;font-size:medium;line-height:normal;font-family:sans-serif;font-variant-ligatures:normal;font-variant-position:normal;font-variant-caps:normal;font-variant-numeric:normal;font-variant-alternates:normal;font-feature-settings:normal;text-indent:0;text-align:start;text-decoration:none;text-decoration-line:none;text-decoration-style:solid;text-decoration-color:#000000;letter-spacing:normal;word-spacing:normal;text-transform:none;writing-mode:lr-tb;direction:ltr;text-orientation:mixed;dominant-baseline:auto;baseline-shift:baseline;text-anchor:start;white-space:normal;shape-padding:0;clip-rule:nonzero;display:inline;overflow:visible;visibility:visible;opacity:1;isolation:auto;mix-blend-mode:normal;color-interpolation:sRGB;color-interpolation-filters:linearRGB;solid-color:#000000;solid-opacity:1;vector-effect:none;fill:#000000;fill-opacity:1;fill-rule:nonzero;stroke:none;stroke-width:1.04402506;stroke-linecap:butt;stroke-linejoin:miter;stroke-miterlimit:4;stroke-dasharray:none;stroke-dashoffset:0;stroke-opacity:1;color-rendering:auto;image-rendering:auto;shape-rendering:auto;text-rendering:auto;enable-background:accumulate"
       d="m 96.048828,135.29297 -8.083984,1.87891 0.236328,1.01562 8.083984,-1.87695 z"
       id="path838"
       inkscape:connector-curvature="0" />
    <path
       style="color:#000000;font-style:normal;font-variant:normal;font-weight:normal;font-stretch:normal;font-size:medium;line-height:normal;font-family:sans-serif;font-variant-ligatures:normal;font-variant-position:normal;font-variant-caps:normal;font-variant-numeric:normal;font-variant-alternates:normal;font-feature-settings:normal;text-indent:0;text-align:start;text-decoration:none;text-decoration-line:none;text-decoration-style:solid;text-decoration-color:#000000;letter-spacing:normal;word-spacing:normal;text-transform:none;writing-mode:lr-tb;direction:ltr;text-orientation:mixed;dominant-baseline:auto;baseline-shift:baseline;text-anchor:start;white-space:normal;shape-padding:0;clip-rule:nonzero;display:inline;overflow:visible;visibility:visible;opacity:1;isolation:auto;mix-blend-mode:normal;color-interpolation:sRGB;color-interpolation-filters:linearRGB;solid-color:#000000;solid-opacity:1;vector-effect:none;fill:#000000;fill-opacity:1;fill-rule:nonzero;stroke:none;stroke-width:1;stroke-linecap:butt;stroke-linejoin:miter;stroke-miterlimit:4;stroke-dasharray:none;stroke-dashoffset:0;stroke-opacity:1;color-rendering:auto;image-rendering:auto;shape-rendering:auto;text-rendering:auto;enable-background:accumulate"
       d="m 106.65234,137.61719 -0.69726,0.71679 4.47851,4.36524 0.69922,-0.7168 z"
       id="path840"
       inkscape:connector-curvature="0" />
    <path
       style="color:#000000;font-style:normal;font-variant:normal;font-weight:normal;font-stretch:normal;font-size:medium;line-height:normal;font-family:sans-serif;font-variant-ligatures:normal;font-variant-position:normal;font-variant-caps:normal;font-variant-numeric:normal;font-variant-alternates:normal;font-feature-settings:normal;text-indent:0;text-align:start;text-decoration:none;text-decoration-line:none;text-decoration-style:solid;text-decoration-color:#000000;letter-spacing:normal;word-spacing:normal;text-transform:none;writing-mode:lr-tb;direction:ltr;text-orientation:mixed;dominant-baseline:auto;baseline-shift:baseline;text-anchor:start;white-space:normal;shape-padding:0;clip-rule:nonzero;display:inline;overflow:visible;visibility:visible;opacity:1;isolation:auto;mix-blend-mode:normal;color-interpolation:sRGB;color-interpolation-filters:linearRGB;solid-color:#000000;solid-opacity:1;vector-effect:none;fill:#000000;fill-opacity:1;fill-rule:nonzero;stroke:none;stroke-width:1;stroke-linecap:butt;stroke-linejoin:miter;stroke-miterlimit:4;stroke-dasharray:none;stroke-dashoffset:0;stroke-opacity:1;color-rendering:auto;image-rendering:auto;shape-rendering:auto;text-rendering:auto;enable-background:accumulate"
       d="m 102.97852,116.98828 -0.24219,0.9707 5.74219,1.43555 0.24414,-0.9707 z"
       id="path842"
       inkscape:connector-curvature="0" />
    <path
       style="color:#000000;font-style:normal;font-variant:normal;font-weight:normal;font-stretch:normal;font-size:medium;line-height:normal;font-family:sans-serif;font-variant-ligatures:normal;font-variant-position:normal;font-variant-caps:normal;font-variant-numeric:normal;font-variant-alternates:normal;font-feature-settings:normal;text-indent:0;text-align:start;text-decoration:none;text-decoration-line:none;text-decoration-style:solid;text-decoration-color:#000000;letter-spacing:normal;word-spacing:normal;text-transform:none;writing-mode:lr-tb;direction:ltr;text-orientation:mixed;dominant-baseline:auto;baseline-shift:baseline;text-anchor:start;white-space:normal;shape-padding:0;clip-rule:nonzero;display:inline;overflow:visible;visibility:visible;opacity:1;isolation:auto;mix-blend-mode:normal;color-interpolation:sRGB;color-interpolation-filters:linearRGB;solid-color:#000000;solid-opacity:1;vector-effect:none;fill:#000000;fill-opacity:1;fill-rule:evenodd;stroke:none;stroke-width:1;stroke-linecap:butt;stroke-linejoin:miter;stroke-miterlimit:4;stroke-dasharray:none;stroke-dashoffset:0;stroke-opacity:1;color-rendering:auto;image-rendering:auto;shape-rendering:auto;text-rendering:auto;enable-background:accumulate"
       d="m 97.804688,146.20508 c -2.128492,0 -3.832032,1.84125 -3.832032,4.06054 0,2.2193 1.70354,4.06055 3.832032,4.06055 2.128491,0 3.830082,-1.84125 3.830082,-4.06055 0,-2.21929 -1.701591,-4.06054 -3.830082,-4.06054 z m 0,1 c 1.550779,0 2.830082,1.34682 2.830082,3.06054 0,1.71373 -1.279303,3.06055 -2.830082,3.06055 -1.55078,0 -2.832032,-1.34682 -2.832032,-3.06055 0,-1.71372 1.281252,-3.06054 2.832032,-3.06054 z"
       id="path844"
       inkscape:connector-curvature="0" />
    <path
       style="fill:none;fill-opacity:0.99680002;fill-rule:evenodd;stroke:#000000;stroke-width:0.49769807;stroke-miterlimit:4;stroke-dasharray:none;stroke-dashoffset:0;stroke-opacity:1"
       d="m 40.545723,125.93637 c -7.190003,-0.34255 -13.099581,-0.64966 -13.132396,-0.68247 -0.08954,-0.0895 8.451798,-45.420419 8.580364,-45.538009 0.06104,-0.05583 6.456925,-1.57158 14.213083,-3.368339 L 64.308876,73.080718 64.122398,72.216411 63.935921,71.352106 76.995317,38.036405 C 84.177986,19.71277 90.104265,4.5936546 90.164826,4.4383712 c 0.108409,-0.2779678 0.250863,-0.2471343 9.212581,1.9940177 5.006353,1.2519931 9.135953,2.3098366 9.176883,2.3507636 0.0576,0.057557 -8.03148,67.8264965 -8.34286,69.8954425 l -0.0721,0.478992 0.95009,0.09541 0.95009,0.09541 -0.66617,0.676578 -0.66617,0.676578 8.02655,7.81612 c 5.35676,5.216329 8.02654,7.904111 8.02654,8.080658 0,0.217986 -4.81645,26.470269 -5.28328,28.796779 l -0.14278,0.71157 -7.59113,-0.0868 c -4.175128,-0.0478 -10.213269,-0.12529 -13.418094,-0.17232 l -5.826956,-0.0855 -5.26e-4,-0.67092 c -7.9e-4,-0.98753 -0.34368,-2.93205 -0.73766,-4.18312 -0.785535,-2.49444 -1.997732,-4.46549 -3.918627,-6.37176 -2.634685,-2.61461 -5.570332,-3.93563 -9.115773,-4.10203 -2.67949,-0.12575 -4.773986,0.32776 -7.164949,1.55138 -4.736729,2.42411 -7.735995,7.30116 -8.112606,13.19177 l -0.0905,1.41559 -0.869464,-0.0169 c -0.478205,-0.009 -6.752193,-0.29715 -13.942198,-0.6397 z"
       id="path868"
       inkscape:connector-curvature="0"
       transform="matrix(0.26458333,0,0,0.26458333,79.287956,116.98794)" />
    <path
       style="fill:#fefd00;fill-opacity:1;fill-rule:evenodd;stroke:#000000;stroke-width:0.0497698;stroke-miterlimit:4;stroke-dasharray:none;stroke-dashoffset:0;stroke-opacity:1"
       d="m 48.15363,125.99115 c -12.763046,-0.60968 -20.346174,-1.00276 -20.401555,-1.05754 -0.03113,-0.0308 0.04155,-0.48481 0.161511,-1.00895 0.119956,-0.52413 0.400448,-1.96034 0.623314,-3.19157 0.617875,-3.41347 4.160896,-22.26908 5.728528,-30.486668 0.766579,-4.018436 1.519567,-7.973498 1.673306,-8.789028 l 0.279526,-1.482783 0.469936,-0.125346 c 0.763071,-0.203534 11.586137,-2.736113 20.024803,-4.685772 4.309314,-0.995618 7.859979,-1.831035 7.890366,-1.856484 0.03039,-0.02545 -0.03493,-0.466268 -0.145145,-0.9796 L 64.257826,71.394077 77.327883,38.057392 90.397942,4.7207048 90.94841,4.7572333 c 0.477354,0.031677 17.21218,4.1550882 17.31803,4.2671128 0.0218,0.023037 -0.0125,0.3677993 -0.0762,0.7661392 -0.17074,1.0681527 -0.47507,3.5835087 -2.36593,19.5548677 -3.13695,26.496622 -5.854893,49.042547 -5.99494,49.729314 -0.06921,0.339403 -0.05024,0.350748 0.73972,0.442432 l 0.81075,0.0941 -0.54644,0.556778 -0.54643,0.556776 6.95274,6.788172 c 8.49841,8.297255 9.1255,8.937621 9.1255,9.318649 0,0.47884 -5.20458,28.820786 -5.3123,28.928496 -0.0685,0.0685 -23.644148,-0.2164 -25.07346,-0.30302 l -1.218064,-0.0738 v -0.62887 c 0,-1.66505 -0.891093,-4.92996 -1.798358,-6.5891 -2.286336,-4.18105 -6.158673,-7.09088 -10.432454,-7.83936 -5.521869,-0.96705 -11.086426,1.36229 -14.42241,6.03725 -1.671723,2.34271 -2.971676,6.36733 -2.974589,9.20926 -6.58e-4,0.70216 -0.0223,0.75596 -0.297063,0.74049 -0.162957,-0.009 -3.170259,-0.15397 -6.682892,-0.32176 z"
       id="path2046"
       inkscape:connector-curvature="0"
       transform="matrix(0.26458333,0,0,0.26458333,79.287956,116.98794)" />
    <path
       style="fill:none;stroke:#000000;stroke-width:0.26458332px;stroke-linecap:butt;stroke-linejoin:miter;stroke-opacity:1"
       d="m 103.9894,118.05667 -5.609405,19.23224 -7.769548,2.12531 -1.323959,11.00976"
       id="path2077"
       inkscape:connector-curvature="0" />
    <path
       style="fill:none;stroke:#000000;stroke-width:0.26458332px;stroke-linecap:butt;stroke-linejoin:miter;stroke-opacity:1"
       d="m 104.89527,118.5096 -5.295839,20.13811 -7.072728,2.40404 -1.219436,9.54644"
       id="path2079"
       inkscape:connector-curvature="0" />
    <path
       style="fill:none;stroke:#000000;stroke-width:0.26458332px;stroke-linecap:butt;stroke-linejoin:miter;stroke-opacity:1"
       d="m 105.69661,118.61413 -4.70354,20.45168"
       id="path2081"
       inkscape:connector-curvature="0" />
    <path
       style="fill:none;stroke:#000000;stroke-width:0.26458332px;stroke-linecap:butt;stroke-linejoin:miter;stroke-opacity:1"
       d="m 100.99307,139.06581 -4.773218,2.99633"
       id="path2083"
       inkscape:connector-curvature="0" />
    <path
       style="fill:none;stroke:#000000;stroke-width:0.26458332px;stroke-linecap:butt;stroke-linejoin:miter;stroke-opacity:1"
       d="m 96.219852,142.06214 -0.731662,5.05194"
       id="path2087"
       inkscape:connector-curvature="0" />
    <path
       style="fill:none;stroke:#000000;stroke-width:0.26458332px;stroke-linecap:butt;stroke-linejoin:miter;stroke-opacity:1"
       d="m 106.46311,118.85801 -4.28544,19.75486"
       id="path2089"
       inkscape:connector-curvature="0" />
    <path
       style="fill:none;stroke:#000000;stroke-width:0.26458332px;stroke-linecap:butt;stroke-linejoin:miter;stroke-opacity:1"
       d="m 102.17767,138.61287 2.36919,3.03117 -1.25428,8.71026"
       id="path2091"
       inkscape:connector-curvature="0" />
    <path
       style="fill:none;stroke:#000000;stroke-width:0.26458332px;stroke-linecap:butt;stroke-linejoin:miter;stroke-opacity:1"
       d="m 107.19477,119.03222 -3.17053,18.29153 3.06601,4.42482 -1.08007,8.77993"
       id="path2093"
       inkscape:connector-curvature="0" />
    <path
       style="fill:#fc0200;fill-opacity:1;fill-rule:evenodd;stroke:#000000;stroke-width:0.0497698;stroke-miterlimit:4;stroke-dasharray:none;stroke-dashoffset:0;stroke-opacity:1"
       d="m 34.92271,182.56798 c -3.731512,-0.18445 -6.927118,-0.39947 -6.998541,-0.47089 -0.04677,-0.0468 0.01426,-0.5751 0.135627,-1.17408 0.121363,-0.59898 0.991977,-5.20743 1.934698,-10.241 1.507835,-8.05093 4.534621,-24.07498 5.828308,-30.85552 0.246207,-1.29043 0.49995,-2.39281 0.563874,-2.44972 0.124808,-0.11111 1.112465,-0.34627 16.905758,-4.02522 5.685397,-1.32438 10.589448,-2.47633 10.897892,-2.55989 0.61526,-0.16669 0.591295,-0.0534 0.295936,-1.3984 L 64.340297,128.72859 77.3726,95.484984 C 88.543009,66.990817 90.444177,62.235362 90.679806,62.199236 c 0.34997,-0.05366 1.722363,0.227441 1.722363,0.35278 0,0.153063 -20.526952,70.509384 -20.655809,70.797974 -0.09879,0.22127 -2.462718,0.9039 -14.789053,4.2706 l -14.671463,4.00723 -2.412736,20.09069 c -1.327005,11.04988 -2.443335,20.28327 -2.480733,20.51865 -0.07599,0.47829 0.08293,0.457 -2.469665,0.33082 z"
       id="path2095"
       inkscape:connector-curvature="0"
       transform="matrix(0.26458333,0,0,0.26458333,79.287114,101.8263)" />
    <path
       style="fill:#fcfcff;fill-opacity:1;fill-rule:evenodd;stroke:#000000;stroke-width:0.0497698;stroke-miterlimit:4;stroke-dasharray:none;stroke-dashoffset:0;stroke-opacity:1"
       d="m 41.172679,182.87439 -2.704448,-0.14342 2.414455,-20.07691 c 1.32795,-11.04231 2.435801,-20.09827 2.461891,-20.12436 0.02609,-0.0261 6.599466,-1.83914 14.607501,-4.029 8.008036,-2.18986 14.588627,-4.01012 14.623535,-4.04503 0.03491,-0.0349 4.754195,-16.14926 10.487306,-35.80967 5.733109,-19.660411 10.44616,-35.784501 10.473446,-35.831309 0.04833,-0.08291 2.381829,0.462695 2.504793,0.585659 0.06242,0.06242 -19.483445,74.58961 -19.694627,75.0944 -0.09342,0.22332 -2.51947,1.08907 -13.440519,4.79638 -7.329584,2.48813 -13.347753,4.58764 -13.373709,4.66559 -0.02596,0.078 -1.028748,7.87479 -2.228426,17.32631 -1.199678,9.45152 -2.21076,17.31791 -2.246849,17.48086 -0.07536,0.34028 0.265641,0.33058 -3.884349,0.1105 z"
       id="path2097"
       inkscape:connector-curvature="0"
       transform="matrix(0.26458333,0,0,0.26458333,79.287114,101.8263)" />
    <path
       style="fill:#fc0200;fill-opacity:1;fill-rule:evenodd;stroke:#000000;stroke-width:0.0497698;stroke-miterlimit:4;stroke-dasharray:none;stroke-dashoffset:0;stroke-opacity:1"
       d="m 50.504723,183.33656 c -2.293707,-0.1158 -4.207718,-0.24807 -4.253357,-0.29395 -0.102099,-0.10262 4.251037,-34.25288 4.380468,-34.36467 0.05103,-0.0441 6.0072,-2.0874 13.235925,-4.54071 7.228725,-2.45331 13.19806,-4.49451 13.265187,-4.536 0.06713,-0.0415 4.606441,-17.13851 10.087361,-37.99338 5.480919,-20.854878 9.971483,-37.92884 9.97903,-37.942141 0.0075,-0.0133 0.444958,0.07044 0.972023,0.186099 0.56007,0.122897 0.937211,0.269752 0.90755,0.35339 -0.02791,0.07871 -3.983501,17.253198 -8.790193,38.165532 l -8.739441,38.02242 -8.894037,5.58618 c -6.011913,3.77597 -8.88811,5.65383 -8.875748,5.79496 0.01006,0.11484 -0.05742,0.20879 -0.149948,0.20879 -0.210005,0 -0.08618,-0.75747 -1.592968,9.74452 l -1.275301,8.88857 -1.144629,1.18515 c -1.326516,1.37347 -2.07143,2.43062 -2.783644,3.95045 -0.991082,2.11491 -1.582624,4.34625 -1.771684,6.68292 -0.0585,0.72303 -0.147795,1.14481 -0.239721,1.13231 -0.08057,-0.0109 -2.023165,-0.11464 -4.316873,-0.23044 z"
       id="path2099"
       inkscape:connector-curvature="0"
       transform="matrix(0.26458333,0,0,0.26458333,79.287114,101.8263)" />
    <path
       style="fill:#fcfcff;fill-opacity:1;fill-rule:evenodd;stroke:#000000;stroke-width:0.0497698;stroke-miterlimit:4;stroke-dasharray:none;stroke-dashoffset:0;stroke-opacity:1"
       d="m 86.651939,182.69847 -1.73391,-0.0408 -0.09202,-1.01679 c -0.114105,-1.2608 -0.684859,-3.56545 -1.234849,-4.98623 -1.364194,-3.52408 -5.03783,-7.11536 -8.631775,-8.43827 -2.009884,-0.73982 -5.042911,-1.03645 -7.148479,-0.6991 -1.794476,0.2875 -3.880536,1.06123 -5.410444,2.00676 l -0.446643,0.27604 0.0803,-0.38203 c 0.04416,-0.21012 0.614203,-4.08561 1.266754,-8.6122 0.652552,-4.52659 1.200852,-8.27267 1.218445,-8.32461 0.01759,-0.0519 4.031846,-2.60519 8.920563,-5.67389 4.888717,-3.06869 8.869816,-5.62408 8.846887,-5.67866 -0.02293,-0.0546 0.04469,-0.16789 0.150266,-0.25183 0.122865,-0.0977 3.343176,-13.86395 8.947218,-38.24778 4.815395,-20.95235 8.787478,-38.127396 8.826858,-38.166771 0.0796,-0.07962 1.43442,0.199947 1.66773,0.344142 0.10388,0.0642 -2.261938,11.201881 -7.87701,37.082999 -6.893496,31.77367 -7.997271,37.00734 -7.825468,37.10539 0.159952,0.0913 0.165576,0.13543 0.02808,0.22041 -0.122914,0.076 -0.132589,0.15605 -0.03393,0.2809 0.0759,0.0961 2.067607,2.64402 4.426013,5.66215 l 4.288013,5.48751 -2.293151,15.91092 c -1.261234,8.751 -2.293822,15.98498 -2.29464,16.07551 -0.0011,0.11908 -0.265513,0.15665 -0.956185,0.13585 -0.525085,-0.0158 -1.73496,-0.0471 -2.68861,-0.0696 z"
       id="path2101"
       inkscape:connector-curvature="0"
       transform="matrix(0.26458333,0,0,0.26458333,79.287114,101.8263)" />
    <path
       style="fill:#fc0200;fill-opacity:1;fill-rule:evenodd;stroke:#000000;stroke-width:0.0497698;stroke-miterlimit:4;stroke-dasharray:none;stroke-dashoffset:0;stroke-opacity:1"
       d="m 94.408431,182.82985 -3.06352,-0.0379 0.06731,-0.29385 c 0.03702,-0.16162 1.073293,-7.31583 2.302829,-15.89825 1.229536,-8.58241 2.261825,-15.75253 2.293976,-15.93359 0.04822,-0.27159 -0.724679,-1.33064 -4.415623,-6.0504 -3.358506,-4.29467 -4.458487,-5.78861 -4.411549,-5.99156 0.03439,-0.1487 3.631918,-16.74386 7.994505,-36.87813 4.362588,-20.134274 7.939461,-36.619285 7.948601,-36.63336 0.0614,-0.09445 1.65537,0.416124 1.65537,0.530231 0,0.07866 -2.67211,15.559189 -5.938034,34.401169 l -5.938041,34.25815 5.800266,8.36459 5.800269,8.36458 -1.90293,15.52052 c -1.04662,8.53628 -1.93542,15.7131 -1.97512,15.94848 l -0.0722,0.42797 -1.541305,-0.0304 c -0.847717,-0.0167 -2.919888,-0.0474 -4.604823,-0.0683 z"
       id="path2103"
       inkscape:connector-curvature="0"
       transform="matrix(0.26458333,0,0,0.26458333,79.287114,101.8263)" />
    <path
       style="fill:#fcfcff;fill-opacity:1;fill-rule:evenodd;stroke:#000000;stroke-width:0.0497698;stroke-miterlimit:4;stroke-dasharray:none;stroke-dashoffset:0;stroke-opacity:1"
       d="m 105.86672,182.95954 c -3.80613,-0.0322 -4.11491,-0.052 -4.11281,-0.26336 10e-4,-0.12572 0.88132,-7.36825 1.95569,-16.09451 l 1.95341,-15.86595 -5.789617,-8.35265 -5.78962,-8.35264 5.896769,-34.050967 c 3.243228,-18.728031 5.917378,-34.076432 5.942578,-34.107558 0.0565,-0.06986 1.89324,0.357441 2.10594,0.489938 0.115,0.07164 0.007,1.283544 -0.42314,4.769448 -0.31752,2.570371 -1.82613,15.161922 -3.35247,27.981224 -1.52634,12.819305 -3.16439,26.463365 -3.64011,30.320145 -0.47572,3.85678 -0.833733,7.09367 -0.795579,7.1931 0.03815,0.0994 0.343929,0.22195 0.679489,0.27227 l 0.61012,0.0915 -0.46064,0.50988 -0.46063,0.50987 2.85677,2.80925 c 1.57122,1.54509 4.39745,4.30992 6.28051,6.14406 5.51339,5.37014 6.91334,6.84339 6.91334,7.27533 0,0.36179 -2.76379,15.66852 -4.38386,24.27922 l -0.8176,4.34553 -0.52673,0.0658 c -0.2897,0.0362 -2.37852,0.0502 -4.64181,0.031 z"
       id="path2105"
       inkscape:connector-curvature="0"
       transform="matrix(0.26458333,0,0,0.26458333,79.287114,101.8263)" />
    <ellipse
       style="fill:#fc0200;fill-opacity:1;fill-rule:evenodd;stroke:#000000;stroke-width:0.12983611;stroke-miterlimit:4;stroke-dasharray:none;stroke-dashoffset:0;stroke-opacity:1"
       id="path2107"
       cx="107.31672"
       cy="112.86536"
       rx="3.7304919"
       ry="3.6433895" />
  </g>
</svg>
