<?xml version="1.0" encoding="UTF-8" standalone="no"?>
<!-- Created with Inkscape (http://www.inkscape.org/) -->

<svg
   xmlns:dc="http://purl.org/dc/elements/1.1/"
   xmlns:cc="http://creativecommons.org/ns#"
   xmlns:rdf="http://www.w3.org/1999/02/22-rdf-syntax-ns#"
   xmlns:svg="http://www.w3.org/2000/svg"
   xmlns="http://www.w3.org/2000/svg"
   xmlns:sodipodi="http://sodipodi.sourceforge.net/DTD/sodipodi-0.dtd"
   xmlns:inkscape="http://www.inkscape.org/namespaces/inkscape"
   width="36.095695mm"
   height="54.138752mm"
   viewBox="0 0 36.095695 54.138752"
   version="1.1"
   id="svg8"
   inkscape:version="0.92.4 (5da689c313, 2019-01-14)"
   sodipodi:docname="PillarYBY.svg">
  <defs
     id="defs2" />
  <sodipodi:namedview
     id="base"
     pagecolor="#ffffff"
     bordercolor="#666666"
     borderopacity="1.0"
     inkscape:pageopacity="0.0"
     inkscape:pageshadow="2"
     inkscape:zoom="1"
     inkscape:cx="34.856868"
     inkscape:cy="111.71325"
     inkscape:document-units="mm"
     inkscape:current-layer="layer1"
     showgrid="false"
     inkscape:window-width="3840"
     inkscape:window-height="2104"
     inkscape:window-x="-16"
     inkscape:window-y="-16"
     inkscape:window-maximized="1" />
  <metadata
     id="metadata5">
    <rdf:RDF>
      <cc:Work
         rdf:about="">
        <dc:format>image/svg+xml</dc:format>
        <dc:type
           rdf:resource="http://purl.org/dc/dcmitype/StillImage" />
        <dc:title></dc:title>
      </cc:Work>
    </rdf:RDF>
  </metadata>
  <g
     inkscape:label="Calque 1"
     inkscape:groupmode="layer"
     id="layer1"
     transform="translate(-79.287114,-100.18742)">
    <path
       style="color:#000000;font-style:normal;font-variant:normal;font-weight:normal;font-stretch:normal;font-size:medium;line-height:normal;font-family:sans-serif;font-variant-ligatures:normal;font-variant-position:normal;font-variant-caps:normal;font-variant-numeric:normal;font-variant-alternates:normal;font-feature-settings:normal;text-indent:0;text-align:start;text-decoration:none;text-decoration-line:none;text-decoration-style:solid;text-decoration-color:#000000;letter-spacing:normal;word-spacing:normal;text-transform:none;writing-mode:lr-tb;direction:ltr;text-orientation:mixed;dominant-baseline:auto;baseline-shift:baseline;text-anchor:start;white-space:normal;shape-padding:0;clip-rule:nonzero;display:inline;overflow:visible;visibility:visible;opacity:1;isolation:auto;mix-blend-mode:normal;color-interpolation:sRGB;color-interpolation-filters:linearRGB;solid-color:#000000;solid-opacity:1;vector-effect:none;fill:#000000;fill-opacity:1;fill-rule:nonzero;stroke:none;stroke-width:1;stroke-linecap:butt;stroke-linejoin:miter;stroke-miterlimit:4;stroke-dasharray:none;stroke-dashoffset:0;stroke-opacity:1;color-rendering:auto;image-rendering:auto;shape-rendering:auto;text-rendering:auto;enable-background:accumulate"
       d="m 79.333984,149.82422 -0.04687,0.99805 14.81836,0.68945 0.04687,-0.99805 z"
       id="path826"
       inkscape:connector-curvature="0" />
    <path
       style="color:#000000;font-style:normal;font-variant:normal;font-weight:normal;font-stretch:normal;font-size:medium;line-height:normal;font-family:sans-serif;font-variant-ligatures:normal;font-variant-position:normal;font-variant-caps:normal;font-variant-numeric:normal;font-variant-alternates:normal;font-feature-settings:normal;text-indent:0;text-align:start;text-decoration:none;text-decoration-line:none;text-decoration-style:solid;text-decoration-color:#000000;letter-spacing:normal;word-spacing:normal;text-transform:none;writing-mode:lr-tb;direction:ltr;text-orientation:mixed;dominant-baseline:auto;baseline-shift:baseline;text-anchor:start;white-space:normal;shape-padding:0;clip-rule:nonzero;display:inline;overflow:visible;visibility:visible;opacity:1;isolation:auto;mix-blend-mode:normal;color-interpolation:sRGB;color-interpolation-filters:linearRGB;solid-color:#000000;solid-opacity:1;vector-effect:none;fill:#000000;fill-opacity:1;fill-rule:nonzero;stroke:none;stroke-width:1;stroke-linecap:butt;stroke-linejoin:miter;stroke-miterlimit:4;stroke-dasharray:none;stroke-dashoffset:0;stroke-opacity:1;color-rendering:auto;image-rendering:auto;shape-rendering:auto;text-rendering:auto;enable-background:accumulate"
       d="m 101.59961,150.2832 -0.0117,1 13.7832,0.17188 0.0117,-1 z"
       id="path828"
       inkscape:connector-curvature="0" />
    <path
       style="color:#000000;font-style:normal;font-variant:normal;font-weight:normal;font-stretch:normal;font-size:medium;line-height:normal;font-family:sans-serif;font-variant-ligatures:normal;font-variant-position:normal;font-variant-caps:normal;font-variant-numeric:normal;font-variant-alternates:normal;font-feature-settings:normal;text-indent:0;text-align:start;text-decoration:none;text-decoration-line:none;text-decoration-style:solid;text-decoration-color:#000000;letter-spacing:normal;word-spacing:normal;text-transform:none;writing-mode:lr-tb;direction:ltr;text-orientation:mixed;dominant-baseline:auto;baseline-shift:baseline;text-anchor:start;white-space:normal;shape-padding:0;clip-rule:nonzero;display:inline;overflow:visible;visibility:visible;opacity:1;isolation:auto;mix-blend-mode:normal;color-interpolation:sRGB;color-interpolation-filters:linearRGB;solid-color:#000000;solid-opacity:1;vector-effect:none;fill:#000000;fill-opacity:1;fill-rule:nonzero;stroke:none;stroke-width:1.02102363;stroke-linecap:butt;stroke-linejoin:miter;stroke-miterlimit:4;stroke-dasharray:none;stroke-dashoffset:0;stroke-opacity:1;color-rendering:auto;image-rendering:auto;shape-rendering:auto;text-rendering:auto;enable-background:accumulate"
       d="m 87.822266,137.59375 -2.404297,12.79102 1.003906,0.18945 2.404297,-12.79297 z"
       id="path830"
       inkscape:connector-curvature="0" />
    <path
       style="color:#000000;font-style:normal;font-variant:normal;font-weight:normal;font-stretch:normal;font-size:medium;line-height:normal;font-family:sans-serif;font-variant-ligatures:normal;font-variant-position:normal;font-variant-caps:normal;font-variant-numeric:normal;font-variant-alternates:normal;font-feature-settings:normal;text-indent:0;text-align:start;text-decoration:none;text-decoration-line:none;text-decoration-style:solid;text-decoration-color:#000000;letter-spacing:normal;word-spacing:normal;text-transform:none;writing-mode:lr-tb;direction:ltr;text-orientation:mixed;dominant-baseline:auto;baseline-shift:baseline;text-anchor:start;white-space:normal;shape-padding:0;clip-rule:nonzero;display:inline;overflow:visible;visibility:visible;opacity:1;isolation:auto;mix-blend-mode:normal;color-interpolation:sRGB;color-interpolation-filters:linearRGB;solid-color:#000000;solid-opacity:1;vector-effect:none;fill:#000000;fill-opacity:1;fill-rule:nonzero;stroke:none;stroke-width:1;stroke-linecap:butt;stroke-linejoin:miter;stroke-miterlimit:4;stroke-dasharray:none;stroke-dashoffset:0;stroke-opacity:1;color-rendering:auto;image-rendering:auto;shape-rendering:auto;text-rendering:auto;enable-background:accumulate"
       d="m 102.39258,117.29102 -7.179689,18.32031 0.93164,0.36523 7.177739,-18.32031 z"
       id="path832"
       inkscape:connector-curvature="0" />
    <path
       style="color:#000000;font-style:normal;font-variant:normal;font-weight:normal;font-stretch:normal;font-size:medium;line-height:normal;font-family:sans-serif;font-variant-ligatures:normal;font-variant-position:normal;font-variant-caps:normal;font-variant-numeric:normal;font-variant-alternates:normal;font-feature-settings:normal;text-indent:0;text-align:start;text-decoration:none;text-decoration-line:none;text-decoration-style:solid;text-decoration-color:#000000;letter-spacing:normal;word-spacing:normal;text-transform:none;writing-mode:lr-tb;direction:ltr;text-orientation:mixed;dominant-baseline:auto;baseline-shift:baseline;text-anchor:start;white-space:normal;shape-padding:0;clip-rule:nonzero;display:inline;overflow:visible;visibility:visible;opacity:1;isolation:auto;mix-blend-mode:normal;color-interpolation:sRGB;color-interpolation-filters:linearRGB;solid-color:#000000;solid-opacity:1;vector-effect:none;fill:#000000;fill-opacity:1;fill-rule:nonzero;stroke:none;stroke-width:1;stroke-linecap:butt;stroke-linejoin:miter;stroke-miterlimit:4;stroke-dasharray:none;stroke-dashoffset:0;stroke-opacity:1;color-rendering:auto;image-rendering:auto;shape-rendering:auto;text-rendering:auto;enable-background:accumulate"
       d="m 108.10352,118.84961 -2.29688,19.06641 0.99414,0.11914 2.29688,-19.06641 z"
       id="path834"
       inkscape:connector-curvature="0" />
    <path
       style="color:#000000;font-style:normal;font-variant:normal;font-weight:normal;font-stretch:normal;font-size:medium;line-height:normal;font-family:sans-serif;font-variant-ligatures:normal;font-variant-position:normal;font-variant-caps:normal;font-variant-numeric:normal;font-variant-alternates:normal;font-feature-settings:normal;text-indent:0;text-align:start;text-decoration:none;text-decoration-line:none;text-decoration-style:solid;text-decoration-color:#000000;letter-spacing:normal;word-spacing:normal;text-transform:none;writing-mode:lr-tb;direction:ltr;text-orientation:mixed;dominant-baseline:auto;baseline-shift:baseline;text-anchor:start;white-space:normal;shape-padding:0;clip-rule:nonzero;display:inline;overflow:visible;visibility:visible;opacity:1;isolation:auto;mix-blend-mode:normal;color-interpolation:sRGB;color-interpolation-filters:linearRGB;solid-color:#000000;solid-opacity:1;vector-effect:none;fill:#000000;fill-opacity:1;fill-rule:nonzero;stroke:none;stroke-width:1.03908801;stroke-linecap:butt;stroke-linejoin:miter;stroke-miterlimit:4;stroke-dasharray:none;stroke-dashoffset:0;stroke-opacity:1;color-rendering:auto;image-rendering:auto;shape-rendering:auto;text-rendering:auto;enable-background:accumulate"
       d="m 110.26562,142.24414 -1.5957,8.62695 1.02149,0.1875 1.5957,-8.625 z"
       id="path836"
       inkscape:connector-curvature="0" />
    <path
       style="color:#000000;font-style:normal;font-variant:normal;font-weight:normal;font-stretch:normal;font-size:medium;line-height:normal;font-family:sans-serif;font-variant-ligatures:normal;font-variant-position:normal;font-variant-caps:normal;font-variant-numeric:normal;font-variant-alternates:normal;font-feature-settings:normal;text-indent:0;text-align:start;text-decoration:none;text-decoration-line:none;text-decoration-style:solid;text-decoration-color:#000000;letter-spacing:normal;word-spacing:normal;text-transform:none;writing-mode:lr-tb;direction:ltr;text-orientation:mixed;dominant-baseline:auto;baseline-shift:baseline;text-anchor:start;white-space:normal;shape-padding:0;clip-rule:nonzero;display:inline;overflow:visible;visibility:visible;opacity:1;isolation:auto;mix-blend-mode:normal;color-interpolation:sRGB;color-interpolation-filters:linearRGB;solid-color:#000000;solid-opacity:1;vector-effect:none;fill:#000000;fill-opacity:1;fill-rule:nonzero;stroke:none;stroke-width:1.04402506;stroke-linecap:butt;stroke-linejoin:miter;stroke-miterlimit:4;stroke-dasharray:none;stroke-dashoffset:0;stroke-opacity:1;color-rendering:auto;image-rendering:auto;shape-rendering:auto;text-rendering:auto;enable-background:accumulate"
       d="m 96.048828,135.29297 -8.083984,1.87891 0.236328,1.01562 8.083984,-1.87695 z"
       id="path838"
       inkscape:connector-curvature="0" />
    <path
       style="color:#000000;font-style:normal;font-variant:normal;font-weight:normal;font-stretch:normal;font-size:medium;line-height:normal;font-family:sans-serif;font-variant-ligatures:normal;font-variant-position:normal;font-variant-caps:normal;font-variant-numeric:normal;font-variant-alternates:normal;font-feature-settings:normal;text-indent:0;text-align:start;text-decoration:none;text-decoration-line:none;text-decoration-style:solid;text-decoration-color:#000000;letter-spacing:normal;word-spacing:normal;text-transform:none;writing-mode:lr-tb;direction:ltr;text-orientation:mixed;dominant-baseline:auto;baseline-shift:baseline;text-anchor:start;white-space:normal;shape-padding:0;clip-rule:nonzero;display:inline;overflow:visible;visibility:visible;opacity:1;isolation:auto;mix-blend-mode:normal;color-interpolation:sRGB;color-interpolation-filters:linearRGB;solid-color:#000000;solid-opacity:1;vector-effect:none;fill:#000000;fill-opacity:1;fill-rule:nonzero;stroke:none;stroke-width:1;stroke-linecap:butt;stroke-linejoin:miter;stroke-miterlimit:4;stroke-dasharray:none;stroke-dashoffset:0;stroke-opacity:1;color-rendering:auto;image-rendering:auto;shape-rendering:auto;text-rendering:auto;enable-background:accumulate"
       d="m 106.65234,137.61719 -0.69726,0.71679 4.47851,4.36524 0.69922,-0.7168 z"
       id="path840"
       inkscape:connector-curvature="0" />
    <path
       style="color:#000000;font-style:normal;font-variant:normal;font-weight:normal;font-stretch:normal;font-size:medium;line-height:normal;font-family:sans-serif;font-variant-ligatures:normal;font-variant-position:normal;font-variant-caps:normal;font-variant-numeric:normal;font-variant-alternates:normal;font-feature-settings:normal;text-indent:0;text-align:start;text-decoration:none;text-decoration-line:none;text-decoration-style:solid;text-decoration-color:#000000;letter-spacing:normal;word-spacing:normal;text-transform:none;writing-mode:lr-tb;direction:ltr;text-orientation:mixed;dominant-baseline:auto;baseline-shift:baseline;text-anchor:start;white-space:normal;shape-padding:0;clip-rule:nonzero;display:inline;overflow:visible;visibility:visible;opacity:1;isolation:auto;mix-blend-mode:normal;color-interpolation:sRGB;color-interpolation-filters:linearRGB;solid-color:#000000;solid-opacity:1;vector-effect:none;fill:#000000;fill-opacity:1;fill-rule:nonzero;stroke:none;stroke-width:1;stroke-linecap:butt;stroke-linejoin:miter;stroke-miterlimit:4;stroke-dasharray:none;stroke-dashoffset:0;stroke-opacity:1;color-rendering:auto;image-rendering:auto;shape-rendering:auto;text-rendering:auto;enable-background:accumulate"
       d="m 102.97852,116.98828 -0.24219,0.9707 5.74219,1.43555 0.24414,-0.9707 z"
       id="path842"
       inkscape:connector-curvature="0" />
    <path
       style="color:#000000;font-style:normal;font-variant:normal;font-weight:normal;font-stretch:normal;font-size:medium;line-height:normal;font-family:sans-serif;font-variant-ligatures:normal;font-variant-position:normal;font-variant-caps:normal;font-variant-numeric:normal;font-variant-alternates:normal;font-feature-settings:normal;text-indent:0;text-align:start;text-decoration:none;text-decoration-line:none;text-decoration-style:solid;text-decoration-color:#000000;letter-spacing:normal;word-spacing:normal;text-transform:none;writing-mode:lr-tb;direction:ltr;text-orientation:mixed;dominant-baseline:auto;baseline-shift:baseline;text-anchor:start;white-space:normal;shape-padding:0;clip-rule:nonzero;display:inline;overflow:visible;visibility:visible;opacity:1;isolation:auto;mix-blend-mode:normal;color-interpolation:sRGB;color-interpolation-filters:linearRGB;solid-color:#000000;solid-opacity:1;vector-effect:none;fill:#000000;fill-opacity:1;fill-rule:evenodd;stroke:none;stroke-width:1;stroke-linecap:butt;stroke-linejoin:miter;stroke-miterlimit:4;stroke-dasharray:none;stroke-dashoffset:0;stroke-opacity:1;color-rendering:auto;image-rendering:auto;shape-rendering:auto;text-rendering:auto;enable-background:accumulate"
       d="m 97.804688,146.20508 c -2.128492,0 -3.832032,1.84125 -3.832032,4.06054 0,2.2193 1.70354,4.06055 3.832032,4.06055 2.128491,0 3.830082,-1.84125 3.830082,-4.06055 0,-2.21929 -1.701591,-4.06054 -3.830082,-4.06054 z m 0,1 c 1.550779,0 2.830082,1.34682 2.830082,3.06054 0,1.71373 -1.279303,3.06055 -2.830082,3.06055 -1.55078,0 -2.832032,-1.34682 -2.832032,-3.06055 0,-1.71372 1.281252,-3.06054 2.832032,-3.06054 z"
       id="path844"
       inkscape:connector-curvature="0" />
    <path
       style="fill:none;fill-opacity:0.99680002;fill-rule:evenodd;stroke:#000000;stroke-width:0.49769807;stroke-miterlimit:4;stroke-dasharray:none;stroke-dashoffset:0;stroke-opacity:1"
       d="m 40.545723,125.93637 c -7.190003,-0.34255 -13.099581,-0.64966 -13.132396,-0.68247 -0.08954,-0.0895 8.451798,-45.420419 8.580364,-45.538009 0.06104,-0.05583 6.456925,-1.57158 14.213083,-3.368339 L 64.308876,73.080718 64.122398,72.216411 63.935921,71.352106 76.995317,38.036405 C 84.177986,19.71277 90.104265,4.5936546 90.164826,4.4383712 c 0.108409,-0.2779678 0.250863,-0.2471343 9.212581,1.9940177 5.006353,1.2519931 9.135953,2.3098366 9.176883,2.3507636 0.0576,0.057557 -8.03148,67.8264965 -8.34286,69.8954425 l -0.0721,0.478992 0.95009,0.09541 0.95009,0.09541 -0.66617,0.676578 -0.66617,0.676578 8.02655,7.81612 c 5.35676,5.216329 8.02654,7.904111 8.02654,8.080658 0,0.217986 -4.81645,26.470269 -5.28328,28.796779 l -0.14278,0.71157 -7.59113,-0.0868 c -4.175128,-0.0478 -10.213269,-0.12529 -13.418094,-0.17232 l -5.826956,-0.0855 -5.26e-4,-0.67092 c -7.9e-4,-0.98753 -0.34368,-2.93205 -0.73766,-4.18312 -0.785535,-2.49444 -1.997732,-4.46549 -3.918627,-6.37176 -2.634685,-2.61461 -5.570332,-3.93563 -9.115773,-4.10203 -2.67949,-0.12575 -4.773986,0.32776 -7.164949,1.55138 -4.736729,2.42411 -7.735995,7.30116 -8.112606,13.19177 l -0.0905,1.41559 -0.869464,-0.0169 c -0.478205,-0.009 -6.752193,-0.29715 -13.942198,-0.6397 z"
       id="path868"
       inkscape:connector-curvature="0"
       transform="matrix(0.26458333,0,0,0.26458333,79.287956,116.98794)" />
    <path
       style="fill:none;stroke:#000000;stroke-width:0.1;stroke-linecap:butt;stroke-linejoin:miter;stroke-miterlimit:4;stroke-dasharray:none;stroke-opacity:1"
       d="m 88.201172,138.1875 22.931638,3.79492"
       id="path870"
       inkscape:connector-curvature="0" />
    <path
       style="fill:none;stroke:#000000;stroke-width:0.1;stroke-linecap:butt;stroke-linejoin:miter;stroke-miterlimit:4;stroke-dasharray:none;stroke-opacity:1"
       d="m 99.112499,127.18521 8.396691,1.533"
       id="path872"
       inkscape:connector-curvature="0" />
    <path
       sodipodi:type="star"
       style="fill:#000000;fill-opacity:1;fill-rule:evenodd;stroke:#000000;stroke-width:0.1;stroke-miterlimit:4;stroke-dasharray:none;stroke-dashoffset:0;stroke-opacity:1"
       id="path874"
       sodipodi:sides="3"
       sodipodi:cx="107.16077"
       sodipodi:cy="111.68096"
       sodipodi:r1="5.5036688"
       sodipodi:r2="2.7518344"
       sodipodi:arg1="1.8464873"
       sodipodi:arg2="2.8936848"
       inkscape:flatsided="false"
       inkscape:rounded="0"
       inkscape:randomized="0"
       d="m 105.6626,116.9768 -1.16954,-4.6206 -1.16954,-4.6206 4.58633,1.29744 4.58633,1.29745 -3.41679,3.32315 z"
       inkscape:transform-center-x="0.20473805"
       inkscape:transform-center-y="-2.6822446"
       transform="rotate(57.285327,104.30037,112.45958)" />
    <path
       sodipodi:type="star"
       style="fill:#000000;fill-opacity:1;fill-rule:evenodd;stroke:#000000;stroke-width:0.1;stroke-miterlimit:4;stroke-dasharray:none;stroke-dashoffset:0;stroke-opacity:1"
       id="path891"
       sodipodi:sides="3"
       sodipodi:cx="123.04828"
       sodipodi:cy="120.6351"
       sodipodi:r1="5.420887"
       sodipodi:r2="2.7104435"
       sodipodi:arg1="0.76721835"
       sodipodi:arg2="1.8144159"
       inkscape:flatsided="false"
       inkscape:rounded="0"
       inkscape:randomized="0"
       d="m 126.95047,124.39793 -4.556,-1.13242 -4.556,-1.13242 3.25871,-3.3794 3.25871,-3.3794 1.29729,4.51182 z"
       inkscape:transform-center-x="0.049247407"
       inkscape:transform-center-y="1.5913762"
       transform="rotate(62.151477,130.05354,100.80907)" />
    <path
       style="fill:#f8fa00;fill-opacity:0.97647059;fill-rule:evenodd;stroke:#000000;stroke-width:0.0497698;stroke-miterlimit:4;stroke-dasharray:none;stroke-dashoffset:0;stroke-opacity:1"
       d="M 90.384316,41.118435 C 83.156297,39.793213 77.214294,38.680772 77.179865,38.646343 77.145435,38.611914 79.937934,31.390406 83.385417,22.59855 86.8329,13.806693 89.828642,6.1606554 90.042622,5.6073558 l 0.389053,-1.0059994 1.214101,0.259512 c 1.816831,0.3883448 16.475974,4.0791346 16.574864,4.1731185 0.0471,0.044736 0.004,0.6146524 -0.0954,1.2664811 -0.0995,0.651829 -0.36253,2.72583 -0.58444,4.608892 -1.75905,14.92665 -3.29913,27.856711 -3.36041,28.212999 -0.0578,0.336108 -0.13593,0.425565 -0.36393,0.416769 -0.15968,-0.0062 -6.204155,-1.095472 -13.432174,-2.420693 z"
       id="path893"
       inkscape:connector-curvature="0"
       transform="matrix(0.26458333,0,0,0.26458333,79.287956,116.98794)" />
    <path
       style="fill:#f8fa00;fill-opacity:0.97647059;fill-rule:evenodd;stroke:#000000;stroke-width:0.0497698;stroke-miterlimit:4;stroke-dasharray:none;stroke-dashoffset:0;stroke-opacity:1"
       d="m 47.692741,125.97147 c -2.752167,-0.13286 -8.026056,-0.3919 -11.719753,-0.57563 -3.693697,-0.18373 -7.075254,-0.33404 -7.51457,-0.33402 l -0.798758,4e-5 0.303395,-1.41558 c 0.166867,-0.77858 1.196827,-6.21542 2.2888,-12.08188 2.553596,-13.718809 5.778725,-30.651855 5.852022,-30.725152 0.03132,-0.03132 17.430242,2.818964 38.664262,6.333974 l 38.607311,6.390927 1.54191,1.560056 1.54191,1.560056 -0.77424,4.213839 c -1.85324,10.08645 -4.07284,22.1082 -4.33462,23.47718 l -0.28419,1.48617 -0.74133,-0.0667 c -0.40773,-0.0367 -4.59304,-0.0985 -9.30069,-0.1374 -4.707655,-0.0389 -10.284398,-0.10868 -12.392763,-0.15515 l -3.833391,-0.0845 -0.0824,-1.13259 c -0.09387,-1.29016 -0.574043,-3.37025 -1.06277,-4.60384 -0.8429,-2.12754 -2.011296,-3.79624 -3.949691,-5.64093 -2.546025,-2.42295 -5.101878,-3.58477 -8.482411,-3.85588 -4.212314,-0.33781 -8.149946,1.05291 -11.13563,3.93296 -2.958784,2.8541 -4.62029,6.54577 -4.910958,10.91157 l -0.0811,1.21807 -1.198202,-0.017 c -0.659013,-0.009 -3.449977,-0.12569 -6.202143,-0.25856 z"
       id="path895"
       inkscape:connector-curvature="0"
       transform="matrix(0.26458333,0,0,0.26458333,79.287956,116.98794)" />
    <path
       style="fill:#000000;fill-opacity:1;fill-rule:evenodd;stroke:#000000;stroke-width:0.0497698;stroke-miterlimit:4;stroke-dasharray:none;stroke-dashoffset:0;stroke-opacity:1"
       d="m 74.361652,150.10284 c -20.894739,-3.46767 -38.034877,-6.30715 -38.089196,-6.30994 -0.05432,-0.003 -0.09876,-0.0803 -0.09876,-0.17223 0,-0.17107 2.569014,-0.79245 19.981499,-4.83304 4.580173,-1.06283 8.367055,-1.97189 8.415293,-2.02013 0.04824,-0.0482 -0.0011,-0.49192 -0.109401,-0.98596 l -0.197106,-0.89825 6.284718,-16.03123 c 3.456595,-8.81718 6.319566,-16.06608 6.362158,-16.10867 0.05922,-0.0592 27.096523,4.79854 27.159033,4.87963 0.0365,0.0473 -4.135492,34.48471 -4.241615,35.01257 -0.07153,0.35579 -0.06148,0.36213 0.574125,0.36213 0.35581,0 0.68764,0.0407 0.73739,0.0905 0.0498,0.0498 -0.13142,0.3177 -0.40261,0.59543 l -0.49308,0.50496 3.68371,3.57767 c 6.1428,5.96597 8.8294,8.66179 8.6218,8.65137 -0.10864,-0.005 -17.293218,-2.8471 -38.187956,-6.31477 z"
       id="path897"
       inkscape:connector-curvature="0"
       transform="matrix(0.26458333,0,0,0.26458333,79.287114,100.18742)" />
  </g>
</svg>
