<?xml version="1.0" encoding="UTF-8" standalone="no"?>
<!-- Uploaded to: SVG Repo, www.svgrepo.com, Generator: SVG Repo Mixer Tools -->

<svg
   xmlns:dc="http://purl.org/dc/elements/1.1/"
   xmlns:cc="http://creativecommons.org/ns#"
   xmlns:rdf="http://www.w3.org/1999/02/22-rdf-syntax-ns#"
   xmlns:svg="http://www.w3.org/2000/svg"
   xmlns="http://www.w3.org/2000/svg"
   xmlns:sodipodi="http://sodipodi.sourceforge.net/DTD/sodipodi-0.dtd"
   xmlns:inkscape="http://www.inkscape.org/namespaces/inkscape"
   width="406.65289"
   height="400"
   viewBox="0 0 38.632025 38"
   version="1.1"
   enable-background="new 0 0 76.00 76.00"
   xml:space="preserve"
   id="svg827"
   sodipodi:docname="plants.svg"
   inkscape:version="0.92.4 (5da689c313, 2019-01-14)"><metadata
   id="metadata833"><rdf:RDF><cc:Work
       rdf:about=""><dc:format>image/svg+xml</dc:format><dc:type
         rdf:resource="http://purl.org/dc/dcmitype/StillImage" /><dc:title /></cc:Work></rdf:RDF></metadata><defs
   id="defs831" /><sodipodi:namedview
   pagecolor="#ffffff"
   bordercolor="#666666"
   borderopacity="1"
   objecttolerance="10"
   gridtolerance="10"
   guidetolerance="10"
   inkscape:pageopacity="0"
   inkscape:pageshadow="2"
   inkscape:window-width="4200"
   inkscape:window-height="2569"
   id="namedview829"
   showgrid="false"
   inkscape:zoom="2.8025"
   inkscape:cx="63.339821"
   inkscape:cy="200"
   inkscape:window-x="-16"
   inkscape:window-y="-16"
   inkscape:window-maximized="1"
   inkscape:current-layer="svg827" />
	<path
   d="m 19.441012,0 c 0,0 3,2 2,3 0,0 2,-3 0.75,2.25 0,0 2.25,-3.25 0.75,1.5 0,0 2.5,-3.75 0.75,1.5 0,0 1.75,-2.25 0.75,1.75 0,0 2,-1 0,3 0,0 2,-1 0,3 0,0 2,0 -1,4 0,0 2,-2 2,0 0,0 2,-5 2,-2 0,0 2,-6 2,-2 0,0 3,-5 2,-1 0,0 2,-5 2,-2 0,0 4,-4 2,0 0,0 1.75,-1.75 2.75,-1.7499 1,0 0.25,1.7499 -1.75,2.7499 0,0 4,-1 0,2 0,0 2,0 -1,2 0,0 2,1 -2,2 0,0 4,1 -1,2 0,0 2,1 -1,2 0,0 2,1 -2,2 0,0 3,0 -1,1 0,0 5,0 2,1 0,0 6,0 2,1 0,0 6,0 2,1 0.6667,0 5,0 0,1 0,0 2,1 -3,1 0,0 4,2 -2,0 0,0 4,3 -2,0 0,0 4,2.75 -2,0.75 0,0 2,1.25 -2,0.25 0,0 3,1 4.25,3.5 -3,1 -6.25,-2.5 -7.25,-3.5 v 5 h -2 v -5 c -1,1 -4.25,4.5 -7.25,3.5 1.25,-2.5 4.25,-3.5 4.25,-3.5 -4,1 -2,-0.25 -2,-0.25 -6.0000003,2 -2,-0.75 -2,-0.75 -6.0000003,3 -2.0000003,0 -2.0000003,0 -6,2 -2,0 -2,0 -5,0 -3,-1 -3,-1 -1,0 -1,0 -2.25,-0.5 1.25,-0.5 1.5833,-0.5 2.25,-0.5 -3.99999998,-1 2,-1 2,-1 -5,-1 2,-1 2,-1 -3,-1 4.0000003,-1 4.0000003,-1 -7.0000003,0 -3.0000003,-1 -3.0000003,-1 -4,-1 -2,-2 -2,-2 -3,-1 -1.5,-2 -1.5,-2 -4.99999998,-1 -1,-2 -1,-2 -3.99999998,-1 -2,-2 -2,-2 -2.99999998,-2 -0.5,-2 -0.5,-2 -2.99999998,-2 -0.25,-1.5 -0.25,-1.5 -1.99999998,-1 -2.74999998,-2.5 -1.74999998,-2.5 0.99999998,0 2.99999998,1.5 2.99999998,1.5 -2,-3.5 2,0.5 2,0.5 -1,-4 2,1 2,1 -1,-4 2,1 2,1 0,-4 2.0000003,2 2.0000003,2 0,-3 2,2 2,2 0,-2 2,0 2,0 -3,-4 -1,-4 -1,-4 -2,-4 0,-3 0,-3 -2,-4 0,-3 0,-3 -1,-4 1,-2 1,-2 -1,-3 0,-2 0,-2 0,-4 1,-1 1,-1 -1,-4 1,-2 1,-2 -1,-1 2,-3 2,-3 z"
   id="path825"
   style="fill:#026804;fill-opacity:0.99680001;stroke-linejoin:round"
   inkscape:connector-curvature="0" />
</svg>