<?xml version="1.0" encoding="UTF-8" standalone="no"?>
<svg
   xmlns:dc="http://purl.org/dc/elements/1.1/"
   xmlns:cc="http://creativecommons.org/ns#"
   xmlns:rdf="http://www.w3.org/1999/02/22-rdf-syntax-ns#"
   xmlns:svg="http://www.w3.org/2000/svg"
   xmlns="http://www.w3.org/2000/svg"
   xmlns:sodipodi="http://sodipodi.sourceforge.net/DTD/sodipodi-0.dtd"
   xmlns:inkscape="http://www.inkscape.org/namespaces/inkscape"
   version="1.1"
   x="0px"
   y="0px"
   viewBox="0 0 35.944901 41.361259"
   enable-background="new 0 0 100 90"
   xml:space="preserve"
   id="svg11311"
   sodipodi:docname="powerpylon.svg"
   width="35.944901"
   height="41.361259"
   inkscape:version="0.92.4 (5da689c313, 2019-01-14)"><metadata
     id="metadata11317"><rdf:RDF><cc:Work
         rdf:about=""><dc:format>image/svg+xml</dc:format><dc:type
           rdf:resource="http://purl.org/dc/dcmitype/StillImage" /><dc:title></dc:title></cc:Work></rdf:RDF></metadata><defs
     id="defs11315" /><sodipodi:namedview
     pagecolor="#ffffff"
     bordercolor="#666666"
     borderopacity="1"
     objecttolerance="10"
     gridtolerance="10"
     guidetolerance="10"
     inkscape:pageopacity="0"
     inkscape:pageshadow="2"
     inkscape:window-width="4200"
     inkscape:window-height="2569"
     id="namedview11313"
     showgrid="false"
     inkscape:zoom="14.93085"
     inkscape:cx="23.807042"
     inkscape:cy="30.531659"
     inkscape:window-x="-16"
     inkscape:window-y="-16"
     inkscape:window-maximized="1"
     inkscape:current-layer="svg11311" /><path
     style="fill:#000000"
     d="m 22.944902,40.907295 c 0,-0.392195 0.778162,-1.282088 1.729248,-1.977539 1.631509,-1.192989 1.61114,-1.665518 -0.360385,-8.360243 -1.482344,-5.033608 -1.74028,-7.095785 -0.887536,-7.095785 0.661154,0 1.786599,1.9125 2.50099,4.25 l 1.298892,4.25 1.442729,-4.25 c 0.793501,-2.3375 1.855229,-4.25 2.359395,-4.25 1.384965,0 1.044521,1.793917 -1.896055,9.99096 -1.784981,4.975751 -3.274868,7.602557 -4.437278,7.823324 -0.9625,0.182801 -1.75,0.01148 -1.75,-0.380717 z M 8.9449021,26.973728 v -9.5 h 5.0214389 c 4.433857,0 5.159691,0.303431 6.202934,2.5931 1.837507,4.032889 -0.697231,7.815927 -5.505791,8.217265 -3.609663,0.301275 -3.718582,0.42576 -3.718582,4.25 0,2.166799 -0.45,3.939635 -0.9999999,3.939635 -0.596491,0 -1,-3.833333 -1,-9.5 z m 8.4285709,-2.071429 c 0.864286,-0.864285 1.571429,-1.899285 1.571429,-2.3 0,-1.595081 -2.548814,-3.128571 -5.2,-3.128571 -2.533333,0 -2.8,0.333333 -2.8,3.5 0,3.039216 0.319728,3.5 2.428571,3.5 1.335715,0 3.135715,-0.707143 4,-1.571429 z m 16.571429,2.071429 c 0,-5.666667 0.403509,-9.5 1,-9.5 0.596491,0 1,3.833333 1,9.5 0,5.666667 -0.403509,9.5 -1,9.5 -0.596491,0 -1,-3.833333 -1,-9.5 z M 3.1731661,12.243534 C -1.1709439,10.149948 -1.0188469,2.6895015 3.4090761,0.67200459 10.486923,-2.5528784 16.387368,6.6207226 10.310043,11.401148 7.3681421,13.715248 6.4514301,13.82345 3.1731661,12.243534 Z m 6.571736,-1.969806 C 11.646371,8.3722586 11.202864,3.6821521 9.0106431,2.5089114 5.9571291,0.87471959 4.1184221,1.2792696 2.3529451,3.9737276 c -1.51741704,2.315871 -1.51741704,2.684129 0,5 1.755272,2.6788834 5.376262,3.3156954 7.391957,1.3000004 z m -5.3,-2.8000004 c -0.83704,-1.35436 0.292427,-3 2.059017,-3 0.792541,0 1.440983,0.9 1.440983,2 0,2.070306 -2.412511,2.759595 -3.5,1 z"
     id="path11886"
     inkscape:connector-curvature="0" /></svg>