<?xml version="1.0" encoding="UTF-8" standalone="no"?>
<!-- Created with Inkscape (http://www.inkscape.org/) -->

<svg
   xmlns:dc="http://purl.org/dc/elements/1.1/"
   xmlns:cc="http://creativecommons.org/ns#"
   xmlns:rdf="http://www.w3.org/1999/02/22-rdf-syntax-ns#"
   xmlns:svg="http://www.w3.org/2000/svg"
   xmlns="http://www.w3.org/2000/svg"
   xmlns:sodipodi="http://sodipodi.sourceforge.net/DTD/sodipodi-0.dtd"
   xmlns:inkscape="http://www.inkscape.org/namespaces/inkscape"
   width="29.62908mm"
   height="132.52283mm"
   viewBox="0 0 29.629079 132.52283"
   version="1.1"
   id="svg8"
   inkscape:version="0.92.4 (5da689c313, 2019-01-14)"
   sodipodi:docname="rctlpt.svg">
  <defs
     id="defs2" />
  <sodipodi:namedview
     id="base"
     pagecolor="#ffffff"
     bordercolor="#666666"
     borderopacity="1.0"
     inkscape:pageopacity="0.0"
     inkscape:pageshadow="2"
     inkscape:zoom="3.7545455"
     inkscape:cx="160.00775"
     inkscape:cy="205.77617"
     inkscape:document-units="mm"
     inkscape:current-layer="layer1"
     showgrid="false"
     inkscape:window-width="4200"
     inkscape:window-height="2569"
     inkscape:window-x="-16"
     inkscape:window-y="-16"
     inkscape:window-maximized="1" />
  <metadata
     id="metadata5">
    <rdf:RDF>
      <cc:Work
         rdf:about="">
        <dc:format>image/svg+xml</dc:format>
        <dc:type
           rdf:resource="http://purl.org/dc/dcmitype/StillImage" />
        <dc:title></dc:title>
      </cc:Work>
    </rdf:RDF>
  </metadata>
  <g
     inkscape:label="Calque 1"
     inkscape:groupmode="layer"
     id="layer1"
     transform="translate(532.94848,427.20816)">
    <path
       style="fill:#9f2e99;fill-opacity:1;stroke-width:0.26458332"
       d="m -524.48606,-297.86069 v -3.175 h 1.45521 1.4552 v 1.94841 1.94841 l 1.22756,0.16826 c 1.55787,0.21353 4.68467,0.2181 5.2331,0.008 0.3294,-0.1264 0.41851,-0.57706 0.41851,-2.11666 v -1.95607 h 1.45521 1.45521 v 2.34818 c 0,1.29149 -0.0744,2.72024 -0.16537,3.175 l -0.16536,0.82682 h -6.18464 -6.18463 z m 0,-7.9375 v -2.91042 h 1.45521 1.4552 v 2.91042 2.91042 h -1.4552 -1.45521 z m 9.78958,0 v -2.91042 h 1.28984 c 1.23296,0 1.29714,0.0365 1.45521,0.82683 0.091,0.45475 0.16537,1.76444 0.16537,2.91041 v 2.0836 h -1.45521 -1.45521 z m -9.78958,-8.73125 v -2.91041 h 1.32291 1.32292 v 2.91041 2.91042 h -1.32292 -1.32291 z m 9.78958,0 v -2.91041 h 1.32292 1.32291 v 2.91041 2.91042 h -1.32291 -1.32292 z m -9.78958,-8.73125 v -3.175 h 1.32291 1.32292 v 3.175 3.175 h -1.32292 -1.32291 z m 9.78958,0 v -3.175 h 1.32292 1.32291 v 3.175 3.175 h -1.32291 -1.32292 z m -9.78958,-8.86354 v -3.30729 h 1.32291 1.32292 v 3.30729 3.30729 h -1.32292 -1.32291 z m 9.78958,0 v -3.30729 h 1.45521 1.45521 v 2.88878 c 0,1.58882 -0.0723,3.07711 -0.1606,3.30729 -0.11617,0.30273 -0.51877,0.41851 -1.45521,0.41851 h -1.29461 z m -9.78958,-8.33437 v -3.43959 h 1.32291 1.32292 v 3.43959 3.43958 h -1.32292 -1.32291 z m 9.78958,0 v -3.43959 h 1.45521 1.45521 v 3.43959 3.43958 h -1.45521 -1.45521 z m -9.78958,-9.26042 v -3.43958 h 1.32291 1.32292 v 3.43958 3.43958 h -1.32292 -1.32291 z m 9.78958,1.22755 c 0,-1.21661 0.0757,-2.76442 0.16826,-3.43958 l 0.16825,-1.22755 h 1.28695 1.28696 v 3.43958 3.43958 h -1.45521 -1.45521 z m -9.78958,-10.35567 v -3.04271 h 1.32291 1.32292 v 3.04271 3.0427 h -1.32292 -1.32291 z m 10.05416,0 v -3.04271 h 1.32292 1.32292 v 3.04271 3.0427 h -1.32292 -1.32292 z m -10.05416,-8.33438 v -2.91041 h 1.32291 1.32292 v 2.91041 2.91042 h -1.32292 -1.32291 z m 10.05416,0 v -2.91041 h 1.32292 1.32292 v 2.91041 2.91042 h -1.32292 -1.32292 z m -10.05416,-7.27604 v -2.51354 h 1.45521 1.4552 v 0.88723 c 0,0.48798 -0.0765,1.61907 -0.16998,2.51354 l -0.16998,1.62631 h -1.28523 -1.28522 z m 10.05416,0.41852 c 0,-1.15227 -0.0723,-2.28336 -0.1606,-2.51355 -0.13352,-0.34796 0.0672,-0.41851 1.19063,-0.41851 h 1.35122 v 2.51354 2.51354 h -1.19062 -1.19063 z m -10.05416,-7.0331 v -2.51354 h 1.45521 1.4552 v 2.51354 2.51354 h -1.4552 -1.45521 z m 9.79249,0.99219 c 0.002,-0.83675 0.0767,-1.96784 0.16691,-2.51355 0.16035,-0.97011 0.18972,-0.99218 1.32001,-0.99218 h 1.156 v 2.51354 2.51354 h -1.32291 -1.32292 l 0.003,-1.52135 z m -9.79249,-8.92969 v -3.04271 h 1.45521 1.4552 v 3.04271 3.04271 h -1.4552 -1.45521 z m 10.05416,0 v -3.04271 h 1.19063 1.19062 v 3.04271 3.04271 h -1.19062 -1.19063 z m -10.05416,-9.26042 c 0,-3.47934 -0.0431,-3.83598 -0.46302,-3.83131 -0.25467,0.003 -1.65365,0.17765 -3.10886,0.38848 -1.45521,0.21084 -3.15185,0.38712 -3.77031,0.39173 -1.88518,0.0141 -2.06345,0.41505 4.87802,-10.97181 1.59678,-2.61938 4.27338,-7.02469 5.948,-9.78959 2.96203,-4.89048 3.07011,-5.02925 3.97736,-5.10702 0.85714,-0.0735 0.9983,0.0228 1.74459,1.19062 0.44659,0.69881 3.32049,5.90201 6.38644,11.56265 4.09944,7.56878 5.57444,10.52667 5.57444,11.17865 v 0.88656 h -3.40651 c -1.87358,0 -3.76479,0.0717 -4.20269,0.15924 l -0.79618,0.15923 -0.19044,3.80952 -0.19044,3.80951 h -1.16312 -1.16312 l 0.004,-4.96094 c 0.002,-2.72851 0.0915,-5.09273 0.19844,-5.2538 0.11253,-0.16955 1.58605,-0.37281 3.4993,-0.48269 1.8177,-0.1044 3.34375,-0.22866 3.39123,-0.27614 0.0475,-0.0475 -0.23493,-0.72323 -0.62756,-1.50168 -1.01802,-2.01843 -7.74064,-14.4758 -8.36945,-15.50905 l -0.52612,-0.86452 -0.45536,0.59993 c -0.25044,0.32997 -1.83264,2.86212 -3.51599,5.62702 -1.68335,2.76489 -4.08678,6.68407 -5.34096,8.70928 -1.25418,2.02521 -2.24301,3.71952 -2.1974,3.76513 0.0456,0.0456 1.47818,-0.0498 3.18349,-0.21199 1.70532,-0.16221 3.14352,-0.24917 3.19601,-0.19326 0.0525,0.0559 0.18222,2.45315 0.28826,5.32719 l 0.19282,5.22552 h -1.48746 -1.48746 z"
       id="path838"
       inkscape:connector-curvature="0" />
  </g>
</svg>
