<?xml version="1.0" encoding="UTF-8" standalone="no"?>
<!-- Created with Inkscape (http://www.inkscape.org/) -->

<svg
   xmlns:dc="http://purl.org/dc/elements/1.1/"
   xmlns:cc="http://creativecommons.org/ns#"
   xmlns:rdf="http://www.w3.org/1999/02/22-rdf-syntax-ns#"
   xmlns:svg="http://www.w3.org/2000/svg"
   xmlns="http://www.w3.org/2000/svg"
   xmlns:sodipodi="http://sodipodi.sourceforge.net/DTD/sodipodi-0.dtd"
   xmlns:inkscape="http://www.inkscape.org/namespaces/inkscape"
   width="11.085475mm"
   height="29.706583mm"
   viewBox="0 0 11.085475 29.706583"
   version="1.1"
   id="svg891"
   inkscape:version="0.92.4 (5da689c313, 2019-01-14)"
   sodipodi:docname="rdocal2.svg">
  <defs
     id="defs885" />
  <sodipodi:namedview
     id="base"
     pagecolor="#ffffff"
     bordercolor="#666666"
     borderopacity="1.0"
     inkscape:pageopacity="0.0"
     inkscape:pageshadow="2"
     inkscape:zoom="17.058696"
     inkscape:cx="26.663225"
     inkscape:cy="56.138422"
     inkscape:document-units="mm"
     inkscape:current-layer="layer1"
     showgrid="false"
     inkscape:window-width="4200"
     inkscape:window-height="2569"
     inkscape:window-x="-16"
     inkscape:window-y="-16"
     inkscape:window-maximized="1" />
  <metadata
     id="metadata888">
    <rdf:RDF>
      <cc:Work
         rdf:about="">
        <dc:format>image/svg+xml</dc:format>
        <dc:type
           rdf:resource="http://purl.org/dc/dcmitype/StillImage" />
        <dc:title />
      </cc:Work>
    </rdf:RDF>
  </metadata>
  <g
     inkscape:label="Calque 1"
     inkscape:groupmode="layer"
     id="layer1"
     transform="translate(213.80762,-133.98004)">
    <path
       style="fill:#a4389e;fill-opacity:1;stroke-width:0.26458338"
       d="m -203.11777,151.08144 c -0.21268,0.47788 -0.79687,1.3657 -1.29822,1.97292 -1.71326,2.07507 -3.0171,5.4637 -3.37874,8.78119 -0.24741,2.26957 -0.73746,2.4944 -0.95925,0.4401 -0.39202,-3.63104 -1.53287,-6.82355 -3.30025,-9.23534 -2.38622,-3.25625 -2.34647,-5.15435 0.1782,-8.51158 1.60721,-2.13722 2.58144,-4.58188 3.15407,-7.91463 0.2603,-1.51491 0.5847,-2.68238 0.73152,-2.63252 0.14508,0.0493 0.33935,0.82476 0.4317,1.72329 0.20799,2.02354 1.06577,5.31812 1.73251,6.65419 0.27544,0.55197 0.91158,1.55175 1.41364,2.22173 0.50205,0.66997 1.09604,1.58028 1.31996,2.0229 0.5045,0.99717 0.49147,3.31692 -0.0251,4.47775 z m -0.92659,-4.51841 c -1.52108,-3.10929 -6.09434,-3.3013 -8.16049,-0.34263 -0.93361,1.33689 -0.96796,3.79813 -0.0717,5.13147 1.33506,1.98598 3.61078,2.793 5.69306,2.01887 1.32447,-0.49239 2.71531,-1.8869 2.96464,-2.97248 0.0911,-0.39671 0.20163,-0.84005 0.24559,-0.98519 0.14466,-0.47761 -0.17537,-1.83655 -0.67117,-2.85004 z m -3.08659,7.7505 c -0.59213,0.15786 -1.36848,0.1585 -2.07289,0.002 l -1.1262,-0.25067 0.57497,1.22049 c 0.31623,0.67127 0.77991,1.97735 1.03038,2.9024 l 0.4554,1.68191 0.58503,-1.93727 c 0.32177,-1.0655 0.78542,-2.29269 1.03034,-2.72709 0.62516,-1.10879 0.58934,-1.17575 -0.47703,-0.89148 z m -0.66025,-15.2748 c -0.20816,-1.16667 -0.39692,-0.97139 -1.02963,1.0652 -0.27052,0.87075 -0.72386,2.03093 -1.00742,2.57817 l -0.51556,0.99498 0.73813,-0.15518 c 0.40597,-0.0853 0.86566,-0.19159 1.02154,-0.23611 0.15587,-0.0445 0.75942,0.0108 1.34121,0.12222 l 1.05779,0.20314 -0.71817,-1.81063 c -0.39501,-0.99586 -0.79455,-2.23866 -0.88789,-2.76179 z"
       id="path874"
       inkscape:connector-curvature="0" />
  </g>
</svg>
