<?xml version="1.0" encoding="UTF-8" standalone="no"?>
<!-- Created with Inkscape (http://www.inkscape.org/) -->

<svg
   xmlns:dc="http://purl.org/dc/elements/1.1/"
   xmlns:cc="http://creativecommons.org/ns#"
   xmlns:rdf="http://www.w3.org/1999/02/22-rdf-syntax-ns#"
   xmlns:svg="http://www.w3.org/2000/svg"
   xmlns="http://www.w3.org/2000/svg"
   xmlns:sodipodi="http://sodipodi.sourceforge.net/DTD/sodipodi-0.dtd"
   xmlns:inkscape="http://www.inkscape.org/namespaces/inkscape"
   width="11.076473mm"
   height="20.405672mm"
   viewBox="0 0 11.076473 20.405673"
   version="1.1"
   id="svg8"
   inkscape:version="0.92.4 (5da689c313, 2019-01-14)"
   sodipodi:docname="rdocal1.svg">
  <defs
     id="defs2" />
  <sodipodi:namedview
     id="base"
     pagecolor="#ffffff"
     bordercolor="#666666"
     borderopacity="1.0"
     inkscape:pageopacity="0.0"
     inkscape:pageshadow="2"
     inkscape:zoom="10.749315"
     inkscape:cx="35.670244"
     inkscape:cy="68.593885"
     inkscape:document-units="mm"
     inkscape:current-layer="layer1"
     showgrid="false"
     inkscape:window-width="4200"
     inkscape:window-height="2569"
     inkscape:window-x="-16"
     inkscape:window-y="-16"
     inkscape:window-maximized="1" />
  <metadata
     id="metadata5">
    <rdf:RDF>
      <cc:Work
         rdf:about="">
        <dc:format>image/svg+xml</dc:format>
        <dc:type
           rdf:resource="http://purl.org/dc/dcmitype/StillImage" />
        <dc:title></dc:title>
      </cc:Work>
    </rdf:RDF>
  </metadata>
  <g
     inkscape:label="Calque 1"
     inkscape:groupmode="layer"
     id="layer1"
     transform="translate(216.5687,-146.19848)">
    <path
       style="fill:none;stroke:#000000;stroke-width:0.26458332px;stroke-linecap:butt;stroke-linejoin:miter;stroke-opacity:1"
       d="m -243.73245,129.62792 -0.14769,18.36202"
       id="path828"
       inkscape:connector-curvature="0" />
    <path
       style="fill:none;stroke:#000000;stroke-width:0.26458332px;stroke-linecap:butt;stroke-linejoin:miter;stroke-opacity:1"
       d="m -243.73245,129.62792 1.47684,0.0738"
       id="path830"
       inkscape:connector-curvature="0" />
    <path
       style="fill:none;stroke:#000000;stroke-width:0.26458332px;stroke-linecap:butt;stroke-linejoin:miter;stroke-opacity:1"
       d="m -243.88014,147.98994 1.18148,-0.0492"
       id="path832"
       inkscape:connector-curvature="0" />
    <path
       style="fill:none;stroke:#000000;stroke-width:0.26458332px;stroke-linecap:butt;stroke-linejoin:miter;stroke-opacity:1"
       d="m -243.65861,145.43009 1.13224,-0.0492"
       id="path834"
       inkscape:connector-curvature="0" />
    <path
       style="fill:none;stroke:#000000;stroke-width:0.26458332px;stroke-linecap:butt;stroke-linejoin:miter;stroke-opacity:1"
       d="m -243.60938,143.21483 0.98456,-0.0985"
       id="path836"
       inkscape:connector-curvature="0" />
    <path
       style="fill:none;stroke:#000000;stroke-width:0.26458332px;stroke-linecap:butt;stroke-linejoin:miter;stroke-opacity:1"
       d="m -243.63399,141.2211 1.0584,-0.0246"
       id="path838"
       inkscape:connector-curvature="0" />
    <path
       style="fill:none;stroke:#000000;stroke-width:0.26458332px;stroke-linecap:butt;stroke-linejoin:miter;stroke-opacity:1"
       d="m -243.65861,139.20275 1.0584,0.0985"
       id="path840"
       inkscape:connector-curvature="0" />
    <path
       style="fill:none;stroke:#000000;stroke-width:0.26458332px;stroke-linecap:butt;stroke-linejoin:miter;stroke-opacity:1"
       d="m -243.58477,137.20902 h 0.98456"
       id="path842"
       inkscape:connector-curvature="0" />
    <path
       style="fill:none;stroke:#000000;stroke-width:0.26458332px;stroke-linecap:butt;stroke-linejoin:miter;stroke-opacity:1"
       d="m -243.65861,135.16606 1.0584,0.0492"
       id="path844"
       inkscape:connector-curvature="0" />
    <path
       style="fill:none;stroke:#000000;stroke-width:0.26458332px;stroke-linecap:butt;stroke-linejoin:miter;stroke-opacity:1"
       d="m -243.51092,133.56616 0.76303,-0.0738"
       id="path846"
       inkscape:connector-curvature="0" />
    <path
       style="fill:none;stroke:#000000;stroke-width:0.26458332px;stroke-linecap:butt;stroke-linejoin:miter;stroke-opacity:1"
       d="m -243.63399,131.72011 1.20608,0.0738"
       id="path848"
       inkscape:connector-curvature="0" />
    <path
       style="fill:#a4389e;fill-opacity:1;stroke-width:0.26458335"
       d="m -205.86295,163.245 c -0.2056,0.47241 -0.74741,1.3234 -1.20402,1.89108 -0.66209,0.82312 -1.08013,1.07657 -2.0642,1.25146 -1.71376,0.30461 -3.97513,0.28378 -3.92283,-0.0362 0.0238,-0.14551 -0.25437,-0.30183 -0.61815,-0.34737 -0.75352,-0.0943 -2.13593,-1.79051 -2.60749,-3.19928 -0.65392,-1.95356 -0.23026,-3.551 1.59796,-6.02524 1.58913,-2.15068 2.54272,-4.60347 3.08724,-7.94093 0.24751,-1.51705 0.56208,-2.68721 0.70929,-2.63858 0.1455,0.0481 0.34631,0.82186 0.44623,1.71958 0.22504,2.02172 1.11056,5.30895 1.78852,6.63935 0.2801,0.54963 0.92464,1.54401 1.43232,2.20973 0.50769,0.66572 1.10933,1.57099 1.33698,2.0117 0.51065,0.98858 0.52008,3.31123 0.0182,4.46463 z m -0.97021,-4.49726 c -1.54723,-3.09635 -6.12194,-3.24981 -8.16307,-0.27384 -0.92231,1.34472 -0.93591,3.80616 -0.0284,5.1319 1.35176,1.97466 3.63419,2.76246 5.70987,1.97082 1.32028,-0.50355 2.69931,-1.90973 2.93948,-2.99737 0.0878,-0.39747 0.19455,-0.84172 0.23729,-0.98723 0.14062,-0.47881 -0.19085,-1.83501 -0.69519,-2.84428 z m -3.81012,-7.49246 c -0.21799,-1.16486 -0.4051,-0.968 -1.02062,1.07385 -0.26316,0.873 -0.7067,2.03696 -0.98564,2.58656 l -0.50716,0.9993 0.7368,-0.16139 c 0.40524,-0.0887 0.86402,-0.19888 1.01952,-0.24471 0.15549,-0.0458 0.75948,0.004 1.34218,0.1109 l 1.05947,0.19422 -0.73342,-1.80452 c -0.40337,-0.99249 -0.81339,-2.23188 -0.91113,-2.75421 z"
       id="path872"
       inkscape:connector-curvature="0" />
  </g>
</svg>
