<?xml version="1.0" encoding="UTF-8" standalone="no"?>
<!-- Created with Inkscape (http://www.inkscape.org/) -->

<svg
   xmlns:dc="http://purl.org/dc/elements/1.1/"
   xmlns:cc="http://creativecommons.org/ns#"
   xmlns:rdf="http://www.w3.org/1999/02/22-rdf-syntax-ns#"
   xmlns:svg="http://www.w3.org/2000/svg"
   xmlns="http://www.w3.org/2000/svg"
   xmlns:sodipodi="http://sodipodi.sourceforge.net/DTD/sodipodi-0.dtd"
   xmlns:inkscape="http://www.inkscape.org/namespaces/inkscape"
   width="32.626717mm"
   height="8.7733202mm"
   viewBox="0 0 32.626717 8.7733201"
   version="1.1"
   id="svg891"
   inkscape:version="0.92.4 (5da689c313, 2019-01-14)"
   sodipodi:docname="sandwave.svg">
  <defs
     id="defs885" />
  <sodipodi:namedview
     id="base"
     pagecolor="#ffffff"
     bordercolor="#666666"
     borderopacity="1.0"
     inkscape:pageopacity="0.0"
     inkscape:pageshadow="2"
     inkscape:zoom="3.2582323"
     inkscape:cx="90.389458"
     inkscape:cy="87.9582"
     inkscape:document-units="mm"
     inkscape:current-layer="layer1"
     showgrid="false"
     inkscape:window-width="2438"
     inkscape:window-height="1468"
     inkscape:window-x="762"
     inkscape:window-y="980"
     inkscape:window-maximized="0" />
  <metadata
     id="metadata888">
    <rdf:RDF>
      <cc:Work
         rdf:about="">
        <dc:format>image/svg+xml</dc:format>
        <dc:type
           rdf:resource="http://purl.org/dc/dcmitype/StillImage" />
        <dc:title></dc:title>
      </cc:Work>
    </rdf:RDF>
  </metadata>
  <g
     inkscape:label="Calque 1"
     inkscape:groupmode="layer"
     id="layer1"
     transform="translate(-38.723511,-163.25545)">
    <path
       style="fill:none;stroke:#000000;stroke-width:1.465;stroke-linecap:butt;stroke-linejoin:miter;stroke-miterlimit:4;stroke-dasharray:none;stroke-opacity:1"
       d="m 39.272868,169.99703 c 0.128117,-0.14526 0.341964,0.0726 0.487228,0 0.216545,-0.10827 -0.243614,-0.0812 0.0812,-0.0812 0.05414,0 0.108273,0 0.162409,0 0.02707,0 0.06206,0.0191 0.0812,0 0.01914,-0.0191 -0.02707,-0.0812 0,-0.0812 0.02707,0 -0.01914,0.0621 0,0.0812 0.01914,0.0191 0.06206,0.0191 0.08121,0 0.01914,-0.0191 0,-0.0541 0,-0.0812 0.108272,-0.0271 0.21538,-0.0593 0.324818,-0.0812 0.09048,-0.0181 0.246924,0.0389 0.324818,0 0.02421,-0.0121 -0.02707,-0.0812 0,-0.0812 0.03828,0 0.04292,0.0812 0.0812,0.0812 0.02707,0 -0.02421,-0.0691 0,-0.0812 0.04842,-0.0242 0.113989,0.0242 0.16241,0 0.216545,-0.10827 -0.243614,-0.0812 0.0812,-0.0812 0.05414,0 0.108273,0 0.162409,0 0.02707,0 0.0691,0.0242 0.0812,0 0.02421,-0.0484 -0.02421,-0.11399 0,-0.16241 0.135341,-0.27068 0.0812,0.5143 0.0812,0.16241 0,-0.0812 -0.05742,-0.18619 0,-0.24361 0.0428,-0.0428 0.104989,0.0621 0.162409,0.0812 0.125189,0.0417 0.09398,-0.0812 0.243614,-0.0812 0.03828,0 0.04292,0.0812 0.0812,0.0812 0.06053,0 0.128835,-0.0308 0.162409,-0.0812 0.03003,-0.0451 -0.05414,-0.16241 0,-0.16241 0.06053,0 0.03841,0.2052 0.0812,0.16241 0.281739,-0.28174 -0.246313,-0.18768 0.0812,-0.40603 0.04504,-0.03 0.111051,0.0171 0.162409,0 0.03632,-0.0121 0.04489,-0.0691 0.0812,-0.0812 0.05136,-0.0171 0.124129,0.0383 0.162409,0 0.03828,-0.0383 0,-0.10827 0,-0.16241 0,-0.0271 -0.02707,-0.0812 0,-0.0812 0.03828,0 0.04292,0.0812 0.0812,0.0812 0.02707,0 -0.01914,-0.0621 0,-0.0812 0.01914,-0.0191 0.05414,0 0.0812,0 0.05414,0 0.113988,0.0242 0.162409,0 0.02421,-0.0121 -0.02707,-0.0812 0,-0.0812 0.02707,0 -0.02568,0.0898 0,0.0812 0.09259,-0.0309 0.156321,-0.11876 0.243614,-0.1624 0.02421,-0.0121 0.07265,0.0257 0.0812,0 0.02568,-0.077 -0.04504,-0.17605 0,-0.24362 0.03003,-0.045 0.113988,0.0242 0.16241,0 0.02421,-0.0121 -0.01914,-0.0621 0,-0.0812 3.7e-4,-3.7e-4 0.241637,5.5e-4 0.243613,0 1.014814,-0.28995 0.0491,0.0321 0.487228,-0.40603 0.543612,-0.54361 0.105716,0.069 0.568431,-0.16241 0.102717,-0.0514 0.136987,-0.20096 0.243614,-0.24361 0.0562,-0.0225 0.112048,0.11478 0.162409,0.0812 0.07122,-0.0475 0.02068,-0.18309 0.08121,-0.24362 0.03828,-0.0383 0.124129,0.0383 0.162409,0 0.06053,-0.0605 0.02068,-0.18309 0.08121,-0.24361 0.03828,-0.0383 0.162409,-0.0541 0.162409,0 0,0.0541 -0.162409,0.0541 -0.162409,0 0,-0.0766 0.11994,-0.0987 0.162409,-0.16241 0.01501,-0.0225 -0.02568,-0.0727 0,-0.0812 0.07704,-0.0257 0.186193,0.0574 0.243613,0 0.05742,-0.0574 -0.03199,-0.16897 0,-0.24361 0.05331,-0.1244 0.147913,-0.22912 0.243614,-0.32482 0.163505,-0.1635 0.251036,0.0147 0.406023,-0.24361 0.04178,-0.0696 -0.04178,-0.17398 0,-0.24361 0.123012,-0.20502 0.305142,-0.16241 0.487227,-0.16241 0.05414,0 0.113988,0.0242 0.162409,0 0.02421,-0.0121 -0.0086,-0.0555 0,-0.0812 0.01914,-0.0574 0.03084,-0.12883 0.0812,-0.16241 0.04504,-0.03 0.111051,0.0171 0.162409,0 0.03632,-0.0121 0.04407,-0.0719 0.08121,-0.0812 0.07878,-0.0197 0.166576,0.0257 0.243613,0 0.174816,-0.0583 -0.403006,-0.24362 0.08121,-0.24362 0.07656,0 0.08585,0.16241 0.162409,0.16241 0.05414,0 -0.01712,-0.11105 0,-0.16241 0.0121,-0.0363 0.04292,-0.0812 0.0812,-0.0812 0.0856,0 0.158017,0.0812 0.243614,0.0812 0.02707,0 -0.02421,-0.0691 0,-0.0812 0.04842,-0.0242 0.111051,0.0171 0.162409,0 0.03632,-0.0121 0.05414,-0.10827 0.0812,-0.0812 0.02707,0.0271 -0.04292,0.0812 -0.0812,0.0812 -0.02707,0 -0.0086,-0.0555 0,-0.0812 0.01914,-0.0574 0.03084,-0.12884 0.0812,-0.16241 0.04504,-0.03 0.113988,0.0242 0.162409,0 0.02421,-0.0121 -0.02568,-0.0727 0,-0.0812 0.07704,-0.0257 0.170982,0.0363 0.243614,0 0.05414,-0.0271 0.03084,-0.12883 0.0812,-0.16241 0.04504,-0.03 0.108273,0 0.162409,0 0.02707,0 0.0812,-0.0271 0.0812,0 0,0.0271 -0.0812,0.0271 -0.0812,0 0,-0.23761 0.113879,0.0159 0.162409,-0.0812 0.02421,-0.0484 -0.03828,-0.12413 0,-0.16241 0.03828,-0.0383 0.108273,0 0.16241,0 0.02707,0 0.05414,0 0.0812,0 0.08121,0 0.162409,0 0.243614,0 0.02707,0 0.06206,0.0191 0.0812,0 0.01914,-0.0191 -0.02707,-0.0812 0,-0.0812 0.06053,0 0.101883,0.0812 0.162409,0.0812 0.03828,0 0.04292,-0.0812 0.0812,-0.0812 0.02707,0 -0.01501,0.0587 0,0.0812 0.04247,0.0637 0.216546,0.10827 0.162409,0.16241 -0.05414,0.0541 -0.162409,-0.0858 -0.162409,-0.16241 0,-0.0541 0.108273,0 0.162409,0 0.108273,0 0.216546,0 0.324818,0 0.433092,0 0.866182,0 1.299273,0 0.05414,0 0.108273,0 0.162409,0 0.02707,0 0.0691,-0.0242 0.0812,0 0.02421,0.0484 0,0.10827 0,0.16241 0,0.0271 0.02707,0.0812 0,0.0812 -0.02707,0 -0.02707,-0.0812 0,-0.0812 0.03828,0 0.04489,0.0691 0.08121,0.0812 0.05136,0.0171 0.108272,0 0.162409,0 0.02707,0.0541 0.03278,0.1261 0.0812,0.16241 0.391966,0.29398 0.09667,-0.0425 0.406023,0.0812 0.09061,0.0362 0.156322,0.11876 0.243614,0.16241 0.200003,0.1 -0.07331,-0.23572 0.243613,0.0812 0.0428,0.0428 0.03084,0.12884 0.0812,0.16241 0.243614,0.16241 0.08121,-0.0812 0.243614,0 0.121053,0.0605 0.147913,0.22912 0.243613,0.32482 0.02022,0.0202 0.477254,-0.015 0.487228,0 0.135341,0.20301 -0.09023,0.22557 0,0.40602 0.0121,0.0242 0.0812,-0.0271 0.0812,0 0,0.0271 -0.06206,-0.0191 -0.0812,0 -0.01914,0.0191 -0.02707,0.0812 0,0.0812 0.03828,0 0.04292,-0.0812 0.0812,-0.0812 0.02707,0 -0.02421,0.0691 0,0.0812 0.04842,0.0242 0.113989,-0.0242 0.162409,0 0.03213,0.0161 -0.04039,0.16283 0,0.24362 0.02421,0.0484 0.124129,-0.0383 0.16241,0 0.0406,0.0406 -0.0406,0.20301 0,0.24361 0.03828,0.0383 0.113988,-0.0242 0.162409,0 0.02421,0.0121 -0.02707,0.0812 0,0.0812 0.03828,0 0.04489,-0.0691 0.0812,-0.0812 0.189478,-0.0632 0.16241,-0.0225 0.16241,0.0812 0,0.0541 0,0.10827 0,0.16241 0,0.0271 -0.01914,0.0621 0,0.0812 0.01914,0.0191 0.0812,-0.0271 0.0812,0 0,0.33603 -0.250181,-0.26332 -0.0812,0.24361 0.0121,0.0363 0.0691,0.0449 0.0812,0.0812 0.01712,0.0514 0.05414,0.16241 0,0.16241 -0.05414,0 0,-0.21655 0,-0.16241 0,0.13534 0,0.27068 0,0.40602 0,0.0271 0.02707,0.0812 0,0.0812 -0.03828,0 -0.04292,-0.0812 -0.0812,-0.0812 -0.05414,0 0.03003,0.11737 0,0.16241 -0.04247,0.0637 -0.119942,0.0987 -0.16241,0.16241 -0.01501,0.0225 0.01914,0.0621 0,0.0812 -0.01914,0.0191 -0.0691,-0.0242 -0.0812,0 -0.03632,0.0726 0,0.16241 0,0.24362 0,0.0271 0.02707,0.0812 0,0.0812 -0.06053,0 -0.104989,-0.0621 -0.162409,-0.0812 -0.16241,-0.0541 -0.02707,0.0271 -0.0812,0.0812 -0.01914,0.0191 -0.05414,0 -0.08121,0 -0.05414,0 -0.124128,-0.0383 -0.162409,0 -0.03828,0.0383 0,0.10828 0,0.16241 0,0.0271 0.02707,0.0812 0,0.0812 -0.02707,0 0.02707,-0.0812 0,-0.0812 -0.03828,0 -0.05414,0.0541 -0.0812,0.0812 -0.05414,0.0541 -0.119941,0.0987 -0.162409,0.16241 -0.01501,0.0225 0.02707,0.0812 0,0.0812 -0.02707,0 -0.02707,-0.0812 0,-0.0812 0.02707,0 0.02707,0.0812 0,0.0812 -0.02707,0 -0.02707,-0.0812 0,-0.0812 0.02707,0 0,0.0541 0,0.0812 0,0.0541 0,0.10827 0,0.16241 0,0.0271 0.01914,0.0621 0,0.0812 -0.01914,0.0191 -0.06206,-0.0191 -0.0812,0 -0.02315,0.0231 0.01863,0.32482 0,0.32482 -0.02707,0 -0.02707,-0.0812 0,-0.0812 0.09474,0 -0.162409,0.35188 -0.162409,0.0812 0,-0.0541 0.117365,-0.03 0.162409,0 0.41023,0.27349 0,0.12356 0,0.16241 0,0.0414 0.243614,0.20218 0.243614,0.24361 0,0.0541 -0.113988,-0.0242 -0.162409,0 -0.02421,0.0121 -0.02421,0.0691 0,0.0812 0.04842,0.0242 0.113988,-0.0242 0.162409,0 0.02421,0.0121 -0.02707,0.0812 0,0.0812 0.03828,0 0.04292,-0.0812 0.0812,-0.0812 0.02707,0 0,0.0541 0,0.0812 0,0.0541 -0.03003,0.11737 0,0.16241 0.03357,0.0504 0.162409,0.0207 0.162409,0.0812 0,0.0541 -0.162409,0.0541 -0.162409,0 0,-0.0541 0.124129,-0.0383 0.162409,0 0.03828,0.0383 -0.02421,0.11399 0,0.16241 0.0121,0.0242 0.06207,-0.0191 0.08121,0 0.01914,0.0191 0.02707,0.0812 0,0.0812 -0.02707,0 -0.02707,-0.0812 0,-0.0812 0.02707,0 0.02707,0.0812 0,0.0812 -0.0075,0 -0.0086,-0.26932 0.0812,0 0.01712,0.0514 -0.03828,0.12413 0,0.16241 0.03828,0.0383 0.162409,-0.0541 0.162409,0 0,0.0541 -0.162409,-0.0541 -0.162409,0 0,0.0605 0.189477,0.0271 0.162409,0.0812 -0.02707,0.0541 -0.222936,-0.0812 -0.162409,-0.0812 0.0812,0.0271 0.162409,0.0541 0.243613,0.0812 0,0.0271 -0.02421,0.0691 0,0.0812 0.04842,0.0242 0.124129,-0.0383 0.16241,0 0.03828,0.0383 -0.02421,0.11399 0,0.16241 0.0121,0.0242 0.06206,-0.0191 0.0812,0 0.01914,0.0191 -0.01501,0.0587 0,0.0812 0.04247,0.0637 0.108273,0.10828 0.162409,0.16241 0.02707,0.0271 0.108273,0.0541 0.0812,0.0812 -0.02288,0.0229 -0.174263,-0.16834 0,-0.0812 0.03424,0.0171 0.06408,0.047 0.0812,0.0812 0.01211,0.0242 -0.02421,0.0691 0,0.0812 0.04842,0.0242 0.108273,0 0.162409,0 0.02707,0 0.0812,-0.0271 0.0812,0 0,0.0605 -0.02707,0.18948 -0.0812,0.16241 -0.05414,-0.0271 0.02068,-0.16241 0.0812,-0.16241 0.05414,0 -0.03828,0.12413 0,0.16241 0.03828,0.0383 0.162409,-0.0541 0.162409,0 0,0.0541 -0.162409,0.0541 -0.162409,0 0,-0.0541 0.108273,0 0.162409,0 0.02707,0 0.0812,-0.0271 0.0812,0 0,0.0271 -0.0812,0.0271 -0.0812,0 0,-0.0271 0.0812,-0.0271 0.0812,0 0,0.0271 -0.108273,0 -0.0812,0 0.0812,0 0.162409,0 0.243614,0 0.02707,0 0.06206,-0.0191 0.0812,0 0.01914,0.0191 -0.02707,0.0812 0,0.0812 0.06053,0 0.104989,-0.0621 0.16241,-0.0812 0.04851,-0.0162 0.151692,0.0214 0.162409,0 0.02421,-0.0484 -0.03828,-0.12413 0,-0.16241 0.0052,-0.005 0.400817,-0.005 0.406022,0 0.03828,0.0383 0.05414,0.16241 0,0.16241 -0.07656,0 -0.162409,-0.0858 -0.162409,-0.16241 0,-0.0541 0.108273,0 0.162409,0 0.05335,0 0.305723,0.01 0.324818,0 0.02421,-0.0121 -0.01914,-0.0621 0,-0.0812 0.01914,-0.0191 0.05414,0 0.0812,0 0.162409,0 0.324818,0 0.487228,0 0.02707,0 0.06206,0.0191 0.0812,0 0.01914,-0.0191 -0.02421,-0.0691 0,-0.0812 0.03754,-0.0188 0.385873,0.0202 0.406023,0 0.03828,-0.0383 -0.05414,-0.16241 0,-0.16241 0.06053,0 0.03084,0.12884 0.08121,0.16241 0.0083,0.006 0.278596,0 0.324818,0 0.05414,0 0.108272,0 0.162409,0 0.02707,0 0.0691,0.0242 0.0812,0 0.02421,-0.0484 -0.05414,-0.16241 0,-0.16241 0.05414,0 -0.03828,0.12413 0,0.16241 0.188573,0.18857 0.176618,-0.16241 0.243614,-0.16241 0.05414,0 -0.05414,0.16241 0,0.16241 0.446227,0 0.06883,-0.15003 0.162409,-0.24361 0.01914,-0.0191 0.0691,0.0242 0.0812,0 0.02421,-0.0484 -0.05414,-0.16241 0,-0.16241 0.05414,0 -0.02421,0.11399 0,0.16241 0.0121,0.0242 0.0691,0.0242 0.0812,0 0.02421,-0.0484 -0.03828,-0.12413 0,-0.16241 0.03828,-0.0383 0.113988,0.0242 0.162409,0 0.02421,-0.0121 -0.01914,-0.0621 0,-0.0812 0.01914,-0.0191 0.05414,0 0.08121,0 0.05414,0 0.113988,0.0242 0.162409,0 0.02421,-0.0121 -0.01914,-0.0621 0,-0.0812 0.01914,-0.0191 0.05414,0 0.08121,0 0.0812,0 0.170982,0.0363 0.243613,0 0.05414,-0.0271 0.05007,-0.11051 0.08121,-0.16241 0.05021,-0.0837 0.07512,-0.19997 0.162409,-0.24361 0.04842,-0.0242 -0.03828,0.12413 0,0.16241 0.02707,0.0271 0.04293,-0.0812 0.08121,-0.0812 0.02707,0 0,0.0541 0,0.0812 0.05414,0 0.113988,0.0242 0.162409,0 0.02421,-0.0121 -0.01914,-0.0621 0,-0.0812 0.01914,-0.0191 0.05414,0 0.0812,0 0.02707,-0.0541 0.06206,-0.10499 0.0812,-0.16241 0.0086,-0.0257 -0.02421,-0.0691 0,-0.0812 0.04842,-0.0242 0.117365,0.03 0.162409,0 0.05036,-0.0336 0.02068,-0.16241 0.0812,-0.16241 0.05414,0 -0.04842,0.18662 0,0.16241 0.08729,-0.0437 0.0934,-0.1746 0.162409,-0.24362 0.01914,-0.0191 0.05868,0.015 0.0812,0 0.0637,-0.0425 0.08585,-0.1624 0.162409,-0.1624 0.05414,0 -0.05414,0.1624 0,0.1624 0.06053,0 0.03841,-0.11961 0.08121,-0.1624 0.01914,-0.0191 0.05552,0.009 0.0812,0 0.05742,-0.0191 0.135341,-0.13535 0.162409,-0.0812 0.02707,0.0541 -0.101883,0.0812 -0.162409,0.0812 -0.02707,0 -0.02165,-0.065 0,-0.0812 0.09684,-0.0726 0.227976,-0.0898 0.324818,-0.16241 0.02165,-0.0162 -0.02568,-0.0726 0,-0.0812 0.07704,-0.0257 0.164833,0.0197 0.243613,0 0.03714,-0.009 0.04292,-0.0812 0.0812,-0.0812 0.0856,0 0.161311,0.10472 0.243615,0.0812 0.57432,-0.16409 0.174363,-0.17437 0.406021,-0.40603 0.0428,-0.0428 0.10499,-0.0621 0.162409,-0.0812 0.02569,-0.009 0.0691,0.0242 0.08121,0 0.02421,-0.0484 -0.05414,-0.16241 0,-0.16241 0.05414,0 -0.02421,0.11399 0,0.16241 0.01209,0.0242 0.0812,-0.0271 0.0812,0 0,0.0271 -0.0812,0.0271 -0.0812,0 0,-0.0271 0.05868,0.015 0.0812,0 0.0637,-0.0425 0.108272,-0.10827 0.162409,-0.16241 0.02707,-0.0271 0.07192,-0.0441 0.08121,-0.0812 0.01969,-0.0788 -0.06497,-0.19489 0,-0.24362 0.08662,-0.065 0.218646,0.0212 0.324815,0 0.03754,-0.008 0.04697,-0.0641 0.08121,-0.0812 0.02421,-0.0121 0.05414,0 0.0812,0 0.05414,-0.0541 0.09871,-0.11994 0.162409,-0.16241 0.02252,-0.015 0.05553,0.009 0.08121,0 0.05742,-0.0191 0.104989,-0.0621 0.162409,-0.0812 0.02566,-0.009 0.05414,0 0.0812,0 0.189479,-0.0541 0.385469,-0.0892 0.568434,-0.16241 0.224787,-0.0899 0.414758,-0.26609 0.649636,-0.32481 0.21008,-0.0525 0.433092,0 0.649637,0 0.0812,0 0.176046,0.045 0.243613,0 0.162409,-0.16241 0.324818,-0.32482 0.487227,-0.48723 0,-0.0271 -0.01913,-0.0621 0,-0.0812 0.01913,-0.0191 0.05414,0 0.08121,0 0.02707,0 0.06206,-0.0191 0.0812,0 0.01913,0.0191 0,0.10828 0,0.0812 0,-0.0541 0,-0.10827 0,-0.16241 0,-0.0271 -0.02421,0.0691 0,0.0812 0.04842,0.0242 0.162409,-0.0541 0.162409,0 0,0.0541 -0.216545,0 -0.162409,0 0.0812,0 0.162409,0 0.243613,0 0.02707,0 -0.0812,0.0271 -0.0812,0 0,-0.0271 0.05414,0 0.0812,0 0.05414,0 0.108273,0 0.162409,0 0.02707,0 0.06207,-0.0191 0.08121,0 0.01913,0.0191 -0.02707,0.0812 0,0.0812 0.336029,0 -0.263319,-0.25018 0.243612,-0.0812 0.03632,0.0121 0.04293,0.0812 0.08121,0.0812 0.02707,0 -0.02421,-0.0691 0,-0.0812 0.04842,-0.0242 0.108273,0 0.162409,0 0.19044,0 0,-0.0191 0,0.0812 0,0.0271 0.0812,-0.0271 0.0812,0 0,0.0388 -0.410229,-0.11108 0,0.16241 0.04505,0.03 0.124129,0.0383 0.162409,0 0.03828,-0.0383 -0.01061,-0.10933 0,-0.16241 0.0168,-0.0839 0.06044,-0.16057 0.08121,-0.24361 0.0066,-0.0263 -0.02421,-0.0691 0,-0.0812 0.04842,-0.0242 0.124129,0.0383 0.162409,0 0.03828,-0.0383 -0.05414,-0.16241 0,-0.16241 0.05414,0 0.05414,0.16241 0,0.16241 -0.05414,0 -0.03828,-0.20069 0,-0.16241 0.443264,0.44327 -0.03058,0.2742 0.0812,0.16241 0.01913,-0.0191 0.05414,0 0.08121,0 0.0227,0 0.393316,-0.006 0.406022,0 0.02421,0.0121 -0.01913,0.0621 0,0.0812 0.0406,0.0406 0.243615,-0.0812 0.243615,0 0,0.0541 -0.162409,-0.0541 -0.162409,0 0,0.0766 0.0987,0.11994 0.162409,0.1624 0.02252,0.015 0.0812,-0.0271 0.0812,0 0,0.0271 -0.06206,-0.0191 -0.0812,0 -0.01913,0.0191 0,0.0541 0,0.0812 0,0.0271 -0.01913,0.0621 0,0.0812 0.01913,0.0191 0.0691,-0.0242 0.0812,0 0.02421,0.0484 0,0.10828 0,0.16241 0,0.0271 -0.01913,0.0621 0,0.0812 0.01913,0.0191 0.08121,0.0271 0.08121,0 0,-0.0383 -0.08121,-0.0429 -0.08121,-0.0812 0,-0.0271 0.06207,-0.0191 0.08121,0 0.01913,0.0191 -0.01503,0.0587 0,0.0812 0.04247,0.0637 0.119941,0.0987 0.162409,0.16241 0.015,0.0225 -0.02707,0.0812 0,0.0812 0.03828,0 0.0812,-0.0429 0.0812,-0.0812 0,-0.0271 -0.06206,-0.0191 -0.0812,0 -0.01913,0.0191 0,0.0541 0,0.0812 0,0.0541 -0.02421,0.11399 0,0.16241 0.01209,0.0242 0.0812,-0.0271 0.0812,0 0,0.0271 -0.06206,-0.0191 -0.0812,0 -0.01913,0.0191 0,0.0541 0,0.0812 0,0.0271 -0.01913,0.0621 0,0.0812 0.01913,0.0191 0.0691,-0.0242 0.0812,0 0.02421,0.0484 -0.03828,0.12413 0,0.16241 0.03828,0.0383 0.113987,-0.0242 0.162409,0 0.03213,0.0161 -0.04039,0.16283 0,0.24361 0.01209,0.0242 0.06207,-0.0191 0.08121,0 0.01913,0.0191 0.02707,0.0812 0,0.0812 -0.02707,0 0,-0.10828 0,-0.0812 0,0.0812 0,0.16241 0,0.24362 0,0.0271 0.02707,0.0812 0,0.0812 -0.02707,0 -0.02707,-0.0812 0,-0.0812 0.02707,0 0,0.0541 0,0.0812 0,0.0271 0,0.0541 0,0.0812 0,0.0541 -0.02421,0.11398 0,0.1624 0.01209,0.0242 0.0812,-0.0271 0.0812,0 0,0.0271 -0.06206,-0.0191 -0.0812,0 -0.01913,0.0191 -0.01913,0.0621 0,0.0812 0.01913,0.0191 0.0812,-0.0271 0.0812,0 0,0.0271 -0.06206,-0.0191 -0.0812,0 -0.410232,0.41023 0,0.0624 0,0.16241 0,0.0383 -0.08121,0.0429 -0.08121,0.0812 0,0.0271 0.0691,-0.0242 0.08121,0 0.02421,0.0484 0.05414,0.16241 0,0.16241 -0.05414,0 -0.05414,-0.16241 0,-0.16241 0.05414,0 0,0.10828 0,0.16241 0,0.0271 0.01913,0.0621 0,0.0812 -0.01913,0.0191 -0.06207,-0.0191 -0.08121,0 -0.01913,0.0191 0.01503,0.0587 0,0.0812 -0.04247,0.0637 -0.119941,0.0987 -0.162409,0.16241 -0.01503,0.0225 0.02707,0.0812 0,0.0812 -0.02707,0 -0.02707,-0.0812 0,-0.0812 0.02707,0 0.02707,0.0812 0,0.0812 -0.02707,0 0,-0.10827 0,-0.0812 0,0.006 0.01204,0.54435 0,0.56843 -0.01209,0.0242 -0.0812,-0.0271 -0.0812,0 0,0.0383 0.0691,0.0449 0.0812,0.0812 0.01712,0.0514 0.05414,0.16241 0,0.16241 -0.05414,0 -0.05414,-0.16241 0,-0.16241 0.05414,0 0.05414,0.16241 0,0.16241 -0.05414,0 -0.05414,-0.16241 0,-0.16241 0.05414,0 0,0.10827 0,0.16241"
       id="path5791"
       inkscape:connector-curvature="0" />
  </g>
</svg>
