<?xml version="1.0" encoding="UTF-8" standalone="no"?>
<!-- Created with Inkscape (http://www.inkscape.org/) -->

<svg
   xmlns:dc="http://purl.org/dc/elements/1.1/"
   xmlns:cc="http://creativecommons.org/ns#"
   xmlns:rdf="http://www.w3.org/1999/02/22-rdf-syntax-ns#"
   xmlns:svg="http://www.w3.org/2000/svg"
   xmlns="http://www.w3.org/2000/svg"
   xmlns:sodipodi="http://sodipodi.sourceforge.net/DTD/sodipodi-0.dtd"
   xmlns:inkscape="http://www.inkscape.org/namespaces/inkscape"
   width="37.752373mm"
   height="24.807453mm"
   viewBox="0 0 37.752372 24.807453"
   version="1.1"
   id="svg8"
   inkscape:version="0.92.4 (5da689c313, 2019-01-14)"
   sodipodi:docname="sand.svg">
  <defs
     id="defs2" />
  <sodipodi:namedview
     id="base"
     pagecolor="#ffffff"
     bordercolor="#666666"
     borderopacity="1.0"
     inkscape:pageopacity="0.0"
     inkscape:pageshadow="2"
     inkscape:zoom="7.4539841"
     inkscape:cx="119.30425"
     inkscape:cy="-7.7633027"
     inkscape:document-units="mm"
     inkscape:current-layer="layer1"
     showgrid="false"
     inkscape:window-width="3840"
     inkscape:window-height="2104"
     inkscape:window-x="-16"
     inkscape:window-y="-16"
     inkscape:window-maximized="1" />
  <metadata
     id="metadata5">
    <rdf:RDF>
      <cc:Work
         rdf:about="">
        <dc:format>image/svg+xml</dc:format>
        <dc:type
           rdf:resource="http://purl.org/dc/dcmitype/StillImage" />
        <dc:title></dc:title>
      </cc:Work>
    </rdf:RDF>
  </metadata>
  <g
     inkscape:label="Calque 1"
     inkscape:groupmode="layer"
     id="layer1"
     transform="translate(-67.762278,-98.172396)">
    <path
       style="fill:#000000;stroke-width:0.26458332"
       d="m 85.187767,122.58298 c 0,-0.21828 0.178594,-0.39688 0.396875,-0.39688 0.218281,0 0.396875,0.1786 0.396875,0.39688 0,0.21828 -0.178594,0.39687 -0.396875,0.39687 -0.218281,0 -0.396875,-0.17859 -0.396875,-0.39687 z m 4.894792,0.13229 c 0.08994,-0.14552 0.275557,-0.26458 0.41249,-0.26458 0.136932,0 0.248968,0.11906 0.248968,0.26458 0,0.14552 -0.18562,0.26458 -0.41249,0.26458 -0.226869,0 -0.338905,-0.11906 -0.248968,-0.26458 z m -8.28763,-0.41085 c 0.119663,-0.57471 0.589232,-0.60987 0.696636,-0.0522 0.05577,0.28961 -0.074,0.46302 -0.346506,0.46302 -0.254193,0 -0.400041,-0.17114 -0.35013,-0.41085 z m 12.307669,0.24165 c -0.246919,-0.24692 0.05147,-0.62455 0.493493,-0.62455 0.209693,0 0.38126,0.17859 0.38126,0.39687 0,0.39853 -0.558533,0.5439 -0.874753,0.22768 z m 4.049753,-1.28601 c 0,-0.21828 0.178593,-0.39687 0.396875,-0.39687 0.218281,0 0.396875,0.17859 0.396875,0.39687 0,0.21828 -0.178594,0.39688 -0.396875,0.39688 -0.218282,0 -0.396875,-0.1786 -0.396875,-0.39688 z M 87.9502,121.10238 c -0.09857,-0.15949 -0.0061,-0.46312 0.205551,-0.67474 0.33663,-0.33663 0.426145,-0.3349 0.715543,0.0138 0.181929,0.21921 0.253971,0.52285 0.160094,0.67474 -0.223626,0.36184 -0.854005,0.35379 -1.081188,-0.0138 z m -9.906183,-0.37149 c 0,-0.21828 0.178593,-0.39687 0.396875,-0.39687 0.218281,0 0.396875,0.17859 0.396875,0.39687 0,0.21829 -0.178594,0.39688 -0.396875,0.39688 -0.218282,0 -0.396875,-0.17859 -0.396875,-0.39688 z m 5.400652,0.0347 c -0.198585,-0.51751 0.07198,-0.96072 0.58649,-0.96072 0.259759,0 0.370066,0.20114 0.315114,0.57459 -0.102665,0.69771 -0.686148,0.9476 -0.901604,0.38613 z m 8.357681,-0.26686 c 0,-0.64358 0.679501,-1.01803 1.046007,-0.57642 0.177355,0.2137 0.245658,0.51283 0.151781,0.66472 -0.251063,0.40623 -1.197788,0.33644 -1.197788,-0.0883 z m 3.595685,0.13842 c -0.262723,-0.4251 0.146236,-1.12839 0.604796,-1.04008 0.563734,0.10857 0.556659,1.10215 -0.0086,1.21102 -0.241093,0.0464 -0.50937,-0.0305 -0.596172,-0.17094 z m -20.66131,-0.30311 c -0.192935,-0.31218 0.05733,-0.79375 0.41249,-0.79375 0.136933,0 0.248968,0.23812 0.248968,0.52917 0,0.55803 -0.384937,0.712 -0.661458,0.26458 z m 5.789084,-0.64879 c -0.186191,-0.48521 0.08479,-0.93871 0.560916,-0.93871 0.544534,0 0.750848,0.49953 0.387256,0.93763 -0.407041,0.49046 -0.760227,0.49086 -0.948172,0.001 z m 9.262676,-0.25869 c -0.263437,-0.68651 0.105802,-1.25391 0.755912,-1.1616 0.437285,0.0621 0.596495,0.26125 0.596495,0.74616 0,0.48491 -0.15921,0.68407 -0.596495,0.74616 -0.357791,0.0508 -0.660291,-0.0815 -0.755912,-0.33072 z m -12.620901,-0.32173 c -0.407586,-0.40759 -0.17129,-1.15204 0.365668,-1.15204 0.411563,0 0.526569,0.14272 0.463021,0.57459 -0.0878,0.59671 -0.513081,0.89306 -0.828689,0.57745 z m 22.159699,-0.1191 c -0.09857,-0.15948 -0.0061,-0.46311 0.205552,-0.67473 0.33663,-0.33663 0.426144,-0.33491 0.715545,0.0138 0.18193,0.21921 0.25397,0.52284 0.16009,0.67473 -0.22362,0.36184 -0.854002,0.35379 -1.081187,-0.0138 z m 2.926107,0.0254 c -0.19293,-0.31217 0.0573,-0.79375 0.41249,-0.79375 0.13694,0 0.24897,0.23813 0.24897,0.52917 0,0.55803 -0.38494,0.712 -0.66146,0.26458 z m -15.904488,-0.37831 c -0.263438,-0.68651 0.105802,-1.25391 0.755911,-1.1616 0.437286,0.0621 0.596496,0.26125 0.596496,0.74616 0,0.48491 -0.15921,0.68407 -0.596496,0.74616 -0.35779,0.0508 -0.66029,-0.0815 -0.755911,-0.33072 z m 6.759845,-0.18172 c -0.236845,-0.44255 -0.21535,-0.64441 0.102467,-0.96222 0.757542,-0.75755 1.918473,0.30422 1.234173,1.12875 -0.460055,0.55433 -0.985909,0.48882 -1.33664,-0.16653 z m -10.464012,-0.0829 c -0.263437,-0.6865 0.105802,-1.25391 0.755911,-1.16159 0.437286,0.0621 0.596496,0.26125 0.596496,0.74616 0,0.48491 -0.15921,0.68407 -0.596496,0.74616 -0.35779,0.0508 -0.66029,-0.0815 -0.755911,-0.33073 z m 14.112118,-0.0849 c -0.511651,-0.56536 -0.157628,-1.38889 0.597065,-1.38889 0.616473,0 0.954545,0.9483 0.523311,1.4679 -0.413464,0.4982 -0.610592,0.4843 -1.120376,-0.079 z m -23.62332,-0.62053 c -0.279605,-0.45241 0.602591,-1.21334 0.974976,-0.84095 0.165883,0.16588 0.230001,0.4882 0.142485,0.71626 -0.183114,0.47719 -0.853381,0.55198 -1.117461,0.12469 z m 6.34842,-0.0868 c -0.28422,-0.20782 -0.399641,-0.51228 -0.296302,-0.78158 0.260758,-0.67952 1.002423,-0.84688 1.391996,-0.31411 0.639132,0.87406 -0.221629,1.73483 -1.095694,1.09569 z m -9.78656,-0.7046 c -0.272658,-0.44117 0.340574,-0.94708 0.70557,-0.58208 0.305309,0.30531 0.114226,0.86972 -0.294446,0.86972 -0.128345,0 -0.31335,-0.12944 -0.411124,-0.28764 z m 29.643429,-0.15119 c -0.479719,-0.47971 -0.414989,-0.86121 0.213376,-1.25757 0.557882,-0.35191 1.344492,0.33809 1.102962,0.96751 -0.24133,0.62888 -0.844586,0.76182 -1.316338,0.29006 z m -23.623139,-0.14325 c -0.463382,-0.46339 -0.388963,-0.94856 0.193293,-1.26017 0.610839,-0.32691 1.463012,0.34967 1.224215,0.97196 -0.08113,0.21142 -0.147508,0.4342 -0.147508,0.49505 0,0.24741 -0.974456,0.0887 -1.27,-0.20684 z m 27.256357,-0.96473 c -0.46127,-0.29234 -0.10145,-1.14635 0.43912,-1.04224 0.46515,0.0896 0.59836,1.03628 0.16515,1.17364 -0.14552,0.0461 -0.41744,-0.013 -0.60427,-0.1314 z m -30.228679,-0.97756 c -0.446816,-0.53838 -0.03447,-1.31209 0.699283,-1.31209 0.379025,0 0.500331,0.19157 0.500331,0.79013 0,0.91312 -0.642844,1.19282 -1.199614,0.52196 z m -2.853684,-1.51053 c 0.0465,-0.32742 0.263142,-0.59531 0.481423,-0.59531 0.218281,0 0.434921,0.26789 0.481423,0.59531 0.06507,0.45818 -0.04583,0.59532 -0.481423,0.59532 -0.435595,0 -0.546495,-0.13714 -0.481423,-0.59532 z m 34.877253,0.33073 c -0.31255,-0.19316 -0.32557,-0.30943 -0.0639,-0.57106 0.25551,-0.25552 0.39907,-0.25796 0.64602,-0.011 0.42924,0.42925 -0.0515,0.91 -0.58209,0.58208 z m -3.96875,-0.39687 c -0.4079,-0.49149 0.0667,-1.19063 0.80832,-1.19063 0.5042,0 0.92934,0.86591 0.64836,1.32055 -0.24555,0.3973 -1.08096,0.32279 -1.45668,-0.12992 z m -33.026168,-1.07231 c 0.119663,-0.57471 0.589232,-0.60987 0.696635,-0.0522 0.05577,0.28961 -0.074,0.46302 -0.346506,0.46302 -0.254192,0 -0.400041,-0.17114 -0.350129,-0.41085 z m 3.760222,-0.49663 c -0.263437,-0.68651 0.105803,-1.25391 0.755912,-1.1616 0.847884,0.1204 0.847884,1.37192 0,1.49232 -0.35779,0.0508 -0.66029,-0.0815 -0.755912,-0.33072 z m 31.218576,-0.27047 c -0.18431,-0.48032 0.0834,-0.93872 0.54822,-0.93872 0.4011,0 0.75142,0.71926 0.52711,1.08221 -0.23127,0.37419 -0.91151,0.28342 -1.07533,-0.14349 z m -2.41565,-0.84632 c -0.440742,-0.1819 -0.421258,-1.0108 0.0326,-1.38748 0.58365,-0.48438 1.26437,-0.0597 1.17233,0.73131 -0.0787,0.67633 -0.54319,0.92929 -1.20494,0.65617 z m -31.100718,-0.97321 c -0.167012,-0.43523 0.280635,-0.97127 0.811102,-0.97127 0.515371,0 0.297898,1.16529 -0.236465,1.26706 -0.236351,0.045 -0.494937,-0.0881 -0.574637,-0.29579 z m 2.512491,-0.49502 c -0.474688,-0.47469 -0.384951,-0.9507 0.242535,-1.28652 0.736191,-0.394 1.429266,0.2257 1.169121,1.04535 -0.195038,0.61451 -0.915271,0.73755 -1.411656,0.24117 z M 104.124,108.45775 c -0.0797,-0.12903 0.0217,-0.37294 0.22542,-0.54202 0.41241,-0.34227 0.83473,0.051 0.54981,0.51204 -0.20246,0.32759 -0.58222,0.34227 -0.77523,0.03 z m -36.001859,-0.82373 c -0.215769,-0.34912 0.100597,-0.84457 0.415158,-0.65016 0.321367,0.19862 0.319279,0.91474 -0.0027,0.91474 -0.136932,0 -0.322553,-0.11906 -0.41249,-0.26458 z m 30.276386,-0.68364 c -0.403386,-0.48605 -0.05935,-1.24818 0.624226,-1.38284 0.59748,-0.1177 1.113947,0.92685 0.703062,1.42193 -0.411647,0.49601 -0.895012,0.48177 -1.327288,-0.0391 z m 3.248253,0.0883 c -0.39221,-0.47259 0.0363,-1.11531 0.59946,-0.89919 0.47527,0.18237 0.46173,0.99059 -0.0193,1.15072 -0.16007,0.0533 -0.42115,-0.0599 -0.58018,-0.25153 z m -31.260721,-0.45372 c -0.44735,-0.27648 -0.170494,-1.06758 0.373612,-1.06758 0.224683,0 0.405179,0.22878 0.405179,0.51356 0,0.63011 -0.304817,0.84695 -0.778791,0.55402 z m 2.154624,-0.0622 c -0.448233,-0.44823 -0.394142,-1.18397 0.101015,-1.37398 0.665442,-0.25536 0.867789,-0.19423 1.159152,0.35019 0.206349,0.38557 0.171565,0.61259 -0.141882,0.92604 -0.498482,0.49848 -0.699943,0.51609 -1.118285,0.0977 z m 22.975669,-2.04538 c -0.207322,-0.38738 -0.170191,-0.61397 0.153691,-0.93785 0.234884,-0.23488 0.553564,-0.38489 0.708178,-0.33335 0.466265,0.15542 0.810697,0.88847 0.633916,1.34916 -0.227889,0.59387 -1.162299,0.54517 -1.495785,-0.078 z m -20.636787,-0.13795 c -0.507247,-0.6112 -0.225954,-1.33563 0.518618,-1.33563 0.419359,0 0.687101,0.17078 0.745829,0.47573 0.09161,0.4757 -0.36903,1.24406 -0.745829,1.24406 -0.109884,0 -0.343262,-0.17287 -0.518618,-0.38416 z m -5.151396,-0.11502 c -0.07975,-0.12904 0.01839,-0.3702 0.21807,-0.53592 0.277096,-0.22997 0.397387,-0.21187 0.508024,0.0764 0.22617,0.58939 -0.400653,0.98605 -0.726094,0.45948 z m 32.128351,-0.29457 c 0,-0.34102 0.13399,-0.5286 0.33073,-0.46302 0.1819,0.0606 0.33073,0.269 0.33073,0.46302 0,0.19403 -0.14883,0.40239 -0.33073,0.46302 -0.19674,0.0656 -0.33073,-0.122 -0.33073,-0.46302 z m -9.87778,-0.17639 c -0.332457,-0.33245 -0.17626,-0.86339 0.334402,-1.13669 0.612561,-0.32783 1.408485,0.30095 1.16945,0.92387 -0.150873,0.39317 -1.178131,0.53855 -1.503852,0.21282 z m 6.103647,0.0182 c -0.296151,-0.29615 0.124865,-0.90017 0.627438,-0.90017 0.324469,0 0.500859,0.18636 0.500859,0.52917 0,0.50448 -0.748649,0.75065 -1.128297,0.371 z m -25.80942,-0.83099 c 0.132824,-0.68969 1.00855,-0.76661 1.00855,-0.0886 0,0.37864 -0.169922,0.54857 -0.548567,0.54857 -0.378645,0 -0.521128,-0.14249 -0.459983,-0.45999 z m 5.652665,0.004 c -0.160006,-0.41697 0.42746,-1.13146 0.930308,-1.13146 0.370465,0 0.829662,0.80034 0.681189,1.18725 -0.211029,0.54994 -1.394784,0.50895 -1.611497,-0.0558 z m 10.532064,0.0572 c -0.09201,-0.23977 0.0064,-0.60968 0.218791,-0.82203 0.529407,-0.5294 1.323473,-0.18689 1.221623,0.52694 -0.100348,0.7033 -1.197516,0.92808 -1.440414,0.29509 z m -7.144292,-0.53057 c -0.179002,-0.46648 0.339912,-1.18726 0.854742,-1.18726 0.427327,0 0.87837,0.79519 0.712861,1.25677 -0.167233,0.4664 -1.382636,0.4125 -1.567603,-0.0695 z m 3.620376,0.0161 c -0.276909,-0.33365 -0.276909,-0.48563 0,-0.81928 0.530477,-0.63919 1.444612,-0.37997 1.444612,0.40964 0,0.78961 -0.914135,1.04883 -1.444612,0.40964 z m 9.631003,0.0941 c -0.279604,-0.45241 0.602591,-1.21334 0.974977,-0.84095 0.165883,0.16588 0.230002,0.4882 0.142486,0.71626 -0.183116,0.47719 -0.853382,0.55198 -1.117463,0.12469 z m -18.809079,-0.9078 c -0.09753,-0.25417 -0.01257,-0.54274 0.199238,-0.67672 0.524287,-0.33162 0.89845,-0.14933 0.89845,0.43771 0,0.63911 -0.87135,0.82883 -1.097688,0.23901 z m -2.606479,-0.12515 c -0.192935,-0.31217 0.05733,-0.79375 0.41249,-0.79375 0.136933,0 0.248968,0.23813 0.248968,0.52917 0,0.55803 -0.384937,0.712 -0.661458,0.26458 z m 24.378571,0.081 c -0.316219,-0.31621 -0.170844,-0.87475 0.22768,-0.87475 0.218281,0 0.396875,0.17157 0.396875,0.38126 0,0.44203 -0.377635,0.74042 -0.624555,0.49349 z m -6.472965,-0.52253 c 0.11216,-0.5824 1.144394,-0.66144 1.144394,-0.0876 0,0.21828 -0.278481,0.43631 -0.618849,0.4845 -0.479907,0.068 -0.597903,-0.0211 -0.525545,-0.39687 z m -11.571298,-0.11302 c -0.279604,-0.45241 0.602592,-1.213339 0.974976,-0.84095 0.165883,0.16588 0.230001,0.4882 0.142485,0.71626 -0.183114,0.47719 -0.853381,0.55198 -1.117461,0.12469 z m 4.164635,-0.31377 c -0.229815,-0.27691 -0.220915,-0.47868 0.03665,-0.830922 0.314308,-0.429842 0.367548,-0.432211 0.700392,-0.03116 0.305426,0.368022 0.299851,0.494422 -0.03665,0.830922 -0.336352,0.33635 -0.443161,0.3411 -0.700392,0.0312 z m 3.492225,-0.045 c -0.184313,-0.48031 0.0834,-0.93871 0.548223,-0.93871 0.401097,0 0.75142,0.71926 0.527103,1.08221 -0.231263,0.37419 -0.911504,0.28342 -1.075326,-0.1435 z m 6.560787,-0.55581 c 0.119664,-0.574705 0.589233,-0.609871 0.696635,-0.0522 0.05577,0.28961 -0.074,0.46302 -0.346506,0.46302 -0.254193,0 -0.400042,-0.17114 -0.350129,-0.41085 z M 77.250267,99.431937 c 0,-0.341019 0.133987,-0.528601 0.330729,-0.463021 0.181901,0.06063 0.330729,0.268993 0.330729,0.463021 0,0.194028 -0.148828,0.402387 -0.330729,0.463021 -0.196742,0.06558 -0.330729,-0.122003 -0.330729,-0.463021 z m 12.089832,0.09539 c -0.24692,-0.24692 0.05147,-0.624554 0.493491,-0.624554 0.209693,0 0.38126,0.178594 0.38126,0.396875 0,0.398524 -0.558533,0.543898 -0.874751,0.227679 z m -3.766336,-0.377573 c -0.243508,-0.394004 0.03882,-0.608222 0.545405,-0.413827 0.23378,0.08971 0.350951,0.283012 0.260379,0.429561 -0.214465,0.347011 -0.58608,0.339755 -0.805784,-0.01573 z M 81.601644,98.87972 c -0.272659,-0.441172 0.340574,-0.947079 0.705569,-0.582084 0.305309,0.305309 0.114226,0.869721 -0.294446,0.869721 -0.128344,0 -0.31335,-0.129437 -0.411123,-0.287637 z"
       id="path864"
       inkscape:connector-curvature="0" />
  </g>
</svg>
