<?xml version="1.0" encoding="UTF-8" standalone="no"?>
<!-- Created with Inkscape (http://www.inkscape.org/) -->

<svg
   xmlns:dc="http://purl.org/dc/elements/1.1/"
   xmlns:cc="http://creativecommons.org/ns#"
   xmlns:rdf="http://www.w3.org/1999/02/22-rdf-syntax-ns#"
   xmlns:svg="http://www.w3.org/2000/svg"
   xmlns="http://www.w3.org/2000/svg"
   xmlns:sodipodi="http://sodipodi.sourceforge.net/DTD/sodipodi-0.dtd"
   xmlns:inkscape="http://www.inkscape.org/namespaces/inkscape"
   width="17.311651mm"
   height="9.871623mm"
   viewBox="0 0 17.311651 9.8716233"
   version="1.1"
   id="svg8"
   inkscape:version="0.92.4 (5da689c313, 2019-01-14)"
   sodipodi:docname="seal.svg">
  <defs
     id="defs2" />
  <sodipodi:namedview
     id="base"
     pagecolor="#ffffff"
     bordercolor="#666666"
     borderopacity="1.0"
     inkscape:pageopacity="0.0"
     inkscape:pageshadow="2"
     inkscape:zoom="19.546003"
     inkscape:cx="28.699465"
     inkscape:cy="19.062879"
     inkscape:document-units="mm"
     inkscape:current-layer="layer1"
     showgrid="false"
     inkscape:window-width="3840"
     inkscape:window-height="2104"
     inkscape:window-x="-16"
     inkscape:window-y="-16"
     inkscape:window-maximized="1" />
  <metadata
     id="metadata5">
    <rdf:RDF>
      <cc:Work
         rdf:about="">
        <dc:format>image/svg+xml</dc:format>
        <dc:type
           rdf:resource="http://purl.org/dc/dcmitype/StillImage" />
        <dc:title></dc:title>
      </cc:Work>
    </rdf:RDF>
  </metadata>
  <g
     inkscape:label="Calque 1"
     inkscape:groupmode="layer"
     id="layer1"
     transform="translate(-107.14278,-123.06778)">
    <path
       style="fill:#9e2a97;fill-opacity:1;stroke-width:0.26458335"
       d="m 107.18464,132.5295 c 0.0883,-0.23019 0.1606,-0.63819 0.1606,-0.90667 0,-0.63622 1.38419,-1.32065 2.67087,-1.32065 0.55113,0 1.07683,-0.12098 1.16821,-0.26883 0.0914,-0.14786 1.05686,-0.86988 2.14551,-1.60449 1.52095,-1.02633 2.41873,-1.42728 3.87637,-1.73121 1.04335,-0.21754 2.11171,-0.33938 2.37414,-0.27075 0.34921,0.0913 0.57917,-0.11937 0.85759,-0.78573 0.33648,-0.8053 0.46279,-0.88983 1.09326,-0.73159 0.63559,0.15952 0.69654,0.11665 0.56257,-0.39565 -0.12176,-0.46564 0.0411,-0.67218 0.85909,-1.08949 0.85067,-0.43398 1.05709,-0.4574 1.31303,-0.14901 0.23089,0.2782 0.20865,0.5934 -0.0927,1.31474 -0.30647,0.73349 -0.33227,1.13291 -0.11367,1.75996 0.15753,0.45191 0.2072,1.38077 0.11214,2.09737 -0.10491,0.79083 -0.0645,1.35179 0.10478,1.45645 0.42429,0.26223 0.0412,0.66281 -0.63388,0.66281 -0.77781,0 -1.58741,0.84569 -1.19002,1.24307 0.2014,0.20141 0.0356,0.40695 -0.57343,0.71076 -1.54279,0.76965 -2.59765,0.3593 -1.68078,-0.65384 0.33087,-0.3656 0.38662,-0.60159 0.18884,-0.79937 -0.19779,-0.19778 -0.38731,-0.13343 -0.64198,0.21798 -0.78887,1.08853 -1.60184,1.39807 -3.67193,1.39807 -1.10121,0 -2.68787,-0.1786 -3.52591,-0.39688 -2.0199,-0.52611 -2.78146,-0.49954 -3.81939,0.13328 -1.06074,0.64674 -1.76866,0.69704 -1.54326,0.10967 z"
       id="path859"
       inkscape:connector-curvature="0" />
  </g>
</svg>
