<?xml version="1.0" encoding="UTF-8" standalone="no"?>
<!-- Created with Inkscape (http://www.inkscape.org/) -->

<svg
   xmlns:dc="http://purl.org/dc/elements/1.1/"
   xmlns:cc="http://creativecommons.org/ns#"
   xmlns:rdf="http://www.w3.org/1999/02/22-rdf-syntax-ns#"
   xmlns:svg="http://www.w3.org/2000/svg"
   xmlns="http://www.w3.org/2000/svg"
   xmlns:sodipodi="http://sodipodi.sourceforge.net/DTD/sodipodi-0.dtd"
   xmlns:inkscape="http://www.inkscape.org/namespaces/inkscape"
   width="28.512926mm"
   height="44.967293mm"
   viewBox="0 0 28.512926 44.967293"
   version="1.1"
   id="svg8744"
   inkscape:version="0.92.4 (5da689c313, 2019-01-14)"
   sodipodi:docname="seaweed.svg">
  <defs
     id="defs8738" />
  <sodipodi:namedview
     id="base"
     pagecolor="#ffffff"
     bordercolor="#666666"
     borderopacity="1.0"
     inkscape:pageopacity="0.0"
     inkscape:pageshadow="2"
     inkscape:zoom="0.35"
     inkscape:cx="53.88338"
     inkscape:cy="84.977426"
     inkscape:document-units="mm"
     inkscape:current-layer="layer1"
     showgrid="false"
     inkscape:window-width="4200"
     inkscape:window-height="2569"
     inkscape:window-x="-16"
     inkscape:window-y="-16"
     inkscape:window-maximized="1" />
  <metadata
     id="metadata8741">
    <rdf:RDF>
      <cc:Work
         rdf:about="">
        <dc:format>image/svg+xml</dc:format>
        <dc:type
           rdf:resource="http://purl.org/dc/dcmitype/StillImage" />
        <dc:title></dc:title>
      </cc:Work>
    </rdf:RDF>
  </metadata>
  <g
     inkscape:label="Calque 1"
     inkscape:groupmode="layer"
     id="layer1"
     transform="translate(222.52153,-126.34965)">
    <path
       inkscape:connector-curvature="0"
       id="path4411"
       d="m -195.5393,153.34653 c -0.64874,1.11425 -1.27663,2.11198 -2.47444,2.68738 -0.54849,0.26337 -1.12785,0.43904 -1.7142,0.59174 0.87964,-1.18367 1.70562,-2.40782 2.47739,-3.628 0.0677,-0.10696 0.13095,-0.21523 0.1947,-0.32324 0.0176,-0.0189 0.0345,-0.0404 0.0499,-0.0656 0.5044,-0.82539 1.25368,-1.41177 1.92391,-2.09141 0.48174,-0.48873 1.13493,-1.19131 1.06879,-1.92732 -0.0219,-0.24146 -0.34834,-0.34645 -0.50243,-0.15517 -0.24586,0.30524 -0.3625,0.68339 -0.59717,1.00207 -0.25098,0.34072 -0.55613,0.63965 -0.86053,0.93222 0.64155,-1.7569 0.96722,-3.60931 1.24161,-5.50751 0.0698,-0.48349 -0.67618,-0.61363 -0.74969,-0.12827 -0.43593,2.87057 -0.96593,5.60958 -2.56431,8.08672 -0.80707,1.25078 -1.69197,2.43924 -2.596,3.61324 0.28415,-0.68829 0.54339,-1.38625 0.7711,-2.09198 0.80037,-2.48054 1.4638,-5.20303 1.12232,-7.82178 -0.0217,-0.16658 -0.0482,-0.33235 -0.0755,-0.49784 0.001,-0.007 0.005,-0.0117 0.006,-0.0188 0.11294,-0.9581 0.39066,-1.87444 0.70548,-2.77931 2.46474,-0.92624 3.87041,-4.32027 3.79558,-6.73715 -0.0139,-0.44709 -0.69955,-0.52408 -0.70859,-0.0584 -0.0268,1.36328 -0.36767,2.66014 -1.11625,3.8085 -0.41091,0.63045 -0.9166,1.09257 -1.45098,1.53314 0.49804,-1.40851 0.92088,-2.8267 0.78325,-4.36722 -0.0432,-0.4816 -0.79978,-0.40848 -0.74894,0.0747 0.24145,2.29831 -1.10385,4.27464 -1.70729,6.40388 -0.16315,-0.71992 -0.32313,-1.44064 -0.42866,-2.17117 -0.26205,-1.81507 -0.3379,-3.64484 -0.25315,-5.4762 0.0246,-0.53247 -0.80246,-0.68046 -0.82728,-0.14164 -0.12662,2.76715 0.098,5.50238 0.72614,8.20225 0.10248,0.44029 0.19857,0.87135 0.28274,1.29903 -1.07422,-2.05786 -2.47081,-3.92493 -2.47539,-6.42181 -8e-4,-0.4453 -0.64365,-0.51034 -0.69642,-0.0574 -0.1707,1.46852 0.29897,2.84757 0.94027,4.15406 0.71935,1.46564 1.47893,3.14513 2.50319,4.4198 0.0262,0.52111 0.0201,1.04978 -0.0401,1.59804 -0.15005,1.36602 -0.46076,2.722 -0.84283,4.04076 -0.6627,2.28644 -1.6125,4.4624 -2.85568,6.43901 0.17729,-1.73896 0.24921,-3.48929 0.59243,-5.22168 0.43043,-2.17441 1.12599,-4.29221 0.94595,-6.53368 -0.0339,-0.42158 -0.75816,-0.39334 -0.74544,0.0344 0.12992,4.38117 -2.09101,8.60506 -1.68885,13.0354 -1.11764,1.52591 -2.43101,2.90464 -3.94406,4.09096 1.00017,-1.7362 1.25338,-3.53057 1.39224,-5.703 0.0606,-0.94805 0.0305,-1.89036 -0.0234,-2.8299 0.0294,-0.0433 0.0506,-0.0955 0.0569,-0.15957 0.28775,-2.87379 1.71268,-5.11669 2.75425,-7.72439 0.0805,-0.20149 -0.17974,-0.38619 -0.32834,-0.20976 -1.24804,1.48265 -2.13446,3.3699 -2.64678,5.30792 -0.04,-1.05789 -0.0267,-2.1155 0.13727,-3.17705 0.18299,-1.1823 0.4046,-2.36638 0.36815,-3.56716 0.77759,-1.16569 1.29163,-2.49702 1.5456,-3.87521 0.34644,-1.88083 -0.18275,-3.73161 0.0781,-5.59349 0.21227,-1.51582 0.70244,-2.90947 0.81915,-4.4354 0.8387,-0.90406 1.69621,-2.01645 2.13526,-3.15796 0.11596,-0.30142 -0.30453,-0.63163 -0.51124,-0.32659 -0.36639,0.54001 -0.65183,1.13041 -1.01635,1.67411 -0.18698,0.27875 -0.38433,0.55068 -0.58672,0.8184 -0.0648,-1.7941 -0.58254,-3.67801 -0.15018,-5.41534 0.12398,-0.49778 -0.66516,-0.63193 -0.7865,-0.1347 -0.38213,1.56854 0.0403,3.12774 0.13976,4.70709 0.12272,1.9441 -0.22512,3.6519 -0.66236,5.52207 -0.40176,1.71892 0.0774,3.40723 -0.057,5.14227 -0.10637,1.37082 -0.50751,2.63332 -1.07265,3.84982 -0.17808,-1.05799 -0.49735,-2.09568 -0.69233,-3.14882 -0.56812,-3.07112 -0.35614,-6.12313 -0.39575,-9.22124 -0.006,-0.43125 -0.73179,-0.46253 -0.76585,-0.0268 -0.14869,1.90127 -0.18522,3.85172 -0.0711,5.77575 -0.28756,-0.41237 -0.5994,-0.81218 -0.86685,-1.22598 -0.77996,-1.20578 -1.37089,-2.49347 -1.265,-3.96087 0.0317,-0.43884 -0.63272,-0.49266 -0.67974,-0.0561 -0.13325,1.2339 0.15012,2.34242 0.71999,3.44025 0.58055,1.1184 1.3446,2.36977 2.21695,3.32082 0.0195,0.18617 0.0368,0.37315 0.0592,0.55851 0.15318,1.26316 0.46034,2.47211 0.75519,3.70572 0.38944,1.62949 0.34168,3.1339 0.083,4.78172 -0.17974,1.14524 -0.38381,2.29166 -0.34781,3.45539 0.0432,1.39443 0.3562,2.75786 0.35821,4.16069 0.002,1.41923 -0.0991,2.8665 -0.26272,4.2773 -0.13772,1.18736 -0.52956,2.14025 -1.08554,3.07253 0.23488,-1.54451 0.36007,-3.01306 -0.0196,-4.55185 -0.0216,-0.0872 -0.0459,-0.17334 -0.0682,-0.26001 0.008,-0.0818 -0.0122,-0.16531 -0.0618,-0.23491 -0.43649,-1.61999 -1.00734,-3.17713 -1.27474,-4.84772 0.89366,-1.65788 1.59987,-3.49871 1.68348,-5.39833 0.0667,-1.51906 -0.23329,-3.67923 -1.13156,-4.94659 -0.13191,-0.18588 -0.39189,-0.06 -0.38954,0.14562 0.0199,1.74485 0.93291,3.32065 0.77137,5.13837 -0.11772,1.32406 -0.56717,2.55373 -1.08395,3.75992 -0.11835,-1.54671 -0.06,-3.09404 -0.15639,-4.64747 -0.0898,-1.44499 -0.4422,-2.81378 -0.88561,-4.17735 0.5743,-1.29116 0.81523,-2.52613 0.72602,-3.95895 -0.0299,-0.48351 -0.75874,-0.40366 -0.7447,0.0744 0.03,1.02777 -0.0813,1.89458 -0.34769,2.79181 -0.52917,-1.58169 -1.02465,-3.20033 -1.68979,-4.72445 -0.34609,-0.79309 -0.82626,-1.46908 -1.34256,-2.12055 5e-4,-0.007 0.002,-0.0135 0.002,-0.0209 0.004,-1.38408 0.11907,-2.85232 0.0313,-4.25975 0.48665,-1.6741 0.94691,-3.38643 0.56271,-5.1313 -0.11913,-0.54102 -0.87581,-0.37477 -0.74658,0.1744 0.25331,1.07612 0.11233,2.14021 -0.0779,3.20268 -0.35106,-1.31006 -1.04702,-2.64776 -1.59081,-3.82165 -0.19874,-0.42949 -0.86405,-0.19411 -0.69666,0.26173 0.5762,1.57061 1.60338,3.16382 1.76315,4.845 0.12037,1.26386 0.0491,2.57101 0.0246,3.85385 -0.29072,-0.35627 -0.57881,-0.71731 -0.84796,-1.09961 -1.09019,-1.54818 -1.48685,-3.29855 -2.23594,-4.99609 -0.11534,-0.26163 -0.56771,-0.19374 -0.51507,0.12032 0.23917,1.42281 0.75226,2.91013 1.41406,4.19058 0.7823,1.51428 2.09377,2.60627 2.98336,4.03983 0.45666,0.73565 0.79731,1.55389 1.09441,2.3922 -0.55604,-0.24169 -1.18548,-0.39782 -1.70268,-0.64949 -0.90843,-0.44234 -1.76707,-0.98043 -2.56053,-1.60644 -0.11555,-0.0912 -0.22557,-0.18831 -0.33797,-0.283 -0.20464,-1.34281 -0.59089,-2.65243 -1.2277,-3.85654 -0.22545,-0.42645 -0.88066,-0.12841 -0.68263,0.31669 0.38588,0.86697 0.70506,1.72977 0.92814,2.63433 -1.09993,-1.11712 -2.01764,-2.40794 -2.72239,-3.8128 -0.19189,-0.38242 -0.78347,-0.11011 -0.60397,0.28005 0.93036,2.02101 2.27743,3.77482 4.0072,5.17904 0.38415,0.31187 0.78593,0.60275 1.19953,0.87559 -1.44185,0.24059 -3.11803,0.71229 -4.03755,-0.62429 -0.18151,-0.26368 -0.63119,0.0238 -0.47632,0.30454 1.14763,2.08131 3.64687,0.96466 5.48652,0.90781 0.17565,0.0976 0.35156,0.19509 0.53087,0.28547 0.7016,0.35288 1.64514,0.88447 2.49087,0.90669 0.20719,0.63767 0.40248,1.27593 0.6151,1.88792 0.62068,1.78655 1.26297,3.55526 1.41326,5.45636 0.0113,0.14335 0.0184,0.28672 0.0265,0.43008 -0.16276,-0.1664 -0.33314,-0.32271 -0.46459,-0.47048 -0.41057,-0.46176 -0.81097,-0.90003 -0.95035,-1.52137 -0.0825,-0.36763 -0.70812,-0.38645 -0.69623,0.0321 0.019,0.68597 0.38927,1.22678 0.83338,1.72701 0.24666,0.27764 0.50281,0.54755 0.75448,0.82067 0.1942,0.21122 0.33198,0.40818 0.56269,0.51127 0.0219,1.25482 -0.006,2.51069 0.1337,3.76254 0.1978,1.77254 0.66895,3.44713 1.20186,5.14204 0.0164,0.052 0.0275,0.10438 0.0428,0.15616 -1.08971,-0.39803 -2.0023,-1.03826 -2.7615,-1.84885 0.21431,-1.26871 0.18669,-2.55605 9.3e-4,-3.82593 -0.0619,-0.42302 -0.67672,-0.29823 -0.64344,0.1133 0.0804,0.9865 0.0659,1.95708 -0.004,2.93587 -1.37566,-1.86346 -2.13451,-4.34651 -2.47919,-6.81231 0.80643,-1.11399 1.49225,-2.69569 1.46821,-4.05977 -0.007,-0.39447 -0.54465,-0.3415 -0.63883,-0.0225 -0.21151,0.71703 -0.28088,1.44552 -0.55408,2.15493 -0.11649,0.30274 -0.25207,0.59685 -0.3972,0.8865 -0.14832,-1.56032 -0.14163,-3.07617 -0.0323,-4.38007 0.0399,-0.47698 -0.66357,-0.52479 -0.73348,-0.0606 -0.43659,2.89782 -0.11609,5.92176 0.82235,8.70871 -1.21971,-1.10118 -2.54884,-2.3902 -2.44935,-4.07664 0.028,-0.47666 -0.68213,-0.53396 -0.73744,-0.0609 -0.25068,2.14176 1.83357,4.325 3.50056,5.39933 0.0629,0.0404 0.12677,0.06 0.18872,0.0657 0.0648,0.15446 0.12987,0.30891 0.19863,0.4615 1.04161,2.30859 2.8232,4.81376 5.46561,5.28497 0.72432,3.51219 -0.33897,7.16988 -0.87064,10.68361 -0.0733,0.48403 0.67528,0.53875 0.75385,0.0621 0.23343,-1.41274 0.45944,-2.82677 0.68281,-4.24131 0.0325,-0.007 0.0653,-0.0183 0.0977,-0.0383 1.23337,-0.76502 2.34907,-1.67364 3.35762,-2.68651 1.19905,-0.0126 2.46184,0.0768 3.39625,-0.78962 1.16827,-1.08325 1.3514,-2.76589 2.76516,-3.64796 0.33181,-0.20698 0.0387,-0.76961 -0.32267,-0.60852 -0.96702,0.43057 -1.46308,1.28423 -1.94299,2.19047 -0.42592,0.80436 -0.8029,1.55582 -1.69127,1.89471 -0.46108,0.17588 -0.99215,0.21929 -1.51859,0.23754 0.9854,-1.09292 1.8573,-2.28952 2.61081,-3.56146 0.64918,-0.70944 1.27571,-1.45157 1.8767,-2.21977 2.45739,-0.49281 4.62582,-1.41518 5.36316,-4.01262 0.0847,-0.3047 -0.35996,-0.39349 -0.49794,-0.15652 z"
       style="fill:#606bf1;stroke-width:0.26458332" />
  </g>
</svg>
