<?xml version="1.0" encoding="UTF-8" standalone="no"?>
<!-- Uploaded to: SVG Repo, www.svgrepo.com, Generator: SVG Repo Mixer Tools -->

<svg
   xmlns:dc="http://purl.org/dc/elements/1.1/"
   xmlns:cc="http://creativecommons.org/ns#"
   xmlns:rdf="http://www.w3.org/1999/02/22-rdf-syntax-ns#"
   xmlns:svg="http://www.w3.org/2000/svg"
   xmlns="http://www.w3.org/2000/svg"
   xmlns:sodipodi="http://sodipodi.sourceforge.net/DTD/sodipodi-0.dtd"
   xmlns:inkscape="http://www.inkscape.org/namespaces/inkscape"
   fill="#000000"
   version="1.1"
   viewBox="0 0 490 490"
   enable-background="new 0 0 490 490"
   id="svg2056"
   sodipodi:docname="shipm.svg"
   inkscape:version="0.92.4 (5da689c313, 2019-01-14)">
  <metadata
     id="metadata2062">
    <rdf:RDF>
      <cc:Work
         rdf:about="">
        <dc:format>image/svg+xml</dc:format>
        <dc:type
           rdf:resource="http://purl.org/dc/dcmitype/StillImage" />
      </cc:Work>
    </rdf:RDF>
  </metadata>
  <defs
     id="defs2060" />
  <sodipodi:namedview
     pagecolor="#ffffff"
     bordercolor="#666666"
     borderopacity="1"
     objecttolerance="10"
     gridtolerance="10"
     guidetolerance="10"
     inkscape:pageopacity="0"
     inkscape:pageshadow="2"
     inkscape:window-width="4200"
     inkscape:window-height="2569"
     id="namedview2058"
     showgrid="false"
     inkscape:zoom="3.05414"
     inkscape:cx="250.19068"
     inkscape:cy="274.0678"
     inkscape:window-x="-16"
     inkscape:window-y="-16"
     inkscape:window-maximized="1"
     inkscape:current-layer="g2054" />
  <g
     id="g2054">
    <path
       inkscape:connector-curvature="0"
       id="path2038"
       d="m 404.5,363.87252 v -67.6999 h -19.8 v 67.6999 H 314.9 V 322.14194 H 295 v 41.73058 h -36.9 l -65.2,-60.02344 h -32.4 l -9.3,-25.11184 H 82.4 L 73,303.84908 H 41.7 v 60.02344 H 0 L 36.5,429 H 371.1 L 490,363.87252 Z M 100.1,286.82203 h 33.4 l 6.3,17.02705 H 93.9 Z m -37.5,25.561 h 116.7 l 20.9,19.15033 H 62.6 Z m 146.5,27.23512 26.5,24.25437 h -173 v -24.25437 z m 152.7,80.8479 H 53.2 L 25,371.95731 h 425.3 z"
       style="stroke-width:0.63900137" />
    <path
       inkscape:connector-curvature="0"
       id="rect2040"
       d="M 77.199997,383.88034 H 100.1 v 8.08479 H 77.199997 Z"
       style="stroke-width:0.63900137" />
    <path
       inkscape:connector-curvature="0"
       id="rect2042"
       d="m 131.39999,383.88034 h 22.9 v 8.08479 h -22.9 z"
       style="stroke-width:0.63900137" />
    <path
       inkscape:connector-curvature="0"
       id="rect2044"
       d="m 185.60001,383.88034 h 22.9 v 8.08479 h -22.9 z"
       style="stroke-width:0.63900137" />
    <path
       inkscape:connector-curvature="0"
       id="rect2046"
       d="m 239.8,383.88034 h 22.9 v 8.08479 h -22.9 z"
       style="stroke-width:0.63900137" />
    <path
       inkscape:connector-curvature="0"
       id="rect2048"
       d="m 294,383.88034 h 22.9 v 8.08479 H 294 Z"
       style="stroke-width:0.63900137" />
    <path
       inkscape:connector-curvature="0"
       id="rect2050"
       d="m 348.20001,383.88034 h 22.9 v 8.08479 h -22.9 z"
       style="stroke-width:0.63900137" />
  </g>
</svg>
