<?xml version="1.0" encoding="UTF-8" standalone="no"?>
<svg
   xmlns:dc="http://purl.org/dc/elements/1.1/"
   xmlns:cc="http://creativecommons.org/ns#"
   xmlns:rdf="http://www.w3.org/1999/02/22-rdf-syntax-ns#"
   xmlns:svg="http://www.w3.org/2000/svg"
   xmlns="http://www.w3.org/2000/svg"
   xmlns:sodipodi="http://sodipodi.sourceforge.net/DTD/sodipodi-0.dtd"
   xmlns:inkscape="http://www.inkscape.org/namespaces/inkscape"
   version="1.0"
   width="96.940018"
   height="190.87321"
   id="svg2"
   sodipodi:docname="Spar_YB.svg"
   inkscape:version="0.92.4 (5da689c313, 2019-01-14)">
  <metadata
     id="metadata11850">
    <rdf:RDF>
      <cc:Work
         rdf:about="">
        <dc:format>image/svg+xml</dc:format>
        <dc:type
           rdf:resource="http://purl.org/dc/dcmitype/StillImage" />
        <dc:title />
      </cc:Work>
    </rdf:RDF>
  </metadata>
  <sodipodi:namedview
     pagecolor="#ffffff"
     bordercolor="#666666"
     borderopacity="1"
     objecttolerance="10"
     gridtolerance="10"
     guidetolerance="10"
     inkscape:pageopacity="0"
     inkscape:pageshadow="2"
     inkscape:window-width="3840"
     inkscape:window-height="2104"
     id="namedview11848"
     showgrid="false"
     inkscape:zoom="11.562762"
     inkscape:cx="-11.911918"
     inkscape:cy="96.191795"
     inkscape:window-x="-16"
     inkscape:window-y="-16"
     inkscape:window-maximized="1"
     inkscape:current-layer="svg2" />
  <defs
     id="defs4" />
  <path
     style="fill:none;fill-opacity:1;fill-rule:evenodd;stroke:none"
     d="m 47.770268,175.87321 c 4.14,0 7.5,3.36 7.5,7.5 0,4.14 -3.36,7.5 -7.5,7.5 -4.14,0 -7.5,-3.36 -7.5,-7.5 0,-4.14 3.36,-7.5 7.5,-7.5 z"
     id="path12397"
     inkscape:connector-curvature="0" />
  <ellipse
     style="fill:none;fill-opacity:1;fill-rule:evenodd;stroke:#000000;stroke-width:3.77952766;stroke-miterlimit:4;stroke-dasharray:none;stroke-dashoffset:0;stroke-opacity:1"
     id="path11556"
     cx="22.772604"
     cy="159.72333"
     rx="11.38782"
     ry="10.912155" />
  <path
     style="fill:none;stroke:#000000;stroke-width:3.77952766;stroke-linecap:butt;stroke-linejoin:miter;stroke-miterlimit:4;stroke-dasharray:none;stroke-opacity:1"
     d="M 0.02718818,160.19898 12.048538,160.37195"
     id="path11558"
     inkscape:connector-curvature="0" />
  <path
     style="fill:none;stroke:#000000;stroke-width:3.77952766;stroke-linecap:butt;stroke-linejoin:miter;stroke-miterlimit:4;stroke-dasharray:none;stroke-opacity:1"
     d="m 34.275058,160.1125 8.64845,-0.0865"
     id="path11560"
     inkscape:connector-curvature="0" />
  <path
     style="fill:none;stroke:#000000;stroke-width:3.77952766;stroke-linecap:butt;stroke-linejoin:miter;stroke-miterlimit:4;stroke-dasharray:none;stroke-opacity:1"
     d="M 18.707838,149.04248 49.562568,56.549269"
     id="path11562"
     inkscape:connector-curvature="0" />
  <path
     style="fill:none;stroke:#000000;stroke-width:3.77952766;stroke-linecap:butt;stroke-linejoin:miter;stroke-miterlimit:4;stroke-dasharray:none;stroke-opacity:1"
     d="m 49.562568,56.549269 12.03125,3.90625"
     id="path11564"
     inkscape:connector-curvature="0" />
  <path
     style="fill:none;stroke:#000000;stroke-width:3.77952766;stroke-linecap:butt;stroke-linejoin:miter;stroke-miterlimit:4;stroke-dasharray:none;stroke-opacity:1"
     d="m 61.593818,60.455519 -30,90.468741"
     id="path11566"
     inkscape:connector-curvature="0" />
  <path
     style="fill:none;fill-opacity:1;fill-rule:evenodd;stroke:#000000;stroke-width:0.32687065;stroke-miterlimit:4;stroke-dasharray:none;stroke-dashoffset:0;stroke-opacity:1"
     d="m 29.903348,148.87732 c -0.58259,-0.37242 -1.7981,-0.94108 -2.63194,-1.23132 -1.46452,-0.50977 -2.35575,-0.66252 -4.17871,-0.71622 -0.89187,-0.0263 -1.62159,-0.0588 -1.62159,-0.0723 0,-0.0135 6.59661,-19.78671 14.65913,-43.94054 8.06252,-24.15383 14.65913,-43.921793 14.65913,-43.928804 0,-0.007 1.86806,0.593506 4.15125,1.334481 2.2832,0.740976 4.15126,1.390349 4.15126,1.443052 0,0.08243 -28.87963,87.240911 -28.91581,87.267651 -0.007,0.005 -0.13002,-0.0648 -0.27272,-0.15604 z"
     id="path11568"
     inkscape:connector-curvature="0" />
  <path
     style="fill:none;fill-opacity:1;fill-rule:evenodd;stroke:#000000;stroke-width:0.32687065;stroke-miterlimit:4;stroke-dasharray:none;stroke-dashoffset:0;stroke-opacity:1"
     d="m 29.903348,148.6609 c -0.28232,-0.21931 -1.84482,-0.93909 -2.66472,-1.22755 -1.23962,-0.43612 -2.34956,-0.62359 -4.01786,-0.67864 -1.46697,-0.0484 -1.49251,-0.0525 -1.43665,-0.23072 0.0313,-0.0998 6.60527,-19.79614 14.60887,-43.76965 l 14.552,-43.588199 0.2465,0.02823 c 0.13558,0.01553 0.7719,0.223886 1.41405,0.463018 0.64215,0.239132 2.29617,0.824432 3.67559,1.300667 1.37943,0.476234 2.52183,0.878395 2.53867,0.89369 0.0168,0.0153 -0.18503,0.682127 -0.44859,1.481849 -1.24451,3.77622 -23.39316,70.676435 -27.50124,83.067755 -0.77469,2.33671 -0.79778,2.3907 -0.96662,2.25955 z"
     id="path11570"
     inkscape:connector-curvature="0" />
  <path
     sodipodi:type="star"
     style="fill:#000301;fill-opacity:1;fill-rule:evenodd;stroke:#000000;stroke-width:0.37795275;stroke-miterlimit:4;stroke-dasharray:none;stroke-dashoffset:0;stroke-opacity:1"
     id="path11584"
     sodipodi:sides="3"
     sodipodi:cx="69.214806"
     sodipodi:cy="19.488666"
     sodipodi:r1="0.44098628"
     sodipodi:r2="0.22049314"
     sodipodi:arg1="1.7681919"
     sodipodi:arg2="2.8153894"
     inkscape:flatsided="false"
     inkscape:rounded="0"
     inkscape:randomized="0"
     d="m 69.128321,19.921089 -0.122381,-0.361766 -0.122381,-0.361766 0.374489,0.0749 0.374489,0.0749 -0.252108,0.286868 z"
     inkscape:transform-center-x="-0.043242263"
     inkscape:transform-center-y="0.07065676" />
  <path
     style="fill:none;stroke:#000000;stroke-width:1px;stroke-linecap:butt;stroke-linejoin:miter;stroke-opacity:1"
     d="m 35.199202,104.64814 9.945721,3.11344"
     id="path13522"
     inkscape:connector-curvature="0" />
  <path
     style="fill:#f5fa01;fill-opacity:1;fill-rule:evenodd;stroke:#000000;stroke-width:0.02124659;stroke-miterlimit:4;stroke-dasharray:none;stroke-dashoffset:0;stroke-opacity:1"
     d="m 29.72686,148.32324 c -0.301326,-0.20954 -2.313774,-1.06689 -2.936952,-1.2512 -0.966867,-0.28597 -2.067234,-0.4477 -3.43776,-0.5053 -0.833568,-0.035 -1.275647,-0.0864 -1.275647,-0.14827 0,-0.13123 13.586869,-40.90204 13.653745,-40.97149 0.04741,-0.0492 7.569042,2.26673 7.661276,2.35897 0.01969,0.0197 -1.009563,3.18736 -2.287236,7.03927 -1.277673,3.85191 -4.295138,12.95792 -6.705479,20.2356 -2.410341,7.27767 -4.409452,13.26096 -4.442469,13.29619 -0.03302,0.0352 -0.136283,0.011 -0.229478,-0.0538 z"
     id="path13524"
     inkscape:connector-curvature="0" />
  <path
     style="fill:#f5fa01;fill-opacity:1;fill-rule:evenodd;stroke:#000000;stroke-width:0.02124659;stroke-miterlimit:4;stroke-dasharray:none;stroke-dashoffset:0;stroke-opacity:1"
     d="m 39.892314,105.55459 c -2.717406,-0.8575 -3.759459,-1.2216 -3.752648,-1.3112 0.0079,-0.10441 14.904704,-44.788399 14.955931,-44.861453 0.0096,-0.01371 1.413797,0.464557 3.120412,1.062808 4.157326,1.457341 4.356963,1.529754 4.356963,1.580369 0,0.02409 -0.658861,2.032883 -1.464136,4.46399 -0.805274,2.431107 -3.356852,10.141146 -5.670174,17.13342 -6.562705,19.836516 -7.664773,23.135166 -7.726613,23.126916 -0.03171,-0.004 -1.750593,-0.54191 -3.819735,-1.19485 z"
     id="path13526"
     inkscape:connector-curvature="0" />
  <path
     style="fill:#000001;fill-opacity:1;fill-rule:evenodd;stroke:#000000;stroke-width:0.02124659;stroke-miterlimit:4;stroke-dasharray:none;stroke-dashoffset:0;stroke-opacity:1"
     d="m 29.12499,147.98356 c -1.838254,-0.91586 -3.26102,-1.28725 -5.542388,-1.44678 -0.756168,-0.0529 -1.393277,-0.11456 -1.4158,-0.13709 -0.03702,-0.037 12.138564,-36.68585 13.16299,-39.62093 0.252451,-0.7233 0.476067,-1.23241 0.541312,-1.23241 0.19047,0 7.363186,2.20026 7.460744,2.28862 0.06108,0.0553 -13.38074,40.52431 -13.454534,40.50726 -0.03325,-0.008 -0.371792,-0.16908 -0.752324,-0.35867 z"
     id="path13528"
     inkscape:connector-curvature="0" />
  <path
     sodipodi:type="star"
     style="fill:#000001;fill-opacity:1;fill-rule:evenodd;stroke:#000000;stroke-width:0.24566929;stroke-miterlimit:4;stroke-dasharray:none;stroke-dashoffset:0;stroke-opacity:1"
     id="path13530"
     sodipodi:sides="3"
     sodipodi:cx="68.58223"
     sodipodi:cy="17.039316"
     sodipodi:r1="16.034895"
     sodipodi:r2="8.0174465"
     sodipodi:arg1="1.9813538"
     sodipodi:arg2="3.0285513"
     inkscape:flatsided="false"
     inkscape:rounded="0"
     inkscape:randomized="0"
     d="M 62.182374,31.741687 60.615953,17.94369 59.049531,4.1456931 71.782157,9.6881316 84.514784,15.230569 73.348579,23.486127 Z"
     inkscape:transform-center-x="-2.4504822"
     inkscape:transform-center-y="1.6947101"
     transform="rotate(-5.7263139,68.58223,17.039316)" />
  <path
     sodipodi:type="star"
     style="fill:#000001;fill-opacity:1;fill-rule:evenodd;stroke:#000000;stroke-width:0.24566929;stroke-miterlimit:4;stroke-dasharray:none;stroke-dashoffset:0;stroke-opacity:1"
     id="path13530-1"
     sodipodi:sides="3"
     sodipodi:cx="62.911709"
     sodipodi:cy="41.028629"
     sodipodi:r1="16.034895"
     sodipodi:r2="8.0174465"
     sodipodi:arg1="1.9813538"
     sodipodi:arg2="3.0285513"
     inkscape:flatsided="false"
     inkscape:rounded="0"
     inkscape:randomized="0"
     d="M 56.511853,55.731 54.945433,41.933003 53.37901,28.135006 66.111636,33.677445 78.844263,39.219882 67.678058,47.47544 Z"
     inkscape:transform-center-x="-2.3702397"
     inkscape:transform-center-y="1.7768494"
     transform="rotate(-6.3275769,59.26354,50.243445)" />
</svg>
