<?xml version="1.0" encoding="UTF-8" standalone="no"?>
<svg
   xmlns:dc="http://purl.org/dc/elements/1.1/"
   xmlns:cc="http://creativecommons.org/ns#"
   xmlns:rdf="http://www.w3.org/1999/02/22-rdf-syntax-ns#"
   xmlns:svg="http://www.w3.org/2000/svg"
   xmlns="http://www.w3.org/2000/svg"
   xmlns:sodipodi="http://sodipodi.sourceforge.net/DTD/sodipodi-0.dtd"
   xmlns:inkscape="http://www.inkscape.org/namespaces/inkscape"
   version="1.0"
   width="96.940018"
   height="190.87321"
   id="svg2"
   sodipodi:docname="Spar_SPP.svg"
   inkscape:version="0.92.4 (5da689c313, 2019-01-14)">
  <metadata
     id="metadata11850">
    <rdf:RDF>
      <cc:Work
         rdf:about="">
        <dc:format>image/svg+xml</dc:format>
        <dc:type
           rdf:resource="http://purl.org/dc/dcmitype/StillImage" />
        <dc:title></dc:title>
      </cc:Work>
    </rdf:RDF>
  </metadata>
  <sodipodi:namedview
     pagecolor="#ffffff"
     bordercolor="#666666"
     borderopacity="1"
     objecttolerance="10"
     gridtolerance="10"
     guidetolerance="10"
     inkscape:pageopacity="0"
     inkscape:pageshadow="2"
     inkscape:window-width="3840"
     inkscape:window-height="2104"
     id="namedview11848"
     showgrid="false"
     inkscape:zoom="11.562762"
     inkscape:cx="22.335955"
     inkscape:cy="95.912569"
     inkscape:window-x="-16"
     inkscape:window-y="-16"
     inkscape:window-maximized="1"
     inkscape:current-layer="svg2" />
  <defs
     id="defs4" />
  <path
     style="fill:none;fill-opacity:1;fill-rule:evenodd;stroke:none"
     d="m 47.770268,175.87321 c 4.14,0 7.5,3.36 7.5,7.5 0,4.14 -3.36,7.5 -7.5,7.5 -4.14,0 -7.5,-3.36 -7.5,-7.5 0,-4.14 3.36,-7.5 7.5,-7.5 z"
     id="path12397"
     inkscape:connector-curvature="0" />
  <ellipse
     style="fill:none;fill-opacity:1;fill-rule:evenodd;stroke:#000000;stroke-width:3.77952766;stroke-miterlimit:4;stroke-dasharray:none;stroke-dashoffset:0;stroke-opacity:1"
     id="path11556"
     cx="22.772604"
     cy="159.72333"
     rx="11.38782"
     ry="10.912155" />
  <path
     style="fill:none;stroke:#000000;stroke-width:3.77952766;stroke-linecap:butt;stroke-linejoin:miter;stroke-miterlimit:4;stroke-dasharray:none;stroke-opacity:1"
     d="M 0.02718818,160.19898 12.048538,160.37195"
     id="path11558"
     inkscape:connector-curvature="0" />
  <path
     style="fill:none;stroke:#000000;stroke-width:3.77952766;stroke-linecap:butt;stroke-linejoin:miter;stroke-miterlimit:4;stroke-dasharray:none;stroke-opacity:1"
     d="m 34.275058,160.1125 8.64845,-0.0865"
     id="path11560"
     inkscape:connector-curvature="0" />
  <path
     style="fill:none;stroke:#000000;stroke-width:3.77952766;stroke-linecap:butt;stroke-linejoin:miter;stroke-miterlimit:4;stroke-dasharray:none;stroke-opacity:1"
     d="M 18.707838,149.04248 49.562568,56.549269"
     id="path11562"
     inkscape:connector-curvature="0" />
  <path
     style="fill:none;stroke:#000000;stroke-width:3.77952766;stroke-linecap:butt;stroke-linejoin:miter;stroke-miterlimit:4;stroke-dasharray:none;stroke-opacity:1"
     d="m 49.562568,56.549269 12.03125,3.90625"
     id="path11564"
     inkscape:connector-curvature="0" />
  <path
     style="fill:none;stroke:#000000;stroke-width:3.77952766;stroke-linecap:butt;stroke-linejoin:miter;stroke-miterlimit:4;stroke-dasharray:none;stroke-opacity:1"
     d="m 61.593818,60.455519 -30,90.468741"
     id="path11566"
     inkscape:connector-curvature="0" />
  <path
     style="fill:none;fill-opacity:1;fill-rule:evenodd;stroke:#000000;stroke-width:0.32687065;stroke-miterlimit:4;stroke-dasharray:none;stroke-dashoffset:0;stroke-opacity:1"
     d="m 29.903348,148.87732 c -0.58259,-0.37242 -1.7981,-0.94108 -2.63194,-1.23132 -1.46452,-0.50977 -2.35575,-0.66252 -4.17871,-0.71622 -0.89187,-0.0263 -1.62159,-0.0588 -1.62159,-0.0723 0,-0.0135 6.59661,-19.78671 14.65913,-43.94054 8.06252,-24.15383 14.65913,-43.921793 14.65913,-43.928804 0,-0.007 1.86806,0.593506 4.15125,1.334481 2.2832,0.740976 4.15126,1.390349 4.15126,1.443052 0,0.08243 -28.87963,87.240911 -28.91581,87.267651 -0.007,0.005 -0.13002,-0.0648 -0.27272,-0.15604 z"
     id="path11568"
     inkscape:connector-curvature="0" />
  <path
     style="fill:none;fill-opacity:1;fill-rule:evenodd;stroke:#000000;stroke-width:0.32687065;stroke-miterlimit:4;stroke-dasharray:none;stroke-dashoffset:0;stroke-opacity:1"
     d="m 29.903348,148.6609 c -0.28232,-0.21931 -1.84482,-0.93909 -2.66472,-1.22755 -1.23962,-0.43612 -2.34956,-0.62359 -4.01786,-0.67864 -1.46697,-0.0484 -1.49251,-0.0525 -1.43665,-0.23072 0.0313,-0.0998 6.60527,-19.79614 14.60887,-43.76965 l 14.552,-43.588199 0.2465,0.02823 c 0.13558,0.01553 0.7719,0.223886 1.41405,0.463018 0.64215,0.239132 2.29617,0.824432 3.67559,1.300667 1.37943,0.476234 2.52183,0.878395 2.53867,0.89369 0.0168,0.0153 -0.18503,0.682127 -0.44859,1.481849 -1.24451,3.77622 -23.39316,70.676435 -27.50124,83.067755 -0.77469,2.33671 -0.79778,2.3907 -0.96662,2.25955 z"
     id="path11570"
     inkscape:connector-curvature="0" />
  <path
     sodipodi:type="star"
     style="fill:#000301;fill-opacity:1;fill-rule:evenodd;stroke:#000000;stroke-width:0.37795275;stroke-miterlimit:4;stroke-dasharray:none;stroke-dashoffset:0;stroke-opacity:1"
     id="path11584"
     sodipodi:sides="3"
     sodipodi:cx="69.214806"
     sodipodi:cy="19.488666"
     sodipodi:r1="0.44098628"
     sodipodi:r2="0.22049314"
     sodipodi:arg1="1.7681919"
     sodipodi:arg2="2.8153894"
     inkscape:flatsided="false"
     inkscape:rounded="0"
     inkscape:randomized="0"
     d="m 69.128321,19.921089 -0.122381,-0.361766 -0.122381,-0.361766 0.374489,0.0749 0.374489,0.0749 -0.252108,0.286868 z"
     inkscape:transform-center-x="-0.043242263"
     inkscape:transform-center-y="0.07065676" />
  <path
     style="fill:#f5fa01;fill-opacity:1;fill-rule:evenodd;stroke:#000000;stroke-width:0.03268706;stroke-miterlimit:4;stroke-dasharray:none;stroke-dashoffset:0;stroke-opacity:1"
     d="m 28.956917,147.95464 c -1.880244,-0.91796 -3.168968,-1.24433 -5.458646,-1.38238 -0.798589,-0.0482 -1.458329,-0.097 -1.466088,-0.10849 -0.01798,-0.0267 29.025475,-87.012721 29.067573,-87.058297 0.01724,-0.01866 0.781463,0.227943 1.698274,0.548015 0.916809,0.320073 2.562042,0.893208 3.656071,1.273635 1.094029,0.380427 2.020007,0.721211 2.057729,0.757298 0.0594,0.05682 -28.280343,85.848669 -28.492067,86.252979 -0.04359,0.0832 -0.107075,0.14814 -0.141076,0.14421 -0.034,-0.004 -0.448798,-0.19606 -0.92177,-0.42697 z"
     id="path12800"
     inkscape:connector-curvature="0" />
  <path
     style="color:#000000;font-style:normal;font-variant:normal;font-weight:normal;font-stretch:normal;font-size:medium;line-height:normal;font-family:sans-serif;font-variant-ligatures:normal;font-variant-position:normal;font-variant-caps:normal;font-variant-numeric:normal;font-variant-alternates:normal;font-feature-settings:normal;text-indent:0;text-align:start;text-decoration:none;text-decoration-line:none;text-decoration-style:solid;text-decoration-color:#000000;letter-spacing:normal;word-spacing:normal;text-transform:none;writing-mode:lr-tb;direction:ltr;text-orientation:mixed;dominant-baseline:auto;baseline-shift:baseline;text-anchor:start;white-space:normal;shape-padding:0;clip-rule:nonzero;display:inline;overflow:visible;visibility:visible;opacity:1;isolation:auto;mix-blend-mode:normal;color-interpolation:sRGB;color-interpolation-filters:linearRGB;solid-color:#000000;solid-opacity:1;vector-effect:none;fill:#fefd00;fill-opacity:1;fill-rule:nonzero;stroke:none;stroke-width:0.37795275;stroke-linecap:butt;stroke-linejoin:miter;stroke-miterlimit:4;stroke-dasharray:none;stroke-dashoffset:0;stroke-opacity:1;color-rendering:auto;image-rendering:auto;shape-rendering:auto;text-rendering:auto;enable-background:accumulate"
     d="M 49.604658,1.5731716 34.614976,11.549992 71.463481,66.926612 86.45441,56.942492 Z"
     id="path2050"
     inkscape:connector-curvature="0" />
  <path
     style="fill:none;stroke:#000000;stroke-width:3.77952766;stroke-linecap:butt;stroke-linejoin:miter;stroke-miterlimit:4;stroke-dasharray:none;stroke-opacity:1"
     d="m 29.184192,44.247482 9.782268,15.11455 19.617222,-11.05598 12.879799,18.62056"
     id="path5054"
     inkscape:connector-curvature="0" />
  <path
     style="fill:none;stroke:#000000;stroke-width:3.77952766;stroke-linecap:butt;stroke-linejoin:miter;stroke-miterlimit:4;stroke-dasharray:none;stroke-opacity:1"
     d="M 71.463481,66.926612 86.45441,56.942492"
     id="path5056"
     inkscape:connector-curvature="0" />
  <g
     transform="matrix(3.7795276,0,0,3.7795276,-347.22033,-377.34991)"
     id="g12808">
    <path
       inkscape:connector-curvature="0"
       id="path2048"
       d="m 114.50974,101.89544 -14.919375,9.6522 2.588225,3.99906 14.919,-9.65029 z"
       style="color:#000000;font-style:normal;font-variant:normal;font-weight:normal;font-stretch:normal;font-size:medium;line-height:normal;font-family:sans-serif;font-variant-ligatures:normal;font-variant-position:normal;font-variant-caps:normal;font-variant-numeric:normal;font-variant-alternates:normal;font-feature-settings:normal;text-indent:0;text-align:start;text-decoration:none;text-decoration-line:none;text-decoration-style:solid;text-decoration-color:#000000;letter-spacing:normal;word-spacing:normal;text-transform:none;writing-mode:lr-tb;direction:ltr;text-orientation:mixed;dominant-baseline:auto;baseline-shift:baseline;text-anchor:start;white-space:normal;shape-padding:0;clip-rule:nonzero;display:inline;overflow:visible;visibility:visible;opacity:1;isolation:auto;mix-blend-mode:normal;color-interpolation:sRGB;color-interpolation-filters:linearRGB;solid-color:#000000;solid-opacity:1;vector-effect:none;fill:#fefd00;fill-opacity:1;fill-rule:nonzero;stroke:none;stroke-width:0.1;stroke-linecap:butt;stroke-linejoin:miter;stroke-miterlimit:4;stroke-dasharray:none;stroke-dashoffset:0;stroke-opacity:1;color-rendering:auto;image-rendering:auto;shape-rendering:auto;text-rendering:auto;enable-background:accumulate" />
    <path
       inkscape:connector-curvature="0"
       id="path5052"
       d="m 101.02726,102.89643 3.48476,5.33507 -4.921655,3.31614"
       style="fill:none;stroke:#000000;stroke-width:1;stroke-linecap:butt;stroke-linejoin:miter;stroke-miterlimit:4;stroke-dasharray:none;stroke-opacity:1" />
    <path
       inkscape:connector-curvature="0"
       id="path5058"
       d="m 114.74311,114.90653 -3.64614,-5.21171 6.00062,-3.79841"
       style="fill:none;stroke:#000000;stroke-width:1;stroke-linecap:butt;stroke-linejoin:miter;stroke-miterlimit:4;stroke-dasharray:none;stroke-opacity:1" />
    <path
       inkscape:connector-curvature="0"
       id="path5060"
       d="m 117.09759,105.89641 -2.58785,-4.00097"
       style="fill:none;stroke:#000000;stroke-width:1;stroke-linecap:butt;stroke-linejoin:miter;stroke-miterlimit:4;stroke-dasharray:none;stroke-opacity:1" />
    <path
       inkscape:connector-curvature="0"
       id="path5062"
       d="m 114.50974,101.89544 -5.99101,3.82751 -3.52545,-5.46622"
       style="fill:none;stroke:#000000;stroke-width:1;stroke-linecap:butt;stroke-linejoin:miter;stroke-miterlimit:4;stroke-dasharray:none;stroke-opacity:1" />
    <path
       inkscape:connector-curvature="0"
       id="path5064"
       d="m 104.99328,100.25673 -3.96602,2.6397"
       style="fill:none;stroke:#000000;stroke-width:1;stroke-linecap:butt;stroke-linejoin:miter;stroke-miterlimit:4;stroke-dasharray:none;stroke-opacity:1" />
  </g>
</svg>
