<?xml version="1.0" encoding="UTF-8" standalone="no"?>
<svg
   xmlns:dc="http://purl.org/dc/elements/1.1/"
   xmlns:cc="http://creativecommons.org/ns#"
   xmlns:rdf="http://www.w3.org/1999/02/22-rdf-syntax-ns#"
   xmlns:svg="http://www.w3.org/2000/svg"
   xmlns="http://www.w3.org/2000/svg"
   xmlns:sodipodi="http://sodipodi.sourceforge.net/DTD/sodipodi-0.dtd"
   xmlns:inkscape="http://www.inkscape.org/namespaces/inkscape"
   version="1.0"
   width="85.524513"
   height="177.65747"
   id="svg2"
   sodipodi:docname="Spar_SAW.svg"
   inkscape:version="0.92.4 (5da689c313, 2019-01-14)">
  <metadata
     id="metadata11850">
    <rdf:RDF>
      <cc:Work
         rdf:about="">
        <dc:format>image/svg+xml</dc:format>
        <dc:type
           rdf:resource="http://purl.org/dc/dcmitype/StillImage" />
        <dc:title></dc:title>
      </cc:Work>
    </rdf:RDF>
  </metadata>
  <sodipodi:namedview
     pagecolor="#ffffff"
     bordercolor="#666666"
     borderopacity="1"
     objecttolerance="10"
     gridtolerance="10"
     guidetolerance="10"
     inkscape:pageopacity="0"
     inkscape:pageshadow="2"
     inkscape:window-width="4200"
     inkscape:window-height="2569"
     id="namedview11848"
     showgrid="false"
     inkscape:zoom="11.562762"
     inkscape:cx="-38.963435"
     inkscape:cy="79.61864"
     inkscape:window-x="-16"
     inkscape:window-y="-16"
     inkscape:window-maximized="1"
     inkscape:current-layer="svg2" />
  <defs
     id="defs4" />
  <path
     style="fill:#050407;fill-opacity:1;fill-rule:evenodd;stroke:none"
     d="m 58.125,45.657473 -5.9375,18.125 -4.25,-1.40625 -30.09375,90.624997 c -4.58857,1.09832 -8.21335,4.74044 -9.28125,9.34375 H 0.125 L 0,168.00122 h 8.5625 c 1.28732,5.53295 6.23327,9.65624 12.15625,9.65625 5.92495,0 10.87095,-4.12052 12.15625,-9.65625 l 8.325,-0.0437 v -5.65625 l -8.325,0.0437 c -0.4895,-2.11431 -1.49849,-4.03814 -2.90625,-5.59375 l 30,-90.468747 -3.75,-1.1875 L 62.5,47.126223 Z"
     id="path12399"
     inkscape:connector-curvature="0" />
  <path
     style="fill:#000507;fill-opacity:1;fill-rule:evenodd;stroke:none"
     d="m 20.71875,157.65747 c 4.14,0 7.5,3.36 7.5,7.5 0,4.14 -3.36,7.5 -7.5,7.5 -4.14,0 -7.5,-3.36 -7.5,-7.5 0,-4.14 3.36,-7.5 7.5,-7.5 z"
     id="path12397"
     inkscape:connector-curvature="0" />
  <ellipse
     style="fill:none;fill-opacity:1;fill-rule:evenodd;stroke:#020200;stroke-width:3.03329468;stroke-miterlimit:4;stroke-dasharray:none;stroke-dashoffset:0;stroke-opacity:1"
     id="path5477-1"
     cx="58.069286"
     cy="37.034454"
     rx="14.72581"
     ry="12.657351"
     transform="matrix(0.99741012,-0.07192394,0.13146882,0.99132031,0,0)" />
</svg>
