<?xml version="1.0" encoding="UTF-8" standalone="no"?>
<svg
   xmlns:dc="http://purl.org/dc/elements/1.1/"
   xmlns:cc="http://creativecommons.org/ns#"
   xmlns:rdf="http://www.w3.org/1999/02/22-rdf-syntax-ns#"
   xmlns:svg="http://www.w3.org/2000/svg"
   xmlns="http://www.w3.org/2000/svg"
   xmlns:sodipodi="http://sodipodi.sourceforge.net/DTD/sodipodi-0.dtd"
   xmlns:inkscape="http://www.inkscape.org/namespaces/inkscape"
   version="1.0"
   width="77.269867"
   height="180.5593"
   id="svg2"
   sodipodi:docname="Spar_BYB.svg"
   inkscape:version="0.92.4 (5da689c313, 2019-01-14)">
  <metadata
     id="metadata11850">
    <rdf:RDF>
      <cc:Work
         rdf:about="">
        <dc:format>image/svg+xml</dc:format>
        <dc:type
           rdf:resource="http://purl.org/dc/dcmitype/StillImage" />
        <dc:title></dc:title>
      </cc:Work>
    </rdf:RDF>
  </metadata>
  <sodipodi:namedview
     pagecolor="#ffffff"
     bordercolor="#666666"
     borderopacity="1"
     objecttolerance="10"
     gridtolerance="10"
     guidetolerance="10"
     inkscape:pageopacity="0"
     inkscape:pageshadow="2"
     inkscape:window-width="3840"
     inkscape:window-height="2104"
     id="namedview11848"
     showgrid="false"
     inkscape:zoom="11.562762"
     inkscape:cx="22.335955"
     inkscape:cy="110.49984"
     inkscape:window-x="-16"
     inkscape:window-y="-16"
     inkscape:window-maximized="1"
     inkscape:current-layer="svg2" />
  <defs
     id="defs4" />
  <path
     style="fill:none;fill-opacity:1;fill-rule:evenodd;stroke:none"
     d="m 47.770268,165.55929 c 4.14,0 7.5,3.36 7.5,7.5 0,4.14 -3.36,7.5 -7.5,7.5 -4.14,0 -7.5,-3.36 -7.5,-7.5 0,-4.14 3.36,-7.5 7.5,-7.5 z"
     id="path12397"
     inkscape:connector-curvature="0" />
  <ellipse
     style="fill:none;fill-opacity:1;fill-rule:evenodd;stroke:#000000;stroke-width:3.77952766;stroke-miterlimit:4;stroke-dasharray:none;stroke-dashoffset:0;stroke-opacity:1"
     id="path11556"
     cx="22.772604"
     cy="149.40939"
     rx="11.38782"
     ry="10.912155" />
  <path
     style="fill:none;stroke:#000000;stroke-width:3.77952766;stroke-linecap:butt;stroke-linejoin:miter;stroke-miterlimit:4;stroke-dasharray:none;stroke-opacity:1"
     d="M 0.02718818,149.88506 12.048538,150.05803"
     id="path11558"
     inkscape:connector-curvature="0" />
  <path
     style="fill:none;stroke:#000000;stroke-width:3.77952766;stroke-linecap:butt;stroke-linejoin:miter;stroke-miterlimit:4;stroke-dasharray:none;stroke-opacity:1"
     d="m 34.275058,149.79858 8.64845,-0.0865"
     id="path11560"
     inkscape:connector-curvature="0" />
  <path
     style="fill:none;stroke:#000000;stroke-width:3.77952766;stroke-linecap:butt;stroke-linejoin:miter;stroke-miterlimit:4;stroke-dasharray:none;stroke-opacity:1"
     d="M 18.707838,138.72856 49.562568,46.235347"
     id="path11562"
     inkscape:connector-curvature="0" />
  <path
     style="fill:none;stroke:#000000;stroke-width:3.77952766;stroke-linecap:butt;stroke-linejoin:miter;stroke-miterlimit:4;stroke-dasharray:none;stroke-opacity:1"
     d="m 49.562568,46.235347 12.03125,3.90625"
     id="path11564"
     inkscape:connector-curvature="0" />
  <path
     style="fill:none;stroke:#000000;stroke-width:3.77952766;stroke-linecap:butt;stroke-linejoin:miter;stroke-miterlimit:4;stroke-dasharray:none;stroke-opacity:1"
     d="m 61.593818,50.141597 -30,90.468743"
     id="path11566"
     inkscape:connector-curvature="0" />
  <path
     style="fill:#fa0307;fill-opacity:1;fill-rule:evenodd;stroke:#000000;stroke-width:0.32687065;stroke-miterlimit:4;stroke-dasharray:none;stroke-dashoffset:0;stroke-opacity:1"
     d="m 29.903348,138.5634 c -0.58259,-0.37242 -1.7981,-0.94108 -2.63194,-1.23132 -1.46452,-0.50977 -2.35575,-0.66252 -4.17871,-0.71622 -0.89187,-0.0263 -1.62159,-0.0588 -1.62159,-0.0723 0,-0.0135 6.59661,-19.78671 14.65913,-43.940539 8.06252,-24.153833 14.65913,-43.921796 14.65913,-43.928807 0,-0.007 1.86806,0.593506 4.15125,1.334481 2.2832,0.740976 4.15126,1.390349 4.15126,1.443052 0,0.08243 -28.87963,87.240913 -28.91581,87.267653 -0.007,0.005 -0.13002,-0.0648 -0.27272,-0.15604 z"
     id="path11568"
     inkscape:connector-curvature="0" />
  <path
     style="fill:#000301;fill-opacity:1;fill-rule:evenodd;stroke:#000000;stroke-width:0.32687065;stroke-miterlimit:4;stroke-dasharray:none;stroke-dashoffset:0;stroke-opacity:1"
     d="m 29.903348,138.34698 c -0.28232,-0.21931 -1.84482,-0.93909 -2.66472,-1.22755 -1.23962,-0.43612 -2.34956,-0.62359 -4.01786,-0.67864 -1.46697,-0.0484 -1.49251,-0.0525 -1.43665,-0.23072 0.0313,-0.0998 6.60527,-19.79614 14.60887,-43.76965 l 14.552,-43.588201 0.2465,0.02823 c 0.13558,0.01553 0.7719,0.223886 1.41405,0.463018 0.64215,0.239132 2.29617,0.824432 3.67559,1.300667 1.37943,0.476234 2.52183,0.878395 2.53867,0.89369 0.0168,0.0153 -0.18503,0.682127 -0.44859,1.481849 -1.24451,3.77622 -23.39316,70.676437 -27.50124,83.067757 -0.77469,2.33671 -0.79778,2.3907 -0.96662,2.25955 z"
     id="path11570"
     inkscape:connector-curvature="0" />
  <path
     style="fill:none;stroke:#000000;stroke-width:0.37795275;stroke-linecap:butt;stroke-linejoin:miter;stroke-miterlimit:4;stroke-dasharray:none;stroke-opacity:1"
     d="m 38.512798,80.870415 10.89705,2.940474"
     id="path11572"
     inkscape:connector-curvature="0" />
  <path
     style="fill:none;stroke:#000000;stroke-width:0.37795275;stroke-linecap:butt;stroke-linejoin:miter;stroke-miterlimit:4;stroke-dasharray:none;stroke-opacity:1"
     d="m 28.653558,110.0157 11.07002,3.02695"
     id="path11574"
     inkscape:connector-curvature="0" />
  <path
     style="fill:#feff00;fill-opacity:1;fill-rule:evenodd;stroke:#000000;stroke-width:0.03268706;stroke-miterlimit:4;stroke-dasharray:none;stroke-dashoffset:0;stroke-opacity:1"
     d="m 34.487028,111.38603 c -2.09292,-0.58143 -3.80045,-1.09295 -3.79451,-1.13672 0.0248,-0.18275 9.48623,-28.538888 9.54345,-28.602038 0.0535,-0.05908 7.21605,1.812419 7.63046,1.993768 0.1297,0.05676 -0.27018,1.32294 -3.35252,10.615555 -1.92489,5.803115 -4.06587,12.273235 -4.75774,14.378045 -0.75103,2.28481 -1.29942,3.82324 -1.36088,3.81774 -0.0566,-0.005 -1.81533,-0.48492 -3.90826,-1.06635 z"
     id="path11576"
     inkscape:connector-curvature="0" />
  <path
     style="fill:#000301;fill-opacity:1;fill-rule:evenodd;stroke:#000000;stroke-width:0.03268706;stroke-miterlimit:4;stroke-dasharray:none;stroke-dashoffset:0;stroke-opacity:1"
     d="m 44.232378,82.192327 c -2.06044,-0.561487 -3.76795,-1.042584 -3.79447,-1.069107 -0.0647,-0.06468 10.61697,-32.05479 10.70325,-32.05479 0.0693,0 0.43324,0.126052 4.83728,1.675468 2.42107,0.851773 2.55011,0.908068 2.52812,1.102918 -0.047,0.416727 -10.34686,31.38271 -10.43577,31.374698 -0.0507,-0.0046 -1.77798,-0.467701 -3.83841,-1.029187 z"
     id="path11578"
     inkscape:connector-curvature="0" />
  <g
     id="g11588"
     transform="rotate(-5.1095336,-17.061236,-427.915)">
    <path
       transform="matrix(1.0248117,0,0,1.0015033,-168.02181,38.699627)"
       inkscape:transform-center-y="0.77850443"
       inkscape:transform-center-x="-2.969114"
       d="m 178.07164,9.9529656 -1.34638,-12.3683129 -1.34639,-12.3683117 11.38447,5.0181519 11.38446,5.018152 -10.03808,7.3501606 z"
       inkscape:randomized="0"
       inkscape:rounded="0"
       inkscape:flatsided="false"
       sodipodi:arg2="3.033162"
       sodipodi:arg1="1.9859644"
       sodipodi:r2="7.1830335"
       sodipodi:r1="14.366067"
       sodipodi:cy="-3.192683"
       sodipodi:cx="183.8661"
       sodipodi:sides="3"
       id="path11580"
       style="fill:#000301;fill-opacity:1;fill-rule:evenodd;stroke:#000000;stroke-width:0.37795275;stroke-miterlimit:4;stroke-dasharray:none;stroke-dashoffset:0;stroke-opacity:1"
       sodipodi:type="star" />
    <path
       transform="matrix(1.0248117,0,0,1.0015033,-148.82225,-4.7156058)"
       inkscape:transform-center-y="-0.9123391"
       inkscape:transform-center-x="2.991787"
       d="m 180.57969,36.936138 -11.91374,-5.056463 -11.91374,-5.056462 10.33589,-7.789371 10.3359,-7.789371 1.57784,12.845834 z"
       inkscape:randomized="0"
       inkscape:rounded="0"
       inkscape:flatsided="false"
       sodipodi:arg2="1.972178"
       sodipodi:arg1="0.92498041"
       sodipodi:r2="7.4722829"
       sodipodi:r1="14.944566"
       sodipodi:cy="25.001274"
       sodipodi:cx="171.5853"
       sodipodi:sides="3"
       id="path11582"
       style="fill:#000301;fill-opacity:1;fill-rule:evenodd;stroke:#000000;stroke-width:0.37795275;stroke-miterlimit:4;stroke-dasharray:none;stroke-dashoffset:0;stroke-opacity:1"
       sodipodi:type="star" />
  </g>
  <path
     sodipodi:type="star"
     style="fill:#000301;fill-opacity:1;fill-rule:evenodd;stroke:#000000;stroke-width:0.37795275;stroke-miterlimit:4;stroke-dasharray:none;stroke-dashoffset:0;stroke-opacity:1"
     id="path11584"
     sodipodi:sides="3"
     sodipodi:cx="69.214802"
     sodipodi:cy="9.1747423"
     sodipodi:r1="0.44098628"
     sodipodi:r2="0.22049314"
     sodipodi:arg1="1.7681919"
     sodipodi:arg2="2.8153894"
     inkscape:flatsided="false"
     inkscape:rounded="0"
     inkscape:randomized="0"
     d="M 69.128321,9.6071653 69.00594,9.2453995 68.883559,8.8836336 l 0.374489,0.074898 0.374489,0.074898 -0.252108,0.286868 z"
     inkscape:transform-center-x="-0.043242263"
     inkscape:transform-center-y="0.07065676" />
</svg>
