<?xml version="1.0" encoding="UTF-8" standalone="no"?>
<svg
   xmlns:dc="http://purl.org/dc/elements/1.1/"
   xmlns:cc="http://creativecommons.org/ns#"
   xmlns:rdf="http://www.w3.org/1999/02/22-rdf-syntax-ns#"
   xmlns:svg="http://www.w3.org/2000/svg"
   xmlns="http://www.w3.org/2000/svg"
   xmlns:sodipodi="http://sodipodi.sourceforge.net/DTD/sodipodi-0.dtd"
   xmlns:inkscape="http://www.inkscape.org/namespaces/inkscape"
   version="1.0"
   width="73.980621"
   height="170.49736"
   id="svg2"
   sodipodi:docname="Spar_ISD.svg"
   inkscape:version="0.92.4 (5da689c313, 2019-01-14)">
  <metadata
     id="metadata11850">
    <rdf:RDF>
      <cc:Work
         rdf:about="">
        <dc:format>image/svg+xml</dc:format>
        <dc:type
           rdf:resource="http://purl.org/dc/dcmitype/StillImage" />
        <dc:title></dc:title>
      </cc:Work>
    </rdf:RDF>
  </metadata>
  <sodipodi:namedview
     pagecolor="#ffffff"
     bordercolor="#666666"
     borderopacity="1"
     objecttolerance="10"
     gridtolerance="10"
     guidetolerance="10"
     inkscape:pageopacity="0"
     inkscape:pageshadow="2"
     inkscape:window-width="3840"
     inkscape:window-height="2104"
     id="namedview11848"
     showgrid="false"
     inkscape:zoom="11.562762"
     inkscape:cx="-11.911917"
     inkscape:cy="103.70097"
     inkscape:window-x="-16"
     inkscape:window-y="-16"
     inkscape:window-maximized="1"
     inkscape:current-layer="svg2" />
  <defs
     id="defs4" />
  <path
     style="fill:none;fill-opacity:1;fill-rule:evenodd;stroke:none"
     d="m 47.770268,155.49736 c 4.14,0 7.5,3.36 7.5,7.5 0,4.14 -3.36,7.5 -7.5,7.5 -4.14,0 -7.5,-3.36 -7.5,-7.5 0,-4.14 3.36,-7.5 7.5,-7.5 z"
     id="path12397"
     inkscape:connector-curvature="0" />
  <ellipse
     style="fill:none;fill-opacity:1;fill-rule:evenodd;stroke:#000000;stroke-width:3.77952766;stroke-miterlimit:4;stroke-dasharray:none;stroke-dashoffset:0;stroke-opacity:1"
     id="path11556"
     cx="22.772604"
     cy="139.34746"
     rx="11.38782"
     ry="10.912155" />
  <path
     style="fill:none;stroke:#000000;stroke-width:3.77952766;stroke-linecap:butt;stroke-linejoin:miter;stroke-miterlimit:4;stroke-dasharray:none;stroke-opacity:1"
     d="M 0.02718818,139.82313 12.048538,139.9961"
     id="path11558"
     inkscape:connector-curvature="0" />
  <path
     style="fill:none;stroke:#000000;stroke-width:3.77952766;stroke-linecap:butt;stroke-linejoin:miter;stroke-miterlimit:4;stroke-dasharray:none;stroke-opacity:1"
     d="m 34.275058,139.73665 8.64845,-0.0865"
     id="path11560"
     inkscape:connector-curvature="0" />
  <path
     style="fill:none;stroke:#000000;stroke-width:3.77952766;stroke-linecap:butt;stroke-linejoin:miter;stroke-miterlimit:4;stroke-dasharray:none;stroke-opacity:1"
     d="M 18.707838,128.66663 49.562568,36.173408"
     id="path11562"
     inkscape:connector-curvature="0" />
  <path
     style="fill:none;stroke:#000000;stroke-width:3.77952766;stroke-linecap:butt;stroke-linejoin:miter;stroke-miterlimit:4;stroke-dasharray:none;stroke-opacity:1"
     d="m 49.562568,36.173408 12.03125,3.90625"
     id="path11564"
     inkscape:connector-curvature="0" />
  <path
     style="fill:none;stroke:#000000;stroke-width:3.77952766;stroke-linecap:butt;stroke-linejoin:miter;stroke-miterlimit:4;stroke-dasharray:none;stroke-opacity:1"
     d="m 61.593818,40.079658 -30,90.468752"
     id="path11566"
     inkscape:connector-curvature="0" />
  <path
     style="fill:none;fill-opacity:1;fill-rule:evenodd;stroke:#000000;stroke-width:0.32687065;stroke-miterlimit:4;stroke-dasharray:none;stroke-dashoffset:0;stroke-opacity:1"
     d="m 29.903348,128.50147 c -0.58259,-0.37242 -1.7981,-0.94108 -2.63194,-1.23132 -1.46452,-0.50977 -2.35575,-0.66252 -4.17871,-0.71622 -0.89187,-0.0263 -1.62159,-0.0588 -1.62159,-0.0723 0,-0.0135 6.59661,-19.78671 14.65913,-43.940548 8.06252,-24.153833 14.65913,-43.921796 14.65913,-43.928807 0,-0.007 1.86806,0.593506 4.15125,1.334481 2.2832,0.740976 4.15126,1.390349 4.15126,1.443052 0,0.08243 -28.87963,87.240922 -28.91581,87.267662 -0.007,0.005 -0.13002,-0.0648 -0.27272,-0.15604 z"
     id="path11568"
     inkscape:connector-curvature="0" />
  <path
     style="fill:none;fill-opacity:1;fill-rule:evenodd;stroke:#000000;stroke-width:0.32687065;stroke-miterlimit:4;stroke-dasharray:none;stroke-dashoffset:0;stroke-opacity:1"
     d="m 29.903348,128.28505 c -0.28232,-0.21931 -1.84482,-0.93909 -2.66472,-1.22755 -1.23962,-0.43612 -2.34956,-0.62359 -4.01786,-0.67864 -1.46697,-0.0484 -1.49251,-0.0525 -1.43665,-0.23072 0.0313,-0.0998 6.60527,-19.79614 14.60887,-43.769659 l 14.552,-43.588201 0.2465,0.02823 c 0.13558,0.01553 0.7719,0.223886 1.41405,0.463018 0.64215,0.239132 2.29617,0.824432 3.67559,1.300667 1.37943,0.476234 2.52183,0.878395 2.53867,0.89369 0.0168,0.0153 -0.18503,0.682127 -0.44859,1.481849 -1.24451,3.77622 -23.39316,70.676446 -27.50124,83.067766 -0.77469,2.33671 -0.79778,2.3907 -0.96662,2.25955 z"
     id="path11570"
     inkscape:connector-curvature="0" />
  <path
     style="fill:none;stroke:#000000;stroke-width:0.37795275;stroke-linecap:butt;stroke-linejoin:miter;stroke-miterlimit:4;stroke-dasharray:none;stroke-opacity:1"
     d="m 38.512798,70.808476 10.89705,2.940474"
     id="path11572"
     inkscape:connector-curvature="0" />
  <path
     style="fill:none;stroke:#000000;stroke-width:0.37795275;stroke-linecap:butt;stroke-linejoin:miter;stroke-miterlimit:4;stroke-dasharray:none;stroke-opacity:1"
     d="m 25.972538,106.09417 11.07002,3.02695"
     id="path11574"
     inkscape:connector-curvature="0" />
  <path
     style="fill:none;stroke:#000000;stroke-width:0.24566929;stroke-linecap:butt;stroke-linejoin:miter;stroke-miterlimit:4;stroke-dasharray:none;stroke-opacity:1"
     d="M 35.458656,83.580404 46.61516,86.9533"
     id="path12181"
     inkscape:connector-curvature="0" />
  <path
     style="fill:none;stroke:#000000;stroke-width:0.24566929;stroke-linecap:butt;stroke-linejoin:miter;stroke-miterlimit:4;stroke-dasharray:none;stroke-opacity:1"
     d="m 29.837162,96.89902 12.021349,3.28641"
     id="path12183"
     inkscape:connector-curvature="0" />
  <path
     style="fill:#000100;fill-opacity:1;fill-rule:evenodd;stroke:#000000;stroke-width:0.02124659;stroke-miterlimit:4;stroke-dasharray:none;stroke-dashoffset:0;stroke-opacity:1"
     d="m 44.21654,72.112229 c -2.824677,-0.766966 -3.759682,-1.052967 -3.752467,-1.147809 0.0081,-0.106514 10.57713,-31.898043 10.624763,-31.959183 0.02748,-0.03527 7.390998,2.536783 7.459961,2.605746 0.01852,0.01852 -0.954519,3.024979 -2.162305,6.681023 -6.398896,19.369869 -8.233783,24.851856 -8.316602,24.847032 -0.0502,-0.0029 -1.784207,-0.464988 -3.85335,-1.026809 z"
     id="path12191"
     inkscape:connector-curvature="0" />
  <path
     style="fill:#000100;fill-opacity:1;fill-rule:evenodd;stroke:#000000;stroke-width:0.02124659;stroke-miterlimit:4;stroke-dasharray:none;stroke-dashoffset:0;stroke-opacity:1"
     d="m 35.524846,98.29143 c -2.092926,-0.57474 -3.819103,-1.0559 -3.835949,-1.06927 -0.03898,-0.0309 4.313228,-13.115278 4.391401,-13.202167 0.05855,-0.06508 7.513608,2.145914 7.643982,2.267026 0.08421,0.07823 -4.189553,12.996701 -4.309897,13.027681 -0.04632,0.0119 -1.796612,-0.44854 -3.889537,-1.02327 z"
     id="path12193"
     inkscape:connector-curvature="0" />
  <path
     style="fill:#000100;fill-opacity:1;fill-rule:evenodd;stroke:#000000;stroke-width:0.02124659;stroke-miterlimit:4;stroke-dasharray:none;stroke-dashoffset:0;stroke-opacity:1"
     d="m 29.224016,127.70282 c -2.110105,-1.0682 -4.114444,-1.54313 -6.513392,-1.54338 l -0.706388,-7e-5 3.160418,-9.49168 c 1.73823,-5.22042 3.193095,-9.52729 3.233034,-9.57081 0.05738,-0.0625 7.054746,1.76801 7.700528,2.01448 0.120259,0.0459 -0.315728,1.43124 -2.970082,9.43737 -1.711068,5.16096 -3.136626,9.40932 -3.167907,9.44078 -0.03128,0.0315 -0.362576,-0.0975 -0.736211,-0.28669 z"
     id="path12195"
     inkscape:connector-curvature="0" />
  <path
     style="fill:#ff0100;fill-opacity:1;fill-rule:evenodd;stroke:#000000;stroke-width:0.02124659;stroke-miterlimit:4;stroke-dasharray:none;stroke-dashoffset:0;stroke-opacity:1"
     d="m 40.108525,84.819233 c -1.997792,-0.610164 -3.700508,-1.128453 -3.783812,-1.151753 -0.132459,-0.03705 0.103556,-0.799311 1.881172,-6.075654 1.117949,-3.318309 2.042304,-6.041569 2.054122,-6.051688 0.01182,-0.01012 1.757052,0.449532 3.878297,1.021448 l 3.85681,1.039846 -0.619559,1.911953 c -1.607111,4.959524 -3.469001,10.429916 -3.547533,10.422958 -0.04793,-0.0042 -1.721704,-0.506947 -3.719497,-1.11711 z"
     id="path12197"
     inkscape:connector-curvature="0" />
  <path
     style="fill:#ff0100;fill-opacity:1;fill-rule:evenodd;stroke:#000000;stroke-width:0.02124659;stroke-miterlimit:4;stroke-dasharray:none;stroke-dashoffset:0;stroke-opacity:1"
     d="m 32.411403,107.62809 c -2.092926,-0.57557 -3.819102,-1.05625 -3.835948,-1.06819 -0.02458,-0.0174 2.913273,-8.9336 2.966557,-9.00332 0.04174,-0.0546 7.787222,2.12764 7.781723,2.19246 -0.02447,0.28843 -2.946487,8.93891 -3.017449,8.933 -0.04926,-0.004 -1.801958,-0.47838 -3.894883,-1.05395 z"
     id="path12199"
     inkscape:connector-curvature="0" />
  <circle
     style="fill:#000100;fill-opacity:1;fill-rule:evenodd;stroke:#000000;stroke-width:0.24566929;stroke-miterlimit:4;stroke-dasharray:none;stroke-dashoffset:0;stroke-opacity:1"
     id="path12201"
     cx="59.068932"
     cy="27.278976"
     r="8.9943905" />
  <ellipse
     style="fill:#000100;fill-opacity:1;fill-rule:evenodd;stroke:#000000;stroke-width:0.24566929;stroke-miterlimit:4;stroke-dasharray:none;stroke-dashoffset:0;stroke-opacity:1"
     id="path12203"
     cx="64.949883"
     cy="9.1604671"
     rx="8.9079065"
     ry="9.0376329" />
</svg>
