<?xml version="1.0" encoding="UTF-8" standalone="no"?>
<svg
   xmlns:dc="http://purl.org/dc/elements/1.1/"
   xmlns:cc="http://creativecommons.org/ns#"
   xmlns:rdf="http://www.w3.org/1999/02/22-rdf-syntax-ns#"
   xmlns:svg="http://www.w3.org/2000/svg"
   xmlns="http://www.w3.org/2000/svg"
   xmlns:sodipodi="http://sodipodi.sourceforge.net/DTD/sodipodi-0.dtd"
   xmlns:inkscape="http://www.inkscape.org/namespaces/inkscape"
   version="1.0"
   width="78.457191"
   height="181.69928"
   id="svg2"
   sodipodi:docname="Spar_BY.svg"
   inkscape:version="0.92.4 (5da689c313, 2019-01-14)">
  <metadata
     id="metadata11850">
    <rdf:RDF>
      <cc:Work
         rdf:about="">
        <dc:format>image/svg+xml</dc:format>
        <dc:type
           rdf:resource="http://purl.org/dc/dcmitype/StillImage" />
        <dc:title></dc:title>
      </cc:Work>
    </rdf:RDF>
  </metadata>
  <sodipodi:namedview
     pagecolor="#ffffff"
     bordercolor="#666666"
     borderopacity="1"
     objecttolerance="10"
     gridtolerance="10"
     guidetolerance="10"
     inkscape:pageopacity="0"
     inkscape:pageshadow="2"
     inkscape:window-width="3840"
     inkscape:window-height="2104"
     id="namedview11848"
     showgrid="false"
     inkscape:zoom="11.562762"
     inkscape:cx="22.335955"
     inkscape:cy="143.79172"
     inkscape:window-x="-16"
     inkscape:window-y="-16"
     inkscape:window-maximized="1"
     inkscape:current-layer="svg2" />
  <defs
     id="defs4" />
  <path
     style="fill:none;fill-opacity:1;fill-rule:evenodd;stroke:none"
     d="m 47.770268,166.69928 c 4.14,0 7.5,3.36 7.5,7.5 0,4.14 -3.36,7.5 -7.5,7.5 -4.14,0 -7.5,-3.36 -7.5,-7.5 0,-4.14 3.36,-7.5 7.5,-7.5 z"
     id="path12397"
     inkscape:connector-curvature="0" />
  <ellipse
     style="fill:none;fill-opacity:1;fill-rule:evenodd;stroke:#000000;stroke-width:3.77952766;stroke-miterlimit:4;stroke-dasharray:none;stroke-dashoffset:0;stroke-opacity:1"
     id="path11556"
     cx="22.772604"
     cy="150.54939"
     rx="11.38782"
     ry="10.912155" />
  <path
     style="fill:none;stroke:#000000;stroke-width:3.77952766;stroke-linecap:butt;stroke-linejoin:miter;stroke-miterlimit:4;stroke-dasharray:none;stroke-opacity:1"
     d="M 0.02718818,151.02505 12.048538,151.19802"
     id="path11558"
     inkscape:connector-curvature="0" />
  <path
     style="fill:none;stroke:#000000;stroke-width:3.77952766;stroke-linecap:butt;stroke-linejoin:miter;stroke-miterlimit:4;stroke-dasharray:none;stroke-opacity:1"
     d="m 34.275058,150.93857 8.64845,-0.0865"
     id="path11560"
     inkscape:connector-curvature="0" />
  <path
     style="fill:none;stroke:#000000;stroke-width:3.77952766;stroke-linecap:butt;stroke-linejoin:miter;stroke-miterlimit:4;stroke-dasharray:none;stroke-opacity:1"
     d="M 18.707838,139.86855 49.562568,47.37534"
     id="path11562"
     inkscape:connector-curvature="0" />
  <path
     style="fill:none;stroke:#000000;stroke-width:3.77952766;stroke-linecap:butt;stroke-linejoin:miter;stroke-miterlimit:4;stroke-dasharray:none;stroke-opacity:1"
     d="m 49.562568,47.37534 12.03125,3.90625"
     id="path11564"
     inkscape:connector-curvature="0" />
  <path
     style="fill:none;stroke:#000000;stroke-width:3.77952766;stroke-linecap:butt;stroke-linejoin:miter;stroke-miterlimit:4;stroke-dasharray:none;stroke-opacity:1"
     d="m 61.593818,51.28159 -30,90.46874"
     id="path11566"
     inkscape:connector-curvature="0" />
  <path
     style="fill:none;fill-opacity:1;fill-rule:evenodd;stroke:#000000;stroke-width:0.32687065;stroke-miterlimit:4;stroke-dasharray:none;stroke-dashoffset:0;stroke-opacity:1"
     d="m 29.903348,139.70339 c -0.58259,-0.37242 -1.7981,-0.94108 -2.63194,-1.23132 -1.46452,-0.50977 -2.35575,-0.66252 -4.17871,-0.71622 -0.89187,-0.0263 -1.62159,-0.0588 -1.62159,-0.0723 0,-0.0135 6.59661,-19.78671 14.65913,-43.940536 8.06252,-24.153833 14.65913,-43.921796 14.65913,-43.928807 0,-0.007 1.86806,0.593506 4.15125,1.334481 2.2832,0.740976 4.15126,1.390349 4.15126,1.443052 0,0.08243 -28.87963,87.24091 -28.91581,87.26765 -0.007,0.005 -0.13002,-0.0648 -0.27272,-0.15604 z"
     id="path11568"
     inkscape:connector-curvature="0" />
  <path
     style="fill:none;fill-opacity:1;fill-rule:evenodd;stroke:#000000;stroke-width:0.32687065;stroke-miterlimit:4;stroke-dasharray:none;stroke-dashoffset:0;stroke-opacity:1"
     d="m 29.903348,139.48697 c -0.28232,-0.21931 -1.84482,-0.93909 -2.66472,-1.22755 -1.23962,-0.43612 -2.34956,-0.62359 -4.01786,-0.67864 -1.46697,-0.0484 -1.49251,-0.0525 -1.43665,-0.23072 0.0313,-0.0998 6.60527,-19.79614 14.60887,-43.769647 l 14.552,-43.588201 0.2465,0.02823 c 0.13558,0.01553 0.7719,0.223886 1.41405,0.463018 0.64215,0.239132 2.29617,0.824432 3.67559,1.300667 1.37943,0.476234 2.52183,0.878395 2.53867,0.89369 0.0168,0.0153 -0.18503,0.682127 -0.44859,1.481849 -1.24451,3.77622 -23.39316,70.676434 -27.50124,83.067754 -0.77469,2.33671 -0.79778,2.3907 -0.96662,2.25955 z"
     id="path11570"
     inkscape:connector-curvature="0" />
  <path
     sodipodi:type="star"
     style="fill:#000301;fill-opacity:1;fill-rule:evenodd;stroke:#000000;stroke-width:0.37795275;stroke-miterlimit:4;stroke-dasharray:none;stroke-dashoffset:0;stroke-opacity:1"
     id="path11580"
     sodipodi:sides="3"
     sodipodi:cx="183.8661"
     sodipodi:cy="-3.192683"
     sodipodi:r1="14.366067"
     sodipodi:r2="7.1830335"
     sodipodi:arg1="1.9859644"
     sodipodi:arg2="3.033162"
     inkscape:flatsided="false"
     inkscape:rounded="0"
     inkscape:randomized="0"
     d="m 178.07164,9.9529656 -1.34638,-12.3683129 -1.34639,-12.3683117 11.38447,5.0181519 11.38446,5.018152 -10.03808,7.3501606 z"
     inkscape:transform-center-x="0.90753278"
     inkscape:transform-center-y="-1.694296"
     transform="matrix(0.64431196,0.79693236,-0.77880684,0.62965766,-53.183023,-130.0865)" />
  <path
     sodipodi:type="star"
     style="fill:#000301;fill-opacity:1;fill-rule:evenodd;stroke:#000000;stroke-width:0.37795275;stroke-miterlimit:4;stroke-dasharray:none;stroke-dashoffset:0;stroke-opacity:1"
     id="path11582"
     sodipodi:sides="3"
     sodipodi:cx="171.5853"
     sodipodi:cy="25.001274"
     sodipodi:r1="14.944566"
     sodipodi:r2="7.4722829"
     sodipodi:arg1="0.92498041"
     sodipodi:arg2="1.972178"
     inkscape:flatsided="false"
     inkscape:rounded="0"
     inkscape:randomized="0"
     d="m 180.57969,36.936138 -11.91374,-5.056463 -11.91374,-5.056462 10.33589,-7.789371 10.3359,-7.789371 1.57784,12.845834 z"
     inkscape:transform-center-x="2.991787"
     inkscape:transform-center-y="-0.9123391"
     transform="matrix(1.0207394,-0.09126976,0.08919391,0.99752359,-117.26783,27.839021)" />
  <path
     sodipodi:type="star"
     style="fill:#000301;fill-opacity:1;fill-rule:evenodd;stroke:#000000;stroke-width:0.37795275;stroke-miterlimit:4;stroke-dasharray:none;stroke-dashoffset:0;stroke-opacity:1"
     id="path11584"
     sodipodi:sides="3"
     sodipodi:cx="69.214806"
     sodipodi:cy="10.314736"
     sodipodi:r1="0.44098628"
     sodipodi:r2="0.22049314"
     sodipodi:arg1="1.7681919"
     sodipodi:arg2="2.8153894"
     inkscape:flatsided="false"
     inkscape:rounded="0"
     inkscape:randomized="0"
     d="m 69.128321,10.747159 -0.122381,-0.361766 -0.122381,-0.361766 0.374489,0.0749 0.374489,0.0749 -0.252108,0.286868 z"
     inkscape:transform-center-x="-0.043242263"
     inkscape:transform-center-y="0.07065676" />
  <path
     style="fill:none;stroke:#000000;stroke-width:1px;stroke-linecap:butt;stroke-linejoin:miter;stroke-opacity:1"
     d="M 35.199202,94.782339 45.231408,97.46336"
     id="path11590"
     inkscape:connector-curvature="0" />
  <path
     style="fill:#fafd07;fill-opacity:1;fill-rule:evenodd;stroke:#000000;stroke-width:0.03268706;stroke-miterlimit:4;stroke-dasharray:none;stroke-dashoffset:0;stroke-opacity:1"
     d="m 29.316568,138.94436 c -1.926311,-0.99417 -4.043664,-1.54966 -5.906838,-1.54966 -0.339466,0 -0.791598,-0.0239 -1.004737,-0.0531 l -0.387527,-0.0531 6.96296,-20.85452 c 3.829628,-11.46998 6.966898,-20.861813 6.971712,-20.870737 0.0096,-0.01778 7.780903,2.051977 7.797184,2.076642 0.01993,0.03019 -13.682135,41.359385 -13.746713,41.463875 -0.08853,0.14323 -0.108858,0.13851 -0.686041,-0.15937 z"
     id="path11592"
     inkscape:connector-curvature="0" />
  <path
     style="fill:#020001;fill-opacity:1;fill-rule:evenodd;stroke:#000000;stroke-width:0.03268706;stroke-miterlimit:4;stroke-dasharray:none;stroke-dashoffset:0;stroke-opacity:1"
     d="m 40.19501,95.565786 c -2.045359,-0.548433 -3.754007,-1.030618 -3.796995,-1.07152 -0.04586,-0.04363 2.970762,-9.199864 7.298723,-22.153545 4.057287,-12.143546 7.388486,-22.093114 7.402666,-22.110151 0.03013,-0.0362 0.811241,0.228049 4.576336,1.548166 1.522128,0.533688 2.799626,0.999297 2.838887,1.034686 0.03926,0.03539 -0.901647,2.997777 -2.090905,6.583084 -1.189256,3.585306 -4.055114,12.239691 -6.368571,19.231965 -2.313457,6.992274 -4.596258,13.890496 -5.07289,15.329382 -0.490322,1.480214 -0.910418,2.613753 -0.96751,2.61062 -0.0555,-0.003 -1.774382,-0.454254 -3.819741,-1.002687 z"
     id="path11594"
     inkscape:connector-curvature="0" />
</svg>
