<?xml version="1.0" encoding="UTF-8" standalone="no"?>
<svg
   xmlns:dc="http://purl.org/dc/elements/1.1/"
   xmlns:cc="http://creativecommons.org/ns#"
   xmlns:rdf="http://www.w3.org/1999/02/22-rdf-syntax-ns#"
   xmlns:svg="http://www.w3.org/2000/svg"
   xmlns="http://www.w3.org/2000/svg"
   xmlns:sodipodi="http://sodipodi.sourceforge.net/DTD/sodipodi-0.dtd"
   xmlns:inkscape="http://www.inkscape.org/namespaces/inkscape"
   version="1.0"
   width="78.3125"
   height="113.04395"
   id="svg2"
   sodipodi:docname="Sphere_SPP.svg"
   inkscape:version="0.92.4 (5da689c313, 2019-01-14)">
  <metadata
     id="metadata13559">
    <rdf:RDF>
      <cc:Work
         rdf:about="">
        <dc:format>image/svg+xml</dc:format>
        <dc:type
           rdf:resource="http://purl.org/dc/dcmitype/StillImage" />
        <dc:title></dc:title>
      </cc:Work>
    </rdf:RDF>
  </metadata>
  <sodipodi:namedview
     pagecolor="#ffffff"
     bordercolor="#666666"
     borderopacity="1"
     objecttolerance="10"
     gridtolerance="10"
     guidetolerance="10"
     inkscape:pageopacity="0"
     inkscape:pageshadow="2"
     inkscape:window-width="3840"
     inkscape:window-height="2104"
     id="namedview13557"
     showgrid="false"
     inkscape:zoom="7.9426515"
     inkscape:cx="29.129237"
     inkscape:cy="41.683792"
     inkscape:window-x="-16"
     inkscape:window-y="-16"
     inkscape:window-maximized="1"
     inkscape:current-layer="svg2" />
  <defs
     id="defs4" />
  <path
     d="m 38.5,51.075192 c -5.67213,0.049 -11.40588,1.52368 -16.625,4.59375 -14.66147,8.6244 -20.34244,26.81223 -13.8125,42.0625 H 0 v 5.656248 h 21.71875 c 1.28732,5.53295 6.23327,9.65624 12.15625,9.65625 5.92495,0 10.87095,-4.12052 12.15625,-9.65625 l 32.28125,0.0312 v -5.656198 l -8.59375,-0.0312 c 4.23899,-9.77187 3.57606,-20.76132 -1.96875,-30.1875 -5.84775,-9.94118 -16.07241,-15.72806 -26.8125,-16.40625 -0.80551,-0.0509 -1.6272,-0.0695 -2.4375,-0.0625 z m 0.75,6.9375 c 8.94702,0.12249 17.58881,4.79785 22.46875,13.09375 5.04512,8.5767 5.07245,18.06388 0.125,26.625 l -15.8125,-0.0312 c -1.2853,-5.53573 -6.2313,-9.65625 -12.15625,-9.65625 -5.92298,1e-5 -10.86893,4.1233 -12.15625,9.65625 H 15.875 c -7.20997,-12.59943 -2.98519,-28.61901 9.5625,-36 4.34547,-2.55616 9.12597,-3.75166 13.8125,-3.6875 z m -5.375,35.03125 c 4.14,0 7.5,3.36 7.5,7.499998 0,4.14 -3.36,7.5 -7.5,7.5 -4.14,0 -7.5,-3.36 -7.5,-7.5 0,-4.139998 3.36,-7.499998 7.5,-7.499998 z"
     id="path93160"
     style="fill:#000407;fill-opacity:1;fill-rule:evenodd;stroke:none"
     inkscape:connector-curvature="0" />
  <path
     style="fill:#fffd01;fill-opacity:1;fill-rule:evenodd;stroke:#000000;stroke-width:0.03093039;stroke-miterlimit:4;stroke-dasharray:none;stroke-dashoffset:0;stroke-opacity:1"
     d="m 51.09923,97.626912 -5.0361,-0.0372 -0.36037,-1.12721 c -0.68149,-2.13165 -2.17772,-4.27568 -3.97633,-5.69791 -2.33337,-1.84508 -4.89056,-2.73671 -7.83906,-2.73328 -3.25939,0.004 -6.15628,1.12385 -8.43837,3.26263 -1.71675,1.60894 -2.84505,3.34681 -3.50674,5.40129 l -0.29229,0.90753 -2.89245,-0.0337 -2.89245,-0.0337 -0.48109,-0.88132 c -0.61176,-1.12071 -1.60769,-3.67753 -2.03523,-5.22496 -1.84718,-6.68575 -0.85086,-14.14518 2.70091,-20.22176 3.44809,-5.89918 9.15276,-10.28287 15.85691,-12.18506 2.29628,-0.65153 4.12271,-0.88243 6.98011,-0.88243 2.93136,0 4.63018,0.22308 7.20529,0.94616 5.96092,1.67379 11.26177,5.54688 14.77489,10.79533 1.02115,1.52555 2.5556,4.58123 3.12981,6.23266 1.85857,5.34528 1.94013,10.81153 0.23948,16.05028 -0.54213,1.66999 -0.91768,2.56699 -1.84021,4.39535 l -0.58761,1.1646 -2.8365,-0.03 c -1.56007,-0.0165 -5.10274,-0.0468 -7.8726,-0.0672 z"
     id="path14104"
     inkscape:connector-curvature="0" />
  <g
     transform="matrix(3.0566173,-0.58761129,0.59836102,3.1125349,-355.31854,-248.71261)"
     id="g14182">
    <path
       inkscape:connector-curvature="0"
       id="path2050"
       d="m 104.99328,100.25673 -3.96602,2.6397 9.7495,14.65173 3.96635,-2.64163 z"
       style="color:#000000;font-style:normal;font-variant:normal;font-weight:normal;font-stretch:normal;font-size:medium;line-height:normal;font-family:sans-serif;font-variant-ligatures:normal;font-variant-position:normal;font-variant-caps:normal;font-variant-numeric:normal;font-variant-alternates:normal;font-feature-settings:normal;text-indent:0;text-align:start;text-decoration:none;text-decoration-line:none;text-decoration-style:solid;text-decoration-color:#000000;letter-spacing:normal;word-spacing:normal;text-transform:none;writing-mode:lr-tb;direction:ltr;text-orientation:mixed;dominant-baseline:auto;baseline-shift:baseline;text-anchor:start;white-space:normal;shape-padding:0;clip-rule:nonzero;display:inline;overflow:visible;visibility:visible;opacity:1;isolation:auto;mix-blend-mode:normal;color-interpolation:sRGB;color-interpolation-filters:linearRGB;solid-color:#000000;solid-opacity:1;vector-effect:none;fill:#fefd00;fill-opacity:1;fill-rule:nonzero;stroke:none;stroke-width:0.1;stroke-linecap:butt;stroke-linejoin:miter;stroke-miterlimit:4;stroke-dasharray:none;stroke-dashoffset:0;stroke-opacity:1;color-rendering:auto;image-rendering:auto;shape-rendering:auto;text-rendering:auto;enable-background:accumulate" />
    <path
       inkscape:connector-curvature="0"
       id="path5054"
       d="m 99.590365,111.54764 2.588225,3.99906 5.19039,-2.92523 3.40778,4.92669"
       style="fill:none;stroke:#000000;stroke-width:1;stroke-linecap:butt;stroke-linejoin:miter;stroke-miterlimit:4;stroke-dasharray:none;stroke-opacity:1" />
    <path
       inkscape:connector-curvature="0"
       id="path5056"
       d="m 110.77676,117.54816 3.96635,-2.64163"
       style="fill:none;stroke:#000000;stroke-width:1;stroke-linecap:butt;stroke-linejoin:miter;stroke-miterlimit:4;stroke-dasharray:none;stroke-opacity:1" />
    <g
       id="g12808">
      <path
         style="color:#000000;font-style:normal;font-variant:normal;font-weight:normal;font-stretch:normal;font-size:medium;line-height:normal;font-family:sans-serif;font-variant-ligatures:normal;font-variant-position:normal;font-variant-caps:normal;font-variant-numeric:normal;font-variant-alternates:normal;font-feature-settings:normal;text-indent:0;text-align:start;text-decoration:none;text-decoration-line:none;text-decoration-style:solid;text-decoration-color:#000000;letter-spacing:normal;word-spacing:normal;text-transform:none;writing-mode:lr-tb;direction:ltr;text-orientation:mixed;dominant-baseline:auto;baseline-shift:baseline;text-anchor:start;white-space:normal;shape-padding:0;clip-rule:nonzero;display:inline;overflow:visible;visibility:visible;opacity:1;isolation:auto;mix-blend-mode:normal;color-interpolation:sRGB;color-interpolation-filters:linearRGB;solid-color:#000000;solid-opacity:1;vector-effect:none;fill:#fefd00;fill-opacity:1;fill-rule:nonzero;stroke:none;stroke-width:0.1;stroke-linecap:butt;stroke-linejoin:miter;stroke-miterlimit:4;stroke-dasharray:none;stroke-dashoffset:0;stroke-opacity:1;color-rendering:auto;image-rendering:auto;shape-rendering:auto;text-rendering:auto;enable-background:accumulate"
         d="m 114.50974,101.89544 -14.919375,9.6522 2.588225,3.99906 14.919,-9.65029 z"
         id="path2048"
         inkscape:connector-curvature="0" />
      <path
         style="fill:none;stroke:#000000;stroke-width:1;stroke-linecap:butt;stroke-linejoin:miter;stroke-miterlimit:4;stroke-dasharray:none;stroke-opacity:1"
         d="m 101.02726,102.89643 3.48476,5.33507 -4.921655,3.31614"
         id="path5052"
         inkscape:connector-curvature="0" />
      <path
         style="fill:none;stroke:#000000;stroke-width:1;stroke-linecap:butt;stroke-linejoin:miter;stroke-miterlimit:4;stroke-dasharray:none;stroke-opacity:1"
         d="m 114.74311,114.90653 -3.64614,-5.21171 6.00062,-3.79841"
         id="path5058"
         inkscape:connector-curvature="0" />
      <path
         style="fill:none;stroke:#000000;stroke-width:1;stroke-linecap:butt;stroke-linejoin:miter;stroke-miterlimit:4;stroke-dasharray:none;stroke-opacity:1"
         d="m 117.09759,105.89641 -2.58785,-4.00097"
         id="path5060"
         inkscape:connector-curvature="0" />
      <path
         style="fill:none;stroke:#000000;stroke-width:1;stroke-linecap:butt;stroke-linejoin:miter;stroke-miterlimit:4;stroke-dasharray:none;stroke-opacity:1"
         d="m 114.50974,101.89544 -5.99101,3.82751 -3.52545,-5.46622"
         id="path5062"
         inkscape:connector-curvature="0" />
      <path
         style="fill:none;stroke:#000000;stroke-width:1;stroke-linecap:butt;stroke-linejoin:miter;stroke-miterlimit:4;stroke-dasharray:none;stroke-opacity:1"
         d="m 104.99328,100.25673 -3.96602,2.6397"
         id="path5064"
         inkscape:connector-curvature="0" />
    </g>
  </g>
  <path
     style="fill:#fffd01;fill-opacity:1;fill-rule:evenodd;stroke:#000000;stroke-width:0.02611629;stroke-miterlimit:4;stroke-dasharray:none;stroke-dashoffset:0;stroke-opacity:1"
     d="m 47.37703,42.976722 c -3.51516,-3.705781 -6.43526,-6.78903 -6.48912,-6.851638 -0.0657,-0.07637 -2.40866,2.260029 -7.12067,7.100728 -3.86252,3.96803 -7.06618,7.20689 -7.11924,7.19749 -0.053,-0.009 -2.1267,-2.28289 -4.60808,-5.05218 -3.43407,-3.83254 -4.48864,-5.069703 -4.41546,-5.180044 0.0529,-0.07982 3.15193,-3.402908 6.88676,-7.384851 3.73483,-3.981935 6.8031,-7.255045 6.81839,-7.273574 0.0153,-0.01861 -3.04388,-3.435637 -6.79815,-7.593563 -3.75428,-4.157922 -6.86407,-7.624657 -6.91065,-7.703857 -0.0466,-0.07923 -0.0155,-0.213467 0.0692,-0.2983979 0.0847,-0.08491 1.89805,-1.985394 4.02969,-4.223258 l 3.87574,-4.068837 6.94407,7.776117 c 3.81926,4.2768549 6.99936,7.7874729 7.06692,7.8013279 0.0675,0.0139 3.62856,-3.537031 7.91333,-7.8909029 5.63456,-5.725426 7.81938,-7.881489 7.89493,-7.790963 0.0574,0.06889 1.86482,2.088687 4.01641,4.488542 2.9965,3.342293 3.88953,4.3979149 3.81621,4.5109899 -0.0527,0.08121 -3.53543,3.604512 -7.73947,7.829639 -4.20404,4.225117 -7.69263,7.752664 -7.75243,7.838985 -0.0885,0.12771 1.21818,1.538449 7.01845,7.577503 3.91996,4.081304 7.11388,7.438624 7.0976,7.460694 -0.12911,0.17504 -7.91081,8.35579 -7.99464,8.4046 -0.0597,0.0348 -2.98467,-2.96877 -6.49983,-6.67455 z"
     id="path14255"
     inkscape:connector-curvature="0" />
</svg>
