<?xml version="1.0" encoding="UTF-8" standalone="no"?>
<svg
   xmlns:dc="http://purl.org/dc/elements/1.1/"
   xmlns:cc="http://creativecommons.org/ns#"
   xmlns:rdf="http://www.w3.org/1999/02/22-rdf-syntax-ns#"
   xmlns:svg="http://www.w3.org/2000/svg"
   xmlns="http://www.w3.org/2000/svg"
   xmlns:sodipodi="http://sodipodi.sourceforge.net/DTD/sodipodi-0.dtd"
   xmlns:inkscape="http://www.inkscape.org/namespaces/inkscape"
   version="1.1"
   x="0px"
   y="0px"
   viewBox="0 0 66.000001 11.21226"
   enable-background="new 0 0 100 90"
   xml:space="preserve"
   id="svg11311"
   sodipodi:docname="telpylon.svg"
   width="66"
   height="11.21226"
   inkscape:version="0.92.4 (5da689c313, 2019-01-14)"><metadata
     id="metadata11317"><rdf:RDF><cc:Work
         rdf:about=""><dc:format>image/svg+xml</dc:format><dc:type
           rdf:resource="http://purl.org/dc/dcmitype/StillImage" /><dc:title></dc:title></cc:Work></rdf:RDF></metadata><defs
     id="defs11315" /><sodipodi:namedview
     pagecolor="#ffffff"
     bordercolor="#666666"
     borderopacity="1"
     objecttolerance="10"
     gridtolerance="10"
     guidetolerance="10"
     inkscape:pageopacity="0"
     inkscape:pageshadow="2"
     inkscape:window-width="4200"
     inkscape:window-height="2569"
     id="namedview11313"
     showgrid="false"
     inkscape:zoom="14.93085"
     inkscape:cx="39.75485"
     inkscape:cy="14.317081"
     inkscape:window-x="-16"
     inkscape:window-y="-16"
     inkscape:window-maximized="1"
     inkscape:current-layer="svg11311" /><path
     style="fill:#000000"
     d="m 30.5,10.868495 c -1.1,-0.432903 -2.813312,-1.7650177 -3.80736,-2.9602557 -1.489986,-1.791551 -1.586405,-2.466691 -0.549082,-3.844737 3.80559,-5.05559197 6.586005,-5.346062 10.891013,-1.137784 l 3.103528,3.033795 -2.319049,1.983068 C 34.108603,11.115463 32.629756,11.706657 30.5,10.868495 Z M 0,5.8919243 c 0,-0.572225 3.019672,-1 7.059017,-1 4.451367,0 6.830711,0.369407 6.440983,1 -0.339919,0.55 -3.5164763,1 -7.059017,1 -3.627322,0 -6.440983,-0.436837 -6.440983,-1 z m 51,0 c 0,-0.577778 3.166667,-1 7.5,-1 4.333333,0 7.5,0.422222 7.5,1 0,0.577778 -3.166667,1 -7.5,1 -4.333333,0 -7.5,-0.422222 -7.5,-1 z"
     id="path11899"
     inkscape:connector-curvature="0" /></svg>