<?xml version="1.0" encoding="UTF-8" standalone="no"?>
<svg
   xmlns:dc="http://purl.org/dc/elements/1.1/"
   xmlns:cc="http://creativecommons.org/ns#"
   xmlns:rdf="http://www.w3.org/1999/02/22-rdf-syntax-ns#"
   xmlns:svg="http://www.w3.org/2000/svg"
   xmlns="http://www.w3.org/2000/svg"
   xmlns:sodipodi="http://sodipodi.sourceforge.net/DTD/sodipodi-0.dtd"
   xmlns:inkscape="http://www.inkscape.org/namespaces/inkscape"
   version="1.1"
   x="0px"
   y="0px"
   viewBox="0 0 36.99947 351.95205"
   enable-background="new 0 0 100 90"
   xml:space="preserve"
   id="svg11311"
   sodipodi:docname="tidalstream_flood.svg"
   width="36.99947"
   height="351.95206"
   inkscape:version="0.92.4 (5da689c313, 2019-01-14)"><metadata
     id="metadata11317"><rdf:RDF><cc:Work
         rdf:about=""><dc:format>image/svg+xml</dc:format><dc:type
           rdf:resource="http://purl.org/dc/dcmitype/StillImage" /><dc:title></dc:title></cc:Work></rdf:RDF></metadata><defs
     id="defs11315" /><sodipodi:namedview
     pagecolor="#ffffff"
     bordercolor="#666666"
     borderopacity="1"
     objecttolerance="10"
     gridtolerance="10"
     guidetolerance="10"
     inkscape:pageopacity="0"
     inkscape:pageshadow="2"
     inkscape:window-width="4200"
     inkscape:window-height="2569"
     id="namedview11313"
     showgrid="false"
     inkscape:zoom="7.465425"
     inkscape:cx="-0.21134158"
     inkscape:cy="210.14368"
     inkscape:window-x="-16"
     inkscape:window-y="-16"
     inkscape:window-maximized="1"
     inkscape:current-layer="svg11311" /><path
     style="fill:#000000"
     d="m 35.116587,351.85096 c -0.733705,-0.17903 -5.22667,-4.44072 -9.984368,-9.4704 l -8.65036,-9.14487 0.270322,-163.61921 C 16.900858,79.625912 16.730731,5.9967905 16.374119,5.9962005 16.017509,5.9956105 12.588028,9.3649505 8.7530507,13.48362 1.8109547,20.93926 -0.00430235,22.20739 7.6513225e-6,19.5985 0.00280765,17.89726 16.787141,-0.00330954 18.376377,4.5898193e-7 19.78735,0.00300046 37.001957,18.44959 36.999468,19.95594 c -0.0035,2.09844 -1.550069,0.97965 -9.216873,-6.66742 L 20.023247,5.5491505 19.859406,120.02558 19.695565,234.502 l 8.460134,8.82802 c 4.653073,4.85542 8.459437,9.24921 8.458587,9.76399 -0.0042,2.56063 -3.423929,0.18959 -9.851241,-6.83031 l -7.106534,-7.76176 -0.02235,8.02206 -0.02235,8.02205 8.486018,8.46987 c 4.66731,4.65844 8.485072,9.04231 8.483916,9.74196 -0.0046,2.81031 -2.846404,0.90822 -9.692982,-6.48785 l -7.190863,-7.76799 -0.05859,7.43485 -0.05859,7.43484 8.485637,8.70033 c 4.667101,4.78518 8.484799,9.20828 8.483773,9.8291 -0.0044,2.66375 -2.960573,0.64133 -9.692746,-6.63116 l -7.190863,-7.76799 -0.05956,8.02199 -0.05956,8.02199 8.486018,8.46988 c 7.980702,7.96552 10.012336,11.01656 7.332793,11.01213 -0.631962,-0.001 -4.430122,-3.49482 -8.440356,-7.76396 l -7.291332,-7.76205 -0.06008,8.02199 -0.06008,8.02199 8.486019,8.46987 c 7.817704,7.80284 10.006678,11.01655 7.500938,11.01241 -0.539482,-8.9e-4 -4.34504,-3.49468 -8.456796,-7.76398 l -7.47592,-7.76236 -0.04258,7.37871 -0.04258,7.37871 8.485638,8.70033 c 7.964748,8.16626 10.249902,11.64837 7.147473,10.8913 z"
     id="path11912"
     inkscape:connector-curvature="0" /></svg>