<?xml version="1.0" encoding="UTF-8" standalone="no"?>
<svg
   xmlns:dc="http://purl.org/dc/elements/1.1/"
   xmlns:cc="http://creativecommons.org/ns#"
   xmlns:rdf="http://www.w3.org/1999/02/22-rdf-syntax-ns#"
   xmlns:svg="http://www.w3.org/2000/svg"
   xmlns="http://www.w3.org/2000/svg"
   xmlns:sodipodi="http://sodipodi.sourceforge.net/DTD/sodipodi-0.dtd"
   xmlns:inkscape="http://www.inkscape.org/namespaces/inkscape"
   version="1.1"
   x="0px"
   y="0px"
   viewBox="0 0 36.990769 335.04333"
   enable-background="new 0 0 100 90"
   xml:space="preserve"
   id="svg11311"
   sodipodi:docname="tidalstream_ebb.svg"
   width="36.990768"
   height="335.04333"
   inkscape:version="0.92.4 (5da689c313, 2019-01-14)"><metadata
     id="metadata11317"><rdf:RDF><cc:Work
         rdf:about=""><dc:format>image/svg+xml</dc:format><dc:type
           rdf:resource="http://purl.org/dc/dcmitype/StillImage" /><dc:title></dc:title></cc:Work></rdf:RDF></metadata><defs
     id="defs11315" /><sodipodi:namedview
     pagecolor="#ffffff"
     bordercolor="#666666"
     borderopacity="1"
     objecttolerance="10"
     gridtolerance="10"
     guidetolerance="10"
     inkscape:pageopacity="0"
     inkscape:pageshadow="2"
     inkscape:window-width="4200"
     inkscape:window-height="2569"
     id="namedview11313"
     showgrid="false"
     inkscape:zoom="7.465425"
     inkscape:cx="-2.4819725"
     inkscape:cy="227.12797"
     inkscape:window-x="-16"
     inkscape:window-y="-16"
     inkscape:window-maximized="1"
     inkscape:current-layer="svg11311" /><path
     style="fill:#000000"
     d="m 36.267293,21.060141 c -0.400327,-0.0014 -4.213522,-3.49124 -8.473765,-7.755303 L 20.047638,5.5520015 19.487261,170.90003 C 18.989532,317.76269 18.759656,336.10832 17.431111,334.9981 16.112667,333.89633 16.001183,314.31968 16.490729,169.87153 16.796194,79.739384 16.754352,5.9939225 16.397749,5.9927145 16.041131,5.9915145 12.605802,9.3548825 8.7636841,13.466886 1.8086479,20.910457 -0.00880964,22.175435 3.2057315e-5,19.56655 0.00580206,17.86532 16.821181,-0.00607545 18.41041,1.5494604e-6 19.046225,0.00240155 23.489545,4.2590485 28.284449,9.4591595 36.221662,18.067119 38.285927,21.066982 36.267298,21.060141 Z"
     id="path11925"
     inkscape:connector-curvature="0" /></svg>