<?xml version="1.0" encoding="UTF-8" standalone="no"?>
<svg
   xmlns:dc="http://purl.org/dc/elements/1.1/"
   xmlns:cc="http://creativecommons.org/ns#"
   xmlns:rdf="http://www.w3.org/1999/02/22-rdf-syntax-ns#"
   xmlns:svg="http://www.w3.org/2000/svg"
   xmlns="http://www.w3.org/2000/svg"
   xmlns:sodipodi="http://sodipodi.sourceforge.net/DTD/sodipodi-0.dtd"
   xmlns:inkscape="http://www.inkscape.org/namespaces/inkscape"
   version="1.0"
   width="320"
   height="320"
   id="svg2"
   sodipodi:docname="TowerBeacon_Red_color.svg"
   inkscape:version="0.92.4 (5da689c313, 2019-01-14)">
  <metadata
     id="metadata864">
    <rdf:RDF>
      <cc:Work
         rdf:about="">
        <dc:format>image/svg+xml</dc:format>
        <dc:type
           rdf:resource="http://purl.org/dc/dcmitype/StillImage" />
        <dc:title></dc:title>
      </cc:Work>
    </rdf:RDF>
  </metadata>
  <sodipodi:namedview
     pagecolor="#ffffff"
     bordercolor="#666666"
     borderopacity="1"
     objecttolerance="10"
     gridtolerance="10"
     guidetolerance="10"
     inkscape:pageopacity="0"
     inkscape:pageshadow="2"
     inkscape:window-width="4200"
     inkscape:window-height="2569"
     id="namedview862"
     showgrid="false"
     inkscape:zoom="6.3595192"
     inkscape:cx="135.59322"
     inkscape:cy="183.05085"
     inkscape:window-x="-16"
     inkscape:window-y="-16"
     inkscape:window-maximized="1"
     inkscape:current-layer="svg2" />
  <defs
     id="defs4" />
  <path
     d="M 126.625,76.34375 L 122,147.21875 L 113.84375,147.21875 L 113.84375,152.875 L 137.84375,152.875 C 139.13107,158.40795 144.07702,162.53124 150,162.53125 C 155.92495,162.53125 160.87095,158.41073 162.15625,152.875 L 186.15625,152.875 L 186.15625,147.21875 L 178,147.21875 L 173.03125,76.34375 L 126.625,76.34375 z M 150,142.53125 C 154.14,142.53125 157.5,145.89125 157.5,150.03125 C 157.5,154.17125 154.14,157.53125 150,157.53125 C 145.86,157.53125 142.5,154.17125 142.5,150.03125 C 142.5,145.89125 145.86,142.53125 150,142.53125 z"
     transform="translate(10,10)"
     id="path2558"
     style="fill:#fb0000;fill-opacity:1;fill-rule:evenodd;stroke:none" />
</svg>
