<?xml version="1.0" encoding="UTF-8" standalone="no"?>
<!-- Created with Inkscape (http://www.inkscape.org/) -->

<svg
   xmlns:dc="http://purl.org/dc/elements/1.1/"
   xmlns:cc="http://creativecommons.org/ns#"
   xmlns:rdf="http://www.w3.org/1999/02/22-rdf-syntax-ns#"
   xmlns:svg="http://www.w3.org/2000/svg"
   xmlns="http://www.w3.org/2000/svg"
   xmlns:sodipodi="http://sodipodi.sourceforge.net/DTD/sodipodi-0.dtd"
   xmlns:inkscape="http://www.inkscape.org/namespaces/inkscape"
   width="20.151342mm"
   height="89.050713mm"
   viewBox="0 0 20.151342 89.050713"
   version="1.1"
   id="svg8"
   inkscape:version="0.92.4 (5da689c313, 2019-01-14)"
   sodipodi:docname="tssarrow.svg">
  <defs
     id="defs2" />
  <sodipodi:namedview
     id="base"
     pagecolor="#ffffff"
     bordercolor="#666666"
     borderopacity="1.0"
     inkscape:pageopacity="0.0"
     inkscape:pageshadow="2"
     inkscape:zoom="3.7545455"
     inkscape:cx="-56.282477"
     inkscape:cy="207.29962"
     inkscape:document-units="mm"
     inkscape:current-layer="layer1"
     showgrid="false"
     inkscape:window-width="4200"
     inkscape:window-height="2569"
     inkscape:window-x="-16"
     inkscape:window-y="-16"
     inkscape:window-maximized="1" />
  <metadata
     id="metadata5">
    <rdf:RDF>
      <cc:Work
         rdf:about="">
        <dc:format>image/svg+xml</dc:format>
        <dc:type
           rdf:resource="http://purl.org/dc/dcmitype/StillImage" />
        <dc:title></dc:title>
      </cc:Work>
    </rdf:RDF>
  </metadata>
  <g
     inkscape:label="Calque 1"
     inkscape:groupmode="layer"
     id="layer1"
     transform="translate(475.72169,353.68185)">
    <path
       style="fill:#9f2e99;fill-opacity:1;stroke-width:0.26458335"
       d="m -467.54967,-264.76628 -2.38327,-0.11153 -0.0349,-7.93791 c -0.0192,-4.36585 -0.0308,-15.20166 -0.0258,-24.07957 0.005,-8.87791 -0.007,-21.41057 -0.0263,-27.85034 l -0.0354,-11.70866 -0.6809,0.0106 c -0.37448,0.006 -1.58465,0.15932 -2.68925,0.34113 -1.30088,0.21415 -2.1004,0.24139 -2.2696,0.0774 -0.16921,-0.16404 0.4725,-1.42138 1.82161,-3.56923 1.14556,-1.82378 2.15139,-3.47007 2.23517,-3.65841 0.18239,-0.40997 2.30204,-3.81725 2.61208,-4.19886 0.11975,-0.14739 0.29957,-0.44787 0.39957,-0.66773 0.10002,-0.21986 0.38393,-0.72189 0.63091,-1.11563 0.24699,-0.39373 0.95886,-1.57122 1.58193,-2.61665 0.67947,-1.14005 1.28499,-1.87179 1.51297,-1.82835 0.20906,0.0399 1.39475,1.96191 2.63487,4.2713 2.28977,4.26412 5.45864,10.11473 6.25374,11.54617 0.24045,0.43288 0.43931,0.87633 0.44189,0.98545 0.002,0.10911 -1.35323,0.21943 -3.01295,0.24515 l -3.01765,0.0468 -0.11136,2.44942 c -0.0612,1.34717 -0.0619,10.18864 -10e-4,19.64769 0.0605,9.45905 0.0608,21.0095 8.2e-4,25.66765 -0.06,4.65816 -0.0588,11.93885 0.003,16.17933 0.0981,6.78183 0.0617,7.73005 -0.30419,7.87701 -0.44265,0.17778 -1.70209,0.1773 -5.5353,-0.002 z m 4.0146,-5.43681 c -0.0331,-2.07341 -0.0108,-8.35506 0.0506,-13.95923 0.0615,-5.60418 0.0978,-19.29857 0.0807,-30.43199 -0.0171,-11.13342 0.0208,-21.04714 0.0841,-22.03051 l 0.11509,-1.78793 2.35015,-0.0364 c 1.29257,-0.02 2.34903,-0.10831 2.34767,-0.19612 -0.002,-0.13368 -1.6878,-3.30442 -5.67153,-10.66775 -0.37091,-0.68556 -0.74802,-1.24533 -0.83804,-1.24394 -0.09,10e-4 -0.71767,0.93397 -1.3948,2.07238 -1.81895,3.05815 -2.71895,4.52915 -4.04534,6.61191 -0.65526,1.02893 -1.45394,2.31604 -1.77487,2.86025 l -0.58348,0.98946 2.26045,-0.19475 2.26045,-0.19477 0.0763,4.60273 c 0.0422,2.5315 0.034,9.72369 -0.0174,15.98264 -0.13752,16.77416 -0.0463,50.92911 0.13679,51.21533 0.0871,0.13625 1.16334,0.23216 2.39153,0.21313 l 2.23308,-0.0346 z"
       id="path826"
       inkscape:connector-curvature="0" />
  </g>
</svg>
