<?xml version="1.0" encoding="UTF-8" standalone="no"?>
<svg
   xmlns:dc="http://purl.org/dc/elements/1.1/"
   xmlns:cc="http://creativecommons.org/ns#"
   xmlns:rdf="http://www.w3.org/1999/02/22-rdf-syntax-ns#"
   xmlns:svg="http://www.w3.org/2000/svg"
   xmlns="http://www.w3.org/2000/svg"
   xmlns:sodipodi="http://sodipodi.sourceforge.net/DTD/sodipodi-0.dtd"
   xmlns:inkscape="http://www.inkscape.org/namespaces/inkscape"
   version="1.1"
   x="0px"
   y="0px"
   viewBox="0 0 53.932102 56"
   xml:space="preserve"
   id="svg859"
   sodipodi:docname="vegt_palm.svg"
   width="53.932102"
   height="56"
   inkscape:version="0.92.4 (5da689c313, 2019-01-14)"><metadata
     id="metadata865"><rdf:RDF><cc:Work
         rdf:about=""><dc:format>image/svg+xml</dc:format><dc:type
           rdf:resource="http://purl.org/dc/dcmitype/StillImage" /><dc:title></dc:title></cc:Work></rdf:RDF></metadata><defs
     id="defs863" /><sodipodi:namedview
     pagecolor="#ffffff"
     bordercolor="#666666"
     borderopacity="1"
     objecttolerance="10"
     gridtolerance="10"
     guidetolerance="10"
     inkscape:pageopacity="0"
     inkscape:pageshadow="2"
     inkscape:window-width="4200"
     inkscape:window-height="2569"
     id="namedview861"
     showgrid="false"
     inkscape:zoom="17.936"
     inkscape:cx="31.329628"
     inkscape:cy="13.335669"
     inkscape:window-x="-16"
     inkscape:window-y="-16"
     inkscape:window-maximized="1"
     inkscape:current-layer="svg859" /><path
     style="fill:#000000"
     d="m 12.70588,55 c -0.368524,-0.596285 0.842621,-1 3,-1 2.157379,0 3.368524,0.403715 3,1 -0.339919,0.55 -1.689919,1 -3,1 -1.310081,0 -2.660081,-0.45 -3,-1 z m 35,0 c 1.1,-0.472686 3.125,-0.884167 4.5,-0.914402 1.970368,-0.04333 2.182221,0.150392 1,0.914402 -0.825,0.533156 -2.85,0.944637 -4.5,0.914402 -2.575717,-0.0472 -2.717145,-0.17652 -1,-0.914402 z M 26.416453,53.461963 c -0.943283,-1.069503 -3.627758,-1.466074 -10,-1.477276 C 11.625638,51.976267 7.03088,51.533156 6.20588,51 5.124283,50.301018 6.069512,50.026354 9.594586,50.015313 L 14.483291,50 13.956162,41.25 C 13.286995,30.142276 9.97064,20.566748 7.056708,21.328758 5.990377,21.60761 3.966391,21.238338 2.558962,20.508156 L 0,19.180551 2.19694,18.004785 4.393879,16.829018 2.125566,14.414509 c -2.693691,-2.867302 -2.20535,-2.995242 2.63053,-0.689172 3.426086,1.633787 3.669305,1.633786 4.583629,-2.2e-5 C 10.240479,12.115757 15.18816,9 16.843311,9 c 0.405213,0 -0.58494,1.409221 -2.20034,3.131602 -2.186818,2.331642 -2.579648,3.259707 -1.537808,3.633094 1.056246,0.378551 0.85351,0.91317 -0.82698,2.180766 l -2.226264,1.679274 2.037748,3.453725 C 14.412862,27.015983 16.747678,35.827109 17.699808,44.25 L 18.349793,50 h 4.928043 4.928044 l 0.05765,-10.25 c 0.05239,-9.314882 1.042511,-14.999227 4.424396,-25.400635 0.590851,-1.817237 0.218776,-2.256166 -2.400121,-2.831372 C 26.899206,10.773732 27.029739,9 30.473109,9 32.336145,9 32.034275,8.400846 28.205884,4.5 25.776855,2.025 24.181126,0 24.659818,0 26.29446,0 34.1261,5.035017 35.044744,6.676541 35.878175,8.165801 36.26704,8.126999 39.33358,6.248592 43.710034,3.567797 49.205884,2.872713 49.205884,5 c 0,0.55 -1.154584,1 -2.565741,1 -6.011504,0 -8.761795,4.284493 -3.434259,5.35 1.65,0.33 3,1.050112 3,1.600249 0,0.649901 -0.863253,0.672041 -2.464598,0.06321 -2.412821,-0.917353 -4.220119,0.06963 -3.187371,1.740649 0.256336,0.41476 -0.947192,0.75226 -2.674507,0.75 -2.772588,-0.0036 -3.2995,0.464576 -4.496932,3.995891 -2.213619,6.528119 -2.728266,23.280622 -0.852496,27.75 1.340278,3.193469 2.063751,3.772236 4.874877,3.899832 l 3.301027,0.149833 -3,0.436929 c -1.65,0.24031 -3.359861,1.072886 -3.79969,1.850167 -1.038056,1.834487 -5.832135,1.754606 -7.489737,-0.124797 z"
     id="path937"
     inkscape:connector-curvature="0" /></svg>