<?xml version="1.0" encoding="UTF-8" standalone="no"?>
<svg
   xmlns:dc="http://purl.org/dc/elements/1.1/"
   xmlns:cc="http://creativecommons.org/ns#"
   xmlns:rdf="http://www.w3.org/1999/02/22-rdf-syntax-ns#"
   xmlns:svg="http://www.w3.org/2000/svg"
   xmlns="http://www.w3.org/2000/svg"
   xmlns:sodipodi="http://sodipodi.sourceforge.net/DTD/sodipodi-0.dtd"
   xmlns:inkscape="http://www.inkscape.org/namespaces/inkscape"
   version="1.1"
   x="0px"
   y="0px"
   viewBox="0 0 29.638635 32.817596"
   xml:space="preserve"
   id="svg859"
   sodipodi:docname="vegt_filao.svg"
   width="29.638636"
   height="32.817596"
   inkscape:version="0.92.4 (5da689c313, 2019-01-14)"><metadata
     id="metadata865"><rdf:RDF><cc:Work
         rdf:about=""><dc:format>image/svg+xml</dc:format><dc:type
           rdf:resource="http://purl.org/dc/dcmitype/StillImage" /><dc:title></dc:title></cc:Work></rdf:RDF></metadata><defs
     id="defs863" /><sodipodi:namedview
     pagecolor="#ffffff"
     bordercolor="#666666"
     borderopacity="1"
     objecttolerance="10"
     gridtolerance="10"
     guidetolerance="10"
     inkscape:pageopacity="0"
     inkscape:pageshadow="2"
     inkscape:window-width="4200"
     inkscape:window-height="2569"
     id="namedview861"
     showgrid="false"
     inkscape:zoom="17.936"
     inkscape:cx="21.320141"
     inkscape:cy="36.533836"
     inkscape:window-x="-16"
     inkscape:window-y="-16"
     inkscape:window-maximized="1"
     inkscape:current-layer="svg859" /><path
     style="fill:#000000"
     d="m 5.4968549,32.238272 c -1.579452,-1.579451 -0.48151,-2.367127 3.299539,-2.367127 3.9847931,0 4.0000001,-0.01487 4.0000001,-3.910794 0,-3.614676 -0.323455,-4.067375 -4.2718451,-5.978758 -4.999552,-2.420242 -7.499183,-6.160769 -8.37190795,-12.5279932 -0.696932,-5.084673 1.15938895,-6.62667196 2.20598395,-1.832455 1.597949,7.3198392 5.052336,11.2500002 9.8881091,11.2500002 2.418318,0 2.147158,-7.6755862 -0.298583,-8.4518342 -1.9999991,-0.634775 -4.1999661,-4.602365 -4.0728101,-7.345219 0.06379,-1.37598736 0.184842,-1.41495236 0.630488,-0.20294696 1.9756521,5.37309196 7.8179971,6.68752596 11.1119051,2.49999996 2.276815,-2.89450236 3.17866,-3.15019136 3.17866,-0.90121 0,0.879335 -1.35,2.859879 -3,4.40121 -2.390232,2.232811 -3,3.6361062 -3,6.9040782 v 4.101658 l 3.25,-1.322357 c 3.933908,-1.600624 7.75,-6.9339262 7.75,-10.8312622 0,-1.568664 0.511166,-2.852117 1.135924,-2.852117 1.520371,0 0.411066,8.0415582 -1.662429,12.0512542 -0.923114,1.785107 -3.379613,3.900803 -6.016768,5.182032 -3.286112,1.596517 -4.456727,2.748079 -4.456727,4.384192 0,4.314122 1.03025,5.382522 5.190322,5.382522 2.735419,0 3.847022,0.390096 3.56195,1.25 -0.452942,1.36628 -18.7815361,2.387403 -20.0518111,1.117127 z"
     id="path976"
     inkscape:connector-curvature="0" /></svg>