<?xml version="1.0" encoding="UTF-8" standalone="no"?>
<svg
   xmlns:dc="http://purl.org/dc/elements/1.1/"
   xmlns:cc="http://creativecommons.org/ns#"
   xmlns:rdf="http://www.w3.org/1999/02/22-rdf-syntax-ns#"
   xmlns:svg="http://www.w3.org/2000/svg"
   xmlns="http://www.w3.org/2000/svg"
   xmlns:sodipodi="http://sodipodi.sourceforge.net/DTD/sodipodi-0.dtd"
   xmlns:inkscape="http://www.inkscape.org/namespaces/inkscape"
   version="1.1"
   x="0px"
   y="0px"
   viewBox="0 0 13.536249 15"
   xml:space="preserve"
   id="svg859"
   sodipodi:docname="vegt_mang.svg"
   width="13.536249"
   height="15"
   inkscape:version="0.92.4 (5da689c313, 2019-01-14)"><metadata
     id="metadata865"><rdf:RDF><cc:Work
         rdf:about=""><dc:format>image/svg+xml</dc:format><dc:type
           rdf:resource="http://purl.org/dc/dcmitype/StillImage" /><dc:title></dc:title></cc:Work></rdf:RDF></metadata><defs
     id="defs863" /><sodipodi:namedview
     pagecolor="#ffffff"
     bordercolor="#666666"
     borderopacity="1"
     objecttolerance="10"
     gridtolerance="10"
     guidetolerance="10"
     inkscape:pageopacity="0"
     inkscape:pageshadow="2"
     inkscape:window-width="4200"
     inkscape:window-height="2569"
     id="namedview861"
     showgrid="false"
     inkscape:zoom="17.936"
     inkscape:cx="5.5743017"
     inkscape:cy="7.6234365"
     inkscape:window-x="-16"
     inkscape:window-y="-16"
     inkscape:window-maximized="1"
     inkscape:current-layer="svg859" /><path
     style="fill:#000000"
     d="M 0.01959173,9.69628 C -0.24219227,3.440305 2.1266427,0 6.6960057,0 10.944782,0 13.121282,3.115516 13.344812,9.517328 L 13.536249,15 H 6.8888887 0.24152873 Z M 5.8120377,11 c 0,-1.1 0.45,-2 1,-2 0.55,0 1,0.9 1,2 0,2.788567 1.859204,2.500522 2.9857753,-0.462584 0.604577,-1.590158 0.561151,-3.538658 -0.122576,-5.5 C 9.8278867,2.606707 9.0437217,2 6.7493967,2 c -4.285955,0 -6.84005797,6.697301 -3.737359,9.8 1.762995,1.762995 2.8,1.466708 2.8,-0.8 z"
     id="path878"
     inkscape:connector-curvature="0" /></svg>