<?xml version="1.0" encoding="UTF-8" standalone="no"?>
<svg
   xmlns:dc="http://purl.org/dc/elements/1.1/"
   xmlns:cc="http://creativecommons.org/ns#"
   xmlns:rdf="http://www.w3.org/1999/02/22-rdf-syntax-ns#"
   xmlns:svg="http://www.w3.org/2000/svg"
   xmlns="http://www.w3.org/2000/svg"
   xmlns:sodipodi="http://sodipodi.sourceforge.net/DTD/sodipodi-0.dtd"
   xmlns:inkscape="http://www.inkscape.org/namespaces/inkscape"
   version="1.1"
   x="0px"
   y="0px"
   viewBox="0 0 32.449901 46.943969"
   xml:space="preserve"
   id="svg859"
   sodipodi:docname="vegt_eucal.svg"
   width="32.449902"
   height="46.94397"
   inkscape:version="0.92.4 (5da689c313, 2019-01-14)"><metadata
     id="metadata865"><rdf:RDF><cc:Work
         rdf:about=""><dc:format>image/svg+xml</dc:format><dc:type
           rdf:resource="http://purl.org/dc/dcmitype/StillImage" /><dc:title></dc:title></cc:Work></rdf:RDF></metadata><defs
     id="defs863" /><sodipodi:namedview
     pagecolor="#ffffff"
     bordercolor="#666666"
     borderopacity="1"
     objecttolerance="10"
     gridtolerance="10"
     guidetolerance="10"
     inkscape:pageopacity="0"
     inkscape:pageshadow="2"
     inkscape:window-width="4200"
     inkscape:window-height="2569"
     id="namedview861"
     showgrid="false"
     inkscape:zoom="17.936"
     inkscape:cx="-33.202176"
     inkscape:cy="53.512427"
     inkscape:window-x="-16"
     inkscape:window-y="-16"
     inkscape:window-maximized="1"
     inkscape:current-layer="svg859" /><path
     style="fill:#000000"
     d="m 4.6681388,45.443969 c 0,-1.111111 1.166667,-1.5 4.5,-1.5 h 4.5000002 l -0.0056,-8.25 c -0.0072,-10.679966 -1.2706,-15.034159 -5.2788552,-18.19338 -2.90543,-2.289997 -3.005447,-2.535511 -1.036997,-2.545531 1.198215,-0.0061 2.8402702,0.650609 3.6490122,1.459351 1.293919,1.293919 1.538249,1.200266 2.035301,-0.780149 0.310674,-1.237823 0.278082,-3.362021 -0.07243,-4.72044 -0.561528,-2.1762384 -0.44631,-2.3132994 0.969204,-1.1529484 1.342854,1.1007904 2.027741,1.0408894 4.173414,-0.36501 3.235367,-2.119894 3.255685,-1.221462 0.06692,2.9592204 -1.375,1.802718 -2.5,4.521476 -2.5,6.041686 0,2.894295 0.449531,2.952278 7.243708,0.934323 2.9045,-0.862673 0.970246,2.317528 -2.842932,4.674202 l -3.400745,2.101795 v 8.860943 8.860942 l 4.172279,0.307498 c 2.294754,0.169124 4.357254,0.869998 4.583334,1.557498 0.311465,0.947153 -2.153051,1.25 -10.17228,1.25 -8.7407402,0 -10.5833332,-0.261155 -10.5833332,-1.5 z m 24.7653242,-21.165198 0.532965,-6.639627 -6.149144,0.557585 c -6.323491,0.573394 -7.281874,0.02283 -4.610455,-2.648593 1.469395,-1.469395 2.96487,-1.473841 10.167509,-0.03023 2.819955,0.565197 3.957644,5.884572 2.319909,10.846959 -1.920851,5.820234 -2.828221,4.982977 -2.260784,-2.086091 z M 1.3405258,22.294632 c -2.784758,-9.792479 -1.34581895,-13.3506634 5.399042,-13.3506634 4.8562982,0 5.1519552,1.5479104 0.46365,2.4274414 -3.952306,0.741457 -5.032508,1.929119 -3.975006,4.370446 0.890891,2.056692 0.578051,6.378256 -0.546748,7.552776 -0.448058,0.467865 -1.05148,0.01787 -1.340938,-1 z M 27.203176,10.103493 C 26.425666,6.5635125 23.511803,4.4900825 20.442453,5.2927355 19.263237,5.6011075 17.261542,4.9639015 15.637414,3.7631316 12.996386,1.8105348 12.686637,1.788257 9.5985378,3.3288037 5.5836228,5.3317065 4.3369458,4.4456695 7.5289228,1.8578889 10.358855,-0.43637669 15.929479,-0.65098889 17.686877,1.4665465 c 0.694995,0.8374179 2.040659,1.2759579 2.990363,0.9745334 4.604548,-1.46142659 10.392356,5.1762067 8.094238,9.2827171 -0.680292,1.215613 -1.023255,0.861277 -1.568302,-1.620304 z"
     id="path989"
     inkscape:connector-curvature="0" /></svg>