<?xml version="1.0" encoding="UTF-8" standalone="no"?>
<svg
   xmlns:dc="http://purl.org/dc/elements/1.1/"
   xmlns:cc="http://creativecommons.org/ns#"
   xmlns:rdf="http://www.w3.org/1999/02/22-rdf-syntax-ns#"
   xmlns:svg="http://www.w3.org/2000/svg"
   xmlns="http://www.w3.org/2000/svg"
   xmlns:sodipodi="http://sodipodi.sourceforge.net/DTD/sodipodi-0.dtd"
   xmlns:inkscape="http://www.inkscape.org/namespaces/inkscape"
   version="1.1"
   x="0px"
   y="0px"
   viewBox="0 0 28.620729 40.650467"
   xml:space="preserve"
   id="svg859"
   sodipodi:docname="vegt_caduc.svg"
   width="28.620729"
   height="40.650467"
   inkscape:version="0.92.4 (5da689c313, 2019-01-14)"><metadata
     id="metadata865"><rdf:RDF><cc:Work
         rdf:about=""><dc:format>image/svg+xml</dc:format><dc:type
           rdf:resource="http://purl.org/dc/dcmitype/StillImage" /><dc:title></dc:title></cc:Work></rdf:RDF></metadata><defs
     id="defs863" /><sodipodi:namedview
     pagecolor="#ffffff"
     bordercolor="#666666"
     borderopacity="1"
     objecttolerance="10"
     gridtolerance="10"
     guidetolerance="10"
     inkscape:pageopacity="0"
     inkscape:pageshadow="2"
     inkscape:window-width="4200"
     inkscape:window-height="2569"
     id="namedview861"
     showgrid="false"
     inkscape:zoom="17.936"
     inkscape:cx="7.1938246"
     inkscape:cy="19.094892"
     inkscape:window-x="-16"
     inkscape:window-y="-16"
     inkscape:window-maximized="1"
     inkscape:current-layer="svg859" /><path
     style="fill:#000000"
     d="m 3.7720649,39.650467 c 0,-0.55 1.8,-1 4,-1 h 4.0000001 v -7 c 0,-5.457814 0.320402,-7 1.45431,-7 1.099574,0 1.526435,1.646464 1.75,6.75 l 0.29569,6.75 4.25,0.307498 c 8.309398,0.601205 4.136103,2.192502 -5.75,2.192502 -6.0000001,0 -10.0000001,-0.4 -10.0000001,-1 z m 14.0000001,-15 c -1.215464,-0.785493 -1.077569,-0.972279 0.726947,-0.984687 2.435745,-0.01675 4.354106,-2.501844 6.352912,-8.229732 1.313399,-3.763748 1.22276,-4.237236 -2.064677,-10.7855813 -0.555563,-1.106643 -2.557516,-1.513603 -7.63411,-1.551872 -9.6804791,-0.07297 -10.9353701,0.897341 -11.7763511,9.1057883 -0.771614,7.531403 0.653985,10.446084 5.109284,10.446084 1.348042,0 2.1325531,0.439257 1.7859951,1 -1.1501931,1.861051 -5.5767671,1.014142 -8.1502451,-1.559336 -2.09238004,-2.09238 -2.43741014,-3.141479 -1.89107204,-5.75 0.367546,-1.754865 0.762073,-4.540664 0.87672704,-6.190664 0.450891,-6.4888383 3.868125,-9.95490828 9.1895131,-9.32084228 1.086292,0.129437 3.664563,-0.133376 5.72949,-0.584028 4.389665,-0.958006 8.196934,0.94934798 9.238405,4.62822898 0.354478,1.252152 1.368123,3.696773 2.252544,5.4324903 1.484917,2.914217 1.479659,3.35178 -0.06866,5.714817 -0.922187,1.407432 -1.676702,3.442657 -1.676702,4.522722 0,3.98662 -4.562002,6.328417 -8,4.106612 z"
     id="path891"
     inkscape:connector-curvature="0" /></svg>