<?xml version="1.0" encoding="UTF-8" standalone="no"?>
<svg
   xmlns:dc="http://purl.org/dc/elements/1.1/"
   xmlns:cc="http://creativecommons.org/ns#"
   xmlns:rdf="http://www.w3.org/1999/02/22-rdf-syntax-ns#"
   xmlns:svg="http://www.w3.org/2000/svg"
   xmlns="http://www.w3.org/2000/svg"
   xmlns:sodipodi="http://sodipodi.sourceforge.net/DTD/sodipodi-0.dtd"
   xmlns:inkscape="http://www.inkscape.org/namespaces/inkscape"
   version="1.1"
   x="0px"
   y="0px"
   viewBox="0 0 28.620729 40.650467"
   xml:space="preserve"
   id="svg859"
   sodipodi:docname="vegt_persistc.svg"
   width="28.620729"
   height="40.650467"
   inkscape:version="0.92.4 (5da689c313, 2019-01-14)"><metadata
     id="metadata865"><rdf:RDF><cc:Work
         rdf:about=""><dc:format>image/svg+xml</dc:format><dc:type
           rdf:resource="http://purl.org/dc/dcmitype/StillImage" /><dc:title></dc:title></cc:Work></rdf:RDF></metadata><defs
     id="defs863" /><sodipodi:namedview
     pagecolor="#ffffff"
     bordercolor="#666666"
     borderopacity="1"
     objecttolerance="10"
     gridtolerance="10"
     guidetolerance="10"
     inkscape:pageopacity="0"
     inkscape:pageshadow="2"
     inkscape:window-width="4200"
     inkscape:window-height="2569"
     id="namedview861"
     showgrid="false"
     inkscape:zoom="17.936"
     inkscape:cx="7.1938246"
     inkscape:cy="19.094892"
     inkscape:window-x="-16"
     inkscape:window-y="-16"
     inkscape:window-maximized="1"
     inkscape:current-layer="svg859" /><path
     style="fill:#000000"
     d="m 3.7720649,39.650467 c 0,-0.55 1.8,-1 4,-1 h 4.0000001 v -7 c 0,-5.457814 0.320402,-7 1.45431,-7 1.099574,0 1.526435,1.646464 1.75,6.75 l 0.29569,6.75 4.25,0.307498 c 8.309398,0.601205 4.136103,2.192502 -5.75,2.192502 -6.0000001,0 -10.0000001,-0.4 -10.0000001,-1 z m 14.0000001,-15 c -1.215464,-0.785493 -1.077569,-0.972279 0.726947,-0.984687 2.435745,-0.01675 4.354106,-2.501844 6.352912,-8.229732 1.313399,-3.763748 1.22276,-4.237236 -2.064677,-10.7855813 -0.555563,-1.106643 -2.557516,-1.513603 -7.63411,-1.551872 -9.6804791,-0.07297 -10.9353701,0.897341 -11.7763511,9.1057883 -0.771614,7.531403 0.653985,10.446084 5.109284,10.446084 1.348042,0 2.1325531,0.439257 1.7859951,1 -1.1501931,1.861051 -5.5767671,1.014142 -8.1502451,-1.559336 -2.09238004,-2.09238 -2.43741014,-3.141479 -1.89107204,-5.75 0.367546,-1.754865 0.762073,-4.540664 0.87672704,-6.190664 0.450891,-6.4888383 3.868125,-9.95490828 9.1895131,-9.32084228 1.086292,0.129437 3.664563,-0.133376 5.72949,-0.584028 4.389665,-0.958006 8.196934,0.94934798 9.238405,4.62822898 0.354478,1.252152 1.368123,3.696773 2.252544,5.4324903 1.484917,2.914217 1.479659,3.35178 -0.06866,5.714817 -0.922187,1.407432 -1.676702,3.442657 -1.676702,4.522722 0,3.98662 -4.562002,6.328417 -8,4.106612 z"
     id="path891"
     inkscape:connector-curvature="0" /><path
     sodipodi:type="spiral"
     style="fill:none;fill-rule:evenodd;stroke:#000000"
     id="path893"
     sodipodi:cx="5.3523641"
     sodipodi:cy="12.327541"
     sodipodi:expansion="1"
     sodipodi:revolution="3"
     sodipodi:radius="1.0475186"
     sodipodi:argument="-18.409714"
     sodipodi:t0="0"
     d="m 5.3523641,12.327541 c 0.047522,0.02236 -0.0067,0.07509 -0.037169,0.07898 -0.082571,0.01055 -0.1301186,-0.08296 -0.1207999,-0.153323 0.016669,-0.125861 0.1546745,-0.189585 0.2694765,-0.162615 0.1684767,0.03958 0.2503365,0.227188 0.2044308,0.38563 -0.061185,0.211178 -0.2999645,0.311607 -0.501784,0.246246 -0.2539694,-0.08225 -0.3731407,-0.372859 -0.2880615,-0.617938 0.1030422,-0.296822 0.4458202,-0.434825 0.7340914,-0.329877 0.3397176,0.123678 0.4966044,0.518823 0.3716923,0.850246 -0.144216,0.382641 -0.5918513,0.558446 -0.9663989,0.413507 -0.4255847,-0.164689 -0.6203333,-0.664899 -0.455323,-1.082552 0.1851165,-0.468544 0.7379623,-0.682252 1.1987062,-0.497139 0.5115131,0.205511 0.7441948,0.811036 0.5389539,1.31486" /><path
     sodipodi:type="spiral"
     style="fill:none;fill-rule:evenodd;stroke:#000000"
     id="path895"
     sodipodi:cx="7.8055305"
     sodipodi:cy="18.404705"
     sodipodi:expansion="1"
     sodipodi:revolution="3"
     sodipodi:radius="1.0051157"
     sodipodi:argument="-18.261553"
     sodipodi:t0="0"
     d="m 7.8055305,18.404705 c 0.041931,0.02795 -0.016994,0.07031 -0.046461,0.06969 -0.079855,-0.0017 -0.1117328,-0.09716 -0.092923,-0.162615 0.033647,-0.117082 0.173641,-0.158009 0.278769,-0.116154 0.1542797,0.06142 0.2053915,0.251063 0.1393843,0.394923 -0.087977,0.191743 -0.328806,0.25323 -0.5110765,0.162615 -0.2293688,-0.114029 -0.3013004,-0.4067 -0.1858456,-0.62723 0.1398311,-0.267092 0.4846774,-0.349505 0.7433839,-0.209076 0.3048767,0.16549 0.3977937,0.562707 0.2323071,0.859537 C 8.1720073,19.1191 7.7222958,19.222536 7.3873768,19.031935 7.0068205,18.815362 6.8928544,18.313073 7.1086084,17.94009 c 0.2420434,-0.418431 0.7969693,-0.542935 1.2079989,-0.301999 0.4563208,0.267484 0.5913689,0.87509 0.3252298,1.324152" /><path
     sodipodi:type="spiral"
     style="fill:none;fill-rule:evenodd;stroke:#000000"
     id="path897"
     sodipodi:cx="13.715433"
     sodipodi:cy="18.683474"
     sodipodi:expansion="1"
     sodipodi:revolution="3"
     sodipodi:radius="1.4719423"
     sodipodi:argument="-17.929836"
     sodipodi:t0="0"
     d="m 13.715433,18.683474 c 0.04473,0.0587 -0.05707,0.08925 -0.09757,0.07434 -0.109764,-0.04042 -0.108369,-0.187819 -0.05111,-0.269477 0.102427,-0.146067 0.315784,-0.135968 0.441385,-0.02788 0.184323,0.158629 0.16465,0.445581 0.0046,0.613292 -0.213261,0.223532 -0.576041,0.193811 -0.7852,-0.01858 -0.263204,-0.267279 -0.223221,-0.70682 0.04182,-0.957107 0.320994,-0.303131 0.837779,-0.252777 1.129014,0.06505 0.343211,0.374543 0.282424,0.96885 -0.08828,1.300922 -0.427988,0.383389 -1.099997,0.312131 -1.472829,-0.111508 -0.423636,-0.481366 -0.341882,-1.231196 0.134738,-1.644737 0.534696,-0.46393 1.362434,-0.371663 1.816645,0.157969 0.504259,0.587993 0.401468,1.493701 -0.1812,1.988552" /><path
     sodipodi:type="spiral"
     style="fill:none;fill-rule:evenodd;stroke:#000000"
     id="path899"
     sodipodi:cx="9.4223909"
     sodipodi:cy="8.1460066"
     sodipodi:expansion="1"
     sodipodi:revolution="3"
     sodipodi:radius="1.0370804"
     sodipodi:argument="-17.911509"
     sodipodi:t0="0"
     d="m 9.4223909,8.1460066 c 0.03075,0.041931 -0.041351,0.062137 -0.069692,0.051108 -0.076801,-0.029889 -0.073915,-0.1337076 -0.032523,-0.1904921 0.07404,-0.101574 0.224209,-0.091705 0.311292,-0.013938 C 9.7592655,8.1068091 9.741702,8.3086982 9.6268215,8.4247755 9.4737039,8.5794883 9.2185283,8.553867 9.0739298,8.4015448 8.8919673,8.2098629 8.925809,7.9007451 9.115745,7.7278532 9.345783,7.518458 9.7091802,7.5606031 9.9102365,7.788253 10.147174,8.0565307 10.096679,8.4744041 9.8312521,8.7035444 9.5248063,8.968096 9.0523316,8.9092212 8.7951609,8.6059754 8.5029472,8.2614083 8.5702205,7.7342477 8.9113145,7.4490843 9.2939704,7.1291741 9.8758769,7.204859 10.189005,7.5838225 c 0.347633,0.4207213 0.263527,1.0574177 -0.153322,1.3984908" /><path
     sodipodi:type="spiral"
     style="fill:none;fill-rule:evenodd;stroke:#000000"
     id="path901"
     sodipodi:cx="12.934879"
     sodipodi:cy="11.881511"
     sodipodi:expansion="1"
     sodipodi:revolution="3"
     sodipodi:radius="1.2640259"
     sodipodi:argument="-18.00174"
     sodipodi:t0="0"
     d="m 12.934879,11.881511 c 0.04193,0.04752 -0.04337,0.07997 -0.07898,0.06969 -0.09651,-0.02785 -0.104408,-0.154186 -0.0604,-0.227661 0.07872,-0.13143 0.262089,-0.135943 0.376338,-0.05111 0.167664,0.124498 0.168517,0.371495 0.04181,0.525015 -0.168873,0.204618 -0.481438,0.201542 -0.673691,0.03252 -0.241931,-0.212693 -0.234801,-0.591639 -0.02323,-0.822368 0.256239,-0.279444 0.701986,-0.268196 0.971045,-0.01394 0.317076,0.299632 0.301675,0.812423 0.0046,1.119722 -0.342932,0.354788 -0.922922,0.335212 -1.268399,-0.0046 -0.392553,-0.386167 -0.368789,-1.033462 0.01394,-1.417075 0.429361,-0.430357 1.144034,-0.402394 1.565753,0.02323 0.468188,0.472522 0.43602,1.254628 -0.03252,1.714429" /><path
     sodipodi:type="spiral"
     style="fill:none;fill-rule:evenodd;stroke:#000000"
     id="path903"
     sodipodi:cx="18.231489"
     sodipodi:cy="7.2539458"
     sodipodi:expansion="1"
     sodipodi:revolution="3"
     sodipodi:radius="0.88154483"
     sodipodi:argument="-17.884304"
     sodipodi:t0="0"
     d="m 18.231489,7.2539458 c 0.02516,0.03634 -0.03657,0.051842 -0.0604,0.041815 -0.06457,-0.027173 -0.05971,-0.115322 -0.02323,-0.1626153 0.06526,-0.084597 0.192633,-0.072739 0.26483,-0.00465 0.105953,0.099929 0.08636,0.2710699 -0.01394,0.3670458 -0.133683,0.1279209 -0.349917,0.1002501 -0.469262,-0.032523 -0.150183,-0.1670816 -0.11428,-0.4289599 0.05111,-0.5714764 0.200308,-0.1726065 0.508116,-0.128393 0.673692,0.069692 0.195126,0.2334369 0.142557,0.587341 -0.08828,0.7759069 -0.266507,0.2177069 -0.666613,0.1567559 -0.878122,-0.1068616 -0.240331,-0.2995389 -0.170979,-0.7459177 0.125446,-0.9803375 0.332544,-0.2629835 0.825246,-0.1852186 1.082553,0.1440309 0.285659,0.3655294 0.199471,0.9045927 -0.162616,1.184768" /><path
     sodipodi:type="spiral"
     style="fill:none;fill-rule:evenodd;stroke:#000000"
     id="path905"
     sodipodi:cx="20.573149"
     sodipodi:cy="10.487666"
     sodipodi:expansion="1"
     sodipodi:revolution="3"
     sodipodi:radius="1.380399"
     sodipodi:argument="-18.035595"
     sodipodi:t0="0"
     d="m 20.573149,10.487666 c 0.04752,0.05032 -0.04438,0.08888 -0.08363,0.07898 -0.106364,-0.02683 -0.119654,-0.164426 -0.07434,-0.246246 0.08106,-0.146357 0.281029,-0.158061 0.408861,-0.06969 0.187597,0.129685 0.197659,0.399235 0.06505,0.571477 -0.176751,0.22957 -0.518011,0.237767 -0.734091,0.0604 -0.271916,-0.223198 -0.278142,-0.637059 -0.05576,-0.8967066 0.26934,-0.3144677 0.756262,-0.3186685 1.059322,-0.051108 0.357146,0.3153101 0.359292,0.8755601 0.04646,1.2219371 -0.361174,0.399906 -0.994923,0.39998 -1.384553,0.04182 -0.442723,-0.406968 -0.440712,-1.11433 -0.03717,-1.5471681 0.452713,-0.4855793 1.233769,-0.4814778 1.709783,-0.032524 0.528465,0.4984235 0.522267,1.3532335 0.02788,1.8723985" /><path
     sodipodi:type="spiral"
     style="fill:none;fill-rule:evenodd;stroke:#000000"
     id="path907"
     sodipodi:cx="20.907671"
     sodipodi:cy="14.780707"
     sodipodi:expansion="1"
     sodipodi:revolution="3"
     sodipodi:radius="0.52892691"
     sodipodi:argument="-17.60051"
     sodipodi:t0="0"
     d="m 20.907671,14.780707 c 0.0084,0.02516 -0.02978,0.02372 -0.04181,0.01394 -0.03263,-0.0265 -0.01502,-0.07646 0.01394,-0.09757 0.0518,-0.03776 0.123177,-0.0095 0.153323,0.04181 0.04424,0.07536 0.0042,0.170645 -0.06969,0.209077 -0.09849,0.05122 -0.218394,-0.001 -0.264831,-0.09757 -0.05844,-0.121469 0.0062,-0.26628 0.125446,-0.320584 0.144375,-0.06577 0.314245,0.01141 0.376338,0.153323 0.07317,0.167241 -0.01656,0.362258 -0.1812,0.432092 -0.190083,0.08063 -0.410304,-0.0217 -0.487845,-0.209077 -0.08811,-0.21291 0.02683,-0.458373 0.236954,-0.543599 0.235726,-0.09561 0.506458,0.03195 0.599353,0.264831 0.10313,0.258535 -0.03708,0.554556 -0.292708,0.655107" /><path
     sodipodi:type="spiral"
     style="fill:none;fill-rule:evenodd;stroke:#000000"
     id="path909"
     sodipodi:cx="18.677521"
     sodipodi:cy="18.404705"
     sodipodi:expansion="1"
     sodipodi:revolution="3"
     sodipodi:radius="0.97529304"
     sodipodi:argument="-18.309137"
     sodipodi:t0="0"
     d="m 18.677521,18.404705 c 0.04193,0.02516 -0.01323,0.06893 -0.04182,0.06969 -0.07748,0.0021 -0.112779,-0.08901 -0.09757,-0.153323 0.02721,-0.115032 0.161005,-0.161161 0.264831,-0.125446 0.152367,0.05241 0.210659,0.233858 0.153323,0.376338 -0.07642,0.189904 -0.307001,0.260614 -0.487846,0.1812 -0.227574,-0.09993 -0.310801,-0.380279 -0.209077,-0.599353 0.123201,-0.265327 0.453633,-0.361121 0.710861,-0.236954 0.303134,0.146327 0.411525,0.527033 0.264831,0.822368 -0.169365,0.340976 -0.600465,0.461986 -0.933876,0.292709 -0.378843,-0.192345 -0.512485,-0.673919 -0.320585,-1.045384 0.215283,-0.416727 0.747388,-0.563013 1.156891,-0.348462 0.454626,0.238193 0.613563,0.82087 0.376339,1.268398" /></svg>