<?xml version="1.0" encoding="UTF-8" standalone="no"?>
<svg
   xmlns:dc="http://purl.org/dc/elements/1.1/"
   xmlns:cc="http://creativecommons.org/ns#"
   xmlns:rdf="http://www.w3.org/1999/02/22-rdf-syntax-ns#"
   xmlns:svg="http://www.w3.org/2000/svg"
   xmlns="http://www.w3.org/2000/svg"
   xmlns:sodipodi="http://sodipodi.sourceforge.net/DTD/sodipodi-0.dtd"
   xmlns:inkscape="http://www.inkscape.org/namespaces/inkscape"
   version="1.1"
   x="0px"
   y="0px"
   viewBox="0 0 42.421512 45.293952"
   xml:space="preserve"
   id="svg859"
   sodipodi:docname="vegt_casua.svg"
   width="42.421513"
   height="45.293953"
   inkscape:version="0.92.4 (5da689c313, 2019-01-14)"><metadata
     id="metadata865"><rdf:RDF><cc:Work
         rdf:about=""><dc:format>image/svg+xml</dc:format><dc:type
           rdf:resource="http://purl.org/dc/dcmitype/StillImage" /><dc:title></dc:title></cc:Work></rdf:RDF></metadata><defs
     id="defs863" /><sodipodi:namedview
     pagecolor="#ffffff"
     bordercolor="#666666"
     borderopacity="1"
     objecttolerance="10"
     gridtolerance="10"
     guidetolerance="10"
     inkscape:pageopacity="0"
     inkscape:pageshadow="2"
     inkscape:window-width="4200"
     inkscape:window-height="2569"
     id="namedview861"
     showgrid="false"
     inkscape:zoom="17.936"
     inkscape:cx="-34.57215"
     inkscape:cy="39.775607"
     inkscape:window-x="-16"
     inkscape:window-y="-16"
     inkscape:window-maximized="1"
     inkscape:current-layer="svg859" /><path
     style="fill:#000000"
     d="m 10.792736,44.697534 c -2.7284369,-1.100948 -1.0090229,-2.337719 3.25,-2.337719 h 4.5 v -8.80887 c 0,-9.530154 -1.319585,-13.049944 -4.443116,-11.851332 -0.952783,0.365617 -2.241513,2.013733 -2.863846,3.66248 -0.622332,1.648747 -1.4828559,2.997722 -1.9122759,2.997722 -1.445417,0 -0.796209,-5.32545 0.8742259,-7.171259 1.542695,-1.70466 1.532179,-1.964443 -0.154988,-3.828741 -2.3811099,-2.631097 -3.7237789,-2.524027 -7.4273019,0.592282 -2.467331,2.076123 -2.950129,2.225458 -2.424726,0.75 0.940377,-2.640805 3.446513,-5.342282 4.955989,-5.342282 1.022915,0 0.983026,-0.744232 -0.190418,-3.5526792 -0.931455,-2.229283 -1.244108,-4.833567 -0.839324,-6.99125 0.78126,-4.1644748 2.110561,-3.65325899 3.013318,1.158846 0.36575,1.949619 1.28318,3.781978 2.038732,4.07191 0.755552,0.289933 1.3737309,1.176353 1.3737309,1.9698222 0,2.720261 2.81643,6.844065 5.907604,8.649887 l 3.092396,1.806536 v -3.088655 c 0,-1.69876 -0.652038,-4.649201 -1.448973,-6.556536 -1.439788,-3.4458972 -0.949382,-4.4662362 1.141614,-2.3752402 0.790187,0.790187 1.681258,0.777622 3.219076,-0.04539 2.04464,-1.094259 2.101552,-0.982424 1.479551,2.9073592 -0.355786,2.224963 -0.273294,4.04539 0.183317,4.04539 0.45661,0 2.365883,-1.4625 4.242829,-3.25 2.996021,-2.8532462 3.329322,-2.9753242 2.73022,-1 -0.538752,1.776341 -0.287429,2.25 1.193849,2.25 1.031942,0 2.749766,-0.660688 3.817387,-1.468197 1.067622,-0.807508 3.06613,-1.468196 4.44113,-1.468196 2.37067,0 2.403214,0.0733 0.629078,1.416859 -1.498576,1.13488 -1.733589,2.148904 -1.180869,5.095155 l 0.690052,3.678296 -2.703989,-2.126959 c -1.487194,-1.169827 -3.745341,-2.126958 -5.018104,-2.126958 -2.252505,0 -2.275538,0.09233 -0.865141,3.467881 2.018459,4.830852 1.837616,7.913079 -0.2194,3.739378 -2.241875,-4.548782 -4.9409,-5.870837 -7.414814,-3.631976 -1.655534,1.498238 -1.916813,3.155469 -1.916813,12.157908 v 10.423216 l 3.724995,-0.328203 c 2.90936,-0.25634 3.801265,0.05498 4.073324,1.421796 0.31266,1.5708 -0.60638,1.741916 -8.974995,1.671053 -5.127828,-0.04342 -9.885824,-0.305921 -10.573324,-0.583334 z"
     id="path963"
     inkscape:connector-curvature="0" /></svg>