<?xml version="1.0" encoding="UTF-8" standalone="no"?>
<svg
   xmlns:dc="http://purl.org/dc/elements/1.1/"
   xmlns:cc="http://creativecommons.org/ns#"
   xmlns:rdf="http://www.w3.org/1999/02/22-rdf-syntax-ns#"
   xmlns:svg="http://www.w3.org/2000/svg"
   xmlns="http://www.w3.org/2000/svg"
   xmlns:sodipodi="http://sodipodi.sourceforge.net/DTD/sodipodi-0.dtd"
   xmlns:inkscape="http://www.inkscape.org/namespaces/inkscape"
   version="1.1"
   x="0px"
   y="0px"
   viewBox="0 0 27.321537 43.225067"
   xml:space="preserve"
   id="svg859"
   sodipodi:docname="vegt_conif.svg"
   width="27.321537"
   height="43.225067"
   inkscape:version="0.92.4 (5da689c313, 2019-01-14)"><metadata
     id="metadata865"><rdf:RDF><cc:Work
         rdf:about=""><dc:format>image/svg+xml</dc:format><dc:type
           rdf:resource="http://purl.org/dc/dcmitype/StillImage" /><dc:title></dc:title></cc:Work></rdf:RDF></metadata><defs
     id="defs863" /><sodipodi:namedview
     pagecolor="#ffffff"
     bordercolor="#666666"
     borderopacity="1"
     objecttolerance="10"
     gridtolerance="10"
     guidetolerance="10"
     inkscape:pageopacity="0"
     inkscape:pageshadow="2"
     inkscape:window-width="4200"
     inkscape:window-height="2569"
     id="namedview861"
     showgrid="false"
     inkscape:zoom="17.936"
     inkscape:cx="-12.442265"
     inkscape:cy="42.596598"
     inkscape:window-x="-16"
     inkscape:window-y="-16"
     inkscape:window-maximized="1"
     inkscape:current-layer="svg859" /><path
     style="fill:#000000"
     d="m 3.5491835,42.738102 c -1.364948,-1.364948 0.497199,-2.394314 4.33137,-2.394314 3.5370495,0 3.9409835,-0.25624 3.9409835,-2.5 0,-2.767159 -0.809676,-2.933349 -7.7500005,-1.590723 -5.194035,1.004801 -5.42316,0.177319 -0.661021,-2.387262 3.540706,-1.906796 7.4110215,-5.929169 7.4110215,-7.702187 0,-0.509901 -1.6498065,-0.602383 -3.7500005,-0.210211 l -3.75,0.700244 3.75,-4.157812 c 4.6012225,-5.101603 4.9864885,-7.676757 1,-6.6841 l -2.75,0.684766 2.637656,-2.826358 C 11.420466,9.9612481 12.571682,6.3437881 10.290723,6.3437881 c -1.4736745,0 -1.4284885,-0.374475 0.392165,-3.25 1.131765,-1.7875 2.364795,-3.17792001 2.740066,-3.08982201 0.375272,0.0881 1.562664,1.55059701 2.638649,3.25000001 1.697804,2.681497 1.745132,3.089822 0.358135,3.089822 -0.87901,0 -1.598201,0.254584 -1.598201,0.565741 0,1.137205 2.304293,4.9954299 4.374963,7.3252829 l 2.125037,2.391024 -2.75,-0.660076 c -1.5125,-0.363042 -2.75,-0.288928 -2.75,0.164696 0,1.210853 4.24074,6.752632 7.058361,9.223832 l 2.441639,2.141444 -2.5,-0.583788 c -1.375,-0.321084 -3.617232,-0.880341 -4.982737,-1.242794 -2.423528,-0.643288 -2.444924,-0.601367 -0.897172,1.757817 0.872061,1.329251 3.564293,3.948658 5.982737,5.820903 l 4.397172,3.404082 -6.25,-0.63875 c -6.125434,-0.626019 -6.25,-0.590375 -6.25,1.78842 0,2.140593 0.5018,2.463477 4.25,2.734668 2.3375,0.169124 4.139788,0.757498 4.005085,1.307498 -0.273908,1.118379 -18.4700305,1.951722 -19.5274385,0.894314 z"
     id="path922"
     inkscape:connector-curvature="0" /></svg>