<?xml version="1.0" encoding="UTF-8" standalone="no"?>
<svg
   xmlns:dc="http://purl.org/dc/elements/1.1/"
   xmlns:cc="http://creativecommons.org/ns#"
   xmlns:rdf="http://www.w3.org/1999/02/22-rdf-syntax-ns#"
   xmlns:svg="http://www.w3.org/2000/svg"
   xmlns="http://www.w3.org/2000/svg"
   xmlns:sodipodi="http://sodipodi.sourceforge.net/DTD/sodipodi-0.dtd"
   xmlns:inkscape="http://www.inkscape.org/namespaces/inkscape"
   version="1.1"
   x="0px"
   y="0px"
   viewBox="0 0 100 67.954651"
   xml:space="preserve"
   id="svg859"
   sodipodi:docname="vegt_bush.svg"
   width="100"
   height="67.954651"
   inkscape:version="0.92.4 (5da689c313, 2019-01-14)"><metadata
     id="metadata865"><rdf:RDF><cc:Work
         rdf:about=""><dc:format>image/svg+xml</dc:format><dc:type
           rdf:resource="http://purl.org/dc/dcmitype/StillImage" /><dc:title></dc:title></cc:Work></rdf:RDF></metadata><defs
     id="defs863" /><sodipodi:namedview
     pagecolor="#ffffff"
     bordercolor="#666666"
     borderopacity="1"
     objecttolerance="10"
     gridtolerance="10"
     guidetolerance="10"
     inkscape:pageopacity="0"
     inkscape:pageshadow="2"
     inkscape:window-width="4200"
     inkscape:window-height="2569"
     id="namedview861"
     showgrid="false"
     inkscape:zoom="17.936"
     inkscape:cx="50"
     inkscape:cy="21.317013"
     inkscape:window-x="-16"
     inkscape:window-y="-16"
     inkscape:window-maximized="1"
     inkscape:current-layer="svg859" /><g
     id="g853"
     transform="translate(0,-16.02265)"><path
       d="M 93.31882,83.9773 H 1.69293 c -0.68313,0 -1.26769,-0.49057 -1.3869,-1.16339 C 0.10316,81.66428 0,80.4814 0,79.29853 0,75.19629 1.25738,71.23273 3.47412,68.27554 2.51361,65.97741 2.00928,63.40879 2.00928,60.78858 c 0,-8.83489 5.70119,-16.0227 12.70904,-16.0227 0.82755,0 1.64594,0.09972 2.44828,0.29572 1.33532,-7.12935 6.42673,-12.31131 12.36747,-12.31131 3.18757,0 6.17915,1.45911 8.48759,4.07702 2.27635,-4.71889 6.33618,-7.64857 10.84876,-7.64857 5.46163,0 10.28139,4.43464 12.01903,10.79833 1.44535,-0.69574 2.99043,-1.0568 4.55384,-1.0568 3.18643,0 6.21812,1.48777 8.53802,4.13892 2.32105,-2.65115 5.35275,-4.13892 8.53917,-4.13892 7.00671,0 12.70789,7.18781 12.70789,16.0227 0,0.86309 -0.05502,1.72617 -0.16276,2.57436 C 98.16723,60.53871 100,65.21749 100,70.20574 c 0,5.46163 -2.16517,10.49 -5.78944,13.45292 -0.25217,0.20631 -0.56737,0.31864 -0.89174,0.31864 z M 2.91593,81.15995 h 89.88251 c 2.75432,-2.47234 4.38421,-6.5253 4.38421,-10.95421 0,-4.48621 -1.69637,-8.63201 -4.54009,-11.09175 -0.37137,-0.32094 -0.54903,-0.81266 -0.46764,-1.2975 0.15703,-0.93759 0.23611,-1.90384 0.23611,-2.87352 0,-7.2818 -4.43693,-13.20534 -9.89054,-13.20534 -2.79901,0 -5.48569,1.60926 -7.37005,4.41744 -0.26133,0.38971 -0.70033,0.62353 -1.16912,0.62353 v 0 c -0.46994,0 -0.90778,-0.23382 -1.16912,-0.62468 -1.8832,-2.80704 -4.56874,-4.4163 -7.3689,-4.4163 -1.63218,0 -3.25291,0.54903 -4.68795,1.58863 -0.39658,0.2877 -0.91237,0.3473 -1.36398,0.16162 -0.4516,-0.18683 -0.77483,-0.59373 -0.85277,-1.07628 -0.97885,-6.03587 -5.04441,-10.41549 -9.66817,-10.41549 -3.99564,0 -7.57866,3.19216 -9.13061,8.13227 -0.16505,0.52725 -0.62353,0.90779 -1.17142,0.97541 -0.54559,0.07107 -1.08545,-0.19141 -1.37314,-0.66135 -1.8981,-3.09817 -4.69024,-4.87478 -7.66118,-4.87478 -4.95616,0 -9.17417,4.9447 -9.8103,11.50324 -0.04356,0.44816 -0.29916,0.84933 -0.68772,1.07743 -0.38971,0.23038 -0.86423,0.25904 -1.27686,0.07679 -0.97885,-0.42638 -2.00126,-0.64187 -3.04086,-0.64187 -5.45475,0 -9.89168,5.92355 -9.89168,13.20534 0,2.5159 0.53642,4.96647 1.5531,7.08579 0.2407,0.50089 0.16276,1.09806 -0.19715,1.521 -2.1388,2.51361 -3.36524,6.12414 -3.36524,9.90315 -2e-5,0.62354 0.03322,1.24592 0.09856,1.86143 z"
       id="path841"
       inkscape:connector-curvature="0" /><path
       d="m 92.991,50.84991 c -0.01605,0 -0.03324,-0.0012 -0.05044,-0.0012 -0.59602,-0.02178 -1.1141,-0.41607 -1.29291,-0.98458 -1.55195,-4.93667 -5.13496,-8.12654 -9.12717,-8.12654 -2.79901,0 -5.48569,1.60926 -7.37005,4.41744 -0.26133,0.38971 -0.70033,0.62353 -1.16912,0.62353 v 0 c -0.46994,0 -0.90778,-0.23382 -1.16912,-0.62468 -1.8832,-2.80704 -4.56874,-4.4163 -7.3689,-4.4163 -1.63218,0 -3.25291,0.54903 -4.68795,1.58863 -0.39658,0.2877 -0.91237,0.3473 -1.36398,0.16162 -0.4516,-0.18683 -0.77483,-0.59373 -0.85277,-1.07628 -0.97885,-6.03587 -5.04441,-10.41549 -9.66817,-10.41549 -1.00521,0 -1.99782,0.20288 -2.94917,0.60404 -0.52267,0.21778 -1.12901,0.10545 -1.53361,-0.29457 -0.40575,-0.39773 -0.53184,-1.00063 -0.32094,-1.52788 2.41389,-6.02441 8.16666,-9.91805 14.65757,-9.91805 0.68428,0 1.36971,0.0447 2.04711,0.13296 2.98126,-3.16809 7.12706,-4.96991 11.49751,-4.96991 8.33057,0 15.2364,6.56542 15.75334,14.79282 4.5676,2.88269 7.37348,7.93054 7.37348,13.35893 0,1.99553 -0.36793,3.94178 -1.09461,5.78371 -0.21204,0.53872 -0.73356,0.89175 -1.3101,0.89175 z M 82.52048,38.92028 c 4.0117,0 7.66692,2.31647 10.02808,6.14935 0.01949,-0.29686 0.0298,-0.59488 0.0298,-0.89518 0,-4.67992 -2.53768,-9.01599 -6.62387,-11.31411 -0.439,-0.24643 -0.71179,-0.70835 -0.71867,-1.21038 -0.08482,-7.06402 -5.90177,-12.8099 -12.96693,-12.8099 -3.80996,0 -7.4136,1.66657 -9.88481,4.57333 -0.32552,0.38283 -0.82412,0.56049 -1.325,0.47338 -0.7668,-0.13984 -1.55195,-0.20975 -2.3348,-0.20975 -4.32231,0 -8.24574,2.09983 -10.63327,5.53155 0.25904,-0.01949 0.51808,-0.0298 0.77942,-0.0298 5.46163,0 10.28139,4.43464 12.01903,10.79833 1.44535,-0.69574 2.99043,-1.0568 4.55384,-1.0568 3.18643,0 6.21812,1.48777 8.53802,4.13892 2.32105,-2.65117 5.35274,-4.13894 8.53916,-4.13894 z"
       id="path843"
       inkscape:connector-curvature="0" /><path
       d="m 16.61757,75.32008 c -0.74503,0 -1.36741,-0.58456 -1.40524,-1.33762 -0.18225,-3.60708 0.64302,-6.38203 2.45286,-8.24803 1.85569,-1.91186 4.72921,-2.86893 8.51739,-2.76692 0.77712,0.0149 1.39492,0.65792 1.37888,1.43619 -0.0149,0.76795 -0.64187,1.38002 -1.40753,1.38002 -0.0092,0 -0.01834,0 -0.02866,-0.0011 -2.98928,-0.04585 -5.14872,0.58341 -6.43819,1.913 -1.24362,1.28259 -1.80297,3.35033 -1.66199,6.14476 0.03897,0.77712 -0.5582,1.43848 -1.33532,1.47745 -0.02406,0.0011 -0.04813,0.0023 -0.0722,0.0023 z"
       id="path845"
       inkscape:connector-curvature="0" /><path
       d="m 81.89123,64.74411 c -0.02407,0 -0.04814,-0.0011 -0.07221,-0.0023 -0.77712,-0.03897 -1.37429,-0.70033 -1.33532,-1.47745 0.14098,-2.79443 -0.41837,-4.86217 -1.66313,-6.14476 -1.28947,-1.32959 -3.46381,-1.95427 -6.43819,-1.913 -0.01031,0.0011 -0.01949,0.0011 -0.02866,0.0011 -0.76566,0 -1.39262,-0.61207 -1.40753,-1.38002 -0.01604,-0.77827 0.60176,-1.42129 1.37888,-1.43619 3.78474,-0.09857 6.66056,0.85392 8.5174,2.76692 1.80984,1.86601 2.63625,4.64095 2.45401,8.24804 -0.03784,0.7519 -0.66023,1.33761 -1.40525,1.33761 z"
       id="path847"
       inkscape:connector-curvature="0" /><path
       d="m 51.2144,65.16591 c -0.02407,0 -0.04814,-0.0011 -0.07221,-0.0023 -0.77712,-0.03897 -1.37429,-0.70033 -1.33532,-1.47745 0.07565,-1.50496 -0.20402,-2.59614 -0.83214,-3.24374 -0.65562,-0.67397 -1.80068,-1.00063 -3.42255,-0.96854 -0.01031,0.0011 -0.01949,0.0011 -0.02866,0.0011 -0.76566,0 -1.39263,-0.61207 -1.40753,-1.38002 -0.01604,-0.77827 0.60176,-1.42128 1.37888,-1.43619 2.43797,-0.0745 4.27876,0.56279 5.5006,1.82246 1.19548,1.23101 1.74107,3.03054 1.62416,5.34701 -0.03782,0.75306 -0.66021,1.33762 -1.40523,1.33762 z"
       id="path849"
       inkscape:connector-curvature="0" /><path
       d="m 77.74657,31.3955 c -0.62582,0 -1.19663,-0.41951 -1.36168,-1.05336 -0.35532,-1.36627 -0.91008,-2.26145 -1.64823,-2.66032 -0.77025,-0.41492 -1.89008,-0.38054 -3.32742,0.1043 -0.73701,0.24987 -1.5359,-0.14671 -1.78463,-0.88372 -0.24873,-0.73701 0.14671,-1.5359 0.88372,-1.78463 2.21101,-0.74503 4.0839,-0.71637 5.56708,0.08597 1.45338,0.78514 2.47464,2.2752 3.03513,4.42776 0.196,0.75305 -0.2556,1.52215 -1.00751,1.71815 -0.11919,0.03094 -0.2384,0.04585 -0.35646,0.04585 z"
       id="path851"
       inkscape:connector-curvature="0" /></g></svg>