<?xml version="1.0" encoding="UTF-8" standalone="no"?>
<!-- Created with Inkscape (http://www.inkscape.org/) -->

<svg
   xmlns:dc="http://purl.org/dc/elements/1.1/"
   xmlns:cc="http://creativecommons.org/ns#"
   xmlns:rdf="http://www.w3.org/1999/02/22-rdf-syntax-ns#"
   xmlns:svg="http://www.w3.org/2000/svg"
   xmlns="http://www.w3.org/2000/svg"
   xmlns:sodipodi="http://sodipodi.sourceforge.net/DTD/sodipodi-0.dtd"
   xmlns:inkscape="http://www.inkscape.org/namespaces/inkscape"
   width="25.262545mm"
   height="21.39772mm"
   viewBox="0 0 25.262544 21.39772"
   version="1.1"
   id="svg8"
   inkscape:version="0.92.4 (5da689c313, 2019-01-14)"
   sodipodi:docname="vegt_30.svg">
  <defs
     id="defs2" />
  <sodipodi:namedview
     id="base"
     pagecolor="#ffffff"
     bordercolor="#666666"
     borderopacity="1.0"
     inkscape:pageopacity="0.0"
     inkscape:pageshadow="2"
     inkscape:zoom="11.71194"
     inkscape:cx="148.35003"
     inkscape:cy="44.118119"
     inkscape:document-units="mm"
     inkscape:current-layer="layer1"
     showgrid="false"
     inkscape:window-width="4200"
     inkscape:window-height="2569"
     inkscape:window-x="-16"
     inkscape:window-y="-16"
     inkscape:window-maximized="1" />
  <metadata
     id="metadata5">
    <rdf:RDF>
      <cc:Work
         rdf:about="">
        <dc:format>image/svg+xml</dc:format>
        <dc:type
           rdf:resource="http://purl.org/dc/dcmitype/StillImage" />
        <dc:title></dc:title>
      </cc:Work>
    </rdf:RDF>
  </metadata>
  <g
     inkscape:label="Calque 1"
     inkscape:groupmode="layer"
     id="layer1"
     transform="translate(1047.5298,414.62658)">
    <path
       style="fill:#000000;stroke-width:0.26458332"
       d="m -1040.5128,-394.48563 c -0.7857,-2.15728 -1.5321,-4.13515 -1.8722,-4.96094 -0.1798,-0.43656 -0.4836,-1.24023 -0.6751,-1.78593 -0.1916,-0.54571 -0.4317,-0.99219 -0.5337,-0.99219 -0.1021,0 -0.8818,1.90272 -1.7328,4.22827 -0.8636,2.35997 -1.6934,4.23051 -1.878,4.23334 -0.1819,0.003 -0.3282,-0.0842 -0.3252,-0.19338 0,-0.10914 0.8239,-2.4011 1.8241,-5.09323 1.6102,-4.33448 1.8897,-4.90315 2.4417,-4.96777 0.547,-0.064 0.6937,0.13065 1.1963,1.5875 0.3151,0.91326 0.8289,2.31532 1.1418,3.11569 0.3128,0.80036 0.7236,1.93145 0.9127,2.51354 0.8223,2.53014 0.7651,2.48552 3.2947,2.56994 1.9196,0.0641 2.2878,0.14805 2.3626,0.53891 0.08,0.41815 -0.192,0.46302 -2.8054,0.46302 h -2.8938 z m 13.3235,-14.54215 c -0.015,-0.40565 -0.01,-1.12096 0.02,-1.58958 0.1427,-2.6189 -3.0475,-4.21774 -4.9495,-2.48057 -1.1383,1.03971 -1.3355,1.91355 -0.8341,3.69642 0.056,0.20009 -0.04,0.41615 -0.2136,0.48013 -0.1882,0.0693 -0.4349,-0.32532 -0.6102,-0.97634 -0.3869,-1.43691 0,-2.62675 1.2117,-3.68701 1.4745,-1.29459 2.5323,-1.36895 4.2641,-0.29974 1.186,0.73223 1.7126,1.65588 1.7335,3.04061 l 0.018,1.19079 2.1411,0.0762 c 1.9393,0.069 2.141,0.12604 2.141,0.60533 0,0.48555 -0.2017,0.53544 -2.4474,0.60525 l -2.4474,0.0761 z"
       id="path885"
       inkscape:connector-curvature="0" />
  </g>
</svg>
