<?xml version="1.0" encoding="UTF-8" standalone="no"?>
<svg
   xmlns:dc="http://purl.org/dc/elements/1.1/"
   xmlns:cc="http://creativecommons.org/ns#"
   xmlns:rdf="http://www.w3.org/1999/02/22-rdf-syntax-ns#"
   xmlns:svg="http://www.w3.org/2000/svg"
   xmlns="http://www.w3.org/2000/svg"
   xmlns:sodipodi="http://sodipodi.sourceforge.net/DTD/sodipodi-0.dtd"
   xmlns:inkscape="http://www.inkscape.org/namespaces/inkscape"
   version="1.1"
   x="0px"
   y="0px"
   viewBox="0 0 38.486843 34.820686"
   xml:space="preserve"
   id="svg859"
   sodipodi:docname="vegt_nipa.svg"
   width="38.486843"
   height="34.820686"
   inkscape:version="0.92.4 (5da689c313, 2019-01-14)"><metadata
     id="metadata865"><rdf:RDF><cc:Work
         rdf:about=""><dc:format>image/svg+xml</dc:format><dc:type
           rdf:resource="http://purl.org/dc/dcmitype/StillImage" /><dc:title></dc:title></cc:Work></rdf:RDF></metadata><defs
     id="defs863" /><sodipodi:namedview
     pagecolor="#ffffff"
     bordercolor="#666666"
     borderopacity="1"
     objecttolerance="10"
     gridtolerance="10"
     guidetolerance="10"
     inkscape:pageopacity="0"
     inkscape:pageshadow="2"
     inkscape:window-width="4200"
     inkscape:window-height="2569"
     id="namedview861"
     showgrid="false"
     inkscape:zoom="17.936"
     inkscape:cx="9.7807424"
     inkscape:cy="20.519434"
     inkscape:window-x="-16"
     inkscape:window-y="-16"
     inkscape:window-maximized="1"
     inkscape:current-layer="svg859" /><path
     style="fill:#000000"
     d="m 9.0701673,33.570686 c 0.22608,-0.6875 2.3439967,-1.391082 4.7064827,-1.563515 l 4.29543,-0.313516 -0.548459,-4.089066 c -0.340947,-2.541952 -1.532875,-5.07181 -3.150299,-6.686485 -2.254879,-2.251046 -3.398333,-2.582677 -8.5746907,-2.486878 -6.74937498,0.124912 -7.679708,-0.892122 -2.407672,-2.632051 4.68213,-1.545242 9.5510927,-0.548077 12.4640697,2.552645 l 2.349111,2.500515 1.668846,-4.396409 c 0.917866,-2.418025 2.928152,-6.047444 4.467304,-8.0653757 3.234496,-4.240643 10.613352,-8.90280399 13.207623,-8.34493499 1.299841,0.279516 0.668966,0.96107399 -2.346342,2.53484099 -2.268315,1.183892 -5.193315,3.423453 -6.5,4.976802 -2.740415,3.2577257 -6.447574,11.0249777 -5.645042,11.8275097 0.29903,0.299031 2.056942,-0.378875 3.906471,-1.506457 3.963673,-2.416489 7.724815,-2.629212 10.42165,-0.589428 1.804851,1.36512 1.639268,1.470429 -2.35853,1.5 -5.448543,0.0403 -9.742047,2.244882 -11.683413,5.99907 -2.590408,5.009296 -2.035559,6.868175 2.155773,7.222368 2.019986,0.170701 3.857486,0.872865 4.083334,1.560365 0.311272,0.94754 -2.170363,1.25 -10.256034,1.25 -8.085895,0 -10.5672127,-0.302434 -10.2556127,-1.25 z"
     id="path950"
     inkscape:connector-curvature="0" /></svg>