<svg xmlns="http://www.w3.org/2000/svg" xmlns:xlink="http://www.w3.org/1999/xlink" version="1.1" x="0px" y="0px" viewBox="0 0 100 125" enable-background="new 0 0 100 100" xml:space="preserve"><path fill="#000000" d="M50.482,52.633c1.495,0,2.705-1.211,2.705-2.706V25.458c0-1.495-1.21-2.707-2.705-2.707  c-1.494,0-2.706,1.211-2.706,2.707v24.469C47.776,51.422,48.988,52.633,50.482,52.633z"/><path fill="#000000" d="M4.268,64.034c1.337,0,1.896,0.493,2.912,1.387c1.272,1.12,3.014,2.652,6.267,2.652  c3.25,0,4.99-1.532,6.261-2.652c1.015-0.894,1.573-1.387,2.906-1.387c1.338,0,1.898,0.493,2.914,1.388  c1.271,1.119,3.011,2.651,6.26,2.651c3.253,0,4.996-1.532,6.268-2.651c1.016-0.895,1.576-1.388,2.915-1.388  c1.337,0,1.897,0.493,2.915,1.388c1.272,1.119,3.014,2.651,6.266,2.651c3.25,0,4.993-1.532,6.265-2.651  c1.017-0.895,1.577-1.388,2.914-1.388c1.136,0,1.724,0.372,2.489,1.024c0.317,0.556,0.817,0.983,1.428,1.203  c1.184,0.919,2.779,1.812,5.259,1.812c3.252,0,4.994-1.532,6.266-2.651c1.018-0.895,1.576-1.388,2.916-1.388  c1.341,0,1.9,0.493,2.917,1.388c1.272,1.119,3.015,2.651,6.268,2.651c3.256,0,5-1.531,6.273-2.651  c1.019-0.895,1.579-1.388,2.922-1.388c1.4,0,2.537-1.135,2.537-2.536s-1.137-2.538-2.537-2.538c-3.255,0-4.999,1.531-6.271,2.65  c-1.02,0.895-1.582,1.389-2.924,1.389c-1.339,0-1.899-0.492-2.917-1.388c-0.834-0.733-1.881-1.636-3.409-2.177V8.913h5.142  c1.495,0,2.706-1.211,2.706-2.707c0-1.495-1.211-2.706-2.706-2.706H14.647c-1.495,0-2.707,1.211-2.707,2.706  c0,1.495,1.212,2.707,2.707,2.707h5.772v50.312c-1.905,0.488-3.118,1.554-4.066,2.389c-1.015,0.894-1.573,1.386-2.906,1.386  c-1.338,0-1.898-0.492-2.915-1.388c-1.271-1.118-3.013-2.651-6.265-2.651c-1.401,0-2.537,1.137-2.537,2.538  S2.866,64.034,4.268,64.034z M34.098,8.913v30.308c0,1.494,1.211,2.706,2.707,2.706s2.707-1.211,2.707-2.706V8.913h8.266v7.333  c0,1.495,1.212,2.707,2.706,2.707c1.495,0,2.705-1.211,2.705-2.707V8.913h8.268v13.577c0,1.495,1.211,2.707,2.705,2.707  c1.496,0,2.706-1.211,2.706-2.707V8.913h8.267v50.426c-1.697,0.522-2.825,1.493-3.714,2.272c-1.016,0.896-1.576,1.388-2.914,1.388  c-0.7,0-1.187-0.144-1.639-0.403V35.52c0-1.495-1.21-2.706-2.706-2.706c-1.494,0-2.705,1.211-2.705,2.706v23.689  c-0.63-0.154-1.331-0.249-2.126-0.249c-3.252,0-4.995,1.533-6.267,2.653c-1.016,0.894-1.575,1.386-2.912,1.386  c-1.338,0-1.898-0.492-2.914-1.388c-1.272-1.118-3.014-2.651-6.266-2.651c-0.53,0-1.006,0.054-1.459,0.126V51.23  c0-1.495-1.211-2.707-2.707-2.707s-2.707,1.211-2.707,2.707v10.268c0,0.198,0.024,0.39,0.064,0.576  c-0.714,0.592-1.296,0.925-2.375,0.925c-1.333,0-1.892-0.492-2.906-1.386c-0.767-0.676-1.712-1.496-3.049-2.045V8.913H34.098z"/><path fill="#000000" d="M96.066,72.173c-3.255,0-4.999,1.533-6.271,2.651c-1.02,0.896-1.582,1.39-2.924,1.39  c-1.338,0-1.899-0.493-2.916-1.388c-1.272-1.12-3.015-2.653-6.269-2.653c-3.253,0-4.996,1.533-6.268,2.653  c-1.016,0.895-1.576,1.388-2.914,1.388c-1.333,0-1.892-0.493-2.907-1.387c-1.271-1.12-3.012-2.654-6.269-2.654  c-3.252,0-4.995,1.533-6.267,2.653c-1.016,0.895-1.575,1.388-2.912,1.388c-1.338,0-1.898-0.493-2.914-1.388  c-1.272-1.12-3.015-2.653-6.267-2.653c-3.252,0-4.994,1.533-6.266,2.653c-1.018,0.895-1.578,1.388-2.917,1.388  c-1.333,0-1.892-0.493-2.906-1.387c-1.272-1.12-3.014-2.654-6.268-2.654c-3.25,0-4.991,1.534-6.261,2.654  c-1.015,0.894-1.574,1.387-2.906,1.387c-1.338,0-1.898-0.493-2.914-1.388c-1.272-1.12-3.014-2.653-6.265-2.653  c-1.401,0-2.537,1.137-2.537,2.537c0,1.401,1.136,2.538,2.537,2.538c1.336,0,1.896,0.491,2.912,1.387  c1.272,1.12,3.014,2.653,6.267,2.653c3.25,0,4.991-1.535,6.261-2.655c1.015-0.894,1.573-1.385,2.906-1.385  c1.338,0,1.898,0.491,2.914,1.387c1.271,1.12,3.011,2.653,6.26,2.653c3.253,0,4.996-1.533,6.269-2.653  c1.016-0.896,1.576-1.387,2.914-1.387c1.337,0,1.897,0.491,2.914,1.387c1.271,1.12,3.015,2.653,6.267,2.653  c3.253,0,4.993-1.533,6.265-2.653c1.017-0.896,1.577-1.387,2.914-1.387c1.339,0,1.899,0.493,2.916,1.389  c1.271,1.118,3.011,2.651,6.26,2.651c3.252,0,4.995-1.533,6.267-2.653c1.017-0.896,1.575-1.387,2.915-1.387  c1.339,0,1.9,0.491,2.916,1.387c1.273,1.12,3.015,2.653,6.269,2.653c3.256,0,5-1.533,6.273-2.651  c1.019-0.896,1.581-1.389,2.922-1.389c1.4,0,2.537-1.137,2.537-2.538C98.604,73.31,97.467,72.173,96.066,72.173z"/><path fill="#000000" d="M96.066,85.388c-3.255,0-4.999,1.53-6.271,2.648c-1.02,0.896-1.582,1.39-2.924,1.39  c-1.339,0-1.899-0.492-2.917-1.388c-1.271-1.117-3.015-2.65-6.268-2.65s-4.995,1.533-6.268,2.65  c-1.016,0.896-1.576,1.388-2.914,1.388c-1.333,0-1.893-0.492-2.907-1.386c-1.271-1.119-3.015-2.652-6.269-2.652  c-3.252,0-4.995,1.533-6.267,2.652c-1.016,0.894-1.575,1.386-2.912,1.386c-1.338,0-1.898-0.492-2.914-1.388  c-1.272-1.117-3.014-2.65-6.266-2.65c-3.252,0-4.994,1.533-6.266,2.65c-1.017,0.896-1.578,1.388-2.917,1.388  c-1.333,0-1.892-0.492-2.906-1.386c-1.272-1.119-3.014-2.652-6.268-2.652c-3.25,0-4.99,1.533-6.261,2.652  c-1.015,0.894-1.573,1.386-2.906,1.386c-1.338,0-1.898-0.492-2.915-1.388c-1.271-1.117-3.013-2.65-6.265-2.65  c-1.401,0-2.537,1.136-2.537,2.536c0,1.401,1.136,2.538,2.537,2.538c1.337,0,1.896,0.491,2.912,1.386  c1.272,1.119,3.014,2.652,6.267,2.652c3.25,0,4.99-1.533,6.261-2.652c1.015-0.895,1.573-1.386,2.906-1.386  c1.338,0,1.898,0.491,2.914,1.387c1.271,1.118,3.011,2.651,6.26,2.651c3.253,0,4.996-1.533,6.268-2.651  c1.016-0.896,1.576-1.387,2.915-1.387c1.337,0,1.897,0.491,2.915,1.387c1.272,1.118,3.014,2.651,6.266,2.651  c3.25,0,4.993-1.533,6.265-2.651c1.017-0.896,1.577-1.387,2.914-1.387c1.339,0,1.899,0.491,2.916,1.387  c1.271,1.118,3.011,2.651,6.26,2.651c3.252,0,4.994-1.533,6.266-2.651c1.018-0.896,1.576-1.387,2.916-1.387  c1.341,0,1.9,0.491,2.917,1.387c1.272,1.118,3.015,2.651,6.268,2.651c3.256,0,5-1.531,6.273-2.651  c1.019-0.896,1.579-1.387,2.922-1.387c1.4,0,2.537-1.137,2.537-2.538C98.604,86.523,97.467,85.388,96.066,85.388z"/><text x="0" y="115" fill="#000000" font-size="5px" font-weight="bold" font-family="'Helvetica Neue', Helvetica, Arial-Unicode, Arial, Sans-serif">Created by Andrey Vasiliev</text><text x="0" y="120" fill="#000000" font-size="5px" font-weight="bold" font-family="'Helvetica Neue', Helvetica, Arial-Unicode, Arial, Sans-serif">from the Noun Project</text></svg>