<?xml version="1.0" encoding="UTF-8" standalone="no"?>
<!-- Created with Inkscape (http://www.inkscape.org/) -->

<svg
   xmlns:dc="http://purl.org/dc/elements/1.1/"
   xmlns:cc="http://creativecommons.org/ns#"
   xmlns:rdf="http://www.w3.org/1999/02/22-rdf-syntax-ns#"
   xmlns:svg="http://www.w3.org/2000/svg"
   xmlns="http://www.w3.org/2000/svg"
   xmlns:sodipodi="http://sodipodi.sourceforge.net/DTD/sodipodi-0.dtd"
   xmlns:inkscape="http://www.inkscape.org/namespaces/inkscape"
   width="7.099112mm"
   height="20.302519mm"
   viewBox="0 0 7.099112 20.302519"
   version="1.1"
   id="svg8"
   inkscape:version="0.92.4 (5da689c313, 2019-01-14)"
   sodipodi:docname="watertank.svg">
  <defs
     id="defs2" />
  <sodipodi:namedview
     id="base"
     pagecolor="#ffffff"
     bordercolor="#666666"
     borderopacity="1.0"
     inkscape:pageopacity="0.0"
     inkscape:pageshadow="2"
     inkscape:zoom="7.4539841"
     inkscape:cx="0.50980107"
     inkscape:cy="45.931625"
     inkscape:document-units="mm"
     inkscape:current-layer="layer1"
     showgrid="false"
     inkscape:window-width="3840"
     inkscape:window-height="2104"
     inkscape:window-x="-16"
     inkscape:window-y="-16"
     inkscape:window-maximized="1" />
  <metadata
     id="metadata5">
    <rdf:RDF>
      <cc:Work
         rdf:about="">
        <dc:format>image/svg+xml</dc:format>
        <dc:type
           rdf:resource="http://purl.org/dc/dcmitype/StillImage" />
        <dc:title></dc:title>
      </cc:Work>
    </rdf:RDF>
  </metadata>
  <g
     inkscape:label="Calque 1"
     inkscape:groupmode="layer"
     id="layer1"
     transform="translate(-99.193314,-119.72376)">
    <path
       style="color:#000000;font-style:normal;font-variant:normal;font-weight:normal;font-stretch:normal;font-size:medium;line-height:normal;font-family:sans-serif;font-variant-ligatures:normal;font-variant-position:normal;font-variant-caps:normal;font-variant-numeric:normal;font-variant-alternates:normal;font-feature-settings:normal;text-indent:0;text-align:start;text-decoration:none;text-decoration-line:none;text-decoration-style:solid;text-decoration-color:#000000;letter-spacing:normal;word-spacing:normal;text-transform:none;writing-mode:lr-tb;direction:ltr;text-orientation:mixed;dominant-baseline:auto;baseline-shift:baseline;text-anchor:start;white-space:normal;shape-padding:0;clip-rule:nonzero;display:inline;overflow:visible;visibility:visible;opacity:1;isolation:auto;mix-blend-mode:normal;color-interpolation:sRGB;color-interpolation-filters:linearRGB;solid-color:#000000;solid-opacity:1;vector-effect:none;fill:#000500;fill-opacity:1;fill-rule:nonzero;stroke:none;stroke-width:0.26458332;stroke-linecap:butt;stroke-linejoin:miter;stroke-miterlimit:4;stroke-dasharray:none;stroke-dashoffset:0;stroke-opacity:1;color-rendering:auto;image-rendering:auto;shape-rendering:auto;text-rendering:auto;enable-background:accumulate"
       d="m 98.916016,119.42773 v 2.64454 2.64648 h 1.058593 c 0.280161,0 0.481001,-0.0205 0.572271,0.008 0.0456,0.0142 0.0657,0.0296 0.0937,0.0762 0.0281,0.0466 0.0568,0.13153 0.0742,0.26758 0.0698,0.54422 -0.0312,1.84363 -0.21289,4.64844 -0.17604,2.71821 -0.37199,4.80358 -0.578122,6.20508 -0.103065,0.70075 -0.209441,1.232 -0.314453,1.57812 -0.05251,0.17306 -0.105449,0.29963 -0.150391,0.37305 -0.04494,0.0734 -0.06847,0.0723 -0.05273,0.0723 -0.12487,0 -0.241651,0.0365 -0.332031,0.10351 -0.09038,0.067 -0.158203,0.17156 -0.158203,0.29297 0,0.0989 0.06585,0.16873 0.130859,0.21289 0.06501,0.0442 0.142733,0.0751 0.234375,0.10156 0.183284,0.0529 0.421079,0.084 0.683594,0.084 0.316662,0 0.547942,0.0372 0.716792,0.11328 0.16885,0.0761 0.28202,0.18562 0.375,0.35937 0.18221,0.34046 0.57512,0.69267 0.93555,0.83789 0.15977,0.0644 0.31441,0.12418 0.43554,0.16993 0.0606,0.0229 0.11337,0.0423 0.1543,0.0566 0.0409,0.0144 0.0596,0.0242 0.0957,0.0312 v -0.002 c 0.13927,0.028 0.24708,-0.029 0.39258,-0.0996 0.1455,-0.0706 0.31227,-0.17017 0.48047,-0.28515 0.33641,-0.22996 0.67456,-0.51079 0.8457,-0.75195 0.1857,-0.26167 0.59359,-0.42969 1.1504,-0.42969 0.26101,0 0.49735,-0.031 0.67968,-0.084 0.0912,-0.0265 0.1677,-0.0573 0.23242,-0.10156 0.0647,-0.0442 0.13086,-0.11439 0.13086,-0.21289 0,-0.12619 -0.0771,-0.2296 -0.17382,-0.29492 -0.0967,-0.0653 -0.21945,-0.10156 -0.35157,-0.10156 -0.0529,0 -0.13609,-0.0401 -0.21289,-0.12891 -0.0768,-0.0888 -0.14272,-0.21994 -0.17187,-0.36133 -0.35052,-1.69929 -0.69381,-5.25325 -0.84961,-8.8418 l -0.16797,-3.89648 h 0.82812 1.09961 v -2.64648 -2.64454 h -3.83789 z m 0.265625,0.26368 h 3.570309 3.57227 v 2.38086 2.38085 h -0.83399 -1.10546 l 0.18164,4.17383 c 0.1562,3.59771 0.49716,7.14774 0.85547,8.88477 0.0383,0.18603 0.1207,0.3535 0.23046,0.48047 0.10977,0.12696 0.24954,0.2207 0.41211,0.2207 0.0834,0 0.15783,0.0241 0.20313,0.0547 0.0453,0.0306 0.0566,0.0568 0.0566,0.0762 0,-0.0257 0.0141,-0.0249 -0.0137,-0.006 -0.0278,0.019 -0.0843,0.0449 -0.15821,0.0664 -0.14791,0.0429 -0.36541,0.0723 -0.60546,0.0723 -0.6098,0 -1.10821,0.18079 -1.36524,0.54297 -0.128,0.18037 -0.4593,0.4668 -0.7793,0.68555 -0.16,0.10937 -0.31929,0.20354 -0.44726,0.26562 -0.12797,0.0621 -0.24116,0.0768 -0.22461,0.0801 h -0.002 c 0.0131,0.003 -0.0208,-0.008 -0.0586,-0.0215 -0.0378,-0.0133 -0.0891,-0.0303 -0.14844,-0.0527 -0.11866,-0.0448 -0.27154,-0.1062 -0.42968,-0.16992 -0.2754,-0.11096 -0.66463,-0.45875 -0.80274,-0.7168 -0.11484,-0.21459 -0.27847,-0.3757 -0.49804,-0.47461 -0.21958,-0.0989 -0.48852,-0.13867 -0.826176,-0.13867 -0.241689,0 -0.460344,-0.0293 -0.609375,-0.0723 -0.07452,-0.0215 -0.132057,-0.0473 -0.160157,-0.0664 -0.0281,-0.0191 -0.01367,-0.0203 -0.01367,0.006 0,-0.0241 0.01183,-0.0512 0.05078,-0.0801 0.03895,-0.0289 0.102469,-0.0508 0.173828,-0.0508 0.127689,0 0.213716,-0.0921 0.279297,-0.19922 0.06558,-0.10713 0.121594,-0.25051 0.177734,-0.43555 0.112281,-0.37007 0.218199,-0.90769 0.322269,-1.61523 0.20813,-1.41507 0.40378,-3.50644 0.58007,-6.22851 0.18156,-2.8034 0.29293,-4.0733 0.2129,-4.69727 -0.02,-0.15599 -0.0535,-0.2753 -0.11133,-0.37109 -0.0578,-0.0958 -0.14689,-0.16181 -0.24219,-0.19141 -0.1906,-0.0592 -0.38928,-0.0215 -0.650391,-0.0215 h -0.792968 v -2.38085 z m 0.263671,0.26367 v 1.80859 c 0,0.46461 0.02022,0.90667 0.05273,1.24805 0.01626,0.17069 0.03608,0.3163 0.05859,0.42969 0.01126,0.0567 0.02277,0.10406 0.03711,0.14648 0.01434,0.0424 0.02398,0.0787 0.06641,0.12109 0.06395,0.064 0.101042,0.0591 0.158203,0.0723 0.05716,0.0131 0.128935,0.0243 0.214845,0.0352 0.17182,0.0217 0.40213,0.0405 0.67969,0.0566 0.55513,0.0322 1.29353,0.0508 2.08399,0.0508 h 2.99804 v -1.98438 -1.98437 h -3.17383 z m 0.265626,0.26562 h 2.910152 2.91016 v 1.71875 1.72071 h -2.73437 c -0.78602,0 -1.52051,-0.019 -2.06836,-0.0508 -0.27393,-0.0159 -0.50065,-0.0362 -0.66211,-0.0567 -0.08073,-0.0102 -0.147012,-0.0195 -0.189457,-0.0293 -0.04244,-0.01 -0.069,-0.0397 -0.0293,0 0.01817,0.0182 0.0047,0.006 -0.0039,-0.0195 -0.0086,-0.0253 -0.01752,-0.0658 -0.02734,-0.11524 -0.01965,-0.099 -0.03897,-0.23734 -0.05469,-0.40234 -0.03143,-0.33 -0.05078,-0.76564 -0.05078,-1.22266 z m 3.021482,4.23242 c -0.3059,0 -0.54365,-0.007 -0.7539,0.0684 -0.21025,0.0751 -0.3693,0.24968 -0.46485,0.53321 -0.19109,0.56706 -0.23186,1.61678 -0.33984,3.75781 -0.15099,2.99384 -0.493,6.62949 -0.80078,8.51953 -0.0388,0.23817 -0.0445,0.42379 -0.006,0.57227 0.0193,0.0742 0.052,0.14083 0.10351,0.19336 0.0515,0.0525 0.12459,0.0849 0.19727,0.0898 0.14535,0.01 0.27995,-0.0618 0.42773,-0.17773 0.14779,-0.11597 0.30982,-0.28537 0.48633,-0.50977 0.32169,-0.40896 0.69304,-0.59436 1.08008,-0.58789 0.38704,0.006 0.80328,0.21143 1.19922,0.63867 0.18498,0.19959 0.37122,0.36206 0.53125,0.46875 0.08,0.0533 0.15211,0.0925 0.22461,0.11524 0.0363,0.0114 0.073,0.0199 0.11523,0.0176 0.0422,-0.002 0.0949,-0.0188 0.13281,-0.0566 0.0433,-0.0433 0.0426,-0.0707 0.0488,-0.0976 0.006,-0.027 0.009,-0.0542 0.0117,-0.0859 0.005,-0.0634 0.007,-0.14414 0.006,-0.24219 -0.003,-0.1961 -0.0166,-0.46402 -0.041,-0.78711 -0.0488,-0.64617 -0.1376,-1.51226 -0.25585,-2.44531 -0.23556,-1.85851 -0.42912,-4.04502 -0.42969,-4.82422 -6e-4,-0.80867 -0.0767,-2.2662 -0.16992,-3.2539 l -0.17969,-1.90626 z m 0,0.26563 h 0.88086 l 0.1582,1.66602 c 0.0922,0.97683 0.16934,2.43644 0.16993,3.22851 6e-4,0.82152 0.19316,2.99129 0.42968,4.85742 0.11777,0.92927 0.20753,1.79195 0.25586,2.43164 0.0242,0.31985 0.0386,0.58517 0.041,0.77149 10e-4,0.083 -7.3e-4,0.14355 -0.004,0.1914 -0.0334,-0.014 -0.0718,-0.031 -0.125,-0.0664 -0.13455,-0.0897 -0.3091,-0.24267 -0.48242,-0.42969 -0.43059,-0.46463 -0.91396,-0.71273 -1.39062,-0.7207 -0.47667,-0.008 -0.93296,0.22981 -1.29297,0.6875 -0.16771,0.21322 -0.31885,0.36867 -0.44141,0.46484 -0.12256,0.0962 -0.21546,0.12513 -0.24609,0.12305 -0.0153,-0.001 -0.0183,-0.003 -0.0274,-0.0117 -0.009,-0.009 -0.0239,-0.0311 -0.0351,-0.0742 -0.0225,-0.0862 -0.0238,-0.24707 0.0117,-0.46484 0.31141,-1.91234 0.65128,-5.54375 0.80273,-8.54688 0.108,-2.14131 0.1667,-3.20848 0.32812,-3.6875 0.0807,-0.23951 0.16226,-0.31964 0.30079,-0.36914 0.13853,-0.0495 0.35835,-0.0508 0.66601,-0.0508 z m -0.10351,12.69922 c -0.44902,0 -0.80547,0.23721 -0.93164,0.63476 -0.19027,0.59946 0.13212,1.1279 0.57812,1.35352 0.223,0.11281 0.47948,0.15552 0.72461,0.0977 0.24513,-0.0579 0.47466,-0.22006 0.62695,-0.49219 0.20371,-0.36402 0.17405,-0.76978 -0.0195,-1.07617 -0.19358,-0.30639 -0.55012,-0.51758 -0.97851,-0.51758 z m 0,0.26562 c 0.34278,0 0.60875,0.16284 0.7539,0.39258 0.14515,0.22974 0.17219,0.52339 0.0137,0.80664 -0.1202,0.2148 -0.28112,0.32176 -0.45703,0.36328 -0.1759,0.0415 -0.37127,0.0117 -0.54492,-0.0762 -0.3473,-0.17569 -0.59678,-0.55989 -0.44531,-1.03711 0.0945,-0.29762 0.31488,-0.44922 0.67969,-0.44922 z"
       id="path826"
       inkscape:connector-curvature="0" />
    <path
       style="fill:#000500;fill-opacity:1;fill-rule:evenodd;stroke:none;stroke-width:0;stroke-miterlimit:4;stroke-dasharray:none;stroke-dashoffset:0;stroke-opacity:1"
       d="m 386.837,528.72132 c -1.96098,-0.77772 -2.97052,-1.59066 -4.12603,-3.32249 -0.58686,-0.87956 -1.45073,-1.53036 -2.37376,-1.78828 -0.29515,-0.0825 -1.32577,-0.20507 -2.29028,-0.27245 -2.63233,-0.18388 -3.65224,-0.52917 -2.52839,-0.85596 1.1734,-0.3412 1.58184,-0.96131 2.18569,-3.31841 1.40597,-5.48806 2.34389,-15.01472 3.91506,-39.76612 0.0843,-1.32815 0.13084,-3.56186 0.10342,-4.96379 -0.0455,-2.32624 -0.0761,-2.59855 -0.35007,-3.11637 -0.50016,-0.94532 -0.75445,-1.0112 -3.81055,-0.98707 l -2.65822,0.021 v -8.92606 -8.92606 h 13.41565 13.41564 v 8.9214 8.92141 h -3.62222 -3.62223 v 0.38 c 0,0.98751 0.83041,19.12293 1.00847,22.02412 0.84301,13.73543 2.29622,26.09808 3.30526,28.11851 0.36016,0.72114 1.03953,1.36086 1.55808,1.46715 0.20156,0.0413 0.5946,0.13569 0.87343,0.20972 1.08811,0.2889 0.0597,0.61719 -2.4916,0.79534 -1.9153,0.13374 -2.5122,0.26139 -3.45652,0.73922 -0.62537,0.31644 -0.76921,0.44248 -2.2605,1.98065 -1.30333,1.34431 -4.048,3.18962 -4.72441,3.17634 -0.10155,-0.002 -0.76121,-0.23229 -1.46592,-0.51178 z m 3.09239,-1.64163 c 1.29862,-0.58716 2.14102,-1.84466 2.25017,-3.35897 0.0892,-1.23782 -0.22571,-2.12647 -1.06995,-3.01914 -2.0254,-2.14155 -5.60149,-1.72471 -6.67833,0.77845 -0.40409,0.93935 -0.35215,2.57351 0.1101,3.46369 0.53995,1.03982 1.4515,1.83529 2.55494,2.2296 0.75681,0.27045 2.12806,0.22513 2.83307,-0.0936 z m -8.18073,-5.15626 c 0.2637,-0.16647 1.15379,-1.02321 1.97798,-1.90387 1.93565,-2.06829 2.50565,-2.38737 4.26478,-2.38737 1.12154,0 1.28531,0.0358 2.13506,0.4673 0.65114,0.33061 1.38513,0.9067 2.5093,1.96951 1.85096,1.74993 2.81578,2.32627 3.45262,2.06248 0.21401,-0.0886 0.42422,-0.29206 0.46713,-0.45204 0.29071,-1.0838 -0.0697,-5.55346 -1.25129,-15.51762 -0.84527,-7.12803 -1.29166,-12.60069 -1.41711,-17.37326 -0.13256,-5.04307 -0.52095,-10.61679 -1.22698,-17.60803 l -0.0847,-0.83848 -3.16769,8e-4 c -3.36268,8.1e-4 -3.95711,0.0797 -4.67396,0.62068 -1.37785,1.03969 -1.76753,3.25678 -2.24873,12.79416 -0.65743,13.03026 -1.70654,25.10195 -2.89021,33.25653 -0.2189,1.50807 -0.398,3.03572 -0.398,3.39477 0,1.74419 1.12766,2.41344 2.55178,1.51444 z m 18.10831,-61.03941 v -7.57984 h -12.007 -12.007 v 5.00757 c 0,6.63185 0.22205,8.84528 0.93909,9.36112 0.74463,0.53568 4.88827,0.74031 15.59569,0.77014 l 7.47922,0.0208 z"
       id="path838"
       inkscape:connector-curvature="0"
       transform="scale(0.26458333)" />
  </g>
</svg>
