<?xml version="1.0" encoding="UTF-8" standalone="no"?>
<svg
   xmlns:dc="http://purl.org/dc/elements/1.1/"
   xmlns:cc="http://creativecommons.org/ns#"
   xmlns:rdf="http://www.w3.org/1999/02/22-rdf-syntax-ns#"
   xmlns:svg="http://www.w3.org/2000/svg"
   xmlns="http://www.w3.org/2000/svg"
   xmlns:sodipodi="http://sodipodi.sourceforge.net/DTD/sodipodi-0.dtd"
   xmlns:inkscape="http://www.inkscape.org/namespaces/inkscape"
   version="1.1"
   x="0px"
   y="0px"
   viewBox="-55 147 324.51935 269.60187"
   xml:space="preserve"
   id="svg835"
   sodipodi:docname="Windfarm.svg"
   width="324.51935"
   height="269.60187"
   inkscape:version="0.92.4 (5da689c313, 2019-01-14)"><metadata
     id="metadata841"><rdf:RDF><cc:Work
         rdf:about=""><dc:format>image/svg+xml</dc:format><dc:type
           rdf:resource="http://purl.org/dc/dcmitype/StillImage" /></cc:Work></rdf:RDF></metadata><defs
     id="defs839" /><sodipodi:namedview
     pagecolor="#ffffff"
     bordercolor="#666666"
     borderopacity="1"
     objecttolerance="10"
     gridtolerance="10"
     guidetolerance="10"
     inkscape:pageopacity="0"
     inkscape:pageshadow="2"
     inkscape:window-width="4200"
     inkscape:window-height="2569"
     id="namedview837"
     showgrid="false"
     inkscape:zoom="3.5872"
     inkscape:cx="167.91869"
     inkscape:cy="76.53824"
     inkscape:window-x="-16"
     inkscape:window-y="-16"
     inkscape:window-maximized="1"
     inkscape:current-layer="svg835" /><path
     d="m 193.44899,278.755 -75.25228,-27.47681 c 2.72275,-4.51861 1.67999,-10.04135 -3.07034,-13.7384 -0.57931,-0.45642 -1.21655,-0.86721 -1.91172,-1.23235 5.03999,-5.88788 10.36963,-12.18655 10.36963,-12.18655 l -11.18067,-54.90797 c -0.7531,-3.69705 -7.76274,-3.28627 -7.76274,0.50207 v 64.31033 c -4.1131,-0.0913 -8.284132,1.04977 -11.470332,3.51447 -2.49103,1.96263 -3.9393,4.38168 -4.34482,6.93767 l -17.95859,-2.1452 -58.799901,31.12821 c -3.9972402,2.09955 -0.52138,6.89202 3.82344,5.29453 l 74.441251,-27.15731 c 0.69518,1.14107 1.68,2.19084 2.89655,3.10369 1.27448,1.00414 2.72276,1.78006 4.22896,2.32777 l -6.43033,137.84046 H 117.32774 L 110.89741,257.0748 c 0.52138,-0.18257 1.04275,-0.41079 1.56413,-0.68464 l 9.96412,12.82555 68.30058,15.24461 c 4.63448,1.04978 7.06757,-4.10783 2.72275,-5.70532 z M 99.832598,242.74304 c 1.158622,-0.91285 2.722752,-1.41492 4.344822,-1.41492 1.62207,0 3.1862,0.50207 4.34482,1.41492 2.37517,1.87134 2.37517,4.92939 0,6.80074 -1.15862,0.91285 -2.72275,1.41492 -4.34482,1.41492 -1.62207,0 -3.1862,-0.50207 -4.344822,-1.41492 -2.37517,-1.87135 -2.37517,-4.9294 0,-6.80074 z"
     id="path829"
     inkscape:connector-curvature="0"
     style="stroke-width:0.51420957;fill:#ffadfb;fill-opacity:1" /><text
     x="-137.08131"
     y="542.56366"
     font-size="5px"
     font-weight="bold"
     id="text831"
     style="font-weight:bold;font-size:5px;font-family:'Helvetica Neue', Helvetica, Arial-Unicode, Arial, Sans-serif;fill:#000000">Created by IronSV</text>
<text
     x="-137.08131"
     y="547.56366"
     font-size="5px"
     font-weight="bold"
     id="text833"
     style="font-weight:bold;font-size:5px;font-family:'Helvetica Neue', Helvetica, Arial-Unicode, Arial, Sans-serif;fill:#000000">from the Noun Project</text>
<ellipse
     style="fill:none;fill-opacity:1;fill-rule:evenodd;stroke:#ffadfb;stroke-width:7.55905533;stroke-miterlimit:4;stroke-dasharray:none;stroke-dashoffset:0;stroke-opacity:1"
     id="path843"
     cx="107.25967"
     cy="281.80093"
     rx="158.48015"
     ry="131.02141" /></svg>