<?xml version="1.0" encoding="UTF-8" standalone="no"?>
<!-- Created with Inkscape (http://www.inkscape.org/) -->

<svg
   xmlns:dc="http://purl.org/dc/elements/1.1/"
   xmlns:cc="http://creativecommons.org/ns#"
   xmlns:rdf="http://www.w3.org/1999/02/22-rdf-syntax-ns#"
   xmlns:svg="http://www.w3.org/2000/svg"
   xmlns="http://www.w3.org/2000/svg"
   xmlns:sodipodi="http://sodipodi.sourceforge.net/DTD/sodipodi-0.dtd"
   xmlns:inkscape="http://www.inkscape.org/namespaces/inkscape"
   version="1.0"
   width="140"
   height="140"
   id="svg3425"
   sodipodi:docname="wreck_dangerous.svg"
   inkscape:version="0.92.4 (5da689c313, 2019-01-14)">
  <metadata
     id="metadata885">
    <rdf:RDF>
      <cc:Work
         rdf:about="">
        <dc:format>image/svg+xml</dc:format>
        <dc:type
           rdf:resource="http://purl.org/dc/dcmitype/StillImage" />
        <dc:title></dc:title>
      </cc:Work>
    </rdf:RDF>
  </metadata>
  <sodipodi:namedview
     pagecolor="#ffffff"
     bordercolor="#666666"
     borderopacity="1"
     objecttolerance="10"
     gridtolerance="10"
     guidetolerance="10"
     inkscape:pageopacity="0"
     inkscape:pageshadow="2"
     inkscape:window-width="4200"
     inkscape:window-height="2569"
     id="namedview883"
     showgrid="false"
     inkscape:zoom="13.546134"
     inkscape:cx="55.762712"
     inkscape:cy="64.957627"
     inkscape:window-x="-16"
     inkscape:window-y="-16"
     inkscape:window-maximized="1"
     inkscape:current-layer="svg3425" />
  <defs
     id="defs3427" />
  <path
     d="m 110.85236,93.069312 c 0,10.840568 -18.356334,19.628588 -41.000004,19.628588 -22.64367,0 -41,-8.78802 -41,-19.628588 0,-10.840568 18.35633,-19.628589 41,-19.628589 22.64367,0 41.000004,8.788021 41.000004,19.628589 z"
     id="path3546"
     style="fill:#81c3e2;stroke-width:0.69191474"
     inkscape:connector-curvature="0" />
  <path
     d="m 67.917572,72.192356 c -0.48932,0.239439 -0.849846,0.707592 -0.84375,1.042003 0.0061,0.33441 0.38568,0.793408 0.875,1.026901 0.48932,0.233493 1.437342,0.40984 2.125,0.40774 0.687658,-0.002 1.639989,-0.184295 2.125,-0.422842 0.485011,-0.238547 0.849846,-0.707592 0.84375,-1.042002 -0.0061,-0.33441 -0.390004,-0.794286 -0.875,-1.026901 -0.484996,-0.232615 -1.406092,-0.408142 -2.09375,-0.40774 -0.687658,4.01e-4 -1.66693,0.183402 -2.15625,0.422841 z m -15.6875,1.510149 c -0.489312,0.237671 -0.881129,0.705878 -0.875,1.042002 0.0061,0.336125 0.416959,0.795144 0.90625,1.026901 0.489291,0.231758 1.406092,0.408142 2.09375,0.40774 0.687658,-4.01e-4 1.66693,-0.183402 2.15625,-0.422841 0.48932,-0.239439 0.849846,-0.707592 0.84375,-1.042003 -0.0061,-0.334409 -0.38568,-0.793407 -0.875,-1.026901 -0.48932,-0.233492 -1.437342,-0.40984 -2.125,-0.40774 -0.687658,0.002 -1.635688,0.185171 -2.125,0.422842 z m 31.375,0 c -0.487481,0.237353 -0.852419,0.693736 -0.84375,1.026901 0.0087,0.333165 0.418769,0.793033 0.90625,1.026901 0.487481,0.233869 1.406843,0.424047 2.09375,0.422841 0.686907,-0.0012 1.639285,-0.200267 2.125,-0.437943 0.485715,-0.237675 0.879323,-0.692867 0.875,-1.026901 -0.0043,-0.334033 -0.416959,-0.795143 -0.90625,-1.026901 -0.489291,-0.231757 -1.406092,-0.408141 -2.09375,-0.40774 -0.687658,4.02e-4 -1.668769,0.185489 -2.15625,0.422842 z m 13.3125,4.288821 c -0.489312,0.237672 -0.881129,0.705879 -0.875,1.042003 0.0061,0.336124 0.416959,0.795144 0.90625,1.026901 0.489291,0.231758 1.408653,0.411057 2.09375,0.40774 0.685097,-0.0033 1.639288,-0.200268 2.124998,-0.437943 0.48571,-0.237675 0.87932,-0.692867 0.875,-1.0269 -0.004,-0.334035 -0.41696,-0.795144 -0.90625,-1.026902 -0.48929,-0.231757 -1.410433,-0.408983 -2.093748,-0.40774 -0.683315,0.0013 -1.635688,0.18517 -2.125,0.422841 z m -57.96875,0.0151 c -0.4875,0.235584 -0.879323,0.692867 -0.875,1.026901 0.0043,0.334034 0.418769,0.793033 0.90625,1.026901 0.487481,0.233869 1.406843,0.424048 2.09375,0.422842 0.686907,-0.0012 1.639285,-0.200268 2.125,-0.437943 0.485715,-0.237675 0.879323,-0.692867 0.875,-1.026901 -0.0043,-0.334034 -0.416959,-0.795144 -0.90625,-1.026901 -0.489291,-0.231757 -1.410435,-0.408984 -2.09375,-0.40774 -0.683315,0.0013 -1.6375,0.187258 -2.125,0.422841 z m 66.874998,6.418131 c -0.48571,0.237676 -0.87932,0.692868 -0.875,1.026901 0.004,0.334034 0.41696,0.795144 0.90625,1.026901 0.48929,0.231758 1.41044,0.408984 2.09375,0.407741 0.68331,-0.0013 1.6375,-0.187259 2.125,-0.422842 0.4875,-0.235583 0.87932,-0.692867 0.875,-1.026901 -0.004,-0.334034 -0.41877,-0.793032 -0.90625,-1.026901 -0.48748,-0.233868 -1.40684,-0.424047 -2.09375,-0.422842 -0.68691,0.0012 -1.63929,0.200269 -2.125,0.437943 z m -75.781248,0.0151 c -0.485684,0.239425 -0.848096,0.694592 -0.84375,1.026901 0.0043,0.332309 0.38568,0.793408 0.875,1.026901 0.48932,0.233493 1.437342,0.40984 2.125,0.40774 0.687658,-0.002 1.635688,-0.18517 2.125,-0.422842 0.489312,-0.237671 0.882948,-0.707968 0.875,-1.042002 -0.0079,-0.334034 -0.420535,-0.780027 -0.90625,-1.0118 -0.485715,-0.231771 -1.402523,-0.423179 -2.09375,-0.422841 -0.691227,3.38e-4 -1.670566,0.198518 -2.15625,0.437943 z m 78.906248,7.565844 c -0.48571,0.237675 -0.80719,0.861264 -0.875,1.026902 -0.0678,0.165637 -0.0704,-0.149057 0,0.0151 0.0704,0.164157 0.83589,0.847643 0.90625,1.0118 0.0704,0.164158 -0.19209,-0.12239 0,0.0151 0.19209,0.137491 1.41044,0.408983 2.09375,0.40774 0.68331,-0.0013 1.93058,-0.282548 2.125,-0.422842 0.19442,-0.140293 -0.0678,0.150537 0,-0.0151 0.0678,-0.165638 0.87932,-0.692868 0.875,-1.026901 -0.004,-0.334034 -0.41877,-0.793033 -0.90625,-1.026901 -0.48748,-0.233869 -1.40684,-0.424048 -2.09375,-0.422842 -0.68691,0.0012 -1.63929,0.200268 -2.125,0.437944 z m -81.999998,0.0151 c -0.485715,0.237675 -0.879323,0.692867 -0.875,1.0269 0.0043,0.334035 0.416959,0.795144 0.90625,1.026902 0.489291,0.231757 1.410435,0.408983 2.09375,0.40774 0.683315,-0.0013 1.6375,-0.187259 2.125,-0.422841 0.4875,-0.235584 0.879323,-0.692868 0.875,-1.026901 -0.0043,-0.334034 -0.418769,-0.793033 -0.90625,-1.026902 -0.487481,-0.233868 -1.406843,-0.424047 -2.09375,-0.422841 -0.686907,0.0012 -1.639285,0.200268 -2.125,0.437943 z m 3.125,7.580946 c -0.485715,0.237674 -0.879323,0.692873 -0.875,1.026903 0.0043,0.33403 0.416959,0.79514 0.90625,1.0269 0.489291,0.23176 1.410435,0.40898 2.09375,0.40774 0.683315,-0.001 1.6375,-0.18726 2.125,-0.42284 0.4875,-0.23558 0.879323,-0.69287 0.875,-1.0269 -0.0043,-0.33404 -0.418769,-0.793037 -0.90625,-1.026905 -0.487481,-0.233869 -1.406843,-0.424047 -2.09375,-0.422841 -0.686907,0.0012 -1.639285,0.200267 -2.125,0.437943 z m 75.749998,-0.0151 c -0.48931,0.237671 -0.88113,0.705873 -0.875,1.042003 0.006,0.33612 0.41696,0.79514 0.90625,1.0269 0.48929,0.23176 1.41044,0.40898 2.09375,0.40774 0.68331,-0.001 1.63569,-0.18517 2.125,-0.42284 0.48931,-0.23767 0.88113,-0.70588 0.875,-1.04201 -0.006,-0.33612 -0.41696,-0.795138 -0.90625,-1.026895 -0.48929,-0.231757 -1.41044,-0.408983 -2.09375,-0.407739 -0.68331,0.0013 -1.63569,0.18517 -2.125,0.422841 z m -66.874998,6.433233 c -0.489312,0.23767 -0.881129,0.70588 -0.875,1.042 0.0061,0.33613 0.416959,0.79515 0.90625,1.02691 0.489291,0.23175 1.406092,0.40813 2.09375,0.40774 0.687658,-4e-4 1.66693,-0.18341 2.15625,-0.42285 0.48932,-0.23944 0.849846,-0.70759 0.84375,-1.042 -0.0061,-0.33441 -0.38568,-0.79341 -0.875,-1.0269 -0.48932,-0.23349 -1.437342,-0.40984 -2.125,-0.40774 -0.687658,0.002 -1.635688,0.18517 -2.125,0.42284 z m 58,0 c -0.4875,0.23559 -0.879323,0.69287 -0.875,1.0269 0.0043,0.33403 0.418769,0.79304 0.90625,1.0269 0.487481,0.23387 1.406843,0.42405 2.09375,0.42285 0.686907,-7.1e-4 1.639288,-0.20027 2.124998,-0.43794 0.48571,-0.23768 0.87932,-0.69288 0.875,-1.02691 -0.004,-0.33404 -0.41696,-0.79514 -0.90625,-1.0269 -0.48929,-0.23176 -1.410433,-0.40898 -2.093748,-0.40774 -0.683315,0.001 -1.6375,0.18726 -2.125,0.42284 z m -44.6875,4.30393 c -0.485715,0.23767 -0.879323,0.69286 -0.875,1.0269 0.0043,0.33403 0.416959,0.79514 0.90625,1.0269 0.489291,0.23176 1.410435,0.40898 2.09375,0.40773 0.683315,-0.001 1.6375,-0.18725 2.125,-0.42284 0.4875,-0.23558 0.879323,-0.69286 0.875,-1.0269 -0.0043,-0.33403 -0.418769,-0.79303 -0.90625,-1.0269 -0.487481,-0.23386 -1.406843,-0.42405 -2.09375,-0.42284 -0.686907,0.001 -1.639285,0.20027 -2.125,0.43795 z m 31.375,0 c -0.485715,0.23767 -0.879323,0.69286 -0.875,1.0269 0.0043,0.33403 0.416959,0.79514 0.90625,1.0269 0.489291,0.23176 1.410435,0.40898 2.09375,0.40773 0.683315,-0.001 1.635688,-0.18516 2.125,-0.42284 0.489312,-0.23767 0.882948,-0.70796 0.875,-1.04199 -0.0079,-0.33404 -0.420535,-0.78004 -0.90625,-1.01181 -0.485715,-0.23177 -1.406843,-0.42405 -2.09375,-0.42284 -0.686907,0.001 -1.639285,0.20027 -2.125,0.43795 z m -15.6875,1.49504 c -0.489312,0.23767 -0.881129,0.70588 -0.875,1.04201 0.0061,0.33611 0.416959,0.79514 0.90625,1.0269 0.489291,0.23175 1.410435,0.40898 2.09375,0.40773 0.683315,-10e-4 1.635688,-0.18516 2.125,-0.42284 0.489312,-0.23767 0.881129,-0.70588 0.875,-1.04199 -0.0061,-0.33613 -0.416959,-0.79516 -0.90625,-1.02691 -0.489291,-0.23175 -1.410435,-0.40898 -2.09375,-0.40774 -0.683315,0.001 -1.635688,0.18517 -2.125,0.42284 z"
     id="path2381"
     style="fill:#000000;fill-opacity:1;fill-rule:evenodd;stroke:none;stroke-width:4.17096043;stroke-linecap:round;stroke-linejoin:round;stroke-dasharray:0, 11.19207718;stroke-dashoffset:0;stroke-opacity:1"
     inkscape:connector-curvature="0" />
</svg>
